# Cosmetic cavern mesh; no collision.
s off
v 28.173365 276.000000 -58.307799
v 27.920031 276.000000 -44.374466
v 27.666698 276.000000 -30.441133
v 27.413365 276.000000 -16.507799
v 47.933365 276.000000 -6.121133
v 68.453365 276.000000 4.265534
v 88.973365 276.000000 14.652201
v 28.173365 204.500000 -58.307799
v 15.531441 204.500000 -36.914296
v 2.889516 204.500000 -15.520792
v -9.752408 204.500000 5.872712
v 23.156183 204.500000 8.799208
v 56.064774 204.500000 11.725704
v 88.973365 204.500000 14.652201
v 28.173365 133.000000 -58.307799
v 9.455369 133.000000 -33.255402
v -9.262628 133.000000 -8.203005
v -27.980624 133.000000 16.849392
v 11.004039 133.000000 16.116995
v 49.988702 133.000000 15.384598
v 88.973365 133.000000 14.652201
v 28.173365 61.500000 -58.307799
v 5.950231 61.500000 -31.144676
v -16.272902 61.500000 -3.981553
v -38.496035 61.500000 23.181570
v 3.993765 61.500000 20.338447
v 46.483565 61.500000 17.495324
v 88.973365 61.500000 14.652201
v 28.173365 -10.000000 -58.307799
v 4.790005 -10.000000 -30.446010
v -18.593355 -10.000000 -2.584221
v -41.976715 -10.000000 25.277568
v 1.673312 -10.000000 21.735779
v 45.323338 -10.000000 18.193990
v 88.973365 -10.000000 14.652201
v 28.173365 -81.500000 -58.307799
v 5.950231 -81.500000 -31.144676
v -16.272902 -81.500000 -3.981553
v -38.496035 -81.500000 23.181570
v 3.993765 -81.500000 20.338447
v 46.483565 -81.500000 17.495324
v 88.973365 -81.500000 14.652201
v 28.173365 -153.000000 -58.307799
v 9.455369 -153.000000 -33.255402
v -9.262628 -153.000000 -8.203005
v -27.980624 -153.000000 16.849392
v 11.004039 -153.000000 16.116995
v 49.988702 -153.000000 15.384598
v 88.973365 -153.000000 14.652201
v 28.173365 -224.500000 -58.307799
v 15.531441 -224.500000 -36.914296
v 2.889516 -224.500000 -15.520792
v -9.752408 -224.500000 5.872712
v 23.156183 -224.500000 8.799208
v 56.064774 -224.500000 11.725704
v 88.973365 -224.500000 14.652201
v 28.173365 -296.000000 -58.307799
v 27.920031 -296.000000 -44.374466
v 27.666698 -296.000000 -30.441133
v 27.413365 -296.000000 -16.507799
v 47.933365 -296.000000 -6.121133
v 68.453365 -296.000000 4.265534
v 88.973365 -296.000000 14.652201
vt -28.984450 -6.546875
vt -28.984450 -7.105469
vt -29.093304 -6.546875
vt -29.093304 -6.546875
vt -28.984450 -7.105469
vt -29.151587 -7.105469
vt -29.093304 -6.546875
vt -29.151587 -7.105469
vt -29.202158 -6.546875
vt -29.202158 -6.546875
vt -29.151587 -7.105469
vt -29.318723 -7.105469
vt -29.202158 -6.546875
vt -29.318723 -7.105469
vt -29.311012 -6.546875
vt -29.311012 -6.546875
vt -29.318723 -7.105469
vt -29.485860 -7.105469
vt 56.064688 -6.546875
vt 55.774330 -7.105469
vt 56.225000 -6.546875
vt 56.225000 -6.546875
vt 55.774330 -7.105469
vt 56.031428 -7.105469
vt 56.225000 -6.546875
vt 56.031428 -7.105469
vt 56.385313 -6.546875
vt 56.385313 -6.546875
vt 56.031428 -7.105469
vt 56.288527 -7.105469
vt 56.385313 -6.546875
vt 56.288527 -7.105469
vt 56.545625 -6.546875
vt 56.545625 -6.546875
vt 56.288527 -7.105469
vt 56.545625 -7.105469
vt -28.984450 -7.105469
vt -28.984450 -7.664062
vt -29.151587 -7.105469
vt -29.151587 -7.105469
vt -28.984450 -7.664062
vt -29.180172 -7.664062
vt -29.151587 -7.105469
vt -29.180172 -7.664062
vt -29.318723 -7.105469
vt -29.318723 -7.105469
vt -29.180172 -7.664062
vt -29.375894 -7.664062
vt -29.318723 -7.105469
vt -29.375894 -7.664062
vt -29.485860 -7.105469
vt -29.485860 -7.105469
vt -29.375894 -7.664062
vt -29.571615 -7.664062
vt 55.774330 -7.105469
vt 55.631922 -7.664062
vt 56.031428 -7.105469
vt 56.031428 -7.105469
vt 55.631922 -7.664062
vt 55.936490 -7.664062
vt 56.031428 -7.105469
vt 55.936490 -7.664062
vt 56.288527 -7.105469
vt 56.288527 -7.105469
vt 55.936490 -7.664062
vt 56.241057 -7.664062
vt 56.288527 -7.105469
vt 56.241057 -7.664062
vt 56.545625 -7.105469
vt 56.545625 -7.105469
vt 56.241057 -7.664062
vt 56.545625 -7.664062
vt -28.984450 -7.664062
vt -28.984450 -8.222656
vt -29.180172 -7.664062
vt -29.180172 -7.664062
vt -28.984450 -8.222656
vt -29.196662 -8.222656
vt -29.180172 -7.664062
vt -29.196662 -8.222656
vt -29.375894 -7.664062
vt -29.375894 -7.664062
vt -29.196662 -8.222656
vt -29.408874 -8.222656
vt -29.375894 -7.664062
vt -29.408874 -8.222656
vt -29.571615 -7.664062
vt -29.571615 -7.664062
vt -29.408874 -8.222656
vt -29.621086 -8.222656
vt 55.631922 -7.664062
vt 55.549770 -8.222656
vt 55.936490 -7.664062
vt 55.936490 -7.664062
vt 55.549770 -8.222656
vt 55.881722 -8.222656
vt 55.936490 -7.664062
vt 55.881722 -8.222656
vt 56.241057 -7.664062
vt 56.241057 -7.664062
vt 55.881722 -8.222656
vt 56.213674 -8.222656
vt 56.241057 -7.664062
vt 56.213674 -8.222656
vt 56.545625 -7.664062
vt 56.545625 -7.664062
vt 56.213674 -8.222656
vt 56.545625 -8.222656
vt -28.984450 -8.222656
vt -28.984450 -8.781250
vt -29.196662 -8.222656
vt -29.196662 -8.222656
vt -28.984450 -8.781250
vt -29.202120 -8.781250
vt -29.196662 -8.222656
vt -29.202120 -8.781250
vt -29.408874 -8.222656
vt -29.408874 -8.222656
vt -29.202120 -8.781250
vt -29.419790 -8.781250
vt -29.408874 -8.222656
vt -29.419790 -8.781250
vt -29.621086 -8.222656
vt -29.621086 -8.222656
vt -29.419790 -8.781250
vt -29.637460 -8.781250
vt 55.549770 -8.222656
vt 55.522578 -8.781250
vt 55.881722 -8.222656
vt 55.881722 -8.222656
vt 55.522578 -8.781250
vt 55.863593 -8.781250
vt 55.881722 -8.222656
vt 55.863593 -8.781250
vt 56.213674 -8.222656
vt 56.213674 -8.222656
vt 55.863593 -8.781250
vt 56.204609 -8.781250
vt 56.213674 -8.222656
vt 56.204609 -8.781250
vt 56.545625 -8.222656
vt 56.545625 -8.222656
vt 56.204609 -8.781250
vt 56.545625 -8.781250
vt -28.984450 -8.781250
vt -28.984450 -9.339844
vt -29.202120 -8.781250
vt -29.202120 -8.781250
vt -28.984450 -9.339844
vt -29.196662 -9.339844
vt -29.202120 -8.781250
vt -29.196662 -9.339844
vt -29.419790 -8.781250
vt -29.419790 -8.781250
vt -29.196662 -9.339844
vt -29.408874 -9.339844
vt -29.419790 -8.781250
vt -29.408874 -9.339844
vt -29.637460 -8.781250
vt -29.637460 -8.781250
vt -29.408874 -9.339844
vt -29.621086 -9.339844
vt 55.522578 -8.781250
vt 55.549770 -9.339844
vt 55.863593 -8.781250
vt 55.863593 -8.781250
vt 55.549770 -9.339844
vt 55.881722 -9.339844
vt 55.863593 -8.781250
vt 55.881722 -9.339844
vt 56.204609 -8.781250
vt 56.204609 -8.781250
vt 55.881722 -9.339844
vt 56.213674 -9.339844
vt 56.204609 -8.781250
vt 56.213674 -9.339844
vt 56.545625 -8.781250
vt 56.545625 -8.781250
vt 56.213674 -9.339844
vt 56.545625 -9.339844
vt -28.984450 -9.339844
vt -28.984450 -9.898438
vt -29.196662 -9.339844
vt -29.196662 -9.339844
vt -28.984450 -9.898438
vt -29.180172 -9.898438
vt -29.196662 -9.339844
vt -29.180172 -9.898438
vt -29.408874 -9.339844
vt -29.408874 -9.339844
vt -29.180172 -9.898438
vt -29.375894 -9.898438
vt -29.408874 -9.339844
vt -29.375894 -9.898438
vt -29.621086 -9.339844
vt -29.621086 -9.339844
vt -29.375894 -9.898438
vt -29.571615 -9.898438
vt 55.549770 -9.339844
vt 55.631922 -9.898438
vt 55.881722 -9.339844
vt 55.881722 -9.339844
vt 55.631922 -9.898438
vt 55.936490 -9.898438
vt 55.881722 -9.339844
vt 55.936490 -9.898438
vt 56.213674 -9.339844
vt 56.213674 -9.339844
vt 55.936490 -9.898438
vt 56.241057 -9.898438
vt 56.213674 -9.339844
vt 56.241057 -9.898438
vt 56.545625 -9.339844
vt 56.545625 -9.339844
vt 56.241057 -9.898438
vt 56.545625 -9.898438
vt -28.984450 -9.898438
vt -28.984450 -10.457031
vt -29.180172 -9.898438
vt -29.180172 -9.898438
vt -28.984450 -10.457031
vt -29.151587 -10.457031
vt -29.180172 -9.898438
vt -29.151587 -10.457031
vt -29.375894 -9.898438
vt -29.375894 -9.898438
vt -29.151587 -10.457031
vt -29.318723 -10.457031
vt -29.375894 -9.898438
vt -29.318723 -10.457031
vt -29.571615 -9.898438
vt -29.571615 -9.898438
vt -29.318723 -10.457031
vt -29.485860 -10.457031
vt 55.631922 -9.898438
vt 55.774330 -10.457031
vt 55.936490 -9.898438
vt 55.936490 -9.898438
vt 55.774330 -10.457031
vt 56.031428 -10.457031
vt 55.936490 -9.898438
vt 56.031428 -10.457031
vt 56.241057 -9.898438
vt 56.241057 -9.898438
vt 56.031428 -10.457031
vt 56.288527 -10.457031
vt 56.241057 -9.898438
vt 56.288527 -10.457031
vt 56.545625 -9.898438
vt 56.545625 -9.898438
vt 56.288527 -10.457031
vt 56.545625 -10.457031
vt -28.984450 -10.457031
vt -28.984450 -11.015625
vt -29.151587 -10.457031
vt -29.151587 -10.457031
vt -28.984450 -11.015625
vt -29.093304 -11.015625
vt -29.151587 -10.457031
vt -29.093304 -11.015625
vt -29.318723 -10.457031
vt -29.318723 -10.457031
vt -29.093304 -11.015625
vt -29.202158 -11.015625
vt -29.318723 -10.457031
vt -29.202158 -11.015625
vt -29.485860 -10.457031
vt -29.485860 -10.457031
vt -29.202158 -11.015625
vt -29.311012 -11.015625
vt 55.774330 -10.457031
vt 56.064688 -11.015625
vt 56.031428 -10.457031
vt 56.031428 -10.457031
vt 56.064688 -11.015625
vt 56.225000 -11.015625
vt 56.031428 -10.457031
vt 56.225000 -11.015625
vt 56.288527 -10.457031
vt 56.288527 -10.457031
vt 56.225000 -11.015625
vt 56.385313 -11.015625
vt 56.288527 -10.457031
vt 56.385313 -11.015625
vt 56.545625 -10.457031
vt 56.545625 -10.457031
vt 56.385313 -11.015625
vt 56.545625 -11.015625
vn -0.999835 0.000000 -0.018179
vn -0.856974 0.095648 -0.506406
vn -0.985474 0.168881 -0.017918
vn -0.845451 0.188724 -0.499597
vn -0.945840 0.324177 -0.017197
vn -0.827237 0.276987 -0.488833
vn -0.401658 0.457165 0.793519
vn -0.086161 0.232040 0.968883
vn -0.427225 0.324177 0.844031
vn -0.087955 0.118436 0.989059
vn -0.445127 0.168881 0.879398
vn -0.088578 -0.000000 0.996069
vn -0.860921 0.000000 -0.508739
vn -0.800532 0.037421 -0.598121
vn -0.859967 0.047075 -0.508174
vn -0.798856 0.074686 -0.596868
vn -0.857122 0.093839 -0.506494
vn -0.796085 0.111641 -0.594798
vn -0.087245 0.172857 0.981075
vn 0.018692 0.098653 0.994946
vn -0.087978 0.116207 0.989321
vn 0.018760 0.049507 0.998598
vn -0.088427 0.058400 0.994369
vn 0.018783 0.000000 0.999824
vn -0.801093 0.000000 -0.598540
vn -0.773831 0.019246 -0.633099
vn -0.800906 0.021598 -0.598400
vn -0.773402 0.038471 -0.632748
vn -0.800346 0.043165 -0.597982
vn -0.772687 0.057652 -0.632163
vn 0.018715 0.085470 0.996165
vn 0.066672 0.052292 0.996404
vn 0.018753 0.057096 0.998193
vn 0.066741 0.026173 0.997427
vn 0.018776 0.028583 0.999415
vn 0.066764 0.000000 0.997769
vn -0.773975 0.000000 -0.633217
vn -0.765968 0.006148 -0.642849
vn -0.773959 0.006372 -0.633204
vn -0.765925 0.012295 -0.642812
vn -0.773912 0.012742 -0.633165
vn -0.765853 0.018440 -0.642752
vn 0.066741 0.025990 0.997432
vn 0.080863 0.016852 0.996583
vn 0.066754 0.017330 0.997619
vn 0.080872 0.008427 0.996689
vn 0.066761 0.008666 0.997731
vn 0.080875 0.000000 0.996724
vn -0.765983 0.000000 -0.642861
vn -0.773959 -0.006372 -0.633204
vn -0.765968 -0.006148 -0.642849
vn -0.773912 -0.012742 -0.633165
vn -0.765925 -0.012295 -0.642812
vn -0.773833 -0.019112 -0.633101
vn 0.080849 -0.025274 0.996406
vn 0.066754 -0.017330 0.997619
vn 0.080863 -0.016852 0.996583
vn 0.066761 -0.008666 0.997731
vn 0.080872 -0.008427 0.996689
vn 0.066764 0.000000 0.997769
vn -0.773975 0.000000 -0.633217
vn -0.800906 -0.021598 -0.598400
vn -0.773831 -0.019246 -0.633099
vn -0.800346 -0.043165 -0.597982
vn -0.773402 -0.038471 -0.632748
vn -0.799416 -0.064672 -0.597287
vn 0.066559 -0.078304 0.994705
vn 0.018753 -0.057096 0.998193
vn 0.066672 -0.052292 0.996404
vn 0.018776 -0.028583 0.999415
vn 0.066741 -0.026173 0.997427
vn 0.018783 0.000000 0.999824
vn -0.801093 0.000000 -0.598540
vn -0.859967 -0.047075 -0.508174
vn -0.800532 -0.037421 -0.598121
vn -0.857122 -0.093839 -0.506494
vn -0.798856 -0.074686 -0.596868
vn -0.852444 -0.139990 -0.503729
vn 0.018579 -0.147087 0.988949
vn -0.087978 -0.116207 0.989321
vn 0.018692 -0.098653 0.994946
vn -0.088427 -0.058400 0.994369
vn 0.018760 -0.049507 0.998598
vn -0.088578 -0.000000 0.996069
vn -0.860921 0.000000 -0.508739
vn -0.985474 -0.168881 -0.017918
vn -0.856974 -0.095648 -0.506406
vn -0.945840 -0.324177 -0.017197
vn -0.845451 -0.188724 -0.499597
vn -0.889235 -0.457165 -0.016168
vn -0.083400 -0.336908 0.937837
vn -0.427225 -0.324177 0.844031
vn -0.086161 -0.232040 0.968883
vn -0.445127 -0.168881 0.879398
vn -0.087955 -0.118436 0.989059
vn -0.451614 -0.000000 0.892213
f 1/1/1 8/2/1 2/3/1
f 2/4/2 8/5/2 9/6/2
f 2/7/3 9/8/3 3/9/3
f 3/10/4 9/11/4 10/12/4
f 3/13/5 10/14/5 4/15/5
f 4/16/6 10/17/6 11/18/6
f 4/19/7 11/20/7 5/21/7
f 5/22/8 11/23/8 12/24/8
f 5/25/9 12/26/9 6/27/9
f 6/28/10 12/29/10 13/30/10
f 6/31/11 13/32/11 7/33/11
f 7/34/12 13/35/12 14/36/12
f 8/37/13 15/38/13 9/39/13
f 9/40/14 15/41/14 16/42/14
f 9/43/15 16/44/15 10/45/15
f 10/46/16 16/47/16 17/48/16
f 10/49/17 17/50/17 11/51/17
f 11/52/18 17/53/18 18/54/18
f 11/55/19 18/56/19 12/57/19
f 12/58/20 18/59/20 19/60/20
f 12/61/21 19/62/21 13/63/21
f 13/64/22 19/65/22 20/66/22
f 13/67/23 20/68/23 14/69/23
f 14/70/24 20/71/24 21/72/24
f 15/73/25 22/74/25 16/75/25
f 16/76/26 22/77/26 23/78/26
f 16/79/27 23/80/27 17/81/27
f 17/82/28 23/83/28 24/84/28
f 17/85/29 24/86/29 18/87/29
f 18/88/30 24/89/30 25/90/30
f 18/91/31 25/92/31 19/93/31
f 19/94/32 25/95/32 26/96/32
f 19/97/33 26/98/33 20/99/33
f 20/100/34 26/101/34 27/102/34
f 20/103/35 27/104/35 21/105/35
f 21/106/36 27/107/36 28/108/36
f 22/109/37 29/110/37 23/111/37
f 23/112/38 29/113/38 30/114/38
f 23/115/39 30/116/39 24/117/39
f 24/118/40 30/119/40 31/120/40
f 24/121/41 31/122/41 25/123/41
f 25/124/42 31/125/42 32/126/42
f 25/127/43 32/128/43 26/129/43
f 26/130/44 32/131/44 33/132/44
f 26/133/45 33/134/45 27/135/45
f 27/136/46 33/137/46 34/138/46
f 27/139/47 34/140/47 28/141/47
f 28/142/48 34/143/48 35/144/48
f 29/145/49 36/146/49 30/147/49
f 30/148/50 36/149/50 37/150/50
f 30/151/51 37/152/51 31/153/51
f 31/154/52 37/155/52 38/156/52
f 31/157/53 38/158/53 32/159/53
f 32/160/54 38/161/54 39/162/54
f 32/163/55 39/164/55 33/165/55
f 33/166/56 39/167/56 40/168/56
f 33/169/57 40/170/57 34/171/57
f 34/172/58 40/173/58 41/174/58
f 34/175/59 41/176/59 35/177/59
f 35/178/60 41/179/60 42/180/60
f 36/181/61 43/182/61 37/183/61
f 37/184/62 43/185/62 44/186/62
f 37/187/63 44/188/63 38/189/63
f 38/190/64 44/191/64 45/192/64
f 38/193/65 45/194/65 39/195/65
f 39/196/66 45/197/66 46/198/66
f 39/199/67 46/200/67 40/201/67
f 40/202/68 46/203/68 47/204/68
f 40/205/69 47/206/69 41/207/69
f 41/208/70 47/209/70 48/210/70
f 41/211/71 48/212/71 42/213/71
f 42/214/72 48/215/72 49/216/72
f 43/217/73 50/218/73 44/219/73
f 44/220/74 50/221/74 51/222/74
f 44/223/75 51/224/75 45/225/75
f 45/226/76 51/227/76 52/228/76
f 45/229/77 52/230/77 46/231/77
f 46/232/78 52/233/78 53/234/78
f 46/235/79 53/236/79 47/237/79
f 47/238/80 53/239/80 54/240/80
f 47/241/81 54/242/81 48/243/81
f 48/244/82 54/245/82 55/246/82
f 48/247/83 55/248/83 49/249/83
f 49/250/84 55/251/84 56/252/84
f 50/253/85 57/254/85 51/255/85
f 51/256/86 57/257/86 58/258/86
f 51/259/87 58/260/87 52/261/87
f 52/262/88 58/263/88 59/264/88
f 52/265/89 59/266/89 53/267/89
f 53/268/90 59/269/90 60/270/90
f 53/271/91 60/272/91 54/273/91
f 54/274/92 60/275/92 61/276/92
f 54/277/93 61/278/93 55/279/93
f 55/280/94 61/281/94 62/282/94
f 55/283/95 62/284/95 56/285/95
f 56/286/96 62/287/96 63/288/96
