# Cosmetic cavern mesh; no collision.
s off
v -13.832273 427.383396 88.266562
v -19.312239 422.591868 55.386764
v -24.792206 417.800340 22.506967
v -30.272172 413.008812 -10.372831
v -5.778724 403.749209 -32.982167
v 18.714725 394.489606 -55.591504
v 43.208173 385.230003 -78.200841
v -13.832273 322.054251 88.266562
v -5.462807 315.198216 60.132305
v 2.906659 308.342182 31.998048
v 11.276126 301.486148 3.863791
v 21.920141 294.291051 -23.491086
v 32.564157 287.095954 -50.845964
v 43.208173 279.900858 -78.200841
v -13.832273 216.725105 88.266562
v 1.329745 208.856519 62.459789
v 16.491764 200.987933 36.653016
v 31.653782 193.119347 10.846243
v 35.505246 186.936802 -18.836119
v 39.356709 180.754257 -48.518480
v 43.208173 174.571712 -78.200841
v -13.832273 111.395959 88.266562
v 5.248202 102.943257 63.802457
v 24.328678 94.490555 39.338353
v 43.409153 86.037853 14.874248
v 43.342160 80.439424 -16.150782
v 43.275166 74.840995 -47.175811
v 43.208173 69.242566 -78.200841
v -13.832273 6.066813 88.266562
v 6.545241 -2.579236 64.246890
v 26.922755 -11.225285 40.227219
v 47.300268 -19.871334 16.207548
v 45.936237 -25.276416 -15.261915
v 44.572205 -30.681498 -46.731378
v 43.208173 -36.086580 -78.200841
v -13.832273 -99.262332 88.266562
v 5.248202 -107.715034 63.802457
v 24.328678 -116.167737 39.338353
v 43.409153 -124.620439 14.874248
v 43.342160 -130.218868 -16.150782
v 43.275166 -135.817297 -47.175811
v 43.208173 -141.415725 -78.200841
v -13.832273 -204.591478 88.266562
v 1.329745 -212.460064 62.459789
v 16.491764 -220.328650 36.653016
v 31.653782 -228.197236 10.846243
v 35.505246 -234.379781 -18.836119
v 39.356709 -240.562326 -48.518480
v 43.208173 -246.744871 -78.200841
v -13.832273 -309.920624 88.266562
v -5.462807 -316.776658 60.132305
v 2.906659 -323.632692 31.998048
v 11.276126 -330.488727 3.863791
v 21.920141 -337.683823 -23.491086
v 32.564157 -344.878920 -50.845964
v 43.208173 -352.074017 -78.200841
v -13.832273 -415.249769 88.266562
v -19.312239 -420.041298 55.386764
v -24.792206 -424.832826 22.506967
v -30.272172 -429.624354 -10.372831
v -5.778724 -438.883957 -32.982167
v 18.714725 -448.143560 -55.591504
v 43.208173 -457.403163 -78.200841
vt -30.865231 -4.307031
vt -30.865231 -5.129915
vt -30.608358 -4.344465
vt -30.608358 -4.344465
vt -30.865231 -5.129915
vt -30.645432 -5.183478
vt -30.608358 -4.344465
vt -30.645432 -5.183478
vt -30.351484 -4.381899
vt -30.351484 -4.381899
vt -30.645432 -5.183478
vt -30.425633 -5.237041
vt -30.351484 -4.381899
vt -30.425633 -5.237041
vt -30.094611 -4.419333
vt -30.094611 -4.419333
vt -30.425633 -5.237041
vt -30.205834 -5.290604
vt -30.094611 -4.419333
vt -30.205834 -5.290604
vt -29.917975 -4.491674
vt -29.917975 -4.491674
vt -30.205834 -5.290604
vt -29.992124 -5.346815
vt -29.917975 -4.491674
vt -29.992124 -5.346815
vt -29.741340 -4.564014
vt -29.741340 -4.564014
vt -29.992124 -5.346815
vt -29.778414 -5.403027
vt 49.294022 -4.564014
vt 49.402221 -5.403027
vt 49.485377 -4.636355
vt -29.564705 -4.636355
vt -29.778414 -5.403027
vt -29.564705 -5.459239
vt -30.865231 -5.129915
vt -30.865231 -5.952799
vt -30.645432 -5.183478
vt -30.645432 -5.183478
vt -30.865231 -5.952799
vt -30.663616 -6.014273
vt -30.645432 -5.183478
vt -30.663616 -6.014273
vt -30.425633 -5.237041
vt -30.425633 -5.237041
vt -30.663616 -6.014273
vt -30.462000 -6.075746
vt -30.425633 -5.237041
vt -30.462000 -6.075746
vt -30.205834 -5.290604
vt -30.205834 -5.290604
vt -30.462000 -6.075746
vt -30.260385 -6.137219
vt -30.205834 -5.290604
vt -30.260385 -6.137219
vt -29.992124 -5.346815
vt -29.992124 -5.346815
vt -30.260385 -6.137219
vt -30.028491 -6.185520
vt -29.992124 -5.346815
vt -30.028491 -6.185520
vt -29.778414 -5.403027
vt -29.778414 -5.403027
vt -30.028491 -6.185520
vt -29.796598 -6.233822
vt -29.778414 -5.403027
vt -29.796598 -6.233822
vt -29.564705 -5.459239
vt -29.564705 -5.459239
vt -29.796598 -6.233822
vt -29.564705 -6.282123
vt -30.865231 -5.952799
vt -30.865231 -6.775683
vt -30.663616 -6.014273
vt -30.663616 -6.014273
vt -30.865231 -6.775683
vt -30.674105 -6.841720
vt -30.663616 -6.014273
vt -30.674105 -6.841720
vt -30.462000 -6.075746
vt -30.462000 -6.075746
vt -30.674105 -6.841720
vt -30.482979 -6.907757
vt -30.462000 -6.075746
vt -30.482979 -6.907757
vt -30.260385 -6.137219
vt -30.260385 -6.137219
vt -30.482979 -6.907757
vt -30.291854 -6.973793
vt -30.260385 -6.137219
vt -30.291854 -6.973793
vt -30.028491 -6.185520
vt -30.028491 -6.185520
vt -30.291854 -6.973793
vt -30.049471 -7.017531
vt -30.028491 -6.185520
vt -30.049471 -7.017531
vt -29.796598 -6.233822
vt -29.796598 -6.233822
vt -30.049471 -7.017531
vt -29.807088 -7.061269
vt -29.796598 -6.233822
vt -29.807088 -7.061269
vt -29.564705 -6.282123
vt -29.564705 -6.282123
vt -29.807088 -7.061269
vt -29.564705 -7.105007
vt -30.865231 -6.775683
vt -30.865231 -7.598567
vt -30.674105 -6.841720
vt -30.674105 -6.841720
vt -30.865231 -7.598567
vt -30.677577 -7.666114
vt -30.674105 -6.841720
vt -30.677577 -7.666114
vt -30.482979 -6.907757
vt -30.482979 -6.907757
vt -30.677577 -7.666114
vt -30.489924 -7.733662
vt -30.482979 -6.907757
vt -30.489924 -7.733662
vt -30.291854 -6.973793
vt -30.291854 -6.973793
vt -30.489924 -7.733662
vt -30.302270 -7.801209
vt -30.291854 -6.973793
vt -30.302270 -7.801209
vt -30.049471 -7.017531
vt -30.049471 -7.017531
vt -30.302270 -7.801209
vt -30.056415 -7.843436
vt -30.049471 -7.017531
vt -30.056415 -7.843436
vt -29.807088 -7.061269
vt -29.807088 -7.061269
vt -30.056415 -7.843436
vt -29.810560 -7.885663
vt -29.807088 -7.061269
vt -29.810560 -7.885663
vt -29.564705 -7.105007
vt -29.564705 -7.105007
vt -29.810560 -7.885663
vt -29.564705 -7.927891
vt -30.865231 -7.598567
vt -30.865231 -8.421451
vt -30.677577 -7.666114
vt -30.677577 -7.666114
vt -30.865231 -8.421451
vt -30.674105 -8.487488
vt -30.677577 -7.666114
vt -30.674105 -8.487488
vt -30.489924 -7.733662
vt -30.489924 -7.733662
vt -30.674105 -8.487488
vt -30.482979 -8.553525
vt -30.489924 -7.733662
vt -30.482979 -8.553525
vt -30.302270 -7.801209
vt -30.302270 -7.801209
vt -30.482979 -8.553525
vt -30.291854 -8.619561
vt -30.302270 -7.801209
vt -30.291854 -8.619561
vt -30.056415 -7.843436
vt -30.056415 -7.843436
vt -30.291854 -8.619561
vt -30.049471 -8.663299
vt -30.056415 -7.843436
vt -30.049471 -8.663299
vt -29.810560 -7.885663
vt -29.810560 -7.885663
vt -30.049471 -8.663299
vt -29.807088 -8.707037
vt -29.810560 -7.885663
vt -29.807088 -8.707037
vt -29.564705 -7.927891
vt -29.564705 -7.927891
vt -29.807088 -8.707037
vt -29.564705 -8.750775
vt -30.865231 -8.421451
vt -30.865231 -9.244335
vt -30.674105 -8.487488
vt -30.674105 -8.487488
vt -30.865231 -9.244335
vt -30.663616 -9.305808
vt -30.674105 -8.487488
vt -30.663616 -9.305808
vt -30.482979 -8.553525
vt -30.482979 -8.553525
vt -30.663616 -9.305808
vt -30.462000 -9.367282
vt -30.482979 -8.553525
vt -30.462000 -9.367282
vt -30.291854 -8.619561
vt -30.291854 -8.619561
vt -30.462000 -9.367282
vt -30.260385 -9.428755
vt -30.291854 -8.619561
vt -30.260385 -9.428755
vt -30.049471 -8.663299
vt -30.049471 -8.663299
vt -30.260385 -9.428755
vt -30.028491 -9.477056
vt -30.049471 -8.663299
vt -30.028491 -9.477056
vt -29.807088 -8.707037
vt -29.807088 -8.707037
vt -30.028491 -9.477056
vt -29.796598 -9.525357
vt -29.807088 -8.707037
vt -29.796598 -9.525357
vt -29.564705 -8.750775
vt -29.564705 -8.750775
vt -29.796598 -9.525357
vt -29.564705 -9.573659
vt -30.865231 -9.244335
vt -30.865231 -10.067219
vt -30.663616 -9.305808
vt -30.663616 -9.305808
vt -30.865231 -10.067219
vt -30.645432 -10.120782
vt -30.663616 -9.305808
vt -30.645432 -10.120782
vt -30.462000 -9.367282
vt -30.462000 -9.367282
vt -30.645432 -10.120782
vt -30.425633 -10.174345
vt -30.462000 -9.367282
vt -30.425633 -10.174345
vt -30.260385 -9.428755
vt -30.260385 -9.428755
vt -30.425633 -10.174345
vt -30.205834 -10.227907
vt -30.260385 -9.428755
vt -30.205834 -10.227907
vt -30.028491 -9.477056
vt -30.028491 -9.477056
vt -30.205834 -10.227907
vt -29.992124 -10.284119
vt -30.028491 -9.477056
vt -29.992124 -10.284119
vt -29.796598 -9.525357
vt -29.796598 -9.525357
vt -29.992124 -10.284119
vt -29.778414 -10.340331
vt -29.796598 -9.525357
vt -29.778414 -10.340331
vt -29.564705 -9.573659
vt -29.564705 -9.573659
vt -29.778414 -10.340331
vt -29.564705 -10.396542
vt -30.865231 -10.067219
vt -30.865231 -10.890103
vt -30.645432 -10.120782
vt -30.645432 -10.120782
vt -30.865231 -10.890103
vt -30.608358 -10.927537
vt -30.645432 -10.120782
vt -30.608358 -10.927537
vt -30.425633 -10.174345
vt -30.425633 -10.174345
vt -30.608358 -10.927537
vt -30.351484 -10.964971
vt -30.425633 -10.174345
vt -30.351484 -10.964971
vt -30.205834 -10.227907
vt -30.205834 -10.227907
vt -30.351484 -10.964971
vt -30.094611 -11.002404
vt -30.205834 -10.227907
vt -30.094611 -11.002404
vt -29.992124 -10.284119
vt 49.319064 -10.284119
vt 48.911312 -11.002404
vt 49.102667 -11.074745
vt -29.992124 -10.284119
vt -29.917975 -11.074745
vt -29.778414 -10.340331
vt 49.402221 -10.340331
vt 49.102667 -11.074745
vt 49.294022 -11.147086
vt -29.778414 -10.340331
vt -29.741340 -11.147086
vt -29.564705 -10.396542
vt 49.485377 -10.396542
vt 49.294022 -11.147086
vt 49.485377 -11.219426
vn 0.986394 0.000000 -0.164399
vn 0.958243 0.134720 0.252231
vn 0.976573 0.117986 -0.179956
vn 0.941595 0.257130 0.217449
vn 0.955235 0.225078 -0.192006
vn 0.913365 0.363651 0.183092
vn 0.703939 0.341740 0.622642
vn 0.921327 0.258339 0.290546
vn 0.705805 0.236508 0.667760
vn 0.934886 0.135067 0.328246
vn 0.697628 0.121169 0.706139
vn 0.931936 0.000000 0.362624
vn 0.958488 0.000000 0.285134
vn 0.869000 0.066240 0.490359
vn 0.960678 0.067259 0.269395
vn 0.871700 0.130787 0.472265
vn 0.958415 0.132248 0.252885
vn 0.870569 0.192872 0.452670
vn 0.930297 0.194956 0.310708
vn 0.986451 0.129213 0.101084
vn 0.934997 0.132582 0.328942
vn 0.991193 0.065827 0.114902
vn 0.935679 0.067347 0.346366
vn 0.991687 0.000000 0.128677
vn 0.862203 0.000000 0.506562
vn 0.794155 0.037071 0.606583
vn 0.866634 0.038369 0.497467
vn 0.798585 0.073828 0.597338
vn 0.869676 0.076295 0.487690
vn 0.801824 0.110117 0.587326
vn 0.988119 0.112418 0.104799
vn 0.997214 0.072996 -0.015325
vn 0.990729 0.075749 0.112775
vn 0.999282 0.036859 -0.008809
vn 0.991947 0.038230 0.120748
vn 0.999998 0.000000 -0.002159
vn 0.788526 0.000000 0.615001
vn 0.764644 0.012112 0.644339
vn 0.790522 0.012296 0.612310
vn 0.766611 0.024206 0.641655
vn 0.792387 0.024569 0.609524
vn 0.768455 0.036276 0.638875
vn 0.999291 0.036604 -0.008763
vn 0.998584 0.024105 -0.047423
vn 0.999679 0.024475 -0.006575
vn 0.998897 0.012087 -0.045373
vn 0.999915 0.012272 -0.004374
vn 0.999062 0.000000 -0.043304
vn 0.762553 0.000000 0.646926
vn 0.786399 -0.012312 0.617596
vn 0.760340 -0.012125 0.649412
vn 0.784141 -0.024635 0.620093
vn 0.758004 -0.024258 0.651798
vn 0.781754 -0.036963 0.622491
vn 0.998644 -0.036626 -0.036995
vn 0.999691 -0.024731 0.002304
vn 0.998938 -0.024361 -0.039114
vn 0.999924 -0.012336 0.000067
vn 0.999076 -0.012151 -0.041218
vn 0.999998 0.000000 -0.002159
vn 0.788526 0.000000 0.615001
vn 0.856370 -0.038637 0.514916
vn 0.781702 -0.037223 0.622540
vn 0.849139 -0.077358 0.522474
vn 0.773705 -0.074433 0.629159
vn 0.840537 -0.115976 0.529195
vn 0.993374 -0.113455 0.018328
vn 0.986469 -0.077939 0.144234
vn 0.997094 -0.075315 0.011437
vn 0.989878 -0.038781 0.136520
vn 0.999288 -0.037442 0.004599
vn 0.991687 0.000000 0.128677
vn 0.862203 0.000000 0.506562
vn 0.951531 -0.068648 0.299793
vn 0.851202 -0.067040 0.520540
vn 0.939689 -0.137683 0.313094
vn 0.836063 -0.133921 0.532038
vn 0.923060 -0.206056 0.324809
vn 0.964607 -0.203599 0.167571
vn 0.910370 -0.137309 0.390349
vn 0.978517 -0.135676 0.155228
vn 0.923517 -0.068555 0.377380
vn 0.987536 -0.067476 0.142193
vn 0.931936 0.000000 0.362624
vn 0.958488 0.000000 0.285134
vn 0.981456 -0.124949 -0.145367
vn 0.939130 -0.140363 0.313580
vn 0.960039 -0.251193 -0.123400
vn 0.900143 -0.277836 0.335483
vn 0.922712 -0.372423 -0.099513
vn 0.812987 -0.401315 0.421897
vn 0.608826 -0.237622 0.756879
vn 0.868858 -0.276333 0.410763
vn 0.648075 -0.121467 0.751828
vn 0.909765 -0.139974 0.390814
vn 0.678280 0.000000 0.734803
f 1/1/1 8/2/1 2/3/1
f 2/4/2 8/5/2 9/6/2
f 2/7/3 9/8/3 3/9/3
f 3/10/4 9/11/4 10/12/4
f 3/13/5 10/14/5 4/15/5
f 4/16/6 10/17/6 11/18/6
f 4/19/7 11/20/7 5/21/7
f 5/22/8 11/23/8 12/24/8
f 5/25/9 12/26/9 6/27/9
f 6/28/10 12/29/10 13/30/10
f 6/31/11 13/32/11 7/33/11
f 7/34/12 13/35/12 14/36/12
f 8/37/13 15/38/13 9/39/13
f 9/40/14 15/41/14 16/42/14
f 9/43/15 16/44/15 10/45/15
f 10/46/16 16/47/16 17/48/16
f 10/49/17 17/50/17 11/51/17
f 11/52/18 17/53/18 18/54/18
f 11/55/19 18/56/19 12/57/19
f 12/58/20 18/59/20 19/60/20
f 12/61/21 19/62/21 13/63/21
f 13/64/22 19/65/22 20/66/22
f 13/67/23 20/68/23 14/69/23
f 14/70/24 20/71/24 21/72/24
f 15/73/25 22/74/25 16/75/25
f 16/76/26 22/77/26 23/78/26
f 16/79/27 23/80/27 17/81/27
f 17/82/28 23/83/28 24/84/28
f 17/85/29 24/86/29 18/87/29
f 18/88/30 24/89/30 25/90/30
f 18/91/31 25/92/31 19/93/31
f 19/94/32 25/95/32 26/96/32
f 19/97/33 26/98/33 20/99/33
f 20/100/34 26/101/34 27/102/34
f 20/103/35 27/104/35 21/105/35
f 21/106/36 27/107/36 28/108/36
f 22/109/37 29/110/37 23/111/37
f 23/112/38 29/113/38 30/114/38
f 23/115/39 30/116/39 24/117/39
f 24/118/40 30/119/40 31/120/40
f 24/121/41 31/122/41 25/123/41
f 25/124/42 31/125/42 32/126/42
f 25/127/43 32/128/43 26/129/43
f 26/130/44 32/131/44 33/132/44
f 26/133/45 33/134/45 27/135/45
f 27/136/46 33/137/46 34/138/46
f 27/139/47 34/140/47 28/141/47
f 28/142/48 34/143/48 35/144/48
f 29/145/49 36/146/49 30/147/49
f 30/148/50 36/149/50 37/150/50
f 30/151/51 37/152/51 31/153/51
f 31/154/52 37/155/52 38/156/52
f 31/157/53 38/158/53 32/159/53
f 32/160/54 38/161/54 39/162/54
f 32/163/55 39/164/55 33/165/55
f 33/166/56 39/167/56 40/168/56
f 33/169/57 40/170/57 34/171/57
f 34/172/58 40/173/58 41/174/58
f 34/175/59 41/176/59 35/177/59
f 35/178/60 41/179/60 42/180/60
f 36/181/61 43/182/61 37/183/61
f 37/184/62 43/185/62 44/186/62
f 37/187/63 44/188/63 38/189/63
f 38/190/64 44/191/64 45/192/64
f 38/193/65 45/194/65 39/195/65
f 39/196/66 45/197/66 46/198/66
f 39/199/67 46/200/67 40/201/67
f 40/202/68 46/203/68 47/204/68
f 40/205/69 47/206/69 41/207/69
f 41/208/70 47/209/70 48/210/70
f 41/211/71 48/212/71 42/213/71
f 42/214/72 48/215/72 49/216/72
f 43/217/73 50/218/73 44/219/73
f 44/220/74 50/221/74 51/222/74
f 44/223/75 51/224/75 45/225/75
f 45/226/76 51/227/76 52/228/76
f 45/229/77 52/230/77 46/231/77
f 46/232/78 52/233/78 53/234/78
f 46/235/79 53/236/79 47/237/79
f 47/238/80 53/239/80 54/240/80
f 47/241/81 54/242/81 48/243/81
f 48/244/82 54/245/82 55/246/82
f 48/247/83 55/248/83 49/249/83
f 49/250/84 55/251/84 56/252/84
f 50/253/85 57/254/85 51/255/85
f 51/256/86 57/257/86 58/258/86
f 51/259/87 58/260/87 52/261/87
f 52/262/88 58/263/88 59/264/88
f 52/265/89 59/266/89 53/267/89
f 53/268/90 59/269/90 60/270/90
f 53/271/91 60/272/91 54/273/91
f 54/274/92 60/275/92 61/276/92
f 54/277/93 61/278/93 55/279/93
f 55/280/94 61/281/94 62/282/94
f 55/283/95 62/284/95 56/285/95
f 56/286/96 62/287/96 63/288/96
