# Cosmetic cavern mesh; no collision.
s off
v 38 -12 100
v -12 -12 80
v -20 -13 -5
v -10 -12 -80
v 38 -12 -100
v 38 22 100
v -2 8 80
v -8 1 -5
v 0 10 -80
v 38 22 -100
vt 42.875 -1.96875
vt 42.484375 -1.96875
vt 42.5625 -1.8125
vt 42.875 -1.96875
vt 42.5625 -1.8125
vt 42.875 -1.703125
vt -32.1875 -1.96875
vt -31.523438 -1.976562
vt -31.523438 -1.867188
vt -32.1875 -1.96875
vt -31.523438 -1.867188
vt -32.1875 -1.8125
vt -31.523438 -1.976562
vt -30.9375 -1.96875
vt -30.9375 -1.796875
vt -31.523438 -1.976562
vt -30.9375 -1.796875
vt -31.523438 -1.867188
vt 42.5 -1.96875
vt 42.875 -1.96875
vt 42.875 -1.703125
vt 42.5 -1.96875
vt 42.875 -1.703125
vt 42.578125 -1.796875
vn 0.365148 -0.182574 -0.912871
vn 0.447214 0 -0.894427
vn 0.757716 -0.649471 -0.063674
vn 0.894118 -0.447059 -0.026298
vn 0.904317 -0.411053 0.115095
vn 0.759253 -0.650789 0.002892
vn 0.384615 0 0.923077
vn 0.509341 -0.231519 0.828837
f 1/1/1 2/2/1 7/3/1
f 1/4/2 7/5/2 6/6/2
f 2/7/3 3/8/3 8/9/3
f 2/10/4 8/11/4 7/12/4
f 3/13/5 4/14/5 9/15/5
f 3/16/6 9/17/6 8/18/6
f 4/19/7 5/20/7 10/21/7
f 4/22/8 10/23/8 9/24/8
# Closed back, upper and lower surfaces; buried in the supporting cliff.
v 46.000000 -12.000000 100.000000
v 46.000000 -12.000000 80.000000
v 46.000000 -13.000000 -5.000000
v 46.000000 -12.000000 -80.000000
v 46.000000 -12.000000 -100.000000
v 46.000000 22.000000 -100.000000
v 46.000000 10.000000 -80.000000
v 46.000000 1.000000 -5.000000
v 46.000000 8.000000 80.000000
v 46.000000 22.000000 100.000000
v 46.000000 0.200000 -1.000000
vt -0.093750 0.625000
vt 0.296875 0.781250
vt 0.359375 0.781250
vn 0.000000 1.000000 0.000000
f 2/25/9 1/26/9 11/27/9
vt -0.093750 0.625000
vt 0.359375 0.781250
vt 0.359375 0.625000
vn 0.000000 1.000000 0.000000
f 2/28/10 11/29/10 12/30/10
vt -0.156250 -0.039062
vt -0.093750 0.625000
vt 0.359375 0.625000
vn 0.000000 0.999931 -0.011764
f 3/31/11 2/32/11 12/33/11
vt -0.156250 -0.039062
vt 0.359375 0.625000
vt 0.359375 -0.039062
vn 0.000000 0.999931 -0.011764
f 3/34/12 12/35/12 13/36/12
vt -0.078125 -0.625000
vt -0.156250 -0.039062
vt 0.359375 -0.039062
vn 0.000000 0.999911 0.013332
f 4/37/13 3/38/13 13/39/13
vt -0.078125 -0.625000
vt 0.359375 -0.039062
vt 0.359375 -0.625000
vn -0.000000 0.999911 0.013332
f 4/40/14 13/41/14 14/42/14
vt 0.296875 -0.781250
vt -0.078125 -0.625000
vt 0.359375 -0.625000
vn 0.000000 1.000000 -0.000000
f 5/43/15 4/44/15 14/45/15
vt 0.296875 -0.781250
vt 0.359375 -0.625000
vt 0.359375 -0.781250
vn 0.000000 1.000000 0.000000
f 5/46/16 14/47/16 15/48/16
vt 0.296875 0.171875
vt 0.296875 -0.093750
vt 0.359375 -0.093750
vn 0.000000 0.000000 1.000000
f 10/49/17 5/50/17 15/51/17
vt 0.296875 0.171875
vt 0.359375 -0.093750
vt 0.359375 0.171875
vn -0.000000 0.000000 1.000000
f 10/52/18 15/53/18 16/54/18
vt 0.000000 -0.625000
vt 0.296875 -0.781250
vt 0.359375 -0.781250
vn 0.000000 -0.857493 -0.514496
f 9/55/19 10/56/19 16/57/19
vt 0.000000 -0.625000
vt 0.359375 -0.781250
vt 0.359375 -0.625000
vn 0.000000 -0.857493 -0.514496
f 9/58/20 16/59/20 17/60/20
vt -0.062500 -0.039062
vt 0.000000 -0.625000
vt 0.359375 -0.625000
vn 0.000000 -0.992877 -0.119145
f 8/61/21 9/62/21 17/63/21
vt -0.062500 -0.039062
vt 0.359375 -0.625000
vt 0.359375 -0.039062
vn 0.000000 -0.992877 -0.119145
f 8/64/22 17/65/22 18/66/22
vt -0.015625 0.625000
vt -0.062500 -0.039062
vt 0.359375 -0.039062
vn 0.000000 -0.996626 0.082075
f 7/67/23 8/68/23 18/69/23
vt -0.015625 0.625000
vt 0.359375 -0.039062
vt 0.359375 0.625000
vn 0.000000 -0.996626 0.082075
f 7/70/24 18/71/24 19/72/24
vt 0.296875 0.781250
vt -0.015625 0.625000
vt 0.359375 0.625000
vn 0.000000 -0.819232 0.573462
f 6/73/25 7/74/25 19/75/25
vt 0.296875 0.781250
vt 0.359375 0.625000
vt 0.359375 0.781250
vn 0.000000 -0.819232 0.573462
f 6/76/26 19/77/26 20/78/26
vt 0.296875 -0.093750
vt 0.296875 0.171875
vt 0.359375 0.171875
vn 0.000000 0.000000 -1.000000
f 1/79/27 6/80/27 20/81/27
vt 0.296875 -0.093750
vt 0.359375 0.171875
vt 0.359375 -0.093750
vn 0.000000 0.000000 -1.000000
f 1/82/28 20/83/28 11/84/28
vt -0.093750 0.625000
vt -0.093750 0.781250
vt 0.001563 -0.007812
vn -1.000000 0.000000 0.000000
f 12/85/29 11/86/29 21/87/29
vt -0.101562 -0.039062
vt -0.093750 0.625000
vt 0.001563 -0.007812
vn -1.000000 0.000000 0.000000
f 13/88/30 12/89/30 21/90/30
vt -0.093750 -0.625000
vt -0.101562 -0.039062
vt 0.001563 -0.007812
vn -1.000000 0.000000 0.000000
f 14/91/31 13/92/31 21/93/31
vt -0.093750 -0.781250
vt -0.093750 -0.625000
vt 0.001563 -0.007812
vn -1.000000 0.000000 0.000000
f 15/94/32 14/95/32 21/96/32
vt 0.171875 -0.781250
vt -0.093750 -0.781250
vt 0.001563 -0.007812
vn -1.000000 0.000000 0.000000
f 16/97/33 15/98/33 21/99/33
vt 0.078125 -0.625000
vt 0.171875 -0.781250
vt 0.001563 -0.007812
vn 1.000000 -0.000000 -0.000000
f 17/100/34 16/101/34 21/102/34
vt 0.007812 -0.039062
vt 0.078125 -0.625000
vt 0.001563 -0.007812
vn -1.000000 -0.000000 -0.000000
f 18/103/35 17/104/35 21/105/35
vt 0.062500 0.625000
vt 0.007812 -0.039062
vt 0.001563 -0.007812
vn -1.000000 0.000000 0.000000
f 19/106/36 18/107/36 21/108/36
vt 0.171875 0.781250
vt 0.062500 0.625000
vt 0.001563 -0.007812
vn 1.000000 0.000000 0.000000
f 20/109/37 19/110/37 21/111/37
vt -0.093750 0.781250
vt 0.171875 0.781250
vt 0.001563 -0.007812
vn -1.000000 0.000000 0.000000
f 11/112/38 20/113/38 21/114/38
