# Cosmetic cavern mesh; no collision.
s off
v -279.371685 119.784887 -29.991026
v -279.371685 102.056340 -29.991026
v -279.371685 55.518906 -29.991026
v -279.371685 -6.531006 -29.991026
v -279.371685 -77.445192 -29.991026
v -239.371685 114.312151 -28.848169
v -239.717814 95.461927 -16.733657
v -240.014496 49.141928 -6.349790
v -239.841431 -9.679797 -12.407046
v -239.322238 -75.243861 -30.578813
v -199.371685 108.839416 -27.705312
v -199.799632 92.497112 -12.727156
v -200.166444 53.507802 0.111262
v -199.952471 5.154883 -7.377815
v -199.310550 -48.052260 -29.845048
v -159.371685 103.366680 -26.562454
v -159.986919 83.843966 -5.029265
v -160.514262 38.216917 13.427755
v -160.206645 -17.396453 2.661160
v -159.283794 -78.002631 -29.638624
v -119.371685 97.893945 -25.419597
v -120.122264 76.608083 0.850673
v -120.765618 27.589128 23.368047
v -120.390328 -31.397842 10.232912
v -119.264459 -95.210163 -29.172493
v -79.371685 92.421209 -24.276740
v -80.071734 73.892807 0.224991
v -80.671777 31.650602 21.226475
v -80.321752 -18.729646 8.975609
v -79.271678 -72.948160 -27.776988
v -39.371685 86.948474 -23.133883
v -40.093307 68.559735 2.122883
v -40.711840 26.881208 23.771540
v -40.351029 -22.564343 11.143157
v -39.268596 -75.611124 -26.741992
v 0.628315 81.475738 -21.991026
v -0.347109 56.919096 12.148811
v -1.183187 1.368270 41.411528
v -0.695475 -64.419165 24.341609
v 0.767661 -134.924617 -26.868145
v 40.628315 76.003003 -20.848169
v 39.988461 59.697910 1.546729
v 39.440014 22.742016 20.742355
v 39.759941 -21.100811 9.544907
v 40.719723 -68.136811 -24.047440
v 80.628315 70.530268 -19.705312
v 79.887455 50.921733 6.224773
v 79.252433 6.216976 28.450560
v 79.622863 -47.100240 15.485517
v 80.734152 -104.479477 -23.409609
v 120.628315 65.057532 -18.562454
v 119.784862 41.137825 10.958415
v 119.061902 -13.946578 36.262017
v 119.483628 -80.232407 21.501583
v 120.748808 -151.940661 -22.779722
v 160.628315 59.584797 -17.419597
v 160.184763 45.509928 -1.895280
v 159.804576 12.615184 11.411277
v 160.026352 -27.479182 3.649119
v 160.691680 -71.173105 -19.637357
v 200.628315 54.112061 -16.276740
v 200.089738 33.545071 2.573452
v 199.628101 -15.523453 18.730759
v 199.897389 -76.376195 9.305663
v 200.705255 -143.338037 -18.969625
v 240.628315 48.639326 -15.133883
v 240.275085 29.402396 -2.770846
v 239.972317 -17.867844 7.826043
v 240.148932 -77.896277 1.644524
v 240.678776 -144.805368 -16.900031
v 280.628315 43.166590 -13.991026
v 280.628315 29.760673 -13.991026
v 280.628315 -5.429861 -13.991026
v 280.628315 -52.350573 -13.991026
v 280.628315 -105.974244 -13.991026
vt 51.627231 -5.139890
vt 51.627231 -5.278395
vt 51.939731 -5.182646
vt 51.627231 -5.278395
vt 51.937027 -5.329913
vt 51.939731 -5.182646
vt 51.627231 -5.278395
vt 51.627231 -5.641968
vt 51.937027 -5.329913
vt 51.627231 -5.641968
vt 51.934709 -5.691788
vt 51.937027 -5.329913
vt 51.627231 -5.641968
vt 51.627231 -6.126733
vt 51.934709 -5.691788
vt 51.627231 -6.126733
vt 51.936061 -6.151333
vt 51.934709 -5.691788
vt 51.627231 -6.126733
vt 51.627231 -6.680750
vt 51.936061 -6.151333
vt 51.627231 -6.680750
vt 51.940118 -6.663552
vt 51.936061 -6.151333
vt 51.939731 -5.182646
vt 51.937027 -5.329913
vt 52.252231 -5.225402
vt 51.937027 -5.329913
vt 52.248888 -5.353076
vt 52.252231 -5.225402
vt 51.937027 -5.329913
vt 51.934709 -5.691788
vt 52.248888 -5.353076
vt 51.934709 -5.691788
vt 52.246022 -5.657680
vt 52.248888 -5.353076
vt 51.934709 -5.691788
vt 51.936061 -6.151333
vt 52.246022 -5.657680
vt 51.936061 -6.151333
vt 52.247694 -6.035437
vt 52.246022 -5.657680
vt 51.936061 -6.151333
vt 51.940118 -6.663552
vt 52.247694 -6.035437
vt 51.940118 -6.663552
vt 52.252709 -6.451118
vt 52.247694 -6.035437
vt 52.252231 -5.225402
vt 52.248888 -5.353076
vt 52.564731 -5.268158
vt 52.248888 -28.431781
vt 52.559925 -28.491921
vt 52.564731 -28.323693
vt 52.248888 -5.353076
vt 52.246022 -5.657680
vt 52.559925 -5.420679
vt 52.246022 -5.657680
vt 52.555805 -5.777140
vt 52.559925 -5.420679
vt 52.246022 -5.657680
vt 52.247694 -6.035437
vt 52.555805 -5.777140
vt 52.247694 -6.035437
vt 52.558208 -6.211620
vt 52.555805 -5.777140
vt 52.247694 -6.035437
vt 52.252709 -6.451118
vt 52.558208 -6.211620
vt 52.252709 -6.451118
vt 52.565418 -6.685105
vt 52.558208 -6.211620
vt 52.564731 -28.323693
vt 52.559925 -28.491921
vt 52.877231 -28.332621
vt 52.559925 -28.491921
vt 52.871367 -28.537858
vt 52.877231 -28.332621
vt 52.559925 -5.420679
vt 52.555805 -5.777140
vt 52.871367 -5.477209
vt 52.555805 -5.777140
vt 52.866341 -5.860170
vt 52.871367 -5.477209
vt 52.555805 -5.777140
vt 52.558208 -6.211620
vt 52.866341 -5.860170
vt 52.558208 -6.211620
vt 52.869273 -6.321005
vt 52.866341 -5.860170
vt 52.558208 -6.211620
vt 52.565418 -6.685105
vt 52.869273 -6.321005
vt 52.565418 -6.685105
vt 52.878069 -6.819539
vt 52.869273 -6.321005
vt 52.877231 -28.332621
vt 52.871367 -28.537858
vt 53.189731 -28.341550
vt 52.871367 -28.537858
vt 53.184262 -28.532970
vt 53.189731 -28.341550
vt 52.871367 -5.477209
vt 52.866341 -5.860170
vt 53.184262 -5.498422
vt 52.866341 -5.860170
vt 53.179574 -5.828439
vt 53.184262 -5.498422
vt 52.866341 -5.860170
vt 52.869273 -6.321005
vt 53.179574 -5.828439
vt 52.869273 -6.321005
vt 53.182309 -6.222035
vt 53.179574 -5.828439
vt 52.869273 -6.321005
vt 52.878069 -6.819539
vt 53.182309 -6.222035
vt 52.878069 -6.819539
vt 53.190513 -6.645617
vt 53.182309 -6.222035
vt 53.189731 -28.341550
vt 53.184262 -28.532970
vt 53.502231 -28.350478
vt 53.184262 -28.532970
vt 53.496594 -28.547797
vt 53.502231 -28.350478
vt 53.184262 -5.498422
vt 53.179574 -5.828439
vt 53.496594 -5.540087
vt 53.179574 -5.828439
vt 53.491761 -5.865700
vt 53.496594 -5.540087
vt 53.179574 -5.828439
vt 53.182309 -6.222035
vt 53.491761 -5.865700
vt 53.182309 -6.222035
vt 53.494580 -6.251994
vt 53.491761 -5.865700
vt 53.182309 -6.222035
vt 53.190513 -6.645617
vt 53.494580 -6.251994
vt 53.190513 -6.645617
vt 53.503037 -6.666422
vt 53.494580 -6.251994
vt 53.502231 -28.350478
vt 53.496594 -28.547797
vt 53.814731 -28.359407
vt 53.496594 -28.547797
vt 53.807111 -28.626124
vt 53.814731 -28.359407
vt 53.496594 -5.540087
vt 53.491761 -5.865700
vt 53.807111 -5.631029
vt 53.491761 -5.865700
vt 53.800579 -6.065020
vt 53.807111 -5.631029
vt 53.491761 -5.865700
vt 53.494580 -6.251994
vt 53.800579 -6.065020
vt 53.494580 -6.251994
vt 53.804389 -6.578985
vt 53.800579 -6.065020
vt -28.618268 -6.251994
vt -28.322290 -6.666422
vt -28.721381 -6.578985
vt -28.322290 -6.666422
vt -28.321304 -7.129808
vt -28.721381 -6.578985
vt 53.814731 -28.359407
vt 53.807111 -28.626124
vt 54.127231 -28.368335
vt 53.807111 -28.626124
vt 54.122232 -28.543296
vt 54.127231 -28.368335
vt 53.807111 -5.631029
vt 53.800579 -6.065020
vt 54.122232 -5.609320
vt 53.800579 -6.065020
vt 54.117948 -5.898038
vt 54.122232 -5.609320
vt 53.800579 -6.065020
vt 53.804389 -6.578985
vt 54.117948 -5.898038
vt 53.804389 -6.578985
vt 54.120447 -6.240560
vt 54.117948 -5.898038
vt -28.721381 -6.578985
vt -28.321304 -7.129808
vt -28.605781 -6.240560
vt -28.321304 -7.129808
vt -28.343341 -6.608029
vt -28.605781 -6.240560
vt 54.127231 -28.368335
vt 54.122232 -28.543296
vt 54.439731 -28.377264
vt 54.122232 -28.543296
vt 54.433943 -28.579843
vt 54.439731 -28.377264
vt 54.122232 -5.609320
vt 54.117948 -5.898038
vt 54.433943 -5.677884
vt 54.117948 -5.898038
vt 54.428982 -6.027140
vt 54.433943 -5.677884
vt 54.117948 -5.898038
vt 54.120447 -6.240560
vt 54.428982 -6.027140
vt 54.120447 -6.240560
vt 54.431876 -6.443680
vt 54.428982 -6.027140
vt 54.120447 -6.240560
vt 54.127945 -6.608029
vt 54.431876 -6.443680
vt 54.127945 -6.608029
vt 54.440558 -6.891956
vt 54.431876 -6.443680
vt 54.439731 -28.377264
vt 54.433943 -28.579843
vt 54.752231 -28.386193
vt 54.433943 -28.579843
vt 54.745642 -28.616824
vt 54.752231 -28.386193
vt 54.433943 -5.677884
vt 54.428982 -6.027140
vt 54.745642 -5.754321
vt 54.428982 -6.027140
vt 54.739994 -6.184667
vt 54.745642 -5.754321
vt 54.428982 -6.027140
vt 54.431876 -6.443680
vt 54.739994 -6.184667
vt 54.431876 -6.443680
vt 54.743288 -6.702525
vt 54.739994 -6.184667
vt 54.431876 -6.443680
vt 54.440558 -6.891956
vt 54.743288 -6.702525
vt 54.440558 -6.891956
vt 54.753173 -7.262746
vt 54.743288 -6.702525
vt 54.752231 -28.386193
vt 54.745642 -28.616824
vt 55.064731 -28.395121
vt 54.745642 -28.616824
vt 55.061266 -28.516405
vt 55.064731 -28.395121
vt 54.745642 -5.754321
vt 54.739994 -6.184667
vt 55.061266 -5.720163
vt 54.739994 -6.184667
vt 55.058296 -5.977154
vt 55.061266 -5.720163
vt 54.739994 -6.184667
vt 54.743288 -6.702525
vt 55.058296 -5.977154
vt 54.743288 -6.702525
vt 55.060028 -6.290391
vt 55.058296 -5.977154
vt -28.699193 -6.702525
vt -28.353245 -7.262746
vt -28.559720 -6.290391
vt 54.753173 -7.262746
vt 55.065226 -6.631750
vt 55.060028 -6.290391
vt 55.064731 -28.395121
vt 55.061266 -28.516405
vt 55.377231 -28.404050
vt 55.061266 -5.720163
vt 55.373024 -5.813639
vt 55.377231 -5.652959
vt 55.061266 -5.720163
vt 55.058296 -5.977154
vt 55.373024 -5.813639
vt 55.058296 -5.977154
vt 55.369417 -6.196987
vt 55.373024 -5.813639
vt 55.058296 -5.977154
vt 55.060028 -6.290391
vt 55.369417 -6.196987
vt 55.060028 -6.290391
vt 55.371521 -6.672399
vt 55.369417 -6.196987
vt 55.060028 -6.290391
vt 55.065226 -6.631750
vt 55.371521 -6.672399
vt 55.065226 -6.631750
vt 55.377832 -7.195538
vt 55.371521 -6.672399
vt 55.377231 -5.652959
vt 55.373024 -5.813639
vt 55.689731 -5.695715
vt 55.373024 -5.813639
vt 55.686972 -5.846004
vt 55.689731 -5.695715
vt 55.373024 -5.813639
vt 55.369417 -6.196987
vt 55.686972 -5.846004
vt 55.369417 -6.196987
vt 55.684606 -6.215302
vt 55.686972 -5.846004
vt 55.369417 -6.196987
vt 55.371521 -6.672399
vt 55.684606 -6.215302
vt 55.371521 -6.672399
vt 55.685986 -6.684274
vt 55.684606 -6.215302
vt 55.371521 -6.672399
vt 55.377832 -7.195538
vt 55.685986 -6.684274
vt 55.377832 -7.195538
vt 55.690125 -7.207002
vt 55.685986 -6.684274
vt 55.689731 -5.695715
vt 55.686972 -5.846004
vt 56.002231 -5.738471
vt 55.686972 -5.846004
vt 56.002231 -5.843205
vt 56.002231 -5.738471
vt 55.686972 -5.846004
vt 55.684606 -6.215302
vt 56.002231 -5.843205
vt 55.684606 -6.215302
vt 56.002231 -6.118131
vt 56.002231 -5.843205
vt 55.684606 -6.215302
vt 55.685986 -6.684274
vt 56.002231 -6.118131
vt 55.685986 -6.684274
vt 56.002231 -6.484699
vt 56.002231 -6.118131
vt 55.685986 -6.684274
vt 55.690125 -7.207002
vt 56.002231 -6.484699
vt 55.690125 -7.207002
vt 56.002231 -6.903634
vt 56.002231 -6.484699
vn -0.028560 -0.000000 0.999592
vn -0.187039 0.533535 0.824838
vn -0.317076 -0.000000 0.948400
vn -0.481714 0.194631 0.854442
vn -0.514927 -0.000000 0.857234
vn -0.410885 -0.094585 0.906767
vn -0.406428 -0.000000 0.913683
vn 0.028801 -0.266769 0.963330
vn 0.049773 0.539330 0.840622
vn -0.023745 0.675816 0.736688
vn -0.081371 0.218518 0.972434
vn -0.185109 0.308927 0.932898
vn -0.148351 -0.101733 0.983688
vn -0.067405 -0.153002 0.985924
vn -0.022098 -0.267189 0.963391
vn 0.238638 -0.375318 0.895650
vn 0.071036 0.672950 0.736269
vn 0.030945 0.740051 0.671839
vn -0.114639 0.311672 0.943249
vn -0.163621 0.371570 0.913873
vn -0.364527 -0.144102 0.919975
vn -0.336053 -0.180806 0.924326
vn -0.414556 -0.358241 0.836545
vn -0.338427 -0.446577 0.828273
vn 0.081700 0.737206 0.670710
vn 0.047873 0.775403 0.629649
vn -0.068343 0.374801 0.924583
vn -0.114407 0.415925 0.902174
vn -0.284431 -0.183734 0.940925
vn -0.253939 -0.211769 0.943752
vn -0.316966 -0.449825 0.834979
vn -0.230711 -0.514184 0.826067
vn 0.087764 0.772737 0.628629
vn 0.063330 0.795145 0.603104
vn 0.042430 0.416590 0.908104
vn 0.002736 0.445151 0.895451
vn 0.073912 -0.216312 0.973522
vn 0.104408 -0.234306 0.966540
vn 0.188638 -0.513570 0.837055
vn 0.270775 -0.536539 0.799254
vn 0.091292 0.793030 0.602304
vn 0.079434 0.804793 0.588217
vn 0.016845 0.444929 0.895407
vn -0.001502 0.460965 0.887417
vn -0.089786 -0.235917 0.967616
vn -0.076104 -0.247260 0.965956
vn -0.098317 -0.559684 0.822853
vn -0.059676 -0.580954 0.811746
vn 0.093160 0.803645 0.587773
vn 0.089321 0.807349 0.583275
vn -0.088071 0.460185 0.883444
vn -0.092651 0.465150 0.880370
vn -0.510858 -0.216227 0.832027
vn -0.508925 -0.219729 0.832294
vn -0.666508 -0.442230 0.600167
vn -0.663088 -0.448854 0.599036
vn 0.093746 0.806959 0.583120
vn 0.099107 0.803099 0.587545
vn 0.196998 0.454608 0.868633
vn 0.206405 0.448608 0.869568
vn 0.528732 -0.209502 0.822527
vn 0.523997 -0.207172 0.826140
vn 0.675085 -0.424325 0.603497
vn 0.666167 -0.424398 0.613276
vn 0.093160 0.803645 0.587773
vn 0.103626 0.791896 0.601799
vn -0.002650 0.460977 0.887408
vn 0.011348 0.445026 0.895446
vn -0.279439 -0.239513 0.929811
vn -0.287459 -0.228195 0.930212
vn -0.450092 -0.525050 0.722315
vn -0.467664 -0.502147 0.727420
vn 0.091292 0.793030 0.602304
vn 0.114451 0.770256 0.627381
vn 0.002921 0.445149 0.895452
vn 0.032888 0.416844 0.908383
vn -0.297212 -0.227554 0.927299
vn -0.313015 -0.208329 0.926618
vn -0.512639 -0.488542 0.706065
vn -0.542782 -0.448194 0.710289
vn 0.087764 0.772737 0.628629
vn 0.133206 0.732347 0.667776
vn 0.237610 0.402894 0.883865
vn 0.308092 0.353696 0.883164
vn 0.592110 -0.171566 0.787382
vn 0.559610 -0.154536 0.814221
vn 0.722312 -0.354089 0.594043
vn 0.652248 -0.348748 0.673014
vn 0.081700 0.737206 0.670710
vn 0.118508 0.669219 0.733554
vn 0.008595 0.374900 0.927025
vn 0.046065 0.312038 0.948952
vn -0.301206 -0.182847 0.935864
vn -0.313054 -0.146718 0.938334
vn -0.579828 -0.390048 0.715306
vn -0.589797 -0.320167 0.741372
vn 0.071036 0.672950 0.736269
vn 0.165270 0.531063 0.831058
vn 0.156528 0.307577 0.938560
vn 0.266465 0.209213 0.940865
vn 0.250114 -0.147113 0.956975
vn 0.182382 -0.100186 0.978110
vn 0.158803 -0.382438 0.910232
vn -0.059601 -0.267055 0.961836
vn 0.049773 0.539330 0.840622
vn 0.267887 0.000000 0.963450
vn 0.260207 0.209625 0.942523
vn 0.472846 0.000000 0.881145
vn 0.491735 -0.087763 0.866311
vn 0.360315 -0.000000 0.932831
vn 0.474264 -0.231653 0.849359
vn -0.072625 -0.000000 0.997359
f 1/1/1 2/2/1 6/3/1
f 2/4/2 7/5/2 6/6/2
f 2/7/3 3/8/3 7/9/3
f 3/10/4 8/11/4 7/12/4
f 3/13/5 4/14/5 8/15/5
f 4/16/6 9/17/6 8/18/6
f 4/19/7 5/20/7 9/21/7
f 5/22/8 10/23/8 9/24/8
f 6/25/9 7/26/9 11/27/9
f 7/28/10 12/29/10 11/30/10
f 7/31/11 8/32/11 12/33/11
f 8/34/12 13/35/12 12/36/12
f 8/37/13 9/38/13 13/39/13
f 9/40/14 14/41/14 13/42/14
f 9/43/15 10/44/15 14/45/15
f 10/46/16 15/47/16 14/48/16
f 11/49/17 12/50/17 16/51/17
f 12/52/18 17/53/18 16/54/18
f 12/55/19 13/56/19 17/57/19
f 13/58/20 18/59/20 17/60/20
f 13/61/21 14/62/21 18/63/21
f 14/64/22 19/65/22 18/66/22
f 14/67/23 15/68/23 19/69/23
f 15/70/24 20/71/24 19/72/24
f 16/73/25 17/74/25 21/75/25
f 17/76/26 22/77/26 21/78/26
f 17/79/27 18/80/27 22/81/27
f 18/82/28 23/83/28 22/84/28
f 18/85/29 19/86/29 23/87/29
f 19/88/30 24/89/30 23/90/30
f 19/91/31 20/92/31 24/93/31
f 20/94/32 25/95/32 24/96/32
f 21/97/33 22/98/33 26/99/33
f 22/100/34 27/101/34 26/102/34
f 22/103/35 23/104/35 27/105/35
f 23/106/36 28/107/36 27/108/36
f 23/109/37 24/110/37 28/111/37
f 24/112/38 29/113/38 28/114/38
f 24/115/39 25/116/39 29/117/39
f 25/118/40 30/119/40 29/120/40
f 26/121/41 27/122/41 31/123/41
f 27/124/42 32/125/42 31/126/42
f 27/127/43 28/128/43 32/129/43
f 28/130/44 33/131/44 32/132/44
f 28/133/45 29/134/45 33/135/45
f 29/136/46 34/137/46 33/138/46
f 29/139/47 30/140/47 34/141/47
f 30/142/48 35/143/48 34/144/48
f 31/145/49 32/146/49 36/147/49
f 32/148/50 37/149/50 36/150/50
f 32/151/51 33/152/51 37/153/51
f 33/154/52 38/155/52 37/156/52
f 33/157/53 34/158/53 38/159/53
f 34/160/54 39/161/54 38/162/54
f 34/163/55 35/164/55 39/165/55
f 35/166/56 40/167/56 39/168/56
f 36/169/57 37/170/57 41/171/57
f 37/172/58 42/173/58 41/174/58
f 37/175/59 38/176/59 42/177/59
f 38/178/60 43/179/60 42/180/60
f 38/181/61 39/182/61 43/183/61
f 39/184/62 44/185/62 43/186/62
f 39/187/63 40/188/63 44/189/63
f 40/190/64 45/191/64 44/192/64
f 41/193/65 42/194/65 46/195/65
f 42/196/66 47/197/66 46/198/66
f 42/199/67 43/200/67 47/201/67
f 43/202/68 48/203/68 47/204/68
f 43/205/69 44/206/69 48/207/69
f 44/208/70 49/209/70 48/210/70
f 44/211/71 45/212/71 49/213/71
f 45/214/72 50/215/72 49/216/72
f 46/217/73 47/218/73 51/219/73
f 47/220/74 52/221/74 51/222/74
f 47/223/75 48/224/75 52/225/75
f 48/226/76 53/227/76 52/228/76
f 48/229/77 49/230/77 53/231/77
f 49/232/78 54/233/78 53/234/78
f 49/235/79 50/236/79 54/237/79
f 50/238/80 55/239/80 54/240/80
f 51/241/81 52/242/81 56/243/81
f 52/244/82 57/245/82 56/246/82
f 52/247/83 53/248/83 57/249/83
f 53/250/84 58/251/84 57/252/84
f 53/253/85 54/254/85 58/255/85
f 54/256/86 59/257/86 58/258/86
f 54/259/87 55/260/87 59/261/87
f 55/262/88 60/263/88 59/264/88
f 56/265/89 57/266/89 61/267/89
f 57/268/90 62/269/90 61/270/90
f 57/271/91 58/272/91 62/273/91
f 58/274/92 63/275/92 62/276/92
f 58/277/93 59/278/93 63/279/93
f 59/280/94 64/281/94 63/282/94
f 59/283/95 60/284/95 64/285/95
f 60/286/96 65/287/96 64/288/96
f 61/289/97 62/290/97 66/291/97
f 62/292/98 67/293/98 66/294/98
f 62/295/99 63/296/99 67/297/99
f 63/298/100 68/299/100 67/300/100
f 63/301/101 64/302/101 68/303/101
f 64/304/102 69/305/102 68/306/102
f 64/307/103 65/308/103 69/309/103
f 65/310/104 70/311/104 69/312/104
f 66/313/105 67/314/105 71/315/105
f 67/316/106 72/317/106 71/318/106
f 67/319/107 68/320/107 72/321/107
f 68/322/108 73/323/108 72/324/108
f 68/325/109 69/326/109 73/327/109
f 69/328/110 74/329/110 73/330/110
f 69/331/111 70/332/111 74/333/111
f 70/334/112 75/335/112 74/336/112
