# Cosmetic cavern mesh; no collision.
s off
v -13.935199 96.117995 105.687323
v -13.935199 80.447352 105.687323
v -13.935199 39.311917 105.687323
v -13.935199 -15.535331 105.687323
v -13.935199 -78.217900 105.687323
v -17.135199 89.717995 64.087323
v 5.016243 71.993048 62.383366
v 24.003194 25.928503 60.922831
v 12.927473 -35.060219 61.774810
v -20.299690 -104.518194 64.330745
v -20.335199 83.317995 22.487323
v 6.388483 67.217793 20.431655
v 29.294496 25.513861 18.669654
v 15.932655 -29.571818 19.697488
v -24.152867 -92.233212 22.780990
v -23.535199 76.917995 -19.112677
v 0.631404 62.358355 -20.971646
v 21.345635 24.644900 -22.565049
v 9.262334 -25.169858 -21.635564
v -26.987571 -81.835442 -18.847110
v -26.735199 70.517995 -60.712677
v -4.099383 52.405466 -62.453894
v 15.302746 5.333652 -63.946365
v 3.984838 -56.988679 -63.075757
v -29.968887 -127.965455 -60.463932
v -29.935199 64.117995 -102.312677
v -29.935199 47.578256 -102.312677
v -29.935199 4.161441 -102.312677
v -29.935199 -53.727646 -102.312677
v -29.935199 -119.886601 -102.312677
vt -36.505992 -1.124078
vt -36.505992 -1.246505
vt -36.180992 -1.174078
vt 48.672105 -36.505992
vt 48.820163 -36.167680
vt 48.647105 -36.180992
vt -36.505992 -1.246505
vt -36.505992 -1.567876
vt -36.167680 -1.312554
vt -36.505992 -1.567876
vt -36.156269 -1.672434
vt -36.167680 -1.312554
vt -36.505992 -1.567876
vt -36.505992 -1.996370
vt -36.156269 -1.672434
vt -36.505992 -1.996370
vt -36.162925 -2.148908
vt -36.156269 -1.672434
vt -36.505992 -1.996370
vt -36.505992 -2.486077
vt -36.162925 -2.148908
vt -36.505992 -2.486077
vt -36.182894 -2.691548
vt -36.162925 -2.148908
vt 48.647105 -36.180992
vt 48.820163 -36.167680
vt 48.622105 -35.855992
vt 48.820163 -36.167680
vt 48.830884 -35.839932
vt 48.622105 -35.855992
vt -36.167680 -1.312554
vt -36.156269 -1.672434
vt -35.839932 -1.349861
vt -36.156269 -1.672434
vt -35.826166 -1.675673
vt -35.839932 -1.349861
vt -36.156269 -1.672434
vt -36.162925 -2.148908
vt -35.826166 -1.675673
vt -36.162925 -2.148908
vt -35.834196 -2.106030
vt -35.826166 -1.675673
vt -36.162925 -2.148908
vt -36.182894 -2.691548
vt -35.834196 -2.106030
vt -36.182894 -2.691548
vt -35.858286 -2.595572
vt -35.834196 -2.106030
vt 48.622105 -35.855992
vt 48.830884 -35.839932
vt 48.597105 -35.530992
vt 48.830884 -35.839932
vt 48.785907 -35.516469
vt 48.597105 -35.530992
vt -35.839932 -1.349861
vt -35.826166 -1.675673
vt -35.516469 -1.387825
vt -35.826166 -1.675673
vt -35.504020 -1.682462
vt -35.516469 -1.387825
vt -35.826166 -1.675673
vt -35.834196 -2.106030
vt -35.504020 -1.682462
vt -35.834196 -2.106030
vt -35.511282 -2.071640
vt -35.504020 -1.682462
vt -35.834196 -2.106030
vt -35.858286 -2.595572
vt -35.511282 -2.071640
vt -35.858286 -2.595572
vt -35.533067 -2.514339
vt -35.511282 -2.071640
vt 48.597105 -35.530992
vt 48.785907 -35.516469
vt 48.572105 -35.205992
vt 48.785907 -35.516469
vt 48.748947 -35.192389
vt 48.572105 -35.205992
vt -35.516469 -1.387825
vt -35.504020 -1.682462
vt -35.192389 -1.465582
vt -35.504020 -1.682462
vt -35.180729 -1.833331
vt -35.192389 -1.465582
vt -35.504020 -1.682462
vt -35.511282 -2.071640
vt -35.180729 -1.833331
vt -35.511282 -2.071640
vt -35.187530 -2.320224
vt -35.180729 -1.833331
vt -35.511282 -2.071640
vt -35.533067 -2.514339
vt -35.187530 -2.320224
vt -35.533067 -2.514339
vt -35.207935 -2.874730
vt -35.187530 -2.320224
vt 48.572105 -35.205992
vt 48.748947 -35.192389
vt 48.547105 -34.880992
vt -35.192389 -1.465582
vt -34.880992 -1.503295
vt -34.880992 -1.374078
vt -35.192389 -1.465582
vt -35.180729 -1.833331
vt -34.880992 -1.503295
vt 48.900527 -1.833331
vt 48.547105 -1.842489
vt 48.547105 -1.503295
vt 48.900527 -1.833331
vt 48.812105 -2.320224
vt 48.547105 -1.842489
vt -35.187530 -2.320224
vt -34.880992 -2.294747
vt -34.880992 -1.842489
vt -35.187530 -2.320224
vt -35.207935 -2.874730
vt -34.880992 -2.294747
vt -35.207935 -2.874730
vt -34.880992 -2.811614
vt -34.880992 -2.294747
vn 0.997054 0.000000 -0.076696
vn 0.625768 0.770170 0.123498
vn 0.916111 0.000000 0.400925
vn 0.770145 0.299585 0.563139
vn 0.762876 0.000000 0.646545
vn 0.815626 -0.140279 0.561316
vn 0.853046 0.000000 0.521835
vn 0.896121 -0.423841 0.131630
vn 0.608262 0.776142 -0.166196
vn 0.509794 0.856492 -0.080817
vn 0.924315 0.381403 -0.013180
vn 0.873533 0.475366 0.104726
vn 0.976614 -0.175623 0.124023
vn 0.971255 -0.234869 0.038732
vn 0.902180 -0.431282 0.008179
vn 0.813987 -0.532178 -0.232835
vn 0.499036 0.849914 -0.169143
vn 0.499036 0.849914 -0.169143
vn 0.859684 0.479613 -0.175829
vn 0.859684 0.479613 -0.175829
vn 0.955316 -0.235070 -0.179204
vn 0.955316 -0.235070 -0.179204
vn 0.822795 -0.535697 -0.189834
vn 0.822795 -0.535697 -0.189834
vn 0.499036 0.849914 -0.169143
vn 0.592892 0.765104 -0.251188
vn 0.852806 0.477354 -0.211789
vn 0.878087 0.371493 -0.301590
vn 0.971198 -0.236168 -0.031612
vn 0.983868 -0.178509 0.011766
vn 0.813687 -0.506491 0.285272
vn 0.842821 -0.389521 0.371385
vn 0.608262 0.776142 -0.166196
vn 0.839139 0.000000 -0.543916
vn 0.771559 0.335166 -0.540703
vn 0.646807 0.000000 -0.762654
vn 0.643455 -0.127397 -0.754809
vn 0.756502 -0.000000 -0.653991
vn 0.692612 -0.354447 -0.628216
vn 1.000000 -0.000000 0.000805
f 1/1/1 2/2/1 6/3/1
f 2/4/2 7/5/2 6/6/2
f 2/7/3 3/8/3 7/9/3
f 3/10/4 8/11/4 7/12/4
f 3/13/5 4/14/5 8/15/5
f 4/16/6 9/17/6 8/18/6
f 4/19/7 5/20/7 9/21/7
f 5/22/8 10/23/8 9/24/8
f 6/25/9 7/26/9 11/27/9
f 7/28/10 12/29/10 11/30/10
f 7/31/11 8/32/11 12/33/11
f 8/34/12 13/35/12 12/36/12
f 8/37/13 9/38/13 13/39/13
f 9/40/14 14/41/14 13/42/14
f 9/43/15 10/44/15 14/45/15
f 10/46/16 15/47/16 14/48/16
f 11/49/17 12/50/17 16/51/17
f 12/52/18 17/53/18 16/54/18
f 12/55/19 13/56/19 17/57/19
f 13/58/20 18/59/20 17/60/20
f 13/61/21 14/62/21 18/63/21
f 14/64/22 19/65/22 18/66/22
f 14/67/23 15/68/23 19/69/23
f 15/70/24 20/71/24 19/72/24
f 16/73/25 17/74/25 21/75/25
f 17/76/26 22/77/26 21/78/26
f 17/79/27 18/80/27 22/81/27
f 18/82/28 23/83/28 22/84/28
f 18/85/29 19/86/29 23/87/29
f 19/88/30 24/89/30 23/90/30
f 19/91/31 20/92/31 24/93/31
f 20/94/32 25/95/32 24/96/32
f 21/97/33 22/98/33 26/99/33
f 22/100/34 27/101/34 26/102/34
f 22/103/35 23/104/35 27/105/35
f 23/106/36 28/107/36 27/108/36
f 23/109/37 24/110/37 28/111/37
f 24/112/38 29/113/38 28/114/38
f 24/115/39 25/116/39 29/117/39
f 25/118/40 30/119/40 29/120/40
