# Cosmetic cavern mesh; no collision.
s off
v -22.000000 105.978022 104.000000
v -22.000000 87.720048 104.000000
v -22.000000 39.792867 104.000000
v -22.000000 -24.110042 104.000000
v -22.000000 -97.141937 104.000000
v -22.000000 96.378022 62.400000
v -0.713941 75.436435 62.400000
v 17.531252 27.908206 62.400000
v 6.888223 -28.545632 62.400000
v -25.040866 -89.154620 62.400000
v -22.000000 86.778022 20.800000
v 1.663533 68.161978 20.800000
v 21.946561 27.569668 20.800000
v 10.114795 -18.863691 20.800000
v -25.380505 -67.584025 20.800000
v -22.000000 77.178022 -20.800000
v 6.649913 54.639204 -20.800000
v 31.206982 5.493283 -20.800000
v 16.882025 -50.724516 -20.800000
v -26.092845 -109.711200 -20.800000
v -22.000000 67.578022 -62.400000
v -0.282968 46.212436 -62.400000
v 18.331630 -2.278083 -62.400000
v 7.473114 -59.874926 -62.400000
v -25.102433 -121.711047 -62.400000
v -22.000000 57.978022 -104.000000
v -22.000000 43.254192 -104.000000
v -22.000000 4.604137 -104.000000
v -22.000000 -46.929270 -104.000000
v -22.000000 -105.824591 -104.000000
vt -29.750000 -2.484547
vt -29.750000 -2.627187
vt -29.425000 -2.559547
vt 31.921875 -29.750000
vt 32.088172 -29.425000
vt 31.921875 -29.425000
vt -29.750000 -2.627187
vt -29.750000 -3.001618
vt -29.425000 -2.723153
vt -29.750000 -3.001618
vt -29.425000 -3.094467
vt -29.425000 -2.723153
vt -29.750000 -3.001618
vt -29.750000 -3.500860
vt -29.425000 -3.094467
vt -29.750000 -3.500860
vt -29.425000 -3.535513
vt -29.425000 -3.094467
vt -29.750000 -3.500860
vt -29.750000 -4.071421
vt -29.425000 -3.535513
vt -29.750000 -4.071421
vt -29.425000 -4.009020
vt -29.425000 -3.535513
vt 31.921875 -29.425000
vt 32.088172 -29.425000
vt 31.921875 -29.100000
vt 32.088172 -29.425000
vt 32.106746 -29.100000
vt 31.921875 -29.100000
vt -29.425000 -2.723153
vt -29.425000 -3.094467
vt -29.100000 -2.779985
vt -29.425000 -3.094467
vt -29.100000 -3.097112
vt -29.100000 -2.779985
vt -29.425000 -3.094467
vt -29.425000 -3.535513
vt -29.100000 -3.097112
vt -29.425000 -3.535513
vt -29.100000 -3.459873
vt -29.100000 -3.097112
vt -29.425000 -3.535513
vt -29.425000 -4.009020
vt -29.100000 -3.459873
vt -29.425000 -4.009020
vt -29.100000 -3.840500
vt -29.100000 -3.459873
vt 31.921875 -29.100000
vt 32.106746 -29.100000
vt 31.921875 -28.775000
vt 32.106746 -29.100000
vt 32.145702 -28.775000
vt 31.921875 -28.775000
vt -29.100000 -2.779985
vt -29.100000 -3.097112
vt -28.775000 -2.885631
vt -29.100000 -3.097112
vt -28.775000 -3.269584
vt -28.775000 -2.885631
vt -29.100000 -3.097112
vt -29.100000 -3.459873
vt -28.775000 -3.269584
vt -29.100000 -3.459873
vt -28.775000 -3.708785
vt -28.775000 -3.269584
vt -29.100000 -3.459873
vt -29.100000 -3.840500
vt -28.775000 -3.708785
vt -29.100000 -3.840500
vt -28.775000 -4.169619
vt -28.775000 -3.708785
vt 31.921875 -28.775000
vt 32.145702 -28.775000
vt 31.921875 -28.450000
vt 32.145702 -28.775000
vt 32.091539 -28.450000
vt 31.921875 -28.450000
vt -28.775000 -2.885631
vt -28.775000 -3.269584
vt -28.450000 -2.951465
vt -28.775000 -3.269584
vt -28.450000 -3.330298
vt -28.450000 -2.951465
vt -28.775000 -3.269584
vt -28.775000 -3.708785
vt -28.450000 -3.330298
vt -28.775000 -3.708785
vt -28.450000 -3.780273
vt -28.450000 -3.330298
vt -28.775000 -3.708785
vt -28.775000 -4.169619
vt -28.450000 -3.780273
vt -28.775000 -4.169619
vt -28.450000 -4.263368
vt -28.450000 -3.780273
vt 31.921875 -28.450000
vt 32.091539 -28.450000
vt 31.921875 -28.125000
vt -28.450000 -2.951465
vt -28.125000 -2.974577
vt -28.125000 -2.859547
vt -28.450000 -2.951465
vt -28.450000 -3.330298
vt -28.125000 -2.974577
vt -28.450000 -3.330298
vt -28.125000 -3.276530
vt -28.125000 -2.974577
vt 32.236966 -3.330298
vt 32.152134 -3.780273
vt 31.921875 -3.276530
vt -28.450000 -3.780273
vt -28.125000 -3.679135
vt -28.125000 -3.276530
vt -28.450000 -3.780273
vt -28.450000 -4.263368
vt -28.125000 -3.679135
vt -28.450000 -4.263368
vt -28.125000 -4.139255
vt -28.125000 -3.679135
vn 1.000000 0.000000 0.000000
vn 0.941223 0.256850 0.219382
vn 0.796410 0.095564 0.597158
vn 0.787405 -0.050791 0.614340
vn 0.938831 -0.255024 0.231429
vn 0.861106 0.508394 -0.005619
vn 0.836648 0.519476 0.173682
vn 0.917260 0.135742 0.374443
vn 0.944535 -0.267420 0.190630
vn 0.850137 -0.500162 -0.164637
vn 0.639704 0.754291 -0.147730
vn 0.784005 0.616623 -0.071493
vn 0.989248 0.120352 0.083092
vn 0.906443 -0.395736 0.147491
vn 0.781428 -0.569311 0.255450
vn 0.608374 0.773326 -0.178460
vn 0.777653 0.608791 -0.156937
vn 0.994886 0.094284 -0.036228
vn 0.901167 -0.405355 0.153574
vn 0.818502 -0.535658 0.207665
vn 0.661044 0.723676 -0.198279
vn 0.839634 0.431223 -0.330244
vn 0.887414 0.018121 -0.460617
vn 0.880311 -0.313369 -0.356164
vn 0.942304 -0.303927 -0.140325
vn 0.858947 0.382759 -0.340154
vn 0.828430 0.108486 -0.549486
vn 0.748500 -0.044246 -0.661657
vn 0.906014 -0.132991 -0.401812
vn 0.997231 -0.000000 0.074371
f 1/1/1 2/2/2 6/3/6
f 2/4/2 7/5/7 6/6/6
f 2/7/2 3/8/3 7/9/7
f 3/10/3 8/11/8 7/12/7
f 3/13/3 4/14/4 8/15/8
f 4/16/4 9/17/9 8/18/8
f 4/19/4 5/20/5 9/21/9
f 5/22/5 10/23/10 9/24/9
f 6/25/6 7/26/7 11/27/11
f 7/28/7 12/29/12 11/30/11
f 7/31/7 8/32/8 12/33/12
f 8/34/8 13/35/13 12/36/12
f 8/37/8 9/38/9 13/39/13
f 9/40/9 14/41/14 13/42/13
f 9/43/9 10/44/10 14/45/14
f 10/46/10 15/47/15 14/48/14
f 11/49/11 12/50/12 16/51/16
f 12/52/12 17/53/17 16/54/16
f 12/55/12 13/56/13 17/57/17
f 13/58/13 18/59/18 17/60/17
f 13/61/13 14/62/14 18/63/18
f 14/64/14 19/65/19 18/66/18
f 14/67/14 15/68/15 19/69/19
f 15/70/15 20/71/20 19/72/19
f 16/73/16 17/74/17 21/75/21
f 17/76/17 22/77/22 21/78/21
f 17/79/17 18/80/18 22/81/22
f 18/82/18 23/83/23 22/84/22
f 18/85/18 19/86/19 23/87/23
f 19/88/19 24/89/24 23/90/23
f 19/91/19 20/92/20 24/93/24
f 20/94/20 25/95/25 24/96/24
f 21/97/21 22/98/22 26/99/26
f 22/100/22 27/101/27 26/102/26
f 22/103/22 23/104/23 27/105/27
f 23/106/23 28/107/28 27/108/27
f 23/109/23 24/110/24 28/111/28
f 24/112/24 29/113/29 28/114/28
f 24/115/24 25/116/25 29/117/29
f 25/118/25 30/119/30 29/120/29
