# Cosmetic cavern mesh; no collision.
s off
v 0.000000 -112.000000 0.000000
v 43.851858 -95.176845 -0.000000
v 39.820806 -109.730179 -15.447509
v 28.875382 -123.229413 -30.920201
v 4.718289 -90.687647 -28.721579
v -18.355112 -120.552010 -35.772770
v -32.679128 -113.297958 -21.398699
v -43.565947 -93.099997 -7.936813
v -47.289288 -127.268883 8.615129
v -32.764405 -101.935025 21.454539
v -16.751736 -101.524823 32.647907
v 5.369373 -127.405296 32.684913
v 27.906227 -93.328421 29.882415
v 36.522247 -112.857158 14.167914
v 87.703715 -84.439660 -0.000000
v 79.641611 -116.279148 -30.895018
v 57.750764 -98.246294 -61.840401
v 9.436578 -90.436523 -57.443157
v -36.710225 -118.876303 -71.545540
v -65.358256 -88.788587 -42.797398
v -87.131895 -100.442255 -15.873627
v -94.578575 -115.000852 17.230258
v -65.528809 -83.947095 42.909078
v -33.503472 -110.769245 65.295815
v 10.738746 -106.081092 65.369827
v 55.812455 -85.506150 59.764831
v 73.044495 -117.611484 28.335828
v 131.555573 -82.108178 -0.000000
v 119.462417 -100.257359 -46.342527
v 86.626145 -72.226170 -92.760602
v 14.154867 -91.430007 -86.164736
v -55.065337 -93.871084 -107.318311
v -98.037385 -71.414385 -64.196098
v -130.697842 -98.898029 -23.810440
v -141.867863 -84.731342 25.845387
v -98.293214 -76.125545 64.363618
v -50.255208 -101.759904 97.943722
v 16.108119 -76.206584 98.054740
v 83.718682 -84.623354 89.647246
v 109.566742 -98.960890 42.503742
v 175.407430 -68.368486 -0.000000
v 159.283222 -62.233715 -61.790036
v 115.501527 -51.321015 -123.680803
v 18.873156 -71.997526 -114.886315
v -73.420450 -55.357699 -143.091081
v -130.716513 -56.854623 -85.594797
v -174.263790 -71.499721 -31.747253
v -189.157151 -50.487442 34.460515
v -131.057618 -63.842300 85.818157
v -67.006945 -67.058536 130.591629
v 21.477492 -49.417876 130.739653
v 111.624910 -69.708737 119.529661
v 146.088989 -60.310768 56.671655
v 219.259288 28.000000 -0.000000
v 199.104028 28.000000 -77.237545
v 144.376909 28.000000 -154.601003
v 23.591445 28.000000 -143.607894
v -91.775562 28.000000 -178.863851
v -163.395641 28.000000 -106.993496
v -217.829737 28.000000 -39.684067
v -236.446438 28.000000 43.075644
v -163.822023 28.000000 107.272696
v -83.758681 28.000000 163.239536
v 26.846865 28.000000 163.424567
v 139.531137 28.000000 149.412076
v 182.611236 28.000000 70.839569
vt 37.812500 -31.484375
vt 38.123600 -31.363691
vt 38.155093 -31.484375
vt 37.812500 -31.484375
vt 38.038089 -31.242811
vt 38.123600 -31.363691
vt -31.484375 3.984375
vt -31.259988 4.150878
vt -31.242811 3.896645
vt -31.484375 3.984375
vt -31.204900 3.917562
vt -31.259988 4.150878
vt 37.812500 -31.484375
vt 37.557194 -31.317198
vt 37.669101 -31.204900
vt 37.812500 3.984375
vt 37.472141 4.132031
vt 37.557194 3.974235
vt 37.812500 3.984375
vt 37.443052 3.865087
vt 37.472141 4.132031
vt 37.812500 3.984375
vt 37.556528 4.063008
vt 37.443052 3.865087
vt 37.812500 -31.484375
vt 37.681627 -31.739437
vt 37.556528 -31.651989
vt -31.484375 3.984375
vt -31.739726 3.864021
vt -31.739437 4.066212
vt -31.484375 3.984375
vt -31.717831 4.130247
vt -31.739726 3.864021
vt 37.812500 3.984375
vt 38.097830 3.977678
vt 38.030517 4.130247
vt 37.812500 3.984375
vt 38.155093 4.115806
vt 38.097830 3.977678
vt 38.155093 -31.484375
vt 38.123600 -31.363691
vt 38.497685 -31.484375
vt 38.123600 -31.363691
vt 38.434700 -31.243008
vt 38.497685 -31.484375
vt 38.123600 -31.363691
vt 38.038089 -31.242811
vt 38.434700 -31.243008
vt 38.038089 -31.242811
vt 38.263678 -31.001247
vt 38.434700 -31.243008
vt 38.038089 3.896645
vt 37.849362 4.150878
vt 38.263678 4.091826
vt 37.849362 -31.259988
vt 37.886223 -31.035600
vt 38.263678 -31.001247
vt -31.259988 4.150878
vt -31.204900 3.917562
vt -31.035600 4.152840
vt 37.669101 -31.204900
vt 37.525701 -30.925425
vt 37.886223 -31.035600
vt 37.669101 -31.204900
vt 37.557194 -31.317198
vt 37.525701 -30.925425
vt 37.557194 -31.317198
vt 37.301889 -31.150020
vt 37.525701 -30.925425
vt -31.317198 3.974235
vt -31.422369 4.132031
vt -31.150020 4.165714
vt 37.472141 -31.422369
vt 37.131782 -31.360362
vt 37.301889 -31.150020
vt 37.472141 4.132031
vt 37.443052 3.865087
vt 37.131782 4.074670
vt 37.443052 -31.551681
vt 37.073605 -31.618986
vt 37.131782 -31.360362
vt 37.443052 3.865087
vt 37.556528 4.063008
vt 37.073605 3.960931
vt 37.556528 4.063008
vt 37.300556 4.203538
vt 37.073605 3.960931
vt 37.556528 -31.651989
vt 37.681627 -31.739437
vt 37.300556 -31.819602
vt 37.681627 -31.739437
vt 37.550754 -31.994499
vt 37.300556 -31.819602
vt -31.739437 4.066212
vt -31.739726 3.864021
vt -31.994499 3.993990
vt 37.854448 -31.739726
vt 37.896396 -31.995077
vt 37.550754 -31.994499
vt -31.739726 3.864021
vt -31.717831 4.130247
vt -31.995077 4.030616
vt 38.030517 -31.717831
vt 38.248535 -31.951288
vt 37.896396 -31.995077
vt 38.030517 -31.717831
vt 38.097830 -31.595062
vt 38.248535 -31.951288
vt 38.097830 -31.595062
vt 38.383160 -31.705749
vt 38.248535 -31.951288
vt 38.097830 3.977678
vt 38.155093 4.115806
vt 38.383160 3.940535
vt 38.155093 4.115806
vt 38.497685 4.199690
vt 38.383160 3.940535
vt 38.497685 4.199690
vt 38.434700 3.950944
vt 38.840278 4.217905
vt 38.434700 -31.243008
vt 38.745800 -31.122324
vt 38.840278 -31.484375
vt 38.434700 -31.243008
vt 38.263678 -31.001247
vt 38.745800 -31.122324
vt 38.263678 -31.001247
vt 38.489267 -30.759683
vt 38.745800 -31.122324
vt 38.263678 4.091826
vt 37.886223 4.152840
vt 38.489267 4.295108
vt 37.886223 -31.035600
vt 37.923085 -30.811213
vt 38.489267 -30.759683
vt 37.886223 -31.035600
vt 37.525701 -30.925425
vt 37.923085 -30.811213
vt 37.525701 -30.925425
vt 37.382302 -30.645951
vt 37.923085 -30.811213
vt -30.925425 3.930654
vt -31.150020 4.165714
vt -30.645951 4.126007
vt 37.301889 -31.150020
vt 37.046583 -30.982843
vt 37.382302 -30.645951
vt 37.301889 -31.150020
vt 37.131782 -31.360362
vt 37.046583 -30.982843
vt 37.131782 -31.360362
vt 36.791423 -31.298356
vt 37.046583 -30.982843
vt 37.131782 -31.360362
vt 37.073605 -31.618986
vt 36.791423 -31.298356
vt 37.073605 -31.618986
vt 36.704157 -31.686292
vt 36.791423 -31.298356
vt 37.073605 3.960931
vt 37.300556 4.203538
vt 36.704157 4.197411
vt 37.300556 -31.819602
vt 37.044584 -31.987216
vt 36.704157 -31.686292
vt 37.300556 -31.819602
vt 37.550754 -31.994499
vt 37.044584 -31.987216
vt 37.550754 -31.994499
vt 37.419881 -32.249560
vt 37.044584 -31.987216
vt 37.550754 -31.994499
vt 37.896396 -31.995077
vt 37.419881 -32.249560
vt 37.896396 -31.995077
vt 37.938345 -32.250428
vt 37.419881 -32.249560
vt 37.896396 -31.995077
vt 38.248535 -31.951288
vt 37.938345 -32.250428
vt 38.248535 -31.951288
vt 38.466552 -32.184744
vt 37.938345 -32.250428
vt 38.248535 -31.951288
vt 38.383160 -31.705749
vt 38.466552 -32.184744
vt 38.383160 -31.705749
vt 38.668490 -31.816435
vt 38.466552 -32.184744
vt 38.383160 -31.705749
vt 38.497685 -31.484375
vt 38.668490 -31.816435
vt 38.497685 -31.484375
vt 38.840278 -31.484375
vt 38.668490 -31.816435
vt 38.840278 -31.484375
vt 38.745800 -31.122324
vt 39.182871 -31.484375
vt 38.745800 -31.122324
vt 39.056900 -31.001640
vt 39.182871 -31.484375
vt 38.745800 4.076114
vt 38.489267 4.295108
vt 39.056900 4.373174
vt 38.489267 -30.759683
vt 38.714856 -30.518119
vt 39.056900 -31.001640
vt 38.489267 -30.759683
vt 37.923085 -30.811213
vt 38.714856 -30.518119
vt 37.923085 -30.811213
vt 37.959947 -30.586826
vt 38.714856 -30.518119
vt 37.923085 -30.811213
vt 37.382302 -30.645951
vt 37.959947 -30.586826
vt 37.382302 4.126007
vt 37.238903 4.426893
vt 37.959947 4.296894
vt -30.645951 4.126007
vt -30.982843 4.301450
vt -30.366476 4.426893
vt 37.046583 -30.982843
vt 36.791277 -30.815666
vt 37.238903 -30.366476
vt 37.046583 -30.982843
vt 36.791423 -31.298356
vt 36.791277 -30.815666
vt 36.791423 -31.298356
vt 36.451064 -31.236350
vt 36.791277 -30.815666
vt 36.791423 -31.298356
vt 36.704157 -31.686292
vt 36.451064 -31.236350
vt 36.704157 -31.686292
vt 36.334710 -31.753598
vt 36.451064 -31.236350
vt 36.704157 -31.686292
vt 37.044584 -31.987216
vt 36.334710 -31.753598
vt 37.044584 -31.987216
vt 36.788612 -32.154829
vt 36.334710 -31.753598
vt 37.044584 -31.987216
vt 37.419881 -32.249560
vt 36.788612 -32.154829
vt 37.419881 -32.249560
vt 37.289008 -32.504622
vt 36.788612 -32.154829
vt 37.419881 4.064376
vt 37.938345 4.264011
vt 37.289008 4.335480
vt 37.938345 -32.250428
vt 37.980293 -32.505779
vt 37.289008 -32.504622
vt 37.938345 -32.250428
vt 38.466552 -32.184744
vt 37.980293 -32.505779
vt 38.466552 -32.184744
vt 38.684570 -32.418200
vt 37.980293 -32.505779
vt 38.466552 -32.184744
vt 38.668490 -31.816435
vt 38.684570 -32.418200
vt 38.668490 -31.816435
vt 38.953820 -31.927122
vt 38.684570 -32.418200
vt -31.816435 4.086243
vt -31.484375 4.217905
vt -31.927122 4.388197
vt 38.840278 -31.484375
vt 39.182871 -31.484375
vt 38.953820 -31.927122
vt -31.484375 4.325246
vt -31.001640 4.373174
vt -31.484375 5.078125
vt -31.001640 4.373174
vt -30.880957 5.078125
vt -31.484375 5.078125
vt -31.001640 4.373174
vt -30.518119 4.458430
vt -30.880957 5.078125
vt -30.518119 4.458430
vt -30.276555 5.078125
vt -30.880957 5.078125
vt 38.714856 4.458430
vt 37.959947 4.296894
vt 38.940445 5.078125
vt 37.959947 4.296894
vt 37.996808 5.078125
vt 38.940445 5.078125
vt 37.959947 4.296894
vt 37.238903 4.426893
vt 37.996808 5.078125
vt 37.238903 4.426893
vt 37.095503 5.078125
vt 37.996808 5.078125
vt 37.238903 4.426893
vt 36.791277 4.415198
vt 37.095503 5.078125
vt -30.815666 4.415198
vt -30.648488 5.078125
vt -30.087001 5.078125
vt -30.815666 4.415198
vt -31.236350 4.300783
vt -30.648488 5.078125
vt -31.236350 4.300783
vt -31.174343 5.078125
vt -30.648488 5.078125
vt -31.236350 4.300783
vt -31.753598 4.464942
vt -31.174343 5.078125
vt -31.753598 4.464942
vt -31.820903 5.078125
vt -31.174343 5.078125
vt -31.753598 4.464942
vt -32.154829 4.360607
vt -31.820903 5.078125
vt 36.788612 4.360607
vt 36.532640 5.078125
vt 35.965262 5.078125
vt 36.788612 4.360607
vt 37.289008 4.335480
vt 36.532640 5.078125
vt 37.289008 4.335480
vt 37.158135 5.078125
vt 36.532640 5.078125
vt 37.289008 4.335480
vt 37.980293 4.473298
vt 37.158135 5.078125
vt 37.980293 4.473298
vt 38.022241 5.078125
vt 37.158135 5.078125
vt 37.980293 4.473298
vt 38.684570 4.314775
vt 38.022241 5.078125
vt 38.684570 4.314775
vt 38.902587 5.078125
vt 38.022241 5.078125
vt -32.418200 4.314775
vt -31.927122 4.388197
vt -32.651657 5.078125
vt -31.927122 4.388197
vt -32.037809 5.078125
vt -32.651657 5.078125
vt -31.927122 4.388197
vt -31.484375 4.325246
vt -32.037809 5.078125
vt -31.484375 4.325246
vt -31.484375 5.078125
vt -32.037809 5.078125
vn 0.281587 -0.733996 0.618028
vn 0.251467 -0.810407 0.529155
vn -0.716370 -0.498832 -0.487832
vn 0.791106 -0.546204 -0.275341
vn -0.164822 -0.936825 0.308532
vn -0.399209 -0.647694 0.648941
vn -0.024058 -0.433707 -0.900733
vn 0.321465 -0.568212 0.757493
vn -0.140585 -0.961445 0.236348
vn -0.747818 -0.639446 -0.178539
vn 0.758508 -0.532531 -0.375602
vn -0.280917 -0.673849 0.683384
vn 0.255842 -0.666888 -0.699861
vn 0.180939 -0.738974 0.648983
vn 0.151257 -0.707830 0.689998
vn 0.107241 -0.785522 0.609470
vn 0.112777 -0.821720 -0.558621
vn -0.532263 -0.342823 -0.774060
vn -0.162608 -0.986058 -0.035334
vn 0.771434 -0.624647 0.121267
vn 0.566195 -0.757073 -0.325980
vn -0.340191 -0.931196 0.130933
vn -0.649705 -0.748024 0.135437
vn -0.699170 -0.617281 0.360728
vn 0.204353 -0.947752 -0.244961
vn 0.232505 -0.444415 -0.865122
vn -0.299749 -0.846619 -0.439758
vn 0.038934 -0.469393 0.882131
vn 0.095705 -0.685981 0.721298
vn -0.242109 -0.893130 0.379080
vn -0.384761 -0.817338 -0.428855
vn -0.658935 -0.563931 -0.497781
vn 0.088205 -0.840822 0.534077
vn 0.823513 -0.527458 0.208839
vn 0.397705 -0.907705 -0.133796
vn -0.444987 -0.672344 0.591557
vn -0.323362 -0.744874 0.583609
vn 0.194921 -0.661277 -0.724375
vn 0.166992 -0.682013 -0.712019
vn 0.037257 -0.700742 0.712442
vn 0.437904 -0.870032 0.226460
vn 0.113617 -0.821348 -0.558998
vn 0.117447 -0.811150 -0.572924
vn -0.173797 -0.667512 -0.724032
vn 0.261881 -0.962079 0.076300
vn 0.496512 -0.860859 0.111343
vn 0.219368 -0.743215 -0.632067
vn -0.754580 -0.652573 -0.068972
vn -0.466961 -0.884265 -0.004837
vn -0.139961 -0.862412 -0.486474
vn 0.065496 -0.848789 -0.524659
vn 0.039393 -0.917912 -0.394823
vn -0.518700 -0.845824 0.124630
vn -0.181165 -0.520515 0.834412
vn -0.051013 -0.960836 0.272381
vn -0.435065 -0.823448 -0.364213
vn -0.471548 -0.881839 0.001395
vn 0.099605 -0.944894 0.311855
vn 0.280435 -0.731006 0.622082
vn 0.396242 -0.709197 0.583123
vn -0.106720 -0.985913 0.128789
vn -0.488593 -0.730026 0.477848
vn 0.280060 -0.864883 0.416586
vn 0.539827 -0.671815 -0.507199
vn 0.049818 -0.937004 -0.345749
vn 0.286716 -0.915089 0.283558
vn 0.621513 -0.746904 -0.236340
vn 0.370631 -0.655475 -0.658017
vn 0.272777 -0.895798 -0.350912
vn 0.197390 -0.887745 -0.415868
vn 0.128575 -0.831042 -0.541145
vn 0.190658 -0.827301 -0.528416
vn 0.114010 -0.646406 -0.754427
vn -0.682388 -0.644898 -0.344169
vn -0.241988 -0.933264 -0.265443
vn 0.000045 -0.826740 -0.562585
vn -0.385264 -0.762975 -0.519077
vn -0.543754 -0.831347 0.114864
vn -0.565661 -0.814144 0.131139
vn -0.394003 -0.695320 0.601075
vn -0.297663 -0.950459 0.089584
vn -0.409299 -0.906193 -0.106246
vn -0.420945 -0.721026 0.550388
vn 0.231654 -0.604928 0.761839
vn 0.153775 -0.776454 0.611124
vn -0.017073 -0.771928 0.635481
vn -0.122346 -0.837647 0.532333
vn 0.122205 -0.928927 0.349514
vn 0.655245 -0.711850 0.252831
vn 0.707670 -0.701023 0.088150
vn 0.287130 -0.916408 0.278841
vn 0.876795 -0.398980 -0.268413
vn 0.875620 -0.425535 -0.228494
vn 0.708553 -0.410901 -0.573683
vn 0.723623 -0.462963 -0.511893
vn -0.007689 -0.360751 -0.932631
vn -0.087242 -0.271204 -0.958560
vn 0.234401 -0.278571 -0.931372
vn 0.276186 -0.327029 -0.903755
vn -0.638020 -0.418012 -0.646681
vn -0.645756 -0.410973 -0.643507
vn -0.650698 -0.411526 -0.638153
vn -0.724261 -0.363839 -0.585720
vn -0.911108 -0.405024 -0.076411
vn -0.849880 -0.491075 -0.191180
vn -0.645898 -0.456337 0.612023
vn -0.612514 -0.380380 0.692920
vn -0.544658 -0.370108 0.752574
vn -0.535127 -0.357223 0.765526
vn 0.061129 -0.314566 0.947265
vn -0.001541 -0.388854 0.921298
vn 0.026571 -0.390372 0.920274
vn 0.116878 -0.320831 0.939897
vn 0.838696 -0.363548 0.405490
vn 0.802664 -0.402558 0.440088
vn 0.789131 -0.401001 0.465264
vn 0.823470 -0.374715 0.426013
f 1/1/1 3/2/1 2/3/1
f 1/4/2 4/5/2 3/6/2
f 1/7/3 5/8/3 4/9/3
f 1/10/4 6/11/4 5/12/4
f 1/13/5 7/14/5 6/15/5
f 1/16/6 8/17/6 7/18/6
f 1/19/7 9/20/7 8/21/7
f 1/22/8 10/23/8 9/24/8
f 1/25/9 11/26/9 10/27/9
f 1/28/10 12/29/10 11/30/10
f 1/31/11 13/32/11 12/33/11
f 1/34/12 14/35/12 13/36/12
f 1/37/13 2/38/13 14/39/13
f 2/40/14 3/41/14 15/42/14
f 3/43/15 16/44/15 15/45/15
f 3/46/16 4/47/16 16/48/16
f 4/49/17 17/50/17 16/51/17
f 4/52/18 5/53/18 17/54/18
f 5/55/19 18/56/19 17/57/19
f 5/58/20 6/59/20 18/60/20
f 6/61/21 19/62/21 18/63/21
f 6/64/22 7/65/22 19/66/22
f 7/67/23 20/68/23 19/69/23
f 7/70/24 8/71/24 20/72/24
f 8/73/25 21/74/25 20/75/25
f 8/76/26 9/77/26 21/78/26
f 9/79/27 22/80/27 21/81/27
f 9/82/28 10/83/28 22/84/28
f 10/85/29 23/86/29 22/87/29
f 10/88/30 11/89/30 23/90/30
f 11/91/31 24/92/31 23/93/31
f 11/94/32 12/95/32 24/96/32
f 12/97/33 25/98/33 24/99/33
f 12/100/34 13/101/34 25/102/34
f 13/103/35 26/104/35 25/105/35
f 13/106/36 14/107/36 26/108/36
f 14/109/37 27/110/37 26/111/37
f 14/112/38 2/113/38 27/114/38
f 2/115/39 15/116/39 27/117/39
f 15/118/40 16/119/40 28/120/40
f 16/121/41 29/122/41 28/123/41
f 16/124/42 17/125/42 29/126/42
f 17/127/43 30/128/43 29/129/43
f 17/130/44 18/131/44 30/132/44
f 18/133/45 31/134/45 30/135/45
f 18/136/46 19/137/46 31/138/46
f 19/139/47 32/140/47 31/141/47
f 19/142/48 20/143/48 32/144/48
f 20/145/49 33/146/49 32/147/49
f 20/148/50 21/149/50 33/150/50
f 21/151/51 34/152/51 33/153/51
f 21/154/52 22/155/52 34/156/52
f 22/157/53 35/158/53 34/159/53
f 22/160/54 23/161/54 35/162/54
f 23/163/55 36/164/55 35/165/55
f 23/166/56 24/167/56 36/168/56
f 24/169/57 37/170/57 36/171/57
f 24/172/58 25/173/58 37/174/58
f 25/175/59 38/176/59 37/177/59
f 25/178/60 26/179/60 38/180/60
f 26/181/61 39/182/61 38/183/61
f 26/184/62 27/185/62 39/186/62
f 27/187/63 40/188/63 39/189/63
f 27/190/64 15/191/64 40/192/64
f 15/193/65 28/194/65 40/195/65
f 28/196/66 29/197/66 41/198/66
f 29/199/67 42/200/67 41/201/67
f 29/202/68 30/203/68 42/204/68
f 30/205/69 43/206/69 42/207/69
f 30/208/70 31/209/70 43/210/70
f 31/211/71 44/212/71 43/213/71
f 31/214/72 32/215/72 44/216/72
f 32/217/73 45/218/73 44/219/73
f 32/220/74 33/221/74 45/222/74
f 33/223/75 46/224/75 45/225/75
f 33/226/76 34/227/76 46/228/76
f 34/229/77 47/230/77 46/231/77
f 34/232/78 35/233/78 47/234/78
f 35/235/79 48/236/79 47/237/79
f 35/238/80 36/239/80 48/240/80
f 36/241/81 49/242/81 48/243/81
f 36/244/82 37/245/82 49/246/82
f 37/247/83 50/248/83 49/249/83
f 37/250/84 38/251/84 50/252/84
f 38/253/85 51/254/85 50/255/85
f 38/256/86 39/257/86 51/258/86
f 39/259/87 52/260/87 51/261/87
f 39/262/88 40/263/88 52/264/88
f 40/265/89 53/266/89 52/267/89
f 40/268/90 28/269/90 53/270/90
f 28/271/91 41/272/91 53/273/91
f 41/274/92 42/275/92 54/276/92
f 42/277/93 55/278/93 54/279/93
f 42/280/94 43/281/94 55/282/94
f 43/283/95 56/284/95 55/285/95
f 43/286/96 44/287/96 56/288/96
f 44/289/97 57/290/97 56/291/97
f 44/292/98 45/293/98 57/294/98
f 45/295/99 58/296/99 57/297/99
f 45/298/100 46/299/100 58/300/100
f 46/301/101 59/302/101 58/303/101
f 46/304/102 47/305/102 59/306/102
f 47/307/103 60/308/103 59/309/103
f 47/310/104 48/311/104 60/312/104
f 48/313/105 61/314/105 60/315/105
f 48/316/106 49/317/106 61/318/106
f 49/319/107 62/320/107 61/321/107
f 49/322/108 50/323/108 62/324/108
f 50/325/109 63/326/109 62/327/109
f 50/328/110 51/329/110 63/330/110
f 51/331/111 64/332/111 63/333/111
f 51/334/112 52/335/112 64/336/112
f 52/337/113 65/338/113 64/339/113
f 52/340/114 53/341/114 65/342/114
f 53/343/115 66/344/115 65/345/115
f 53/346/116 41/347/116 66/348/116
f 41/349/117 54/350/117 66/351/117
