# Cosmetic cavern mesh; no collision.
s off
v 0.000000 -132.000000 0.000000
v 58.531235 -106.187943 -0.000000
v 43.047379 -79.699848 -14.493627
v 30.313279 -106.776538 -28.172763
v 6.929355 -139.484013 -36.609898
v -16.199919 -119.598418 -27.402509
v -44.646215 -176.004065 -25.373684
v -48.103481 -169.584313 -7.606020
v -51.717212 -149.511360 8.177416
v -40.398505 -180.371823 22.959592
v -18.660255 -134.164569 31.564219
v 6.367383 -115.397606 33.640829
v 29.491846 -127.360282 27.409335
v 50.526001 -71.946702 17.011606
v 117.062470 -39.345776 -0.000000
v 86.094757 -35.009857 -28.987255
v 60.626558 -91.196083 -56.345526
v 13.858710 -105.261888 -73.219796
v -32.399838 -131.883259 -54.805019
v -89.292431 -207.572155 -50.747368
v -96.206962 -177.807618 -15.212040
v -103.434425 -197.337598 16.354831
v -80.797009 -196.462333 45.919184
v -37.320509 -127.784620 63.128439
v 12.734766 -121.216369 67.281657
v 58.983693 -80.141553 54.818669
v 101.052003 -24.964825 34.023211
v 175.593706 40.287350 -0.000000
v 129.142136 0.109948 -43.480882
v 90.939836 -49.397676 -84.518289
v 20.788064 -70.150224 -109.829695
v -48.599758 -145.315271 -82.207528
v -133.938646 -212.244980 -76.121051
v -144.310443 -194.466953 -22.818060
v -155.151637 -234.561513 24.532247
v -121.195514 -191.988823 68.878776
v -55.980764 -133.153484 94.692658
v 19.102148 -105.687110 100.922486
v 88.475539 -23.365223 82.228004
v 151.578004 14.189167 51.034817
v 234.124941 117.887249 -0.000000
v 172.189515 48.727933 -57.974509
v 121.253115 17.623142 -112.691053
v 27.717419 -40.970703 -146.439593
v -64.799677 -134.888594 -109.610037
v -178.584862 -201.602397 -101.494735
v -192.413924 -214.217344 -30.424081
v -206.868850 -241.805631 32.709663
v -161.594019 -183.197684 91.838368
v -74.641019 -133.079398 126.256878
v 25.469531 -60.552282 134.563315
v 117.967386 29.693406 109.637339
v 202.104006 69.867831 68.046423
v 292.656176 249.709224 -0.000000
v 215.236894 191.058253 -72.468136
v 151.566394 142.823026 -140.863816
v 34.646774 54.247556 -183.049491
v -80.999596 -33.363330 -137.012547
v -223.231077 -141.114452 -126.868419
v -240.517405 -154.210155 -38.030101
v -258.586062 -167.898532 40.887078
v -201.992523 -125.024639 114.797959
v -93.301274 -42.682783 157.821097
v 31.836914 52.118874 168.204143
v 147.459232 139.711540 137.046674
v 252.630007 219.386369 85.058028
vt 37.343750 2.478693
vt 37.680058 2.887288
vt 37.801025 2.680350
vt -46.718750 2.478693
vt -46.498650 2.675751
vt -46.605519 2.887288
vt -46.718750 2.478693
vt -46.432735 2.420224
vt -46.498650 2.675751
vt 37.343750 -46.718750
vt 37.217188 -46.504668
vt 37.397886 -46.432735
vt -46.718750 2.478693
vt -46.520518 2.134911
vt -46.504668 2.575581
vt 37.343750 -46.718750
vt 36.967942 -46.659328
vt 36.994951 -46.520518
vt 37.343750 2.478693
vt 36.939709 2.341886
vt 36.967942 2.185066
vt 37.343750 2.478693
vt 37.028137 2.100788
vt 36.939709 2.341886
vt -46.718750 2.478693
vt -46.965345 2.461782
vt -46.898122 2.100788
vt 37.343750 -46.718750
vt 37.393495 -46.981569
vt 37.197967 -46.965345
vt 37.343750 -46.718750
vt 37.574155 -46.932885
vt 37.393495 -46.981569
vt -46.718750 2.478693
vt -46.851653 2.947860
vt -46.932885 2.514941
vt 37.343750 2.478693
vt 37.801025 2.680350
vt 37.738484 2.947860
vt 37.801025 2.680350
vt 37.680058 2.887288
vt 38.258301 3.202554
vt 37.680058 -46.605519
vt 38.016365 -46.492287
vt 38.258301 -46.718750
vt -46.605519 2.887288
vt -46.498650 2.675751
vt -46.492287 3.236429
vt -46.498650 2.675751
vt -46.278551 2.797474
vt -46.492287 3.236429
vt -46.498650 2.675751
vt -46.432735 2.420224
vt -46.278551 2.797474
vt 37.397886 -46.432735
vt 37.452021 -46.146720
vt 37.817395 -46.278551
vt -46.432735 2.420224
vt -46.504668 2.575581
vt -46.146720 2.687585
vt 37.217188 -46.504668
vt 37.090626 -46.290586
vt 37.452021 -46.146720
vt -46.504668 2.575581
vt -46.520518 2.134911
vt -46.290586 2.479605
vt -46.520518 2.134911
vt -46.322286 1.888286
vt -46.290586 2.479605
vt 36.994951 -46.520518
vt 36.967942 -46.659328
vt 36.646153 -46.322286
vt 36.967942 -46.659328
vt 36.592133 -46.599906
vt 36.646153 -46.322286
vt 36.967942 2.185066
vt 36.939709 2.341886
vt 36.592133 2.120821
vt 36.939709 -46.782636
vt 36.535669 -46.846522
vt 36.592133 -46.599906
vt 36.939709 2.341886
vt 37.028137 2.100788
vt 36.535669 1.968243
vt 37.028137 -46.898122
vt 36.712523 -47.077494
vt 36.535669 -46.846522
vt 37.028137 2.100788
vt 37.197967 2.461782
vt 36.712523 1.975081
vt -46.965345 2.461782
vt -47.211941 2.511626
vt -47.077494 1.975081
vt 37.197967 -46.965345
vt 37.393495 -46.981569
vt 37.052184 -47.211941
vt 37.393495 -46.981569
vt 37.443240 -47.244388
vt 37.052184 -47.211941
vt 37.393495 -46.981569
vt 37.574155 -46.932885
vt 37.443240 -47.244388
vt -46.932885 2.514941
vt -47.147021 2.883837
vt -47.244388 2.562940
vt -46.932885 2.514941
vt -46.851653 2.947860
vt -47.147021 2.883837
vt -46.851653 2.947860
vt -46.984556 3.314905
vt -47.147021 2.883837
vt 37.738484 2.947860
vt 37.801025 2.680350
vt 38.133219 3.314905
vt -46.718750 2.680350
vt -46.718750 3.202554
vt -46.984556 3.314905
vt 38.258301 3.202554
vt 38.016365 3.236429
vt 38.715576 3.824688
vt 38.016365 -46.492287
vt 38.352673 -46.379056
vt 38.715576 -46.718750
vt -46.492287 3.236429
vt -46.278551 2.797474
vt -46.379056 3.510802
vt -46.278551 2.797474
vt -46.058451 3.124024
vt -46.379056 3.510802
vt 37.817395 -46.278551
vt 37.452021 -46.146720
vt 38.054217 -46.058451
vt 37.452021 -46.146720
vt 37.506157 -45.860706
vt 38.054217 -46.058451
vt 37.452021 -46.146720
vt 37.090626 -46.290586
vt 37.506157 -45.860706
vt -46.290586 2.479605
vt -46.076504 2.374668
vt -45.860706 2.961895
vt -46.290586 2.479605
vt -46.322286 1.888286
vt -46.076504 2.374668
vt 36.646153 1.888286
vt 36.297354 1.851779
vt 36.964064 2.374668
vt 36.646153 -46.322286
vt 36.592133 -46.599906
vt 36.297354 -46.124054
vt 36.592133 -46.599906
vt 36.216325 -46.540484
vt 36.297354 -46.124054
vt 36.592133 -46.599906
vt 36.535669 -46.846522
vt 36.216325 -46.540484
vt 36.535669 -46.846522
vt 36.131628 -46.910408
vt 36.216325 -46.540484
vt 36.535669 -46.846522
vt 36.712523 -47.077494
vt 36.131628 -46.910408
vt 36.712523 -47.077494
vt 36.396910 -47.256865
vt 36.131628 -46.910408
vt 36.712523 1.975081
vt 37.052184 2.511626
vt 36.396910 2.010031
vt 37.052184 -47.211941
vt 36.906400 -47.458536
vt 36.396910 -47.256865
vt 37.052184 -47.211941
vt 37.443240 -47.244388
vt 36.906400 -47.458536
vt 37.443240 -47.244388
vt 37.492986 -47.507207
vt 36.906400 -47.458536
vt 37.443240 -47.244388
vt 37.804560 -47.147021
vt 37.492986 -47.507207
vt -47.147021 2.883837
vt -47.361156 3.327402
vt -47.507207 2.684263
vt -47.147021 2.883837
vt -46.984556 3.314905
vt -47.361156 3.327402
vt 38.133219 -46.984556
vt 38.527953 -47.117460
vt 38.034965 -47.361156
vt 38.133219 -46.984556
vt 38.258301 -46.718750
vt 38.527953 -47.117460
vt -46.718750 3.202554
vt -46.718750 3.824688
vt -47.117460 3.620796
vt -46.718750 3.824688
vt -46.379056 3.510802
vt -46.718750 4.430937
vt -46.379056 3.510802
vt -46.265824 3.890630
vt -46.718750 4.430937
vt -46.379056 3.510802
vt -46.058451 3.124024
vt -46.265824 3.890630
vt -46.058451 3.124024
vt -45.838351 3.647624
vt -46.265824 3.890630
vt 38.054217 3.124024
vt 37.506157 2.961895
vt 38.291040 3.647624
vt 37.506157 -45.860706
vt 37.560292 -45.574691
vt 38.291040 -45.838351
vt 37.506157 -45.860706
vt 36.964064 -46.076504
vt 37.560292 -45.574691
vt 36.964064 -46.076504
vt 36.837503 -45.862422
vt 37.560292 -45.574691
vt 36.964064 -46.076504
vt 36.297354 -46.124054
vt 36.837503 -45.862422
vt 36.297354 1.851779
vt 35.948556 1.934924
vt 36.837503 2.456126
vt 36.297354 -46.124054
vt 36.216325 -46.540484
vt 35.948556 -45.925822
vt 36.216325 -46.540484
vt 35.840516 -46.481062
vt 35.948556 -45.925822
vt 36.216325 -46.540484
vt 36.131628 -46.910408
vt 35.840516 -46.481062
vt 36.131628 -46.910408
vt 35.727587 -46.974294
vt 35.840516 -46.481062
vt 36.131628 -46.910408
vt 36.396910 -47.256865
vt 35.727587 -46.974294
vt 36.396910 -47.256865
vt 36.081297 -47.436237
vt 35.727587 -46.974294
vt 36.396910 2.010031
vt 36.906400 2.469682
vt 36.081297 2.078711
vt 36.906400 -47.458536
vt 36.760617 -47.705132
vt 36.081297 -47.436237
vt 36.906400 -47.458536
vt 37.492986 -47.507207
vt 36.760617 -47.705132
vt 37.492986 2.684263
vt 37.542731 3.036878
vt 36.760617 2.470260
vt -47.507207 2.684263
vt -47.361156 3.327402
vt -47.770026 3.036878
vt -47.361156 3.327402
vt -47.575292 3.741923
vt -47.770026 3.036878
vt -47.361156 3.327402
vt -47.117460 3.620796
vt -47.575292 3.741923
vt 38.527953 -47.117460
vt 38.922688 -47.250363
vt 38.265370 -47.575292
vt -47.117460 3.620796
vt -46.718750 3.824688
vt -47.250363 4.055786
vt -46.718750 3.824688
vt -46.718750 4.430937
vt -47.250363 4.055786
vt -46.718750 4.430937
vt -46.265824 3.890630
vt -46.718750 5.460796
vt -46.265824 3.890630
vt -46.152593 5.002586
vt -46.718750 5.460796
vt -46.265824 3.890630
vt -45.838351 3.647624
vt -46.152593 5.002586
vt -45.838351 3.647624
vt -45.618251 4.625748
vt -46.152593 5.002586
vt 38.291040 3.647624
vt 37.560292 3.189860
vt 38.527862 4.625748
vt 37.560292 3.189860
vt 37.614428 3.933752
vt 38.527862 4.625748
vt 37.560292 3.189860
vt 36.837503 2.456126
vt 37.614428 3.933752
vt 36.837503 2.456126
vt 36.710941 3.249292
vt 37.614428 3.933752
vt 36.837503 2.456126
vt 35.948556 1.934924
vt 36.710941 3.249292
vt 35.948556 1.934924
vt 35.599757 2.407487
vt 36.710941 3.249292
vt -45.925822 1.934924
vt -46.481062 1.836370
vt -45.727590 2.407487
vt -46.481062 1.836370
vt -46.421640 2.305176
vt -45.727590 2.407487
vt -46.481062 1.836370
vt -46.974294 1.620837
vt -46.421640 2.305176
vt -46.974294 1.620837
vt -47.038180 2.198236
vt -46.421640 2.305176
vt 35.727587 1.620837
vt 36.081297 2.078711
vt 35.323546 2.198236
vt 36.081297 2.078711
vt 35.765683 2.533188
vt 35.323546 2.198236
vt 36.081297 2.078711
vt 36.760617 2.470260
vt 35.765683 2.533188
vt 36.760617 2.470260
vt 36.614834 3.176484
vt 35.765683 2.533188
vt 36.760617 2.470260
vt 37.542731 3.036878
vt 36.614834 3.176484
vt 37.542731 3.036878
vt 37.592476 3.917122
vt 36.614834 3.176484
vt 37.542731 3.036878
vt 38.265370 3.741923
vt 37.592476 3.917122
vt 38.265370 3.741923
vt 38.495775 4.601440
vt 37.592476 3.917122
vt 38.265370 3.741923
vt 38.922688 4.055786
vt 38.495775 4.601440
vt 38.922688 4.055786
vt 39.317422 5.223899
vt 38.495775 4.601440
vt -47.250363 4.055786
vt -46.718750 4.430937
vt -47.383266 5.223899
vt -46.718750 4.430937
vt -46.718750 5.460796
vt -47.383266 5.223899
vn 0.173260 -0.392883 -0.903119
vn 0.769068 -0.536898 0.346808
vn 0.750485 -0.605104 0.265747
vn -0.643620 -0.764568 0.034476
vn 0.710793 -0.379761 -0.592078
vn 0.532370 -0.757741 0.377374
vn 0.309493 -0.552706 0.773777
vn 0.003268 -0.431021 -0.902336
vn 0.782506 -0.448548 0.431845
vn 0.561314 -0.779374 0.278393
vn -0.303635 -0.830345 0.467262
vn 0.662389 -0.373309 -0.649524
vn 0.178198 -0.404081 0.897198
vn 0.335417 -0.293713 -0.895113
vn 0.470446 -0.647565 -0.599450
vn 0.716696 -0.552226 0.425903
vn 0.704384 -0.542293 0.457997
vn 0.688558 -0.598072 0.410120
vn 0.418984 -0.701525 -0.576467
vn -0.651338 -0.488897 -0.580292
vn 0.519513 -0.851210 0.074479
vn 0.846172 -0.437674 -0.304029
vn 0.670209 -0.531540 -0.517962
vn 0.381011 -0.843381 0.378865
vn 0.028527 -0.763557 0.645110
vn -0.018034 -0.620012 0.784385
vn 0.620105 -0.722733 -0.305167
vn 0.193683 -0.365133 -0.910585
vn 0.273256 -0.944709 -0.181263
vn 0.568137 -0.401092 0.718572
vn 0.666529 -0.548465 0.504900
vn 0.511445 -0.731889 0.450292
vn 0.143495 -0.970253 -0.194982
vn -0.471867 -0.879430 -0.062800
vn 0.669409 -0.638517 0.379720
vn 0.878806 -0.386176 -0.280300
vn 0.701929 -0.647225 -0.297315
vn 0.092634 -0.425565 0.900174
vn 0.635826 -0.556770 0.534540
vn 0.584351 -0.429504 -0.688520
vn 0.637853 -0.769586 0.029683
vn 0.632891 -0.551485 0.543428
vn 0.801274 -0.597785 -0.024748
vn 0.419514 -0.696566 -0.582069
vn 0.417043 -0.694106 -0.586764
vn 0.152407 -0.727542 -0.668921
vn 0.716557 -0.692427 -0.084207
vn 0.783326 -0.597911 -0.170008
vn 0.436811 -0.616526 -0.655051
vn -0.255818 -0.765025 0.591011
vn 0.256566 -0.900789 0.350361
vn 0.355384 -0.829114 -0.431593
vn 0.444500 -0.731235 -0.517412
vn 0.505528 -0.782305 -0.363922
vn 0.237931 -0.785242 0.571650
vn 0.401823 -0.453692 0.795426
vn 0.601879 -0.766084 0.225515
vn 0.136706 -0.986782 -0.087026
vn 0.295300 -0.887486 0.353788
vn 0.680178 -0.706031 0.197177
vn 0.755078 -0.558222 0.343867
vn 0.813762 -0.533744 0.230019
vn 0.565804 -0.805894 0.174359
vn 0.411615 -0.753746 0.512289
vn 0.803424 -0.590526 0.076088
vn 0.765429 -0.577340 -0.284248
vn 0.747694 -0.664010 -0.006663
vn 0.757712 -0.648090 0.076493
vn 0.753909 -0.513339 -0.410005
vn 0.421288 -0.506724 -0.752162
vn 0.585498 -0.684326 -0.434615
vn 0.572168 -0.690700 -0.442218
vn 0.480288 -0.686975 -0.545333
vn 0.491613 -0.676677 -0.548110
vn 0.289966 -0.586548 -0.756228
vn -0.349522 -0.907099 0.234532
vn 0.390094 -0.916674 -0.086803
vn 0.391229 -0.744563 -0.540895
vn 0.067739 -0.919825 -0.386437
vn 0.202901 -0.779356 0.592820
vn 0.184271 -0.764973 0.617139
vn 0.277367 -0.626881 0.728071
vn 0.409824 -0.878829 0.244344
vn 0.322915 -0.926524 0.193077
vn 0.366707 -0.588680 0.720404
vn 0.710409 -0.482267 0.512579
vn 0.691324 -0.595587 0.409081
vn 0.611892 -0.603944 0.510725
vn 0.561569 -0.661475 0.497083
vn 0.739901 -0.672703 0.004172
vn 0.797394 -0.601450 -0.049201
vn 0.819979 -0.364085 -0.441675
vn 0.761781 -0.289419 -0.579591
vn 0.777149 -0.291824 -0.557565
vn 0.794978 -0.309839 -0.521546
vn 0.485303 -0.302129 -0.820487
vn 0.534801 -0.336866 -0.774925
vn -0.007841 -0.358364 -0.933549
vn -0.163335 -0.281293 -0.945619
vn 0.076759 -0.248380 -0.965617
vn 0.149591 -0.286550 -0.946315
vn -0.723922 -0.641156 -0.254667
vn -0.743175 -0.625772 -0.236854
vn -0.682105 -0.599812 -0.418280
vn -0.801660 -0.530480 -0.275559
vn -0.473363 -0.417085 0.775866
vn -0.448674 -0.579950 0.679964
vn -0.107828 -0.428871 0.896908
vn -0.105802 -0.347202 0.931803
vn 0.139520 -0.300638 0.943478
vn 0.141596 -0.290551 0.946325
vn 0.490761 -0.274622 0.826884
vn 0.470533 -0.330011 0.818346
vn 0.541616 -0.337046 0.770099
vn 0.589613 -0.285219 0.755650
vn 0.921561 -0.333946 0.198002
vn 0.878861 -0.390229 0.274454
f 1/1/1 3/2/1 2/3/1
f 1/4/2 4/5/2 3/6/2
f 1/7/3 5/8/3 4/9/3
f 1/10/4 6/11/4 5/12/4
f 1/13/5 7/14/5 6/15/5
f 1/16/6 8/17/6 7/18/6
f 1/19/7 9/20/7 8/21/7
f 1/22/8 10/23/8 9/24/8
f 1/25/9 11/26/9 10/27/9
f 1/28/10 12/29/10 11/30/10
f 1/31/11 13/32/11 12/33/11
f 1/34/12 14/35/12 13/36/12
f 1/37/13 2/38/13 14/39/13
f 2/40/14 3/41/14 15/42/14
f 3/43/15 16/44/15 15/45/15
f 3/46/16 4/47/16 16/48/16
f 4/49/17 17/50/17 16/51/17
f 4/52/18 5/53/18 17/54/18
f 5/55/19 18/56/19 17/57/19
f 5/58/20 6/59/20 18/60/20
f 6/61/21 19/62/21 18/63/21
f 6/64/22 7/65/22 19/66/22
f 7/67/23 20/68/23 19/69/23
f 7/70/24 8/71/24 20/72/24
f 8/73/25 21/74/25 20/75/25
f 8/76/26 9/77/26 21/78/26
f 9/79/27 22/80/27 21/81/27
f 9/82/28 10/83/28 22/84/28
f 10/85/29 23/86/29 22/87/29
f 10/88/30 11/89/30 23/90/30
f 11/91/31 24/92/31 23/93/31
f 11/94/32 12/95/32 24/96/32
f 12/97/33 25/98/33 24/99/33
f 12/100/34 13/101/34 25/102/34
f 13/103/35 26/104/35 25/105/35
f 13/106/36 14/107/36 26/108/36
f 14/109/37 27/110/37 26/111/37
f 14/112/38 2/113/38 27/114/38
f 2/115/39 15/116/39 27/117/39
f 15/118/40 16/119/40 28/120/40
f 16/121/41 29/122/41 28/123/41
f 16/124/42 17/125/42 29/126/42
f 17/127/43 30/128/43 29/129/43
f 17/130/44 18/131/44 30/132/44
f 18/133/45 31/134/45 30/135/45
f 18/136/46 19/137/46 31/138/46
f 19/139/47 32/140/47 31/141/47
f 19/142/48 20/143/48 32/144/48
f 20/145/49 33/146/49 32/147/49
f 20/148/50 21/149/50 33/150/50
f 21/151/51 34/152/51 33/153/51
f 21/154/52 22/155/52 34/156/52
f 22/157/53 35/158/53 34/159/53
f 22/160/54 23/161/54 35/162/54
f 23/163/55 36/164/55 35/165/55
f 23/166/56 24/167/56 36/168/56
f 24/169/57 37/170/57 36/171/57
f 24/172/58 25/173/58 37/174/58
f 25/175/59 38/176/59 37/177/59
f 25/178/60 26/179/60 38/180/60
f 26/181/61 39/182/61 38/183/61
f 26/184/62 27/185/62 39/186/62
f 27/187/63 40/188/63 39/189/63
f 27/190/64 15/191/64 40/192/64
f 15/193/65 28/194/65 40/195/65
f 28/196/66 29/197/66 41/198/66
f 29/199/67 42/200/67 41/201/67
f 29/202/68 30/203/68 42/204/68
f 30/205/69 43/206/69 42/207/69
f 30/208/70 31/209/70 43/210/70
f 31/211/71 44/212/71 43/213/71
f 31/214/72 32/215/72 44/216/72
f 32/217/73 45/218/73 44/219/73
f 32/220/74 33/221/74 45/222/74
f 33/223/75 46/224/75 45/225/75
f 33/226/76 34/227/76 46/228/76
f 34/229/77 47/230/77 46/231/77
f 34/232/78 35/233/78 47/234/78
f 35/235/79 48/236/79 47/237/79
f 35/238/80 36/239/80 48/240/80
f 36/241/81 49/242/81 48/243/81
f 36/244/82 37/245/82 49/246/82
f 37/247/83 50/248/83 49/249/83
f 37/250/84 38/251/84 50/252/84
f 38/253/85 51/254/85 50/255/85
f 38/256/86 39/257/86 51/258/86
f 39/259/87 52/260/87 51/261/87
f 39/262/88 40/263/88 52/264/88
f 40/265/89 53/266/89 52/267/89
f 40/268/90 28/269/90 53/270/90
f 28/271/91 41/272/91 53/273/91
f 41/274/92 42/275/92 54/276/92
f 42/277/93 55/278/93 54/279/93
f 42/280/94 43/281/94 55/282/94
f 43/283/95 56/284/95 55/285/95
f 43/286/96 44/287/96 56/288/96
f 44/289/97 57/290/97 56/291/97
f 44/292/98 45/293/98 57/294/98
f 45/295/99 58/296/99 57/297/99
f 45/298/100 46/299/100 58/300/100
f 46/301/101 59/302/101 58/303/101
f 46/304/102 47/305/102 59/306/102
f 47/307/103 60/308/103 59/309/103
f 47/310/104 48/311/104 60/312/104
f 48/313/105 61/314/105 60/315/105
f 48/316/106 49/317/106 61/318/106
f 49/319/107 62/320/107 61/321/107
f 49/322/108 50/323/108 62/324/108
f 50/325/109 63/326/109 62/327/109
f 50/328/110 51/329/110 63/330/110
f 51/331/111 64/332/111 63/333/111
f 51/334/112 52/335/112 64/336/112
f 52/337/113 65/338/113 64/339/113
f 52/340/114 53/341/114 65/342/114
f 53/343/115 66/344/115 65/345/115
f 53/346/116 41/347/116 66/348/116
f 41/349/117 54/350/117 66/351/117
