# Cosmetic cavern mesh; no collision.
s off
v 278.942867 140.000000 -0.000000
v 252.552477 140.000000 -211.916690
v 54.366152 140.000000 -308.325769
v -146.179699 140.000000 -253.190666
v -325.538514 140.000000 -118.486329
v -253.138773 140.000000 92.134979
v -177.311920 140.000000 307.113254
v 48.195234 140.000000 273.328754
v 254.077978 140.000000 213.196738
v 218.584531 -285.000000 14.000000
v 199.891338 -285.000000 -136.107656
v 59.509358 -285.000000 -204.397419
v -82.543954 -285.000000 -165.343389
v -209.589780 -285.000000 -69.927816
v -158.306631 -285.000000 79.262277
v -104.595943 -285.000000 231.538555
v 55.138291 -285.000000 207.607868
v 200.971901 -285.000000 165.014356
v 169.848814 -710.000000 28.000000
v 157.753219 -710.000000 -69.128483
v 66.917820 -710.000000 -113.315977
v -24.999029 -710.000000 -88.045722
v -107.205152 -710.000000 -26.306234
v -74.021938 -710.000000 70.228532
v -39.267963 -710.000000 168.760242
v 64.089482 -710.000000 153.275679
v 158.452407 -710.000000 125.715172
v 114.139526 -1135.000000 42.000000
v 109.301287 -1135.000000 3.148607
v 72.967128 -1135.000000 -14.526391
v 36.200388 -1135.000000 -4.418289
v 3.317939 -1135.000000 20.277506
v 16.591225 -1135.000000 58.891413
v 30.492815 -1135.000000 98.304097
v 71.835793 -1135.000000 92.110272
v 109.580963 -1135.000000 81.086069
v 87.486786 -1560.000000 56.000000
v 87.156906 -1560.000000 53.351041
v 84.679577 -1560.000000 52.145928
v 82.172754 -1560.000000 52.835117
v 79.930769 -1560.000000 54.518921
v 80.835765 -1560.000000 57.151687
v 81.783601 -1560.000000 59.838916
v 84.602440 -1560.000000 59.416609
v 87.175975 -1560.000000 58.664959
vt -346.875000 70.000000
vt -347.312500 56.718750
vt -340.252603 70.000000
vt -340.252603 70.000000
vt -347.312500 56.718750
vt -342.621636 56.718750
vt -192.107735 70.000000
vt -193.753396 56.718750
vt -198.301058 70.000000
vt -198.301058 70.000000
vt -193.753396 56.718750
vt -198.140333 56.718750
vt -198.301058 70.000000
vt -198.140333 56.718750
vt -204.568116 70.000000
vt -204.568116 70.000000
vt -198.140333 56.718750
vt -202.579499 56.718750
vt -204.568116 70.000000
vt -202.579499 56.718750
vt -210.173079 70.000000
vt -210.173079 70.000000
vt -202.579499 56.718750
vt -206.549681 56.718750
vt -343.172302 70.000000
vt -344.689756 56.718750
vt -349.754218 70.000000
vt -349.754218 70.000000
vt -344.689756 56.718750
vt -349.351946 56.718750
vt -349.754218 70.000000
vt -349.351946 56.718750
vt -356.472289 70.000000
vt -356.472289 70.000000
vt -349.351946 56.718750
vt -354.110580 56.718750
vt -205.540998 70.000000
vt -203.268623 56.718750
vt -198.493899 70.000000
vt -198.493899 70.000000
vt -203.268623 56.718750
vt -198.276928 56.718750
vt -198.493899 70.000000
vt -198.276928 56.718750
vt -192.060063 70.000000
vt -192.060063 70.000000
vt -198.276928 56.718750
vt -193.719628 56.718750
vt -353.537398 70.000000
vt -352.031699 56.718750
vt -346.875000 70.000000
vt -346.875000 70.000000
vt -352.031699 56.718750
vt -347.312500 56.718750
vt -347.312500 56.718750
vt -347.750000 43.437500
vt -342.621636 56.718750
vt -342.621636 56.718750
vt -347.750000 43.437500
vt -344.714735 43.437500
vt -193.753396 56.718750
vt -195.070212 43.437500
vt -198.140333 56.718750
vt -198.140333 56.718750
vt -195.070212 43.437500
vt -197.908818 43.437500
vt -198.140333 56.718750
vt -197.908818 43.437500
vt -202.579499 56.718750
vt -202.579499 56.718750
vt -197.908818 43.437500
vt -200.781220 43.437500
vt -202.579499 56.718750
vt -200.781220 43.437500
vt -206.549681 56.718750
vt -206.549681 56.718750
vt -200.781220 43.437500
vt -203.350161 43.437500
vt -344.689756 56.718750
vt -346.052930 43.437500
vt -349.351946 56.718750
vt -349.351946 56.718750
vt -346.052930 43.437500
vt -349.069642 43.437500
vt -349.351946 56.718750
vt -349.069642 43.437500
vt -354.110580 56.718750
vt -354.110580 56.718750
vt -349.069642 43.437500
vt -352.148758 43.437500
vt -203.268623 56.718750
vt -201.227124 43.437500
vt -198.276928 56.718750
vt -198.276928 56.718750
vt -201.227124 43.437500
vt -197.997204 43.437500
vt -198.276928 56.718750
vt -197.997204 43.437500
vt -193.719628 56.718750
vt -193.719628 56.718750
vt -197.997204 43.437500
vt -195.048362 43.437500
vt -352.031699 56.718750
vt -350.803599 43.437500
vt -347.312500 56.718750
vt -347.312500 56.718750
vt -350.803599 43.437500
vt -347.750000 43.437500
vt -347.750000 43.437500
vt -348.187500 30.156250
vt -344.714735 43.437500
vt -344.714735 43.437500
vt -348.187500 30.156250
vt -346.973394 30.156250
vt -195.070212 43.437500
vt -196.584335 30.156250
vt -197.908818 43.437500
vt -197.908818 43.437500
vt -196.584335 30.156250
vt -197.719777 30.156250
vt -197.908818 43.437500
vt -197.719777 30.156250
vt -200.781220 43.437500
vt -200.781220 43.437500
vt -197.719777 30.156250
vt -198.868738 30.156250
vt -200.781220 43.437500
vt -198.868738 30.156250
vt -203.350161 43.437500
vt -203.350161 43.437500
vt -198.868738 30.156250
vt -199.896314 30.156250
vt -346.052930 43.437500
vt -347.508672 30.156250
vt -349.069642 43.437500
vt -349.069642 43.437500
vt -347.508672 30.156250
vt -348.715357 30.156250
vt -349.069642 43.437500
vt -348.715357 30.156250
vt -352.148758 43.437500
vt -352.148758 43.437500
vt -348.715357 30.156250
vt -349.947003 30.156250
vt -201.227124 43.437500
vt -199.047100 30.156250
vt -197.997204 43.437500
vt -197.997204 43.437500
vt -199.047100 30.156250
vt -197.755131 30.156250
vt -197.997204 43.437500
vt -197.755131 30.156250
vt -195.048362 43.437500
vt -195.048362 43.437500
vt -197.755131 30.156250
vt -196.575595 30.156250
vt -350.803599 43.437500
vt -349.408940 30.156250
vt -347.750000 43.437500
vt -347.750000 43.437500
vt -349.408940 30.156250
vt -348.187500 30.156250
vt -348.187500 30.156250
vt -348.625000 16.875000
vt -346.973394 30.156250
vt -346.973394 30.156250
vt -348.625000 16.875000
vt -348.542220 16.875000
vt -196.584335 30.156250
vt -197.276347 16.875000
vt -197.719777 30.156250
vt -197.719777 30.156250
vt -197.276347 16.875000
vt -197.353763 16.875000
vt -197.719777 30.156250
vt -197.353763 16.875000
vt -198.868738 30.156250
vt -198.868738 30.156250
vt -197.353763 16.875000
vt -197.432101 16.875000
vt -198.868738 30.156250
vt -197.432101 16.875000
vt -199.896314 30.156250
vt -199.896314 30.156250
vt -197.432101 16.875000
vt -197.502163 16.875000
vt -347.508672 30.156250
vt -348.578716 16.875000
vt -348.715357 30.156250
vt -348.715357 30.156250
vt -348.578716 16.875000
vt -348.660990 16.875000
vt -348.715357 30.156250
vt -348.660990 16.875000
vt -349.947003 30.156250
vt -349.947003 30.156250
vt -348.660990 16.875000
vt -348.744966 16.875000
vt -199.047100 30.156250
vt -197.444262 16.875000
vt -197.755131 30.156250
vt -197.755131 30.156250
vt -197.444262 16.875000
vt -197.356174 16.875000
vt -197.755131 30.156250
vt -197.356174 16.875000
vt -196.575595 30.156250
vt -196.575595 30.156250
vt -197.356174 16.875000
vt -197.275751 16.875000
vt -349.408940 30.156250
vt -348.708280 16.875000
vt -348.187500 30.156250
vt -348.187500 30.156250
vt -348.708280 16.875000
vt -348.625000 16.875000
vn 0.982064 -0.143501 -0.122298
vn 0.982064 -0.143501 -0.122298
vn 0.427706 -0.209828 -0.879227
vn 0.427706 -0.209828 -0.879227
vn -0.257828 -0.232450 -0.937812
vn -0.257828 -0.232450 -0.937812
vn -0.581880 -0.247271 -0.774773
vn -0.581880 -0.247271 -0.774773
vn -0.923434 -0.215664 0.317425
vn -0.923434 -0.215664 0.317425
vn -0.920933 -0.215331 0.324830
vn -0.920933 -0.215331 0.324830
vn 0.146512 -0.148834 0.977948
vn 0.146512 -0.148834 0.977948
vn 0.277499 -0.142390 0.950115
vn 0.277499 -0.142390 0.950115
vn 0.984043 -0.135973 0.114768
vn 0.984043 -0.135973 0.114768
vn 0.985513 -0.117054 -0.122728
vn 0.985513 -0.117054 -0.122728
vn 0.430138 -0.182000 -0.884227
vn 0.430138 -0.182000 -0.884227
vn -0.259365 -0.206701 -0.943401
vn -0.259365 -0.206701 -0.943401
vn -0.585662 -0.221128 -0.779809
vn -0.585662 -0.221128 -0.779809
vn -0.928300 -0.190880 0.319097
vn -0.928300 -0.190880 0.319097
vn -0.925779 -0.190539 0.326540
vn -0.925779 -0.190539 0.326540
vn 0.147048 -0.122382 0.981529
vn 0.147048 -0.122382 0.981529
vn 0.278463 -0.116020 0.953414
vn 0.278463 -0.116020 0.953414
vn 0.987303 -0.109423 0.115148
vn 0.987303 -0.109423 0.115148
vn 0.983525 -0.132956 -0.122480
vn 0.983525 -0.132956 -0.122480
vn 0.428717 -0.198754 -0.881305
vn 0.428717 -0.198754 -0.881305
vn -0.258462 -0.222206 -0.940118
vn -0.258462 -0.222206 -0.940118
vn -0.583437 -0.236875 -0.776847
vn -0.583437 -0.236875 -0.776847
vn -0.925446 -0.205798 0.318116
vn -0.925446 -0.205798 0.318116
vn -0.922936 -0.205461 0.325537
vn -0.922936 -0.205461 0.325537
vn 0.146739 -0.138288 0.979461
vn 0.146739 -0.138288 0.979461
vn 0.277908 -0.131875 0.951513
vn 0.277908 -0.131875 0.951513
vn 0.985429 -0.125385 0.114929
vn 0.985429 -0.125385 0.114929
vn 0.990161 -0.066157 -0.123307
vn 0.990161 -0.066157 -0.123307
vn 0.433848 -0.127954 -0.891854
vn 0.433848 -0.127954 -0.891854
vn -0.261818 -0.156612 -0.952325
vn -0.261818 -0.156612 -0.952325
vn -0.591771 -0.170159 -0.787943
vn -0.591771 -0.170159 -0.787943
vn -0.935996 -0.142806 0.321743
vn -0.935996 -0.142806 0.321743
vn -0.933439 -0.142450 0.329241
vn -0.933439 -0.142450 0.329241
vn 0.147784 -0.071444 0.986436
vn 0.147784 -0.071444 0.986436
vn 0.279758 -0.065280 0.957849
vn 0.279758 -0.065280 0.957849
vn 0.991574 -0.058374 0.115646
vn 0.991574 -0.058374 0.115646
f 1/1/1 10/2/1 2/3/1
f 2/4/2 10/5/2 11/6/2
f 2/7/3 11/8/3 3/9/3
f 3/10/4 11/11/4 12/12/4
f 3/13/5 12/14/5 4/15/5
f 4/16/6 12/17/6 13/18/6
f 4/19/7 13/20/7 5/21/7
f 5/22/8 13/23/8 14/24/8
f 5/25/9 14/26/9 6/27/9
f 6/28/10 14/29/10 15/30/10
f 6/31/11 15/32/11 7/33/11
f 7/34/12 15/35/12 16/36/12
f 7/37/13 16/38/13 8/39/13
f 8/40/14 16/41/14 17/42/14
f 8/43/15 17/44/15 9/45/15
f 9/46/16 17/47/16 18/48/16
f 9/49/17 18/50/17 1/51/17
f 1/52/18 18/53/18 10/54/18
f 10/55/19 19/56/19 11/57/19
f 11/58/20 19/59/20 20/60/20
f 11/61/21 20/62/21 12/63/21
f 12/64/22 20/65/22 21/66/22
f 12/67/23 21/68/23 13/69/23
f 13/70/24 21/71/24 22/72/24
f 13/73/25 22/74/25 14/75/25
f 14/76/26 22/77/26 23/78/26
f 14/79/27 23/80/27 15/81/27
f 15/82/28 23/83/28 24/84/28
f 15/85/29 24/86/29 16/87/29
f 16/88/30 24/89/30 25/90/30
f 16/91/31 25/92/31 17/93/31
f 17/94/32 25/95/32 26/96/32
f 17/97/33 26/98/33 18/99/33
f 18/100/34 26/101/34 27/102/34
f 18/103/35 27/104/35 10/105/35
f 10/106/36 27/107/36 19/108/36
f 19/109/37 28/110/37 20/111/37
f 20/112/38 28/113/38 29/114/38
f 20/115/39 29/116/39 21/117/39
f 21/118/40 29/119/40 30/120/40
f 21/121/41 30/122/41 22/123/41
f 22/124/42 30/125/42 31/126/42
f 22/127/43 31/128/43 23/129/43
f 23/130/44 31/131/44 32/132/44
f 23/133/45 32/134/45 24/135/45
f 24/136/46 32/137/46 33/138/46
f 24/139/47 33/140/47 25/141/47
f 25/142/48 33/143/48 34/144/48
f 25/145/49 34/146/49 26/147/49
f 26/148/50 34/149/50 35/150/50
f 26/151/51 35/152/51 27/153/51
f 27/154/52 35/155/52 36/156/52
f 27/157/53 36/158/53 19/159/53
f 19/160/54 36/161/54 28/162/54
f 28/163/55 37/164/55 29/165/55
f 29/166/56 37/167/56 38/168/56
f 29/169/57 38/170/57 30/171/57
f 30/172/58 38/173/58 39/174/58
f 30/175/59 39/176/59 31/177/59
f 31/178/60 39/179/60 40/180/60
f 31/181/61 40/182/61 32/183/61
f 32/184/62 40/185/62 41/186/62
f 32/187/63 41/188/63 33/189/63
f 33/190/64 41/191/64 42/192/64
f 33/193/65 42/194/65 34/195/65
f 34/196/66 42/197/66 43/198/66
f 34/199/67 43/200/67 35/201/67
f 35/202/68 43/203/68 44/204/68
f 35/205/69 44/206/69 36/207/69
f 36/208/70 44/209/70 45/210/70
f 36/211/71 45/212/71 28/213/71
f 28/214/72 45/215/72 37/216/72
