# Cosmetic cavern mesh; no collision.
s off
v 402.410138 140.000000 -0.000000
v 255.319747 140.000000 -214.238705
v 63.533367 140.000000 -360.315631
v -188.041279 140.000000 -325.697049
v -305.443643 140.000000 -111.172394
v -382.566448 140.000000 139.242800
v -154.878118 140.000000 268.256770
v 70.106851 140.000000 397.595708
v 253.694728 140.000000 212.875153
v 306.040514 -235.000000 14.000000
v 201.851487 -235.000000 -137.752416
v 66.002802 -235.000000 -241.223572
v -112.195906 -235.000000 -216.702076
v -195.355914 -235.000000 -64.747113
v -249.984568 -235.000000 112.630317
v -88.705334 -235.000000 204.015212
v 70.659019 -235.000000 295.630293
v 200.700432 -235.000000 164.786566
v 226.437980 -610.000000 28.000000
v 159.021551 -610.000000 -70.192740
v 71.119460 -610.000000 -137.144664
v -44.185586 -610.000000 -121.277814
v -97.995003 -610.000000 -22.954014
v -133.342955 -610.000000 91.819617
v -28.985804 -610.000000 150.951020
v 74.132307 -610.000000 210.231366
v 158.276750 -610.000000 125.567778
v 136.775192 -985.000000 42.000000
v 109.808620 -985.000000 2.722904
v 74.647784 -985.000000 -24.057866
v 28.525766 -985.000000 -17.711126
v 7.001999 -985.000000 21.618394
v -7.137182 -985.000000 67.527847
v 34.605678 -985.000000 91.180408
v 75.852923 -985.000000 114.892546
v 109.510700 -985.000000 81.027111
v 89.030127 -1360.000000 56.000000
v 87.191497 -1360.000000 53.322016
v 84.794167 -1360.000000 51.496055
v 81.649484 -1360.000000 51.928787
v 80.181954 -1360.000000 54.610345
v 79.217919 -1360.000000 57.740535
v 82.064024 -1360.000000 59.353210
v 84.876336 -1360.000000 60.969946
v 87.171184 -1360.000000 58.660939
vt -188.281250 17.500000
vt -188.390625 14.570312
vt -186.607510 17.500000
vt -186.607510 17.500000
vt -188.390625 14.570312
vt -187.205059 14.570312
vt -64.411564 17.500000
vt -64.829285 14.570312
vt -65.909896 17.500000
vt -65.909896 17.500000
vt -64.829285 14.570312
vt -65.890603 14.570312
vt -65.909896 17.500000
vt -65.890603 14.570312
vt -67.875322 17.500000
vt -67.875322 17.500000
vt -65.890603 14.570312
vt -67.282781 14.570312
vt -185.736742 17.500000
vt -186.588265 14.570312
vt -187.412716 17.500000
vt -187.412716 17.500000
vt -186.588265 14.570312
vt -187.775413 14.570312
vt -187.412716 17.500000
vt -187.775413 14.570312
vt -189.369084 17.500000
vt -189.369084 17.500000
vt -187.775413 14.570312
vt -189.161174 14.570312
vt -69.395050 17.500000
vt -68.359254 14.570312
vt -67.616235 17.500000
vt -67.616235 17.500000
vt -68.359254 14.570312
vt -67.099260 14.570312
vt -67.616235 17.500000
vt -67.099260 14.570312
vt -65.858540 17.500000
vt -65.858540 17.500000
vt -67.099260 14.570312
vt -65.854226 14.570312
vt -191.387466 17.500000
vt -190.590862 14.570312
vt -189.944337 17.500000
vt -189.944337 17.500000
vt -190.590862 14.570312
vt -189.568645 14.570312
vt -189.944337 17.500000
vt -189.568645 14.570312
vt -188.281250 17.500000
vt -188.281250 17.500000
vt -189.568645 14.570312
vt -188.390625 14.570312
vt -188.390625 14.570312
vt -188.500000 11.640625
vt -187.205059 14.570312
vt -187.205059 14.570312
vt -188.500000 11.640625
vt -187.732869 11.640625
vt -64.829285 14.570312
vt -65.163894 11.640625
vt -65.890603 14.570312
vt -65.890603 14.570312
vt -65.163894 11.640625
vt -65.850629 11.640625
vt -65.890603 14.570312
vt -65.850629 11.640625
vt -67.282781 14.570312
vt -67.282781 14.570312
vt -65.850629 11.640625
vt -66.751450 11.640625
vt -186.588265 14.570312
vt -187.333767 11.640625
vt -187.775413 14.570312
vt -187.775413 14.570312
vt -187.333767 11.640625
vt -188.101922 11.640625
vt -187.775413 14.570312
vt -188.101922 11.640625
vt -189.161174 14.570312
vt -189.161174 14.570312
vt -188.101922 11.640625
vt -188.998591 11.640625
vt -68.359254 14.570312
vt -67.447992 11.640625
vt -67.099260 14.570312
vt -67.099260 14.570312
vt -67.447992 11.640625
vt -66.632702 11.640625
vt -67.099260 14.570312
vt -66.632702 11.640625
vt -65.854226 14.570312
vt -65.854226 14.570312
vt -66.632702 11.640625
vt -65.827091 11.640625
vt -190.590862 14.570312
vt -189.923683 11.640625
vt -189.568645 14.570312
vt -189.568645 14.570312
vt -189.923683 11.640625
vt -189.262248 11.640625
vt -189.568645 14.570312
vt -189.262248 11.640625
vt -188.390625 14.570312
vt -188.390625 14.570312
vt -189.262248 11.640625
vt -188.500000 11.640625
vt -188.500000 11.640625
vt -188.609375 8.710938
vt -187.732869 11.640625
vt -187.732869 11.640625
vt -188.609375 8.710938
vt -188.302523 8.710938
vt -65.163894 11.640625
vt -65.548370 8.710938
vt -65.850629 11.640625
vt -65.850629 11.640625
vt -65.548370 8.710938
vt -65.823064 8.710938
vt -65.850629 11.640625
vt -65.823064 8.710938
vt -66.751450 11.640625
vt -66.751450 11.640625
vt -65.823064 8.710938
vt -66.183392 8.710938
vt -187.333767 11.640625
vt -188.142882 8.710938
vt -188.101922 11.640625
vt -188.101922 11.640625
vt -188.142882 8.710938
vt -188.450144 8.710938
vt -188.101922 11.640625
vt -188.450144 8.710938
vt -188.998591 11.640625
vt -188.998591 11.640625
vt -188.450144 8.710938
vt -188.808811 8.710938
vt -67.447992 11.640625
vt -66.462009 8.710938
vt -66.632702 11.640625
vt -66.632702 11.640625
vt -66.462009 8.710938
vt -66.135893 8.710938
vt -66.632702 11.640625
vt -66.135893 8.710938
vt -65.827091 11.640625
vt -65.827091 11.640625
vt -66.135893 8.710938
vt -65.813649 8.710938
vt -189.923683 11.640625
vt -189.178848 8.710938
vt -189.262248 11.640625
vt -189.262248 11.640625
vt -189.178848 8.710938
vt -188.914274 8.710938
vt -189.262248 11.640625
vt -188.914274 8.710938
vt -188.500000 11.640625
vt -188.500000 11.640625
vt -188.914274 8.710938
vt -188.609375 8.710938
vt -188.609375 8.710938
vt -188.718750 5.781250
vt -188.302523 8.710938
vt -188.302523 8.710938
vt -188.718750 5.781250
vt -188.697828 5.781250
vt -65.548370 8.710938
vt -65.725066 5.781250
vt -65.823064 8.710938
vt -65.823064 8.710938
vt -65.725066 5.781250
vt -65.743796 5.781250
vt -65.823064 8.710938
vt -65.743796 5.781250
vt -66.183392 8.710938
vt -66.183392 8.710938
vt -65.743796 5.781250
vt -65.768363 5.781250
vt -188.142882 8.710938
vt -188.686944 5.781250
vt -188.450144 8.710938
vt -188.450144 8.710938
vt -188.686944 5.781250
vt -188.707893 5.781250
vt -188.450144 8.710938
vt -188.707893 5.781250
vt -188.808811 8.710938
vt -188.808811 8.710938
vt -188.707893 5.781250
vt -188.732348 5.781250
vt -66.462009 8.710938
vt -65.787360 5.781250
vt -66.135893 8.710938
vt -66.135893 8.710938
vt -65.787360 5.781250
vt -65.765125 5.781250
vt -66.135893 8.710938
vt -65.765125 5.781250
vt -65.813649 8.710938
vt -65.813649 8.710938
vt -65.765125 5.781250
vt -65.743154 5.781250
vt -189.178848 8.710938
vt -188.757578 5.781250
vt -188.914274 8.710938
vt -188.914274 8.710938
vt -188.757578 5.781250
vt -188.739539 5.781250
vt -188.914274 8.710938
vt -188.739539 5.781250
vt -188.609375 8.710938
vt -188.609375 8.710938
vt -188.739539 5.781250
vt -188.718750 5.781250
vn 0.802894 -0.226912 -0.551245
vn 0.802894 -0.226912 -0.551245
vn 0.588017 -0.241304 -0.772016
vn 0.588017 -0.241304 -0.772016
vn -0.130006 -0.300891 -0.944756
vn -0.130006 -0.300891 -0.944756
vn -0.836226 -0.302145 -0.457640
vn -0.836226 -0.302145 -0.457640
vn -0.911023 -0.302182 -0.280577
vn -0.911023 -0.302182 -0.280577
vn -0.479801 -0.229727 0.846769
vn -0.479801 -0.229727 0.846769
vn -0.485016 -0.230119 0.843685
vn -0.485016 -0.230119 0.843685
vn 0.696731 -0.187259 0.692459
vn 0.696731 -0.187259 0.692459
vn 0.805466 -0.185986 0.562702
vn 0.805466 -0.185986 0.562702
vn 0.808986 -0.192462 -0.555428
vn 0.808986 -0.192462 -0.555428
vn 0.592685 -0.207882 -0.778145
vn 0.592685 -0.207882 -0.778145
vn -0.131382 -0.266780 -0.954760
vn -0.131382 -0.266780 -0.954760
vn -0.844461 -0.270752 -0.462146
vn -0.844461 -0.270752 -0.462146
vn -0.920084 -0.270461 -0.283367
vn -0.920084 -0.270461 -0.283367
vn -0.483260 -0.197646 0.852875
vn -0.483260 -0.197646 0.852875
vn -0.488520 -0.198046 0.849780
vn -0.488520 -0.198046 0.849780
vn 0.701018 -0.152171 0.696719
vn 0.701018 -0.152171 0.696719
vn 0.810384 -0.150887 0.566137
vn 0.810384 -0.150887 0.566137
vn 0.805440 -0.213226 -0.552993
vn 0.805440 -0.213226 -0.552993
vn 0.589959 -0.228031 -0.774565
vn 0.589959 -0.228031 -0.774565
vn -0.130573 -0.287376 -0.948876
vn -0.130573 -0.287376 -0.948876
vn -0.839609 -0.289699 -0.459491
vn -0.839609 -0.289699 -0.459491
vn -0.914746 -0.289607 -0.281723
vn -0.914746 -0.289607 -0.281723
vn -0.481241 -0.216978 0.849310
vn -0.481241 -0.216978 0.849310
vn -0.486474 -0.217373 0.846222
vn -0.486474 -0.217373 0.846222
vn 0.698546 -0.173302 0.694262
vn 0.698546 -0.173302 0.694262
vn 0.807549 -0.172024 0.564157
vn 0.807549 -0.172024 0.564157
vn 0.817922 -0.125103 -0.561563
vn 0.817922 -0.125103 -0.561563
vn 0.599746 -0.142419 -0.787415
vn 0.599746 -0.142419 -0.787415
vn -0.133591 -0.199210 -0.970808
vn -0.133591 -0.199210 -0.970808
vn -0.857905 -0.208723 -0.469503
vn -0.857905 -0.208723 -0.469503
vn -0.934848 -0.207763 -0.287914
vn -0.934848 -0.207763 -0.287914
vn -0.488473 -0.134985 0.862075
vn -0.488473 -0.134985 0.862075
vn -0.493802 -0.135396 0.858969
vn -0.493802 -0.135396 0.858969
vn 0.706771 -0.083999 0.702437
vn 0.706771 -0.083999 0.702437
vn 0.816961 -0.082708 0.570732
vn 0.816961 -0.082708 0.570732
f 1/1/1 10/2/1 2/3/1
f 2/4/2 10/5/2 11/6/2
f 2/7/3 11/8/3 3/9/3
f 3/10/4 11/11/4 12/12/4
f 3/13/5 12/14/5 4/15/5
f 4/16/6 12/17/6 13/18/6
f 4/19/7 13/20/7 5/21/7
f 5/22/8 13/23/8 14/24/8
f 5/25/9 14/26/9 6/27/9
f 6/28/10 14/29/10 15/30/10
f 6/31/11 15/32/11 7/33/11
f 7/34/12 15/35/12 16/36/12
f 7/37/13 16/38/13 8/39/13
f 8/40/14 16/41/14 17/42/14
f 8/43/15 17/44/15 9/45/15
f 9/46/16 17/47/16 18/48/16
f 9/49/17 18/50/17 1/51/17
f 1/52/18 18/53/18 10/54/18
f 10/55/19 19/56/19 11/57/19
f 11/58/20 19/59/20 20/60/20
f 11/61/21 20/62/21 12/63/21
f 12/64/22 20/65/22 21/66/22
f 12/67/23 21/68/23 13/69/23
f 13/70/24 21/71/24 22/72/24
f 13/73/25 22/74/25 14/75/25
f 14/76/26 22/77/26 23/78/26
f 14/79/27 23/80/27 15/81/27
f 15/82/28 23/83/28 24/84/28
f 15/85/29 24/86/29 16/87/29
f 16/88/30 24/89/30 25/90/30
f 16/91/31 25/92/31 17/93/31
f 17/94/32 25/95/32 26/96/32
f 17/97/33 26/98/33 18/99/33
f 18/100/34 26/101/34 27/102/34
f 18/103/35 27/104/35 10/105/35
f 10/106/36 27/107/36 19/108/36
f 19/109/37 28/110/37 20/111/37
f 20/112/38 28/113/38 29/114/38
f 20/115/39 29/116/39 21/117/39
f 21/118/40 29/119/40 30/120/40
f 21/121/41 30/122/41 22/123/41
f 22/124/42 30/125/42 31/126/42
f 22/127/43 31/128/43 23/129/43
f 23/130/44 31/131/44 32/132/44
f 23/133/45 32/134/45 24/135/45
f 24/136/46 32/137/46 33/138/46
f 24/139/47 33/140/47 25/141/47
f 25/142/48 33/143/48 34/144/48
f 25/145/49 34/146/49 26/147/49
f 26/148/50 34/149/50 35/150/50
f 26/151/51 35/152/51 27/153/51
f 27/154/52 35/155/52 36/156/52
f 27/157/53 36/158/53 19/159/53
f 19/160/54 36/161/54 28/162/54
f 28/163/55 37/164/55 29/165/55
f 29/166/56 37/167/56 38/168/56
f 29/169/57 38/170/57 30/171/57
f 30/172/58 38/173/58 39/174/58
f 30/175/59 39/176/59 31/177/59
f 31/178/60 39/179/60 40/180/60
f 31/181/61 40/182/61 32/183/61
f 32/184/62 40/185/62 41/186/62
f 32/187/63 41/188/63 33/189/63
f 33/190/64 41/191/64 42/192/64
f 33/193/65 42/194/65 34/195/65
f 34/196/66 42/197/66 43/198/66
f 34/199/67 43/200/67 35/201/67
f 35/202/68 43/203/68 44/204/68
f 35/205/69 44/206/69 36/207/69
f 36/208/70 44/209/70 45/210/70
f 36/211/71 45/212/71 28/213/71
f 28/214/72 45/215/72 37/216/72
