# Cosmetic cavern mesh; no collision.
s off
v 79.723661 0.000000 -6.643638
v 83.409260 0.000000 -25.032512
v 62.947533 29.762084 -18.046309
v 88.170392 67.715387 -17.898468
v 76.421043 69.936814 -8.285324
v 68.615174 65.403822 -0.118734
v 92.990091 54.242256 6.071810
v 69.888982 15.686701 8.542411
v 77.274751 -18.809318 10.786744
v 90.471956 -47.570434 4.581667
v 64.667747 -70.145912 0.616187
v 84.102306 -70.423805 -8.938777
v 81.971844 -63.249824 -16.686129
v 63.451115 -33.995044 -19.908871
v 62.794215 0.000000 -41.396332
v 64.835471 59.524168 -31.004318
v 82.313236 135.430774 -27.961306
v 59.781340 139.873629 -8.815585
v 75.849240 130.807645 4.877624
v 81.417506 108.484512 20.857177
v 61.077337 31.373402 23.643207
v 84.567918 -37.618636 27.405288
v 73.481701 -95.140868 18.118519
v 63.099126 -140.291825 6.752071
v 84.513289 -140.847610 -10.903277
v 62.286157 -126.499647 -24.900798
v 66.640561 -67.990089 -34.795937
v 44.679449 0.000000 -57.968509
v 64.155280 89.286252 -43.748316
v 60.405784 203.146161 -36.686620
v 50.125440 209.810443 -9.927830
v 72.855141 196.211467 10.726329
v 59.518499 162.726768 36.503078
v 59.282170 47.060103 38.159297
v 75.865503 -56.427953 45.356796
v 53.817731 -142.711302 31.878180
v 64.116768 -210.437737 12.672433
v 67.179475 -211.271415 -11.389044
v 46.687892 -189.749471 -33.456084
v 65.155922 -101.985133 -49.293495
v 30.109235 0.000000 -74.836064
v 45.814990 119.048336 -55.020639
v 31.870148 270.861548 -44.859585
v 40.345405 279.747257 -11.029731
v 50.038008 261.615290 18.226954
v 37.542218 216.969024 52.155419
v 50.796376 62.746804 53.232940
v 49.539337 -75.237271 64.776950
v 37.712320 -190.281736 45.341295
v 51.399563 -280.583650 19.737366
v 37.972867 -281.695220 -10.885411
v 34.028956 -252.999295 -42.256315
v 45.010634 -135.980177 -62.235999
v -35.385381 0.000000 -87.459920
v -33.200115 148.810420 -61.236728
v -32.269185 338.576935 -50.065576
v -28.696483 349.684072 -7.193143
v -25.586372 327.019112 30.128183
v -22.184253 271.211279 70.953610
v -21.958526 78.433505 73.662341
v -20.775154 -94.046589 87.862798
v -22.887696 -237.852169 62.512293
v -25.418385 -350.729562 32.144027
v -28.702006 -352.119025 -7.259423
v -31.981271 -316.249119 -46.610605
v -33.953465 -169.975222 -70.276936
vt -30.437716 -7.546875
vt -30.294053 -7.546875
vt -30.348633 -7.314359
vt 32.809909 -7.546875
vt 32.678846 -7.314359
vt 32.875899 -7.017849
vt 32.809909 -7.546875
vt 32.875899 -7.017849
vt 32.784108 -7.000494
vt -30.437716 -7.546875
vt -30.424890 -7.000494
vt -30.488692 -7.035908
vt 32.809909 -7.546875
vt 32.723124 -7.035908
vt 32.913553 -7.123107
vt 32.809909 -7.546875
vt 32.913553 -7.123107
vt 32.733076 -7.424323
vt -30.437716 -7.546875
vt -30.556357 -7.424323
vt -30.573891 -7.693823
vt -30.437716 -7.546875
vt -30.573891 -7.693823
vt -30.525414 -7.918519
vt 32.809909 -7.546875
vt 32.893880 -7.918519
vt 32.692285 -8.094890
vt 32.809909 -7.546875
vt 32.692285 -8.094890
vt 32.844117 -8.097061
vt -30.437716 -7.546875
vt -30.419785 -8.097061
vt -30.359259 -8.041014
vt 32.809909 -7.546875
vt 32.827473 -8.041014
vt 32.682780 -7.812461
vt -30.437716 -7.546875
vt -30.334081 -7.812461
vt -30.294053 -7.546875
vt 32.838703 -7.546875
vt 32.677648 -7.546875
vt 32.678846 -7.314359
vt -30.348633 -7.314359
vt -30.166210 -7.546875
vt -30.247398 -7.081842
vt 32.678846 -7.314359
vt 32.693595 -7.081842
vt 32.875899 -7.017849
vt 32.875899 -7.017849
vt 32.693595 -7.081842
vt 32.830140 -6.488822
vt 32.875899 -7.017849
vt 32.830140 -6.488822
vt 32.784108 -7.000494
vt 32.784108 -7.000494
vt 32.830140 -6.488822
vt 32.654110 -6.454112
vt 32.784108 -7.000494
vt 32.654110 -6.454112
vt 32.723124 -7.035908
vt 32.723124 -7.035908
vt 32.654110 -6.454112
vt 32.779640 -6.524940
vt 32.723124 -7.035908
vt 32.779640 -6.524940
vt 32.913553 -7.123107
vt -30.537055 -7.123107
vt -30.527726 -6.524940
vt -30.652566 -6.699340
vt 32.913553 -7.123107
vt 32.823142 -6.699340
vt 32.733076 -7.424323
vt -30.556357 -7.424323
vt -30.652566 -6.699340
vt -30.674332 -7.301770
vt -30.556357 -7.424323
vt -30.674332 -7.301770
vt -30.573891 -7.693823
vt -30.573891 -7.693823
vt -30.674332 -7.301770
vt -30.703723 -7.840771
vt -30.573891 -7.693823
vt -30.703723 -7.840771
vt -30.525414 -7.918519
vt -30.525414 -7.918519
vt -30.703723 -7.840771
vt -30.631170 -8.290163
vt 32.893880 -7.918519
vt 32.761144 -8.290163
vt 32.692285 -8.094890
vt -30.494433 -8.094890
vt -30.631170 -8.290163
vt -30.542370 -8.642905
vt 32.692285 -8.094890
vt 32.680030 -8.642905
vt 32.844117 -8.097061
vt 32.844117 -8.097061
vt 32.680030 -8.642905
vt 32.847328 -8.647247
vt -30.419785 -8.097061
vt -30.404437 -8.647247
vt -30.359259 -8.041014
vt 32.827473 -8.041014
vt 32.847328 -8.647247
vt 32.673679 -8.535153
vt 32.827473 -8.041014
vt 32.673679 -8.535153
vt 32.682780 -7.812461
vt -30.334081 -7.812461
vt -30.295082 -8.535153
vt -30.217776 -8.078048
vt 32.682780 -7.812461
vt 32.707698 -8.078048
vt 32.838703 -7.546875
vt 32.838703 -7.546875
vt 32.707698 -8.078048
vt 32.677648 -7.546875
vt 32.677648 -7.546875
vt 32.536126 -7.546875
vt 32.693595 -7.081842
vt -30.247398 -7.081842
vt -30.036740 -7.546875
vt -30.147836 -6.849326
vt -30.247398 -7.081842
vt -30.147836 -6.849326
vt -30.271172 -6.488822
vt 32.830140 -6.488822
vt 32.688281 -6.849326
vt 32.658988 -5.959796
vt 32.830140 -6.488822
vt 32.658988 -5.959796
vt 32.654110 -6.454112
vt -30.420748 -6.454112
vt -30.203005 -5.959796
vt -30.412058 -5.907731
vt 32.654110 -6.454112
vt 32.578673 -5.907731
vt 32.779640 -6.524940
vt 32.779640 -6.524940
vt 32.578673 -5.907731
vt 32.756249 -6.013973
vt -30.527726 -6.524940
vt -30.573419 -6.013973
vt -30.652566 -6.699340
vt -30.652566 -6.699340
vt -30.573419 -6.013973
vt -30.774800 -6.275572
vt 32.823142 -6.699340
vt 32.652056 -6.275572
vt 32.664235 -7.301770
vt -30.674332 -7.301770
vt -30.774800 -6.275572
vt -30.787739 -7.179218
vt -30.674332 -7.301770
vt -30.787739 -7.179218
vt -30.703723 -7.840771
vt -30.703723 -7.840771
vt -30.787739 -7.179218
vt -30.843969 -7.987718
vt -30.703723 -7.840771
vt -30.843969 -7.987718
vt -30.631170 -8.290163
vt -30.631170 -8.290163
vt -30.843969 -7.987718
vt -30.738668 -8.661807
vt -30.631170 -8.290163
vt -30.738668 -8.661807
vt -30.542370 -8.642905
vt -30.542370 -8.642905
vt -30.738668 -8.661807
vt -30.588623 -9.190920
vt 32.680030 -8.642905
vt 32.687980 -9.190920
vt 32.847328 -8.647247
vt -30.404437 -8.647247
vt -30.588623 -9.190920
vt -30.400642 -9.197433
vt 32.847328 -8.647247
vt 32.711908 -9.197433
vt 32.673679 -8.535153
vt 32.673679 -8.535153
vt 32.711908 -9.197433
vt 32.551817 -9.029293
vt -30.295082 -8.535153
vt -30.228244 -9.029293
vt -30.217776 -8.078048
vt -30.217776 -8.078048
vt -30.228244 -9.029293
vt -30.104514 -8.343634
vt -30.217776 -8.078048
vt -30.104514 -8.343634
vt -30.166210 -7.546875
vt 32.677648 -7.546875
vt 32.696099 -8.343634
vt 32.536126 -7.546875
vt -30.036740 -7.546875
vt -29.904963 -7.546875
vt -30.147836 -6.849326
vt 32.688281 -6.849326
vt 32.422297 -7.546875
vt 32.544998 -6.616810
vt 32.688281 -6.849326
vt 32.544998 -6.616810
vt 32.658988 -5.959796
vt 32.658988 -5.959796
vt 32.544998 -6.616810
vt 32.436054 -5.430769
vt -30.203005 -5.959796
vt -30.139154 -5.430769
vt -30.412058 -5.907731
vt -30.412058 -5.907731
vt -30.139154 -5.430769
vt -30.403450 -5.361350
vt 32.578673 -5.907731
vt 32.502267 -5.361350
vt 32.756249 -6.013973
vt -30.573419 -6.013973
vt -30.403450 -5.361350
vt -30.632017 -5.503006
vt -30.573419 -6.013973
vt -30.632017 -5.503006
vt -30.774800 -6.275572
vt -30.774800 -6.275572
vt -30.632017 -5.503006
vt -30.897084 -5.851805
vt 32.652056 -6.275572
vt 32.480367 -5.851805
vt 32.650210 -7.179218
vt -30.787739 -7.179218
vt -30.897084 -5.851805
vt -30.905502 -7.056666
vt -30.787739 -7.179218
vt -30.905502 -7.056666
vt -30.843969 -7.987718
vt 32.779767 -7.987718
vt 32.583915 -7.056666
vt 32.574094 -8.134666
vt -30.843969 -7.987718
vt -30.995689 -8.134666
vt -30.738668 -8.661807
vt -30.738668 -8.661807
vt -30.995689 -8.134666
vt -30.843848 -9.033451
vt -30.738668 -8.661807
vt -30.843848 -9.033451
vt -30.588623 -9.190920
vt -30.588623 -9.190920
vt -30.843848 -9.033451
vt -30.643817 -9.738935
vt -30.588623 -9.190920
vt -30.643817 -9.738935
vt -30.400642 -9.197433
vt -30.400642 -9.197433
vt -30.643817 -9.738935
vt -30.404577 -9.747619
vt 32.711908 -9.197433
vt 32.483731 -9.747619
vt 32.551817 -9.029293
vt -30.228244 -9.029293
vt -30.404577 -9.747619
vt -30.159492 -9.523432
vt -30.228244 -9.029293
vt -30.159492 -9.523432
vt -30.104514 -8.343634
vt -30.104514 -8.343634
vt -30.159492 -9.523432
vt -30.003401 -8.609220
vt 32.696099 -8.343634
vt 32.538714 -8.609220
vt 32.536126 -7.546875
vt -30.036740 -7.546875
vt -30.003401 -8.609220
vt -29.904963 -7.546875
vt 32.422297 -7.546875
vt 31.910620 -7.546875
vt 32.544998 -6.616810
vt 32.544998 -6.616810
vt 31.910620 -7.546875
vt 31.927692 -6.384294
vt 32.544998 -6.616810
vt 31.927692 -6.384294
vt 32.436054 -5.430769
vt 32.436054 -5.430769
vt 31.927692 -6.384294
vt 31.934965 -4.901743
vt -30.139154 -5.430769
vt -30.098482 -4.901743
vt -30.403450 -5.361350
vt 32.502267 -30.403450
vt 31.934965 -30.098482
vt 31.962877 -30.433423
vt -30.403450 -5.361350
vt -30.433423 -4.814968
vt -30.632017 -5.503006
vt 32.577990 -30.632017
vt 31.962877 -30.433423
vt 31.987175 -30.724996
vt 32.577990 -5.503006
vt 31.987175 -4.992038
vt 32.480367 -5.851805
vt -30.897084 -5.851805
vt -30.724996 -4.992038
vt -31.043944 -5.428037
vt 32.480367 -5.851805
vt 32.013754 -5.428037
vt 32.583915 -7.056666
vt 32.583915 -7.056666
vt 32.013754 -5.428037
vt 32.015517 -6.934113
vt 32.583915 -7.056666
vt 32.015517 -6.934113
vt 32.574094 -8.134666
vt 32.574094 -8.134666
vt 32.015517 -6.934113
vt 32.024762 -8.281614
vt 32.574094 -8.134666
vt 32.024762 -8.281614
vt 32.481696 -9.033451
vt 32.481696 -9.033451
vt 32.024762 -8.281614
vt 32.008258 -9.405095
vt 32.481696 -9.033451
vt 32.008258 -9.405095
vt 32.588627 -9.738935
vt 32.588627 -9.738935
vt 32.008258 -9.405095
vt 31.988487 -10.286950
vt 32.588627 -30.643817
vt 31.988487 -30.740745
vt 32.483731 -30.404577
vt -30.404577 -9.747619
vt -30.740745 -10.286950
vt -30.432905 -10.297805
vt 32.483731 -9.747619
vt 31.962834 -10.297805
vt 32.452919 -9.523432
vt -30.159492 -9.523432
vt -30.432905 -10.297805
vt -30.125474 -10.017571
vt 32.452919 -9.523432
vt 31.937215 -10.017571
vt 32.538714 -8.609220
vt 32.538714 -8.609220
vt 31.937215 -10.017571
vt 31.921807 -8.874806
vt 32.538714 -8.609220
vt 31.921807 -8.874806
vt 32.422297 -7.546875
vt 32.422297 -7.546875
vt 31.921807 -8.874806
vt 31.910620 -7.546875
vn 0.830351 0.531809 0.166423
vn 0.294922 -0.192352 -0.935960
vn 0.637944 0.048167 0.768575
vn 0.707989 0.049970 0.704453
vn 0.305720 0.145792 -0.940893
vn 0.610314 -0.319222 0.724993
vn 0.906352 0.217618 0.362173
vn 0.849200 0.295195 0.437858
vn 0.284292 -0.158873 -0.945483
vn 0.441186 -0.001816 0.897414
vn 0.976221 0.067412 -0.206030
vn 0.405305 0.157388 -0.900532
vn 0.860571 -0.479237 0.172480
vn 0.530460 0.521563 -0.668270
vn 0.997956 -0.042547 0.047677
vn 0.549874 -0.362502 -0.752483
vn 0.510018 -0.083112 -0.856139
vn 0.643067 0.166697 0.747447
vn 0.657325 0.161974 0.735995
vn 0.666052 0.163987 0.727656
vn 0.644357 -0.012859 -0.764616
vn 0.264917 0.044284 -0.963254
vn 0.975344 0.217797 -0.035612
vn 0.377361 -0.167742 0.910748
vn 0.758569 -0.177441 0.626967
vn 0.924437 0.218270 0.312690
vn 0.946149 0.319206 -0.053938
vn 0.912066 0.405777 0.059003
vn 0.913043 -0.230315 0.336611
vn 0.464910 -0.391955 -0.793870
vn 0.851174 -0.064598 -0.520893
vn 0.440961 0.068420 0.894914
vn 0.635764 -0.017816 0.771678
vn 0.967081 0.012733 -0.254149
vn 0.510257 -0.047283 -0.858721
vn 0.246059 0.049139 -0.968008
vn 0.963333 -0.026540 0.266991
vn 0.631389 -0.260603 0.730366
vn 0.621202 -0.040830 -0.782586
vn 0.671256 0.105080 -0.733739
vn 0.916076 -0.139973 -0.375783
vn 0.865275 -0.180484 -0.467681
vn 0.547667 0.069747 -0.833784
vn 0.651312 0.300496 0.696774
vn 0.935757 0.134381 0.326037
vn 0.672618 0.081168 -0.735525
vn 0.700084 0.095332 -0.707668
vn 0.967350 0.066162 -0.244657
vn 0.788444 0.145959 0.597538
vn 0.435802 -0.082573 0.896247
vn 0.992405 -0.000266 0.123016
vn 0.928183 0.304355 -0.214113
vn 0.805994 0.168618 0.567399
vn 0.948199 -0.219779 0.229381
vn 0.904546 -0.281203 0.320502
vn 0.907459 -0.286123 0.307657
vn 0.935819 0.043103 0.349835
vn 0.635536 0.074083 0.768509
vn 0.962474 -0.237801 0.130749
vn 0.477078 -0.111413 -0.871770
vn 0.693667 -0.074157 -0.716468
vn 0.860995 -0.146451 -0.487072
vn 0.952872 -0.153266 0.261810
vn 0.981475 0.037280 -0.187927
vn 0.673214 0.072572 -0.735878
vn 0.755359 -0.060848 -0.652480
vn 0.587987 0.056732 -0.806878
vn 0.601436 0.069170 -0.795921
vn 0.492137 0.103061 -0.864395
vn 0.883981 0.401438 0.239635
vn 0.953396 0.129027 -0.272741
vn 0.697808 0.086379 -0.711058
vn 0.935765 0.337987 -0.100546
vn 0.750149 0.189030 0.633675
vn 0.823727 0.178435 0.538178
vn 0.596795 0.010269 0.802328
vn 0.902053 0.080487 0.424055
vn 0.924078 0.171822 0.341405
vn 0.562482 0.063842 0.824341
vn 0.691526 -0.280678 0.665591
vn 0.874186 -0.166907 0.456006
vn 0.754085 -0.070499 0.652982
vn 0.753935 -0.070906 0.653112
vn 0.977809 -0.164165 0.130150
vn 0.859488 -0.359054 -0.363813
vn 0.579068 -0.245714 -0.777370
vn 0.952903 -0.154398 -0.261030
vn 0.979214 -0.200367 0.031515
vn 0.729399 -0.181084 -0.659686
vn 0.506081 0.028286 -0.862022
vn 0.756572 0.022352 -0.653528
vn 0.187474 0.137163 -0.972646
vn 0.140696 0.169814 -0.975381
vn 0.106675 0.076153 -0.991373
vn 0.140918 0.057491 -0.988351
vn 0.695578 0.632672 -0.340437
vn 0.685107 0.689268 -0.235664
vn 0.703769 0.684289 0.190936
vn 0.642387 0.677631 0.357988
vn 0.494038 0.434170 0.753275
vn 0.630099 0.483126 0.607918
vn 0.328691 0.034842 0.943795
vn 0.273080 0.013835 0.961892
vn 0.284953 0.077336 0.955417
vn 0.291430 0.080477 0.953201
vn 0.351941 -0.190986 0.916330
vn 0.387008 -0.165589 0.907086
vn 0.404291 -0.192258 0.894195
vn 0.371761 -0.248943 0.894327
vn 0.630617 -0.734785 -0.249825
vn 0.724767 -0.688046 -0.036135
vn 0.569441 -0.569642 -0.592659
vn 0.587058 -0.573333 -0.571534
vn 0.240350 -0.185243 -0.952847
vn 0.166030 -0.155319 -0.973812
vn 0.133717 -0.076899 -0.988032
vn 0.188367 -0.097207 -0.977276
f 1/1/1 2/2/1 3/3/1
f 1/4/2 3/5/2 4/6/2
f 1/7/3 4/8/3 5/9/3
f 1/10/4 5/11/4 6/12/4
f 1/13/5 6/14/5 7/15/5
f 1/16/6 7/17/6 8/18/6
f 1/19/7 8/20/7 9/21/7
f 1/22/8 9/23/8 10/24/8
f 1/25/9 10/26/9 11/27/9
f 1/28/10 11/29/10 12/30/10
f 1/31/11 12/32/11 13/33/11
f 1/34/12 13/35/12 14/36/12
f 1/37/13 14/38/13 2/39/13
f 2/40/14 15/41/14 3/42/14
f 3/43/15 15/44/15 16/45/15
f 3/46/16 16/47/16 4/48/16
f 4/49/17 16/50/17 17/51/17
f 4/52/18 17/53/18 5/54/18
f 5/55/19 17/56/19 18/57/19
f 5/58/20 18/59/20 6/60/20
f 6/61/21 18/62/21 19/63/21
f 6/64/22 19/65/22 7/66/22
f 7/67/23 19/68/23 20/69/23
f 7/70/24 20/71/24 8/72/24
f 8/73/25 20/74/25 21/75/25
f 8/76/26 21/77/26 9/78/26
f 9/79/27 21/80/27 22/81/27
f 9/82/28 22/83/28 10/84/28
f 10/85/29 22/86/29 23/87/29
f 10/88/30 23/89/30 11/90/30
f 11/91/31 23/92/31 24/93/31
f 11/94/32 24/95/32 12/96/32
f 12/97/33 24/98/33 25/99/33
f 12/100/34 25/101/34 13/102/34
f 13/103/35 25/104/35 26/105/35
f 13/106/36 26/107/36 14/108/36
f 14/109/37 26/110/37 27/111/37
f 14/112/38 27/113/38 2/114/38
f 2/115/39 27/116/39 15/117/39
f 15/118/40 28/119/40 16/120/40
f 16/121/41 28/122/41 29/123/41
f 16/124/42 29/125/42 17/126/42
f 17/127/43 29/128/43 30/129/43
f 17/130/44 30/131/44 18/132/44
f 18/133/45 30/134/45 31/135/45
f 18/136/46 31/137/46 19/138/46
f 19/139/47 31/140/47 32/141/47
f 19/142/48 32/143/48 20/144/48
f 20/145/49 32/146/49 33/147/49
f 20/148/50 33/149/50 21/150/50
f 21/151/51 33/152/51 34/153/51
f 21/154/52 34/155/52 22/156/52
f 22/157/53 34/158/53 35/159/53
f 22/160/54 35/161/54 23/162/54
f 23/163/55 35/164/55 36/165/55
f 23/166/56 36/167/56 24/168/56
f 24/169/57 36/170/57 37/171/57
f 24/172/58 37/173/58 25/174/58
f 25/175/59 37/176/59 38/177/59
f 25/178/60 38/179/60 26/180/60
f 26/181/61 38/182/61 39/183/61
f 26/184/62 39/185/62 27/186/62
f 27/187/63 39/188/63 40/189/63
f 27/190/64 40/191/64 15/192/64
f 15/193/65 40/194/65 28/195/65
f 28/196/66 41/197/66 29/198/66
f 29/199/67 41/200/67 42/201/67
f 29/202/68 42/203/68 30/204/68
f 30/205/69 42/206/69 43/207/69
f 30/208/70 43/209/70 31/210/70
f 31/211/71 43/212/71 44/213/71
f 31/214/72 44/215/72 32/216/72
f 32/217/73 44/218/73 45/219/73
f 32/220/74 45/221/74 33/222/74
f 33/223/75 45/224/75 46/225/75
f 33/226/76 46/227/76 34/228/76
f 34/229/77 46/230/77 47/231/77
f 34/232/78 47/233/78 35/234/78
f 35/235/79 47/236/79 48/237/79
f 35/238/80 48/239/80 36/240/80
f 36/241/81 48/242/81 49/243/81
f 36/244/82 49/245/82 37/246/82
f 37/247/83 49/248/83 50/249/83
f 37/250/84 50/251/84 38/252/84
f 38/253/85 50/254/85 51/255/85
f 38/256/86 51/257/86 39/258/86
f 39/259/87 51/260/87 52/261/87
f 39/262/88 52/263/88 40/264/88
f 40/265/89 52/266/89 53/267/89
f 40/268/90 53/269/90 28/270/90
f 28/271/91 53/272/91 41/273/91
f 41/274/92 54/275/92 42/276/92
f 42/277/93 54/278/93 55/279/93
f 42/280/94 55/281/94 43/282/94
f 43/283/95 55/284/95 56/285/95
f 43/286/96 56/287/96 44/288/96
f 44/289/97 56/290/97 57/291/97
f 44/292/98 57/293/98 45/294/98
f 45/295/99 57/296/99 58/297/99
f 45/298/100 58/299/100 46/300/100
f 46/301/101 58/302/101 59/303/101
f 46/304/102 59/305/102 47/306/102
f 47/307/103 59/308/103 60/309/103
f 47/310/104 60/311/104 48/312/104
f 48/313/105 60/314/105 61/315/105
f 48/316/106 61/317/106 49/318/106
f 49/319/107 61/320/107 62/321/107
f 49/322/108 62/323/108 50/324/108
f 50/325/109 62/326/109 63/327/109
f 50/328/110 63/329/110 51/330/110
f 51/331/111 63/332/111 64/333/111
f 51/334/112 64/335/112 52/336/112
f 52/337/113 64/338/113 65/339/113
f 52/340/114 65/341/114 53/342/114
f 53/343/115 65/344/115 66/345/115
f 53/346/116 66/347/116 41/348/116
f 41/349/117 66/350/117 54/351/117
