# Editable island-base mist surface; no collision.
s off
v 70.980776 48.000000 -39.485582
v 69.446211 -3.920000 -47.084658
v 64.623292 -65.280000 -70.967469
v 56.950466 -126.640000 -108.962850
v 47.085405 -188.000000 -157.814054
v 28.187184 48.000000 -7.390388
v 25.764141 -3.920000 -14.323106
v 18.148861 -65.280000 -36.111646
v 6.033644 -126.640000 -70.775233
v -9.543064 -188.000000 -115.342702
v -14.606408 48.000000 24.704806
v -17.917930 -3.920000 18.438447
v -28.325569 -65.280000 -1.255823
v -44.883178 -126.640000 -32.587617
v -66.171532 -188.000000 -72.871351
v -57.400000 48.000000 56.800000
v -61.600000 -3.920000 51.200000
v -74.800000 -65.280000 33.600000
v -95.800000 -126.640000 5.600000
v -122.800000 -188.000000 -30.400000
vt 0.000000 0.000000
vt 0.000000 0.220000
vt 0.000000 0.480000
vt 0.000000 0.740000
vt 0.000000 1.000000
vt 0.333333 0.000000
vt 0.333333 0.220000
vt 0.333333 0.480000
vt 0.333333 0.740000
vt 0.333333 1.000000
vt 0.666667 0.000000
vt 0.666667 0.220000
vt 0.666667 0.480000
vt 0.666667 0.740000
vt 0.666667 1.000000
vt 1.000000 0.000000
vt 1.000000 0.220000
vt 1.000000 0.480000
vt 1.000000 0.740000
vt 1.000000 1.000000
vn 0 1 0
f 1/1/1 2/2/1 6/6/1
f 2/2/1 7/7/1 6/6/1
f 2/2/1 3/3/1 7/7/1
f 3/3/1 8/8/1 7/7/1
f 3/3/1 4/4/1 8/8/1
f 4/4/1 9/9/1 8/8/1
f 4/4/1 5/5/1 9/9/1
f 5/5/1 10/10/1 9/9/1
f 6/6/1 7/7/1 11/11/1
f 7/7/1 12/12/1 11/11/1
f 7/7/1 8/8/1 12/12/1
f 8/8/1 13/13/1 12/12/1
f 8/8/1 9/9/1 13/13/1
f 9/9/1 14/14/1 13/13/1
f 9/9/1 10/10/1 14/14/1
f 10/10/1 15/15/1 14/14/1
f 11/11/1 12/12/1 16/16/1
f 12/12/1 17/17/1 16/16/1
f 12/12/1 13/13/1 17/17/1
f 13/13/1 18/18/1 17/17/1
f 13/13/1 14/14/1 18/18/1
f 14/14/1 19/19/1 18/18/1
f 14/14/1 15/15/1 19/19/1
f 15/15/1 20/20/1 19/19/1
