# Generated sky cornice; visual geometry only.
s 1
v 40.531503 -3.904593 -12.336711
v 40.545315 -2.473517 -12.208940
v 40.567297 -0.253490 -12.005587
v 40.577607 2.272838 -11.910208
v 40.556403 4.612451 -12.106363
v 40.496293 6.688029 -12.662436
v 40.408560 8.677092 -13.474050
v 40.301374 10.459328 -14.465623
v 40.182905 11.913066 -15.561571
v 40.048096 12.966044 -16.808686
v 39.895001 13.616460 -18.224961
v 39.736459 13.854415 -19.691625
v 39.585309 13.678840 -21.089904
v 39.435813 13.006702 -22.472887
v 39.284177 11.843068 -23.875666
v 39.146158 10.335454 -25.152473
v 39.037513 8.642728 -26.157543
v 38.960868 6.816410 -26.866580
v 38.908345 4.822569 -27.352469
v 38.879944 2.704405 -27.615209
v 38.875664 0.509127 -27.654800
v 38.897549 -1.788021 -27.452346
v 38.944917 -4.115765 -27.014147
v 39.013683 -6.285140 -26.377992
v 39.099763 -8.113996 -25.581675
v 39.211520 -9.483120 -24.547812
v 39.347983 -10.472675 -23.285401
v 39.491060 -11.328548 -21.961805
v 39.622659 -12.271577 -20.744384
v 39.745018 -13.287817 -19.612443
v 39.865433 -14.321488 -18.498498
v 39.973397 -15.445801 -17.499727
v 40.058406 -16.733968 -16.713308
v 40.114334 -18.407365 -16.195926
v 40.147890 -20.359661 -15.885497
v 40.167829 -22.172508 -15.701040
v 40.182905 -23.427555 -15.561571
v 33.235296 -3.689933 -9.603184
v 33.248176 -2.332875 -9.482369
v 33.268675 -0.221200 -9.290085
v 33.278290 2.188178 -9.199899
v 33.258516 4.428064 -9.385376
v 33.202461 6.423698 -9.911178
v 33.120647 8.340842 -10.678611
v 33.020692 10.063612 -11.616206
v 32.910215 11.474772 -12.652495
v 32.784500 12.503851 -13.831721
v 32.641733 13.147156 -15.170900
v 32.493886 13.393659 -16.557724
v 32.352933 13.241085 -17.879886
v 32.213522 12.610185 -19.187584
v 32.072115 11.505495 -20.514001
v 31.943407 10.066718 -21.721303
v 31.842091 8.444807 -22.671661
v 31.770617 6.689752 -23.342101
v 31.721637 4.771191 -23.801539
v 31.695152 2.731957 -24.049977
v 31.691161 0.618857 -24.087412
v 31.711569 -1.589253 -23.895980
v 31.755741 -3.822839 -23.481634
v 31.819869 -5.901346 -22.880110
v 31.900141 -7.650978 -22.127141
v 32.004360 -8.957830 -21.149558
v 32.131617 -9.896928 -19.955868
v 32.265041 -10.705748 -18.704323
v 32.387763 -11.596933 -17.553174
v 32.501868 -12.557304 -16.482852
v 32.614159 -13.534147 -15.429547
v 32.714840 -14.596651 -14.485145
v 32.794115 -15.813999 -13.741535
v 32.846269 -17.395399 -13.252318
v 32.877562 -19.240365 -12.958788
v 32.896156 -20.953549 -12.784371
v 32.910215 -22.139599 -12.652495
v 25.944899 -3.536285 -6.819412
v 25.957077 -2.230262 -6.703561
v 25.976459 -0.190416 -6.519179
v 25.985550 2.144422 -6.432699
v 25.966854 4.325002 -6.610554
v 25.913853 6.277693 -7.114750
v 25.836494 8.159006 -7.850647
v 25.741984 9.855309 -8.749714
v 25.637525 11.251602 -9.743419
v 25.518657 12.277780 -10.874188
v 25.383666 12.927969 -12.158336
v 25.243873 13.189631 -13.488172
v 25.110597 13.059099 -14.756003
v 24.978780 12.459507 -16.009964
v 24.845076 11.394907 -17.281875
v 24.723378 9.999531 -18.439566
v 24.627581 8.419011 -19.350871
v 24.560000 6.702785 -19.993761
v 24.513688 4.823757 -20.434320
v 24.488645 2.825336 -20.672548
v 24.484871 0.754960 -20.708446
v 24.504168 -1.404988 -20.524879
v 24.545935 -3.585309 -20.127560
v 24.606569 -5.610644 -19.550754
v 24.682469 -7.312481 -18.828727
v 24.781011 -8.580192 -17.891315
v 24.901336 -9.484823 -16.746677
v 25.027493 -10.259964 -15.546562
v 25.143530 -11.114040 -14.442716
v 25.251420 -12.034421 -13.416377
v 25.357594 -12.970590 -12.406354
v 25.452791 -13.988850 -11.500760
v 25.527748 -15.155509 -10.787707
v 25.577062 -16.671060 -10.318594
v 25.606650 -18.439202 -10.037125
v 25.624231 -20.081049 -9.869876
v 25.637525 -21.217712 -9.743419
v 18.660864 -3.452624 -3.977883
v 18.672593 -2.171302 -3.864708
v 18.691260 -0.161485 -3.684586
v 18.700016 2.147311 -3.600103
v 18.682009 4.314758 -3.773850
v 18.630964 6.266716 -4.266398
v 18.556461 8.153338 -4.985295
v 18.465438 9.860765 -5.863593
v 18.364834 11.273722 -6.834343
v 18.250354 12.320855 -7.938990
v 18.120345 12.993786 -9.193473
v 17.985710 13.278043 -10.492589
v 17.857354 13.168363 -11.731132
v 17.730401 12.588659 -12.956126
v 17.601631 11.542556 -14.198654
v 17.484425 10.161498 -15.329602
v 17.392163 8.588768 -16.219855
v 17.327076 6.874363 -16.847894
v 17.282473 4.994097 -17.278276
v 17.258355 2.993024 -17.511001
v 17.254720 0.920378 -17.546069
v 17.273305 -1.238043 -17.366743
v 17.313530 -3.411780 -16.978602
v 17.371927 -5.426989 -16.415121
v 17.445026 -7.116937 -15.709773
v 17.539930 -8.371954 -14.794016
v 17.655815 -9.260432 -13.675820
v 17.777316 -10.017235 -12.503428
v 17.889071 -10.851106 -11.425083
v 17.992979 -11.749713 -10.422452
v 18.095235 -12.663733 -9.435762
v 18.186919 -13.657904 -8.551088
v 18.259109 -14.796962 -7.854507
v 18.306603 -16.276658 -7.396230
v 18.335099 -18.002971 -7.121264
v 18.352031 -19.605975 -6.957879
v 18.364834 -20.715747 -6.834343
v 11.383501 -3.445519 -1.073060
v 11.395045 -2.159973 -0.960054
v 11.413417 -0.134114 -0.780199
v 11.422034 2.202247 -0.695843
v 11.404312 4.407798 -0.869331
v 11.354073 6.406065 -1.361145
v 11.280746 8.343946 -2.078972
v 11.191160 10.104594 -2.955962
v 11.092144 11.569654 -3.925267
v 10.979470 12.664701 -5.028269
v 10.851514 13.378447 -6.280884
v 10.719005 13.693982 -7.578066
v 10.592674 13.604190 -8.814765
v 10.467725 13.031993 -10.037935
v 10.340988 11.980636 -11.278613
v 10.225632 10.581730 -12.407877
v 10.134826 8.979469 -13.296805
v 10.070767 7.225665 -13.923908
v 10.026868 5.298691 -14.353649
v 10.003130 3.246468 -14.586028
v 9.999553 1.121357 -14.621044
v 10.017845 -1.087495 -14.441985
v 10.057435 -3.306566 -14.054422
v 10.114909 -5.359458 -13.491780
v 10.186855 -7.077334 -12.787482
v 10.280261 -8.348915 -11.873089
v 10.394317 -9.241375 -10.756558
v 10.513900 -9.996620 -9.585911
v 10.623891 -10.828774 -8.509171
v 10.726158 -11.725532 -7.508034
v 10.826800 -12.637672 -6.522813
v 10.917037 -13.629797 -5.639456
v 10.988087 -14.766511 -4.943912
v 11.034831 -16.243162 -4.486318
v 11.062878 -17.965921 -4.211761
v 11.079543 -19.565627 -4.048618
v 11.092144 -20.673115 -3.925267
v 4.112854 -3.518756 1.898302
v 4.124478 -2.198416 2.013776
v 4.142980 -0.107529 2.197558
v 4.151657 2.313677 2.283756
v 4.133811 4.612450 2.106480
v 4.083219 6.707981 1.603925
v 4.009378 8.747087 0.870423
v 3.919164 10.606927 -0.025719
v 3.819453 12.163018 -1.016191
v 3.705990 13.335852 -2.143280
v 3.577136 14.110712 -3.423249
v 3.443698 14.467643 -4.748758
v 3.316481 14.397351 -6.012463
v 3.190656 13.819865 -7.262345
v 3.063031 12.738098 -8.530117
v 2.946866 11.286930 -9.684041
v 2.855424 9.614939 -10.592380
v 2.790915 7.777121 -11.233178
v 2.746708 5.754125 -11.672304
v 2.722804 3.598107 -11.909757
v 2.719202 1.366064 -11.945537
v 2.737621 -0.949480 -11.762568
v 2.777489 -3.269945 -11.366542
v 2.835367 -5.412013 -10.791613
v 2.907816 -7.200596 -10.071935
v 3.001878 -8.520050 -9.137574
v 3.116733 -9.437805 -7.996660
v 3.237155 -10.209104 -6.800450
v 3.347917 -11.058946 -5.700196
v 3.450902 -11.974765 -4.677197
v 3.552249 -12.906293 -3.670461
v 3.643118 -13.919506 -2.767814
v 3.714667 -15.080381 -2.057081
v 3.761739 -16.588419 -1.589493
v 3.789982 -18.347797 -1.308941
v 3.806764 -19.981505 -1.142236
v 3.819453 -21.112534 -1.016191
v -3.151302 -3.673070 4.936926
v -3.139339 -2.286835 5.057532
v -3.120299 -0.080738 5.249483
v -3.111369 2.484306 5.339514
v -3.129735 4.933491 5.154357
v -3.181799 7.179563 4.629464
v -3.257788 9.372349 3.863358
v -3.350626 11.379863 2.927384
v -3.453237 13.068297 1.892886
v -3.570001 14.350908 0.715698
v -3.702603 15.208923 -0.621166
v -3.839923 15.618636 -2.005592
v -3.970841 15.568173 -3.325469
v -4.100326 14.972718 -4.630907
v -4.231664 13.834882 -5.955031
v -4.351208 12.295962 -7.160246
v -4.445310 10.512463 -8.108961
v -4.511696 8.544027 -8.778242
v -4.557188 6.373378 -9.236886
v -4.581788 4.058406 -9.484894
v -4.585495 1.662372 -9.522265
v -4.566540 -0.818661 -9.331163
v -4.525512 -3.298928 -8.917534
v -4.465951 -5.583680 -8.317050
v -4.391393 -7.487297 -7.565382
v -4.294596 -8.886925 -6.589489
v -4.176399 -9.851700 -5.397863
v -4.052474 -10.656824 -4.148481
v -3.938490 -11.543936 -2.999322
v -3.832510 -12.499918 -1.930850
v -3.728214 -13.472298 -0.879365
v -3.634702 -14.529945 0.063404
v -3.561071 -15.741730 0.805728
v -3.512630 -17.315904 1.294100
v -3.483565 -19.152439 1.587123
v -3.466295 -20.857793 1.761238
v -3.453237 -22.038423 1.892886
v -10.409451 -3.906008 8.040890
v -10.396912 -2.423500 8.169219
v -10.376956 -0.052908 8.373459
v -10.367595 2.714188 8.469253
v -10.386845 5.370569 8.272243
v -10.441416 7.820411 7.713744
v -10.521065 10.219459 6.898590
v -10.618375 12.423427 5.902691
v -10.725928 14.285976 4.801962
v -10.848315 15.710945 3.549407
v -10.987303 16.674801 2.126954
v -11.131237 17.149328 0.653892
v -11.268459 17.119628 -0.750488
v -11.404180 16.494104 -2.139504
v -11.541844 15.275084 -3.548402
v -11.667145 13.613353 -4.830779
v -11.765779 11.676817 -5.840233
v -11.835362 9.531233 -6.552364
v -11.883045 7.161289 -7.040372
v -11.908830 4.632152 -7.304258
v -11.912715 2.015032 -7.344021
v -11.892847 -0.690214 -7.140685
v -11.849843 -3.388474 -6.700573
v -11.787413 -5.869096 -6.061644
v -11.709266 -7.931710 -5.261853
v -11.607806 -9.443432 -4.223480
v -11.483917 -10.476471 -2.955562
v -11.354024 -11.332654 -1.626191
v -11.234551 -12.276025 -0.403460
v -11.123466 -13.292633 0.733419
v -11.014147 -14.326679 1.852223
v -10.916131 -15.451400 2.855351
v -10.838955 -16.740034 3.645201
v -10.788181 -18.414038 4.164840
v -10.757716 -20.367042 4.476623
v -10.739614 -22.180545 4.661885
v -10.725928 -23.436048 4.801962
v -17.662324 -4.211911 11.205614
v -17.649000 -2.604854 11.344071
v -17.627793 -0.023763 11.564432
v -17.617847 2.999829 11.667787
v -17.638303 5.916653 11.455226
v -17.696291 8.620317 10.852646
v -17.780927 11.275139 9.973152
v -17.884330 13.721564 8.898648
v -17.998618 15.797709 7.711038
v -18.128669 17.395920 6.359620
v -18.276361 18.487217 4.824893
v -18.429307 19.038136 3.235562
v -18.575122 19.030319 1.720336
v -18.719342 18.363579 0.221686
v -18.865627 17.039973 -1.298416
v -18.998774 15.222627 -2.682010
v -19.103585 13.094086 -3.771140
v -19.177525 10.727617 -4.539479
v -19.228194 8.109800 -5.066005
v -19.255593 5.314544 -5.350720
v -19.259721 2.422617 -5.393622
v -19.238609 -0.562053 -5.174236
v -19.192913 -3.532952 -4.699387
v -19.126574 -6.259348 -4.010027
v -19.043532 -8.522164 -3.147109
v -18.935719 -10.175851 -2.026777
v -18.804073 -11.296947 -0.658784
v -18.666046 -12.220183 0.775514
v -18.539091 -13.237435 2.094755
v -18.421050 -14.333660 3.321367
v -18.304886 -15.448688 4.528478
v -18.200732 -16.661493 5.610782
v -18.118723 -18.051048 6.462975
v -18.064770 -19.856152 7.023628
v -18.032398 -21.962108 7.360020
v -18.013162 -23.917638 7.559905
v -17.998618 -25.271467 7.711038
v -24.910865 -4.582050 14.423952
v -24.896584 -2.825676 14.574662
v -24.873855 0.006036 14.814524
v -24.863195 3.333452 14.927026
v -24.885119 6.556804 14.695654
v -24.947271 9.557416 14.039747
v -25.037986 12.510575 13.082420
v -25.148814 15.238901 11.912824
v -25.271308 17.562374 10.620114
v -25.410699 19.360084 9.149099
v -25.568996 20.597052 7.478552
v -25.732925 21.233963 5.748570
v -25.889211 21.248649 4.099250
v -26.043788 20.530763 2.467972
v -26.200576 19.082105 0.813345
v -26.343286 17.080651 -0.692694
v -26.455622 14.726411 -1.878209
v -26.534872 12.101352 -2.714544
v -26.589180 9.193834 -3.287667
v -26.618546 6.087750 -3.597578
v -26.622971 2.874778 -3.644277
v -26.600343 -0.436898 -3.405476
v -26.551365 -3.727618 -2.888604
v -26.480262 -6.742940 -2.138237
v -26.391257 -9.241651 -1.198953
v -26.275702 -11.063242 0.020525
v -26.134602 -12.289712 1.509583
v -25.986664 -13.294081 3.070813
v -25.850592 -14.400728 4.506804
v -25.724075 -15.593288 5.841968
v -25.599569 -16.806304 7.155905
v -25.487936 -18.125689 8.333991
v -25.400038 -19.637356 9.261601
v -25.342210 -21.601092 9.871870
v -25.307514 -23.892117 10.238032
v -25.286897 -26.019497 10.455607
v -25.271308 -27.492298 10.620114
v -32.156196 -5.004884 17.686409
v -32.140831 -3.079316 17.851121
v -32.116377 0.034635 18.113267
v -32.104908 3.702623 18.236220
v -32.128496 7.267573 17.983353
v -32.195366 10.597277 17.266512
v -32.292966 13.880145 16.220247
v -32.412207 16.919084 14.941995
v -32.543999 19.514021 13.529190
v -32.693969 21.529552 11.921516
v -32.864282 22.924435 10.095773
v -33.040654 23.653167 8.205073
v -33.208803 23.689601 6.402529
v -33.375112 22.912015 4.619704
v -33.543802 21.321994 2.811360
v -33.697343 19.114385 1.165407
v -33.818207 16.508910 -0.130244
v -33.903472 13.597088 -1.044275
v -33.961902 10.368808 -1.670642
v -33.993497 6.918772 -2.009344
v -33.998258 3.350469 -2.060381
v -33.973912 -0.323720 -1.799395
v -33.921217 -3.969767 -1.234505
v -33.844717 -7.306727 -0.414429
v -33.748957 -10.068593 0.612117
v -33.624630 -12.078138 1.944886
v -33.472820 -13.423814 3.572279
v -33.313653 -14.520867 5.278549
v -33.167253 -15.729636 6.847945
v -33.031132 -17.032246 8.307148
v -32.897176 -18.357200 9.743151
v -32.777070 -19.798338 11.030683
v -32.682500 -21.449503 12.044469
v -32.620282 -23.594453 12.711434
v -32.582952 -26.096896 13.111612
v -32.560770 -28.420592 13.349400
v -32.543999 -30.029304 13.529190
v -39.399569 -5.466454 20.981459
v -39.383043 -3.357952 21.161463
v -39.356740 0.058922 21.447948
v -39.344403 4.090397 21.582317
v -39.369775 8.017326 21.305973
v -39.441700 11.693367 20.522577
v -39.546678 15.322010 19.379173
v -39.674934 18.685472 17.982242
v -39.816689 21.562638 16.438266
v -39.977997 23.803109 14.681328
v -40.161186 25.359553 12.686076
v -40.350891 26.180348 10.619836
v -40.531752 26.235481 8.649935
v -40.710634 25.391109 6.701585
v -40.892077 23.648673 4.725347
v -41.057226 21.221327 2.926577
v -41.187226 18.350004 1.510632
v -41.278937 15.136155 0.511738
v -41.341784 11.570695 -0.172783
v -41.375768 7.759367 -0.542932
v -41.380889 3.817726 -0.598707
v -41.354703 -0.238118 -0.313490
v -41.298024 -4.259274 0.303847
v -41.215741 -7.936614 1.200062
v -41.112741 -10.977689 2.321917
v -40.979016 -13.187499 3.778426
v -40.815729 -14.661811 5.556913
v -40.644528 -15.860038 7.421600
v -40.487061 -17.180284 9.136706
v -40.340650 -18.603027 10.731387
v -40.196566 -20.050173 12.300716
v -40.067380 -21.624219 13.707787
v -39.965661 -23.427660 14.815697
v -39.898740 -25.770427 15.544586
v -39.858587 -28.503654 15.981919
v -39.834729 -31.041650 16.241783
v -39.816689 -32.798725 16.438266
vt 0.23900974 0.98959810
vt 0.23900974 0.98679260
vt 0.23900974 0.98243958
vt 0.23900974 0.97750204
vt 0.23900974 0.97291744
vt 0.23900974 0.96872930
vt 0.23900974 0.96455199
vt 0.23900974 0.96059777
vt 0.23900974 0.95708200
vt 0.23900974 0.95395213
vt 0.23900974 0.95098687
vt 0.23900974 0.94817352
vt 0.23900974 0.94550606
vt 0.23900974 0.94257880
vt 0.23900974 0.93908479
vt 0.23900974 0.93527623
vt 0.23900974 0.93146234
vt 0.23900974 0.92765143
vt 0.23900974 0.92365019
vt 0.23900974 0.91948340
vt 0.23900974 0.91519509
vt 0.23900974 0.91069216
vt 0.23900974 0.90607082
vt 0.23900974 0.90166615
vt 0.23900974 0.89778947
vt 0.23900974 0.89447643
vt 0.23900974 0.89140409
vt 0.23900974 0.88839335
vt 0.23900974 0.88544428
vt 0.23900974 0.88252445
vt 0.23900974 0.87960605
vt 0.23900974 0.87670909
vt 0.23900974 0.87378616
vt 0.23900974 0.87037439
vt 0.23900974 0.86651635
vt 0.23900974 0.86295848
vt 0.23900974 0.86049306
vt 0.25430850 0.98606440
vt 0.25430850 0.98340407
vt 0.25430850 0.97926371
vt 0.25430850 0.97455481
vt 0.25430850 0.97016600
vt 0.25430850 0.96614348
vt 0.25430850 0.96212774
vt 0.25430850 0.95832452
vt 0.25430850 0.95494286
vt 0.25430850 0.95194102
vt 0.25430850 0.94911435
vt 0.25430850 0.94644836
vt 0.25430850 0.94393077
vt 0.25430850 0.94116819
vt 0.25430850 0.93785987
vt 0.25430850 0.93423943
vt 0.25430850 0.93059749
vt 0.25430850 0.92694276
vt 0.25430850 0.92309620
vt 0.25430850 0.91908572
vt 0.25430850 0.91495796
vt 0.25430850 0.91063008
vt 0.25430850 0.90619782
vt 0.25430850 0.90198193
vt 0.25430850 0.89827997
vt 0.25430850 0.89512855
vt 0.25430850 0.89222026
vt 0.25430850 0.88937504
vt 0.25430850 0.88658810
vt 0.25430850 0.88382879
vt 0.25430850 0.88107083
vt 0.25430850 0.87833314
vt 0.25430850 0.87557090
vt 0.25430850 0.87234669
vt 0.25430850 0.86870075
vt 0.25430850 0.86533848
vt 0.25430850 0.86300860
vt 0.26960726 0.98397901
vt 0.26960726 0.98141881
vt 0.26960726 0.97741953
vt 0.26960726 0.97285637
vt 0.26960726 0.96858418
vt 0.26960726 0.96465312
vt 0.26960726 0.96072435
vt 0.26960726 0.95700104
vt 0.26960726 0.95368994
vt 0.26960726 0.95076028
vt 0.26960726 0.94802145
vt 0.26960726 0.94545704
vt 0.26960726 0.94304772
vt 0.26960726 0.94040454
vt 0.26960726 0.93722644
vt 0.26960726 0.93373167
vt 0.26960726 0.93019687
vt 0.26960726 0.92663151
vt 0.26960726 0.92286829
vt 0.26960726 0.91893925
vt 0.26960726 0.91489498
vt 0.26960726 0.91066209
vt 0.26960726 0.90633797
vt 0.26960726 0.90223482
vt 0.26960726 0.89864178
vt 0.26960726 0.89559736
vt 0.26960726 0.89280445
vt 0.26960726 0.89007771
vt 0.26960726 0.88740682
vt 0.26960726 0.88476240
vt 0.26960726 0.88211928
vt 0.26960726 0.87949559
vt 0.26960726 0.87684837
vt 0.26960726 0.87375842
vt 0.26960726 0.87026429
vt 0.26960726 0.86704202
vt 0.26960726 0.86480916
vt 0.28490603 0.98354931
vt 0.28490603 0.98103761
vt 0.28490603 0.97709747
vt 0.28490603 0.97258529
vt 0.28490603 0.96833929
vt 0.28490603 0.96441503
vt 0.28490603 0.96048804
vt 0.28490603 0.95676346
vt 0.28490603 0.95345030
vt 0.28490603 0.95052880
vt 0.28490603 0.94781943
vt 0.28490603 0.94530389
vt 0.28490603 0.94295498
vt 0.28490603 0.94037925
vt 0.28490603 0.93726777
vt 0.28490603 0.93382714
vt 0.28490603 0.93032535
vt 0.28490603 0.92677303
vt 0.28490603 0.92301176
vt 0.28490603 0.91907878
vt 0.28490603 0.91503010
vt 0.28490603 0.91080085
vt 0.28490603 0.90649246
vt 0.28490603 0.90241517
vt 0.28490603 0.89885581
vt 0.28490603 0.89585588
vt 0.28490603 0.89312254
vt 0.28490603 0.89046031
vt 0.28490603 0.88785261
vt 0.28490603 0.88527075
vt 0.28490603 0.88269016
vt 0.28490603 0.88012854
vt 0.28490603 0.87754395
vt 0.28490603 0.87452710
vt 0.28490603 0.87111564
vt 0.28490603 0.86796960
vt 0.28490603 0.86578956
vt 0.30020479 0.98495897
vt 0.30020479 0.98243910
vt 0.30020479 0.97846781
vt 0.30020479 0.97390182
vt 0.30020479 0.96958168
vt 0.30020479 0.96556993
vt 0.30020479 0.96154980
vt 0.30020479 0.95773335
vt 0.30020479 0.95433699
vt 0.30020479 0.95135222
vt 0.30020479 0.94860751
vt 0.30020479 0.94608267
vt 0.30020479 0.94374179
vt 0.30020479 0.94117676
vt 0.30020479 0.93806216
vt 0.30020479 0.93459684
vt 0.30020479 0.93104599
vt 0.30020479 0.92742184
vt 0.30020479 0.92357180
vt 0.30020479 0.91953963
vt 0.30020479 0.91538849
vt 0.30020479 0.91106111
vt 0.30020479 0.90666569
vt 0.30020479 0.90251787
vt 0.30020479 0.89890888
vt 0.30020479 0.89588449
vt 0.30020479 0.89314956
vt 0.30020479 0.89049280
vt 0.30020479 0.88789047
vt 0.30020479 0.88531393
vt 0.30020479 0.88273865
vt 0.30020479 0.88018229
vt 0.30020479 0.87760302
vt 0.30020479 0.87459238
vt 0.30020479 0.87118794
vt 0.30020479 0.86804838
vt 0.30020479 0.86587282
vt 0.31550355 0.98834990
vt 0.31550355 0.98576193
vt 0.31550355 0.98166347
vt 0.31550355 0.97693176
vt 0.31550355 0.97242953
vt 0.31550355 0.96822833
vt 0.31550355 0.96401217
vt 0.31550355 0.96000556
vt 0.31550355 0.95643790
vt 0.31550355 0.95331252
vt 0.31550355 0.95046284
vt 0.31550355 0.94786697
vt 0.31550355 0.94547910
vt 0.31550355 0.94286536
vt 0.31550355 0.93967417
vt 0.31550355 0.93610039
vt 0.31550355 0.93241251
vt 0.31550355 0.92862494
vt 0.31550355 0.92458787
vt 0.31550355 0.92035314
vt 0.31550355 0.91599316
vt 0.31550355 0.91145746
vt 0.31550355 0.90686414
vt 0.31550355 0.90254212
vt 0.31550355 0.89879425
vt 0.31550355 0.89567206
vt 0.31550355 0.89287110
vt 0.31550355 0.89015788
vt 0.31550355 0.88750022
vt 0.31550355 0.88486892
vt 0.31550355 0.88223890
vt 0.31550355 0.87962821
vt 0.31550355 0.87699412
vt 0.31550355 0.87391948
vt 0.31550355 0.87044268
vt 0.31550355 0.86723638
vt 0.31550355 0.86501458
vt 0.33080232 0.99379971
vt 0.33080232 0.99108268
vt 0.33080232 0.98675873
vt 0.33080232 0.98174600
vt 0.33080232 0.97694972
vt 0.33080232 0.97245262
vt 0.33080232 0.96793283
vt 0.33080232 0.96363309
vt 0.33080232 0.95980176
vt 0.33080232 0.95645490
vt 0.33080232 0.95342815
vt 0.33080232 0.95069806
vt 0.33080232 0.94820764
vt 0.33080232 0.94548546
vt 0.33080232 0.94214313
vt 0.33080232 0.93837516
vt 0.33080232 0.93445937
vt 0.33080232 0.93041298
vt 0.33080232 0.92608615
vt 0.33080232 0.92154060
vt 0.33080232 0.91686032
vt 0.33080232 0.91200118
vt 0.33080232 0.90709453
vt 0.33080232 0.90249075
vt 0.33080232 0.89851182
vt 0.33080232 0.89521664
vt 0.33080232 0.89228437
vt 0.33080232 0.88945216
vt 0.33080232 0.88667795
vt 0.33080232 0.88393125
vt 0.33080232 0.88118590
vt 0.33080232 0.87846071
vt 0.33080232 0.87571110
vt 0.33080232 0.87250163
vt 0.33080232 0.86887235
vt 0.33080232 0.86552544
vt 0.33080232 0.86320621
vt 0.34610108 1.00129659
vt 0.34610108 0.99839099
vt 0.34610108 0.99374496
vt 0.34610108 0.98833746
vt 0.34610108 0.98313595
vt 0.34610108 0.97823674
vt 0.34610108 0.97330576
vt 0.34610108 0.96860988
vt 0.34610108 0.96442234
vt 0.34610108 0.96077317
vt 0.34610108 0.95749779
vt 0.34610108 0.95457144
vt 0.34610108 0.95192453
vt 0.34610108 0.94903609
vt 0.34610108 0.94547006
vt 0.34610108 0.94142374
vt 0.34610108 0.93719008
vt 0.34610108 0.93278989
vt 0.34610108 0.92807064
vt 0.34610108 0.92310596
vt 0.34610108 0.91799384
vt 0.34610108 0.91269629
vt 0.34610108 0.90736140
vt 0.34610108 0.90236909
vt 0.34610108 0.89806788
vt 0.34610108 0.89452584
vt 0.34610108 0.89139870
vt 0.34610108 0.88838688
vt 0.34610108 0.88543674
vt 0.34610108 0.88251585
vt 0.34610108 0.87959639
vt 0.34610108 0.87669838
vt 0.34610108 0.87377439
vt 0.34610108 0.87036139
vt 0.34610108 0.86650195
vt 0.34610108 0.86294279
vt 0.34610108 0.86047647
vt 0.36139985 1.01071467
vt 0.36139985 1.00756508
vt 0.36139985 1.00250683
vt 0.36139985 0.99659817
vt 0.36139985 0.99088721
vt 0.36139985 0.98548605
vt 0.36139985 0.98004275
vt 0.36139985 0.97485375
vt 0.36139985 0.97022288
vt 0.36139985 0.96619535
vt 0.36139985 0.96260416
vt 0.36139985 0.95942354
vt 0.36139985 0.95656997
vt 0.36139985 0.95346172
vt 0.36139985 0.94960449
vt 0.36139985 0.94520128
vt 0.36139985 0.94056553
vt 0.36139985 0.93572232
vt 0.36139985 0.93051413
vt 0.36139985 0.92502838
vt 0.36139985 0.91937951
vt 0.36139985 0.91353545
vt 0.36139985 0.90766441
vt 0.36139985 0.90218345
vt 0.36139985 0.89747458
vt 0.36139985 0.89361668
vt 0.36139985 0.89023561
vt 0.36139985 0.88698791
vt 0.36139985 0.88380673
vt 0.36139985 0.88065708
vt 0.36139985 0.87750898
vt 0.36139985 0.87438402
vt 0.36139985 0.87123103
vt 0.36139985 0.86755073
vt 0.36139985 0.86338904
vt 0.36139985 0.85955114
vt 0.36139985 0.85689167
vt 0.37669861 1.02179436
vt 0.37669861 1.01835223
vt 0.37669861 1.01280315
vt 0.37669861 1.00630084
vt 0.37669861 0.99999019
vt 0.37669861 0.99400101
vt 0.37669861 0.98795823
vt 0.37669861 0.98219266
vt 0.37669861 0.97704352
vt 0.37669861 0.97257207
vt 0.37669861 0.96860683
vt 0.37669861 0.96512118
vt 0.37669861 0.96201675
vt 0.37669861 0.95864142
vt 0.37669861 0.95443377
vt 0.37669861 0.94960510
vt 0.37669861 0.94449417
vt 0.37669861 0.93913090
vt 0.37669861 0.93335061
vt 0.37669861 0.92725606
vt 0.37669861 0.92098011
vt 0.37669861 0.91449639
vt 0.37669861 0.90799599
vt 0.37669861 0.90193972
vt 0.37669861 0.89674908
vt 0.37669861 0.89251516
vt 0.37669861 0.88882828
vt 0.37669861 0.88529517
vt 0.37669861 0.88183444
vt 0.37669861 0.87840800
vt 0.37669861 0.87498325
vt 0.37669861 0.87158366
vt 0.37669861 0.86815360
vt 0.37669861 0.86414988
vt 0.37669861 0.85962246
vt 0.37669861 0.85544729
vt 0.37669861 0.85255410
vt 0.39199737 1.03413298
vt 0.39199737 1.03035937
vt 0.39199737 1.02425747
vt 0.39199737 1.01708970
vt 0.39199737 1.01011068
vt 0.39199737 1.00346902
vt 0.39199737 0.99676191
vt 0.39199737 0.99035793
vt 0.39199737 0.98463517
vt 0.39199737 0.97967105
vt 0.39199737 0.97528729
vt 0.39199737 0.97145648
vt 0.39199737 0.96806498
vt 0.39199737 0.96438345
vt 0.39199737 0.95977742
vt 0.39199737 0.95446917
vt 0.39199737 0.94882681
vt 0.39199737 0.94288543
vt 0.39199737 0.93647105
vt 0.39199737 0.92970265
vt 0.39199737 0.92273264
vt 0.39199737 0.91553972
vt 0.39199737 0.90833969
vt 0.39199737 0.90164211
vt 0.39199737 0.89591262
vt 0.39199737 0.89125535
vt 0.39199737 0.88722059
vt 0.39199737 0.88336145
vt 0.39199737 0.87958135
vt 0.39199737 0.87583873
vt 0.39199737 0.87209794
vt 0.39199737 0.86838463
vt 0.39199737 0.86463804
vt 0.39199737 0.86026485
vt 0.39199737 0.85531964
vt 0.39199737 0.85075918
vt 0.39199737 0.84759901
vt 0.40729614 1.04719077
vt 0.40729614 1.04305872
vt 0.40729614 1.03636344
vt 0.40729614 1.02848542
vt 0.40729614 1.02079806
vt 0.40729614 1.01346878
vt 0.40729614 1.00606276
vt 0.40729614 0.99898798
vt 0.40729614 0.99266309
vt 0.40729614 0.98718048
vt 0.40729614 0.98235221
vt 0.40729614 0.97814982
vt 0.40729614 0.97444479
vt 0.40729614 0.97042770
vt 0.40729614 0.96538927
vt 0.40729614 0.95956583
vt 0.40729614 0.95335805
vt 0.40729614 0.94680610
vt 0.40729614 0.93972440
vt 0.40729614 0.93224794
vt 0.40729614 0.92454871
vt 0.40729614 0.91660901
vt 0.40729614 0.90866990
vt 0.40729614 0.90129261
vt 0.40729614 0.89498965
vt 0.40729614 0.88987826
vt 0.40729614 0.88546563
vt 0.40729614 0.88125058
vt 0.40729614 0.87712186
vt 0.40729614 0.87303408
vt 0.40729614 0.86894830
vt 0.40729614 0.86489254
vt 0.40729614 0.86080042
vt 0.40729614 0.85602392
vt 0.40729614 0.85062264
vt 0.40729614 0.84564160
vt 0.40729614 0.84218999
vn 0.107071 -0.086160 0.990511
vn 0.107059 -0.087509 0.990394
vn 0.107272 -0.060851 0.992366
vn 0.107449 0.020057 0.994008
vn 0.106037 0.162825 0.980941
vn 0.102181 0.309882 0.945268
vn 0.097520 0.420250 0.902153
vn 0.091141 0.529912 0.843141
vn 0.079669 0.671167 0.737012
vn 0.059217 0.834503 0.547812
vn 0.032581 0.952940 0.301403
vn 0.002415 0.999747 0.022343
vn -0.032258 0.953890 -0.298420
vn -0.060452 0.826799 -0.559239
vn -0.077078 0.696866 -0.713048
vn -0.088431 0.568281 -0.818069
vn -0.097196 0.426702 -0.899154
vn -0.102854 0.289964 -0.951495
vn -0.105838 0.173667 -0.979101
vn -0.107224 0.067735 -0.991925
vn -0.107405 -0.035094 -0.993596
vn -0.106516 -0.132985 -0.985378
vn -0.104704 -0.225445 -0.968613
vn -0.101531 -0.327854 -0.939257
vn -0.093995 -0.484828 -0.869544
vn -0.078189 -0.686066 -0.723326
vn -0.063746 -0.805096 -0.589709
vn -0.063416 -0.807349 -0.586656
vn -0.070121 -0.757821 -0.648684
vn -0.073704 -0.727789 -0.681829
vn -0.077982 -0.688102 -0.721411
vn -0.087350 -0.582571 -0.808073
vn -0.098858 -0.392252 -0.914530
vn -0.104935 -0.215936 -0.970752
vn -0.106610 -0.126295 -0.986247
vn -0.106913 -0.101742 -0.989049
vn -0.107471 0.000000 -0.994208
vn 0.105616 -0.085866 0.990693
vn 0.105605 -0.087049 0.990591
vn 0.105814 -0.060373 0.992551
vn 0.105987 0.019838 0.994170
vn 0.104634 0.160463 0.981480
vn 0.100965 0.304743 0.947068
vn 0.096545 0.412990 0.905604
vn 0.090510 0.520593 0.848994
vn 0.079624 0.660170 0.746884
vn 0.059965 0.824631 0.562483
vn 0.033870 0.947584 0.317707
vn 0.003794 0.999359 0.035592
vn -0.031180 0.955766 -0.292471
vn -0.059646 0.826687 -0.559491
vn -0.076306 0.694163 -0.715762
vn -0.087560 0.563693 -0.821330
vn -0.096137 0.421369 -0.901779
vn -0.101599 0.285365 -0.953019
vn -0.104453 0.170607 -0.979787
vn -0.105773 0.066501 -0.992164
vn -0.105944 -0.034479 -0.993774
vn -0.105095 -0.130894 -0.985810
vn -0.103354 -0.222355 -0.969472
vn -0.100287 -0.324046 -0.940711
vn -0.092959 -0.480647 -0.871973
vn -0.077399 -0.683312 -0.726012
vn -0.062970 -0.804456 -0.590666
vn -0.062552 -0.807349 -0.586749
vn -0.069166 -0.757821 -0.648787
vn -0.072700 -0.727789 -0.681937
vn -0.076920 -0.688102 -0.721525
vn -0.086161 -0.582571 -0.808200
vn -0.097512 -0.392252 -0.914675
vn -0.103506 -0.215936 -0.970906
vn -0.105159 -0.126295 -0.986403
vn -0.105457 -0.101742 -0.989205
vn -0.106007 0.000000 -0.994365
vn 0.104162 -0.085509 0.990878
vn 0.104153 -0.086492 0.990793
vn 0.104358 -0.059797 0.992741
vn 0.104525 0.019575 0.994330
vn 0.103237 0.157658 0.982082
vn 0.099773 0.298657 0.949131
vn 0.095615 0.404388 0.909576
vn 0.089956 0.509523 0.855742
vn 0.079716 0.646984 0.758325
vn 0.060945 0.812505 0.579759
vn 0.035459 0.940723 0.337317
vn 0.005447 0.998642 0.051818
vn -0.029971 0.958025 -0.285114
vn -0.058844 0.826550 -0.559778
vn -0.075584 0.690864 -0.719023
vn -0.086746 0.558143 -0.825198
vn -0.095118 0.414990 -0.904840
vn -0.100366 0.279911 -0.954765
vn -0.103077 0.166996 -0.980555
vn -0.104323 0.065046 -0.992414
vn -0.104485 -0.033754 -0.993953
vn -0.103679 -0.128417 -0.986286
vn -0.102015 -0.218675 -0.970450
vn -0.099066 -0.319487 -0.942398
vn -0.091964 -0.475603 -0.874840
vn -0.076658 -0.679952 -0.729239
vn -0.062212 -0.803670 -0.591814
vn -0.061689 -0.807349 -0.586840
vn -0.068212 -0.757821 -0.648888
vn -0.071697 -0.727789 -0.682043
vn -0.075859 -0.688102 -0.721638
vn -0.084972 -0.582571 -0.808326
vn -0.096166 -0.392252 -0.914817
vn -0.102078 -0.215936 -0.971057
vn -0.103708 -0.126295 -0.986557
vn -0.104002 -0.101742 -0.989359
vn -0.104545 0.000000 -0.994520
vn 0.102709 -0.085099 0.991065
vn 0.102703 -0.085855 0.991000
vn 0.102903 -0.059143 0.992932
vn 0.103064 0.019279 0.994488
vn 0.101845 0.154524 0.982726
vn 0.098594 0.291883 0.951359
vn 0.094709 0.394810 0.913868
vn 0.089441 0.497164 0.863035
vn 0.079877 0.632112 0.770749
vn 0.062061 0.798457 0.598844
vn 0.037258 0.932396 0.359513
vn 0.007315 0.997479 0.070587
vn -0.028656 0.960584 -0.276507
vn -0.058046 0.826391 -0.560096
vn -0.074900 0.687059 -0.722731
vn -0.085968 0.551812 -0.829526
vn -0.094122 0.407805 -0.908205
vn -0.099143 0.273832 -0.956654
vn -0.101705 0.162992 -0.981371
vn -0.102876 0.063437 -0.992669
vn -0.103027 -0.032951 -0.994133
vn -0.102266 -0.125658 -0.986789
vn -0.100683 -0.214554 -0.971509
vn -0.097858 -0.314351 -0.944250
vn -0.090996 -0.469866 -0.878035
vn -0.075955 -0.676078 -0.732905
vn -0.061469 -0.802759 -0.593127
vn -0.060827 -0.807349 -0.586930
vn -0.067258 -0.757821 -0.648987
vn -0.070695 -0.727789 -0.682148
vn -0.074799 -0.688102 -0.721748
vn -0.083784 -0.582571 -0.808450
vn -0.094822 -0.392252 -0.914957
vn -0.100651 -0.215936 -0.971206
vn -0.102258 -0.126295 -0.986708
vn -0.102548 -0.101742 -0.989511
vn -0.103083 0.000000 -0.994673
vn 0.101258 -0.084648 0.991253
vn 0.101254 -0.085159 0.991209
vn 0.101449 -0.058434 0.993123
vn 0.101604 0.018962 0.994644
vn 0.100455 0.151188 0.983388
vn 0.097417 0.284704 0.953653
vn 0.093804 0.384658 0.918280
vn 0.088925 0.484031 0.870521
vn 0.080041 0.616145 0.783555
vn 0.063218 0.782946 0.618869
vn 0.039168 0.922738 0.383432
vn 0.009329 0.995778 0.091322
vn -0.027261 0.963346 -0.266872
vn -0.057250 0.826215 -0.560439
vn -0.074240 0.682865 -0.726762
vn -0.085209 0.544920 -0.834147
vn -0.093135 0.400094 -0.911730
vn -0.097923 0.267379 -0.958603
vn -0.100334 0.158767 -0.982205
vn -0.101429 0.061743 -0.992925
vn -0.101570 -0.032103 -0.994310
vn -0.100854 -0.122733 -0.987302
vn -0.099353 -0.210157 -0.972606
vn -0.096655 -0.308833 -0.946192
vn -0.090040 -0.463640 -0.881437
vn -0.075274 -0.671811 -0.736888
vn -0.060736 -0.801749 -0.594567
vn -0.059965 -0.807349 -0.587019
vn -0.066305 -0.757821 -0.649085
vn -0.069693 -0.727789 -0.682251
vn -0.073739 -0.688102 -0.721857
vn -0.082597 -0.582571 -0.808572
vn -0.093478 -0.392252 -0.915096
vn -0.099225 -0.215936 -0.971353
vn -0.100809 -0.126295 -0.986857
vn -0.101095 -0.101742 -0.989661
vn -0.101623 0.000000 -0.994823
vn 0.099808 -0.084172 0.991440
vn 0.099806 -0.084430 0.991418
vn 0.099996 -0.057696 0.993314
vn 0.100146 0.018634 0.994798
vn 0.099063 0.147786 0.984046
vn 0.096232 0.277414 0.955919
vn 0.092880 0.374349 0.922625
vn 0.088375 0.470665 0.877875
vn 0.080151 0.599734 0.796175
vn 0.064323 0.766551 0.638954
vn 0.041084 0.912010 0.408106
vn 0.011406 0.993495 0.113299
vn -0.025822 0.966198 -0.256504
vn -0.056455 0.826027 -0.560796
vn -0.073587 0.678427 -0.730973
vn -0.084450 0.537721 -0.838883
vn -0.092140 0.392159 -0.915271
vn -0.096696 0.260815 -0.960534
vn -0.098961 0.154495 -0.983025
vn -0.099983 0.060034 -0.993176
vn -0.100114 -0.031246 -0.994485
vn -0.099442 -0.119759 -0.987810
vn -0.098022 -0.205660 -0.973702
vn -0.095450 -0.303149 -0.948151
vn -0.089084 -0.457158 -0.884913
vn -0.074601 -0.667298 -0.741046
vn -0.060008 -0.800673 -0.596089
vn -0.059104 -0.807349 -0.587106
vn -0.065353 -0.757821 -0.649182
vn -0.068692 -0.727789 -0.682352
vn -0.072680 -0.688102 -0.721965
vn -0.081411 -0.582571 -0.808693
vn -0.092136 -0.392252 -0.915232
vn -0.097800 -0.215936 -0.971497
vn -0.099361 -0.126295 -0.987004
vn -0.099643 -0.101742 -0.989808
vn -0.100163 0.000000 -0.994971
vn 0.098358 -0.083691 0.991626
vn 0.098358 -0.083694 0.991625
vn 0.098544 -0.056959 0.993501
vn 0.098688 0.018310 0.994950
vn 0.097669 0.144451 0.984680
vn 0.095030 0.270302 0.958074
vn 0.091922 0.364293 0.926737
vn 0.087764 0.457605 0.884813
vn 0.080156 0.583552 0.808110
vn 0.065293 0.749947 0.658268
vn 0.042900 0.900610 0.432507
vn 0.013457 0.990663 0.135667
vn -0.024378 0.969021 -0.245773
vn -0.055661 0.825834 -0.561159
vn -0.072924 0.673910 -0.735206
vn -0.083671 0.530496 -0.843548
vn -0.091124 0.384315 -0.918694
vn -0.095457 0.254399 -0.962377
vn -0.097583 0.150344 -0.983806
vn -0.098536 0.058376 -0.993420
vn -0.098659 -0.030414 -0.994656
vn -0.098028 -0.116856 -0.988299
vn -0.096685 -0.201240 -0.974759
vn -0.094235 -0.297525 -0.950052
vn -0.088113 -0.450673 -0.888330
vn -0.073918 -0.662707 -0.745221
vn -0.059279 -0.799569 -0.597641
vn -0.058243 -0.807349 -0.587192
vn -0.064401 -0.757821 -0.649277
vn -0.067692 -0.727789 -0.682452
vn -0.071621 -0.688102 -0.722070
vn -0.080225 -0.582571 -0.808811
vn -0.090794 -0.392252 -0.915366
vn -0.096376 -0.215936 -0.971639
vn -0.097914 -0.126295 -0.987149
vn -0.098192 -0.101742 -0.989953
vn -0.098705 0.000000 -0.995117
vn 0.096910 -0.083222 0.991808
vn 0.096912 -0.082984 0.991828
vn 0.097093 -0.056252 0.993684
vn 0.097231 0.018002 0.995099
vn 0.096271 0.141313 0.985273
vn 0.093807 0.263641 0.960049
vn 0.090918 0.354880 0.930481
vn 0.087070 0.445362 0.891107
vn 0.080020 0.568261 0.818948
vn 0.066059 0.733869 0.676072
vn 0.044518 0.889064 0.455613
vn 0.015386 0.987404 0.157469
vn -0.022974 0.971693 -0.235126
vn -0.054866 0.825644 -0.561517
vn -0.072236 0.669502 -0.739289
vn -0.082855 0.523541 -0.847962
vn -0.090076 0.376876 -0.921873
vn -0.094200 0.248380 -0.964071
vn -0.096198 0.146472 -0.984526
vn -0.097090 0.056833 -0.993652
vn -0.097204 -0.029637 -0.994823
vn -0.096612 -0.114133 -0.988757
vn -0.095340 -0.197071 -0.975742
vn -0.093004 -0.292183 -0.951829
vn -0.087114 -0.444450 -0.891558
vn -0.073209 -0.658230 -0.749248
vn -0.058544 -0.798484 -0.599162
vn -0.057383 -0.807349 -0.587277
vn -0.063450 -0.757821 -0.649370
vn -0.066692 -0.727789 -0.682551
vn -0.070564 -0.688102 -0.722175
vn -0.079041 -0.582571 -0.808928
vn -0.089454 -0.392252 -0.915498
vn -0.094953 -0.215936 -0.971780
vn -0.096468 -0.126295 -0.987291
vn -0.096743 -0.101742 -0.990096
vn -0.097247 0.000000 -0.995260
vn 0.095462 -0.082788 0.991985
vn 0.095465 -0.082328 0.992022
vn 0.095642 -0.055605 0.993861
vn 0.095776 0.017723 0.995245
vn 0.094868 0.138493 0.985809
vn 0.092556 0.257681 0.961787
vn 0.089858 0.346462 0.933750
vn 0.086280 0.434403 0.896577
vn 0.079717 0.554481 0.828369
vn 0.066569 0.719066 0.691746
vn 0.045851 0.877998 0.476462
vn 0.017100 0.983937 0.177694
vn -0.021659 0.974101 -0.225072
vn -0.054069 0.825467 -0.561855
vn -0.071506 0.665403 -0.743051
vn -0.081986 0.517158 -0.851954
vn -0.088987 0.370143 -0.924703
vn -0.092920 0.242986 -0.965569
vn -0.094806 0.143019 -0.985169
vn -0.095643 0.055459 -0.993870
vn -0.095751 -0.028945 -0.994984
vn -0.095191 -0.111695 -0.989173
vn -0.093984 -0.193315 -0.976625
vn -0.091751 -0.287342 -0.953423
vn -0.086078 -0.438756 -0.894474
vn -0.072459 -0.654070 -0.752956
vn -0.057796 -0.797468 -0.600586
vn -0.056524 -0.807349 -0.587360
vn -0.062500 -0.757821 -0.649463
vn -0.065693 -0.727789 -0.682647
vn -0.069507 -0.688102 -0.722277
vn -0.077857 -0.582571 -0.809042
vn -0.088114 -0.392252 -0.915628
vn -0.093531 -0.215936 -0.971917
vn -0.095024 -0.126295 -0.987431
vn -0.095294 -0.101742 -0.990236
vn -0.095791 0.000000 -0.995401
vn 0.094014 -0.082409 0.992154
vn 0.094019 -0.081760 0.992207
vn 0.094192 -0.055048 0.994031
vn 0.094321 0.017484 0.995388
vn 0.093457 0.136101 0.986277
vn 0.091275 0.252645 0.963244
vn 0.088737 0.339352 0.936465
vn 0.085385 0.425141 0.901091
vn 0.079230 0.542773 0.836134
vn 0.066785 0.706260 0.704795
vn 0.046828 0.868093 0.494188
vn 0.018509 0.980564 0.195326
vn -0.020483 0.976144 -0.216158
vn -0.053269 0.825310 -0.562161
vn -0.070720 0.661819 -0.746320
vn -0.081053 0.511643 -0.855367
vn -0.087849 0.364395 -0.927092
vn -0.091615 0.238421 -0.966831
vn -0.093405 0.140109 -0.985721
vn -0.094196 0.054303 -0.994072
vn -0.094297 -0.028361 -0.995140
vn -0.093767 -0.109631 -0.989540
vn -0.092615 -0.190123 -0.977382
vn -0.090473 -0.283205 -0.954782
vn -0.084995 -0.433847 -0.896968
vn -0.071654 -0.650433 -0.756176
vn -0.057030 -0.796574 -0.601845
vn -0.055665 -0.807349 -0.587442
vn -0.061550 -0.757821 -0.649553
vn -0.064695 -0.727789 -0.682743
vn -0.068451 -0.688102 -0.722378
vn -0.076674 -0.582571 -0.809155
vn -0.086775 -0.392252 -0.915756
vn -0.092110 -0.215936 -0.972053
vn -0.093580 -0.126295 -0.987569
vn -0.093846 -0.101742 -0.990374
vn -0.094335 0.000000 -0.995540
vn 0.092567 -0.082106 0.992315
vn 0.092573 -0.081308 0.992381
vn 0.092742 -0.054607 0.994192
vn 0.092867 0.017296 0.995528
vn 0.092040 0.134234 0.986666
vn 0.089962 0.248726 0.964387
vn 0.087553 0.333823 0.938561
vn 0.084380 0.417936 0.904549
vn 0.078551 0.533628 0.842064
vn 0.066682 0.696117 0.714825
vn 0.047392 0.860028 0.508041
vn 0.019533 0.977636 0.209393
vn -0.019491 0.977733 -0.208945
vn -0.052465 0.825184 -0.562422
vn -0.069864 0.658951 -0.748934
vn -0.080043 0.507272 -0.858061
vn -0.086658 0.359886 -0.928963
vn -0.090283 0.234864 -0.967826
vn -0.091994 0.137850 -0.986172
vn -0.092748 0.053407 -0.994256
vn -0.092845 -0.027909 -0.995289
vn -0.092337 -0.108024 -0.989851
vn -0.091231 -0.187627 -0.977994
vn -0.089167 -0.279956 -0.955863
vn -0.083857 -0.429965 -0.898943
vn -0.070779 -0.647524 -0.758751
vn -0.056238 -0.795854 -0.602871
vn -0.054807 -0.807349 -0.587523
vn -0.060601 -0.757821 -0.649643
vn -0.063698 -0.727789 -0.682837
vn -0.067396 -0.688102 -0.722477
vn -0.075492 -0.582571 -0.809267
vn -0.085437 -0.392252 -0.915881
vn -0.090690 -0.215936 -0.972187
vn -0.092137 -0.126295 -0.987705
vn -0.092399 -0.101742 -0.990510
vn -0.092881 0.000000 -0.995677
vn 0.091120 -0.081899 0.992466
vn 0.091127 -0.081000 0.992540
vn 0.091293 -0.054308 0.994342
vn 0.091414 0.017169 0.995665
vn 0.090616 0.132977 0.986968
vn 0.088616 0.246095 0.965186
vn 0.086302 0.330113 0.939988
vn 0.083262 0.413101 0.906871
vn 0.077674 0.527472 0.846014
vn 0.066244 0.689220 0.721517
vn 0.047502 0.854436 0.517380
vn 0.020108 0.975514 0.219017
vn -0.018726 0.978799 -0.203964
vn -0.051656 0.825098 -0.562624
vn -0.068928 0.656985 -0.750746
vn -0.078950 0.504298 -0.859913
vn -0.085408 0.356840 -0.930253
vn -0.088923 0.232475 -0.968529
vn -0.090574 0.136336 -0.986514
vn -0.091300 0.052807 -0.994422
vn -0.091393 -0.027605 -0.995432
vn -0.090903 -0.106945 -0.990101
vn -0.089833 -0.185945 -0.978445
vn -0.087830 -0.277760 -0.956627
vn -0.082659 -0.427328 -0.900310
vn -0.069826 -0.645531 -0.760536
vn -0.055418 -0.795358 -0.603601
vn -0.053949 -0.807349 -0.587603
vn -0.059653 -0.757821 -0.649730
vn -0.062701 -0.727789 -0.682929
vn -0.066341 -0.688102 -0.722575
vn -0.074310 -0.582571 -0.809376
vn -0.084100 -0.392252 -0.916005
vn -0.089271 -0.215936 -0.972318
vn -0.090695 -0.126295 -0.987838
vn -0.090953 -0.101742 -0.990644
vn -0.091428 0.000000 -0.995812
f 1/1/1 38/38/38 39/39/39
f 1/1/1 39/39/39 2/2/2
f 2/2/2 39/39/39 40/40/40
f 2/2/2 40/40/40 3/3/3
f 3/3/3 40/40/40 41/41/41
f 3/3/3 41/41/41 4/4/4
f 4/4/4 41/41/41 42/42/42
f 4/4/4 42/42/42 5/5/5
f 5/5/5 42/42/42 43/43/43
f 5/5/5 43/43/43 6/6/6
f 6/6/6 43/43/43 44/44/44
f 6/6/6 44/44/44 7/7/7
f 7/7/7 44/44/44 45/45/45
f 7/7/7 45/45/45 8/8/8
f 8/8/8 45/45/45 46/46/46
f 8/8/8 46/46/46 9/9/9
f 9/9/9 46/46/46 47/47/47
f 9/9/9 47/47/47 10/10/10
f 10/10/10 47/47/47 48/48/48
f 10/10/10 48/48/48 11/11/11
f 11/11/11 48/48/48 49/49/49
f 11/11/11 49/49/49 12/12/12
f 12/12/12 49/49/49 50/50/50
f 12/12/12 50/50/50 13/13/13
f 13/13/13 50/50/50 51/51/51
f 13/13/13 51/51/51 14/14/14
f 14/14/14 51/51/51 52/52/52
f 14/14/14 52/52/52 15/15/15
f 15/15/15 52/52/52 53/53/53
f 15/15/15 53/53/53 16/16/16
f 16/16/16 53/53/53 54/54/54
f 16/16/16 54/54/54 17/17/17
f 17/17/17 54/54/54 55/55/55
f 17/17/17 55/55/55 18/18/18
f 18/18/18 55/55/55 56/56/56
f 18/18/18 56/56/56 19/19/19
f 19/19/19 56/56/56 57/57/57
f 19/19/19 57/57/57 20/20/20
f 20/20/20 57/57/57 58/58/58
f 20/20/20 58/58/58 21/21/21
f 21/21/21 58/58/58 59/59/59
f 21/21/21 59/59/59 22/22/22
f 22/22/22 59/59/59 60/60/60
f 22/22/22 60/60/60 23/23/23
f 23/23/23 60/60/60 61/61/61
f 23/23/23 61/61/61 24/24/24
f 24/24/24 61/61/61 62/62/62
f 24/24/24 62/62/62 25/25/25
f 25/25/25 62/62/62 63/63/63
f 25/25/25 63/63/63 26/26/26
f 26/26/26 63/63/63 64/64/64
f 26/26/26 64/64/64 27/27/27
f 27/27/27 64/64/64 65/65/65
f 27/27/27 65/65/65 28/28/28
f 28/28/28 65/65/65 66/66/66
f 28/28/28 66/66/66 29/29/29
f 29/29/29 66/66/66 67/67/67
f 29/29/29 67/67/67 30/30/30
f 30/30/30 67/67/67 68/68/68
f 30/30/30 68/68/68 31/31/31
f 31/31/31 68/68/68 69/69/69
f 31/31/31 69/69/69 32/32/32
f 32/32/32 69/69/69 70/70/70
f 32/32/32 70/70/70 33/33/33
f 33/33/33 70/70/70 71/71/71
f 33/33/33 71/71/71 34/34/34
f 34/34/34 71/71/71 72/72/72
f 34/34/34 72/72/72 35/35/35
f 35/35/35 72/72/72 73/73/73
f 35/35/35 73/73/73 36/36/36
f 36/36/36 73/73/73 74/74/74
f 36/36/36 74/74/74 37/37/37
f 38/38/38 75/75/75 76/76/76
f 38/38/38 76/76/76 39/39/39
f 39/39/39 76/76/76 77/77/77
f 39/39/39 77/77/77 40/40/40
f 40/40/40 77/77/77 78/78/78
f 40/40/40 78/78/78 41/41/41
f 41/41/41 78/78/78 79/79/79
f 41/41/41 79/79/79 42/42/42
f 42/42/42 79/79/79 80/80/80
f 42/42/42 80/80/80 43/43/43
f 43/43/43 80/80/80 81/81/81
f 43/43/43 81/81/81 44/44/44
f 44/44/44 81/81/81 82/82/82
f 44/44/44 82/82/82 45/45/45
f 45/45/45 82/82/82 83/83/83
f 45/45/45 83/83/83 46/46/46
f 46/46/46 83/83/83 84/84/84
f 46/46/46 84/84/84 47/47/47
f 47/47/47 84/84/84 85/85/85
f 47/47/47 85/85/85 48/48/48
f 48/48/48 85/85/85 86/86/86
f 48/48/48 86/86/86 49/49/49
f 49/49/49 86/86/86 87/87/87
f 49/49/49 87/87/87 50/50/50
f 50/50/50 87/87/87 88/88/88
f 50/50/50 88/88/88 51/51/51
f 51/51/51 88/88/88 89/89/89
f 51/51/51 89/89/89 52/52/52
f 52/52/52 89/89/89 90/90/90
f 52/52/52 90/90/90 53/53/53
f 53/53/53 90/90/90 91/91/91
f 53/53/53 91/91/91 54/54/54
f 54/54/54 91/91/91 92/92/92
f 54/54/54 92/92/92 55/55/55
f 55/55/55 92/92/92 93/93/93
f 55/55/55 93/93/93 56/56/56
f 56/56/56 93/93/93 94/94/94
f 56/56/56 94/94/94 57/57/57
f 57/57/57 94/94/94 95/95/95
f 57/57/57 95/95/95 58/58/58
f 58/58/58 95/95/95 96/96/96
f 58/58/58 96/96/96 59/59/59
f 59/59/59 96/96/96 97/97/97
f 59/59/59 97/97/97 60/60/60
f 60/60/60 97/97/97 98/98/98
f 60/60/60 98/98/98 61/61/61
f 61/61/61 98/98/98 99/99/99
f 61/61/61 99/99/99 62/62/62
f 62/62/62 99/99/99 100/100/100
f 62/62/62 100/100/100 63/63/63
f 63/63/63 100/100/100 101/101/101
f 63/63/63 101/101/101 64/64/64
f 64/64/64 101/101/101 102/102/102
f 64/64/64 102/102/102 65/65/65
f 65/65/65 102/102/102 103/103/103
f 65/65/65 103/103/103 66/66/66
f 66/66/66 103/103/103 104/104/104
f 66/66/66 104/104/104 67/67/67
f 67/67/67 104/104/104 105/105/105
f 67/67/67 105/105/105 68/68/68
f 68/68/68 105/105/105 106/106/106
f 68/68/68 106/106/106 69/69/69
f 69/69/69 106/106/106 107/107/107
f 69/69/69 107/107/107 70/70/70
f 70/70/70 107/107/107 108/108/108
f 70/70/70 108/108/108 71/71/71
f 71/71/71 108/108/108 109/109/109
f 71/71/71 109/109/109 72/72/72
f 72/72/72 109/109/109 110/110/110
f 72/72/72 110/110/110 73/73/73
f 73/73/73 110/110/110 111/111/111
f 73/73/73 111/111/111 74/74/74
f 75/75/75 112/112/112 113/113/113
f 75/75/75 113/113/113 76/76/76
f 76/76/76 113/113/113 114/114/114
f 76/76/76 114/114/114 77/77/77
f 77/77/77 114/114/114 115/115/115
f 77/77/77 115/115/115 78/78/78
f 78/78/78 115/115/115 116/116/116
f 78/78/78 116/116/116 79/79/79
f 79/79/79 116/116/116 117/117/117
f 79/79/79 117/117/117 80/80/80
f 80/80/80 117/117/117 118/118/118
f 80/80/80 118/118/118 81/81/81
f 81/81/81 118/118/118 119/119/119
f 81/81/81 119/119/119 82/82/82
f 82/82/82 119/119/119 120/120/120
f 82/82/82 120/120/120 83/83/83
f 83/83/83 120/120/120 121/121/121
f 83/83/83 121/121/121 84/84/84
f 84/84/84 121/121/121 122/122/122
f 84/84/84 122/122/122 85/85/85
f 85/85/85 122/122/122 123/123/123
f 85/85/85 123/123/123 86/86/86
f 86/86/86 123/123/123 124/124/124
f 86/86/86 124/124/124 87/87/87
f 87/87/87 124/124/124 125/125/125
f 87/87/87 125/125/125 88/88/88
f 88/88/88 125/125/125 126/126/126
f 88/88/88 126/126/126 89/89/89
f 89/89/89 126/126/126 127/127/127
f 89/89/89 127/127/127 90/90/90
f 90/90/90 127/127/127 128/128/128
f 90/90/90 128/128/128 91/91/91
f 91/91/91 128/128/128 129/129/129
f 91/91/91 129/129/129 92/92/92
f 92/92/92 129/129/129 130/130/130
f 92/92/92 130/130/130 93/93/93
f 93/93/93 130/130/130 131/131/131
f 93/93/93 131/131/131 94/94/94
f 94/94/94 131/131/131 132/132/132
f 94/94/94 132/132/132 95/95/95
f 95/95/95 132/132/132 133/133/133
f 95/95/95 133/133/133 96/96/96
f 96/96/96 133/133/133 134/134/134
f 96/96/96 134/134/134 97/97/97
f 97/97/97 134/134/134 135/135/135
f 97/97/97 135/135/135 98/98/98
f 98/98/98 135/135/135 136/136/136
f 98/98/98 136/136/136 99/99/99
f 99/99/99 136/136/136 137/137/137
f 99/99/99 137/137/137 100/100/100
f 100/100/100 137/137/137 138/138/138
f 100/100/100 138/138/138 101/101/101
f 101/101/101 138/138/138 139/139/139
f 101/101/101 139/139/139 102/102/102
f 102/102/102 139/139/139 140/140/140
f 102/102/102 140/140/140 103/103/103
f 103/103/103 140/140/140 141/141/141
f 103/103/103 141/141/141 104/104/104
f 104/104/104 141/141/141 142/142/142
f 104/104/104 142/142/142 105/105/105
f 105/105/105 142/142/142 143/143/143
f 105/105/105 143/143/143 106/106/106
f 106/106/106 143/143/143 144/144/144
f 106/106/106 144/144/144 107/107/107
f 107/107/107 144/144/144 145/145/145
f 107/107/107 145/145/145 108/108/108
f 108/108/108 145/145/145 146/146/146
f 108/108/108 146/146/146 109/109/109
f 109/109/109 146/146/146 147/147/147
f 109/109/109 147/147/147 110/110/110
f 110/110/110 147/147/147 148/148/148
f 110/110/110 148/148/148 111/111/111
f 112/112/112 149/149/149 150/150/150
f 112/112/112 150/150/150 113/113/113
f 113/113/113 150/150/150 151/151/151
f 113/113/113 151/151/151 114/114/114
f 114/114/114 151/151/151 152/152/152
f 114/114/114 152/152/152 115/115/115
f 115/115/115 152/152/152 153/153/153
f 115/115/115 153/153/153 116/116/116
f 116/116/116 153/153/153 154/154/154
f 116/116/116 154/154/154 117/117/117
f 117/117/117 154/154/154 155/155/155
f 117/117/117 155/155/155 118/118/118
f 118/118/118 155/155/155 156/156/156
f 118/118/118 156/156/156 119/119/119
f 119/119/119 156/156/156 157/157/157
f 119/119/119 157/157/157 120/120/120
f 120/120/120 157/157/157 158/158/158
f 120/120/120 158/158/158 121/121/121
f 121/121/121 158/158/158 159/159/159
f 121/121/121 159/159/159 122/122/122
f 122/122/122 159/159/159 160/160/160
f 122/122/122 160/160/160 123/123/123
f 123/123/123 160/160/160 161/161/161
f 123/123/123 161/161/161 124/124/124
f 124/124/124 161/161/161 162/162/162
f 124/124/124 162/162/162 125/125/125
f 125/125/125 162/162/162 163/163/163
f 125/125/125 163/163/163 126/126/126
f 126/126/126 163/163/163 164/164/164
f 126/126/126 164/164/164 127/127/127
f 127/127/127 164/164/164 165/165/165
f 127/127/127 165/165/165 128/128/128
f 128/128/128 165/165/165 166/166/166
f 128/128/128 166/166/166 129/129/129
f 129/129/129 166/166/166 167/167/167
f 129/129/129 167/167/167 130/130/130
f 130/130/130 167/167/167 168/168/168
f 130/130/130 168/168/168 131/131/131
f 131/131/131 168/168/168 169/169/169
f 131/131/131 169/169/169 132/132/132
f 132/132/132 169/169/169 170/170/170
f 132/132/132 170/170/170 133/133/133
f 133/133/133 170/170/170 171/171/171
f 133/133/133 171/171/171 134/134/134
f 134/134/134 171/171/171 172/172/172
f 134/134/134 172/172/172 135/135/135
f 135/135/135 172/172/172 173/173/173
f 135/135/135 173/173/173 136/136/136
f 136/136/136 173/173/173 174/174/174
f 136/136/136 174/174/174 137/137/137
f 137/137/137 174/174/174 175/175/175
f 137/137/137 175/175/175 138/138/138
f 138/138/138 175/175/175 176/176/176
f 138/138/138 176/176/176 139/139/139
f 139/139/139 176/176/176 177/177/177
f 139/139/139 177/177/177 140/140/140
f 140/140/140 177/177/177 178/178/178
f 140/140/140 178/178/178 141/141/141
f 141/141/141 178/178/178 179/179/179
f 141/141/141 179/179/179 142/142/142
f 142/142/142 179/179/179 180/180/180
f 142/142/142 180/180/180 143/143/143
f 143/143/143 180/180/180 181/181/181
f 143/143/143 181/181/181 144/144/144
f 144/144/144 181/181/181 182/182/182
f 144/144/144 182/182/182 145/145/145
f 145/145/145 182/182/182 183/183/183
f 145/145/145 183/183/183 146/146/146
f 146/146/146 183/183/183 184/184/184
f 146/146/146 184/184/184 147/147/147
f 147/147/147 184/184/184 185/185/185
f 147/147/147 185/185/185 148/148/148
f 149/149/149 186/186/186 187/187/187
f 149/149/149 187/187/187 150/150/150
f 150/150/150 187/187/187 188/188/188
f 150/150/150 188/188/188 151/151/151
f 151/151/151 188/188/188 189/189/189
f 151/151/151 189/189/189 152/152/152
f 152/152/152 189/189/189 190/190/190
f 152/152/152 190/190/190 153/153/153
f 153/153/153 190/190/190 191/191/191
f 153/153/153 191/191/191 154/154/154
f 154/154/154 191/191/191 192/192/192
f 154/154/154 192/192/192 155/155/155
f 155/155/155 192/192/192 193/193/193
f 155/155/155 193/193/193 156/156/156
f 156/156/156 193/193/193 194/194/194
f 156/156/156 194/194/194 157/157/157
f 157/157/157 194/194/194 195/195/195
f 157/157/157 195/195/195 158/158/158
f 158/158/158 195/195/195 196/196/196
f 158/158/158 196/196/196 159/159/159
f 159/159/159 196/196/196 197/197/197
f 159/159/159 197/197/197 160/160/160
f 160/160/160 197/197/197 198/198/198
f 160/160/160 198/198/198 161/161/161
f 161/161/161 198/198/198 199/199/199
f 161/161/161 199/199/199 162/162/162
f 162/162/162 199/199/199 200/200/200
f 162/162/162 200/200/200 163/163/163
f 163/163/163 200/200/200 201/201/201
f 163/163/163 201/201/201 164/164/164
f 164/164/164 201/201/201 202/202/202
f 164/164/164 202/202/202 165/165/165
f 165/165/165 202/202/202 203/203/203
f 165/165/165 203/203/203 166/166/166
f 166/166/166 203/203/203 204/204/204
f 166/166/166 204/204/204 167/167/167
f 167/167/167 204/204/204 205/205/205
f 167/167/167 205/205/205 168/168/168
f 168/168/168 205/205/205 206/206/206
f 168/168/168 206/206/206 169/169/169
f 169/169/169 206/206/206 207/207/207
f 169/169/169 207/207/207 170/170/170
f 170/170/170 207/207/207 208/208/208
f 170/170/170 208/208/208 171/171/171
f 171/171/171 208/208/208 209/209/209
f 171/171/171 209/209/209 172/172/172
f 172/172/172 209/209/209 210/210/210
f 172/172/172 210/210/210 173/173/173
f 173/173/173 210/210/210 211/211/211
f 173/173/173 211/211/211 174/174/174
f 174/174/174 211/211/211 212/212/212
f 174/174/174 212/212/212 175/175/175
f 175/175/175 212/212/212 213/213/213
f 175/175/175 213/213/213 176/176/176
f 176/176/176 213/213/213 214/214/214
f 176/176/176 214/214/214 177/177/177
f 177/177/177 214/214/214 215/215/215
f 177/177/177 215/215/215 178/178/178
f 178/178/178 215/215/215 216/216/216
f 178/178/178 216/216/216 179/179/179
f 179/179/179 216/216/216 217/217/217
f 179/179/179 217/217/217 180/180/180
f 180/180/180 217/217/217 218/218/218
f 180/180/180 218/218/218 181/181/181
f 181/181/181 218/218/218 219/219/219
f 181/181/181 219/219/219 182/182/182
f 182/182/182 219/219/219 220/220/220
f 182/182/182 220/220/220 183/183/183
f 183/183/183 220/220/220 221/221/221
f 183/183/183 221/221/221 184/184/184
f 184/184/184 221/221/221 222/222/222
f 184/184/184 222/222/222 185/185/185
f 186/186/186 223/223/223 224/224/224
f 186/186/186 224/224/224 187/187/187
f 187/187/187 224/224/224 225/225/225
f 187/187/187 225/225/225 188/188/188
f 188/188/188 225/225/225 226/226/226
f 188/188/188 226/226/226 189/189/189
f 189/189/189 226/226/226 227/227/227
f 189/189/189 227/227/227 190/190/190
f 190/190/190 227/227/227 228/228/228
f 190/190/190 228/228/228 191/191/191
f 191/191/191 228/228/228 229/229/229
f 191/191/191 229/229/229 192/192/192
f 192/192/192 229/229/229 230/230/230
f 192/192/192 230/230/230 193/193/193
f 193/193/193 230/230/230 231/231/231
f 193/193/193 231/231/231 194/194/194
f 194/194/194 231/231/231 232/232/232
f 194/194/194 232/232/232 195/195/195
f 195/195/195 232/232/232 233/233/233
f 195/195/195 233/233/233 196/196/196
f 196/196/196 233/233/233 234/234/234
f 196/196/196 234/234/234 197/197/197
f 197/197/197 234/234/234 235/235/235
f 197/197/197 235/235/235 198/198/198
f 198/198/198 235/235/235 236/236/236
f 198/198/198 236/236/236 199/199/199
f 199/199/199 236/236/236 237/237/237
f 199/199/199 237/237/237 200/200/200
f 200/200/200 237/237/237 238/238/238
f 200/200/200 238/238/238 201/201/201
f 201/201/201 238/238/238 239/239/239
f 201/201/201 239/239/239 202/202/202
f 202/202/202 239/239/239 240/240/240
f 202/202/202 240/240/240 203/203/203
f 203/203/203 240/240/240 241/241/241
f 203/203/203 241/241/241 204/204/204
f 204/204/204 241/241/241 242/242/242
f 204/204/204 242/242/242 205/205/205
f 205/205/205 242/242/242 243/243/243
f 205/205/205 243/243/243 206/206/206
f 206/206/206 243/243/243 244/244/244
f 206/206/206 244/244/244 207/207/207
f 207/207/207 244/244/244 245/245/245
f 207/207/207 245/245/245 208/208/208
f 208/208/208 245/245/245 246/246/246
f 208/208/208 246/246/246 209/209/209
f 209/209/209 246/246/246 247/247/247
f 209/209/209 247/247/247 210/210/210
f 210/210/210 247/247/247 248/248/248
f 210/210/210 248/248/248 211/211/211
f 211/211/211 248/248/248 249/249/249
f 211/211/211 249/249/249 212/212/212
f 212/212/212 249/249/249 250/250/250
f 212/212/212 250/250/250 213/213/213
f 213/213/213 250/250/250 251/251/251
f 213/213/213 251/251/251 214/214/214
f 214/214/214 251/251/251 252/252/252
f 214/214/214 252/252/252 215/215/215
f 215/215/215 252/252/252 253/253/253
f 215/215/215 253/253/253 216/216/216
f 216/216/216 253/253/253 254/254/254
f 216/216/216 254/254/254 217/217/217
f 217/217/217 254/254/254 255/255/255
f 217/217/217 255/255/255 218/218/218
f 218/218/218 255/255/255 256/256/256
f 218/218/218 256/256/256 219/219/219
f 219/219/219 256/256/256 257/257/257
f 219/219/219 257/257/257 220/220/220
f 220/220/220 257/257/257 258/258/258
f 220/220/220 258/258/258 221/221/221
f 221/221/221 258/258/258 259/259/259
f 221/221/221 259/259/259 222/222/222
f 223/223/223 260/260/260 261/261/261
f 223/223/223 261/261/261 224/224/224
f 224/224/224 261/261/261 262/262/262
f 224/224/224 262/262/262 225/225/225
f 225/225/225 262/262/262 263/263/263
f 225/225/225 263/263/263 226/226/226
f 226/226/226 263/263/263 264/264/264
f 226/226/226 264/264/264 227/227/227
f 227/227/227 264/264/264 265/265/265
f 227/227/227 265/265/265 228/228/228
f 228/228/228 265/265/265 266/266/266
f 228/228/228 266/266/266 229/229/229
f 229/229/229 266/266/266 267/267/267
f 229/229/229 267/267/267 230/230/230
f 230/230/230 267/267/267 268/268/268
f 230/230/230 268/268/268 231/231/231
f 231/231/231 268/268/268 269/269/269
f 231/231/231 269/269/269 232/232/232
f 232/232/232 269/269/269 270/270/270
f 232/232/232 270/270/270 233/233/233
f 233/233/233 270/270/270 271/271/271
f 233/233/233 271/271/271 234/234/234
f 234/234/234 271/271/271 272/272/272
f 234/234/234 272/272/272 235/235/235
f 235/235/235 272/272/272 273/273/273
f 235/235/235 273/273/273 236/236/236
f 236/236/236 273/273/273 274/274/274
f 236/236/236 274/274/274 237/237/237
f 237/237/237 274/274/274 275/275/275
f 237/237/237 275/275/275 238/238/238
f 238/238/238 275/275/275 276/276/276
f 238/238/238 276/276/276 239/239/239
f 239/239/239 276/276/276 277/277/277
f 239/239/239 277/277/277 240/240/240
f 240/240/240 277/277/277 278/278/278
f 240/240/240 278/278/278 241/241/241
f 241/241/241 278/278/278 279/279/279
f 241/241/241 279/279/279 242/242/242
f 242/242/242 279/279/279 280/280/280
f 242/242/242 280/280/280 243/243/243
f 243/243/243 280/280/280 281/281/281
f 243/243/243 281/281/281 244/244/244
f 244/244/244 281/281/281 282/282/282
f 244/244/244 282/282/282 245/245/245
f 245/245/245 282/282/282 283/283/283
f 245/245/245 283/283/283 246/246/246
f 246/246/246 283/283/283 284/284/284
f 246/246/246 284/284/284 247/247/247
f 247/247/247 284/284/284 285/285/285
f 247/247/247 285/285/285 248/248/248
f 248/248/248 285/285/285 286/286/286
f 248/248/248 286/286/286 249/249/249
f 249/249/249 286/286/286 287/287/287
f 249/249/249 287/287/287 250/250/250
f 250/250/250 287/287/287 288/288/288
f 250/250/250 288/288/288 251/251/251
f 251/251/251 288/288/288 289/289/289
f 251/251/251 289/289/289 252/252/252
f 252/252/252 289/289/289 290/290/290
f 252/252/252 290/290/290 253/253/253
f 253/253/253 290/290/290 291/291/291
f 253/253/253 291/291/291 254/254/254
f 254/254/254 291/291/291 292/292/292
f 254/254/254 292/292/292 255/255/255
f 255/255/255 292/292/292 293/293/293
f 255/255/255 293/293/293 256/256/256
f 256/256/256 293/293/293 294/294/294
f 256/256/256 294/294/294 257/257/257
f 257/257/257 294/294/294 295/295/295
f 257/257/257 295/295/295 258/258/258
f 258/258/258 295/295/295 296/296/296
f 258/258/258 296/296/296 259/259/259
f 260/260/260 297/297/297 298/298/298
f 260/260/260 298/298/298 261/261/261
f 261/261/261 298/298/298 299/299/299
f 261/261/261 299/299/299 262/262/262
f 262/262/262 299/299/299 300/300/300
f 262/262/262 300/300/300 263/263/263
f 263/263/263 300/300/300 301/301/301
f 263/263/263 301/301/301 264/264/264
f 264/264/264 301/301/301 302/302/302
f 264/264/264 302/302/302 265/265/265
f 265/265/265 302/302/302 303/303/303
f 265/265/265 303/303/303 266/266/266
f 266/266/266 303/303/303 304/304/304
f 266/266/266 304/304/304 267/267/267
f 267/267/267 304/304/304 305/305/305
f 267/267/267 305/305/305 268/268/268
f 268/268/268 305/305/305 306/306/306
f 268/268/268 306/306/306 269/269/269
f 269/269/269 306/306/306 307/307/307
f 269/269/269 307/307/307 270/270/270
f 270/270/270 307/307/307 308/308/308
f 270/270/270 308/308/308 271/271/271
f 271/271/271 308/308/308 309/309/309
f 271/271/271 309/309/309 272/272/272
f 272/272/272 309/309/309 310/310/310
f 272/272/272 310/310/310 273/273/273
f 273/273/273 310/310/310 311/311/311
f 273/273/273 311/311/311 274/274/274
f 274/274/274 311/311/311 312/312/312
f 274/274/274 312/312/312 275/275/275
f 275/275/275 312/312/312 313/313/313
f 275/275/275 313/313/313 276/276/276
f 276/276/276 313/313/313 314/314/314
f 276/276/276 314/314/314 277/277/277
f 277/277/277 314/314/314 315/315/315
f 277/277/277 315/315/315 278/278/278
f 278/278/278 315/315/315 316/316/316
f 278/278/278 316/316/316 279/279/279
f 279/279/279 316/316/316 317/317/317
f 279/279/279 317/317/317 280/280/280
f 280/280/280 317/317/317 318/318/318
f 280/280/280 318/318/318 281/281/281
f 281/281/281 318/318/318 319/319/319
f 281/281/281 319/319/319 282/282/282
f 282/282/282 319/319/319 320/320/320
f 282/282/282 320/320/320 283/283/283
f 283/283/283 320/320/320 321/321/321
f 283/283/283 321/321/321 284/284/284
f 284/284/284 321/321/321 322/322/322
f 284/284/284 322/322/322 285/285/285
f 285/285/285 322/322/322 323/323/323
f 285/285/285 323/323/323 286/286/286
f 286/286/286 323/323/323 324/324/324
f 286/286/286 324/324/324 287/287/287
f 287/287/287 324/324/324 325/325/325
f 287/287/287 325/325/325 288/288/288
f 288/288/288 325/325/325 326/326/326
f 288/288/288 326/326/326 289/289/289
f 289/289/289 326/326/326 327/327/327
f 289/289/289 327/327/327 290/290/290
f 290/290/290 327/327/327 328/328/328
f 290/290/290 328/328/328 291/291/291
f 291/291/291 328/328/328 329/329/329
f 291/291/291 329/329/329 292/292/292
f 292/292/292 329/329/329 330/330/330
f 292/292/292 330/330/330 293/293/293
f 293/293/293 330/330/330 331/331/331
f 293/293/293 331/331/331 294/294/294
f 294/294/294 331/331/331 332/332/332
f 294/294/294 332/332/332 295/295/295
f 295/295/295 332/332/332 333/333/333
f 295/295/295 333/333/333 296/296/296
f 297/297/297 334/334/334 335/335/335
f 297/297/297 335/335/335 298/298/298
f 298/298/298 335/335/335 336/336/336
f 298/298/298 336/336/336 299/299/299
f 299/299/299 336/336/336 337/337/337
f 299/299/299 337/337/337 300/300/300
f 300/300/300 337/337/337 338/338/338
f 300/300/300 338/338/338 301/301/301
f 301/301/301 338/338/338 339/339/339
f 301/301/301 339/339/339 302/302/302
f 302/302/302 339/339/339 340/340/340
f 302/302/302 340/340/340 303/303/303
f 303/303/303 340/340/340 341/341/341
f 303/303/303 341/341/341 304/304/304
f 304/304/304 341/341/341 342/342/342
f 304/304/304 342/342/342 305/305/305
f 305/305/305 342/342/342 343/343/343
f 305/305/305 343/343/343 306/306/306
f 306/306/306 343/343/343 344/344/344
f 306/306/306 344/344/344 307/307/307
f 307/307/307 344/344/344 345/345/345
f 307/307/307 345/345/345 308/308/308
f 308/308/308 345/345/345 346/346/346
f 308/308/308 346/346/346 309/309/309
f 309/309/309 346/346/346 347/347/347
f 309/309/309 347/347/347 310/310/310
f 310/310/310 347/347/347 348/348/348
f 310/310/310 348/348/348 311/311/311
f 311/311/311 348/348/348 349/349/349
f 311/311/311 349/349/349 312/312/312
f 312/312/312 349/349/349 350/350/350
f 312/312/312 350/350/350 313/313/313
f 313/313/313 350/350/350 351/351/351
f 313/313/313 351/351/351 314/314/314
f 314/314/314 351/351/351 352/352/352
f 314/314/314 352/352/352 315/315/315
f 315/315/315 352/352/352 353/353/353
f 315/315/315 353/353/353 316/316/316
f 316/316/316 353/353/353 354/354/354
f 316/316/316 354/354/354 317/317/317
f 317/317/317 354/354/354 355/355/355
f 317/317/317 355/355/355 318/318/318
f 318/318/318 355/355/355 356/356/356
f 318/318/318 356/356/356 319/319/319
f 319/319/319 356/356/356 357/357/357
f 319/319/319 357/357/357 320/320/320
f 320/320/320 357/357/357 358/358/358
f 320/320/320 358/358/358 321/321/321
f 321/321/321 358/358/358 359/359/359
f 321/321/321 359/359/359 322/322/322
f 322/322/322 359/359/359 360/360/360
f 322/322/322 360/360/360 323/323/323
f 323/323/323 360/360/360 361/361/361
f 323/323/323 361/361/361 324/324/324
f 324/324/324 361/361/361 362/362/362
f 324/324/324 362/362/362 325/325/325
f 325/325/325 362/362/362 363/363/363
f 325/325/325 363/363/363 326/326/326
f 326/326/326 363/363/363 364/364/364
f 326/326/326 364/364/364 327/327/327
f 327/327/327 364/364/364 365/365/365
f 327/327/327 365/365/365 328/328/328
f 328/328/328 365/365/365 366/366/366
f 328/328/328 366/366/366 329/329/329
f 329/329/329 366/366/366 367/367/367
f 329/329/329 367/367/367 330/330/330
f 330/330/330 367/367/367 368/368/368
f 330/330/330 368/368/368 331/331/331
f 331/331/331 368/368/368 369/369/369
f 331/331/331 369/369/369 332/332/332
f 332/332/332 369/369/369 370/370/370
f 332/332/332 370/370/370 333/333/333
f 334/334/334 371/371/371 372/372/372
f 334/334/334 372/372/372 335/335/335
f 335/335/335 372/372/372 373/373/373
f 335/335/335 373/373/373 336/336/336
f 336/336/336 373/373/373 374/374/374
f 336/336/336 374/374/374 337/337/337
f 337/337/337 374/374/374 375/375/375
f 337/337/337 375/375/375 338/338/338
f 338/338/338 375/375/375 376/376/376
f 338/338/338 376/376/376 339/339/339
f 339/339/339 376/376/376 377/377/377
f 339/339/339 377/377/377 340/340/340
f 340/340/340 377/377/377 378/378/378
f 340/340/340 378/378/378 341/341/341
f 341/341/341 378/378/378 379/379/379
f 341/341/341 379/379/379 342/342/342
f 342/342/342 379/379/379 380/380/380
f 342/342/342 380/380/380 343/343/343
f 343/343/343 380/380/380 381/381/381
f 343/343/343 381/381/381 344/344/344
f 344/344/344 381/381/381 382/382/382
f 344/344/344 382/382/382 345/345/345
f 345/345/345 382/382/382 383/383/383
f 345/345/345 383/383/383 346/346/346
f 346/346/346 383/383/383 384/384/384
f 346/346/346 384/384/384 347/347/347
f 347/347/347 384/384/384 385/385/385
f 347/347/347 385/385/385 348/348/348
f 348/348/348 385/385/385 386/386/386
f 348/348/348 386/386/386 349/349/349
f 349/349/349 386/386/386 387/387/387
f 349/349/349 387/387/387 350/350/350
f 350/350/350 387/387/387 388/388/388
f 350/350/350 388/388/388 351/351/351
f 351/351/351 388/388/388 389/389/389
f 351/351/351 389/389/389 352/352/352
f 352/352/352 389/389/389 390/390/390
f 352/352/352 390/390/390 353/353/353
f 353/353/353 390/390/390 391/391/391
f 353/353/353 391/391/391 354/354/354
f 354/354/354 391/391/391 392/392/392
f 354/354/354 392/392/392 355/355/355
f 355/355/355 392/392/392 393/393/393
f 355/355/355 393/393/393 356/356/356
f 356/356/356 393/393/393 394/394/394
f 356/356/356 394/394/394 357/357/357
f 357/357/357 394/394/394 395/395/395
f 357/357/357 395/395/395 358/358/358
f 358/358/358 395/395/395 396/396/396
f 358/358/358 396/396/396 359/359/359
f 359/359/359 396/396/396 397/397/397
f 359/359/359 397/397/397 360/360/360
f 360/360/360 397/397/397 398/398/398
f 360/360/360 398/398/398 361/361/361
f 361/361/361 398/398/398 399/399/399
f 361/361/361 399/399/399 362/362/362
f 362/362/362 399/399/399 400/400/400
f 362/362/362 400/400/400 363/363/363
f 363/363/363 400/400/400 401/401/401
f 363/363/363 401/401/401 364/364/364
f 364/364/364 401/401/401 402/402/402
f 364/364/364 402/402/402 365/365/365
f 365/365/365 402/402/402 403/403/403
f 365/365/365 403/403/403 366/366/366
f 366/366/366 403/403/403 404/404/404
f 366/366/366 404/404/404 367/367/367
f 367/367/367 404/404/404 405/405/405
f 367/367/367 405/405/405 368/368/368
f 368/368/368 405/405/405 406/406/406
f 368/368/368 406/406/406 369/369/369
f 369/369/369 406/406/406 407/407/407
f 369/369/369 407/407/407 370/370/370
f 371/371/371 408/408/408 409/409/409
f 371/371/371 409/409/409 372/372/372
f 372/372/372 409/409/409 410/410/410
f 372/372/372 410/410/410 373/373/373
f 373/373/373 410/410/410 411/411/411
f 373/373/373 411/411/411 374/374/374
f 374/374/374 411/411/411 412/412/412
f 374/374/374 412/412/412 375/375/375
f 375/375/375 412/412/412 413/413/413
f 375/375/375 413/413/413 376/376/376
f 376/376/376 413/413/413 414/414/414
f 376/376/376 414/414/414 377/377/377
f 377/377/377 414/414/414 415/415/415
f 377/377/377 415/415/415 378/378/378
f 378/378/378 415/415/415 416/416/416
f 378/378/378 416/416/416 379/379/379
f 379/379/379 416/416/416 417/417/417
f 379/379/379 417/417/417 380/380/380
f 380/380/380 417/417/417 418/418/418
f 380/380/380 418/418/418 381/381/381
f 381/381/381 418/418/418 419/419/419
f 381/381/381 419/419/419 382/382/382
f 382/382/382 419/419/419 420/420/420
f 382/382/382 420/420/420 383/383/383
f 383/383/383 420/420/420 421/421/421
f 383/383/383 421/421/421 384/384/384
f 384/384/384 421/421/421 422/422/422
f 384/384/384 422/422/422 385/385/385
f 385/385/385 422/422/422 423/423/423
f 385/385/385 423/423/423 386/386/386
f 386/386/386 423/423/423 424/424/424
f 386/386/386 424/424/424 387/387/387
f 387/387/387 424/424/424 425/425/425
f 387/387/387 425/425/425 388/388/388
f 388/388/388 425/425/425 426/426/426
f 388/388/388 426/426/426 389/389/389
f 389/389/389 426/426/426 427/427/427
f 389/389/389 427/427/427 390/390/390
f 390/390/390 427/427/427 428/428/428
f 390/390/390 428/428/428 391/391/391
f 391/391/391 428/428/428 429/429/429
f 391/391/391 429/429/429 392/392/392
f 392/392/392 429/429/429 430/430/430
f 392/392/392 430/430/430 393/393/393
f 393/393/393 430/430/430 431/431/431
f 393/393/393 431/431/431 394/394/394
f 394/394/394 431/431/431 432/432/432
f 394/394/394 432/432/432 395/395/395
f 395/395/395 432/432/432 433/433/433
f 395/395/395 433/433/433 396/396/396
f 396/396/396 433/433/433 434/434/434
f 396/396/396 434/434/434 397/397/397
f 397/397/397 434/434/434 435/435/435
f 397/397/397 435/435/435 398/398/398
f 398/398/398 435/435/435 436/436/436
f 398/398/398 436/436/436 399/399/399
f 399/399/399 436/436/436 437/437/437
f 399/399/399 437/437/437 400/400/400
f 400/400/400 437/437/437 438/438/438
f 400/400/400 438/438/438 401/401/401
f 401/401/401 438/438/438 439/439/439
f 401/401/401 439/439/439 402/402/402
f 402/402/402 439/439/439 440/440/440
f 402/402/402 440/440/440 403/403/403
f 403/403/403 440/440/440 441/441/441
f 403/403/403 441/441/441 404/404/404
f 404/404/404 441/441/441 442/442/442
f 404/404/404 442/442/442 405/405/405
f 405/405/405 442/442/442 443/443/443
f 405/405/405 443/443/443 406/406/406
f 406/406/406 443/443/443 444/444/444
f 406/406/406 444/444/444 407/407/407
