# Generated sky cornice; visual geometry only.
s 1
v -40.329836 -2.103856 21.681164
v -40.332756 -1.336528 21.605148
v -40.337402 -0.151396 21.484166
v -40.339581 1.192126 21.427422
v -40.335099 2.429428 21.544122
v -40.322394 3.520213 21.874950
v -40.303850 4.561744 22.357809
v -40.281194 5.490960 22.947732
v -40.256153 6.244122 23.599752
v -40.227659 6.784054 24.341706
v -40.195299 7.111391 25.184300
v -40.161788 7.222150 26.056872
v -40.129840 7.116776 26.888759
v -40.098241 6.751158 27.711547
v -40.066189 6.128230 28.546111
v -40.037016 5.327239 29.305730
v -40.014052 4.433122 29.903683
v -39.997852 3.472589 30.325515
v -39.986750 2.425983 30.614588
v -39.980747 1.314961 30.770902
v -39.979842 0.163188 30.794456
v -39.984468 -1.044491 30.674009
v -39.994480 -2.271431 30.413308
v -40.009015 -3.417410 30.034837
v -40.027210 -4.385621 29.561078
v -40.050832 -5.112838 28.945995
v -40.079676 -5.642843 28.194941
v -40.109918 -6.104001 27.407485
v -40.137734 -6.612120 26.683196
v -40.163597 -7.159686 26.009763
v -40.189049 -7.716645 25.347037
v -40.211870 -8.322442 24.752831
v -40.229838 -9.016527 24.284962
v -40.241659 -9.918180 23.977152
v -40.248752 -10.970108 23.792467
v -40.252967 -11.946899 23.682726
v -40.256153 -12.623138 23.599752
v -33.671185 -2.149710 17.643194
v -33.674425 -1.352398 17.565676
v -33.679583 -0.102436 17.442303
v -33.682002 1.332832 17.384438
v -33.677027 2.679374 17.503444
v -33.662923 3.891205 17.840809
v -33.642338 5.062018 18.333210
v -33.617189 6.121147 18.934790
v -33.589392 6.997051 19.599695
v -33.557762 7.645528 20.356311
v -33.521840 8.061565 21.215555
v -33.484641 8.236324 22.105370
v -33.449177 8.166659 22.953697
v -33.414100 7.805276 23.792743
v -33.378521 7.154458 24.643799
v -33.346138 6.296016 25.418430
v -33.320646 5.319077 26.028199
v -33.302663 4.254637 26.458367
v -33.290339 3.087462 26.753152
v -33.283675 1.845397 26.912555
v -33.282671 0.558871 26.936574
v -33.287806 -0.781191 26.813747
v -33.298920 -2.131144 26.547894
v -33.315055 -3.382950 26.161944
v -33.335252 -4.432968 25.678824
v -33.361474 -5.213041 25.051586
v -33.393492 -5.765828 24.285690
v -33.427063 -6.237037 23.482673
v -33.457940 -6.756230 22.744072
v -33.486650 -7.315731 22.057331
v -33.514903 -7.884828 21.381508
v -33.540235 -8.503829 20.775561
v -33.560181 -9.213041 20.298445
v -33.573303 -10.134346 19.984554
v -33.581176 -11.209200 19.796218
v -33.585855 -12.207280 19.684309
v -33.589392 -12.898258 19.599695
v -27.014901 -2.246474 13.559147
v -27.018557 -1.399154 13.478301
v -27.024375 -0.051391 13.349632
v -27.027104 1.515002 13.289283
v -27.021492 3.009774 13.413397
v -27.005582 4.379743 13.765246
v -26.982359 5.716763 14.278784
v -26.953988 6.940352 14.906190
v -26.922631 7.968917 15.599638
v -26.886948 8.749645 16.388734
v -26.846426 9.271274 17.284865
v -26.804461 9.519487 18.212879
v -26.764453 9.487161 19.097623
v -26.724883 9.122506 19.972689
v -26.684747 8.427149 20.860280
v -26.648215 7.487475 21.668164
v -26.619457 6.399112 22.304110
v -26.599170 5.198397 22.752745
v -26.585268 3.874576 23.060185
v -26.577750 2.462835 23.226430
v -26.576618 1.001625 23.251481
v -26.582410 -0.511709 23.123381
v -26.594948 -2.024951 22.846115
v -26.613150 -3.419209 22.443597
v -26.635934 -4.581138 21.939736
v -26.665515 -5.435735 21.285572
v -26.701636 -6.025365 20.486797
v -26.739507 -6.517785 19.649308
v -26.774340 -7.060348 18.878999
v -26.806727 -7.645033 18.162778
v -26.838599 -8.239747 17.457943
v -26.867176 -8.886612 16.825983
v -26.889677 -9.627748 16.328385
v -26.904481 -10.590522 16.001018
v -26.913363 -11.713760 15.804598
v -26.918641 -12.756766 15.687885
v -26.922631 -13.478847 15.599638
v -20.361333 -2.391531 9.431675
v -20.365512 -1.474998 9.345781
v -20.372162 0.002441 9.209077
v -20.375281 1.738288 9.144959
v -20.368866 3.419551 9.276824
v -20.350681 4.984355 9.650643
v -20.324138 6.524265 10.196249
v -20.291711 7.946785 10.862832
v -20.255870 9.158043 11.599581
v -20.215085 10.095018 12.437952
v -20.168768 10.739528 13.390040
v -20.120804 11.071118 14.376002
v -20.075076 11.078267 15.315993
v -20.029848 10.703412 16.245701
v -19.983972 9.947501 17.188716
v -19.942217 8.903415 18.047048
v -19.909348 7.675515 18.722704
v -19.886160 6.306531 19.199353
v -19.870270 4.790323 19.525991
v -19.861678 3.170599 19.702617
v -19.860383 1.495125 19.729232
v -19.867004 -0.231914 19.593133
v -19.881334 -1.948150 19.298554
v -19.902138 -3.520854 18.870900
v -19.928181 -4.824194 18.335578
v -19.961991 -5.774444 17.640565
v -20.003276 -6.414429 16.791912
v -20.046562 -6.938644 15.902126
v -20.086375 -7.516241 15.083717
v -20.123393 -8.138680 14.322772
v -20.159823 -8.771795 13.573925
v -20.192486 -9.460428 12.902503
v -20.218204 -10.249420 12.373834
v -20.235124 -11.274362 12.026025
v -20.245276 -12.470128 11.817340
v -20.251309 -13.580482 11.693339
v -20.255870 -14.349188 11.599581
v -13.710732 -2.580923 5.264620
v -13.715550 -1.577574 5.172110
v -13.723220 0.058737 5.024876
v -13.726817 1.999106 4.955819
v -13.719419 3.901833 5.097841
v -13.698447 5.694981 5.500456
v -13.667838 7.471259 6.088091
v -13.630441 9.124155 6.806022
v -13.589109 10.545480 7.599525
v -13.542075 11.660546 8.502476
v -13.488661 12.443659 9.527906
v -13.433347 12.867623 10.589818
v -13.380612 12.916139 11.602218
v -13.328454 12.524697 12.603543
v -13.275549 11.693558 13.619200
v -13.227395 10.523854 14.543650
v -13.189490 9.130722 15.271353
v -13.162749 7.564254 15.784720
v -13.144424 5.823028 16.136519
v -13.134515 3.960353 16.326751
v -13.133022 2.034482 16.355416
v -13.140657 0.056814 16.208833
v -13.157184 -1.898683 15.891562
v -13.181176 -3.682729 15.430966
v -13.211208 -5.154451 14.854406
v -13.250200 -6.219681 14.105856
v -13.297810 -6.922405 13.191829
v -13.347729 -7.488134 12.233502
v -13.393643 -8.111473 11.352050
v -13.436333 -8.783204 10.532488
v -13.478345 -9.466457 9.725955
v -13.516013 -10.209625 9.002813
v -13.545672 -11.061099 8.433419
v -13.565184 -12.167209 8.058818
v -13.576892 -13.457671 7.834058
v -13.583849 -14.655956 7.700504
v -13.589109 -15.485539 7.599525
v -7.063239 -2.809463 1.062909
v -7.068822 -1.704136 0.962409
v -7.077706 0.115696 0.802458
v -7.081873 2.289745 0.727437
v -7.073303 4.442440 0.881726
v -7.049009 6.490705 1.319113
v -7.013550 8.529828 1.957499
v -6.970229 10.437694 2.737434
v -6.922347 12.090180 3.599468
v -6.867862 13.399830 4.580403
v -6.805986 14.333068 5.694394
v -6.741908 14.855568 6.848019
v -6.680818 14.946020 7.947855
v -6.620396 14.532002 9.035660
v -6.559110 13.613089 10.139035
v -6.503327 12.300201 11.143326
v -6.459416 10.720983 11.933877
v -6.428439 8.933630 12.491580
v -6.407211 6.941402 12.873763
v -6.395732 4.807989 13.080425
v -6.394002 2.602987 13.111565
v -6.402847 0.345157 12.952323
v -6.421992 -1.878844 12.607651
v -6.449785 -3.900940 12.107275
v -6.484576 -5.563102 11.480920
v -6.529744 -6.759308 10.667721
v -6.584898 -7.535380 9.674754
v -6.642725 -8.151204 8.633661
v -6.695914 -8.829739 7.676081
v -6.745367 -9.560952 6.785738
v -6.794035 -10.304707 5.909549
v -6.837671 -11.113682 5.123951
v -6.872029 -12.040554 4.505382
v -6.894633 -13.244609 4.098428
v -6.908195 -14.649340 3.854256
v -6.916254 -15.953734 3.709169
v -6.922347 -16.856775 3.599468
v -0.418878 -3.070874 -3.167593
v -0.425348 -1.851681 -3.277223
v -0.435645 0.169895 -3.451705
v -0.440474 2.598147 -3.533542
v -0.430542 5.019521 -3.365236
v -0.402385 7.339214 -2.888113
v -0.361288 9.656652 -2.191730
v -0.311080 11.833178 -1.340938
v -0.255586 13.727793 -0.400589
v -0.192438 15.239733 0.669464
v -0.120725 16.327596 1.884660
v -0.046460 16.949898 3.143091
v 0.024343 17.080353 4.342847
v 0.094370 16.637953 5.529478
v 0.165401 15.621643 6.733094
v 0.230052 14.153355 7.828624
v 0.280944 12.374558 8.690997
v 0.316847 10.351939 9.299367
v 0.341450 8.093093 9.716271
v 0.354754 5.672387 9.941707
v 0.356758 3.171086 9.975677
v 0.346507 0.615022 9.801967
v 0.324319 -1.895927 9.425982
v 0.292107 -4.173369 8.880147
v 0.251785 -6.040641 8.196889
v 0.199435 -7.378907 7.309811
v 0.135512 -8.236524 6.226634
v 0.068492 -8.909649 5.090957
v 0.006847 -9.651320 4.046382
v -0.050469 -10.450570 3.075152
v -0.106874 -11.263529 2.119362
v -0.157447 -12.147776 1.262393
v -0.197268 -13.160890 0.587627
v -0.223465 -14.476979 0.143702
v -0.239184 -16.012417 -0.122653
v -0.248524 -17.438180 -0.280922
v -0.255586 -18.425247 -0.400589
v 6.222458 -3.357968 -7.420240
v 6.214981 -2.017004 -7.539877
v 6.203081 0.216481 -7.730287
v 6.197500 2.908446 -7.819594
v 6.208979 5.604528 -7.635925
v 6.241520 8.198234 -7.115247
v 6.289015 10.794945 -6.355293
v 6.347041 13.239379 -5.426836
v 6.411175 15.373587 -4.400645
v 6.484155 17.083734 -3.232912
v 6.567035 18.321220 -1.906784
v 6.652863 19.037883 -0.533476
v 6.734689 19.202862 0.775802
v 6.815620 18.726272 2.070756
v 6.897710 17.606539 3.384246
v 6.972428 15.977485 4.579782
v 7.031244 13.995181 5.520878
v 7.072736 11.734723 6.184784
v 7.101170 9.207266 6.639745
v 7.116545 6.497489 6.885761
v 7.118862 3.697923 6.922832
v 7.107015 0.840583 6.733265
v 7.081372 -1.961672 6.322958
v 7.044144 -4.499530 5.727296
v 6.997544 -6.577036 4.981665
v 6.937044 -8.062157 4.013608
v 6.863168 -9.006550 2.831552
v 6.785712 -9.742605 1.592204
v 6.714470 -10.553614 0.452274
v 6.648229 -11.427585 -0.607617
v 6.583042 -12.316547 -1.650658
v 6.524595 -13.283462 -2.585856
v 6.478574 -14.391292 -3.322219
v 6.448297 -15.830421 -3.806668
v 6.430131 -17.509405 -4.097338
v 6.419337 -19.068462 -4.270055
v 6.411175 -20.147808 -4.400645
v 12.861005 -3.662835 -11.687794
v 12.852410 -2.196686 -11.818030
v 12.838731 0.249692 -12.025308
v 12.832315 3.202260 -12.122527
v 12.845510 6.164459 -11.922586
v 12.882916 9.018878 -11.355783
v 12.937512 11.878990 -10.528507
v 13.004214 14.573798 -9.517800
v 13.077936 16.929350 -8.400702
v 13.161828 18.819862 -7.129522
v 13.257098 20.190857 -5.685917
v 13.355758 20.988561 -4.190950
v 13.449818 21.178377 -2.765688
v 13.542849 20.661683 -1.356017
v 13.637212 19.436577 0.073831
v 13.723100 17.649249 1.375278
v 13.790710 15.470544 2.399742
v 13.838405 12.983338 3.122462
v 13.871090 10.201058 3.617727
v 13.888764 7.217551 3.885537
v 13.891428 4.135371 3.925892
v 13.877809 0.991104 3.719532
v 13.848332 -2.090538 3.272876
v 13.805539 -4.879780 2.624446
v 13.751972 -7.161647 1.812762
v 13.682426 -8.791200 0.758948
v 13.597505 -9.824247 -0.527824
v 13.508469 -10.627127 -1.876962
v 13.426575 -11.511767 -3.117876
v 13.350432 -12.465086 -4.271660
v 13.275498 -13.434756 -5.407101
v 13.208313 -14.489456 -6.425145
v 13.155412 -15.697865 -7.226741
v 13.120608 -17.267651 -7.754106
v 13.099726 -19.099069 -8.070526
v 13.087318 -20.799671 -8.258543
v 13.077936 -21.977011 -8.400702
v 19.497124 -3.977067 -15.962629
v 19.487315 -2.387037 -16.103752
v 19.471704 0.263630 -16.328357
v 19.464382 3.460555 -16.433702
v 19.479441 6.665099 -16.217048
v 19.522130 9.750471 -15.602864
v 19.584438 12.840690 -14.706434
v 19.660561 15.750984 -13.611238
v 19.744697 18.293395 -12.400759
v 19.840439 20.332237 -11.023317
v 19.949166 21.809172 -9.459036
v 20.061762 22.666492 -7.839100
v 20.169108 22.867151 -6.294696
v 20.275280 22.304384 -4.767186
v 20.382972 20.976226 -3.217812
v 20.480992 19.041290 -1.807574
v 20.558152 16.684743 -0.697471
v 20.612585 13.996040 0.085663
v 20.649886 10.989066 0.622329
v 20.670057 7.764900 0.912526
v 20.673096 4.434001 0.956254
v 20.657554 1.035175 0.732644
v 20.623913 -2.297057 0.248651
v 20.575076 -5.314010 -0.453984
v 20.513942 -7.782946 -1.333519
v 20.434572 -9.546999 -2.475425
v 20.337657 -10.667062 -3.869762
v 20.236044 -11.538821 -5.331679
v 20.142583 -12.499354 -6.676325
v 20.055683 -13.534457 -7.926557
v 19.970166 -14.587314 -9.156913
v 19.893490 -15.732497 -10.260059
v 19.833116 -17.044574 -11.128662
v 19.793397 -18.749031 -11.700112
v 19.769565 -20.737565 -12.042982
v 19.755404 -22.584060 -12.246716
v 19.744697 -23.862403 -12.400759
v 26.131297 -4.291988 -20.236939
v 26.120197 -2.583998 -20.388929
v 26.102531 0.253187 -20.630827
v 26.094245 3.665824 -20.744284
v 26.111286 7.074813 -20.510948
v 26.159595 10.346204 -19.849474
v 26.230104 13.617247 -18.884021
v 26.316248 16.692272 -17.704498
v 26.411459 19.372281 -16.400816
v 26.519802 21.514572 -14.917315
v 26.642842 23.059575 -13.232588
v 26.770259 23.947874 -11.487923
v 26.891735 24.141646 -9.824604
v 27.011883 23.527003 -8.179480
v 27.133750 22.102254 -6.510809
v 27.244673 20.038069 -4.991987
v 27.331989 17.532876 -3.796409
v 27.393587 14.680994 -2.952976
v 27.435799 11.494500 -2.374989
v 27.458624 8.079051 -2.062447
v 27.462064 4.550109 -2.015352
v 27.444475 0.945710 -2.256180
v 27.406407 -2.592687 -2.777439
v 27.351140 -5.800083 -3.534174
v 27.281960 -8.428141 -4.481431
v 27.192143 -10.309701 -5.711260
v 27.082470 -11.511726 -7.212957
v 26.967482 -12.452515 -8.787437
v 26.861718 -13.489106 -10.235617
v 26.763380 -14.606173 -11.582113
v 26.666606 -15.742400 -12.907203
v 26.579837 -16.978263 -14.095288
v 26.511516 -18.394236 -15.030771
v 26.466569 -20.233660 -15.646221
v 26.439600 -22.379654 -16.015491
v 26.423575 -24.372363 -16.234912
v 26.411459 -25.751930 -16.400816
v 32.764112 -4.598894 -24.502957
v 32.751667 -2.783066 -24.665484
v 32.731860 0.214947 -24.924153
v 32.722570 3.804266 -25.045476
v 32.741676 7.368318 -24.795963
v 32.795839 10.768763 -24.088628
v 32.874891 14.158796 -23.056239
v 32.971472 17.335475 -21.794940
v 33.078220 20.092486 -20.400872
v 33.199691 22.283626 -18.814519
v 33.337639 23.851167 -17.012990
v 33.480495 24.736586 -15.147366
v 33.616690 24.903238 -13.368728
v 33.751395 24.231488 -11.609547
v 33.888028 22.720292 -9.825186
v 34.012392 20.551623 -8.201063
v 34.110288 17.935576 -6.922595
v 34.179349 14.969221 -6.020686
v 34.226676 11.660269 -5.402626
v 34.252267 8.115769 -5.068416
v 34.256123 4.452703 -5.018056
v 34.236404 0.704916 -5.275581
v 34.193722 -2.982706 -5.832979
v 34.131760 -6.332282 -6.642179
v 34.054197 -9.082816 -7.655110
v 33.953497 -11.059022 -8.970204
v 33.830536 -12.334891 -10.576014
v 33.701615 -13.342952 -12.259654
v 33.583036 -14.453667 -13.808237
v 33.472782 -15.650612 -15.248087
v 33.364282 -16.868087 -16.665045
v 33.267000 -18.192322 -17.935501
v 33.190401 -19.709547 -18.935842
v 33.140007 -21.680501 -19.593961
v 33.109771 -23.979948 -19.988833
v 33.091804 -26.115149 -20.223466
v 33.078220 -27.593365 -20.400872
v 39.396248 -4.889293 -28.753166
v 39.382431 -2.979246 -28.925604
v 39.360440 0.147948 -29.200047
v 39.350126 3.867613 -29.328769
v 39.371338 7.529874 -29.064040
v 39.431471 10.995073 -28.313571
v 39.519238 14.434848 -27.218225
v 39.626466 17.643051 -25.880010
v 39.744981 20.410225 -24.400929
v 39.879843 22.590522 -22.717837
v 40.032997 24.131291 -20.806448
v 40.191601 24.977669 -18.827054
v 40.342810 25.096250 -16.939952
v 40.492364 24.363268 -15.073493
v 40.644059 22.778715 -13.180319
v 40.782132 20.534765 -11.457153
v 40.890819 17.851172 -10.100722
v 40.967494 14.825427 -9.143813
v 41.020037 11.458248 -8.488063
v 41.048450 7.854630 -8.133472
v 41.052731 4.129312 -8.080041
v 41.030838 0.308390 -8.353270
v 40.983452 -3.463662 -8.944659
v 40.914658 -6.900095 -9.803206
v 40.828545 -9.730723 -10.877908
v 40.716744 -11.774662 -12.273198
v 40.580229 -13.113781 -13.976933
v 40.437096 -14.185497 -15.763245
v 40.305445 -15.366348 -17.406263
v 40.183038 -16.638874 -18.933917
v 40.062578 -17.933227 -20.437285
v 39.954571 -19.341081 -21.785215
v 39.869529 -20.954111 -22.846559
v 39.813580 -23.049523 -23.544811
v 39.780010 -25.494169 -23.963762
v 39.760063 -27.764198 -24.212705
v 39.744981 -29.335756 -24.400929
vt 0.13975425 0.80969263
vt 0.13975425 0.80818829
vt 0.13975425 0.80586432
vt 0.13975425 0.80323845
vt 0.13975425 0.80081358
vt 0.13975425 0.79860903
vt 0.13975425 0.79641299
vt 0.13975425 0.79433563
vt 0.13975425 0.79248848
vt 0.13975425 0.79083677
vt 0.13975425 0.78925785
vt 0.13975425 0.78774723
vt 0.13975425 0.78630711
vt 0.13975425 0.78472682
vt 0.13975425 0.78284933
vt 0.13975425 0.78081429
vt 0.13975425 0.77878962
vt 0.13975425 0.77677917
vt 0.13975425 0.77467586
vt 0.13975425 0.77248943
vt 0.13975425 0.77023951
vt 0.13975425 0.76787176
vt 0.13975425 0.76543411
vt 0.13975425 0.76310383
vt 0.13975425 0.76104594
vt 0.13975425 0.75927731
vt 0.13975425 0.75762579
vt 0.13975425 0.75600355
vt 0.13975425 0.75441455
vt 0.13975425 0.75284130
vt 0.13975425 0.75126882
vt 0.13975425 0.74970789
vt 0.13975425 0.74813297
vt 0.13975425 0.74629465
vt 0.13975425 0.74421588
vt 0.13975425 0.74229884
vt 0.13975425 0.74097043
vt 0.15493902 0.81364459
vt 0.15493902 0.81208166
vt 0.15493902 0.80963116
vt 0.15493902 0.80682614
vt 0.15493902 0.80418825
vt 0.15493902 0.80175156
vt 0.15493902 0.79931357
vt 0.15493902 0.79700146
vt 0.15493902 0.79494484
vt 0.15493902 0.79313060
vt 0.15493902 0.79144646
vt 0.15493902 0.78988115
vt 0.15493902 0.78841840
vt 0.15493902 0.78681430
vt 0.15493902 0.78487766
vt 0.15493902 0.78273763
vt 0.15493902 0.78056124
vt 0.15493902 0.77835498
vt 0.15493902 0.77601984
vt 0.15493902 0.77357855
vt 0.15493902 0.77106546
vt 0.15493902 0.76843967
vt 0.15493902 0.76576383
vt 0.15493902 0.76323070
vt 0.15493902 0.76101851
vt 0.15493902 0.75915280
vt 0.15493902 0.75745144
vt 0.15493902 0.75579386
vt 0.15493902 0.75417022
vt 0.15493902 0.75256268
vt 0.15493902 0.75095592
vt 0.15493902 0.74936098
vt 0.15493902 0.74775173
vt 0.15493902 0.74587335
vt 0.15493902 0.74374927
vt 0.15493902 0.74179045
vt 0.15493902 0.74043309
vt 0.17012379 0.81905262
vt 0.17012379 0.81739187
vt 0.17012379 0.81475023
vt 0.17012379 0.81168911
vt 0.17012379 0.80876183
vt 0.17012379 0.80601851
vt 0.17012379 0.80326177
vt 0.17012379 0.80063953
vt 0.17012379 0.79830314
vt 0.17012379 0.79626162
vt 0.17012379 0.79441382
vt 0.17012379 0.79274544
vt 0.17012379 0.79122217
vt 0.17012379 0.78955687
vt 0.17012379 0.78751339
vt 0.17012379 0.78521128
vt 0.17012379 0.78282058
vt 0.17012379 0.78035171
vt 0.17012379 0.77771259
vt 0.17012379 0.77494049
vt 0.17012379 0.77208624
vt 0.17012379 0.76912231
vt 0.17012379 0.76612852
vt 0.17012379 0.76331871
vt 0.17012379 0.76088942
vt 0.17012379 0.75887638
vt 0.17012379 0.75708353
vt 0.17012379 0.75535133
vt 0.17012379 0.75365461
vt 0.17012379 0.75197470
vt 0.17012379 0.75029563
vt 0.17012379 0.74862889
vt 0.17012379 0.74694720
vt 0.17012379 0.74498427
vt 0.17012379 0.74276458
vt 0.17012379 0.74071759
vt 0.17012379 0.73929913
vt 0.18530856 0.82588930
vt 0.18530856 0.82409309
vt 0.18530856 0.82119786
vt 0.18530856 0.81780573
vt 0.18530856 0.81451416
vt 0.18530856 0.81139072
vt 0.18530856 0.80823947
vt 0.18530856 0.80523291
vt 0.18530856 0.80254788
vt 0.18530856 0.80021609
vt 0.18530856 0.79814781
vt 0.18530856 0.79632911
vt 0.18530856 0.79470881
vt 0.18530856 0.79294697
vt 0.18530856 0.79075110
vt 0.18530856 0.78823171
vt 0.18530856 0.78556565
vt 0.18530856 0.78276847
vt 0.18530856 0.77975408
vt 0.18530856 0.77657595
vt 0.18530856 0.77330321
vt 0.18530856 0.76992194
vt 0.18530856 0.76653168
vt 0.18530856 0.76337278
vt 0.18530856 0.76066512
vt 0.18530856 0.75845611
vt 0.18530856 0.75653200
vt 0.18530856 0.75468795
vt 0.18530856 0.75288167
vt 0.18530856 0.75109329
vt 0.18530856 0.74930579
vt 0.18530856 0.74753143
vt 0.18530856 0.74574116
vt 0.18530856 0.74365148
vt 0.18530856 0.74128846
vt 0.18530856 0.73910929
vt 0.18530856 0.73759924
vt 0.20049333 0.83402871
vt 0.20049333 0.83206254
vt 0.20049333 0.82885652
vt 0.20049333 0.82506486
vt 0.20049333 0.82134051
vt 0.20049333 0.81776990
vt 0.20049333 0.81415520
vt 0.20049333 0.81069695
vt 0.20049333 0.80760106
vt 0.20049333 0.80492240
vt 0.20049333 0.80258231
vt 0.20049333 0.80056998
vt 0.20049333 0.79881886
vt 0.20049333 0.79692799
vt 0.20049333 0.79453794
vt 0.20049333 0.79175073
vt 0.20049333 0.78875352
vt 0.20049333 0.78556812
vt 0.20049333 0.78211344
vt 0.20049333 0.77846059
vt 0.20049333 0.77469880
vt 0.20049333 0.77082788
vt 0.20049333 0.76696944
vt 0.20049333 0.76339532
vt 0.20049333 0.76035326
vt 0.20049333 0.75790376
vt 0.20049333 0.75581190
vt 0.20049333 0.75382181
vt 0.20049333 0.75187249
vt 0.20049333 0.74994249
vt 0.20049333 0.74801343
vt 0.20049333 0.74609855
vt 0.20049333 0.74416651
vt 0.20049333 0.74191134
vt 0.20049333 0.73936119
vt 0.20049333 0.73700944
vt 0.20049333 0.73537981
vt 0.21567810 0.84322224
vt 0.21567810 0.84105640
vt 0.21567810 0.83749128
vt 0.21567810 0.83324311
vt 0.21567810 0.82903016
vt 0.21567810 0.82495866
vt 0.21567810 0.82082560
vt 0.21567810 0.81686237
vt 0.21567810 0.81330675
vt 0.21567810 0.81023677
vt 0.21567810 0.80758365
vt 0.21567810 0.80534148
vt 0.21567810 0.80342991
vt 0.21567810 0.80138103
vt 0.21567810 0.79876047
vt 0.21567810 0.79566272
vt 0.21567810 0.79228849
vt 0.21567810 0.78866660
vt 0.21567810 0.78471972
vt 0.21567810 0.78053758
vt 0.21567810 0.77623060
vt 0.21567810 0.77181217
vt 0.21567810 0.76742765
vt 0.21567810 0.76338443
vt 0.21567810 0.75996183
vt 0.21567810 0.75723436
vt 0.21567810 0.75494295
vt 0.21567810 0.75277665
vt 0.21567810 0.75065471
vt 0.21567810 0.74855381
vt 0.21567810 0.74645394
vt 0.21567810 0.74436950
vt 0.21567810 0.74226637
vt 0.21567810 0.73981150
vt 0.21567810 0.73703554
vt 0.21567810 0.73447555
vt 0.21567810 0.73270161
vt 0.23086287 0.85309300
vt 0.23086287 0.85070419
vt 0.23086287 0.84674422
vt 0.23086287 0.84199942
vt 0.23086287 0.83726117
vt 0.23086287 0.83265560
vt 0.23086287 0.82797103
vt 0.23086287 0.82347126
vt 0.23086287 0.81942748
vt 0.23086287 0.81593988
vt 0.23086287 0.81294738
vt 0.23086287 0.81044949
vt 0.23086287 0.80835346
vt 0.23086287 0.80612168
vt 0.23086287 0.80324132
vt 0.23086287 0.79980140
vt 0.23086287 0.79601901
vt 0.23086287 0.79193014
vt 0.23086287 0.78745950
vt 0.23086287 0.78271542
vt 0.23086287 0.77782971
vt 0.23086287 0.77282832
vt 0.23086287 0.76788097
vt 0.23086287 0.76333325
vt 0.23086287 0.75949860
vt 0.23086287 0.75646574
vt 0.23086287 0.75394902
vt 0.23086287 0.75158115
vt 0.23086287 0.74926177
vt 0.23086287 0.74696539
vt 0.23086287 0.74467013
vt 0.23086287 0.74239174
vt 0.23086287 0.74009292
vt 0.23086287 0.73740964
vt 0.23086287 0.73437538
vt 0.23086287 0.73157719
vt 0.23086287 0.72963819
vt 0.24604764 0.86315266
vt 0.24604764 0.86052535
vt 0.24604764 0.85615055
vt 0.24604764 0.85089051
vt 0.24604764 0.84561507
vt 0.24604764 0.84046908
vt 0.24604764 0.83522829
vt 0.24604764 0.83018880
vt 0.24604764 0.82565506
vt 0.24604764 0.82174693
vt 0.24604764 0.81840756
vt 0.24604764 0.81564107
vt 0.24604764 0.81334338
vt 0.24604764 0.81090834
vt 0.24604764 0.80774735
vt 0.24604764 0.80394749
vt 0.24604764 0.79974464
vt 0.24604764 0.79518146
vt 0.24604764 0.79018212
vt 0.24604764 0.78487235
vt 0.24604764 0.77940407
vt 0.24604764 0.77381362
vt 0.24604764 0.76829422
vt 0.24604764 0.76323056
vt 0.24604764 0.75897110
vt 0.24604764 0.75561804
vt 0.24604764 0.75285744
vt 0.24604764 0.75026820
vt 0.24604764 0.74773198
vt 0.24604764 0.74522091
vt 0.24604764 0.74271107
vt 0.24604764 0.74021968
vt 0.24604764 0.73770595
vt 0.24604764 0.73477181
vt 0.24604764 0.73145387
vt 0.24604764 0.72839409
vt 0.24604764 0.72627381
vt 0.26123241 0.87284023
vt 0.26123241 0.86996770
vt 0.26123241 0.86517600
vt 0.26123241 0.85940678
vt 0.26123241 0.85361078
vt 0.26123241 0.84794907
vt 0.26123241 0.84218020
vt 0.26123241 0.83663052
vt 0.26123241 0.83163559
vt 0.26123241 0.82733066
vt 0.26123241 0.82365809
vt 0.26123241 0.82062453
vt 0.26123241 0.81811546
vt 0.26123241 0.81546170
vt 0.26123241 0.81200871
vt 0.26123241 0.80784689
vt 0.26123241 0.80323288
vt 0.26123241 0.79821473
vt 0.26123241 0.79271260
vt 0.26123241 0.78686681
vt 0.26123241 0.78084652
vt 0.26123241 0.77469487
vt 0.26123241 0.76862600
vt 0.26123241 0.76306251
vt 0.26123241 0.75838704
vt 0.26123241 0.75471332
vt 0.26123241 0.75169829
vt 0.26123241 0.74887397
vt 0.26123241 0.74610749
vt 0.26123241 0.74336845
vt 0.26123241 0.74063074
vt 0.26123241 0.73791315
vt 0.26123241 0.73517120
vt 0.26123241 0.73197067
vt 0.26123241 0.72835151
vt 0.26123241 0.72501393
vt 0.26123241 0.72270115
vt 0.27641718 0.88157818
vt 0.27641718 0.87846290
vt 0.27641718 0.87327101
vt 0.27641718 0.86702431
vt 0.27641718 0.86075404
vt 0.27641718 0.85463339
vt 0.27641718 0.84839848
vt 0.27641718 0.84240176
vt 0.27641718 0.83700569
vt 0.27641718 0.83235464
vt 0.27641718 0.82838360
vt 0.27641718 0.82509861
vt 0.27641718 0.82237583
vt 0.27641718 0.81949311
vt 0.27641718 0.81574666
vt 0.27641718 0.81123718
vt 0.27641718 0.80624367
vt 0.27641718 0.80081747
vt 0.27641718 0.79487031
vt 0.27641718 0.78855279
vt 0.27641718 0.78204668
vt 0.27641718 0.77539689
vt 0.27641718 0.76883408
vt 0.27641718 0.76281544
vt 0.27641718 0.75775504
vt 0.27641718 0.75377511
vt 0.27641718 0.75050353
vt 0.27641718 0.74743691
vt 0.27641718 0.74443310
vt 0.27641718 0.74145907
vt 0.27641718 0.73848650
vt 0.27641718 0.73553577
vt 0.27641718 0.73255859
vt 0.27641718 0.72908349
vt 0.27641718 0.72515384
vt 0.27641718 0.72152993
vt 0.27641718 0.71901874
vt 0.29160195 0.88883774
vt 0.29160195 0.88549126
vt 0.29160195 0.87993377
vt 0.29160195 0.87326551
vt 0.29160195 0.86659485
vt 0.29160195 0.86010161
vt 0.29160195 0.85349368
vt 0.29160195 0.84714365
vt 0.29160195 0.84143462
vt 0.29160195 0.83651191
vt 0.29160195 0.83229527
vt 0.29160195 0.82878635
vt 0.29160195 0.82585405
vt 0.29160195 0.82273758
vt 0.29160195 0.81870606
vt 0.29160195 0.81387866
vt 0.29160195 0.80855799
vt 0.29160195 0.80279606
vt 0.29160195 0.79649095
vt 0.29160195 0.78979781
vt 0.29160195 0.78290486
vt 0.29160195 0.77585244
vt 0.29160195 0.76888168
vt 0.29160195 0.76247908
vt 0.29160195 0.75708564
vt 0.29160195 0.75282801
vt 0.29160195 0.74930614
vt 0.29160195 0.74599670
vt 0.29160195 0.74275503
vt 0.29160195 0.73954551
vt 0.29160195 0.73633756
vt 0.29160195 0.73315318
vt 0.29160195 0.72994025
vt 0.29160195 0.72618998
vt 0.29160195 0.72194916
vt 0.29160195 0.71803829
vt 0.29160195 0.71532826
vt 0.30678672 0.89420341
vt 0.30678672 0.89064546
vt 0.30678672 0.88477246
vt 0.30678672 0.87775885
vt 0.30678672 0.87078410
vt 0.30678672 0.86402802
vt 0.30678672 0.85716432
vt 0.30678672 0.85057820
vt 0.30678672 0.84466555
vt 0.30678672 0.83956291
vt 0.30678672 0.83516604
vt 0.30678672 0.83146861
vt 0.30678672 0.82833595
vt 0.30678672 0.82498666
vt 0.30678672 0.82068760
vt 0.30678672 0.81558513
vt 0.30678672 0.81000640
vt 0.30678672 0.80400119
vt 0.30678672 0.79744833
vt 0.30678672 0.79050077
vt 0.30678672 0.78334580
vt 0.30678672 0.77601201
vt 0.30678672 0.76874374
vt 0.30678672 0.76204980
vt 0.30678672 0.75639221
vt 0.30678672 0.75189722
vt 0.30678672 0.74813924
vt 0.30678672 0.74459314
vt 0.30678672 0.74111968
vt 0.30678672 0.73768065
vt 0.30678672 0.73424331
vt 0.30678672 0.73083122
vt 0.30678672 0.72738855
vt 0.30678672 0.72337011
vt 0.30678672 0.71882605
vt 0.30678672 0.71463553
vt 0.30678672 0.71173171
vt 0.32197150 0.89742581
vt 0.32197150 0.89368299
vt 0.32197150 0.88755622
vt 0.32197150 0.88028774
vt 0.32197150 0.87311981
vt 0.32197150 0.86622483
vt 0.32197150 0.85923682
vt 0.32197150 0.85254498
vt 0.32197150 0.84654910
vt 0.32197150 0.84136624
vt 0.32197150 0.83685929
vt 0.32197150 0.83301164
vt 0.32197150 0.82969110
vt 0.32197150 0.82611576
vt 0.32197150 0.82157473
vt 0.32197150 0.81624960
vt 0.32197150 0.81049277
vt 0.32197150 0.80434905
vt 0.32197150 0.79767255
vt 0.32197150 0.79060677
vt 0.32197150 0.78333015
vt 0.32197150 0.77585202
vt 0.32197150 0.76841196
vt 0.32197150 0.76153307
vt 0.32197150 0.75569152
vt 0.32197150 0.75100803
vt 0.32197150 0.74703509
vt 0.32197150 0.74326508
vt 0.32197150 0.73957228
vt 0.32197150 0.73591610
vt 0.32197150 0.73226170
vt 0.32197150 0.72863416
vt 0.32197150 0.72497410
vt 0.32197150 0.72070191
vt 0.32197150 0.71587091
vt 0.32197150 0.71141578
vt 0.32197150 0.70832860
vn -0.038232 -0.086579 -0.995511
vn -0.038227 -0.088168 -0.995372
vn -0.038304 -0.061541 -0.997369
vn -0.038369 0.020375 -0.999056
vn -0.037842 0.166286 -0.985351
vn -0.036392 0.317443 -0.947579
vn -0.034631 0.430922 -0.901724
vn -0.032212 0.543568 -0.838747
vn -0.027883 0.687102 -0.726026
vn -0.020314 0.848412 -0.528946
vn -0.010728 0.960130 -0.279349
vn -0.000138 0.999994 -0.003599
vn 0.011844 0.951182 0.308403
vn 0.021578 0.826957 0.561850
vn 0.027380 0.700710 0.712920
vn 0.031401 0.574873 0.817640
vn 0.034565 0.434458 0.900029
vn 0.036648 0.296719 0.954261
vn 0.037762 0.178188 0.983272
vn 0.038284 0.069563 0.996843
vn 0.038352 -0.036002 0.998616
vn 0.038020 -0.136060 0.989971
vn 0.037348 -0.229965 0.972482
vn 0.036181 -0.333389 0.942095
vn 0.033435 -0.490851 0.870602
vn 0.027778 -0.689985 0.723291
vn 0.022716 -0.806003 0.591476
vn 0.022645 -0.807349 0.589639
vn 0.025039 -0.757821 0.651982
vn 0.026319 -0.727789 0.685296
vn 0.027847 -0.688102 0.725079
vn 0.031192 -0.582571 0.812181
vn 0.035301 -0.392252 0.919180
vn 0.037471 -0.215936 0.975688
vn 0.038069 -0.126295 0.991262
vn 0.038177 -0.101742 0.994078
vn 0.038377 0.000000 0.999263
vn -0.041617 -0.085149 -0.995499
vn -0.041614 -0.085934 -0.995431
vn -0.041696 -0.059224 -0.997374
vn -0.041761 0.019316 -0.998941
vn -0.041265 0.154907 -0.987067
vn -0.039940 0.292709 -0.955367
vn -0.038355 0.395978 -0.917458
vn -0.036205 0.498672 -0.866034
vn -0.032303 0.633936 -0.772711
vn -0.025050 0.800201 -0.599208
vn -0.014983 0.933452 -0.358390
vn -0.002866 0.997643 -0.068565
vn 0.011657 0.960270 0.278829
vn 0.023519 0.826411 0.562576
vn 0.030331 0.687530 0.725522
vn 0.034812 0.552593 0.832724
vn 0.038121 0.408686 0.911879
vn 0.040164 0.274574 0.960727
vn 0.041207 0.163479 0.985686
vn 0.041684 0.063633 0.997102
vn 0.041746 -0.033048 0.998582
vn 0.041436 -0.125995 0.991165
vn 0.040792 -0.215058 0.975749
vn 0.039643 -0.314981 0.948270
vn 0.036855 -0.470573 0.881591
vn 0.030758 -0.676558 0.735747
vn 0.024901 -0.802872 0.595631
vn 0.024647 -0.807349 0.589559
vn 0.027253 -0.757821 0.651894
vn 0.028645 -0.727789 0.685203
vn 0.030308 -0.688102 0.724981
vn 0.033949 -0.582571 0.812071
vn 0.038421 -0.392252 0.919055
vn 0.040783 -0.215936 0.975555
vn 0.041434 -0.126295 0.991127
vn 0.041552 -0.101742 0.993943
vn 0.041769 0.000000 0.999127
vn -0.045015 -0.083741 -0.995470
vn -0.045015 -0.083771 -0.995468
vn -0.045100 -0.057035 -0.997353
vn -0.045166 0.018343 -0.998811
vn -0.044697 0.144792 -0.988452
vn -0.043483 0.271028 -0.961589
vn -0.042051 0.365319 -0.929932
vn -0.040135 0.458939 -0.887561
vn -0.036630 0.585211 -0.810053
vn -0.029794 0.751669 -0.658867
vn -0.019520 0.901817 -0.431678
vn -0.006053 0.990982 -0.133860
vn 0.011208 0.968731 0.247860
vn 0.025473 0.825854 0.563308
vn 0.033355 0.674380 0.737631
vn 0.038272 0.531243 0.846355
vn 0.041689 0.385121 0.921924
vn 0.043679 0.255055 0.965940
vn 0.044657 0.150767 0.987560
vn 0.045096 0.058545 0.997266
vn 0.045152 -0.030499 0.998514
vn 0.044862 -0.117152 0.992100
vn 0.044245 -0.201693 0.978449
vn 0.043120 -0.298102 0.953559
vn 0.040311 -0.451342 0.891440
vn 0.033810 -0.663185 0.747692
vn 0.027123 -0.799684 0.599808
vn 0.026656 -0.807349 0.589472
vn 0.029474 -0.757821 0.651797
vn 0.030980 -0.727789 0.685101
vn 0.032778 -0.688102 0.724873
vn 0.036716 -0.582571 0.811950
vn 0.041553 -0.392252 0.918919
vn 0.044108 -0.215936 0.975411
vn 0.044812 -0.126295 0.990980
vn 0.044939 -0.101742 0.993795
vn 0.045173 0.000000 0.998979
vn -0.048425 -0.082425 -0.995420
vn -0.048427 -0.081784 -0.995473
vn -0.048516 -0.055072 -0.997303
vn -0.048583 0.017494 -0.998666
vn -0.048137 0.136201 -0.989511
vn -0.047011 0.252856 -0.966361
vn -0.045701 0.339649 -0.939441
vn -0.043971 0.425529 -0.903876
vn -0.040794 0.543264 -0.838570
vn -0.034373 0.706801 -0.706576
vn -0.024084 0.868518 -0.495073
vn -0.009497 0.980714 -0.195220
vn 0.010569 0.976058 0.217253
vn 0.027437 0.825317 0.564003
vn 0.036420 0.661972 0.748644
vn 0.041742 0.511876 0.858045
vn 0.045245 0.364636 0.930050
vn 0.047186 0.238612 0.969968
vn 0.048110 0.140230 0.988949
vn 0.048518 0.054352 0.997342
vn 0.048570 -0.028386 0.998416
vn 0.048297 -0.109718 0.992789
vn 0.047702 -0.190257 0.980575
vn 0.046598 -0.283379 0.957875
vn 0.043774 -0.434054 0.899822
vn 0.036901 -0.650588 0.758534
vn 0.029372 -0.796612 0.603777
vn 0.028672 -0.807349 0.589377
vn 0.031703 -0.757821 0.651692
vn 0.033323 -0.727789 0.684991
vn 0.035258 -0.688102 0.724757
vn 0.039493 -0.582571 0.811820
vn 0.044696 -0.392252 0.918771
vn 0.047444 -0.215936 0.975254
vn 0.048201 -0.126295 0.990821
vn 0.048338 -0.101742 0.993636
vn 0.048590 0.000000 0.998819
vn -0.051847 -0.081263 -0.995343
vn -0.051852 -0.080057 -0.995441
vn -0.051944 -0.053399 -0.997221
vn -0.052011 0.016787 -0.998505
vn -0.051582 0.129220 -0.990273
vn -0.050521 0.238260 -0.969886
vn -0.049300 0.319073 -0.946447
vn -0.047705 0.398709 -0.915836
vn -0.044773 0.509078 -0.859555
vn -0.038697 0.668291 -0.742892
vn -0.028470 0.836929 -0.546570
vn -0.012975 0.968391 -0.249101
vn 0.009837 0.981957 0.188846
vn 0.029410 0.824828 0.564618
vn 0.039489 0.650926 0.758114
vn 0.045191 0.495247 0.867576
vn 0.048773 0.347682 0.936343
vn 0.050681 0.225348 0.972959
vn 0.051565 0.131838 0.989929
vn 0.051951 0.051027 0.997345
vn 0.052000 -0.026703 0.998290
vn 0.051738 -0.103726 0.993259
vn 0.051160 -0.180908 0.982169
vn 0.050070 -0.271147 0.961235
vn 0.047224 -0.419319 0.906610
vn 0.039996 -0.639391 0.767841
vn 0.031635 -0.793820 0.607329
vn 0.030695 -0.807349 0.589275
vn 0.033940 -0.757821 0.651580
vn 0.035674 -0.727789 0.684873
vn 0.037745 -0.688102 0.724631
vn 0.042280 -0.582571 0.811680
vn 0.047850 -0.392252 0.918612
vn 0.050791 -0.215936 0.975086
vn 0.051602 -0.126295 0.990650
vn 0.051749 -0.101742 0.993464
vn 0.052019 0.000000 0.998646
vn -0.055280 -0.080304 -0.995236
vn -0.055287 -0.078650 -0.995368
vn -0.055384 -0.052059 -0.997107
vn -0.055452 0.016231 -0.998329
vn -0.055032 0.123836 -0.990775
vn -0.054010 0.227114 -0.972369
vn -0.052845 0.303395 -0.951398
vn -0.051338 0.378275 -0.924269
vn -0.048568 0.482787 -0.874390
vn -0.042725 0.637582 -0.769197
vn -0.032538 0.809798 -0.585805
vn -0.016275 0.955971 -0.293011
vn 0.009131 0.986353 0.164393
vn 0.031389 0.824414 0.565116
vn 0.042533 0.641746 0.765737
vn 0.048596 0.481848 0.874906
vn 0.052266 0.334425 0.940972
vn 0.054160 0.215181 0.975071
vn 0.055021 0.125468 0.990571
vn 0.055394 0.048511 0.997285
vn 0.055441 -0.025426 0.998138
vn 0.055186 -0.099135 0.993543
vn 0.054616 -0.173664 0.983289
vn 0.053529 -0.261548 0.963705
vn 0.050645 -0.407515 0.911793
vn 0.043065 -0.630098 0.775321
vn 0.033898 -0.791456 0.610285
vn 0.032725 -0.807349 0.589166
vn 0.036185 -0.757821 0.651459
vn 0.038034 -0.727789 0.684746
vn 0.040242 -0.688102 0.724497
vn 0.045076 -0.582571 0.811529
vn 0.051014 -0.392252 0.918442
vn 0.054151 -0.215936 0.974905
vn 0.055015 -0.126295 0.990466
vn 0.055171 -0.101742 0.993280
vn 0.055459 0.000000 0.998461
vn -0.058725 -0.079583 -0.995097
vn -0.058734 -0.077602 -0.995253
vn -0.058835 -0.051075 -0.996960
vn -0.058904 0.015828 -0.998138
vn -0.058486 0.119995 -0.991050
vn -0.057478 0.219222 -0.973981
vn -0.056338 0.292318 -0.954660
vn -0.054874 0.363848 -0.929841
vn -0.052182 0.464121 -0.884233
vn -0.046442 0.615244 -0.786968
vn -0.036194 0.789005 -0.613319
vn -0.019208 0.945351 -0.325488
vn 0.008581 0.989335 0.145406
vn 0.033370 0.824096 0.565466
vn 0.045519 0.634812 0.771325
vn 0.051937 0.471973 0.880082
vn 0.055716 0.324873 0.944115
vn 0.057623 0.207964 0.976438
vn 0.058479 0.120977 0.990931
vn 0.058847 0.046742 0.997172
vn 0.058894 -0.024525 0.997963
vn 0.058640 -0.095875 0.993665
vn 0.058069 -0.168479 0.983993
vn 0.056970 -0.254612 0.965364
vn 0.054023 -0.398851 0.915423
vn 0.046078 -0.623086 0.780795
vn 0.036146 -0.789643 0.612501
vn 0.034762 -0.807349 0.589049
vn 0.038438 -0.757821 0.651330
vn 0.040402 -0.727789 0.684610
vn 0.042747 -0.688102 0.724354
vn 0.047882 -0.582571 0.811368
vn 0.054190 -0.392252 0.918260
vn 0.057522 -0.215936 0.974712
vn 0.058440 -0.126295 0.990270
vn 0.058606 -0.101742 0.993083
vn 0.058911 0.000000 0.998263
vn -0.062180 -0.079124 -0.994924
vn -0.062191 -0.076939 -0.995094
vn -0.062296 -0.050459 -0.996781
vn -0.062368 0.015579 -0.997932
vn -0.061943 0.117636 -0.991123
vn -0.060925 0.214398 -0.974844
vn -0.059778 0.285559 -0.956495
vn -0.058312 0.355051 -0.933027
vn -0.055618 0.452705 -0.889924
vn -0.049836 0.601375 -0.797411
vn -0.039369 0.775657 -0.629926
vn -0.021615 0.938039 -0.345856
vn 0.008315 0.991076 0.133038
vn 0.035351 0.823890 0.565646
vn 0.048421 0.630382 0.774774
vn 0.055196 0.465772 0.883181
vn 0.059117 0.318967 0.945920
vn 0.061070 0.203546 0.977159
vn 0.061938 0.118240 0.991052
vn 0.062311 0.045665 0.997012
vn 0.062358 -0.023976 0.997766
vn 0.062100 -0.093880 0.993645
vn 0.061518 -0.165287 0.984325
vn 0.060390 -0.250314 0.966279
vn 0.057345 -0.393426 0.917566
vn 0.049008 -0.618609 0.784169
vn 0.038365 -0.788471 0.613874
vn 0.036806 -0.807349 0.588925
vn 0.040698 -0.757821 0.651192
vn 0.042777 -0.727789 0.684466
vn 0.045261 -0.688102 0.724201
vn 0.050698 -0.582571 0.811197
vn 0.057377 -0.392252 0.918066
vn 0.060904 -0.215936 0.974506
vn 0.061876 -0.126295 0.990061
vn 0.062052 -0.101742 0.992874
vn 0.062376 0.000000 0.998053
vn -0.065646 -0.078939 -0.994716
vn -0.065658 -0.076674 -0.994892
vn -0.065769 -0.050213 -0.996571
vn -0.065844 0.015480 -0.997710
vn -0.065402 0.116707 -0.991011
vn -0.064348 0.212504 -0.975039
vn -0.063161 0.282908 -0.957065
vn -0.061647 0.351601 -0.934118
vn -0.058866 0.448222 -0.891982
vn -0.052883 0.595888 -0.801324
vn -0.041994 0.770283 -0.636318
vn -0.023356 0.934987 -0.353912
vn 0.008447 0.991739 0.127997
vn 0.037329 0.823807 0.565640
vn 0.051215 0.628600 0.776040
vn 0.058358 0.463302 0.884277
vn 0.062463 0.316634 0.946489
vn 0.064497 0.201809 0.977299
vn 0.065398 0.117166 0.990957
vn 0.065784 0.045243 0.996808
vn 0.065833 -0.023760 0.997548
vn 0.065566 -0.093095 0.993496
vn 0.064960 -0.164028 0.984315
vn 0.063784 -0.248614 0.966500
vn 0.060602 -0.391268 0.918279
vn 0.051833 -0.616809 0.785404
vn 0.040543 -0.787997 0.614342
vn 0.038857 -0.807349 0.588793
vn 0.042966 -0.757821 0.651047
vn 0.045161 -0.727789 0.684313
vn 0.047783 -0.688102 0.724039
vn 0.053523 -0.582571 0.811016
vn 0.060574 -0.392252 0.917861
vn 0.064298 -0.215936 0.974288
vn 0.065324 -0.126295 0.989839
vn 0.065510 -0.101742 0.992652
vn 0.065852 0.000000 0.997829
vn -0.069122 -0.079033 -0.994473
vn -0.069134 -0.076809 -0.994646
vn -0.069251 -0.050338 -0.996328
vn -0.069331 0.015530 -0.997473
vn -0.068862 0.117177 -0.990721
vn -0.067741 0.213463 -0.974600
vn -0.066479 0.284250 -0.956443
vn -0.064866 0.353347 -0.933241
vn -0.061905 0.450491 -0.890632
vn -0.055540 0.598668 -0.799069
vn -0.043988 0.773012 -0.632864
vn -0.024307 0.936545 -0.349705
vn 0.009072 0.991405 0.130515
vn 0.039302 0.823849 0.565444
vn 0.053876 0.629505 0.775126
vn 0.061403 0.464555 0.883413
vn 0.065744 0.317816 0.945870
vn 0.067900 0.202688 0.976886
vn 0.068857 0.117709 0.990658
vn 0.069268 0.045457 0.996562
vn 0.069319 -0.023869 0.997309
vn 0.069035 -0.093492 0.993224
vn 0.068393 -0.164665 0.983975
vn 0.067147 -0.249475 0.966050
vn 0.063779 -0.392362 0.917597
vn 0.054528 -0.617723 0.784503
vn 0.042669 -0.788238 0.613889
vn 0.040915 -0.807349 0.588654
vn 0.045241 -0.757821 0.650893
vn 0.047553 -0.727789 0.684151
vn 0.050313 -0.688102 0.723867
vn 0.056358 -0.582571 0.810824
vn 0.063782 -0.392252 0.917644
vn 0.067703 -0.215936 0.974057
vn 0.068784 -0.126295 0.989605
vn 0.068979 -0.101742 0.992416
vn 0.069339 0.000000 0.997593
vn -0.072608 -0.079398 -0.994195
vn -0.072620 -0.077335 -0.994357
vn -0.072744 -0.050826 -0.996055
vn -0.072829 0.015727 -0.997220
vn -0.072321 0.119038 -0.990252
vn -0.071099 0.217263 -0.973520
vn -0.069718 0.289572 -0.954614
vn -0.067947 0.360272 -0.930369
vn -0.064694 0.459485 -0.885826
vn -0.057738 0.609629 -0.790581
vn -0.045248 0.783642 -0.619563
vn -0.024351 0.942459 -0.333434
vn 0.010249 0.990051 0.140337
vn 0.041268 0.824014 0.565065
vn 0.056386 0.633030 0.772071
vn 0.064313 0.469470 0.880603
vn 0.068947 0.322480 0.944062
vn 0.071274 0.206170 0.975917
vn 0.072313 0.119864 0.990153
vn 0.072760 0.046304 0.996274
vn 0.072817 -0.024302 0.997049
vn 0.072509 -0.095065 0.992827
vn 0.071813 -0.167184 0.983307
vn 0.070471 -0.252871 0.964930
vn 0.066863 -0.396660 0.915527
vn 0.057075 -0.621285 0.781503
vn 0.044735 -0.789173 0.612540
vn 0.042980 -0.807349 0.588507
vn 0.047524 -0.757821 0.650730
vn 0.049953 -0.727789 0.683979
vn 0.052853 -0.688102 0.723686
vn 0.059202 -0.582571 0.810621
vn 0.067001 -0.392252 0.917414
vn 0.071120 -0.215936 0.973814
vn 0.072255 -0.126295 0.989358
vn 0.072460 -0.101742 0.992168
vn 0.072838 0.000000 0.997344
vn -0.076104 -0.080019 -0.993884
vn -0.076115 -0.078234 -0.994025
vn -0.076247 -0.051668 -0.995749
vn -0.076339 0.016070 -0.996952
vn -0.075776 0.122298 -0.989596
vn -0.074410 0.223947 -0.971757
vn -0.072858 0.298948 -0.951484
vn -0.070855 0.372482 -0.925331
vn -0.067174 0.475301 -0.877255
vn -0.059374 0.628675 -0.775398
vn -0.045645 0.801613 -0.596098
vn -0.023393 0.951903 -0.305506
vn 0.012002 0.987566 0.156746
vn 0.043227 0.824289 0.564517
vn 0.058728 0.639009 0.766954
vn 0.067065 0.477926 0.875836
vn 0.072056 0.330609 0.941013
vn 0.074609 0.212288 0.974355
vn 0.075763 0.123664 0.989428
vn 0.076262 0.047800 0.995941
vn 0.076325 -0.025064 0.996768
vn 0.075983 -0.097828 0.992298
vn 0.075217 -0.171589 0.982293
vn 0.073748 -0.258779 0.963117
vn 0.069839 -0.404070 0.912058
vn 0.059457 -0.627330 0.776481
vn 0.046737 -0.790743 0.610361
vn 0.045052 -0.807349 0.588352
vn 0.049815 -0.757821 0.650559
vn 0.052360 -0.727789 0.683799
vn 0.055400 -0.688102 0.723496
vn 0.062055 -0.582571 0.810408
vn 0.070230 -0.392252 0.917173
vn 0.074548 -0.215936 0.973557
vn 0.075738 -0.126295 0.989097
vn 0.075953 -0.101742 0.991907
vn 0.076349 0.000000 0.997081
vn -0.079610 -0.080870 -0.993540
vn -0.079619 -0.079478 -0.993652
vn -0.079760 -0.052845 -0.995412
vn -0.079860 0.016556 -0.996669
vn -0.079225 0.126973 -0.988737
vn -0.077662 0.233596 -0.969227
vn -0.075871 0.312508 -0.946880
vn -0.073542 0.390151 -0.917809
vn -0.069259 0.498090 -0.864355
vn -0.060314 0.655568 -0.752724
vn -0.045033 0.825895 -0.562023
vn -0.021371 0.963539 -0.266715
vn 0.014312 0.983816 0.178611
vn 0.045178 0.824660 0.563822
vn 0.060890 0.647168 0.759912
vn 0.069638 0.489716 0.869096
vn 0.075050 0.342167 0.936637
vn 0.077895 0.221097 0.972136
vn 0.079202 0.129168 0.988455
vn 0.079772 0.049972 0.995560
vn 0.079844 -0.026168 0.996464
vn 0.079456 -0.101806 0.991626
vn 0.078598 -0.177888 0.980907
vn 0.076968 -0.267158 0.960574
vn 0.072689 -0.414439 0.907169
vn 0.061663 -0.635585 0.769564
vn 0.048674 -0.792857 0.607460
vn 0.047130 -0.807349 0.588189
vn 0.052113 -0.757821 0.650378
vn 0.054776 -0.727789 0.683610
vn 0.057956 -0.688102 0.723296
vn 0.064918 -0.582571 0.810183
vn 0.073470 -0.392252 0.916919
vn 0.077987 -0.215936 0.973288
vn 0.079232 -0.126295 0.988823
vn 0.079457 -0.101742 0.991633
vn 0.079871 0.000000 0.996805
f 1/1/1 38/38/38 39/39/39
f 1/1/1 39/39/39 2/2/2
f 2/2/2 39/39/39 40/40/40
f 2/2/2 40/40/40 3/3/3
f 3/3/3 40/40/40 41/41/41
f 3/3/3 41/41/41 4/4/4
f 4/4/4 41/41/41 42/42/42
f 4/4/4 42/42/42 5/5/5
f 5/5/5 42/42/42 43/43/43
f 5/5/5 43/43/43 6/6/6
f 6/6/6 43/43/43 44/44/44
f 6/6/6 44/44/44 7/7/7
f 7/7/7 44/44/44 45/45/45
f 7/7/7 45/45/45 8/8/8
f 8/8/8 45/45/45 46/46/46
f 8/8/8 46/46/46 9/9/9
f 9/9/9 46/46/46 47/47/47
f 9/9/9 47/47/47 10/10/10
f 10/10/10 47/47/47 48/48/48
f 10/10/10 48/48/48 11/11/11
f 11/11/11 48/48/48 49/49/49
f 11/11/11 49/49/49 12/12/12
f 12/12/12 49/49/49 50/50/50
f 12/12/12 50/50/50 13/13/13
f 13/13/13 50/50/50 51/51/51
f 13/13/13 51/51/51 14/14/14
f 14/14/14 51/51/51 52/52/52
f 14/14/14 52/52/52 15/15/15
f 15/15/15 52/52/52 53/53/53
f 15/15/15 53/53/53 16/16/16
f 16/16/16 53/53/53 54/54/54
f 16/16/16 54/54/54 17/17/17
f 17/17/17 54/54/54 55/55/55
f 17/17/17 55/55/55 18/18/18
f 18/18/18 55/55/55 56/56/56
f 18/18/18 56/56/56 19/19/19
f 19/19/19 56/56/56 57/57/57
f 19/19/19 57/57/57 20/20/20
f 20/20/20 57/57/57 58/58/58
f 20/20/20 58/58/58 21/21/21
f 21/21/21 58/58/58 59/59/59
f 21/21/21 59/59/59 22/22/22
f 22/22/22 59/59/59 60/60/60
f 22/22/22 60/60/60 23/23/23
f 23/23/23 60/60/60 61/61/61
f 23/23/23 61/61/61 24/24/24
f 24/24/24 61/61/61 62/62/62
f 24/24/24 62/62/62 25/25/25
f 25/25/25 62/62/62 63/63/63
f 25/25/25 63/63/63 26/26/26
f 26/26/26 63/63/63 64/64/64
f 26/26/26 64/64/64 27/27/27
f 27/27/27 64/64/64 65/65/65
f 27/27/27 65/65/65 28/28/28
f 28/28/28 65/65/65 66/66/66
f 28/28/28 66/66/66 29/29/29
f 29/29/29 66/66/66 67/67/67
f 29/29/29 67/67/67 30/30/30
f 30/30/30 67/67/67 68/68/68
f 30/30/30 68/68/68 31/31/31
f 31/31/31 68/68/68 69/69/69
f 31/31/31 69/69/69 32/32/32
f 32/32/32 69/69/69 70/70/70
f 32/32/32 70/70/70 33/33/33
f 33/33/33 70/70/70 71/71/71
f 33/33/33 71/71/71 34/34/34
f 34/34/34 71/71/71 72/72/72
f 34/34/34 72/72/72 35/35/35
f 35/35/35 72/72/72 73/73/73
f 35/35/35 73/73/73 36/36/36
f 36/36/36 73/73/73 74/74/74
f 36/36/36 74/74/74 37/37/37
f 38/38/38 75/75/75 76/76/76
f 38/38/38 76/76/76 39/39/39
f 39/39/39 76/76/76 77/77/77
f 39/39/39 77/77/77 40/40/40
f 40/40/40 77/77/77 78/78/78
f 40/40/40 78/78/78 41/41/41
f 41/41/41 78/78/78 79/79/79
f 41/41/41 79/79/79 42/42/42
f 42/42/42 79/79/79 80/80/80
f 42/42/42 80/80/80 43/43/43
f 43/43/43 80/80/80 81/81/81
f 43/43/43 81/81/81 44/44/44
f 44/44/44 81/81/81 82/82/82
f 44/44/44 82/82/82 45/45/45
f 45/45/45 82/82/82 83/83/83
f 45/45/45 83/83/83 46/46/46
f 46/46/46 83/83/83 84/84/84
f 46/46/46 84/84/84 47/47/47
f 47/47/47 84/84/84 85/85/85
f 47/47/47 85/85/85 48/48/48
f 48/48/48 85/85/85 86/86/86
f 48/48/48 86/86/86 49/49/49
f 49/49/49 86/86/86 87/87/87
f 49/49/49 87/87/87 50/50/50
f 50/50/50 87/87/87 88/88/88
f 50/50/50 88/88/88 51/51/51
f 51/51/51 88/88/88 89/89/89
f 51/51/51 89/89/89 52/52/52
f 52/52/52 89/89/89 90/90/90
f 52/52/52 90/90/90 53/53/53
f 53/53/53 90/90/90 91/91/91
f 53/53/53 91/91/91 54/54/54
f 54/54/54 91/91/91 92/92/92
f 54/54/54 92/92/92 55/55/55
f 55/55/55 92/92/92 93/93/93
f 55/55/55 93/93/93 56/56/56
f 56/56/56 93/93/93 94/94/94
f 56/56/56 94/94/94 57/57/57
f 57/57/57 94/94/94 95/95/95
f 57/57/57 95/95/95 58/58/58
f 58/58/58 95/95/95 96/96/96
f 58/58/58 96/96/96 59/59/59
f 59/59/59 96/96/96 97/97/97
f 59/59/59 97/97/97 60/60/60
f 60/60/60 97/97/97 98/98/98
f 60/60/60 98/98/98 61/61/61
f 61/61/61 98/98/98 99/99/99
f 61/61/61 99/99/99 62/62/62
f 62/62/62 99/99/99 100/100/100
f 62/62/62 100/100/100 63/63/63
f 63/63/63 100/100/100 101/101/101
f 63/63/63 101/101/101 64/64/64
f 64/64/64 101/101/101 102/102/102
f 64/64/64 102/102/102 65/65/65
f 65/65/65 102/102/102 103/103/103
f 65/65/65 103/103/103 66/66/66
f 66/66/66 103/103/103 104/104/104
f 66/66/66 104/104/104 67/67/67
f 67/67/67 104/104/104 105/105/105
f 67/67/67 105/105/105 68/68/68
f 68/68/68 105/105/105 106/106/106
f 68/68/68 106/106/106 69/69/69
f 69/69/69 106/106/106 107/107/107
f 69/69/69 107/107/107 70/70/70
f 70/70/70 107/107/107 108/108/108
f 70/70/70 108/108/108 71/71/71
f 71/71/71 108/108/108 109/109/109
f 71/71/71 109/109/109 72/72/72
f 72/72/72 109/109/109 110/110/110
f 72/72/72 110/110/110 73/73/73
f 73/73/73 110/110/110 111/111/111
f 73/73/73 111/111/111 74/74/74
f 75/75/75 112/112/112 113/113/113
f 75/75/75 113/113/113 76/76/76
f 76/76/76 113/113/113 114/114/114
f 76/76/76 114/114/114 77/77/77
f 77/77/77 114/114/114 115/115/115
f 77/77/77 115/115/115 78/78/78
f 78/78/78 115/115/115 116/116/116
f 78/78/78 116/116/116 79/79/79
f 79/79/79 116/116/116 117/117/117
f 79/79/79 117/117/117 80/80/80
f 80/80/80 117/117/117 118/118/118
f 80/80/80 118/118/118 81/81/81
f 81/81/81 118/118/118 119/119/119
f 81/81/81 119/119/119 82/82/82
f 82/82/82 119/119/119 120/120/120
f 82/82/82 120/120/120 83/83/83
f 83/83/83 120/120/120 121/121/121
f 83/83/83 121/121/121 84/84/84
f 84/84/84 121/121/121 122/122/122
f 84/84/84 122/122/122 85/85/85
f 85/85/85 122/122/122 123/123/123
f 85/85/85 123/123/123 86/86/86
f 86/86/86 123/123/123 124/124/124
f 86/86/86 124/124/124 87/87/87
f 87/87/87 124/124/124 125/125/125
f 87/87/87 125/125/125 88/88/88
f 88/88/88 125/125/125 126/126/126
f 88/88/88 126/126/126 89/89/89
f 89/89/89 126/126/126 127/127/127
f 89/89/89 127/127/127 90/90/90
f 90/90/90 127/127/127 128/128/128
f 90/90/90 128/128/128 91/91/91
f 91/91/91 128/128/128 129/129/129
f 91/91/91 129/129/129 92/92/92
f 92/92/92 129/129/129 130/130/130
f 92/92/92 130/130/130 93/93/93
f 93/93/93 130/130/130 131/131/131
f 93/93/93 131/131/131 94/94/94
f 94/94/94 131/131/131 132/132/132
f 94/94/94 132/132/132 95/95/95
f 95/95/95 132/132/132 133/133/133
f 95/95/95 133/133/133 96/96/96
f 96/96/96 133/133/133 134/134/134
f 96/96/96 134/134/134 97/97/97
f 97/97/97 134/134/134 135/135/135
f 97/97/97 135/135/135 98/98/98
f 98/98/98 135/135/135 136/136/136
f 98/98/98 136/136/136 99/99/99
f 99/99/99 136/136/136 137/137/137
f 99/99/99 137/137/137 100/100/100
f 100/100/100 137/137/137 138/138/138
f 100/100/100 138/138/138 101/101/101
f 101/101/101 138/138/138 139/139/139
f 101/101/101 139/139/139 102/102/102
f 102/102/102 139/139/139 140/140/140
f 102/102/102 140/140/140 103/103/103
f 103/103/103 140/140/140 141/141/141
f 103/103/103 141/141/141 104/104/104
f 104/104/104 141/141/141 142/142/142
f 104/104/104 142/142/142 105/105/105
f 105/105/105 142/142/142 143/143/143
f 105/105/105 143/143/143 106/106/106
f 106/106/106 143/143/143 144/144/144
f 106/106/106 144/144/144 107/107/107
f 107/107/107 144/144/144 145/145/145
f 107/107/107 145/145/145 108/108/108
f 108/108/108 145/145/145 146/146/146
f 108/108/108 146/146/146 109/109/109
f 109/109/109 146/146/146 147/147/147
f 109/109/109 147/147/147 110/110/110
f 110/110/110 147/147/147 148/148/148
f 110/110/110 148/148/148 111/111/111
f 112/112/112 149/149/149 150/150/150
f 112/112/112 150/150/150 113/113/113
f 113/113/113 150/150/150 151/151/151
f 113/113/113 151/151/151 114/114/114
f 114/114/114 151/151/151 152/152/152
f 114/114/114 152/152/152 115/115/115
f 115/115/115 152/152/152 153/153/153
f 115/115/115 153/153/153 116/116/116
f 116/116/116 153/153/153 154/154/154
f 116/116/116 154/154/154 117/117/117
f 117/117/117 154/154/154 155/155/155
f 117/117/117 155/155/155 118/118/118
f 118/118/118 155/155/155 156/156/156
f 118/118/118 156/156/156 119/119/119
f 119/119/119 156/156/156 157/157/157
f 119/119/119 157/157/157 120/120/120
f 120/120/120 157/157/157 158/158/158
f 120/120/120 158/158/158 121/121/121
f 121/121/121 158/158/158 159/159/159
f 121/121/121 159/159/159 122/122/122
f 122/122/122 159/159/159 160/160/160
f 122/122/122 160/160/160 123/123/123
f 123/123/123 160/160/160 161/161/161
f 123/123/123 161/161/161 124/124/124
f 124/124/124 161/161/161 162/162/162
f 124/124/124 162/162/162 125/125/125
f 125/125/125 162/162/162 163/163/163
f 125/125/125 163/163/163 126/126/126
f 126/126/126 163/163/163 164/164/164
f 126/126/126 164/164/164 127/127/127
f 127/127/127 164/164/164 165/165/165
f 127/127/127 165/165/165 128/128/128
f 128/128/128 165/165/165 166/166/166
f 128/128/128 166/166/166 129/129/129
f 129/129/129 166/166/166 167/167/167
f 129/129/129 167/167/167 130/130/130
f 130/130/130 167/167/167 168/168/168
f 130/130/130 168/168/168 131/131/131
f 131/131/131 168/168/168 169/169/169
f 131/131/131 169/169/169 132/132/132
f 132/132/132 169/169/169 170/170/170
f 132/132/132 170/170/170 133/133/133
f 133/133/133 170/170/170 171/171/171
f 133/133/133 171/171/171 134/134/134
f 134/134/134 171/171/171 172/172/172
f 134/134/134 172/172/172 135/135/135
f 135/135/135 172/172/172 173/173/173
f 135/135/135 173/173/173 136/136/136
f 136/136/136 173/173/173 174/174/174
f 136/136/136 174/174/174 137/137/137
f 137/137/137 174/174/174 175/175/175
f 137/137/137 175/175/175 138/138/138
f 138/138/138 175/175/175 176/176/176
f 138/138/138 176/176/176 139/139/139
f 139/139/139 176/176/176 177/177/177
f 139/139/139 177/177/177 140/140/140
f 140/140/140 177/177/177 178/178/178
f 140/140/140 178/178/178 141/141/141
f 141/141/141 178/178/178 179/179/179
f 141/141/141 179/179/179 142/142/142
f 142/142/142 179/179/179 180/180/180
f 142/142/142 180/180/180 143/143/143
f 143/143/143 180/180/180 181/181/181
f 143/143/143 181/181/181 144/144/144
f 144/144/144 181/181/181 182/182/182
f 144/144/144 182/182/182 145/145/145
f 145/145/145 182/182/182 183/183/183
f 145/145/145 183/183/183 146/146/146
f 146/146/146 183/183/183 184/184/184
f 146/146/146 184/184/184 147/147/147
f 147/147/147 184/184/184 185/185/185
f 147/147/147 185/185/185 148/148/148
f 149/149/149 186/186/186 187/187/187
f 149/149/149 187/187/187 150/150/150
f 150/150/150 187/187/187 188/188/188
f 150/150/150 188/188/188 151/151/151
f 151/151/151 188/188/188 189/189/189
f 151/151/151 189/189/189 152/152/152
f 152/152/152 189/189/189 190/190/190
f 152/152/152 190/190/190 153/153/153
f 153/153/153 190/190/190 191/191/191
f 153/153/153 191/191/191 154/154/154
f 154/154/154 191/191/191 192/192/192
f 154/154/154 192/192/192 155/155/155
f 155/155/155 192/192/192 193/193/193
f 155/155/155 193/193/193 156/156/156
f 156/156/156 193/193/193 194/194/194
f 156/156/156 194/194/194 157/157/157
f 157/157/157 194/194/194 195/195/195
f 157/157/157 195/195/195 158/158/158
f 158/158/158 195/195/195 196/196/196
f 158/158/158 196/196/196 159/159/159
f 159/159/159 196/196/196 197/197/197
f 159/159/159 197/197/197 160/160/160
f 160/160/160 197/197/197 198/198/198
f 160/160/160 198/198/198 161/161/161
f 161/161/161 198/198/198 199/199/199
f 161/161/161 199/199/199 162/162/162
f 162/162/162 199/199/199 200/200/200
f 162/162/162 200/200/200 163/163/163
f 163/163/163 200/200/200 201/201/201
f 163/163/163 201/201/201 164/164/164
f 164/164/164 201/201/201 202/202/202
f 164/164/164 202/202/202 165/165/165
f 165/165/165 202/202/202 203/203/203
f 165/165/165 203/203/203 166/166/166
f 166/166/166 203/203/203 204/204/204
f 166/166/166 204/204/204 167/167/167
f 167/167/167 204/204/204 205/205/205
f 167/167/167 205/205/205 168/168/168
f 168/168/168 205/205/205 206/206/206
f 168/168/168 206/206/206 169/169/169
f 169/169/169 206/206/206 207/207/207
f 169/169/169 207/207/207 170/170/170
f 170/170/170 207/207/207 208/208/208
f 170/170/170 208/208/208 171/171/171
f 171/171/171 208/208/208 209/209/209
f 171/171/171 209/209/209 172/172/172
f 172/172/172 209/209/209 210/210/210
f 172/172/172 210/210/210 173/173/173
f 173/173/173 210/210/210 211/211/211
f 173/173/173 211/211/211 174/174/174
f 174/174/174 211/211/211 212/212/212
f 174/174/174 212/212/212 175/175/175
f 175/175/175 212/212/212 213/213/213
f 175/175/175 213/213/213 176/176/176
f 176/176/176 213/213/213 214/214/214
f 176/176/176 214/214/214 177/177/177
f 177/177/177 214/214/214 215/215/215
f 177/177/177 215/215/215 178/178/178
f 178/178/178 215/215/215 216/216/216
f 178/178/178 216/216/216 179/179/179
f 179/179/179 216/216/216 217/217/217
f 179/179/179 217/217/217 180/180/180
f 180/180/180 217/217/217 218/218/218
f 180/180/180 218/218/218 181/181/181
f 181/181/181 218/218/218 219/219/219
f 181/181/181 219/219/219 182/182/182
f 182/182/182 219/219/219 220/220/220
f 182/182/182 220/220/220 183/183/183
f 183/183/183 220/220/220 221/221/221
f 183/183/183 221/221/221 184/184/184
f 184/184/184 221/221/221 222/222/222
f 184/184/184 222/222/222 185/185/185
f 186/186/186 223/223/223 224/224/224
f 186/186/186 224/224/224 187/187/187
f 187/187/187 224/224/224 225/225/225
f 187/187/187 225/225/225 188/188/188
f 188/188/188 225/225/225 226/226/226
f 188/188/188 226/226/226 189/189/189
f 189/189/189 226/226/226 227/227/227
f 189/189/189 227/227/227 190/190/190
f 190/190/190 227/227/227 228/228/228
f 190/190/190 228/228/228 191/191/191
f 191/191/191 228/228/228 229/229/229
f 191/191/191 229/229/229 192/192/192
f 192/192/192 229/229/229 230/230/230
f 192/192/192 230/230/230 193/193/193
f 193/193/193 230/230/230 231/231/231
f 193/193/193 231/231/231 194/194/194
f 194/194/194 231/231/231 232/232/232
f 194/194/194 232/232/232 195/195/195
f 195/195/195 232/232/232 233/233/233
f 195/195/195 233/233/233 196/196/196
f 196/196/196 233/233/233 234/234/234
f 196/196/196 234/234/234 197/197/197
f 197/197/197 234/234/234 235/235/235
f 197/197/197 235/235/235 198/198/198
f 198/198/198 235/235/235 236/236/236
f 198/198/198 236/236/236 199/199/199
f 199/199/199 236/236/236 237/237/237
f 199/199/199 237/237/237 200/200/200
f 200/200/200 237/237/237 238/238/238
f 200/200/200 238/238/238 201/201/201
f 201/201/201 238/238/238 239/239/239
f 201/201/201 239/239/239 202/202/202
f 202/202/202 239/239/239 240/240/240
f 202/202/202 240/240/240 203/203/203
f 203/203/203 240/240/240 241/241/241
f 203/203/203 241/241/241 204/204/204
f 204/204/204 241/241/241 242/242/242
f 204/204/204 242/242/242 205/205/205
f 205/205/205 242/242/242 243/243/243
f 205/205/205 243/243/243 206/206/206
f 206/206/206 243/243/243 244/244/244
f 206/206/206 244/244/244 207/207/207
f 207/207/207 244/244/244 245/245/245
f 207/207/207 245/245/245 208/208/208
f 208/208/208 245/245/245 246/246/246
f 208/208/208 246/246/246 209/209/209
f 209/209/209 246/246/246 247/247/247
f 209/209/209 247/247/247 210/210/210
f 210/210/210 247/247/247 248/248/248
f 210/210/210 248/248/248 211/211/211
f 211/211/211 248/248/248 249/249/249
f 211/211/211 249/249/249 212/212/212
f 212/212/212 249/249/249 250/250/250
f 212/212/212 250/250/250 213/213/213
f 213/213/213 250/250/250 251/251/251
f 213/213/213 251/251/251 214/214/214
f 214/214/214 251/251/251 252/252/252
f 214/214/214 252/252/252 215/215/215
f 215/215/215 252/252/252 253/253/253
f 215/215/215 253/253/253 216/216/216
f 216/216/216 253/253/253 254/254/254
f 216/216/216 254/254/254 217/217/217
f 217/217/217 254/254/254 255/255/255
f 217/217/217 255/255/255 218/218/218
f 218/218/218 255/255/255 256/256/256
f 218/218/218 256/256/256 219/219/219
f 219/219/219 256/256/256 257/257/257
f 219/219/219 257/257/257 220/220/220
f 220/220/220 257/257/257 258/258/258
f 220/220/220 258/258/258 221/221/221
f 221/221/221 258/258/258 259/259/259
f 221/221/221 259/259/259 222/222/222
f 223/223/223 260/260/260 261/261/261
f 223/223/223 261/261/261 224/224/224
f 224/224/224 261/261/261 262/262/262
f 224/224/224 262/262/262 225/225/225
f 225/225/225 262/262/262 263/263/263
f 225/225/225 263/263/263 226/226/226
f 226/226/226 263/263/263 264/264/264
f 226/226/226 264/264/264 227/227/227
f 227/227/227 264/264/264 265/265/265
f 227/227/227 265/265/265 228/228/228
f 228/228/228 265/265/265 266/266/266
f 228/228/228 266/266/266 229/229/229
f 229/229/229 266/266/266 267/267/267
f 229/229/229 267/267/267 230/230/230
f 230/230/230 267/267/267 268/268/268
f 230/230/230 268/268/268 231/231/231
f 231/231/231 268/268/268 269/269/269
f 231/231/231 269/269/269 232/232/232
f 232/232/232 269/269/269 270/270/270
f 232/232/232 270/270/270 233/233/233
f 233/233/233 270/270/270 271/271/271
f 233/233/233 271/271/271 234/234/234
f 234/234/234 271/271/271 272/272/272
f 234/234/234 272/272/272 235/235/235
f 235/235/235 272/272/272 273/273/273
f 235/235/235 273/273/273 236/236/236
f 236/236/236 273/273/273 274/274/274
f 236/236/236 274/274/274 237/237/237
f 237/237/237 274/274/274 275/275/275
f 237/237/237 275/275/275 238/238/238
f 238/238/238 275/275/275 276/276/276
f 238/238/238 276/276/276 239/239/239
f 239/239/239 276/276/276 277/277/277
f 239/239/239 277/277/277 240/240/240
f 240/240/240 277/277/277 278/278/278
f 240/240/240 278/278/278 241/241/241
f 241/241/241 278/278/278 279/279/279
f 241/241/241 279/279/279 242/242/242
f 242/242/242 279/279/279 280/280/280
f 242/242/242 280/280/280 243/243/243
f 243/243/243 280/280/280 281/281/281
f 243/243/243 281/281/281 244/244/244
f 244/244/244 281/281/281 282/282/282
f 244/244/244 282/282/282 245/245/245
f 245/245/245 282/282/282 283/283/283
f 245/245/245 283/283/283 246/246/246
f 246/246/246 283/283/283 284/284/284
f 246/246/246 284/284/284 247/247/247
f 247/247/247 284/284/284 285/285/285
f 247/247/247 285/285/285 248/248/248
f 248/248/248 285/285/285 286/286/286
f 248/248/248 286/286/286 249/249/249
f 249/249/249 286/286/286 287/287/287
f 249/249/249 287/287/287 250/250/250
f 250/250/250 287/287/287 288/288/288
f 250/250/250 288/288/288 251/251/251
f 251/251/251 288/288/288 289/289/289
f 251/251/251 289/289/289 252/252/252
f 252/252/252 289/289/289 290/290/290
f 252/252/252 290/290/290 253/253/253
f 253/253/253 290/290/290 291/291/291
f 253/253/253 291/291/291 254/254/254
f 254/254/254 291/291/291 292/292/292
f 254/254/254 292/292/292 255/255/255
f 255/255/255 292/292/292 293/293/293
f 255/255/255 293/293/293 256/256/256
f 256/256/256 293/293/293 294/294/294
f 256/256/256 294/294/294 257/257/257
f 257/257/257 294/294/294 295/295/295
f 257/257/257 295/295/295 258/258/258
f 258/258/258 295/295/295 296/296/296
f 258/258/258 296/296/296 259/259/259
f 260/260/260 297/297/297 298/298/298
f 260/260/260 298/298/298 261/261/261
f 261/261/261 298/298/298 299/299/299
f 261/261/261 299/299/299 262/262/262
f 262/262/262 299/299/299 300/300/300
f 262/262/262 300/300/300 263/263/263
f 263/263/263 300/300/300 301/301/301
f 263/263/263 301/301/301 264/264/264
f 264/264/264 301/301/301 302/302/302
f 264/264/264 302/302/302 265/265/265
f 265/265/265 302/302/302 303/303/303
f 265/265/265 303/303/303 266/266/266
f 266/266/266 303/303/303 304/304/304
f 266/266/266 304/304/304 267/267/267
f 267/267/267 304/304/304 305/305/305
f 267/267/267 305/305/305 268/268/268
f 268/268/268 305/305/305 306/306/306
f 268/268/268 306/306/306 269/269/269
f 269/269/269 306/306/306 307/307/307
f 269/269/269 307/307/307 270/270/270
f 270/270/270 307/307/307 308/308/308
f 270/270/270 308/308/308 271/271/271
f 271/271/271 308/308/308 309/309/309
f 271/271/271 309/309/309 272/272/272
f 272/272/272 309/309/309 310/310/310
f 272/272/272 310/310/310 273/273/273
f 273/273/273 310/310/310 311/311/311
f 273/273/273 311/311/311 274/274/274
f 274/274/274 311/311/311 312/312/312
f 274/274/274 312/312/312 275/275/275
f 275/275/275 312/312/312 313/313/313
f 275/275/275 313/313/313 276/276/276
f 276/276/276 313/313/313 314/314/314
f 276/276/276 314/314/314 277/277/277
f 277/277/277 314/314/314 315/315/315
f 277/277/277 315/315/315 278/278/278
f 278/278/278 315/315/315 316/316/316
f 278/278/278 316/316/316 279/279/279
f 279/279/279 316/316/316 317/317/317
f 279/279/279 317/317/317 280/280/280
f 280/280/280 317/317/317 318/318/318
f 280/280/280 318/318/318 281/281/281
f 281/281/281 318/318/318 319/319/319
f 281/281/281 319/319/319 282/282/282
f 282/282/282 319/319/319 320/320/320
f 282/282/282 320/320/320 283/283/283
f 283/283/283 320/320/320 321/321/321
f 283/283/283 321/321/321 284/284/284
f 284/284/284 321/321/321 322/322/322
f 284/284/284 322/322/322 285/285/285
f 285/285/285 322/322/322 323/323/323
f 285/285/285 323/323/323 286/286/286
f 286/286/286 323/323/323 324/324/324
f 286/286/286 324/324/324 287/287/287
f 287/287/287 324/324/324 325/325/325
f 287/287/287 325/325/325 288/288/288
f 288/288/288 325/325/325 326/326/326
f 288/288/288 326/326/326 289/289/289
f 289/289/289 326/326/326 327/327/327
f 289/289/289 327/327/327 290/290/290
f 290/290/290 327/327/327 328/328/328
f 290/290/290 328/328/328 291/291/291
f 291/291/291 328/328/328 329/329/329
f 291/291/291 329/329/329 292/292/292
f 292/292/292 329/329/329 330/330/330
f 292/292/292 330/330/330 293/293/293
f 293/293/293 330/330/330 331/331/331
f 293/293/293 331/331/331 294/294/294
f 294/294/294 331/331/331 332/332/332
f 294/294/294 332/332/332 295/295/295
f 295/295/295 332/332/332 333/333/333
f 295/295/295 333/333/333 296/296/296
f 297/297/297 334/334/334 335/335/335
f 297/297/297 335/335/335 298/298/298
f 298/298/298 335/335/335 336/336/336
f 298/298/298 336/336/336 299/299/299
f 299/299/299 336/336/336 337/337/337
f 299/299/299 337/337/337 300/300/300
f 300/300/300 337/337/337 338/338/338
f 300/300/300 338/338/338 301/301/301
f 301/301/301 338/338/338 339/339/339
f 301/301/301 339/339/339 302/302/302
f 302/302/302 339/339/339 340/340/340
f 302/302/302 340/340/340 303/303/303
f 303/303/303 340/340/340 341/341/341
f 303/303/303 341/341/341 304/304/304
f 304/304/304 341/341/341 342/342/342
f 304/304/304 342/342/342 305/305/305
f 305/305/305 342/342/342 343/343/343
f 305/305/305 343/343/343 306/306/306
f 306/306/306 343/343/343 344/344/344
f 306/306/306 344/344/344 307/307/307
f 307/307/307 344/344/344 345/345/345
f 307/307/307 345/345/345 308/308/308
f 308/308/308 345/345/345 346/346/346
f 308/308/308 346/346/346 309/309/309
f 309/309/309 346/346/346 347/347/347
f 309/309/309 347/347/347 310/310/310
f 310/310/310 347/347/347 348/348/348
f 310/310/310 348/348/348 311/311/311
f 311/311/311 348/348/348 349/349/349
f 311/311/311 349/349/349 312/312/312
f 312/312/312 349/349/349 350/350/350
f 312/312/312 350/350/350 313/313/313
f 313/313/313 350/350/350 351/351/351
f 313/313/313 351/351/351 314/314/314
f 314/314/314 351/351/351 352/352/352
f 314/314/314 352/352/352 315/315/315
f 315/315/315 352/352/352 353/353/353
f 315/315/315 353/353/353 316/316/316
f 316/316/316 353/353/353 354/354/354
f 316/316/316 354/354/354 317/317/317
f 317/317/317 354/354/354 355/355/355
f 317/317/317 355/355/355 318/318/318
f 318/318/318 355/355/355 356/356/356
f 318/318/318 356/356/356 319/319/319
f 319/319/319 356/356/356 357/357/357
f 319/319/319 357/357/357 320/320/320
f 320/320/320 357/357/357 358/358/358
f 320/320/320 358/358/358 321/321/321
f 321/321/321 358/358/358 359/359/359
f 321/321/321 359/359/359 322/322/322
f 322/322/322 359/359/359 360/360/360
f 322/322/322 360/360/360 323/323/323
f 323/323/323 360/360/360 361/361/361
f 323/323/323 361/361/361 324/324/324
f 324/324/324 361/361/361 362/362/362
f 324/324/324 362/362/362 325/325/325
f 325/325/325 362/362/362 363/363/363
f 325/325/325 363/363/363 326/326/326
f 326/326/326 363/363/363 364/364/364
f 326/326/326 364/364/364 327/327/327
f 327/327/327 364/364/364 365/365/365
f 327/327/327 365/365/365 328/328/328
f 328/328/328 365/365/365 366/366/366
f 328/328/328 366/366/366 329/329/329
f 329/329/329 366/366/366 367/367/367
f 329/329/329 367/367/367 330/330/330
f 330/330/330 367/367/367 368/368/368
f 330/330/330 368/368/368 331/331/331
f 331/331/331 368/368/368 369/369/369
f 331/331/331 369/369/369 332/332/332
f 332/332/332 369/369/369 370/370/370
f 332/332/332 370/370/370 333/333/333
f 334/334/334 371/371/371 372/372/372
f 334/334/334 372/372/372 335/335/335
f 335/335/335 372/372/372 373/373/373
f 335/335/335 373/373/373 336/336/336
f 336/336/336 373/373/373 374/374/374
f 336/336/336 374/374/374 337/337/337
f 337/337/337 374/374/374 375/375/375
f 337/337/337 375/375/375 338/338/338
f 338/338/338 375/375/375 376/376/376
f 338/338/338 376/376/376 339/339/339
f 339/339/339 376/376/376 377/377/377
f 339/339/339 377/377/377 340/340/340
f 340/340/340 377/377/377 378/378/378
f 340/340/340 378/378/378 341/341/341
f 341/341/341 378/378/378 379/379/379
f 341/341/341 379/379/379 342/342/342
f 342/342/342 379/379/379 380/380/380
f 342/342/342 380/380/380 343/343/343
f 343/343/343 380/380/380 381/381/381
f 343/343/343 381/381/381 344/344/344
f 344/344/344 381/381/381 382/382/382
f 344/344/344 382/382/382 345/345/345
f 345/345/345 382/382/382 383/383/383
f 345/345/345 383/383/383 346/346/346
f 346/346/346 383/383/383 384/384/384
f 346/346/346 384/384/384 347/347/347
f 347/347/347 384/384/384 385/385/385
f 347/347/347 385/385/385 348/348/348
f 348/348/348 385/385/385 386/386/386
f 348/348/348 386/386/386 349/349/349
f 349/349/349 386/386/386 387/387/387
f 349/349/349 387/387/387 350/350/350
f 350/350/350 387/387/387 388/388/388
f 350/350/350 388/388/388 351/351/351
f 351/351/351 388/388/388 389/389/389
f 351/351/351 389/389/389 352/352/352
f 352/352/352 389/389/389 390/390/390
f 352/352/352 390/390/390 353/353/353
f 353/353/353 390/390/390 391/391/391
f 353/353/353 391/391/391 354/354/354
f 354/354/354 391/391/391 392/392/392
f 354/354/354 392/392/392 355/355/355
f 355/355/355 392/392/392 393/393/393
f 355/355/355 393/393/393 356/356/356
f 356/356/356 393/393/393 394/394/394
f 356/356/356 394/394/394 357/357/357
f 357/357/357 394/394/394 395/395/395
f 357/357/357 395/395/395 358/358/358
f 358/358/358 395/395/395 396/396/396
f 358/358/358 396/396/396 359/359/359
f 359/359/359 396/396/396 397/397/397
f 359/359/359 397/397/397 360/360/360
f 360/360/360 397/397/397 398/398/398
f 360/360/360 398/398/398 361/361/361
f 361/361/361 398/398/398 399/399/399
f 361/361/361 399/399/399 362/362/362
f 362/362/362 399/399/399 400/400/400
f 362/362/362 400/400/400 363/363/363
f 363/363/363 400/400/400 401/401/401
f 363/363/363 401/401/401 364/364/364
f 364/364/364 401/401/401 402/402/402
f 364/364/364 402/402/402 365/365/365
f 365/365/365 402/402/402 403/403/403
f 365/365/365 403/403/403 366/366/366
f 366/366/366 403/403/403 404/404/404
f 366/366/366 404/404/404 367/367/367
f 367/367/367 404/404/404 405/405/405
f 367/367/367 405/405/405 368/368/368
f 368/368/368 405/405/405 406/406/406
f 368/368/368 406/406/406 369/369/369
f 369/369/369 406/406/406 407/407/407
f 369/369/369 407/407/407 370/370/370
f 371/371/371 408/408/408 409/409/409
f 371/371/371 409/409/409 372/372/372
f 372/372/372 409/409/409 410/410/410
f 372/372/372 410/410/410 373/373/373
f 373/373/373 410/410/410 411/411/411
f 373/373/373 411/411/411 374/374/374
f 374/374/374 411/411/411 412/412/412
f 374/374/374 412/412/412 375/375/375
f 375/375/375 412/412/412 413/413/413
f 375/375/375 413/413/413 376/376/376
f 376/376/376 413/413/413 414/414/414
f 376/376/376 414/414/414 377/377/377
f 377/377/377 414/414/414 415/415/415
f 377/377/377 415/415/415 378/378/378
f 378/378/378 415/415/415 416/416/416
f 378/378/378 416/416/416 379/379/379
f 379/379/379 416/416/416 417/417/417
f 379/379/379 417/417/417 380/380/380
f 380/380/380 417/417/417 418/418/418
f 380/380/380 418/418/418 381/381/381
f 381/381/381 418/418/418 419/419/419
f 381/381/381 419/419/419 382/382/382
f 382/382/382 419/419/419 420/420/420
f 382/382/382 420/420/420 383/383/383
f 383/383/383 420/420/420 421/421/421
f 383/383/383 421/421/421 384/384/384
f 384/384/384 421/421/421 422/422/422
f 384/384/384 422/422/422 385/385/385
f 385/385/385 422/422/422 423/423/423
f 385/385/385 423/423/423 386/386/386
f 386/386/386 423/423/423 424/424/424
f 386/386/386 424/424/424 387/387/387
f 387/387/387 424/424/424 425/425/425
f 387/387/387 425/425/425 388/388/388
f 388/388/388 425/425/425 426/426/426
f 388/388/388 426/426/426 389/389/389
f 389/389/389 426/426/426 427/427/427
f 389/389/389 427/427/427 390/390/390
f 390/390/390 427/427/427 428/428/428
f 390/390/390 428/428/428 391/391/391
f 391/391/391 428/428/428 429/429/429
f 391/391/391 429/429/429 392/392/392
f 392/392/392 429/429/429 430/430/430
f 392/392/392 430/430/430 393/393/393
f 393/393/393 430/430/430 431/431/431
f 393/393/393 431/431/431 394/394/394
f 394/394/394 431/431/431 432/432/432
f 394/394/394 432/432/432 395/395/395
f 395/395/395 432/432/432 433/433/433
f 395/395/395 433/433/433 396/396/396
f 396/396/396 433/433/433 434/434/434
f 396/396/396 434/434/434 397/397/397
f 397/397/397 434/434/434 435/435/435
f 397/397/397 435/435/435 398/398/398
f 398/398/398 435/435/435 436/436/436
f 398/398/398 436/436/436 399/399/399
f 399/399/399 436/436/436 437/437/437
f 399/399/399 437/437/437 400/400/400
f 400/400/400 437/437/437 438/438/438
f 400/400/400 438/438/438 401/401/401
f 401/401/401 438/438/438 439/439/439
f 401/401/401 439/439/439 402/402/402
f 402/402/402 439/439/439 440/440/440
f 402/402/402 440/440/440 403/403/403
f 403/403/403 440/440/440 441/441/441
f 403/403/403 441/441/441 404/404/404
f 404/404/404 441/441/441 442/442/442
f 404/404/404 442/442/442 405/405/405
f 405/405/405 442/442/442 443/443/443
f 405/405/405 443/443/443 406/406/406
f 406/406/406 443/443/443 444/444/444
f 406/406/406 444/444/444 407/407/407
f 408/408/408 445/445/445 446/446/446
f 408/408/408 446/446/446 409/409/409
f 409/409/409 446/446/446 447/447/447
f 409/409/409 447/447/447 410/410/410
f 410/410/410 447/447/447 448/448/448
f 410/410/410 448/448/448 411/411/411
f 411/411/411 448/448/448 449/449/449
f 411/411/411 449/449/449 412/412/412
f 412/412/412 449/449/449 450/450/450
f 412/412/412 450/450/450 413/413/413
f 413/413/413 450/450/450 451/451/451
f 413/413/413 451/451/451 414/414/414
f 414/414/414 451/451/451 452/452/452
f 414/414/414 452/452/452 415/415/415
f 415/415/415 452/452/452 453/453/453
f 415/415/415 453/453/453 416/416/416
f 416/416/416 453/453/453 454/454/454
f 416/416/416 454/454/454 417/417/417
f 417/417/417 454/454/454 455/455/455
f 417/417/417 455/455/455 418/418/418
f 418/418/418 455/455/455 456/456/456
f 418/418/418 456/456/456 419/419/419
f 419/419/419 456/456/456 457/457/457
f 419/419/419 457/457/457 420/420/420
f 420/420/420 457/457/457 458/458/458
f 420/420/420 458/458/458 421/421/421
f 421/421/421 458/458/458 459/459/459
f 421/421/421 459/459/459 422/422/422
f 422/422/422 459/459/459 460/460/460
f 422/422/422 460/460/460 423/423/423
f 423/423/423 460/460/460 461/461/461
f 423/423/423 461/461/461 424/424/424
f 424/424/424 461/461/461 462/462/462
f 424/424/424 462/462/462 425/425/425
f 425/425/425 462/462/462 463/463/463
f 425/425/425 463/463/463 426/426/426
f 426/426/426 463/463/463 464/464/464
f 426/426/426 464/464/464 427/427/427
f 427/427/427 464/464/464 465/465/465
f 427/427/427 465/465/465 428/428/428
f 428/428/428 465/465/465 466/466/466
f 428/428/428 466/466/466 429/429/429
f 429/429/429 466/466/466 467/467/467
f 429/429/429 467/467/467 430/430/430
f 430/430/430 467/467/467 468/468/468
f 430/430/430 468/468/468 431/431/431
f 431/431/431 468/468/468 469/469/469
f 431/431/431 469/469/469 432/432/432
f 432/432/432 469/469/469 470/470/470
f 432/432/432 470/470/470 433/433/433
f 433/433/433 470/470/470 471/471/471
f 433/433/433 471/471/471 434/434/434
f 434/434/434 471/471/471 472/472/472
f 434/434/434 472/472/472 435/435/435
f 435/435/435 472/472/472 473/473/473
f 435/435/435 473/473/473 436/436/436
f 436/436/436 473/473/473 474/474/474
f 436/436/436 474/474/474 437/437/437
f 437/437/437 474/474/474 475/475/475
f 437/437/437 475/475/475 438/438/438
f 438/438/438 475/475/475 476/476/476
f 438/438/438 476/476/476 439/439/439
f 439/439/439 476/476/476 477/477/477
f 439/439/439 477/477/477 440/440/440
f 440/440/440 477/477/477 478/478/478
f 440/440/440 478/478/478 441/441/441
f 441/441/441 478/478/478 479/479/479
f 441/441/441 479/479/479 442/442/442
f 442/442/442 479/479/479 480/480/480
f 442/442/442 480/480/480 443/443/443
f 443/443/443 480/480/480 481/481/481
f 443/443/443 481/481/481 444/444/444
