# Generated outdoor terrain edge; cosmetic only.
s 1
v -159.640083 0.045 -160.359917
v -159.64574 0.078575 -160.35426
v -159.652811 0.1 -160.347189
v -159.658379 0.055312 -160.341621
v -159.664124 0.0028 -160.335876
v -159.671195 -0.006475 -160.328805
v -159.678266 -0.0048 -160.321734
v -159.68486 -0.009025 -160.31514
v -159.68958 -0.0144 -160.31042
v -159.690093 -0.0226 -160.309907
v -159.688732 -0.0312 -160.311268
v -159.687441 -0.03765 -160.312559
v -159.685055 -0.044 -160.314945
v -159.680582 -0.0518 -160.319418
v -159.675438 -0.06 -160.324562
v -159.670453 -0.068125 -160.329547
v -159.666387 -0.076 -160.333613
v -159.66469 -0.084 -160.33531
v -159.664124 -0.09 -160.335876
v -146.320763 0.045 -151.651586
v -146.863991 0.061793 -151.098562
v -147.543027 0.1 -150.407283
v -148.077767 0.235117 -149.8629
v -148.629484 0.271309 -149.301235
v -149.308519 -0.028052 -148.609955
v -149.987555 -0.4651 -147.918675
v -150.620755 -0.874486 -147.274057
v -151.074011 -1.395301 -146.812628
v -151.123241 -2.189848 -146.76251
v -150.992527 -3.023153 -146.895581
v -150.868603 -3.648132 -147.02174
v -150.639429 -4.263421 -147.255047
v -150.209939 -5.019209 -147.692281
v -149.71594 -5.813755 -148.195187
v -149.23722 -6.601035 -148.68254
v -148.846775 -7.36409 -149.080025
v -148.683806 -8.139258 -149.245933
v -148.629484 -8.720633 -149.301235
v -133.581626 0.045 -142.42586
v -134.525912 0.049006 -141.447209
v -135.70627 0.1 -140.223896
v -136.635802 0.372122 -139.260536
v -137.594843 0.475903 -138.266594
v -138.775201 -0.044492 -137.043281
v -139.955559 -0.815833 -135.819967
v -141.056243 -1.533936 -134.679228
v -141.844132 -2.447499 -133.862666
v -141.929708 -3.841214 -133.773976
v -141.702489 -5.302916 -134.009463
v -141.487073 -6.399191 -134.232718
v -141.088703 -7.478471 -134.645586
v -140.342126 -8.8042 -135.419332
v -139.483416 -10.197914 -136.309293
v -138.651263 -11.578882 -137.171729
v -137.972557 -12.917358 -137.875134
v -137.689271 -14.27708 -138.168729
v -137.594843 -15.296872 -138.266594
v -122.148523 0.045 -131.886668
v -123.186565 0.045753 -130.791441
v -124.484118 0.1 -129.422407
v -125.50594 0.40698 -128.344293
v -126.560202 0.527957 -127.231954
v -127.857755 -0.048675 -125.86292
v -129.155308 -0.905069 -124.493886
v -130.365276 -1.701719 -123.217262
v -131.231392 -2.715208 -122.303432
v -131.325465 -4.261369 -122.204177
v -131.075686 -5.882952 -122.467716
v -130.838882 -7.099139 -122.717565
v -130.400958 -8.29647 -123.179614
v -129.580256 -9.767208 -124.045528
v -128.636287 -11.313368 -125.0415
v -127.721512 -12.845387 -126.006668
v -126.975419 -14.330266 -126.793863
v -126.664006 -15.838716 -127.122431
v -126.560202 -16.970052 -127.231954
v -111.003207 0.045 -121.054922
v -112.06729 0.044611 -119.911955
v -113.397395 0.1 -118.483246
v -114.444852 0.419208 -117.358138
v -115.525561 0.546217 -116.197313
v -116.855666 -0.050142 -114.768604
v -118.18577 -0.936372 -113.339896
v -119.426092 -1.760575 -112.007625
v -120.313937 -2.809116 -111.053962
v -120.410369 -4.408752 -110.950381
v -120.154324 -6.086419 -111.225408
v -119.91158 -7.344669 -111.486147
v -119.46267 -8.583411 -111.968336
v -118.621379 -10.105015 -112.871994
v -117.653728 -11.704651 -113.911379
v -116.716005 -13.289656 -114.918619
v -115.951195 -14.825891 -115.740126
v -115.63197 -16.386511 -116.083016
v -115.525561 -17.556977 -116.197313
v -100.299084 0.045 -109.746582
v -101.285399 0.04681 -108.668015
v -102.518292 0.1 -107.319806
v -103.489195 0.395646 -106.258092
v -104.490921 0.511032 -105.162672
v -105.723814 -0.047315 -103.814464
v -106.956707 -0.876055 -102.466255
v -108.106379 -1.647166 -101.20905
v -108.929336 -2.628165 -100.309121
v -109.01872 -4.124759 -100.211376
v -108.781388 -5.694357 -100.470906
v -108.556385 -6.871556 -100.716954
v -108.140284 -8.030504 -101.171975
v -107.360479 -9.454093 -102.024717
v -106.46355 -10.950687 -103.005538
v -105.59436 -12.433592 -103.956025
v -104.885446 -13.87087 -104.731245
v -104.589552 -15.330962 -105.054815
v -104.490921 -16.42603 -105.162672
v -89.734796 0.045 -98.271155
v -90.61044 0.050127 -97.296302
v -91.704994 0.1 -96.077736
v -92.566955 0.360117 -95.118116
v -93.45628 0.457974 -94.128031
v -94.550834 -0.043052 -92.909466
v -95.645388 -0.785099 -91.6909
v -96.66606 -1.476149 -90.554588
v -97.396674 -2.355296 -89.741195
v -97.47603 -3.696507 -89.652849
v -97.265328 -5.103142 -89.887423
v -97.065572 -6.158119 -90.109811
v -96.69616 -7.196739 -90.521077
v -96.003854 -8.472525 -91.29182
v -95.207566 -9.813735 -92.178326
v -94.435906 -11.142679 -93.037415
v -93.806537 -12.430731 -93.73809
v -93.543844 -13.739229 -94.030546
v -93.45628 -14.720603 -94.128031
v -78.944534 0.045 -87.034487
v -79.762676 0.051751 -86.107171
v -80.785354 0.1 -84.948024
v -81.590713 0.342709 -84.035197
v -82.421639 0.431979 -83.093391
v -83.444317 -0.040963 -81.934245
v -84.466995 -0.740536 -80.775099
v -85.420643 -1.392361 -79.694195
v -86.10328 -2.221607 -78.920465
v -86.177425 -3.486689 -78.836427
v -85.980559 -4.813482 -79.059562
v -85.79392 -5.808577 -79.271106
v -85.448766 -6.788244 -79.662318
v -84.801923 -7.991614 -80.395478
v -84.057924 -9.256696 -81.238757
v -83.336936 -10.510207 -82.055955
v -82.748896 -11.725148 -82.722464
v -82.503454 -12.959374 -83.000659
v -82.421639 -13.885044 -83.093391
v -67.954893 0.045 -76.019306
v -68.762447 0.051844 -75.08741
v -69.77189 0.1 -73.922541
v -70.566826 0.341713 -73.005206
v -71.386999 0.430492 -72.05875
v -72.396441 -0.040843 -70.893881
v -73.405884 -0.737986 -69.729011
v -74.34719 -1.387568 -68.642771
v -75.020993 -2.213958 -67.86522
v -75.094178 -3.474684 -67.780767
v -74.89986 -4.796909 -68.005005
v -74.715637 -5.788578 -68.217593
v -74.37495 -6.764872 -68.610737
v -73.736477 -7.9641 -69.347517
v -73.002107 -9.224826 -70.194959
v -72.29045 -10.474021 -71.016192
v -71.71002 -11.684779 -71.685992
v -71.467754 -12.914756 -71.96556
v -71.386999 -13.837239 -72.05875
v -56.941627 0.045 -65.031385
v -57.744152 0.051752 -64.088497
v -58.747308 0.1 -62.909886
v -59.537293 0.342702 -61.98173
v -60.352358 0.431968 -61.024109
v -61.355514 -0.040962 -59.845499
v -62.35867 -0.740516 -58.666888
v -63.294114 -1.392325 -57.567834
v -63.96372 -2.221549 -56.781111
v -64.036449 -3.486597 -56.695662
v -63.843342 -4.813355 -56.922545
v -63.660266 -5.808424 -57.137641
v -63.3217 -6.788065 -57.535422
v -62.687204 -7.991404 -58.280893
v -61.957408 -9.256452 -59.138332
v -61.250183 -10.50993 -59.969253
v -60.673368 -11.72484 -60.646954
v -60.43261 -12.959033 -60.92982
v -60.352358 -13.884679 -61.024109
v -46.213357 0.045 -53.703036
v -46.943795 0.053936 -52.829256
v -47.856842 0.1 -51.73703
v -48.575866 0.319302 -50.876902
v -49.317717 0.397024 -49.989469
v -50.230764 -0.038154 -48.897243
v -51.143811 -0.680612 -47.805017
v -51.995228 -1.279693 -46.786516
v -52.604687 -2.041837 -46.057456
v -52.670882 -3.204549 -45.978269
v -52.495121 -4.423979 -46.188523
v -52.32849 -5.338552 -46.387854
v -52.020336 -6.238945 -46.75648
v -51.442834 -7.34494 -47.447313
v -50.778592 -8.507652 -48.241907
v -50.134894 -9.65973 -49.011926
v -49.609892 -10.77636 -49.639956
v -49.390761 -11.910713 -49.902091
v -49.317717 -12.761479 -49.989469
v -35.350551 0.045 -42.526661
v -36.040557 0.055077 -41.68623
v -36.903065 0.1 -40.635691
v -37.582289 0.307074 -39.808391
v -38.283076 0.378764 -38.954828
v -39.145584 -0.036686 -37.904289
v -40.008091 -0.64931 -36.853749
v -40.812379 -1.220837 -35.874122
v -41.388103 -1.947929 -35.172887
v -41.450635 -3.057166 -35.096723
v -41.284602 -4.220512 -35.298951
v -41.127195 -5.093022 -35.490675
v -40.836098 -5.952004 -35.845232
v -40.290562 -7.007132 -36.509698
v -39.663088 -8.11637 -37.273965
v -39.055021 -9.215461 -38.014595
v -38.559079 -10.280735 -38.618655
v -38.352077 -11.362918 -38.870785
v -38.283076 -12.174554 -38.954828
v -23.963393 0.045 -31.994314
v -24.736344 0.051966 -31.035696
v -25.702533 0.1 -29.837423
v -26.463407 0.340407 -28.893784
v -27.248436 0.428542 -27.920187
v -28.214625 -0.040686 -26.721915
v -29.180814 -0.734643 -25.523642
v -30.081785 -1.381281 -24.406253
v -30.726716 -2.203928 -23.606406
v -30.796765 -3.458942 -23.519531
v -30.610774 -4.775177 -23.750199
v -30.434444 -5.762353 -23.968883
v -30.108355 -6.734224 -24.3733
v -29.497241 -7.928018 -25.131208
v -28.794338 -9.183033 -26.002951
v -28.113175 -10.426569 -26.847733
v -27.557616 -11.631842 -27.53674
v -27.325731 -12.856246 -27.824325
v -27.248436 -13.774549 -27.920187
v -12.432266 0.045 -21.661061
v -13.322038 0.047606 -20.53741
v -14.434252 0.1 -19.132847
v -15.310121 0.387118 -18.026754
v -16.213795 0.498296 -16.885546
v -17.326009 -0.046292 -15.480983
v -18.438224 -0.854223 -14.07642
v -19.475363 -1.606116 -12.766665
v -20.217767 -2.562668 -11.829119
v -20.298402 -4.021965 -11.727289
v -20.084301 -5.552447 -11.997667
v -19.881322 -6.700308 -12.254
v -19.505949 -7.830374 -12.72804
v -18.802474 -9.218485 -13.616426
v -17.993338 -10.677782 -14.638246
v -17.209227 -12.123732 -15.628462
v -16.569704 -13.525191 -16.436086
v -16.302772 -14.948895 -16.773181
v -16.213795 -16.016673 -16.885546
v -1.230864 0.045 -10.928262
v -2.159874 0.045901 -9.73359
v -3.321135 0.1 -8.24025
v -4.235629 0.405391 -7.064244
v -5.179154 0.525584 -5.850906
v -6.340416 -0.048484 -4.357566
v -7.501678 -0.901002 -2.864226
v -8.584554 -1.694071 -1.471686
v -9.359697 -2.703005 -0.474882
v -9.443888 -4.242216 -0.366615
v -9.220345 -5.856511 -0.654082
v -9.008415 -7.067232 -0.926617
v -8.616489 -8.259182 -1.430619
v -7.881991 -9.72331 -2.375157
v -7.037173 -11.262521 -3.461562
v -6.218484 -12.787654 -4.514366
v -5.550758 -14.26586 -5.373037
v -5.272055 -15.76753 -5.731439
v -5.179154 -16.893782 -5.850906
v 9.627682 0.045 0.243854
v 8.740107 0.047042 1.406179
v 7.630637 0.1 2.859085
v 6.75693 0.393164 4.003249
v 5.855486 0.507324 5.183735
v 4.746017 -0.047017 6.636641
v 3.636548 -0.869699 8.089548
v 2.601968 -1.635215 9.444383
v 1.861397 -2.609097 10.414198
v 1.780961 -4.094833 10.519533
v 1.994533 -5.653044 10.239849
v 2.197012 -6.821702 9.974693
v 2.571457 -7.972242 9.484338
v 3.273197 -9.385503 8.565374
v 4.080336 -10.871239 7.508385
v 4.862511 -12.343386 6.484086
v 5.500456 -13.770236 5.648665
v 5.766729 -15.219734 5.299968
v 5.855486 -16.306858 5.183735
v 20.544006 0.045 11.345454
v 19.68427 0.047717 12.492024
v 18.609599 0.1 13.925236
v 17.763297 0.385939 15.053891
v 16.890127 0.496535 16.218376
v 15.815457 -0.04615 17.651588
v 14.740787 -0.851204 19.0848
v 13.738657 -1.60044 20.421271
v 13.021315 -2.553611 21.37794
v 12.943401 -4.00775 21.481848
v 13.150275 -5.532823 21.205955
v 13.346402 -6.676628 20.944393
v 13.709103 -7.802699 20.460684
v 14.388832 -9.185905 19.554177
v 15.170655 -10.640044 18.511515
v 15.928297 -12.080883 17.501101
v 16.546233 -13.477389 16.677004
v 16.804154 -14.896062 16.333033
v 16.890127 -15.960066 16.218376
v 31.706911 0.045 22.116047
v 30.816995 0.046289 23.324746
v 29.7046 0.1 24.835619
v 28.828589 0.401237 26.025432
v 27.924768 0.519381 27.253016
v 26.812373 -0.047986 28.76389
v 25.699978 -0.890367 30.274763
v 24.662669 -1.674075 31.683653
v 23.920146 -2.671101 32.692161
v 23.839497 -4.192144 32.801699
v 24.053633 -5.787385 32.510856
v 24.256645 -6.983815 32.235122
v 24.632078 -8.161696 31.725202
v 25.335668 -9.608542 30.769574
v 26.144936 -11.129586 29.670414
v 26.929174 -12.636717 28.605248
v 27.568801 -14.097475 27.736496
v 27.835776 -15.58142 27.373886
v 27.924768 -16.694379 27.253016
v 43.028991 0.045 32.658095
v 42.071442 0.04345 33.982698
v 40.874506 0.1 35.638451
v 39.931919 0.431654 36.942357
v 38.959409 0.564804 38.287657
v 37.762473 -0.051636 39.943411
v 36.565536 -0.968235 41.599165
v 35.449394 -1.820484 43.143155
v 34.650439 -2.904705 44.248371
v 34.563661 -4.558773 44.368413
v 34.794071 -6.293528 44.04968
v 35.012512 -7.594593 43.747505
v 35.416478 -8.875488 43.188688
v 36.17354 -10.44887 42.141424
v 37.044311 -12.102938 40.936863
v 37.888151 -13.741877 39.769557
v 38.576389 -15.330388 38.817498
v 38.863654 -16.944113 38.420117
v 38.959409 -18.154407 38.287657
v 53.611712 0.045 44.225093
v 52.760497 0.047032 45.424435
v 51.696479 0.1 46.923613
v 50.858564 0.393273 48.104216
v 49.994049 0.507487 49.322298
v 48.930031 -0.04703 50.821476
v 47.866013 -0.869978 52.320654
v 46.873816 -1.635739 53.718637
v 46.163583 -2.609933 54.719338
v 46.086442 -4.096145 54.828028
v 46.291266 -5.654855 54.539437
v 46.485449 -6.823887 54.265837
v 46.844555 -7.974795 53.759864
v 47.517547 -9.388509 52.811634
v 48.29162 -10.87472 51.720982
v 49.041753 -12.347339 50.664062
v 49.653563 -13.774646 49.802035
v 49.908928 -15.224608 49.442232
v 49.994049 -16.31208 49.322298
v 63.874202 0.045 56.273098
v 63.20467 0.05353 57.234002
v 62.367755 0.1 58.435131
v 61.708684 0.323647 59.381021
v 61.02869 0.403512 60.356939
v 60.191775 -0.038675 61.558068
v 59.354859 -0.691735 62.759198
v 58.574436 -1.300607 63.879251
v 58.015795 -2.075206 64.681005
v 57.955118 -3.256921 64.768087
v 58.116225 -4.49628 64.536869
v 58.268962 -5.425799 64.317663
v 58.551421 -6.340907 63.912282
v 59.08077 -7.464977 63.152567
v 59.689625 -8.646692 62.278746
v 60.279651 -9.817598 61.431949
v 60.760877 -10.952476 60.7413
v 60.961737 -12.105369 60.453029
v 61.02869 -12.970038 60.356939
v 74.757371 0.045 67.452968
v 74.123479 0.05461 68.3797
v 73.331114 0.1 69.538115
v 72.707127 0.312077 70.450367
v 72.063331 0.386235 71.391579
v 71.270966 -0.037287 72.549994
v 70.478601 -0.662117 73.708409
v 69.739721 -1.244917 74.788631
v 69.210817 -1.98635 75.561873
v 69.153371 -3.117466 75.645858
v 69.305901 -4.303758 75.422863
v 69.450508 -5.193477 75.211453
v 69.717931 -6.069402 74.820488
v 70.219102 -7.145342 74.08779
v 70.795547 -8.276458 73.245043
v 71.354164 -9.397228 72.428361
v 71.809774 -10.483513 71.762272
v 71.999942 -11.587041 71.484253
v 72.063331 -12.414687 71.391579
v 85.888343 0.045 78.270371
v 85.231785 0.053469 79.248218
v 84.411088 0.1 80.470527
v 83.764788 0.324304 81.433094
v 83.097971 0.404495 82.42622
v 82.277274 -0.038754 83.648528
v 81.456576 -0.693419 84.870837
v 80.691276 -1.303773 86.01064
v 80.14346 -2.080258 86.82653
v 80.083959 -3.264849 86.915148
v 80.241944 -4.507225 86.679853
v 80.391721 -5.439007 86.456782
v 80.668706 -6.356343 86.044253
v 81.187798 -7.483149 85.271143
v 81.784855 -8.667741 84.381914
v 82.363447 -9.841497 83.520186
v 82.835348 -10.979138 82.817359
v 83.032316 -12.134837 82.524005
v 83.097971 -13.001611 82.42622
v 97.055337 0.045 89.026064
v 96.367637 0.051972 90.069546
v 95.508012 0.1 91.373898
v 94.831057 0.340343 92.401075
v 94.132612 0.428446 93.460861
v 93.272987 -0.040679 94.765213
v 92.413362 -0.734478 96.069565
v 91.611762 -1.380972 97.285873
v 91.037962 -2.203434 98.156528
v 90.97564 -3.458168 98.251093
v 91.141117 -4.774108 98.000006
v 91.297999 -5.761063 97.761961
v 91.588122 -6.732716 97.321743
v 92.131835 -7.926243 96.49674
v 92.757212 -9.180977 95.547824
v 93.363248 -10.424234 94.628256
v 93.857532 -11.629237 93.878253
v 94.063842 -12.853367 93.565209
v 94.132612 -13.771465 93.460861
v 107.933944 0.045 100.218241
v 107.282958 0.053113 101.224655
v 106.469225 0.1 102.482673
v 105.828411 0.328115 103.473362
v 105.167253 0.410186 104.495501
v 104.35352 -0.039211 105.753519
v 103.539787 -0.703176 107.011537
v 102.780982 -1.322116 108.184639
v 102.237815 -2.109527 109.024366
v 102.178819 -3.310785 109.115572
v 102.335463 -4.570641 108.873404
v 102.483969 -5.515533 108.643816
v 102.758604 -6.445775 108.219234
v 103.27329 -7.588436 107.423538
v 103.86528 -8.789694 106.50833
v 104.438962 -9.979965 105.621427
v 104.906858 -11.133612 104.898067
v 105.102154 -12.305571 104.596143
v 105.167253 -13.184541 104.495501
v 118.865789 0.045 111.33377
v 118.23899 0.053782 112.321151
v 117.455491 0.1 113.555379
v 116.838486 0.320953 114.527333
v 116.201894 0.399489 115.530142
v 115.418395 -0.038352 116.764369
v 114.634896 -0.684839 117.998597
v 113.904284 -1.28764 119.149514
v 113.381299 -2.054517 119.97336
v 113.324495 -3.22445 120.062842
v 113.475319 -4.451452 119.825253
v 113.618307 -5.371705 119.600006
v 113.882738 -6.277689 119.183455
v 114.378301 -7.390552 118.402806
v 114.948296 -8.560486 117.504906
v 115.500662 -9.719718 116.634776
v 115.951174 -10.843282 115.925095
v 116.139214 -11.98468 115.62888
v 116.201894 -12.840728 115.530142
v 130.332282 0.045 121.595329
v 129.60387 0.049397 122.764612
v 128.693357 0.1 124.226216
v 127.976327 0.367939 125.37723
v 127.236534 0.469655 126.564783
v 126.32602 -0.04399 128.026387
v 125.415507 -0.805124 129.487991
v 124.566452 -1.5138 130.850937
v 123.958684 -2.415371 131.826558
v 123.892672 -3.79079 131.932524
v 124.067946 -5.233303 131.651165
v 124.234115 -6.315188 131.384422
v 124.541413 -7.380299 130.891131
v 125.117313 -8.688625 129.966666
v 125.779712 -10.064044 128.903349
v 126.421624 -11.426883 127.872919
v 126.94517 -12.747789 127.032496
v 127.163693 -14.089662 126.681711
v 127.236534 -15.096066 126.564783
v 141.788008 0.045 131.846122
v 140.960518 0.045011 133.19984
v 139.926155 0.1 134.891988
v 139.111595 0.414925 136.224554
v 138.271175 0.539821 137.599424
v 137.236812 -0.049629 139.291571
v 136.20245 -0.925408 140.983719
v 135.237907 -1.73996 142.561646
v 134.54747 -2.776225 143.691155
v 134.472478 -4.35713 143.813835
v 134.671593 -6.015153 143.488097
v 134.860364 -7.258671 143.17928
v 135.209462 -8.482909 142.60818
v 135.863696 -9.986697 141.537897
v 136.616195 -11.567603 140.30686
v 137.345421 -13.134049 139.113896
v 137.940179 -14.652297 138.140911
v 138.188426 -16.194644 137.734795
v 138.271175 -17.351404 137.599424
v 152.714509 0.045 142.950598
v 151.912463 0.045659 144.287884
v 150.909907 0.1 145.959492
v 150.120393 0.407985 147.275883
v 149.305816 0.529458 148.634064
v 148.303259 -0.048796 150.305672
v 147.300702 -0.907641 151.97728
v 146.365818 -1.706555 153.536054
v 145.696612 -2.722924 154.651852
v 145.623926 -4.273479 154.773043
v 145.816918 -5.89967 154.451259
v 145.999885 -7.119313 154.146191
v 146.338248 -8.320047 153.582023
v 146.972365 -9.794964 152.524731
v 147.701725 -11.345519 151.308637
v 148.408527 -12.881891 150.130153
v 148.984998 -14.37099 149.168979
v 149.225611 -15.883726 148.767793
v 149.305816 -17.018278 148.634064
v 163.621687 0.045 154.092207
v 162.849633 0.046512 155.404324
v 161.884565 0.1 157.044471
v 161.124574 0.398843 158.336086
v 160.340456 0.515806 159.668705
v 159.375389 -0.047699 161.308852
v 158.410321 -0.884239 162.948998
v 157.510395 -1.662554 164.478435
v 156.866213 -2.652717 165.573233
v 156.796245 -4.163292 165.692143
v 156.982021 -5.747554 165.376415
v 157.158146 -6.93575 165.077088
v 157.483856 -8.105525 164.523539
v 158.094261 -9.542413 163.486146
v 158.796348 -11.052988 162.29294
v 159.476721 -12.549747 161.136636
v 160.031635 -14.000452 160.193552
v 160.263251 -15.474184 159.799917
v 160.340456 -16.579482 159.668705
vt 0.08886719 0.98441895
vt 0.08886719 0.98445173
vt 0.08886719 0.98447266
vt 0.08886719 0.98442902
vt 0.08886719 0.98437773
vt 0.08886719 0.98436868
vt 0.08886719 0.98437031
vt 0.08886719 0.98436619
vt 0.08886719 0.98436094
vt 0.08886719 0.98435293
vt 0.08886719 0.98434453
vt 0.08886719 0.98433823
vt 0.08886719 0.98433203
vt 0.08886719 0.98432441
vt 0.08886719 0.98431641
vt 0.08886719 0.98430847
vt 0.08886719 0.98430078
vt 0.08886719 0.98429297
vt 0.08886719 0.98428711
vt 0.10410656 0.98441895
vt 0.10410656 0.98443534
vt 0.10410656 0.98447266
vt 0.10410656 0.98460461
vt 0.10410656 0.98463995
vt 0.10410656 0.98434761
vt 0.10410656 0.9839208
vt 0.10410656 0.98352101
vt 0.10410656 0.9830124
vt 0.10410656 0.98223648
vt 0.10410656 0.9814227
vt 0.10410656 0.98081237
vt 0.10410656 0.9802115
vt 0.10410656 0.97947343
vt 0.10410656 0.9786975
vt 0.10410656 0.97792868
vt 0.10410656 0.97718351
vt 0.10410656 0.97642651
vt 0.10410656 0.97585876
vt 0.11934593 0.98441895
vt 0.11934593 0.98442286
vt 0.11934593 0.98447266
vt 0.11934593 0.9847384
vt 0.11934593 0.98483975
vt 0.11934593 0.98433155
vt 0.11934593 0.98357829
vt 0.11934593 0.98287702
vt 0.11934593 0.98198486
vt 0.11934593 0.98062381
vt 0.11934593 0.97919637
vt 0.11934593 0.97812579
vt 0.11934593 0.97707181
vt 0.11934593 0.97577715
vt 0.11934593 0.9744161
vt 0.11934593 0.9730675
vt 0.11934593 0.97176039
vt 0.11934593 0.97043254
vt 0.11934593 0.96943665
vt 0.1345853 0.98441895
vt 0.1345853 0.98441968
vt 0.1345853 0.98447266
vt 0.1345853 0.98477244
vt 0.1345853 0.98489058
vt 0.1345853 0.98432747
vt 0.1345853 0.98349114
vt 0.1345853 0.98271316
vt 0.1345853 0.98172343
vt 0.1345853 0.98021351
vt 0.1345853 0.97862993
vt 0.1345853 0.97744225
vt 0.1345853 0.97627298
vt 0.1345853 0.97483671
vt 0.1345853 0.97332679
vt 0.1345853 0.97183068
vt 0.1345853 0.9703806
vt 0.1345853 0.9689075
vt 0.1345853 0.96780268
vt 0.14982467 0.98441895
vt 0.14982467 0.98441857
vt 0.14982467 0.98447266
vt 0.14982467 0.98478438
vt 0.14982467 0.98490842
vt 0.14982467 0.98432603
vt 0.14982467 0.98346057
vt 0.14982467 0.98265569
vt 0.14982467 0.98163172
vt 0.14982467 0.98006958
vt 0.14982467 0.97843123
vt 0.14982467 0.97720247
vt 0.14982467 0.97599276
vt 0.14982467 0.97450682
vt 0.14982467 0.97294468
vt 0.14982467 0.97139682
vt 0.14982467 0.96989659
vt 0.14982467 0.96837255
vt 0.14982467 0.96722952
vt 0.16506404 0.98441895
vt 0.16506404 0.98442071
vt 0.16506404 0.98447266
vt 0.16506404 0.98476137
vt 0.16506404 0.98487405
vt 0.16506404 0.98432879
vt 0.16506404 0.98351948
vt 0.16506404 0.98276644
vt 0.16506404 0.98180843
vt 0.16506404 0.98034692
vt 0.16506404 0.9788141
vt 0.16506404 0.9776645
vt 0.16506404 0.97653271
vt 0.16506404 0.97514249
vt 0.16506404 0.97368097
vt 0.16506404 0.97223282
vt 0.16506404 0.97082923
vt 0.16506404 0.96940336
vt 0.16506404 0.96833395
vt 0.18030341 0.98441895
vt 0.18030341 0.98442395
vt 0.18030341 0.98447266
vt 0.18030341 0.98472668
vt 0.18030341 0.98482224
vt 0.18030341 0.98433296
vt 0.18030341 0.9836083
vt 0.18030341 0.98293345
vt 0.18030341 0.98207491
vt 0.18030341 0.98076513
vt 0.18030341 0.97939146
vt 0.18030341 0.97836121
vt 0.18030341 0.97734693
vt 0.18030341 0.97610105
vt 0.18030341 0.97479127
vt 0.18030341 0.97349348
vt 0.18030341 0.97223561
vt 0.18030341 0.97095778
vt 0.18030341 0.96999941
vt 0.19554278 0.98441895
vt 0.19554278 0.98442554
vt 0.19554278 0.98447266
vt 0.19554278 0.98470968
vt 0.19554278 0.98479685
vt 0.19554278 0.984335
vt 0.19554278 0.98365182
vt 0.19554278 0.98301527
vt 0.19554278 0.98220546
vt 0.19554278 0.98097003
vt 0.19554278 0.97967433
vt 0.19554278 0.97870256
vt 0.19554278 0.97774586
vt 0.19554278 0.97657069
vt 0.19554278 0.97533526
vt 0.19554278 0.97411113
vt 0.19554278 0.97292466
vt 0.19554278 0.97171936
vt 0.19554278 0.97081539
vt 0.21078215 0.98441895
vt 0.21078215 0.98442563
vt 0.21078215 0.98447266
vt 0.21078215 0.9847087
vt 0.21078215 0.9847954
vt 0.21078215 0.98433511
vt 0.21078215 0.98365431
vt 0.21078215 0.98301995
vt 0.21078215 0.98221293
vt 0.21078215 0.98098175
vt 0.21078215 0.97969052
vt 0.21078215 0.97872209
vt 0.21078215 0.97776868
vt 0.21078215 0.97659756
vt 0.21078215 0.97536638
vt 0.21078215 0.97414646
vt 0.21078215 0.97296408
vt 0.21078215 0.97176293
vt 0.21078215 0.97086207
vt 0.22602152 0.98441895
vt 0.22602152 0.98442554
vt 0.22602152 0.98447266
vt 0.22602152 0.98470967
vt 0.22602152 0.98479684
vt 0.22602152 0.984335
vt 0.22602152 0.98365184
vt 0.22602152 0.98301531
vt 0.22602152 0.98220552
vt 0.22602152 0.98097012
vt 0.22602152 0.97967446
vt 0.22602152 0.97870271
vt 0.22602152 0.97774603
vt 0.22602152 0.97657089
vt 0.22602152 0.9753355
vt 0.22602152 0.9741114
vt 0.22602152 0.97292496
vt 0.22602152 0.97171969
vt 0.22602152 0.97081574
vt 0.24126089 0.98441895
vt 0.24126089 0.98442767
vt 0.24126089 0.98447266
vt 0.24126089 0.98468682
vt 0.24126089 0.98476272
vt 0.24126089 0.98433774
vt 0.24126089 0.98371034
vt 0.24126089 0.9831253
vt 0.24126089 0.98238102
vt 0.24126089 0.98124556
vt 0.24126089 0.98005471
vt 0.24126089 0.97916157
vt 0.24126089 0.97828228
vt 0.24126089 0.97720221
vt 0.24126089 0.97606675
vt 0.24126089 0.97494167
vt 0.24126089 0.97385121
vt 0.24126089 0.97274344
vt 0.24126089 0.97191262
vt 0.25650026 0.98441895
vt 0.25650026 0.98442879
vt 0.25650026 0.98447266
vt 0.25650026 0.98467488
vt 0.25650026 0.98474489
vt 0.25650026 0.98433917
vt 0.25650026 0.98374091
vt 0.25650026 0.98318278
vt 0.25650026 0.98247273
vt 0.25650026 0.98138949
vt 0.25650026 0.98025341
vt 0.25650026 0.97940135
vt 0.25650026 0.9785625
vt 0.25650026 0.9775321
vt 0.25650026 0.97644886
vt 0.25650026 0.97537553
vt 0.25650026 0.97433522
vt 0.25650026 0.9732784
vt 0.25650026 0.97248579
vt 0.27173963 0.98441895
vt 0.27173963 0.98442575
vt 0.27173963 0.98447266
vt 0.27173963 0.98470743
vt 0.27173963 0.9847935
vt 0.27173963 0.98433527
vt 0.27173963 0.98365758
vt 0.27173963 0.98302609
vt 0.27173963 0.98222273
vt 0.27173963 0.98099713
vt 0.27173963 0.97971174
vt 0.27173963 0.9787477
vt 0.27173963 0.97779861
vt 0.27173963 0.97663279
vt 0.27173963 0.97540719
vt 0.27173963 0.9741928
vt 0.27173963 0.97301578
vt 0.27173963 0.97182007
vt 0.27173963 0.97092329
vt 0.286979 0.98441895
vt 0.286979 0.98442149
vt 0.286979 0.98447266
vt 0.286979 0.98475305
vt 0.286979 0.98486162
vt 0.286979 0.98432979
vt 0.286979 0.9835408
vt 0.286979 0.98280653
vt 0.286979 0.98187239
vt 0.286979 0.9804473
vt 0.286979 0.97895269
vt 0.286979 0.97783173
vt 0.286979 0.97672815
vt 0.286979 0.97537257
vt 0.286979 0.97394748
vt 0.286979 0.97253542
vt 0.286979 0.97116681
vt 0.286979 0.96977647
vt 0.286979 0.96873372
vt 0.30221837 0.98441895
vt 0.30221837 0.98441983
vt 0.30221837 0.98447266
vt 0.30221837 0.98477089
vt 0.30221837 0.98488827
vt 0.30221837 0.98432765
vt 0.30221837 0.98349512
vt 0.30221837 0.98272063
vt 0.30221837 0.98173535
vt 0.30221837 0.98023221
vt 0.30221837 0.97865575
vt 0.30221837 0.97747341
vt 0.30221837 0.97630939
vt 0.30221837 0.97487958
vt 0.30221837 0.97337644
vt 0.30221837 0.97188706
vt 0.30221837 0.9704435
vt 0.30221837 0.96897702
vt 0.30221837 0.96787717
vt 0.31745774 0.98441895
vt 0.31745774 0.98442094
vt 0.31745774 0.98447266
vt 0.31745774 0.98475895
vt 0.31745774 0.98487043
vt 0.31745774 0.98432908
vt 0.31745774 0.98352568
vt 0.31745774 0.98277811
vt 0.31745774 0.98182705
vt 0.31745774 0.98037614
vt 0.31745774 0.97885445
vt 0.31745774 0.97771318
vt 0.31745774 0.97658961
vt 0.31745774 0.97520947
vt 0.31745774 0.97375856
vt 0.31745774 0.97232091
vt 0.31745774 0.9709275
vt 0.31745774 0.96951198
vt 0.31745774 0.96845033
vt 0.33269711 0.98441895
vt 0.33269711 0.9844216
vt 0.33269711 0.98447266
vt 0.33269711 0.98475189
vt 0.33269711 0.9848599
vt 0.33269711 0.98432993
vt 0.33269711 0.98354375
vt 0.33269711 0.98281207
vt 0.33269711 0.98188124
vt 0.33269711 0.98046118
vt 0.33269711 0.97897185
vt 0.33269711 0.97785486
vt 0.33269711 0.97675518
vt 0.33269711 0.97540439
vt 0.33269711 0.97398433
vt 0.33269711 0.97257726
vt 0.33269711 0.97121349
vt 0.33269711 0.96982806
vt 0.33269711 0.968789
vt 0.34793648 0.98441895
vt 0.34793648 0.9844202
vt 0.34793648 0.98447266
vt 0.34793648 0.98476683
vt 0.34793648 0.98488221
vt 0.34793648 0.98432814
vt 0.34793648 0.9835055
vt 0.34793648 0.98274016
vt 0.34793648 0.9817665
vt 0.34793648 0.98028111
vt 0.34793648 0.97872326
vt 0.34793648 0.97755487
vt 0.34793648 0.97640459
vt 0.34793648 0.97499166
vt 0.34793648 0.97350626
vt 0.34793648 0.97203446
vt 0.34793648 0.97060793
vt 0.34793648 0.96915877
vt 0.34793648 0.9680719
vt 0.36317585 0.98441895
vt 0.36317585 0.98441743
vt 0.36317585 0.98447266
vt 0.36317585 0.98479654
vt 0.36317585 0.98492657
vt 0.36317585 0.98432457
vt 0.36317585 0.98342946
vt 0.36317585 0.98259718
vt 0.36317585 0.98153837
vt 0.36317585 0.97992307
vt 0.36317585 0.97822898
vt 0.36317585 0.9769584
vt 0.36317585 0.97570753
vt 0.36317585 0.97417103
vt 0.36317585 0.97255572
vt 0.36317585 0.9709552
vt 0.36317585 0.96940392
vt 0.36317585 0.96782801
vt 0.36317585 0.96664609
vt 0.37841522 0.98441895
vt 0.37841522 0.98442093
vt 0.37841522 0.98447266
vt 0.37841522 0.98475906
vt 0.37841522 0.98487059
vt 0.37841522 0.98432907
vt 0.37841522 0.98352541
vt 0.37841522 0.9827776
vt 0.37841522 0.98182624
vt 0.37841522 0.98037486
vt 0.37841522 0.97885268
vt 0.37841522 0.97771105
vt 0.37841522 0.97658711
vt 0.37841522 0.97520653
vt 0.37841522 0.97375516
vt 0.37841522 0.97231705
vt 0.37841522 0.9709232
vt 0.37841522 0.96950722
vt 0.37841522 0.96844523
vt 0.39365459 0.98441895
vt 0.39365459 0.98442728
vt 0.39365459 0.98447266
vt 0.39365459 0.98469106
vt 0.39365459 0.98476905
vt 0.39365459 0.98433723
vt 0.39365459 0.98369948
vt 0.39365459 0.98310488
vt 0.39365459 0.98234843
vt 0.39365459 0.98119441
vt 0.39365459 0.9799841
vt 0.39365459 0.97907637
vt 0.39365459 0.97818271
vt 0.39365459 0.97708498
vt 0.39365459 0.97593096
vt 0.39365459 0.9747875
vt 0.39365459 0.97367922
vt 0.39365459 0.97255335
vt 0.39365459 0.97170895
vt 0.40889396 0.98441895
vt 0.40889396 0.98442833
vt 0.40889396 0.98447266
vt 0.40889396 0.98467976
vt 0.40889396 0.98475218
vt 0.40889396 0.98433859
vt 0.40889396 0.9837284
vt 0.40889396 0.98315926
vt 0.40889396 0.98243521
vt 0.40889396 0.9813306
vt 0.40889396 0.98017211
vt 0.40889396 0.97930324
vt 0.40889396 0.97844785
vt 0.40889396 0.97739713
vt 0.40889396 0.97629252
vt 0.40889396 0.97519802
vt 0.40889396 0.97413719
vt 0.40889396 0.97305953
vt 0.40889396 0.97225128
vt 0.42413333 0.98441895
vt 0.42413333 0.98442722
vt 0.42413333 0.98447266
vt 0.42413333 0.9846917
vt 0.42413333 0.98477001
vt 0.42413333 0.98433715
vt 0.42413333 0.98369783
vt 0.42413333 0.98310178
vt 0.42413333 0.9823435
vt 0.42413333 0.98118667
vt 0.42413333 0.97997341
vt 0.42413333 0.97906347
vt 0.42413333 0.97816763
vt 0.42413333 0.97706724
vt 0.42413333 0.97591041
vt 0.42413333 0.97476416
vt 0.42413333 0.97365319
vt 0.42413333 0.97252457
vt 0.42413333 0.97167811
vt 0.4393727 0.98441895
vt 0.4393727 0.98442575
vt 0.4393727 0.98447266
vt 0.4393727 0.98470737
vt 0.4393727 0.9847934
vt 0.4393727 0.98433527
vt 0.4393727 0.98365774
vt 0.4393727 0.98302639
vt 0.4393727 0.98222321
vt 0.4393727 0.98099788
vt 0.4393727 0.97971279
vt 0.4393727 0.97874896
vt 0.4393727 0.97780008
vt 0.4393727 0.97663453
vt 0.4393727 0.9754092
vt 0.4393727 0.97419508
vt 0.4393727 0.97301832
vt 0.4393727 0.97182288
vt 0.4393727 0.9709263
vt 0.45461207 0.98441895
vt 0.45461207 0.98442687
vt 0.45461207 0.98447266
vt 0.45461207 0.98469543
vt 0.45461207 0.98477557
vt 0.45461207 0.98433671
vt 0.45461207 0.98368831
vt 0.45461207 0.98308387
vt 0.45461207 0.98231492
vt 0.45461207 0.98114181
vt 0.45461207 0.97991148
vt 0.45461207 0.97898874
vt 0.45461207 0.9780803
vt 0.45461207 0.97696442
vt 0.45461207 0.97579131
vt 0.45461207 0.97462894
vt 0.45461207 0.97350233
vt 0.45461207 0.97235784
vt 0.45461207 0.97149947
vt 0.46985144 0.98441895
vt 0.46985144 0.98442752
vt 0.46985144 0.98447266
vt 0.46985144 0.98468843
vt 0.46985144 0.98476513
vt 0.46985144 0.98433755
vt 0.46985144 0.98370621
vt 0.46985144 0.98311754
vt 0.46985144 0.98236864
vt 0.46985144 0.98122612
vt 0.46985144 0.98002788
vt 0.46985144 0.97912919
vt 0.46985144 0.97824444
vt 0.46985144 0.97715766
vt 0.46985144 0.97601515
vt 0.46985144 0.97488309
vt 0.46985144 0.97378586
vt 0.46985144 0.97267121
vt 0.46985144 0.97183523
vt 0.48509081 0.98441895
vt 0.48509081 0.98442324
vt 0.48509081 0.98447266
vt 0.48509081 0.98473432
vt 0.48509081 0.98483365
vt 0.48509081 0.98433204
vt 0.48509081 0.98358875
vt 0.48509081 0.98289668
vt 0.48509081 0.98201624
vt 0.48509081 0.98067306
vt 0.48509081 0.97926435
vt 0.48509081 0.97820782
vt 0.48509081 0.97716768
vt 0.48509081 0.97589001
vt 0.48509081 0.97454683
vt 0.48509081 0.97321593
vt 0.48509081 0.97192599
vt 0.48509081 0.97061556
vt 0.48509081 0.96963275
vt 0.50033019 0.98441895
vt 0.50033019 0.98441896
vt 0.50033019 0.98447266
vt 0.50033019 0.9847802
vt 0.50033019 0.98490217
vt 0.50033019 0.98432653
vt 0.50033019 0.98347128
vt 0.50033019 0.98267582
vt 0.50033019 0.98166384
vt 0.50033019 0.98011999
vt 0.50033019 0.97850083
vt 0.50033019 0.97728645
vt 0.50033019 0.97609091
vt 0.50033019 0.97462237
vt 0.50033019 0.97307851
vt 0.50033019 0.97154878
vt 0.50033019 0.97006612
vt 0.50033019 0.96855992
vt 0.50033019 0.96743027
vt 0.51556956 0.98441895
vt 0.51556956 0.98441959
vt 0.51556956 0.98447266
vt 0.51556956 0.98477342
vt 0.51556956 0.98489205
vt 0.51556956 0.98432735
vt 0.51556956 0.98348863
vt 0.51556956 0.98270844
vt 0.51556956 0.98171589
vt 0.51556956 0.98020168
vt 0.51556956 0.9786136
vt 0.51556956 0.97742255
vt 0.51556956 0.97624995
vt 0.51556956 0.97480961
vt 0.51556956 0.97329539
vt 0.51556956 0.97179503
vt 0.51556956 0.97034083
vt 0.51556956 0.96886355
vt 0.51556956 0.96775559
vt 0.53080893 0.98441895
vt 0.53080893 0.98442042
vt 0.53080893 0.98447266
vt 0.53080893 0.9847645
vt 0.53080893 0.98487872
vt 0.53080893 0.98432842
vt 0.53080893 0.98351149
vt 0.53080893 0.98275141
vt 0.53080893 0.98178446
vt 0.53080893 0.98030928
vt 0.53080893 0.97876215
vt 0.53080893 0.97760181
vt 0.53080893 0.97645945
vt 0.53080893 0.97505624
vt 0.53080893 0.97358107
vt 0.53080893 0.97211939
vt 0.53080893 0.97070268
vt 0.53080893 0.96926349
vt 0.53080893 0.9681841
vn 0.037323 0.997881 -0.053296
vn 0.057466 0.995501 -0.075332
vn 0.088266 0.989778 -0.112018
vn -0.061407 0.99706 0.045823
vn -0.254699 0.938942 0.231335
vn -0.306675 0.911723 0.273335
vn -0.304627 0.912841 0.271887
vn -0.489889 0.778599 0.392165
vn -0.834875 0.09342 0.542454
vn -0.841311 -0.208751 0.498617
vn -0.835384 -0.262414 0.482982
vn -0.796071 -0.448462 0.40639
vn -0.735652 -0.599157 0.315954
vn -0.719135 -0.630927 0.291165
vn -0.722724 -0.623825 0.29751
vn -0.746116 -0.565775 0.351012
vn -0.776636 -0.287321 0.56061
vn -0.751088 -0.133891 0.646482
vn -0.750587 -0.131812 0.647491
vn 0.00777 0.999915 -0.010474
vn 0.023299 0.999291 -0.029566
vn 0.08505 0.99122 -0.10124
vn 0.053445 0.995946 -0.072354
vn -0.15552 0.978412 0.136097
vn -0.27746 0.927142 0.251839
vn -0.305041 0.911249 0.276721
vn -0.417953 0.835661 0.35635
vn -0.753902 0.35746 0.551229
vn -0.828141 -0.114894 0.548617
vn -0.818291 -0.243936 0.520475
vn -0.790824 -0.394079 0.468294
vn -0.730448 -0.567779 0.379568
vn -0.700277 -0.629312 0.337015
vn -0.697533 -0.634584 0.332793
vn -0.715497 -0.594326 0.367208
vn -0.759685 -0.402145 0.511037
vn -0.755035 -0.197694 0.625171
vn -0.744907 -0.131816 0.654017
vn 0.001379 0.999998 -0.00155
vn 0.013844 0.999787 -0.01529
vn 0.078246 0.99331 -0.084926
vn 0.085545 0.991602 -0.096997
vn -0.113929 0.988073 0.103599
vn -0.261905 0.932387 0.249117
vn -0.299602 0.910725 0.284287
vn -0.385177 0.850885 0.357259
vn -0.679036 0.441257 0.586688
vn -0.773899 -0.08528 0.627541
vn -0.763046 -0.242214 0.599244
vn -0.733431 -0.382122 0.562195
vn -0.667487 -0.566669 0.48306
vn -0.631575 -0.641756 0.435043
vn -0.627117 -0.651351 0.427161
vn -0.646406 -0.614553 0.4522
vn -0.706756 -0.438931 0.554829
vn -0.729698 -0.214986 0.649093
vn -0.728284 -0.131983 0.672446
vn 0.000185 1 -0.000161
vn 0.011727 0.999859 -0.01199
vn 0.076072 0.994056 -0.077881
vn 0.096362 0.990334 -0.099764
vn -0.098304 0.990583 0.095301
vn -0.254055 0.934209 0.250417
vn -0.294337 0.910662 0.289933
vn -0.369506 0.855936 0.361715
vn -0.636982 0.469889 0.611112
vn -0.725882 -0.074624 0.683759
vn -0.709264 -0.242037 0.66209
vn -0.67889 -0.378034 0.629443
vn -0.608949 -0.566266 0.555449
vn -0.566924 -0.646983 0.509912
vn -0.560431 -0.658397 0.502425
vn -0.580591 -0.622978 0.524225
vn -0.652306 -0.452793 0.607845
vn -0.701253 -0.221008 0.67779
vn -0.70864 -0.132122 0.693089
vn 0.000132 1 -0.000185
vn 0.011266 0.999875 -0.01113
vn 0.075496 0.994346 -0.074678
vn 0.100311 0.989963 -0.099556
vn -0.092096 0.991402 0.092955
vn -0.250392 0.934912 0.251481
vn -0.291629 0.91067 0.292631
vn -0.361966 0.85785 0.364792
vn -0.61506 0.48065 0.625041
vn -0.699582 -0.070453 0.711071
vn -0.681277 -0.241705 0.69097
vn -0.648637 -0.375976 0.661749
vn -0.575261 -0.565189 0.5913
vn -0.531385 -0.647748 0.545942
vn -0.524478 -0.659771 0.538168
vn -0.545876 -0.625042 0.55798
vn -0.625636 -0.457614 0.631798
vn -0.687948 -0.223246 0.690571
vn -0.700951 -0.132165 0.700857
vn 0.001464 0.999998 -0.001462
vn 0.011753 0.999866 -0.011363
vn 0.074337 0.994646 -0.071789
vn 0.101852 0.990001 -0.097597
vn -0.087824 0.991901 0.091755
vn -0.247416 0.935516 0.25218
vn -0.289268 0.910732 0.294774
vn -0.356157 0.859468 0.366699
vn -0.598462 0.489687 0.634074
vn -0.677784 -0.066823 0.732218
vn -0.656614 -0.241238 0.714606
vn -0.623264 -0.37383 0.686872
vn -0.547734 -0.5635 0.61843
vn -0.50121 -0.647443 0.574113
vn -0.493442 -0.659954 0.566547
vn -0.515346 -0.625962 0.585312
vn -0.600549 -0.461453 0.652995
vn -0.67529 -0.225149 0.702347
vn -0.692958 -0.132217 0.708751
vn 0.003179 0.99999 -0.003071
vn 0.012914 0.999838 -0.012565
vn 0.073571 0.99472 -0.071543
vn 0.099324 0.990468 -0.095437
vn -0.089353 0.991666 0.09282
vn -0.24773 0.935508 0.251902
vn -0.289398 0.910798 0.294443
vn -0.357031 0.859443 0.365906
vn -0.60161 0.48955 0.631195
vn -0.680846 -0.066909 0.729364
vn -0.658694 -0.241313 0.712664
vn -0.62669 -0.37398 0.683666
vn -0.552227 -0.563719 0.61422
vn -0.5049 -0.647667 0.570617
vn -0.496717 -0.66017 0.563426
vn -0.518025 -0.626139 0.582752
vn -0.601252 -0.46149 0.652321
vn -0.675404 -0.225145 0.702239
vn -0.6923 -0.132233 0.709391
vn 0.003919 0.999985 -0.003864
vn 0.01381 0.999811 -0.013688
vn 0.073811 0.994583 -0.073192
vn 0.09566 0.990937 -0.094308
vn -0.093927 0.991027 0.095091
vn -0.249983 0.935049 0.251381
vn -0.29102 0.910815 0.292785
vn -0.361526 0.858209 0.364385
vn -0.614583 0.482661 0.62396
vn -0.697084 -0.069661 0.713597
vn -0.676496 -0.241665 0.695666
vn -0.645525 -0.375583 0.665008
vn -0.573005 -0.564938 0.593725
vn -0.527223 -0.647857 0.549833
vn -0.519477 -0.660005 0.542713
vn -0.5402 -0.625433 0.563043
vn -0.618877 -0.458601 0.637711
vn -0.684139 -0.223707 0.694197
vn -0.697429 -0.132199 0.704355
vn 0.003913 0.999985 -0.003912
vn 0.014035 0.999803 -0.014038
vn 0.074183 0.99448 -0.074201
vn 0.094176 0.991091 -0.094173
vn -0.096191 0.990705 0.096184
vn -0.251195 0.934777 0.251184
vn -0.291919 0.910804 0.291922
vn -0.363847 0.857477 0.363799
vn -0.620965 0.478582 0.620776
vn -0.705342 -0.071243 0.705278
vn -0.686085 -0.241776 0.686172
vn -0.655142 -0.376367 0.655086
vn -0.583311 -0.565398 0.583159
vn -0.538794 -0.647642 0.538759
vn -0.531487 -0.659562 0.531507
vn -0.552114 -0.624701 0.552194
vn -0.628926 -0.456737 0.629161
vn -0.689251 -0.22283 0.689406
vn -0.700807 -0.132165 0.701
vn 0.004448 0.999981 -0.004368
vn 0.014167 0.999802 -0.013941
vn 0.073757 0.994629 -0.072613
vn 0.095233 0.991037 -0.093684
vn -0.093688 0.991036 0.095235
vn -0.249582 0.935128 0.251483
vn -0.29083 0.910847 0.292874
vn -0.360443 0.858437 0.364919
vn -0.611095 0.483827 0.626478
vn -0.694728 -0.069294 0.715927
vn -0.675535 -0.241693 0.696589
vn -0.64295 -0.375523 0.667531
vn -0.569136 -0.565052 0.597328
vn -0.524373 -0.648111 0.552255
vn -0.517158 -0.660296 0.54457
vn -0.53859 -0.625763 0.564217
vn -0.619413 -0.459093 0.636837
vn -0.684811 -0.223923 0.693465
vn -0.698842 -0.132194 0.702954
vn 0.00599 0.999965 -0.005821
vn 0.015031 0.999779 -0.014721
vn 0.072786 0.994788 -0.071411
vn 0.094324 0.991303 -0.091763
vn -0.092958 0.991101 0.09528
vn -0.248681 0.935367 0.25149
vn -0.290045 0.91092 0.293427
vn -0.358925 0.859069 0.36493
vn -0.607354 0.487335 0.627396
vn -0.688959 -0.067928 0.72161
vn -0.667802 -0.241638 0.704025
vn -0.636097 -0.37487 0.674428
vn -0.562347 -0.564652 0.604098
vn -0.515826 -0.648316 0.560009
vn -0.507905 -0.660709 0.552718
vn -0.529019 -0.626448 0.572453
vn -0.610268 -0.460806 0.644384
vn -0.680013 -0.224722 0.697913
vn -0.695183 -0.13225 0.706563
vn 0.00561 0.999968 -0.005698
vn 0.015515 0.999755 -0.015792
vn 0.073768 0.99444 -0.075149
vn 0.089856 0.991758 -0.091338
vn -0.100493 0.990012 0.098881
vn -0.25289 0.934403 0.250875
vn -0.292861 0.910834 0.290884
vn -0.367576 0.856433 0.362505
vn -0.631802 0.472969 0.614106
vn -0.715981 -0.073202 0.694271
vn -0.695883 -0.241766 0.676236
vn -0.667276 -0.376994 0.642354
vn -0.597922 -0.565296 0.568268
vn -0.553097 -0.646724 0.525197
vn -0.545415 -0.658405 0.518676
vn -0.564926 -0.623289 0.540712
vn -0.636947 -0.45424 0.622868
vn -0.692753 -0.221699 0.686252
vn -0.701687 -0.132147 0.700124
vn 0.002947 0.999991 -0.003078
vn 0.014161 0.999789 -0.014892
vn 0.075626 0.993976 -0.079324
vn 0.089127 0.991496 -0.094828
vn -0.105543 0.989356 0.100178
vn -0.256868 0.933484 0.250254
vn -0.295976 0.910609 0.288426
vn -0.375404 0.853901 0.360452
vn -0.652716 0.459367 0.602448
vn -0.74124 -0.077818 0.666714
vn -0.724682 -0.241199 0.645491
vn -0.696675 -0.37785 0.609813
vn -0.629981 -0.564161 0.53371
vn -0.588876 -0.64306 0.489591
vn -0.582392 -0.653959 0.482864
vn -0.601283 -0.618236 0.506205
vn -0.666645 -0.44702 0.596454
vn -0.707898 -0.218655 0.671617
vn -0.711737 -0.131936 0.689945
vn 0.000986 0.999999 -0.001001
vn 0.012485 0.999839 -0.01291
vn 0.076038 0.994004 -0.078579
vn 0.093626 0.990747 -0.098261
vn -0.101288 0.990102 0.097157
vn -0.25543 0.933839 0.250401
vn -0.295328 0.910548 0.28928
vn -0.372214 0.854908 0.361371
vn -0.643794 0.464854 0.607815
vn -0.733391 -0.075912 0.675555
vn -0.717713 -0.241165 0.653243
vn -0.68789 -0.377235 0.620081
vn -0.619326 -0.564358 0.545835
vn -0.57856 -0.64406 0.500454
vn -0.572408 -0.655179 0.493041
vn -0.592163 -0.619641 0.515158
vn -0.661166 -0.449351 0.600786
vn -0.70558 -0.219717 0.673708
vn -0.711397 -0.131929 0.690297
vn 0.000594 1 -0.000623
vn 0.011727 0.999863 -0.011709
vn 0.075512 0.994284 -0.075474
vn 0.098474 0.990208 -0.098951
vn -0.09429 0.991097 0.094
vn -0.251493 0.934698 0.251179
vn -0.292432 0.910668 0.291834
vn -0.364217 0.857279 0.363895
vn -0.621629 0.477482 0.620958
vn -0.707501 -0.071669 0.703069
vn -0.689688 -0.241716 0.682572
vn -0.657802 -0.376507 0.652334
vn -0.585539 -0.565464 0.580857
vn -0.542242 -0.647431 0.535543
vn -0.535464 -0.659249 0.527891
vn -0.556465 -0.624281 0.548288
vn -0.633692 -0.455996 0.624901
vn -0.691905 -0.222518 0.686844
vn -0.703183 -0.132113 0.698627
vn 0.001114 0.999999 -0.001113
vn 0.011844 0.999861 -0.011729
vn 0.074898 0.994432 -0.074125
vn 0.099638 0.990165 -0.098215
vn -0.09189 0.991402 0.093163
vn -0.249907 0.935052 0.251444
vn -0.291082 0.910752 0.292921
vn -0.361277 0.858227 0.364589
vn -0.61377 0.482558 0.624839
vn -0.696427 -0.069881 0.714217
vn -0.676216 -0.241933 0.695846
vn -0.644682 -0.376071 0.665549
vn -0.571638 -0.565593 0.594419
vn -0.526106 -0.648508 0.550137
vn -0.518516 -0.660641 0.542858
vn -0.539513 -0.626006 0.563064
vn -0.61904 -0.458835 0.637385
vn -0.684361 -0.223738 0.693968
vn -0.697848 -0.132236 0.703933
vn 0.001117 0.999999 -0.001087
vn 0.012042 0.999854 -0.012141
vn 0.075071 0.994305 -0.075649
vn 0.097642 0.990365 -0.098196
vn -0.095027 0.990988 0.094406
vn -0.251815 0.934651 0.25103
vn -0.29249 0.910676 0.291752
vn -0.365251 0.85712 0.363231
vn -0.625112 0.476761 0.618008
vn -0.709434 -0.071798 0.701105
vn -0.689726 -0.241697 0.68254
vn -0.659848 -0.3764 0.650326
vn -0.589113 -0.56512 0.577568
vn -0.544355 -0.647135 0.533755
vn -0.536837 -0.658999 0.526808
vn -0.556949 -0.624091 0.548014
vn -0.631713 -0.455917 0.62696
vn -0.690426 -0.222476 0.688343
vn -0.70097 -0.132161 0.700838
vn 0.000206 1 -0.000124
vn 0.011649 0.99986 -0.011973
vn 0.075713 0.994084 -0.077872
vn 0.096267 0.990362 -0.099577
vn -0.098433 0.990567 0.095334
vn -0.254321 0.93411 0.250517
vn -0.294516 0.910515 0.290211
vn -0.370277 0.855627 0.361658
vn -0.638895 0.469011 0.609788
vn -0.726225 -0.074229 0.683438
vn -0.708359 -0.241088 0.663404
vn -0.679561 -0.376384 0.629708
vn -0.611155 -0.563815 0.55552
vn -0.568427 -0.644433 0.511465
vn -0.56147 -0.655881 0.504551
vn -0.580855 -0.620672 0.526663
vn -0.650394 -0.451538 0.61082
vn -0.699759 -0.220685 0.679438
vn -0.706755 -0.131997 0.695035
vn -0.000211 1 0.000126
vn 0.011103 0.999879 -0.010931
vn 0.075855 0.994303 -0.074887
vn 0.100543 0.989886 -0.100084
vn -0.092117 0.991409 0.092854
vn -0.250465 0.934903 0.251444
vn -0.291793 0.91068 0.292435
vn -0.361878 0.857866 0.364842
vn -0.614684 0.480469 0.625551
vn -0.700617 -0.070766 0.71002
vn -0.683573 -0.241845 0.68865
vn -0.649874 -0.376463 0.660257
vn -0.575732 -0.565931 0.590131
vn -0.532877 -0.648264 0.543871
vn -0.526468 -0.660171 0.53573
vn -0.54835 -0.625277 0.555285
vn -0.629027 -0.457315 0.628639
vn -0.689925 -0.223084 0.688648
vn -0.702875 -0.132109 0.698937
vn 0.00226 0.999995 -0.002154
vn 0.01186 0.999868 -0.011139
vn 0.073746 0.994876 -0.069165
vn 0.104777 0.989746 -0.097076
vn -0.082378 0.992572 0.089528
vn -0.243812 0.936391 0.252444
vn -0.28645 0.911091 0.29641
vn -0.348946 0.861857 0.368022
vn -0.578544 0.501382 0.643353
vn -0.654185 -0.063492 0.753665
vn -0.6312 -0.242647 0.736688
vn -0.594903 -0.374601 0.711172
vn -0.514498 -0.566067 0.644096
vn -0.465618 -0.651734 0.5987
vn -0.457417 -0.66476 0.590646
vn -0.480955 -0.631353 0.608338
vn -0.575239 -0.468454 0.67056
vn -0.663575 -0.228015 0.712515
vn -0.686766 -0.132571 0.714687
vn 0.005735 0.999969 -0.005391
vn 0.014213 0.999806 -0.013655
vn 0.07204 0.994996 -0.069238
vn 0.098937 0.990756 -0.092817
vn -0.086707 0.991974 0.092027
vn -0.245352 0.936188 0.251702
vn -0.287372 0.911147 0.295344
vn -0.35277 0.861258 0.365771
vn -0.591086 0.498605 0.634043
vn -0.666896 -0.064253 0.742376
vn -0.641237 -0.242569 0.727994
vn -0.609565 -0.374669 0.698609
vn -0.533402 -0.565861 0.628715
vn -0.482414 -0.651424 0.585596
vn -0.472969 -0.664418 0.578662
vn -0.494366 -0.630867 0.598005
vn -0.581137 -0.467494 0.66613
vn -0.665644 -0.22757 0.710725
vn -0.68576 -0.132616 0.715644
vn 0.005818 0.999966 -0.005825
vn 0.015405 0.999762 -0.015446
vn 0.073436 0.994574 -0.073692
vn 0.091373 0.991614 -0.091394
vn -0.097783 0.990406 0.097645
vn -0.251319 0.934758 0.251131
vn -0.29183 0.910873 0.291798
vn -0.36427 0.857405 0.363543
vn -0.622383 0.478263 0.6196
vn -0.706051 -0.071292 0.704564
vn -0.685964 -0.241785 0.686289
vn -0.655878 -0.376322 0.654374
vn -0.5847 -0.565236 0.581924
vn -0.53953 -0.64753 0.538155
vn -0.531894 -0.659485 0.531196
vn -0.552139 -0.624662 0.552214
vn -0.627928 -0.456768 0.630135
vn -0.688549 -0.222836 0.690105
vn -0.69982 -0.132199 0.701979
vn 0.004719 0.999977 -0.004824
vn 0.014967 0.999772 -0.015238
vn 0.074341 0.994364 -0.075592
vn 0.090486 0.991594 -0.092485
vn -0.100656 0.990006 0.098775
vn -0.253316 0.934251 0.251011
vn -0.293372 0.910723 0.290718
vn -0.368097 0.856025 0.36294
vn -0.632365 0.471042 0.615007
vn -0.718154 -0.073647 0.691976
vn -0.700047 -0.241274 0.672102
vn -0.670177 -0.376501 0.639617
vn -0.600415 -0.564371 0.566557
vn -0.557378 -0.645326 0.522382
vn -0.550438 -0.656859 0.515319
vn -0.570408 -0.621672 0.536804
vn -0.64293 -0.452622 0.617879
vn -0.696052 -0.221115 0.683095
vn -0.704788 -0.132022 0.697025
vn 0.004302 0.999981 -0.004313
vn 0.014386 0.999793 -0.014381
vn 0.074275 0.994475 -0.074179
vn 0.09327 0.991235 -0.093565
vn -0.096919 0.990576 0.096776
vn -0.251376 0.934717 0.251225
vn -0.292115 0.910803 0.291729
vn -0.36398 0.857338 0.363993
vn -0.620964 0.477785 0.621389
vn -0.706533 -0.071571 0.704052
vn -0.688556 -0.241683 0.683725
vn -0.656669 -0.376452 0.653506
vn -0.584326 -0.565457 0.582083
vn -0.540913 -0.647427 0.536891
vn -0.534098 -0.65924 0.529285
vn -0.555119 -0.62427 0.549664
vn -0.632557 -0.456023 0.62603
vn -0.691296 -0.222542 0.687449
vn -0.702757 -0.132095 0.699058
vn 0.005121 0.999974 -0.005043
vn 0.014661 0.999787 -0.014496
vn 0.073475 0.994643 -0.072711
vn 0.094184 0.991221 -0.092795
vn -0.094476 0.990913 0.095739
vn -0.249754 0.935135 0.251286
vn -0.290803 0.910933 0.292635
vn -0.361014 0.858455 0.364313
vn -0.61336 0.483654 0.624394
vn -0.696452 -0.069608 0.71422
vn -0.676187 -0.242136 0.695803
vn -0.644638 -0.376265 0.665482
vn -0.571444 -0.566024 0.594195
vn -0.525738 -0.649142 0.54974
vn -0.5181 -0.661333 0.542412
vn -0.539117 -0.626728 0.562641
vn -0.618769 -0.459589 0.637105
vn -0.684319 -0.224022 0.693918
vn -0.697847 -0.132281 0.703926
vn 0.004233 0.999982 -0.004316
vn 0.014659 0.999778 -0.015114
vn 0.074286 0.994289 -0.076617
vn 0.090197 0.991568 -0.093044
vn -0.101964 0.989846 0.099041
vn -0.254443 0.934 0.250804
vn -0.294091 0.910622 0.290306
vn -0.370784 0.85527 0.361984
vn -0.640038 0.467462 0.609779
vn -0.724731 -0.074448 0.684998
vn -0.705203 -0.240871 0.666836
vn -0.677771 -0.375946 0.631895
vn -0.610428 -0.562848 0.557296
vn -0.566539 -0.643486 0.514742
vn -0.558986 -0.654998 0.50844
vn -0.577759 -0.619893 0.530968
vn -0.646064 -0.451017 0.61578
vn -0.697055 -0.220482 0.682277
vn -0.70399 -0.132034 0.697829
vn 0.001464 0.999998 -0.001479
vn 0.013031 0.99982 -0.013776
vn 0.075893 0.993895 -0.080078
vn 0.090248 0.991189 -0.096955
vn -0.105722 0.989403 0.099523
vn -0.257999 0.933139 0.250375
vn -0.297205 0.91022 0.288389
vn -0.377582 0.852902 0.360541
vn -0.657217 0.455642 0.600381
vn -0.746427 -0.077686 0.660917
vn -0.731068 -0.23902 0.639069
vn -0.703599 -0.374528 0.603885
vn -0.638649 -0.558996 0.52882
vn -0.599173 -0.637029 0.484959
vn -0.5931 -0.64775 0.478175
vn -0.611462 -0.612296 0.501206
vn -0.674017 -0.442925 0.591201
vn -0.711468 -0.217417 0.668239
vn -0.714276 -0.131568 0.687386
vn 0.000093 1 -0.000112
vn 0.011629 0.999863 -0.011791
vn 0.076044 0.994109 -0.077232
vn 0.096644 0.990329 -0.099544
vn -0.097661 0.99065 0.09526
vn -0.253768 0.934157 0.250903
vn -0.294333 0.91045 0.290602
vn -0.368618 0.855812 0.362915
vn -0.633224 0.470157 0.614801
vn -0.72196 -0.07373 0.687996
vn -0.706343 -0.240575 0.665735
vn -0.675077 -0.37572 0.634906
vn -0.604862 -0.563314 0.562867
vn -0.564018 -0.643719 0.517213
vn -0.557994 -0.655048 0.509465
vn -0.578471 -0.619771 0.530335
vn -0.651219 -0.450903 0.61041
vn -0.700654 -0.220565 0.678554
vn -0.708974 -0.131801 0.692809
vn 0.000434 1 -0.000451
vn 0.011409 0.999871 -0.011308
vn 0.075254 0.994374 -0.074551
vn 0.100385 0.989989 -0.09922
vn -0.091738 0.991449 0.092809
vn -0.250059 0.935034 0.251362
vn -0.291227 0.910765 0.292734
vn -0.361535 0.858189 0.364424
vn -0.614605 0.48212 0.624356
vn -0.697872 -0.070252 0.712768
vn -0.678039 -0.242221 0.693969
vn -0.646264 -0.376666 0.663676
vn -0.573038 -0.566358 0.59234
vn -0.527768 -0.649196 0.547727
vn -0.52031 -0.661287 0.540348
vn -0.541427 -0.626548 0.560619
vn -0.621024 -0.458891 0.635412
vn -0.685466 -0.223683 0.692895
vn -0.698685 -0.132264 0.703097
vn 0.000735 0.999999 -0.00072
vn 0.008202 0.999933 -0.008122
vn 0.055675 0.996927 -0.055103
vn 0.114696 0.986914 -0.113335
vn -0.04632 0.997796 0.047516
vn -0.235626 0.942502 0.237004
vn -0.291169 0.910734 0.292891
vn -0.33679 0.878251 0.339482
vn -0.561795 0.598891 0.570715
vn -0.698749 -0.018131 0.715137
vn -0.678352 -0.233918 0.696506
vn -0.65437 -0.343317 0.673745
vn -0.584804 -0.538918 0.606277
vn -0.529694 -0.643751 0.552276
vn -0.517852 -0.662926 0.540702
vn -0.533595 -0.637451 0.555817
vn -0.600155 -0.507337 0.618404
vn -0.68033 -0.247483 0.689857
vn -0.698257 -0.132287 0.703518
f 5/5/5 24/24/24 25/25/25
f 5/5/5 25/25/25 6/6/6
f 6/6/6 25/25/25 26/26/26
f 6/6/6 26/26/26 7/7/7
f 7/7/7 26/26/26 27/27/27
f 7/7/7 27/27/27 8/8/8
f 8/8/8 27/27/27 28/28/28
f 8/8/8 28/28/28 9/9/9
f 9/9/9 28/28/28 29/29/29
f 9/9/9 29/29/29 10/10/10
f 10/10/10 29/29/29 30/30/30
f 10/10/10 30/30/30 11/11/11
f 11/11/11 30/30/30 31/31/31
f 11/11/11 31/31/31 12/12/12
f 12/12/12 31/31/31 32/32/32
f 12/12/12 32/32/32 13/13/13
f 13/13/13 32/32/32 33/33/33
f 13/13/13 33/33/33 14/14/14
f 14/14/14 33/33/33 34/34/34
f 14/14/14 34/34/34 15/15/15
f 15/15/15 34/34/34 35/35/35
f 15/15/15 35/35/35 16/16/16
f 16/16/16 35/35/35 36/36/36
f 16/16/16 36/36/36 17/17/17
f 17/17/17 36/36/36 37/37/37
f 17/17/17 37/37/37 18/18/18
f 18/18/18 37/37/37 38/38/38
f 18/18/18 38/38/38 19/19/19
f 24/24/24 43/43/43 44/44/44
f 24/24/24 44/44/44 25/25/25
f 25/25/25 44/44/44 45/45/45
f 25/25/25 45/45/45 26/26/26
f 26/26/26 45/45/45 46/46/46
f 26/26/26 46/46/46 27/27/27
f 27/27/27 46/46/46 47/47/47
f 27/27/27 47/47/47 28/28/28
f 28/28/28 47/47/47 48/48/48
f 28/28/28 48/48/48 29/29/29
f 29/29/29 48/48/48 49/49/49
f 29/29/29 49/49/49 30/30/30
f 30/30/30 49/49/49 50/50/50
f 30/30/30 50/50/50 31/31/31
f 31/31/31 50/50/50 51/51/51
f 31/31/31 51/51/51 32/32/32
f 32/32/32 51/51/51 52/52/52
f 32/32/32 52/52/52 33/33/33
f 33/33/33 52/52/52 53/53/53
f 33/33/33 53/53/53 34/34/34
f 34/34/34 53/53/53 54/54/54
f 34/34/34 54/54/54 35/35/35
f 35/35/35 54/54/54 55/55/55
f 35/35/35 55/55/55 36/36/36
f 36/36/36 55/55/55 56/56/56
f 36/36/36 56/56/56 37/37/37
f 37/37/37 56/56/56 57/57/57
f 37/37/37 57/57/57 38/38/38
f 43/43/43 62/62/62 63/63/63
f 43/43/43 63/63/63 44/44/44
f 44/44/44 63/63/63 64/64/64
f 44/44/44 64/64/64 45/45/45
f 45/45/45 64/64/64 65/65/65
f 45/45/45 65/65/65 46/46/46
f 46/46/46 65/65/65 66/66/66
f 46/46/46 66/66/66 47/47/47
f 47/47/47 66/66/66 67/67/67
f 47/47/47 67/67/67 48/48/48
f 48/48/48 67/67/67 68/68/68
f 48/48/48 68/68/68 49/49/49
f 49/49/49 68/68/68 69/69/69
f 49/49/49 69/69/69 50/50/50
f 50/50/50 69/69/69 70/70/70
f 50/50/50 70/70/70 51/51/51
f 51/51/51 70/70/70 71/71/71
f 51/51/51 71/71/71 52/52/52
f 52/52/52 71/71/71 72/72/72
f 52/52/52 72/72/72 53/53/53
f 53/53/53 72/72/72 73/73/73
f 53/53/53 73/73/73 54/54/54
f 54/54/54 73/73/73 74/74/74
f 54/54/54 74/74/74 55/55/55
f 55/55/55 74/74/74 75/75/75
f 55/55/55 75/75/75 56/56/56
f 56/56/56 75/75/75 76/76/76
f 56/56/56 76/76/76 57/57/57
f 62/62/62 81/81/81 82/82/82
f 62/62/62 82/82/82 63/63/63
f 63/63/63 82/82/82 83/83/83
f 63/63/63 83/83/83 64/64/64
f 64/64/64 83/83/83 84/84/84
f 64/64/64 84/84/84 65/65/65
f 65/65/65 84/84/84 85/85/85
f 65/65/65 85/85/85 66/66/66
f 66/66/66 85/85/85 86/86/86
f 66/66/66 86/86/86 67/67/67
f 67/67/67 86/86/86 87/87/87
f 67/67/67 87/87/87 68/68/68
f 68/68/68 87/87/87 88/88/88
f 68/68/68 88/88/88 69/69/69
f 69/69/69 88/88/88 89/89/89
f 69/69/69 89/89/89 70/70/70
f 70/70/70 89/89/89 90/90/90
f 70/70/70 90/90/90 71/71/71
f 71/71/71 90/90/90 91/91/91
f 71/71/71 91/91/91 72/72/72
f 72/72/72 91/91/91 92/92/92
f 72/72/72 92/92/92 73/73/73
f 73/73/73 92/92/92 93/93/93
f 73/73/73 93/93/93 74/74/74
f 74/74/74 93/93/93 94/94/94
f 74/74/74 94/94/94 75/75/75
f 75/75/75 94/94/94 95/95/95
f 75/75/75 95/95/95 76/76/76
f 81/81/81 100/100/100 101/101/101
f 81/81/81 101/101/101 82/82/82
f 82/82/82 101/101/101 102/102/102
f 82/82/82 102/102/102 83/83/83
f 83/83/83 102/102/102 103/103/103
f 83/83/83 103/103/103 84/84/84
f 84/84/84 103/103/103 104/104/104
f 84/84/84 104/104/104 85/85/85
f 85/85/85 104/104/104 105/105/105
f 85/85/85 105/105/105 86/86/86
f 86/86/86 105/105/105 106/106/106
f 86/86/86 106/106/106 87/87/87
f 87/87/87 106/106/106 107/107/107
f 87/87/87 107/107/107 88/88/88
f 88/88/88 107/107/107 108/108/108
f 88/88/88 108/108/108 89/89/89
f 89/89/89 108/108/108 109/109/109
f 89/89/89 109/109/109 90/90/90
f 90/90/90 109/109/109 110/110/110
f 90/90/90 110/110/110 91/91/91
f 91/91/91 110/110/110 111/111/111
f 91/91/91 111/111/111 92/92/92
f 92/92/92 111/111/111 112/112/112
f 92/92/92 112/112/112 93/93/93
f 93/93/93 112/112/112 113/113/113
f 93/93/93 113/113/113 94/94/94
f 94/94/94 113/113/113 114/114/114
f 94/94/94 114/114/114 95/95/95
f 100/100/100 119/119/119 120/120/120
f 100/100/100 120/120/120 101/101/101
f 101/101/101 120/120/120 121/121/121
f 101/101/101 121/121/121 102/102/102
f 102/102/102 121/121/121 122/122/122
f 102/102/102 122/122/122 103/103/103
f 103/103/103 122/122/122 123/123/123
f 103/103/103 123/123/123 104/104/104
f 104/104/104 123/123/123 124/124/124
f 104/104/104 124/124/124 105/105/105
f 105/105/105 124/124/124 125/125/125
f 105/105/105 125/125/125 106/106/106
f 106/106/106 125/125/125 126/126/126
f 106/106/106 126/126/126 107/107/107
f 107/107/107 126/126/126 127/127/127
f 107/107/107 127/127/127 108/108/108
f 108/108/108 127/127/127 128/128/128
f 108/108/108 128/128/128 109/109/109
f 109/109/109 128/128/128 129/129/129
f 109/109/109 129/129/129 110/110/110
f 110/110/110 129/129/129 130/130/130
f 110/110/110 130/130/130 111/111/111
f 111/111/111 130/130/130 131/131/131
f 111/111/111 131/131/131 112/112/112
f 112/112/112 131/131/131 132/132/132
f 112/112/112 132/132/132 113/113/113
f 113/113/113 132/132/132 133/133/133
f 113/113/113 133/133/133 114/114/114
f 119/119/119 138/138/138 139/139/139
f 119/119/119 139/139/139 120/120/120
f 120/120/120 139/139/139 140/140/140
f 120/120/120 140/140/140 121/121/121
f 121/121/121 140/140/140 141/141/141
f 121/121/121 141/141/141 122/122/122
f 122/122/122 141/141/141 142/142/142
f 122/122/122 142/142/142 123/123/123
f 123/123/123 142/142/142 143/143/143
f 123/123/123 143/143/143 124/124/124
f 124/124/124 143/143/143 144/144/144
f 124/124/124 144/144/144 125/125/125
f 125/125/125 144/144/144 145/145/145
f 125/125/125 145/145/145 126/126/126
f 126/126/126 145/145/145 146/146/146
f 126/126/126 146/146/146 127/127/127
f 127/127/127 146/146/146 147/147/147
f 127/127/127 147/147/147 128/128/128
f 128/128/128 147/147/147 148/148/148
f 128/128/128 148/148/148 129/129/129
f 129/129/129 148/148/148 149/149/149
f 129/129/129 149/149/149 130/130/130
f 130/130/130 149/149/149 150/150/150
f 130/130/130 150/150/150 131/131/131
f 131/131/131 150/150/150 151/151/151
f 131/131/131 151/151/151 132/132/132
f 132/132/132 151/151/151 152/152/152
f 132/132/132 152/152/152 133/133/133
f 138/138/138 157/157/157 158/158/158
f 138/138/138 158/158/158 139/139/139
f 139/139/139 158/158/158 159/159/159
f 139/139/139 159/159/159 140/140/140
f 140/140/140 159/159/159 160/160/160
f 140/140/140 160/160/160 141/141/141
f 141/141/141 160/160/160 161/161/161
f 141/141/141 161/161/161 142/142/142
f 142/142/142 161/161/161 162/162/162
f 142/142/142 162/162/162 143/143/143
f 143/143/143 162/162/162 163/163/163
f 143/143/143 163/163/163 144/144/144
f 144/144/144 163/163/163 164/164/164
f 144/144/144 164/164/164 145/145/145
f 145/145/145 164/164/164 165/165/165
f 145/145/145 165/165/165 146/146/146
f 146/146/146 165/165/165 166/166/166
f 146/146/146 166/166/166 147/147/147
f 147/147/147 166/166/166 167/167/167
f 147/147/147 167/167/167 148/148/148
f 148/148/148 167/167/167 168/168/168
f 148/148/148 168/168/168 149/149/149
f 149/149/149 168/168/168 169/169/169
f 149/149/149 169/169/169 150/150/150
f 150/150/150 169/169/169 170/170/170
f 150/150/150 170/170/170 151/151/151
f 151/151/151 170/170/170 171/171/171
f 151/151/151 171/171/171 152/152/152
f 157/157/157 176/176/176 177/177/177
f 157/157/157 177/177/177 158/158/158
f 158/158/158 177/177/177 178/178/178
f 158/158/158 178/178/178 159/159/159
f 159/159/159 178/178/178 179/179/179
f 159/159/159 179/179/179 160/160/160
f 160/160/160 179/179/179 180/180/180
f 160/160/160 180/180/180 161/161/161
f 161/161/161 180/180/180 181/181/181
f 161/161/161 181/181/181 162/162/162
f 162/162/162 181/181/181 182/182/182
f 162/162/162 182/182/182 163/163/163
f 163/163/163 182/182/182 183/183/183
f 163/163/163 183/183/183 164/164/164
f 164/164/164 183/183/183 184/184/184
f 164/164/164 184/184/184 165/165/165
f 165/165/165 184/184/184 185/185/185
f 165/165/165 185/185/185 166/166/166
f 166/166/166 185/185/185 186/186/186
f 166/166/166 186/186/186 167/167/167
f 167/167/167 186/186/186 187/187/187
f 167/167/167 187/187/187 168/168/168
f 168/168/168 187/187/187 188/188/188
f 168/168/168 188/188/188 169/169/169
f 169/169/169 188/188/188 189/189/189
f 169/169/169 189/189/189 170/170/170
f 170/170/170 189/189/189 190/190/190
f 170/170/170 190/190/190 171/171/171
f 176/176/176 195/195/195 196/196/196
f 176/176/176 196/196/196 177/177/177
f 177/177/177 196/196/196 197/197/197
f 177/177/177 197/197/197 178/178/178
f 178/178/178 197/197/197 198/198/198
f 178/178/178 198/198/198 179/179/179
f 179/179/179 198/198/198 199/199/199
f 179/179/179 199/199/199 180/180/180
f 180/180/180 199/199/199 200/200/200
f 180/180/180 200/200/200 181/181/181
f 181/181/181 200/200/200 201/201/201
f 181/181/181 201/201/201 182/182/182
f 182/182/182 201/201/201 202/202/202
f 182/182/182 202/202/202 183/183/183
f 183/183/183 202/202/202 203/203/203
f 183/183/183 203/203/203 184/184/184
f 184/184/184 203/203/203 204/204/204
f 184/184/184 204/204/204 185/185/185
f 185/185/185 204/204/204 205/205/205
f 185/185/185 205/205/205 186/186/186
f 186/186/186 205/205/205 206/206/206
f 186/186/186 206/206/206 187/187/187
f 187/187/187 206/206/206 207/207/207
f 187/187/187 207/207/207 188/188/188
f 188/188/188 207/207/207 208/208/208
f 188/188/188 208/208/208 189/189/189
f 189/189/189 208/208/208 209/209/209
f 189/189/189 209/209/209 190/190/190
f 195/195/195 214/214/214 215/215/215
f 195/195/195 215/215/215 196/196/196
f 196/196/196 215/215/215 216/216/216
f 196/196/196 216/216/216 197/197/197
f 197/197/197 216/216/216 217/217/217
f 197/197/197 217/217/217 198/198/198
f 198/198/198 217/217/217 218/218/218
f 198/198/198 218/218/218 199/199/199
f 199/199/199 218/218/218 219/219/219
f 199/199/199 219/219/219 200/200/200
f 200/200/200 219/219/219 220/220/220
f 200/200/200 220/220/220 201/201/201
f 201/201/201 220/220/220 221/221/221
f 201/201/201 221/221/221 202/202/202
f 202/202/202 221/221/221 222/222/222
f 202/202/202 222/222/222 203/203/203
f 203/203/203 222/222/222 223/223/223
f 203/203/203 223/223/223 204/204/204
f 204/204/204 223/223/223 224/224/224
f 204/204/204 224/224/224 205/205/205
f 205/205/205 224/224/224 225/225/225
f 205/205/205 225/225/225 206/206/206
f 206/206/206 225/225/225 226/226/226
f 206/206/206 226/226/226 207/207/207
f 207/207/207 226/226/226 227/227/227
f 207/207/207 227/227/227 208/208/208
f 208/208/208 227/227/227 228/228/228
f 208/208/208 228/228/228 209/209/209
f 214/214/214 233/233/233 234/234/234
f 214/214/214 234/234/234 215/215/215
f 215/215/215 234/234/234 235/235/235
f 215/215/215 235/235/235 216/216/216
f 216/216/216 235/235/235 236/236/236
f 216/216/216 236/236/236 217/217/217
f 217/217/217 236/236/236 237/237/237
f 217/217/217 237/237/237 218/218/218
f 218/218/218 237/237/237 238/238/238
f 218/218/218 238/238/238 219/219/219
f 219/219/219 238/238/238 239/239/239
f 219/219/219 239/239/239 220/220/220
f 220/220/220 239/239/239 240/240/240
f 220/220/220 240/240/240 221/221/221
f 221/221/221 240/240/240 241/241/241
f 221/221/221 241/241/241 222/222/222
f 222/222/222 241/241/241 242/242/242
f 222/222/222 242/242/242 223/223/223
f 223/223/223 242/242/242 243/243/243
f 223/223/223 243/243/243 224/224/224
f 224/224/224 243/243/243 244/244/244
f 224/224/224 244/244/244 225/225/225
f 225/225/225 244/244/244 245/245/245
f 225/225/225 245/245/245 226/226/226
f 226/226/226 245/245/245 246/246/246
f 226/226/226 246/246/246 227/227/227
f 227/227/227 246/246/246 247/247/247
f 227/227/227 247/247/247 228/228/228
f 233/233/233 252/252/252 253/253/253
f 233/233/233 253/253/253 234/234/234
f 234/234/234 253/253/253 254/254/254
f 234/234/234 254/254/254 235/235/235
f 235/235/235 254/254/254 255/255/255
f 235/235/235 255/255/255 236/236/236
f 236/236/236 255/255/255 256/256/256
f 236/236/236 256/256/256 237/237/237
f 237/237/237 256/256/256 257/257/257
f 237/237/237 257/257/257 238/238/238
f 238/238/238 257/257/257 258/258/258
f 238/238/238 258/258/258 239/239/239
f 239/239/239 258/258/258 259/259/259
f 239/239/239 259/259/259 240/240/240
f 240/240/240 259/259/259 260/260/260
f 240/240/240 260/260/260 241/241/241
f 241/241/241 260/260/260 261/261/261
f 241/241/241 261/261/261 242/242/242
f 242/242/242 261/261/261 262/262/262
f 242/242/242 262/262/262 243/243/243
f 243/243/243 262/262/262 263/263/263
f 243/243/243 263/263/263 244/244/244
f 244/244/244 263/263/263 264/264/264
f 244/244/244 264/264/264 245/245/245
f 245/245/245 264/264/264 265/265/265
f 245/245/245 265/265/265 246/246/246
f 246/246/246 265/265/265 266/266/266
f 246/246/246 266/266/266 247/247/247
f 252/252/252 271/271/271 272/272/272
f 252/252/252 272/272/272 253/253/253
f 253/253/253 272/272/272 273/273/273
f 253/253/253 273/273/273 254/254/254
f 254/254/254 273/273/273 274/274/274
f 254/254/254 274/274/274 255/255/255
f 255/255/255 274/274/274 275/275/275
f 255/255/255 275/275/275 256/256/256
f 256/256/256 275/275/275 276/276/276
f 256/256/256 276/276/276 257/257/257
f 257/257/257 276/276/276 277/277/277
f 257/257/257 277/277/277 258/258/258
f 258/258/258 277/277/277 278/278/278
f 258/258/258 278/278/278 259/259/259
f 259/259/259 278/278/278 279/279/279
f 259/259/259 279/279/279 260/260/260
f 260/260/260 279/279/279 280/280/280
f 260/260/260 280/280/280 261/261/261
f 261/261/261 280/280/280 281/281/281
f 261/261/261 281/281/281 262/262/262
f 262/262/262 281/281/281 282/282/282
f 262/262/262 282/282/282 263/263/263
f 263/263/263 282/282/282 283/283/283
f 263/263/263 283/283/283 264/264/264
f 264/264/264 283/283/283 284/284/284
f 264/264/264 284/284/284 265/265/265
f 265/265/265 284/284/284 285/285/285
f 265/265/265 285/285/285 266/266/266
f 271/271/271 290/290/290 291/291/291
f 271/271/271 291/291/291 272/272/272
f 272/272/272 291/291/291 292/292/292
f 272/272/272 292/292/292 273/273/273
f 273/273/273 292/292/292 293/293/293
f 273/273/273 293/293/293 274/274/274
f 274/274/274 293/293/293 294/294/294
f 274/274/274 294/294/294 275/275/275
f 275/275/275 294/294/294 295/295/295
f 275/275/275 295/295/295 276/276/276
f 276/276/276 295/295/295 296/296/296
f 276/276/276 296/296/296 277/277/277
f 277/277/277 296/296/296 297/297/297
f 277/277/277 297/297/297 278/278/278
f 278/278/278 297/297/297 298/298/298
f 278/278/278 298/298/298 279/279/279
f 279/279/279 298/298/298 299/299/299
f 279/279/279 299/299/299 280/280/280
f 280/280/280 299/299/299 300/300/300
f 280/280/280 300/300/300 281/281/281
f 281/281/281 300/300/300 301/301/301
f 281/281/281 301/301/301 282/282/282
f 282/282/282 301/301/301 302/302/302
f 282/282/282 302/302/302 283/283/283
f 283/283/283 302/302/302 303/303/303
f 283/283/283 303/303/303 284/284/284
f 284/284/284 303/303/303 304/304/304
f 284/284/284 304/304/304 285/285/285
f 290/290/290 309/309/309 310/310/310
f 290/290/290 310/310/310 291/291/291
f 291/291/291 310/310/310 311/311/311
f 291/291/291 311/311/311 292/292/292
f 292/292/292 311/311/311 312/312/312
f 292/292/292 312/312/312 293/293/293
f 293/293/293 312/312/312 313/313/313
f 293/293/293 313/313/313 294/294/294
f 294/294/294 313/313/313 314/314/314
f 294/294/294 314/314/314 295/295/295
f 295/295/295 314/314/314 315/315/315
f 295/295/295 315/315/315 296/296/296
f 296/296/296 315/315/315 316/316/316
f 296/296/296 316/316/316 297/297/297
f 297/297/297 316/316/316 317/317/317
f 297/297/297 317/317/317 298/298/298
f 298/298/298 317/317/317 318/318/318
f 298/298/298 318/318/318 299/299/299
f 299/299/299 318/318/318 319/319/319
f 299/299/299 319/319/319 300/300/300
f 300/300/300 319/319/319 320/320/320
f 300/300/300 320/320/320 301/301/301
f 301/301/301 320/320/320 321/321/321
f 301/301/301 321/321/321 302/302/302
f 302/302/302 321/321/321 322/322/322
f 302/302/302 322/322/322 303/303/303
f 303/303/303 322/322/322 323/323/323
f 303/303/303 323/323/323 304/304/304
f 309/309/309 328/328/328 329/329/329
f 309/309/309 329/329/329 310/310/310
f 310/310/310 329/329/329 330/330/330
f 310/310/310 330/330/330 311/311/311
f 311/311/311 330/330/330 331/331/331
f 311/311/311 331/331/331 312/312/312
f 312/312/312 331/331/331 332/332/332
f 312/312/312 332/332/332 313/313/313
f 313/313/313 332/332/332 333/333/333
f 313/313/313 333/333/333 314/314/314
f 314/314/314 333/333/333 334/334/334
f 314/314/314 334/334/334 315/315/315
f 315/315/315 334/334/334 335/335/335
f 315/315/315 335/335/335 316/316/316
f 316/316/316 335/335/335 336/336/336
f 316/316/316 336/336/336 317/317/317
f 317/317/317 336/336/336 337/337/337
f 317/317/317 337/337/337 318/318/318
f 318/318/318 337/337/337 338/338/338
f 318/318/318 338/338/338 319/319/319
f 319/319/319 338/338/338 339/339/339
f 319/319/319 339/339/339 320/320/320
f 320/320/320 339/339/339 340/340/340
f 320/320/320 340/340/340 321/321/321
f 321/321/321 340/340/340 341/341/341
f 321/321/321 341/341/341 322/322/322
f 322/322/322 341/341/341 342/342/342
f 322/322/322 342/342/342 323/323/323
f 328/328/328 347/347/347 348/348/348
f 328/328/328 348/348/348 329/329/329
f 329/329/329 348/348/348 349/349/349
f 329/329/329 349/349/349 330/330/330
f 330/330/330 349/349/349 350/350/350
f 330/330/330 350/350/350 331/331/331
f 331/331/331 350/350/350 351/351/351
f 331/331/331 351/351/351 332/332/332
f 332/332/332 351/351/351 352/352/352
f 332/332/332 352/352/352 333/333/333
f 333/333/333 352/352/352 353/353/353
f 333/333/333 353/353/353 334/334/334
f 334/334/334 353/353/353 354/354/354
f 334/334/334 354/354/354 335/335/335
f 335/335/335 354/354/354 355/355/355
f 335/335/335 355/355/355 336/336/336
f 336/336/336 355/355/355 356/356/356
f 336/336/336 356/356/356 337/337/337
f 337/337/337 356/356/356 357/357/357
f 337/337/337 357/357/357 338/338/338
f 338/338/338 357/357/357 358/358/358
f 338/338/338 358/358/358 339/339/339
f 339/339/339 358/358/358 359/359/359
f 339/339/339 359/359/359 340/340/340
f 340/340/340 359/359/359 360/360/360
f 340/340/340 360/360/360 341/341/341
f 341/341/341 360/360/360 361/361/361
f 341/341/341 361/361/361 342/342/342
f 347/347/347 366/366/366 367/367/367
f 347/347/347 367/367/367 348/348/348
f 348/348/348 367/367/367 368/368/368
f 348/348/348 368/368/368 349/349/349
f 349/349/349 368/368/368 369/369/369
f 349/349/349 369/369/369 350/350/350
f 350/350/350 369/369/369 370/370/370
f 350/350/350 370/370/370 351/351/351
f 351/351/351 370/370/370 371/371/371
f 351/351/351 371/371/371 352/352/352
f 352/352/352 371/371/371 372/372/372
f 352/352/352 372/372/372 353/353/353
f 353/353/353 372/372/372 373/373/373
f 353/353/353 373/373/373 354/354/354
f 354/354/354 373/373/373 374/374/374
f 354/354/354 374/374/374 355/355/355
f 355/355/355 374/374/374 375/375/375
f 355/355/355 375/375/375 356/356/356
f 356/356/356 375/375/375 376/376/376
f 356/356/356 376/376/376 357/357/357
f 357/357/357 376/376/376 377/377/377
f 357/357/357 377/377/377 358/358/358
f 358/358/358 377/377/377 378/378/378
f 358/358/358 378/378/378 359/359/359
f 359/359/359 378/378/378 379/379/379
f 359/359/359 379/379/379 360/360/360
f 360/360/360 379/379/379 380/380/380
f 360/360/360 380/380/380 361/361/361
f 366/366/366 385/385/385 386/386/386
f 366/366/366 386/386/386 367/367/367
f 367/367/367 386/386/386 387/387/387
f 367/367/367 387/387/387 368/368/368
f 368/368/368 387/387/387 388/388/388
f 368/368/368 388/388/388 369/369/369
f 369/369/369 388/388/388 389/389/389
f 369/369/369 389/389/389 370/370/370
f 370/370/370 389/389/389 390/390/390
f 370/370/370 390/390/390 371/371/371
f 371/371/371 390/390/390 391/391/391
f 371/371/371 391/391/391 372/372/372
f 372/372/372 391/391/391 392/392/392
f 372/372/372 392/392/392 373/373/373
f 373/373/373 392/392/392 393/393/393
f 373/373/373 393/393/393 374/374/374
f 374/374/374 393/393/393 394/394/394
f 374/374/374 394/394/394 375/375/375
f 375/375/375 394/394/394 395/395/395
f 375/375/375 395/395/395 376/376/376
f 376/376/376 395/395/395 396/396/396
f 376/376/376 396/396/396 377/377/377
f 377/377/377 396/396/396 397/397/397
f 377/377/377 397/397/397 378/378/378
f 378/378/378 397/397/397 398/398/398
f 378/378/378 398/398/398 379/379/379
f 379/379/379 398/398/398 399/399/399
f 379/379/379 399/399/399 380/380/380
f 385/385/385 404/404/404 405/405/405
f 385/385/385 405/405/405 386/386/386
f 386/386/386 405/405/405 406/406/406
f 386/386/386 406/406/406 387/387/387
f 387/387/387 406/406/406 407/407/407
f 387/387/387 407/407/407 388/388/388
f 388/388/388 407/407/407 408/408/408
f 388/388/388 408/408/408 389/389/389
f 389/389/389 408/408/408 409/409/409
f 389/389/389 409/409/409 390/390/390
f 390/390/390 409/409/409 410/410/410
f 390/390/390 410/410/410 391/391/391
f 391/391/391 410/410/410 411/411/411
f 391/391/391 411/411/411 392/392/392
f 392/392/392 411/411/411 412/412/412
f 392/392/392 412/412/412 393/393/393
f 393/393/393 412/412/412 413/413/413
f 393/393/393 413/413/413 394/394/394
f 394/394/394 413/413/413 414/414/414
f 394/394/394 414/414/414 395/395/395
f 395/395/395 414/414/414 415/415/415
f 395/395/395 415/415/415 396/396/396
f 396/396/396 415/415/415 416/416/416
f 396/396/396 416/416/416 397/397/397
f 397/397/397 416/416/416 417/417/417
f 397/397/397 417/417/417 398/398/398
f 398/398/398 417/417/417 418/418/418
f 398/398/398 418/418/418 399/399/399
f 404/404/404 423/423/423 424/424/424
f 404/404/404 424/424/424 405/405/405
f 405/405/405 424/424/424 425/425/425
f 405/405/405 425/425/425 406/406/406
f 406/406/406 425/425/425 426/426/426
f 406/406/406 426/426/426 407/407/407
f 407/407/407 426/426/426 427/427/427
f 407/407/407 427/427/427 408/408/408
f 408/408/408 427/427/427 428/428/428
f 408/408/408 428/428/428 409/409/409
f 409/409/409 428/428/428 429/429/429
f 409/409/409 429/429/429 410/410/410
f 410/410/410 429/429/429 430/430/430
f 410/410/410 430/430/430 411/411/411
f 411/411/411 430/430/430 431/431/431
f 411/411/411 431/431/431 412/412/412
f 412/412/412 431/431/431 432/432/432
f 412/412/412 432/432/432 413/413/413
f 413/413/413 432/432/432 433/433/433
f 413/413/413 433/433/433 414/414/414
f 414/414/414 433/433/433 434/434/434
f 414/414/414 434/434/434 415/415/415
f 415/415/415 434/434/434 435/435/435
f 415/415/415 435/435/435 416/416/416
f 416/416/416 435/435/435 436/436/436
f 416/416/416 436/436/436 417/417/417
f 417/417/417 436/436/436 437/437/437
f 417/417/417 437/437/437 418/418/418
f 423/423/423 442/442/442 443/443/443
f 423/423/423 443/443/443 424/424/424
f 424/424/424 443/443/443 444/444/444
f 424/424/424 444/444/444 425/425/425
f 425/425/425 444/444/444 445/445/445
f 425/425/425 445/445/445 426/426/426
f 426/426/426 445/445/445 446/446/446
f 426/426/426 446/446/446 427/427/427
f 427/427/427 446/446/446 447/447/447
f 427/427/427 447/447/447 428/428/428
f 428/428/428 447/447/447 448/448/448
f 428/428/428 448/448/448 429/429/429
f 429/429/429 448/448/448 449/449/449
f 429/429/429 449/449/449 430/430/430
f 430/430/430 449/449/449 450/450/450
f 430/430/430 450/450/450 431/431/431
f 431/431/431 450/450/450 451/451/451
f 431/431/431 451/451/451 432/432/432
f 432/432/432 451/451/451 452/452/452
f 432/432/432 452/452/452 433/433/433
f 433/433/433 452/452/452 453/453/453
f 433/433/433 453/453/453 434/434/434
f 434/434/434 453/453/453 454/454/454
f 434/434/434 454/454/454 435/435/435
f 435/435/435 454/454/454 455/455/455
f 435/435/435 455/455/455 436/436/436
f 436/436/436 455/455/455 456/456/456
f 436/436/436 456/456/456 437/437/437
f 442/442/442 461/461/461 462/462/462
f 442/442/442 462/462/462 443/443/443
f 443/443/443 462/462/462 463/463/463
f 443/443/443 463/463/463 444/444/444
f 444/444/444 463/463/463 464/464/464
f 444/444/444 464/464/464 445/445/445
f 445/445/445 464/464/464 465/465/465
f 445/445/445 465/465/465 446/446/446
f 446/446/446 465/465/465 466/466/466
f 446/446/446 466/466/466 447/447/447
f 447/447/447 466/466/466 467/467/467
f 447/447/447 467/467/467 448/448/448
f 448/448/448 467/467/467 468/468/468
f 448/448/448 468/468/468 449/449/449
f 449/449/449 468/468/468 469/469/469
f 449/449/449 469/469/469 450/450/450
f 450/450/450 469/469/469 470/470/470
f 450/450/450 470/470/470 451/451/451
f 451/451/451 470/470/470 471/471/471
f 451/451/451 471/471/471 452/452/452
f 452/452/452 471/471/471 472/472/472
f 452/452/452 472/472/472 453/453/453
f 453/453/453 472/472/472 473/473/473
f 453/453/453 473/473/473 454/454/454
f 454/454/454 473/473/473 474/474/474
f 454/454/454 474/474/474 455/455/455
f 455/455/455 474/474/474 475/475/475
f 455/455/455 475/475/475 456/456/456
f 461/461/461 480/480/480 481/481/481
f 461/461/461 481/481/481 462/462/462
f 462/462/462 481/481/481 482/482/482
f 462/462/462 482/482/482 463/463/463
f 463/463/463 482/482/482 483/483/483
f 463/463/463 483/483/483 464/464/464
f 464/464/464 483/483/483 484/484/484
f 464/464/464 484/484/484 465/465/465
f 465/465/465 484/484/484 485/485/485
f 465/465/465 485/485/485 466/466/466
f 466/466/466 485/485/485 486/486/486
f 466/466/466 486/486/486 467/467/467
f 467/467/467 486/486/486 487/487/487
f 467/467/467 487/487/487 468/468/468
f 468/468/468 487/487/487 488/488/488
f 468/468/468 488/488/488 469/469/469
f 469/469/469 488/488/488 489/489/489
f 469/469/469 489/489/489 470/470/470
f 470/470/470 489/489/489 490/490/490
f 470/470/470 490/490/490 471/471/471
f 471/471/471 490/490/490 491/491/491
f 471/471/471 491/491/491 472/472/472
f 472/472/472 491/491/491 492/492/492
f 472/472/472 492/492/492 473/473/473
f 473/473/473 492/492/492 493/493/493
f 473/473/473 493/493/493 474/474/474
f 474/474/474 493/493/493 494/494/494
f 474/474/474 494/494/494 475/475/475
f 480/480/480 499/499/499 500/500/500
f 480/480/480 500/500/500 481/481/481
f 481/481/481 500/500/500 501/501/501
f 481/481/481 501/501/501 482/482/482
f 482/482/482 501/501/501 502/502/502
f 482/482/482 502/502/502 483/483/483
f 483/483/483 502/502/502 503/503/503
f 483/483/483 503/503/503 484/484/484
f 484/484/484 503/503/503 504/504/504
f 484/484/484 504/504/504 485/485/485
f 485/485/485 504/504/504 505/505/505
f 485/485/485 505/505/505 486/486/486
f 486/486/486 505/505/505 506/506/506
f 486/486/486 506/506/506 487/487/487
f 487/487/487 506/506/506 507/507/507
f 487/487/487 507/507/507 488/488/488
f 488/488/488 507/507/507 508/508/508
f 488/488/488 508/508/508 489/489/489
f 489/489/489 508/508/508 509/509/509
f 489/489/489 509/509/509 490/490/490
f 490/490/490 509/509/509 510/510/510
f 490/490/490 510/510/510 491/491/491
f 491/491/491 510/510/510 511/511/511
f 491/491/491 511/511/511 492/492/492
f 492/492/492 511/511/511 512/512/512
f 492/492/492 512/512/512 493/493/493
f 493/493/493 512/512/512 513/513/513
f 493/493/493 513/513/513 494/494/494
f 499/499/499 518/518/518 519/519/519
f 499/499/499 519/519/519 500/500/500
f 500/500/500 519/519/519 520/520/520
f 500/500/500 520/520/520 501/501/501
f 501/501/501 520/520/520 521/521/521
f 501/501/501 521/521/521 502/502/502
f 502/502/502 521/521/521 522/522/522
f 502/502/502 522/522/522 503/503/503
f 503/503/503 522/522/522 523/523/523
f 503/503/503 523/523/523 504/504/504
f 504/504/504 523/523/523 524/524/524
f 504/504/504 524/524/524 505/505/505
f 505/505/505 524/524/524 525/525/525
f 505/505/505 525/525/525 506/506/506
f 506/506/506 525/525/525 526/526/526
f 506/506/506 526/526/526 507/507/507
f 507/507/507 526/526/526 527/527/527
f 507/507/507 527/527/527 508/508/508
f 508/508/508 527/527/527 528/528/528
f 508/508/508 528/528/528 509/509/509
f 509/509/509 528/528/528 529/529/529
f 509/509/509 529/529/529 510/510/510
f 510/510/510 529/529/529 530/530/530
f 510/510/510 530/530/530 511/511/511
f 511/511/511 530/530/530 531/531/531
f 511/511/511 531/531/531 512/512/512
f 512/512/512 531/531/531 532/532/532
f 512/512/512 532/532/532 513/513/513
f 518/518/518 537/537/537 538/538/538
f 518/518/518 538/538/538 519/519/519
f 519/519/519 538/538/538 539/539/539
f 519/519/519 539/539/539 520/520/520
f 520/520/520 539/539/539 540/540/540
f 520/520/520 540/540/540 521/521/521
f 521/521/521 540/540/540 541/541/541
f 521/521/521 541/541/541 522/522/522
f 522/522/522 541/541/541 542/542/542
f 522/522/522 542/542/542 523/523/523
f 523/523/523 542/542/542 543/543/543
f 523/523/523 543/543/543 524/524/524
f 524/524/524 543/543/543 544/544/544
f 524/524/524 544/544/544 525/525/525
f 525/525/525 544/544/544 545/545/545
f 525/525/525 545/545/545 526/526/526
f 526/526/526 545/545/545 546/546/546
f 526/526/526 546/546/546 527/527/527
f 527/527/527 546/546/546 547/547/547
f 527/527/527 547/547/547 528/528/528
f 528/528/528 547/547/547 548/548/548
f 528/528/528 548/548/548 529/529/529
f 529/529/529 548/548/548 549/549/549
f 529/529/529 549/549/549 530/530/530
f 530/530/530 549/549/549 550/550/550
f 530/530/530 550/550/550 531/531/531
f 531/531/531 550/550/550 551/551/551
f 531/531/531 551/551/551 532/532/532
f 537/537/537 556/556/556 557/557/557
f 537/537/537 557/557/557 538/538/538
f 538/538/538 557/557/557 558/558/558
f 538/538/538 558/558/558 539/539/539
f 539/539/539 558/558/558 559/559/559
f 539/539/539 559/559/559 540/540/540
f 540/540/540 559/559/559 560/560/560
f 540/540/540 560/560/560 541/541/541
f 541/541/541 560/560/560 561/561/561
f 541/541/541 561/561/561 542/542/542
f 542/542/542 561/561/561 562/562/562
f 542/542/542 562/562/562 543/543/543
f 543/543/543 562/562/562 563/563/563
f 543/543/543 563/563/563 544/544/544
f 544/544/544 563/563/563 564/564/564
f 544/544/544 564/564/564 545/545/545
f 545/545/545 564/564/564 565/565/565
f 545/545/545 565/565/565 546/546/546
f 546/546/546 565/565/565 566/566/566
f 546/546/546 566/566/566 547/547/547
f 547/547/547 566/566/566 567/567/567
f 547/547/547 567/567/567 548/548/548
f 548/548/548 567/567/567 568/568/568
f 548/548/548 568/568/568 549/549/549
f 549/549/549 568/568/568 569/569/569
f 549/549/549 569/569/569 550/550/550
f 550/550/550 569/569/569 570/570/570
f 550/550/550 570/570/570 551/551/551
