# Generated sky cornice; visual geometry only.
s 1
v 22.706967 -2.811664 -31.19089
v 22.798436 -1.767952 -31.16909
v 22.944014 -0.130483 -31.134394
v 23.012293 1.750919 -31.11812
v 22.871869 3.5176 -31.151588
v 22.473785 5.109091 -31.246465
v 21.892764 6.647557 -31.384943
v 21.182913 8.040155 -31.554125
v 20.39834 9.192884 -31.741116
v 19.505551 10.047516 -31.953899
v 18.491662 10.597117 -32.195543
v 17.4417 10.829808 -32.445786
v 16.440694 10.741233 -32.68436
v 15.450638 10.269387 -32.920325
v 14.446411 9.417207 -33.159667
v 13.532365 8.291753 -33.377516
v 12.812851 7.009752 -33.549001
v 12.305263 5.611994 -33.669977
v 11.957423 4.078876 -33.752879
v 11.769331 2.447202 -33.797708
v 11.740989 0.757186 -33.804463
v 11.885922 -1.002611 -33.76992
v 12.199622 -2.774688 -33.695154
v 12.655035 -4.417367 -33.586614
v 13.225106 -5.794773 -33.450746
v 13.965233 -6.817527 -33.274348
v 14.868972 -7.541283 -33.058956
v 15.816514 -8.15759 -32.833124
v 16.688047 -8.836657 -32.625407
v 17.498385 -9.568442 -32.432276
v 18.295841 -10.31278 -32.242214
v 19.010845 -11.122389 -32.071804
v 19.57383 -12.049987 -31.937625
v 19.944216 -13.254985 -31.84935
v 20.166447 -14.660817 -31.796384
v 20.298497 -15.966232 -31.764912
v 20.39834 -16.869981 -31.741116
v 18.52755 -2.662011 -24.729713
v 18.611883 -1.682101 -24.705446
v 18.746105 -0.156052 -24.666824
v 18.809058 1.586351 -24.64871
v 18.679588 3.207814 -24.685964
v 18.312558 4.65408 -24.791576
v 17.77686 6.044351 -24.94572
v 17.122382 7.294602 -25.134044
v 16.399012 8.319826 -25.342191
v 15.575866 9.068761 -25.579047
v 14.641068 9.538364 -25.848032
v 13.67301 9.720354 -26.126586
v 12.75009 9.612848 -26.392153
v 11.837265 9.158524 -26.654814
v 10.911375 8.360607 -26.921235
v 10.068631 7.319937 -27.163732
v 9.405245 6.145575 -27.354618
v 8.937251 4.873834 -27.489281
v 8.616545 3.483137 -27.581563
v 8.443127 2.004771 -27.631464
v 8.416995 0.472926 -27.638983
v 8.550622 -1.127219 -27.600532
v 8.839852 -2.745083 -27.517308
v 9.259739 -4.250028 -27.396487
v 9.785341 -5.516354 -27.245247
v 10.467732 -6.461648 -27.048892
v 11.300974 -7.139895 -26.80913
v 12.174601 -7.723398 -26.557747
v 12.978147 -8.366322 -26.32653
v 13.725274 -9.059158 -26.111548
v 14.460522 -9.763878 -25.899983
v 15.119751 -10.530394 -25.710293
v 15.63882 -11.40862 -25.560933
v 15.980312 -12.549482 -25.46267
v 16.185208 -13.880488 -25.403712
v 16.306957 -15.116422 -25.368679
v 16.399012 -15.972069 -25.342191
v 14.372759 -2.535742 -18.272643
v 14.450933 -1.608417 -18.246073
v 14.575352 -0.172711 -18.203784
v 14.633707 1.458285 -18.18395
v 14.513693 2.964957 -18.224741
v 14.17347 4.297837 -18.340379
v 13.676898 5.573091 -18.509157
v 13.070221 6.713549 -18.715358
v 12.399683 7.641189 -18.943265
v 11.636658 8.310043 -19.202607
v 10.770134 8.719817 -19.497127
v 9.872781 8.86482 -19.802126
v 9.017268 8.744915 -20.092903
v 8.171113 8.306524 -20.3805
v 7.312848 7.553044 -20.672213
v 6.531655 6.580151 -20.93773
v 5.91672 5.490653 -21.146738
v 5.482908 4.317435 -21.294185
v 5.185625 3.037713 -21.395227
v 5.024872 1.678656 -21.449865
v 5.000649 0.269956 -21.458098
v 5.124517 -1.205457 -21.415997
v 5.392622 -2.702255 -21.324872
v 5.781842 -4.098591 -21.192581
v 6.269055 -5.276902 -21.026984
v 6.901607 -6.160319 -20.811988
v 7.673991 -6.801223 -20.549465
v 8.483811 -7.357049 -20.274218
v 9.228669 -7.969476 -20.021051
v 9.921227 -8.629448 -19.785659
v 10.602775 -9.300741 -19.55401
v 11.213856 -10.030899 -19.346312
v 11.695013 -10.867467 -19.182773
v 12.011564 -11.954214 -19.075182
v 12.201495 -13.222085 -19.010627
v 12.314352 -14.399394 -18.972268
v 12.399683 -15.214454 -18.943265
v 10.24319 -2.435634 -11.816439
v 10.316204 -1.548815 -11.787599
v 10.43241 -0.181251 -11.741699
v 10.486913 1.366997 -11.720171
v 10.374821 2.790008 -11.764446
v 10.057055 4.04168 -11.88996
v 9.593262 5.235264 -12.073154
v 9.026631 6.29847 -12.296967
v 8.400355 7.158238 -12.54434
v 7.687696 7.772245 -12.825833
v 6.878371 8.14187 -13.145508
v 6.040251 8.263048 -13.476556
v 5.241209 8.136708 -13.792169
v 4.450909 7.712037 -14.10433
v 3.649296 6.992511 -14.420959
v 2.919669 6.06978 -14.709154
v 2.345326 5.041907 -14.936013
v 1.940149 3.939392 -15.096054
v 1.66249 2.738922 -15.205726
v 1.512348 1.464915 -15.265031
v 1.489724 0.144054 -15.273967
v 1.605415 -1.24194 -15.22827
v 1.855823 -2.651352 -15.129362
v 2.219351 -3.9688 -14.985772
v 2.674404 -5.082753 -14.806031
v 3.265201 -5.920417 -14.572672
v 3.986601 -6.532719 -14.287727
v 4.742965 -7.066602 -13.988971
v 5.438656 -7.654851 -13.71418
v 6.085499 -8.288768 -13.458684
v 6.722059 -8.933559 -13.207249
v 7.292803 -9.634891 -12.981811
v 7.7422 -10.438433 -12.804304
v 8.037855 -11.482276 -12.687523
v 8.215249 -12.700093 -12.617455
v 8.320656 -13.830924 -12.57582
v 8.400355 -14.613806 -12.54434
v 6.13876 -2.36387 -5.357675
v 6.20761 -1.504872 -5.326464
v 6.317188 -0.18258 -5.276791
v 6.368583 1.312079 -5.253493
v 6.262884 2.682662 -5.301408
v 5.963241 3.885041 -5.43724
v 5.525898 5.029856 -5.635494
v 4.991584 6.047741 -5.877706
v 4.401027 6.868608 -6.145414
v 3.729013 7.452174 -6.450048
v 2.965845 7.800498 -6.796003
v 2.175526 7.910247 -7.154266
v 1.422055 7.782779 -7.495825
v 0.676828 7.369063 -7.833648
v -0.079067 6.672565 -8.176306
v -0.767081 5.782125 -8.488192
v -1.308668 4.79262 -8.733702
v -1.690737 3.733179 -8.906899
v -1.95256 2.580555 -9.025587
v -2.094139 1.357718 -9.089767
v -2.115473 0.089769 -9.099438
v -2.00638 -1.241853 -9.049984
v -1.770253 -2.597452 -8.942945
v -1.427458 -3.865765 -8.787551
v -0.998359 -4.939148 -8.593034
v -0.441256 -5.747409 -8.340491
v 0.239001 -6.340237 -8.032121
v 0.952228 -6.858389 -7.708805
v 1.608241 -7.429305 -7.411424
v 2.218193 -8.044545 -7.134924
v 2.818448 -8.670337 -6.86282
v 3.356641 -9.351005 -6.618849
v 3.780408 -10.130871 -6.42675
v 4.059201 -11.143958 -6.300369
v 4.226477 -12.325893 -6.22454
v 4.325874 -13.423404 -6.179482
v 4.401027 -14.183219 -6.145414
v 2.058738 -2.321986 1.107139
v 2.124391 -1.47774 1.14096
v 2.22888 -0.1775 1.194788
v 2.277889 1.292882 1.220035
v 2.177098 2.642087 1.168113
v 1.89137 3.826597 1.020919
v 1.474336 4.954891 0.806083
v 0.964833 5.958614 0.543611
v 0.401698 6.768692 0.253511
v -0.23911 7.345335 -0.076603
v -0.966839 7.690368 -0.451494
v -1.720459 7.800347 -0.839723
v -2.438941 7.67648 -1.209851
v -3.149564 7.270526 -1.57593
v -3.870358 6.585862 -1.947249
v -4.526423 5.709787 -2.285223
v -5.042861 4.735579 -2.551267
v -5.407188 3.691978 -2.738951
v -5.656854 2.556325 -2.867566
v -5.791858 1.351382 -2.937114
v -5.812201 0.102026 -2.947594
v -5.708174 -1.209747 -2.894004
v -5.483012 -2.544727 -2.778012
v -5.156135 -3.793423 -2.60962
v -4.746961 -4.849931 -2.398833
v -4.215728 -5.645178 -2.125167
v -3.56706 -6.227898 -1.791004
v -2.886952 -6.73687 -1.440645
v -2.261401 -7.297671 -1.118391
v -1.679773 -7.902009 -0.818764
v -1.107392 -8.516713 -0.5239
v -0.59419 -9.185321 -0.259523
v -0.190102 -9.951369 -0.051356
v 0.075746 -10.946506 0.085596
v 0.235254 -12.107499 0.167767
v 0.330035 -13.185564 0.216594
v 0.401698 -13.931917 0.253511
v -1.998209 -2.31084 7.581429
v -1.934839 -1.468087 7.618237
v -1.833983 -0.16656 7.676817
v -1.786678 1.308821 7.704293
v -1.883964 2.66743 7.647786
v -2.159758 3.86503 7.487597
v -2.56229 5.008482 7.253793
v -3.054077 6.028554 6.968149
v -3.59763 6.855267 6.652436
v -4.216156 7.447823 6.293178
v -4.918581 7.806945 5.885188
v -5.645996 7.928284 5.462683
v -6.339495 7.812348 5.059877
v -7.025408 7.410697 4.661478
v -7.721138 6.726558 4.257377
v -8.354391 5.846968 3.889564
v -8.852872 4.865211 3.600031
v -9.20453 3.810604 3.395777
v -9.445514 2.661532 3.255806
v -9.575824 1.441753 3.180118
v -9.59546 0.177228 3.168713
v -9.49505 -1.148721 3.227034
v -9.277718 -2.495876 3.353268
v -8.962207 -3.754184 3.536526
v -8.567261 -4.817339 3.765923
v -8.0545 -5.615911 4.06375
v -7.428387 -6.198002 4.427416
v -6.771928 -6.70453 4.808707
v -6.168129 -7.262639 5.159412
v -5.606725 -7.864076 5.485493
v -5.054246 -8.47583 5.806389
v -4.55889 -9.141228 6.094108
v -4.168852 -9.903599 6.320653
v -3.912248 -10.893959 6.469697
v -3.758286 -12.049379 6.559122
v -3.666802 -13.122268 6.61226
v -3.59763 -13.865038 6.652436
v -6.033958 -2.330588 14.068435
v -5.972031 -1.476071 14.108732
v -5.873471 -0.150001 14.172867
v -5.827244 1.359481 14.202948
v -5.922315 2.75801 14.141083
v -6.191828 3.999315 13.965706
v -6.585195 5.189212 13.709735
v -7.065782 6.255735 13.397008
v -7.596959 7.126099 13.051362
v -8.2014 7.757018 12.658041
v -8.88783 8.147275 12.211368
v -9.598681 8.290843 11.748804
v -10.276389 8.186993 11.307807
v -10.946683 7.786109 10.871635
v -11.626571 7.091198 10.42922
v -12.245404 6.19033 10.026533
v -12.732533 5.17839 9.709549
v -13.076184 4.086221 9.485929
v -13.311681 2.893692 9.332687
v -13.439024 1.62673 9.249823
v -13.458212 0.31367 9.237337
v -13.360089 -1.060105 9.301188
v -13.147705 -2.451899 9.439389
v -12.839379 -3.74878 9.640023
v -12.453426 -4.841908 9.89117
v -11.952341 -5.660039 10.217235
v -11.340486 -6.250969 10.61538
v -10.698975 -6.761825 11.032823
v -10.108924 -7.324704 11.41678
v -9.560304 -7.931281 11.773777
v -9.020406 -8.548262 12.125099
v -8.536329 -9.219346 12.440096
v -8.155173 -9.988232 12.688121
v -7.904413 -10.987055 12.851296
v -7.753956 -12.152349 12.949201
v -7.664555 -13.234408 13.007376
v -7.596959 -13.983525 13.051362
v -10.050855 -2.380683 20.571087
v -9.989624 -1.501347 20.615493
v -9.892172 -0.127794 20.686169
v -9.846465 1.444529 20.719317
v -9.940467 2.913153 20.651144
v -10.20695 4.228473 20.457881
v -10.595896 5.495811 20.175805
v -11.071082 6.63862 19.831184
v -11.596287 7.579433 19.450287
v -12.193934 8.271006 19.016853
v -12.872648 8.709342 18.524627
v -13.575509 8.885964 18.014889
v -14.245599 8.798376 17.528917
v -14.908358 8.394814 17.048262
v -15.580604 7.678 16.560727
v -16.192481 6.738307 16.116973
v -16.674135 5.673797 15.767661
v -17.013923 4.517777 15.521235
v -17.246773 3.252044 15.352365
v -17.372684 1.905866 15.26105
v -17.391657 0.511225 15.24729
v -17.294636 -0.94369 15.317653
v -17.08464 -2.412247 15.469949
v -16.77978 -3.776347 15.691044
v -16.398165 -4.922511 15.967804
v -15.902713 -5.776235 16.327123
v -15.297735 -6.385331 16.765873
v -14.663435 -6.907168 17.225888
v -14.080017 -7.482146 17.649003
v -13.537563 -8.101761 18.042408
v -13.003734 -8.732004 18.429559
v -12.525098 -9.417513 18.776682
v -12.148227 -10.202926 19.050002
v -11.900285 -11.223219 19.229818
v -11.75152 -12.41356 19.337707
v -11.663123 -13.518877 19.401815
v -11.596287 -14.284096 19.450287
v -14.051634 -2.459888 27.091889
v -13.990461 -1.543109 27.141124
v -13.893101 -0.099775 27.219485
v -13.847436 1.56343 27.256238
v -13.94135 3.13172 27.180651
v -14.207583 4.550866 26.966373
v -14.596163 5.926183 26.653623
v -15.070903 7.17473 26.271528
v -15.595615 8.212501 25.849213
v -16.192702 8.986842 25.368647
v -16.870778 9.490129 24.822896
v -17.572979 9.710657 24.257728
v -18.24244 9.643624 23.718911
v -18.904577 9.234171 23.185989
v -19.576191 8.48467 22.645439
v -20.187494 7.489018 22.153431
v -20.668695 6.349981 21.766135
v -21.008164 5.104265 21.492912
v -21.240795 3.736056 21.305679
v -21.366588 2.279124 21.204434
v -21.385544 0.770373 21.189178
v -21.288614 -0.79844 21.267192
v -21.078815 -2.375304 21.436049
v -20.774241 -3.834714 21.681186
v -20.392984 -5.056495 21.988041
v -19.897997 -5.961474 22.386432
v -19.293587 -6.59777 22.872893
v -18.659883 -7.136969 23.382931
v -18.077013 -7.731075 23.852055
v -17.535069 -8.371305 24.28824
v -17.001741 -9.022516 24.71749
v -16.523555 -9.730832 25.102359
v -16.147037 -10.542375 25.4054
v -15.899328 -11.596613 25.604769
v -15.750703 -12.826557 25.72439
v -15.662389 -13.968647 25.79547
v -15.595615 -14.759326 25.849213
v -18.039325 -2.566302 33.632819
v -17.977691 -1.600157 33.687681
v -17.879596 -0.065835 33.774996
v -17.833588 1.715046 33.815949
v -17.92821 3.411406 33.731725
v -18.19645 4.963151 33.49296
v -18.587958 6.475986 33.144472
v -19.066276 7.85882 32.718713
v -19.594944 9.01932 32.248138
v -20.196531 9.898003 31.712656
v -20.879718 10.482772 31.10454
v -21.587212 10.757924 30.474789
v -22.261718 10.715813 29.8744
v -22.928846 10.297579 29.280579
v -23.605523 9.505177 28.678258
v -24.221433 8.437176 28.130026
v -24.706262 7.202503 27.698473
v -25.048289 5.842158 27.394028
v -25.282674 4.343198 27.185399
v -25.409415 2.745038 27.072585
v -25.428513 1.090751 27.055585
v -25.330853 -0.623571 27.142514
v -25.119473 -2.339123 27.330667
v -24.812603 -3.920853 27.603817
v -24.428473 -5.239925 27.945737
v -23.929755 -6.211144 28.389654
v -23.320789 -6.883187 28.931704
v -22.682308 -7.445711 29.500026
v -22.095045 -8.065519 30.022758
v -21.549016 -8.733445 30.508787
v -21.011668 -9.412827 30.98709
v -20.529877 -10.151785 31.415939
v -20.150522 -10.998435 31.753609
v -19.900946 -12.098279 31.975761
v -19.7512 -13.381429 32.109052
v -19.662221 -14.572927 32.188254
v -19.594944 -15.397809 32.248138
vt 0.80066539 1.03175826
vt 0.80066539 1.02971235
vt 0.80066539 1.02650219
vt 0.80066539 1.02282528
vt 0.80066539 1.0193644
vt 0.80066539 1.01616504
vt 0.80066539 1.01296326
vt 0.80066539 1.00992638
vt 0.80066539 1.0072249
vt 0.80066539 1.00484316
vt 0.80066539 1.00263527
vt 0.80066539 1.0005862
vt 0.80066539 0.99867348
vt 0.80066539 0.99657613
vt 0.80066539 0.99404192
vt 0.80066539 0.99123882
vt 0.80066539 0.988385
vt 0.80066539 0.98548916
vt 0.80066539 0.9824225
vt 0.80066539 0.9792156
vt 0.80066539 0.97591435
vt 0.80066539 0.9724662
vt 0.80066539 0.96895401
vt 0.80066539 0.96563066
vt 0.80066539 0.96272993
vt 0.80066539 0.96028576
vt 0.80066539 0.95805959
vt 0.80066539 0.95589158
vt 0.80066539 0.95376798
vt 0.80066539 0.95166544
vt 0.80066539 0.94956392
vt 0.80066539 0.94747784
vt 0.80066539 0.94537307
vt 0.80066539 0.94291628
vt 0.80066539 0.94013814
vt 0.80066539 0.93757615
vt 0.80066539 0.93580082
vt 0.81540599 1.02653216
vt 0.81540599 1.02461119
vt 0.81540599 1.02161911
vt 0.81540599 1.01821376
vt 0.81540599 1.01503675
vt 0.81540599 1.01212238
vt 0.81540599 1.00921221
vt 0.81540599 1.00645568
vt 0.81540599 1.00400462
vt 0.81540599 1.00183045
vt 0.81540599 0.99978642
vt 0.81540599 0.99786163
vt 0.81540599 0.99604596
vt 0.81540599 0.99405368
vt 0.81540599 0.99166574
vt 0.81540599 0.98904978
vt 0.81540599 0.98641512
vt 0.81540599 0.98376825
vt 0.81540599 0.98098068
vt 0.81540599 0.97807343
vt 0.81540599 0.97508111
vt 0.81540599 0.97194494
vt 0.81540599 0.9687349
vt 0.81540599 0.96568318
vt 0.81540599 0.96300511
vt 0.81540599 0.96072764
vt 0.81540599 0.95862859
vt 0.81540599 0.95657598
vt 0.81540599 0.95456541
vt 0.81540599 0.95257477
vt 0.81540599 0.95058511
vt 0.81540599 0.94861007
vt 0.81540599 0.94661732
vt 0.81540599 0.94429129
vt 0.81540599 0.94166102
vt 0.81540599 0.93923539
vt 0.81540599 0.93755455
vt 0.83014658 1.02241803
vt 0.83014658 1.02060006
vt 0.83014658 1.01778484
vt 0.83014658 1.01459715
vt 0.83014658 1.01164457
vt 0.83014658 1.00895314
vt 0.83014658 1.00627022
vt 0.83014658 1.00373138
vt 0.83014658 1.00147402
vt 0.83014658 0.9994605
vt 0.83014658 0.99754522
vt 0.83014658 0.99572114
vt 0.83014658 0.99398731
vt 0.83014658 0.99208462
vt 0.83014658 0.98981833
vt 0.83014658 0.98735429
vt 0.83014658 0.98489402
vt 0.83014658 0.98244258
vt 0.83014658 0.97987282
vt 0.83014658 0.97719886
vt 0.83014658 0.97444706
vt 0.83014658 0.97155468
vt 0.83014658 0.96858208
vt 0.83014658 0.96574508
vt 0.83014658 0.96324436
vt 0.83014658 0.96110181
vt 0.83014658 0.95910868
vt 0.83014658 0.95715343
vt 0.83014658 0.95523823
vt 0.83014658 0.95334202
vt 0.83014658 0.95144673
vt 0.83014658 0.94956538
vt 0.83014658 0.94766715
vt 0.83014658 0.94545146
vt 0.83014658 0.94294595
vt 0.83014658 0.94063538
vt 0.83014658 0.93903427
vt 0.84488718 1.01942876
vt 0.84488718 1.01769014
vt 0.84488718 1.01500836
vt 0.84488718 1.01198234
vt 0.84488718 1.0091934
vt 0.84488718 1.00666218
vt 0.84488718 1.00414188
vt 0.84488718 1.0017583
vt 0.84488718 0.99963874
vt 0.84488718 0.99774028
vt 0.84488718 0.99591968
vt 0.84488718 0.99417275
vt 0.84488718 0.99250428
vt 0.84488718 0.99067354
vt 0.84488718 0.98850205
vt 0.84488718 0.98615294
vt 0.84488718 0.98382118
vt 0.84488718 0.98151098
vt 0.84488718 0.97909721
vt 0.84488718 0.97658967
vt 0.84488718 0.97400944
vt 0.84488718 0.9712919
vt 0.84488718 0.96849099
vt 0.84488718 0.96581057
vt 0.84488718 0.96344061
vt 0.84488718 0.96139971
vt 0.84488718 0.95948931
vt 0.84488718 0.95761125
vt 0.84488718 0.95577166
vt 0.84488718 0.95395031
vt 0.84488718 0.95212985
vt 0.84488718 0.95032276
vt 0.84488718 0.94849948
vt 0.84488718 0.94637126
vt 0.84488718 0.94396466
vt 0.84488718 0.94174531
vt 0.84488718 0.94020741
vt 0.85962777 1.01755914
vt 0.85962777 1.01587504
vt 0.85962777 1.01328196
vt 0.85962777 1.01036066
vt 0.85962777 1.00767433
vt 0.85962777 1.0052411
vt 0.85962777 1.00281961
vt 0.85962777 1.00053003
vt 0.85962777 0.99849385
vt 0.85962777 0.99666647
vt 0.85962777 0.99490747
vt 0.85962777 0.99321403
vt 0.85962777 0.9915933
vt 0.85962777 0.98981512
vt 0.85962777 0.98770992
vt 0.85962777 0.98543766
vt 0.85962777 0.98318818
vt 0.85962777 0.98096531
vt 0.85962777 0.97864632
vt 0.85962777 0.97623909
vt 0.85962777 0.97376221
vt 0.85962777 0.97115107
vt 0.85962777 0.96845627
vt 0.85962777 0.96587416
vt 0.85962777 0.96358791
vt 0.85962777 0.96161453
vt 0.85962777 0.95976217
vt 0.85962777 0.95793945
vt 0.85962777 0.95615406
vt 0.85962777 0.95438637
vt 0.85962777 0.95261955
vt 0.85962777 0.95086571
vt 0.85962777 0.94909615
vt 0.85962777 0.94703063
vt 0.85962777 0.94469495
vt 0.85962777 0.94254099
vt 0.85962777 0.9410484
vt 0.87436837 1.01679839
vt 0.87436837 1.01514322
vt 0.87436837 1.0125934
vt 0.87436837 1.00971956
vt 0.87436837 1.00707517
vt 0.87436837 1.00467858
vt 0.87436837 1.00229319
vt 0.87436837 1.00003762
vt 0.87436837 0.99803174
vt 0.87436837 0.99623256
vt 0.87436837 0.99450255
vt 0.87436837 0.99283857
vt 0.87436837 0.99124695
vt 0.87436837 0.98950066
vt 0.87436837 0.98743212
vt 0.87436837 0.98519801
vt 0.87436837 0.98298463
vt 0.87436837 0.98079582
vt 0.87436837 0.97851138
vt 0.87436837 0.97613948
vt 0.87436837 0.97369893
vt 0.87436837 0.97112677
vt 0.87436837 0.96847319
vt 0.87436837 0.96593148
vt 0.87436837 0.9636819
vt 0.87436837 0.96174144
vt 0.87436837 0.95992142
vt 0.87436837 0.95813099
vt 0.87436837 0.95637724
vt 0.87436837 0.95464087
vt 0.87436837 0.95290535
vt 0.87436837 0.95118259
vt 0.87436837 0.94944438
vt 0.87436837 0.94741547
vt 0.87436837 0.94512116
vt 0.87436837 0.94300537
vt 0.87436837 0.94153923
vt 0.88910896 1.01713792
vt 0.88910896 1.01548571
vt 0.88910896 1.01293349
vt 0.88910896 1.01004991
vt 0.88910896 1.0073873
vt 0.88910896 1.0049668
vt 0.88910896 1.0025557
vt 0.88910896 1.00027492
vt 0.88910896 0.9982469
vt 0.88910896 0.9964333
vt 0.88910896 0.99469938
vt 0.88910896 0.99304023
vt 0.88910896 0.99145837
vt 0.88910896 0.98972255
vt 0.88910896 0.98766044
vt 0.88910896 0.98542549
vt 0.88910896 0.98320218
vt 0.88910896 0.98099471
vt 0.88910896 0.97868543
vt 0.88910896 0.97628496
vt 0.88910896 0.97381479
vt 0.88910896 0.97121514
vt 0.88910896 0.96853863
vt 0.88910896 0.96597986
vt 0.88910896 0.96372007
vt 0.88910896 0.96177774
vt 0.88910896 0.9599638
vt 0.88910896 0.95818197
vt 0.88910896 0.95643663
vt 0.88910896 0.9547086
vt 0.88910896 0.95298141
vt 0.88910896 0.95126692
vt 0.88910896 0.94953705
vt 0.88910896 0.94751788
vt 0.88910896 0.94523459
vt 0.88910896 0.94312895
vt 0.88910896 0.94166985
vt 0.90384956 1.01857344
vt 0.90384956 1.01689823
vt 0.90384956 1.01429809
vt 0.90384956 1.01134792
vt 0.90384956 1.00860745
vt 0.90384956 1.00610303
vt 0.90384956 1.00360483
vt 0.90384956 1.00123992
vt 0.90384956 0.99913723
vt 0.90384956 0.99726596
vt 0.90384956 0.99549434
vt 0.90384956 0.9938146
vt 0.90384956 0.99222267
vt 0.90384956 0.99047571
vt 0.90384956 0.98838973
vt 0.90384956 0.98611496
vt 0.90384956 0.98383583
vt 0.90384956 0.98155738
vt 0.90384956 0.97916447
vt 0.90384956 0.97667221
vt 0.90384956 0.97410725
vt 0.90384956 0.97141438
vt 0.90384956 0.96865136
vt 0.90384956 0.9660185
vt 0.90384956 0.96370185
vt 0.90384956 0.96172289
vt 0.90384956 0.95988872
vt 0.90384956 0.95809166
vt 0.90384956 0.95633141
vt 0.90384956 0.95458861
vt 0.90384956 0.95284666
vt 0.90384956 0.95111751
vt 0.90384956 0.94937287
vt 0.90384956 0.94733643
vt 0.90384956 0.94503363
vt 0.90384956 0.94291
vt 0.90384956 0.94143843
vt 0.91859016 1.02110119
vt 0.91859016 1.01937743
vt 0.91859016 1.01668447
vt 0.91859016 1.01361156
vt 0.91859016 1.01073424
vt 0.91859016 1.00808639
vt 0.91859016 1.00544
vt 0.91859016 1.00293197
vt 0.91859016 1.00070159
vt 0.91859016 0.99872831
vt 0.91859016 0.99688393
vt 0.91859016 0.99515735
vt 0.91859016 0.99353541
vt 0.91859016 0.99175606
vt 0.91859016 0.98961638
vt 0.91859016 0.98726318
vt 0.91859016 0.98488268
vt 0.91859016 0.98248127
vt 0.91859016 0.9799464
vt 0.91859016 0.97729973
vt 0.91859016 0.97457544
vt 0.91859016 0.97172423
vt 0.91859016 0.96881176
vt 0.91859016 0.9660483
vt 0.91859016 0.96362858
vt 0.91859016 0.96157858
vt 0.91859016 0.95969825
vt 0.91859016 0.95786256
vt 0.91859016 0.95606447
vt 0.91859016 0.95428421
vt 0.91859016 0.95250482
vt 0.91859016 0.95073851
vt 0.91859016 0.94895636
vt 0.91859016 0.94687616
vt 0.91859016 0.94452386
vt 0.91859016 0.94235458
vt 0.91859016 0.94085137
vt 0.93333075 1.02470923
vt 0.93333075 1.02291218
vt 0.93333075 1.02008277
vt 0.93333075 1.01683233
vt 0.93333075 1.01376036
vt 0.93333075 1.01091046
vt 0.93333075 1.00805542
vt 0.93333075 1.00534557
vt 0.93333075 1.00293424
vt 0.93333075 1.00081371
vt 0.93333075 0.99886036
vt 0.93333075 0.99706002
vt 0.93333075 0.99538834
vt 0.93333075 0.99355626
vt 0.93333075 0.99133406
vt 0.93333075 0.98886477
vt 0.93333075 0.98633808
vt 0.93333075 0.98376246
vt 0.93333075 0.98102814
vt 0.93333075 0.97816539
vt 0.93333075 0.97521824
vt 0.93333075 0.97214466
vt 0.93333075 0.96902088
vt 0.93333075 0.96607135
vt 0.93333075 0.96350325
vt 0.93333075 0.96134859
vt 0.93333075 0.9593971
vt 0.93333075 0.95750034
vt 0.93333075 0.95564243
vt 0.93333075 0.95380294
vt 0.93333075 0.95196435
vt 0.93333075 0.95013927
vt 0.93333075 0.94829783
vt 0.93333075 0.94614842
vt 0.93333075 0.94371786
vt 0.93333075 0.94147641
vt 0.93333075 0.93992319
vt 0.94807135 1.02936515
vt 0.94807135 1.02747148
vt 0.94807135 1.02446411
vt 0.94807135 1.0209838
vt 0.94807135 1.01766163
vt 0.94807135 1.01455301
vt 0.94807135 1.01143067
vt 0.94807135 1.00846171
vt 0.94807135 1.005817
vt 0.94807135 1.00350402
vt 0.94807135 1.00140506
vt 0.94807135 0.99950385
vt 0.94807135 0.99776326
vt 0.94807135 0.99585948
vt 0.94807135 0.99352761
vt 0.94807135 0.99090623
vt 0.94807135 0.98819017
vt 0.94807135 0.98539079
vt 0.94807135 0.98240145
vt 0.94807135 0.97926299
vt 0.94807135 0.97603159
vt 0.94807135 0.97267385
vt 0.94807135 0.96927915
vt 0.94807135 0.96609018
vt 0.94807135 0.96333014
vt 0.94807135 0.96103867
vt 0.94807135 0.95899249
vt 0.94807135 0.95701368
vt 0.94807135 0.9550754
vt 0.94807135 0.95315633
vt 0.94807135 0.95123821
vt 0.94807135 0.94933418
vt 0.94807135 0.94741308
vt 0.94807135 0.94517068
vt 0.94807135 0.94263498
vt 0.94807135 0.94029656
vt 0.94807135 0.93867615
vn 0.969227 -0.085078 0.231
vn 0.969165 -0.085823 0.230986
vn 0.971053 -0.05911 0.231436
vn 0.972573 0.019265 0.231798
vn 0.961094 0.154366 0.229062
vn 0.930495 0.291542 0.221769
vn 0.893931 0.394329 0.213055
vn 0.844363 0.496542 0.201241
vn 0.754361 0.63136 0.17979
vn 0.586576 0.797737 0.139801
vn 0.352688 0.931958 0.084058
vn 0.069973 0.997409 0.016677
vn -0.269977 0.960714 -0.064345
vn -0.547766 0.826383 -0.130552
vn -0.706984 0.686864 -0.168499
vn -0.811453 0.551489 -0.193397
vn -0.888349 0.407442 -0.211724
vn -0.935657 0.273527 -0.223
vn -0.959778 0.162791 -0.228748
vn -0.970799 0.063357 -0.231375
vn -0.972227 -0.03291 -0.231715
vn -0.96506 -0.12552 -0.230007
vn -0.950145 -0.214347 -0.226452
vn -0.923525 -0.314091 -0.220108
vn -0.858837 -0.469574 -0.204691
vn -0.716931 -0.67588 -0.17087
vn -0.580118 -0.802712 -0.138262
vn -0.573997 -0.807349 -0.136803
vn -0.634686 -0.757821 -0.151268
vn -0.667116 -0.727789 -0.158997
vn -0.705843 -0.688102 -0.168227
vn -0.790635 -0.582571 -0.188436
vn -0.894795 -0.392252 -0.213261
vn -0.949804 -0.215936 -0.226371
vn -0.964965 -0.126295 -0.229984
vn -0.967706 -0.101742 -0.230638
vn -0.972754 0 -0.231841
vn 0.957464 -0.085789 0.275506
vn 0.957369 -0.086928 0.275479
vn 0.959261 -0.060247 0.276023
vn 0.960819 0.01978 0.276472
vn 0.94865 0.159846 0.27297
vn 0.915707 0.303401 0.263491
vn 0.876047 0.411094 0.252079
vn 0.821936 0.518155 0.236509
vn 0.724261 0.657278 0.208403
vn 0.547284 0.821998 0.157479
vn 0.311189 0.94612 0.089543
vn 0.037805 0.999226 0.010878
vn -0.28111 0.956261 -0.080888
vn -0.540763 0.826658 -0.155602
vn -0.692414 0.693445 -0.199239
vn -0.79457 0.56248 -0.228634
vn -0.87215 0.419969 -0.250958
vn -0.92139 0.284163 -0.265126
vn -0.94705 0.169809 -0.27251
vn -0.9589 0.066179 -0.275919
vn -0.96044 -0.034319 -0.276363
vn -0.952808 -0.130348 -0.274166
vn -0.937126 -0.221545 -0.269654
vn -0.909481 -0.323045 -0.261699
vn -0.8433 -0.479544 -0.242656
vn -0.702313 -0.682581 -0.202088
vn -0.571072 -0.804285 -0.164324
vn -0.567065 -0.807349 -0.163171
vn -0.627021 -0.757821 -0.180423
vn -0.659059 -0.727789 -0.189642
vn -0.69732 -0.688102 -0.200651
vn -0.781087 -0.582571 -0.224755
vn -0.883989 -0.392252 -0.254364
vn -0.938334 -0.215936 -0.270002
vn -0.953311 -0.126295 -0.274311
vn -0.95602 -0.101742 -0.275091
vn -0.961007 0 -0.276526
vn 0.943269 -0.086349 0.320605
vn 0.943148 -0.087806 0.320564
vn 0.945033 -0.061162 0.321204
vn 0.946612 0.0202 0.321741
vn 0.933927 0.164375 0.317429
vn 0.899149 0.313265 0.305609
vn 0.857031 0.425026 0.291293
vn 0.799292 0.53603 0.271669
vn 0.69567 0.678333 0.236449
vn 0.512525 0.840817 0.1742
vn 0.27697 0.956256 0.094139
vn 0.013185 0.999903 0.004481
vn -0.287834 0.95267 -0.097831
vn -0.532476 0.826871 -0.180981
vn -0.677447 0.698605 -0.230255
vn -0.777113 0.571253 -0.26413
vn -0.85472 0.430185 -0.290508
vn -0.905256 0.292987 -0.307684
vn -0.932079 0.175687 -0.316801
vn -0.944578 0.068551 -0.32105
vn -0.946209 -0.035499 -0.321604
vn -0.93822 -0.134361 -0.318889
vn -0.921985 -0.227471 -0.31337
vn -0.893654 -0.33034 -0.303741
vn -0.826656 -0.487541 -0.280969
vn -0.687252 -0.687838 -0.233588
vn -0.561064 -0.805507 -0.190698
vn -0.558685 -0.807349 -0.18989
vn -0.617755 -0.757821 -0.209967
vn -0.64932 -0.727789 -0.220695
vn -0.687015 -0.688102 -0.233507
vn -0.769545 -0.582571 -0.261558
vn -0.870926 -0.392252 -0.296016
vn -0.924468 -0.215936 -0.314214
vn -0.939224 -0.126295 -0.31923
vn -0.941892 -0.101742 -0.320137
vn -0.946805 0 -0.321807
vn 0.926571 -0.086726 0.365986
vn 0.926434 -0.0884 0.365932
vn 0.928298 -0.061785 0.366668
vn 0.92988 0.020489 0.367293
vn 0.916931 0.167528 0.362178
vn 0.881118 0.320162 0.348033
vn 0.837577 0.434758 0.330834
vn 0.777706 0.548461 0.307186
vn 0.670742 0.692758 0.264936
vn 0.485058 0.853236 0.191593
vn 0.252237 0.962523 0.099631
vn -0.002773 0.999996 -0.001095
vn -0.289782 0.950224 -0.114461
vn -0.522873 0.827013 -0.206529
vn -0.662326 0.702056 -0.261612
vn -0.759502 0.577199 -0.299996
vn -0.836467 0.437221 -0.330396
vn -0.887484 0.299146 -0.350547
vn -0.914914 0.179819 -0.361382
vn -0.927779 0.070224 -0.366463
vn -0.929461 -0.03633 -0.367127
vn -0.921284 -0.137165 -0.363898
vn -0.904791 -0.231583 -0.357383
vn -0.876214 -0.335361 -0.346095
vn -0.809203 -0.492981 -0.319627
vn -0.671991 -0.691357 -0.26543
vn -0.550121 -0.806319 -0.217292
vn -0.548813 -0.807349 -0.216775
vn -0.606839 -0.757821 -0.239695
vn -0.637846 -0.727789 -0.251943
vn -0.674875 -0.688102 -0.266569
vn -0.755946 -0.582571 -0.298591
vn -0.855536 -0.392252 -0.337928
vn -0.908132 -0.215936 -0.358703
vn -0.922628 -0.126295 -0.364428
vn -0.925249 -0.101742 -0.365464
vn -0.930075 0 -0.36737
vn 0.907343 -0.086895 0.411312
vn 0.907201 -0.088668 0.411247
vn 0.909032 -0.062068 0.412078
vn 0.910595 0.020621 0.412786
vn 0.897691 0.168977 0.406936
vn 0.861863 0.323341 0.390695
vn 0.818225 0.43924 0.370913
vn 0.758143 0.554171 0.343677
vn 0.65104 0.69932 0.295126
vn 0.466675 0.858755 0.21155
vn 0.238194 0.965197 0.107977
vn -0.009605 0.999944 -0.004354
vn -0.286837 0.949114 -0.130028
vn -0.511945 0.827076 -0.232072
vn -0.647197 0.703606 -0.293384
vn -0.742015 0.579889 -0.336366
vn -0.817692 0.440435 -0.370671
vn -0.868267 0.301982 -0.393598
vn -0.895622 0.181731 -0.405999
vn -0.90849 0.070999 -0.411832
vn -0.910174 -0.036714 -0.412595
vn -0.902016 -0.138458 -0.408897
vn -0.885618 -0.233469 -0.401463
vn -0.857298 -0.337654 -0.388626
vn -0.791145 -0.495448 -0.358638
vn -0.656676 -0.692938 -0.297681
vn -0.538262 -0.806683 -0.244002
vn -0.537432 -0.807349 -0.243626
vn -0.594256 -0.757821 -0.269385
vn -0.62462 -0.727789 -0.283149
vn -0.660881 -0.688102 -0.299587
vn -0.740271 -0.582571 -0.335575
vn -0.837796 -0.392252 -0.379785
vn -0.889301 -0.215936 -0.403133
vn -0.903495 -0.126295 -0.409568
vn -0.906062 -0.101742 -0.410731
vn -0.910788 0 -0.412874
vn 0.885615 -0.086847 0.456227
vn 0.885479 -0.088592 0.456157
vn 0.887265 -0.061988 0.457077
vn 0.888786 0.020584 0.45786
vn 0.876253 0.168566 0.451404
vn 0.841494 0.32244 0.433498
vn 0.799179 0.437969 0.411699
vn 0.74094 0.552553 0.381697
vn 0.637056 0.697464 0.328181
vn 0.457803 0.857203 0.235838
vn 0.234919 0.964452 0.121019
vn -0.007481 0.999965 -0.003854
vn -0.279126 0.949427 -0.143792
vn -0.499707 0.827058 -0.257425
vn -0.632081 0.703169 -0.325618
vn -0.724723 0.579129 -0.373343
vn -0.798503 0.439526 -0.411351
vn -0.847697 0.301178 -0.436693
vn -0.87426 0.181188 -0.450377
vn -0.886745 0.070779 -0.456809
vn -0.888378 -0.036605 -0.45765
vn -0.880457 -0.138092 -0.45357
vn -0.864521 -0.232935 -0.44536
vn -0.836972 -0.337005 -0.431168
vn -0.77255 -0.49475 -0.397981
vn -0.641329 -0.692492 -0.330382
vn -0.525495 -0.80658 -0.27071
vn -0.524561 -0.807349 -0.270229
vn -0.580023 -0.757821 -0.2988
vn -0.60966 -0.727789 -0.314068
vn -0.645052 -0.688102 -0.3323
vn -0.722541 -0.582571 -0.372218
vn -0.81773 -0.392252 -0.421255
vn -0.868001 -0.215936 -0.447153
vn -0.881856 -0.126295 -0.45429
vn -0.884361 -0.101742 -0.455581
vn -0.888974 0 -0.457957
vn 0.861472 -0.086586 0.500369
vn 0.861351 -0.088179 0.500299
vn 0.86308 -0.061552 0.501303
vn 0.86454 0.020381 0.502151
vn 0.852672 0.166344 0.495258
vn 0.819957 0.317571 0.476256
vn 0.780239 0.431102 0.453187
vn 0.725687 0.543798 0.421501
vn 0.628053 0.687368 0.364793
vn 0.45741 0.848641 0.265678
vn 0.241396 0.960244 0.14021
vn 0.002845 0.999995 0.001652
vn -0.266999 0.951137 -0.155081
vn -0.486198 0.82696 -0.282398
vn -0.616876 0.700774 -0.358301
vn -0.707483 0.574983 -0.410928
vn -0.778792 0.434588 -0.452346
vn -0.825746 0.296833 -0.479618
vn -0.850869 0.178264 -0.494211
vn -0.862623 0.069594 -0.501038
vn -0.864158 -0.036017 -0.50193
vn -0.856672 -0.136112 -0.497581
vn -0.841528 -0.230041 -0.488785
vn -0.81522 -0.333482 -0.473505
vn -0.753332 -0.490951 -0.437559
vn -0.625851 -0.69005 -0.363513
vn -0.51182 -0.806018 -0.297281
vn -0.510248 -0.807349 -0.296368
vn -0.564197 -0.757821 -0.327703
vn -0.593025 -0.727789 -0.344447
vn -0.627452 -0.688102 -0.364443
vn -0.702827 -0.582571 -0.408223
vn -0.795419 -0.392252 -0.462004
vn -0.844318 -0.215936 -0.490406
vn -0.857795 -0.126295 -0.498234
vn -0.860232 -0.101742 -0.499649
vn -0.864719 0 -0.502255
vn 0.835054 -0.086127 0.543385
vn 0.834957 -0.087457 0.543322
vn 0.836618 -0.060797 0.544403
vn 0.838 0.020032 0.545302
vn 0.82702 0.162556 0.538157
vn 0.797069 0.309296 0.518668
vn 0.760882 0.419422 0.49512
vn 0.711366 0.528851 0.462899
vn 0.622284 0.66992 0.404932
vn 0.463237 0.833395 0.301437
vn 0.25565 0.952349 0.166356
vn 0.020092 0.999713 0.013074
vn -0.251016 0.954102 -0.163341
vn -0.471483 0.826787 -0.306802
vn -0.601383 0.696562 -0.391331
vn -0.689974 0.567763 -0.448979
vn -0.758272 0.426097 -0.493422
vn -0.802292 0.289439 -0.522066
vn -0.825484 0.173318 -0.537157
vn -0.836251 0.067594 -0.544164
vn -0.837654 -0.035023 -0.545077
vn -0.830751 -0.132746 -0.540585
vn -0.816659 -0.225093 -0.531415
vn -0.791967 -0.327421 -0.515348
vn -0.73329 -0.484354 -0.477165
vn -0.610046 -0.685756 -0.396968
vn -0.497237 -0.805024 -0.323561
vn -0.494581 -0.807349 -0.321833
vn -0.546874 -0.757821 -0.355861
vn -0.574817 -0.727789 -0.374044
vn -0.608187 -0.688102 -0.395758
vn -0.681247 -0.582571 -0.4433
vn -0.770996 -0.392252 -0.501701
vn -0.818394 -0.215936 -0.532544
vn -0.831457 -0.126295 -0.541044
vn -0.833819 -0.101742 -0.542581
vn -0.838168 0 -0.545412
vn 0.806556 -0.0855 0.584942
vn 0.806488 -0.086477 0.584892
vn 0.808073 -0.059782 0.586042
vn 0.809366 0.019568 0.586979
vn 0.799406 0.157583 0.579756
vn 0.772616 0.298494 0.560327
vn 0.74046 0.404158 0.537006
vn 0.6967 0.509226 0.50527
vn 0.617506 0.646629 0.447836
vn 0.472286 0.812174 0.342518
vn 0.274999 0.940532 0.199438
vn 0.042539 0.998618 0.030851
vn -0.231913 0.958086 -0.168191
vn -0.455653 0.826547 -0.330455
vn -0.585341 0.690774 -0.424509
vn -0.671777 0.557993 -0.487196
vn -0.736586 0.414818 -0.534197
vn -0.777195 0.279765 -0.563648
vn -0.798166 0.166899 -0.578857
vn -0.807808 0.065007 -0.58585
vn -0.80906 -0.033735 -0.586757
vn -0.802825 -0.128351 -0.582236
vn -0.789946 -0.218577 -0.572896
vn -0.767127 -0.319365 -0.556347
vn -0.712163 -0.475467 -0.516484
vn -0.593655 -0.67986 -0.430539
vn -0.481749 -0.803649 -0.349381
vn -0.477677 -0.807349 -0.346427
vn -0.528182 -0.757821 -0.383055
vn -0.55517 -0.727789 -0.402628
vn -0.587399 -0.688102 -0.426002
vn -0.657962 -0.582571 -0.477176
vn -0.744644 -0.392252 -0.540041
vn -0.790422 -0.215936 -0.573241
vn -0.803038 -0.126295 -0.582391
vn -0.80532 -0.101742 -0.584045
vn -0.809521 0 -0.587092
vn 0.776219 -0.084741 0.624742
vn 0.776182 -0.085303 0.624712
vn 0.777684 -0.05858 0.62592
vn 0.778881 0.019027 0.626884
vn 0.769985 0.151872 0.619724
vn 0.746441 0.286173 0.600775
vn 0.718406 0.386736 0.578211
vn 0.68052 0.486721 0.547718
vn 0.611573 0.619429 0.492226
vn 0.481441 0.786173 0.387489
vn 0.296407 0.924786 0.238564
vn 0.068134 0.996168 0.054838
vn -0.210567 0.962777 -0.169475
vn -0.438824 0.826252 -0.353188
vn -0.568474 0.683738 -0.457537
vn -0.652477 0.546346 -0.525147
vn -0.713413 0.40168 -0.574191
vn -0.750372 0.268701 -0.603938
vn -0.769032 0.15963 -0.618957
vn -0.777519 0.062089 -0.625787
vn -0.778616 -0.032276 -0.62667
vn -0.773074 -0.123332 -0.62221
vn -0.761473 -0.21106 -0.612873
vn -0.740652 -0.309968 -0.596115
vn -0.689706 -0.464927 -0.555111
vn -0.576411 -0.672699 -0.463926
vn -0.46537 -0.80196 -0.374554
vn -0.45968 -0.807349 -0.369975
vn -0.508283 -0.757821 -0.409092
vn -0.534254 -0.727789 -0.429995
vn -0.565269 -0.688102 -0.454958
vn -0.633173 -0.582571 -0.509611
vn -0.716589 -0.392252 -0.576748
vn -0.760643 -0.215936 -0.612205
vn -0.772784 -0.126295 -0.621976
vn -0.774979 -0.101742 -0.623743
vn -0.779022 0 -0.626997
vn 0.744321 -0.083896 0.662532
vn 0.744314 -0.084008 0.662525
vn 0.745728 -0.057272 0.663784
vn 0.746827 0.018448 0.664763
vn 0.738966 0.14586 0.657765
vn 0.718516 0.273303 0.639562
vn 0.694378 0.368537 0.618077
vn 0.662022 0.463119 0.589277
vn 0.602874 0.590401 0.536628
vn 0.488048 0.757027 0.434419
vn 0.31691 0.905536 0.282086
vn 0.094669 0.991936 0.084266
vn -0.187951 0.967825 -0.167298
vn -0.421127 0.825917 -0.374852
vn -0.550542 0.67584 -0.490046
vn -0.631741 0.53357 -0.562322
vn -0.688551 0.387638 -0.61289
vn -0.721843 0.257108 -0.642524
vn -0.738264 0.152094 -0.657141
vn -0.74565 0.059074 -0.663715
vn -0.7466 -0.030765 -0.664561
vn -0.741728 -0.118082 -0.660224
vn -0.731385 -0.203109 -0.651017
vn -0.71257 -0.299908 -0.63427
vn -0.665754 -0.45343 -0.592598
vn -0.558078 -0.664668 -0.496754
vn -0.448131 -0.800042 -0.398888
vn -0.440758 -0.807349 -0.392326
vn -0.48736 -0.757821 -0.433807
vn -0.512262 -0.727789 -0.455972
vn -0.542 -0.688102 -0.482443
vn -0.607109 -0.582571 -0.540398
vn -0.687091 -0.392252 -0.611591
vn -0.729332 -0.215936 -0.64919
vn -0.740973 -0.126295 -0.659552
vn -0.743078 -0.101742 -0.661426
vn -0.746954 0 -0.664876
f 1/1/1 38/38/38 39/39/39
f 1/1/1 39/39/39 2/2/2
f 2/2/2 39/39/39 40/40/40
f 2/2/2 40/40/40 3/3/3
f 3/3/3 40/40/40 41/41/41
f 3/3/3 41/41/41 4/4/4
f 4/4/4 41/41/41 42/42/42
f 4/4/4 42/42/42 5/5/5
f 5/5/5 42/42/42 43/43/43
f 5/5/5 43/43/43 6/6/6
f 6/6/6 43/43/43 44/44/44
f 6/6/6 44/44/44 7/7/7
f 7/7/7 44/44/44 45/45/45
f 7/7/7 45/45/45 8/8/8
f 8/8/8 45/45/45 46/46/46
f 8/8/8 46/46/46 9/9/9
f 9/9/9 46/46/46 47/47/47
f 9/9/9 47/47/47 10/10/10
f 10/10/10 47/47/47 48/48/48
f 10/10/10 48/48/48 11/11/11
f 11/11/11 48/48/48 49/49/49
f 11/11/11 49/49/49 12/12/12
f 12/12/12 49/49/49 50/50/50
f 12/12/12 50/50/50 13/13/13
f 13/13/13 50/50/50 51/51/51
f 13/13/13 51/51/51 14/14/14
f 14/14/14 51/51/51 52/52/52
f 14/14/14 52/52/52 15/15/15
f 15/15/15 52/52/52 53/53/53
f 15/15/15 53/53/53 16/16/16
f 16/16/16 53/53/53 54/54/54
f 16/16/16 54/54/54 17/17/17
f 17/17/17 54/54/54 55/55/55
f 17/17/17 55/55/55 18/18/18
f 18/18/18 55/55/55 56/56/56
f 18/18/18 56/56/56 19/19/19
f 19/19/19 56/56/56 57/57/57
f 19/19/19 57/57/57 20/20/20
f 20/20/20 57/57/57 58/58/58
f 20/20/20 58/58/58 21/21/21
f 21/21/21 58/58/58 59/59/59
f 21/21/21 59/59/59 22/22/22
f 22/22/22 59/59/59 60/60/60
f 22/22/22 60/60/60 23/23/23
f 23/23/23 60/60/60 61/61/61
f 23/23/23 61/61/61 24/24/24
f 24/24/24 61/61/61 62/62/62
f 24/24/24 62/62/62 25/25/25
f 25/25/25 62/62/62 63/63/63
f 25/25/25 63/63/63 26/26/26
f 26/26/26 63/63/63 64/64/64
f 26/26/26 64/64/64 27/27/27
f 27/27/27 64/64/64 65/65/65
f 27/27/27 65/65/65 28/28/28
f 28/28/28 65/65/65 66/66/66
f 28/28/28 66/66/66 29/29/29
f 29/29/29 66/66/66 67/67/67
f 29/29/29 67/67/67 30/30/30
f 30/30/30 67/67/67 68/68/68
f 30/30/30 68/68/68 31/31/31
f 31/31/31 68/68/68 69/69/69
f 31/31/31 69/69/69 32/32/32
f 32/32/32 69/69/69 70/70/70
f 32/32/32 70/70/70 33/33/33
f 33/33/33 70/70/70 71/71/71
f 33/33/33 71/71/71 34/34/34
f 34/34/34 71/71/71 72/72/72
f 34/34/34 72/72/72 35/35/35
f 35/35/35 72/72/72 73/73/73
f 35/35/35 73/73/73 36/36/36
f 36/36/36 73/73/73 74/74/74
f 36/36/36 74/74/74 37/37/37
f 38/38/38 75/75/75 76/76/76
f 38/38/38 76/76/76 39/39/39
f 39/39/39 76/76/76 77/77/77
f 39/39/39 77/77/77 40/40/40
f 40/40/40 77/77/77 78/78/78
f 40/40/40 78/78/78 41/41/41
f 41/41/41 78/78/78 79/79/79
f 41/41/41 79/79/79 42/42/42
f 42/42/42 79/79/79 80/80/80
f 42/42/42 80/80/80 43/43/43
f 43/43/43 80/80/80 81/81/81
f 43/43/43 81/81/81 44/44/44
f 44/44/44 81/81/81 82/82/82
f 44/44/44 82/82/82 45/45/45
f 45/45/45 82/82/82 83/83/83
f 45/45/45 83/83/83 46/46/46
f 46/46/46 83/83/83 84/84/84
f 46/46/46 84/84/84 47/47/47
f 47/47/47 84/84/84 85/85/85
f 47/47/47 85/85/85 48/48/48
f 48/48/48 85/85/85 86/86/86
f 48/48/48 86/86/86 49/49/49
f 49/49/49 86/86/86 87/87/87
f 49/49/49 87/87/87 50/50/50
f 50/50/50 87/87/87 88/88/88
f 50/50/50 88/88/88 51/51/51
f 51/51/51 88/88/88 89/89/89
f 51/51/51 89/89/89 52/52/52
f 52/52/52 89/89/89 90/90/90
f 52/52/52 90/90/90 53/53/53
f 53/53/53 90/90/90 91/91/91
f 53/53/53 91/91/91 54/54/54
f 54/54/54 91/91/91 92/92/92
f 54/54/54 92/92/92 55/55/55
f 55/55/55 92/92/92 93/93/93
f 55/55/55 93/93/93 56/56/56
f 56/56/56 93/93/93 94/94/94
f 56/56/56 94/94/94 57/57/57
f 57/57/57 94/94/94 95/95/95
f 57/57/57 95/95/95 58/58/58
f 58/58/58 95/95/95 96/96/96
f 58/58/58 96/96/96 59/59/59
f 59/59/59 96/96/96 97/97/97
f 59/59/59 97/97/97 60/60/60
f 60/60/60 97/97/97 98/98/98
f 60/60/60 98/98/98 61/61/61
f 61/61/61 98/98/98 99/99/99
f 61/61/61 99/99/99 62/62/62
f 62/62/62 99/99/99 100/100/100
f 62/62/62 100/100/100 63/63/63
f 63/63/63 100/100/100 101/101/101
f 63/63/63 101/101/101 64/64/64
f 64/64/64 101/101/101 102/102/102
f 64/64/64 102/102/102 65/65/65
f 65/65/65 102/102/102 103/103/103
f 65/65/65 103/103/103 66/66/66
f 66/66/66 103/103/103 104/104/104
f 66/66/66 104/104/104 67/67/67
f 67/67/67 104/104/104 105/105/105
f 67/67/67 105/105/105 68/68/68
f 68/68/68 105/105/105 106/106/106
f 68/68/68 106/106/106 69/69/69
f 69/69/69 106/106/106 107/107/107
f 69/69/69 107/107/107 70/70/70
f 70/70/70 107/107/107 108/108/108
f 70/70/70 108/108/108 71/71/71
f 71/71/71 108/108/108 109/109/109
f 71/71/71 109/109/109 72/72/72
f 72/72/72 109/109/109 110/110/110
f 72/72/72 110/110/110 73/73/73
f 73/73/73 110/110/110 111/111/111
f 73/73/73 111/111/111 74/74/74
f 75/75/75 112/112/112 113/113/113
f 75/75/75 113/113/113 76/76/76
f 76/76/76 113/113/113 114/114/114
f 76/76/76 114/114/114 77/77/77
f 77/77/77 114/114/114 115/115/115
f 77/77/77 115/115/115 78/78/78
f 78/78/78 115/115/115 116/116/116
f 78/78/78 116/116/116 79/79/79
f 79/79/79 116/116/116 117/117/117
f 79/79/79 117/117/117 80/80/80
f 80/80/80 117/117/117 118/118/118
f 80/80/80 118/118/118 81/81/81
f 81/81/81 118/118/118 119/119/119
f 81/81/81 119/119/119 82/82/82
f 82/82/82 119/119/119 120/120/120
f 82/82/82 120/120/120 83/83/83
f 83/83/83 120/120/120 121/121/121
f 83/83/83 121/121/121 84/84/84
f 84/84/84 121/121/121 122/122/122
f 84/84/84 122/122/122 85/85/85
f 85/85/85 122/122/122 123/123/123
f 85/85/85 123/123/123 86/86/86
f 86/86/86 123/123/123 124/124/124
f 86/86/86 124/124/124 87/87/87
f 87/87/87 124/124/124 125/125/125
f 87/87/87 125/125/125 88/88/88
f 88/88/88 125/125/125 126/126/126
f 88/88/88 126/126/126 89/89/89
f 89/89/89 126/126/126 127/127/127
f 89/89/89 127/127/127 90/90/90
f 90/90/90 127/127/127 128/128/128
f 90/90/90 128/128/128 91/91/91
f 91/91/91 128/128/128 129/129/129
f 91/91/91 129/129/129 92/92/92
f 92/92/92 129/129/129 130/130/130
f 92/92/92 130/130/130 93/93/93
f 93/93/93 130/130/130 131/131/131
f 93/93/93 131/131/131 94/94/94
f 94/94/94 131/131/131 132/132/132
f 94/94/94 132/132/132 95/95/95
f 95/95/95 132/132/132 133/133/133
f 95/95/95 133/133/133 96/96/96
f 96/96/96 133/133/133 134/134/134
f 96/96/96 134/134/134 97/97/97
f 97/97/97 134/134/134 135/135/135
f 97/97/97 135/135/135 98/98/98
f 98/98/98 135/135/135 136/136/136
f 98/98/98 136/136/136 99/99/99
f 99/99/99 136/136/136 137/137/137
f 99/99/99 137/137/137 100/100/100
f 100/100/100 137/137/137 138/138/138
f 100/100/100 138/138/138 101/101/101
f 101/101/101 138/138/138 139/139/139
f 101/101/101 139/139/139 102/102/102
f 102/102/102 139/139/139 140/140/140
f 102/102/102 140/140/140 103/103/103
f 103/103/103 140/140/140 141/141/141
f 103/103/103 141/141/141 104/104/104
f 104/104/104 141/141/141 142/142/142
f 104/104/104 142/142/142 105/105/105
f 105/105/105 142/142/142 143/143/143
f 105/105/105 143/143/143 106/106/106
f 106/106/106 143/143/143 144/144/144
f 106/106/106 144/144/144 107/107/107
f 107/107/107 144/144/144 145/145/145
f 107/107/107 145/145/145 108/108/108
f 108/108/108 145/145/145 146/146/146
f 108/108/108 146/146/146 109/109/109
f 109/109/109 146/146/146 147/147/147
f 109/109/109 147/147/147 110/110/110
f 110/110/110 147/147/147 148/148/148
f 110/110/110 148/148/148 111/111/111
f 112/112/112 149/149/149 150/150/150
f 112/112/112 150/150/150 113/113/113
f 113/113/113 150/150/150 151/151/151
f 113/113/113 151/151/151 114/114/114
f 114/114/114 151/151/151 152/152/152
f 114/114/114 152/152/152 115/115/115
f 115/115/115 152/152/152 153/153/153
f 115/115/115 153/153/153 116/116/116
f 116/116/116 153/153/153 154/154/154
f 116/116/116 154/154/154 117/117/117
f 117/117/117 154/154/154 155/155/155
f 117/117/117 155/155/155 118/118/118
f 118/118/118 155/155/155 156/156/156
f 118/118/118 156/156/156 119/119/119
f 119/119/119 156/156/156 157/157/157
f 119/119/119 157/157/157 120/120/120
f 120/120/120 157/157/157 158/158/158
f 120/120/120 158/158/158 121/121/121
f 121/121/121 158/158/158 159/159/159
f 121/121/121 159/159/159 122/122/122
f 122/122/122 159/159/159 160/160/160
f 122/122/122 160/160/160 123/123/123
f 123/123/123 160/160/160 161/161/161
f 123/123/123 161/161/161 124/124/124
f 124/124/124 161/161/161 162/162/162
f 124/124/124 162/162/162 125/125/125
f 125/125/125 162/162/162 163/163/163
f 125/125/125 163/163/163 126/126/126
f 126/126/126 163/163/163 164/164/164
f 126/126/126 164/164/164 127/127/127
f 127/127/127 164/164/164 165/165/165
f 127/127/127 165/165/165 128/128/128
f 128/128/128 165/165/165 166/166/166
f 128/128/128 166/166/166 129/129/129
f 129/129/129 166/166/166 167/167/167
f 129/129/129 167/167/167 130/130/130
f 130/130/130 167/167/167 168/168/168
f 130/130/130 168/168/168 131/131/131
f 131/131/131 168/168/168 169/169/169
f 131/131/131 169/169/169 132/132/132
f 132/132/132 169/169/169 170/170/170
f 132/132/132 170/170/170 133/133/133
f 133/133/133 170/170/170 171/171/171
f 133/133/133 171/171/171 134/134/134
f 134/134/134 171/171/171 172/172/172
f 134/134/134 172/172/172 135/135/135
f 135/135/135 172/172/172 173/173/173
f 135/135/135 173/173/173 136/136/136
f 136/136/136 173/173/173 174/174/174
f 136/136/136 174/174/174 137/137/137
f 137/137/137 174/174/174 175/175/175
f 137/137/137 175/175/175 138/138/138
f 138/138/138 175/175/175 176/176/176
f 138/138/138 176/176/176 139/139/139
f 139/139/139 176/176/176 177/177/177
f 139/139/139 177/177/177 140/140/140
f 140/140/140 177/177/177 178/178/178
f 140/140/140 178/178/178 141/141/141
f 141/141/141 178/178/178 179/179/179
f 141/141/141 179/179/179 142/142/142
f 142/142/142 179/179/179 180/180/180
f 142/142/142 180/180/180 143/143/143
f 143/143/143 180/180/180 181/181/181
f 143/143/143 181/181/181 144/144/144
f 144/144/144 181/181/181 182/182/182
f 144/144/144 182/182/182 145/145/145
f 145/145/145 182/182/182 183/183/183
f 145/145/145 183/183/183 146/146/146
f 146/146/146 183/183/183 184/184/184
f 146/146/146 184/184/184 147/147/147
f 147/147/147 184/184/184 185/185/185
f 147/147/147 185/185/185 148/148/148
f 149/149/149 186/186/186 187/187/187
f 149/149/149 187/187/187 150/150/150
f 150/150/150 187/187/187 188/188/188
f 150/150/150 188/188/188 151/151/151
f 151/151/151 188/188/188 189/189/189
f 151/151/151 189/189/189 152/152/152
f 152/152/152 189/189/189 190/190/190
f 152/152/152 190/190/190 153/153/153
f 153/153/153 190/190/190 191/191/191
f 153/153/153 191/191/191 154/154/154
f 154/154/154 191/191/191 192/192/192
f 154/154/154 192/192/192 155/155/155
f 155/155/155 192/192/192 193/193/193
f 155/155/155 193/193/193 156/156/156
f 156/156/156 193/193/193 194/194/194
f 156/156/156 194/194/194 157/157/157
f 157/157/157 194/194/194 195/195/195
f 157/157/157 195/195/195 158/158/158
f 158/158/158 195/195/195 196/196/196
f 158/158/158 196/196/196 159/159/159
f 159/159/159 196/196/196 197/197/197
f 159/159/159 197/197/197 160/160/160
f 160/160/160 197/197/197 198/198/198
f 160/160/160 198/198/198 161/161/161
f 161/161/161 198/198/198 199/199/199
f 161/161/161 199/199/199 162/162/162
f 162/162/162 199/199/199 200/200/200
f 162/162/162 200/200/200 163/163/163
f 163/163/163 200/200/200 201/201/201
f 163/163/163 201/201/201 164/164/164
f 164/164/164 201/201/201 202/202/202
f 164/164/164 202/202/202 165/165/165
f 165/165/165 202/202/202 203/203/203
f 165/165/165 203/203/203 166/166/166
f 166/166/166 203/203/203 204/204/204
f 166/166/166 204/204/204 167/167/167
f 167/167/167 204/204/204 205/205/205
f 167/167/167 205/205/205 168/168/168
f 168/168/168 205/205/205 206/206/206
f 168/168/168 206/206/206 169/169/169
f 169/169/169 206/206/206 207/207/207
f 169/169/169 207/207/207 170/170/170
f 170/170/170 207/207/207 208/208/208
f 170/170/170 208/208/208 171/171/171
f 171/171/171 208/208/208 209/209/209
f 171/171/171 209/209/209 172/172/172
f 172/172/172 209/209/209 210/210/210
f 172/172/172 210/210/210 173/173/173
f 173/173/173 210/210/210 211/211/211
f 173/173/173 211/211/211 174/174/174
f 174/174/174 211/211/211 212/212/212
f 174/174/174 212/212/212 175/175/175
f 175/175/175 212/212/212 213/213/213
f 175/175/175 213/213/213 176/176/176
f 176/176/176 213/213/213 214/214/214
f 176/176/176 214/214/214 177/177/177
f 177/177/177 214/214/214 215/215/215
f 177/177/177 215/215/215 178/178/178
f 178/178/178 215/215/215 216/216/216
f 178/178/178 216/216/216 179/179/179
f 179/179/179 216/216/216 217/217/217
f 179/179/179 217/217/217 180/180/180
f 180/180/180 217/217/217 218/218/218
f 180/180/180 218/218/218 181/181/181
f 181/181/181 218/218/218 219/219/219
f 181/181/181 219/219/219 182/182/182
f 182/182/182 219/219/219 220/220/220
f 182/182/182 220/220/220 183/183/183
f 183/183/183 220/220/220 221/221/221
f 183/183/183 221/221/221 184/184/184
f 184/184/184 221/221/221 222/222/222
f 184/184/184 222/222/222 185/185/185
f 186/186/186 223/223/223 224/224/224
f 186/186/186 224/224/224 187/187/187
f 187/187/187 224/224/224 225/225/225
f 187/187/187 225/225/225 188/188/188
f 188/188/188 225/225/225 226/226/226
f 188/188/188 226/226/226 189/189/189
f 189/189/189 226/226/226 227/227/227
f 189/189/189 227/227/227 190/190/190
f 190/190/190 227/227/227 228/228/228
f 190/190/190 228/228/228 191/191/191
f 191/191/191 228/228/228 229/229/229
f 191/191/191 229/229/229 192/192/192
f 192/192/192 229/229/229 230/230/230
f 192/192/192 230/230/230 193/193/193
f 193/193/193 230/230/230 231/231/231
f 193/193/193 231/231/231 194/194/194
f 194/194/194 231/231/231 232/232/232
f 194/194/194 232/232/232 195/195/195
f 195/195/195 232/232/232 233/233/233
f 195/195/195 233/233/233 196/196/196
f 196/196/196 233/233/233 234/234/234
f 196/196/196 234/234/234 197/197/197
f 197/197/197 234/234/234 235/235/235
f 197/197/197 235/235/235 198/198/198
f 198/198/198 235/235/235 236/236/236
f 198/198/198 236/236/236 199/199/199
f 199/199/199 236/236/236 237/237/237
f 199/199/199 237/237/237 200/200/200
f 200/200/200 237/237/237 238/238/238
f 200/200/200 238/238/238 201/201/201
f 201/201/201 238/238/238 239/239/239
f 201/201/201 239/239/239 202/202/202
f 202/202/202 239/239/239 240/240/240
f 202/202/202 240/240/240 203/203/203
f 203/203/203 240/240/240 241/241/241
f 203/203/203 241/241/241 204/204/204
f 204/204/204 241/241/241 242/242/242
f 204/204/204 242/242/242 205/205/205
f 205/205/205 242/242/242 243/243/243
f 205/205/205 243/243/243 206/206/206
f 206/206/206 243/243/243 244/244/244
f 206/206/206 244/244/244 207/207/207
f 207/207/207 244/244/244 245/245/245
f 207/207/207 245/245/245 208/208/208
f 208/208/208 245/245/245 246/246/246
f 208/208/208 246/246/246 209/209/209
f 209/209/209 246/246/246 247/247/247
f 209/209/209 247/247/247 210/210/210
f 210/210/210 247/247/247 248/248/248
f 210/210/210 248/248/248 211/211/211
f 211/211/211 248/248/248 249/249/249
f 211/211/211 249/249/249 212/212/212
f 212/212/212 249/249/249 250/250/250
f 212/212/212 250/250/250 213/213/213
f 213/213/213 250/250/250 251/251/251
f 213/213/213 251/251/251 214/214/214
f 214/214/214 251/251/251 252/252/252
f 214/214/214 252/252/252 215/215/215
f 215/215/215 252/252/252 253/253/253
f 215/215/215 253/253/253 216/216/216
f 216/216/216 253/253/253 254/254/254
f 216/216/216 254/254/254 217/217/217
f 217/217/217 254/254/254 255/255/255
f 217/217/217 255/255/255 218/218/218
f 218/218/218 255/255/255 256/256/256
f 218/218/218 256/256/256 219/219/219
f 219/219/219 256/256/256 257/257/257
f 219/219/219 257/257/257 220/220/220
f 220/220/220 257/257/257 258/258/258
f 220/220/220 258/258/258 221/221/221
f 221/221/221 258/258/258 259/259/259
f 221/221/221 259/259/259 222/222/222
f 223/223/223 260/260/260 261/261/261
f 223/223/223 261/261/261 224/224/224
f 224/224/224 261/261/261 262/262/262
f 224/224/224 262/262/262 225/225/225
f 225/225/225 262/262/262 263/263/263
f 225/225/225 263/263/263 226/226/226
f 226/226/226 263/263/263 264/264/264
f 226/226/226 264/264/264 227/227/227
f 227/227/227 264/264/264 265/265/265
f 227/227/227 265/265/265 228/228/228
f 228/228/228 265/265/265 266/266/266
f 228/228/228 266/266/266 229/229/229
f 229/229/229 266/266/266 267/267/267
f 229/229/229 267/267/267 230/230/230
f 230/230/230 267/267/267 268/268/268
f 230/230/230 268/268/268 231/231/231
f 231/231/231 268/268/268 269/269/269
f 231/231/231 269/269/269 232/232/232
f 232/232/232 269/269/269 270/270/270
f 232/232/232 270/270/270 233/233/233
f 233/233/233 270/270/270 271/271/271
f 233/233/233 271/271/271 234/234/234
f 234/234/234 271/271/271 272/272/272
f 234/234/234 272/272/272 235/235/235
f 235/235/235 272/272/272 273/273/273
f 235/235/235 273/273/273 236/236/236
f 236/236/236 273/273/273 274/274/274
f 236/236/236 274/274/274 237/237/237
f 237/237/237 274/274/274 275/275/275
f 237/237/237 275/275/275 238/238/238
f 238/238/238 275/275/275 276/276/276
f 238/238/238 276/276/276 239/239/239
f 239/239/239 276/276/276 277/277/277
f 239/239/239 277/277/277 240/240/240
f 240/240/240 277/277/277 278/278/278
f 240/240/240 278/278/278 241/241/241
f 241/241/241 278/278/278 279/279/279
f 241/241/241 279/279/279 242/242/242
f 242/242/242 279/279/279 280/280/280
f 242/242/242 280/280/280 243/243/243
f 243/243/243 280/280/280 281/281/281
f 243/243/243 281/281/281 244/244/244
f 244/244/244 281/281/281 282/282/282
f 244/244/244 282/282/282 245/245/245
f 245/245/245 282/282/282 283/283/283
f 245/245/245 283/283/283 246/246/246
f 246/246/246 283/283/283 284/284/284
f 246/246/246 284/284/284 247/247/247
f 247/247/247 284/284/284 285/285/285
f 247/247/247 285/285/285 248/248/248
f 248/248/248 285/285/285 286/286/286
f 248/248/248 286/286/286 249/249/249
f 249/249/249 286/286/286 287/287/287
f 249/249/249 287/287/287 250/250/250
f 250/250/250 287/287/287 288/288/288
f 250/250/250 288/288/288 251/251/251
f 251/251/251 288/288/288 289/289/289
f 251/251/251 289/289/289 252/252/252
f 252/252/252 289/289/289 290/290/290
f 252/252/252 290/290/290 253/253/253
f 253/253/253 290/290/290 291/291/291
f 253/253/253 291/291/291 254/254/254
f 254/254/254 291/291/291 292/292/292
f 254/254/254 292/292/292 255/255/255
f 255/255/255 292/292/292 293/293/293
f 255/255/255 293/293/293 256/256/256
f 256/256/256 293/293/293 294/294/294
f 256/256/256 294/294/294 257/257/257
f 257/257/257 294/294/294 295/295/295
f 257/257/257 295/295/295 258/258/258
f 258/258/258 295/295/295 296/296/296
f 258/258/258 296/296/296 259/259/259
f 260/260/260 297/297/297 298/298/298
f 260/260/260 298/298/298 261/261/261
f 261/261/261 298/298/298 299/299/299
f 261/261/261 299/299/299 262/262/262
f 262/262/262 299/299/299 300/300/300
f 262/262/262 300/300/300 263/263/263
f 263/263/263 300/300/300 301/301/301
f 263/263/263 301/301/301 264/264/264
f 264/264/264 301/301/301 302/302/302
f 264/264/264 302/302/302 265/265/265
f 265/265/265 302/302/302 303/303/303
f 265/265/265 303/303/303 266/266/266
f 266/266/266 303/303/303 304/304/304
f 266/266/266 304/304/304 267/267/267
f 267/267/267 304/304/304 305/305/305
f 267/267/267 305/305/305 268/268/268
f 268/268/268 305/305/305 306/306/306
f 268/268/268 306/306/306 269/269/269
f 269/269/269 306/306/306 307/307/307
f 269/269/269 307/307/307 270/270/270
f 270/270/270 307/307/307 308/308/308
f 270/270/270 308/308/308 271/271/271
f 271/271/271 308/308/308 309/309/309
f 271/271/271 309/309/309 272/272/272
f 272/272/272 309/309/309 310/310/310
f 272/272/272 310/310/310 273/273/273
f 273/273/273 310/310/310 311/311/311
f 273/273/273 311/311/311 274/274/274
f 274/274/274 311/311/311 312/312/312
f 274/274/274 312/312/312 275/275/275
f 275/275/275 312/312/312 313/313/313
f 275/275/275 313/313/313 276/276/276
f 276/276/276 313/313/313 314/314/314
f 276/276/276 314/314/314 277/277/277
f 277/277/277 314/314/314 315/315/315
f 277/277/277 315/315/315 278/278/278
f 278/278/278 315/315/315 316/316/316
f 278/278/278 316/316/316 279/279/279
f 279/279/279 316/316/316 317/317/317
f 279/279/279 317/317/317 280/280/280
f 280/280/280 317/317/317 318/318/318
f 280/280/280 318/318/318 281/281/281
f 281/281/281 318/318/318 319/319/319
f 281/281/281 319/319/319 282/282/282
f 282/282/282 319/319/319 320/320/320
f 282/282/282 320/320/320 283/283/283
f 283/283/283 320/320/320 321/321/321
f 283/283/283 321/321/321 284/284/284
f 284/284/284 321/321/321 322/322/322
f 284/284/284 322/322/322 285/285/285
f 285/285/285 322/322/322 323/323/323
f 285/285/285 323/323/323 286/286/286
f 286/286/286 323/323/323 324/324/324
f 286/286/286 324/324/324 287/287/287
f 287/287/287 324/324/324 325/325/325
f 287/287/287 325/325/325 288/288/288
f 288/288/288 325/325/325 326/326/326
f 288/288/288 326/326/326 289/289/289
f 289/289/289 326/326/326 327/327/327
f 289/289/289 327/327/327 290/290/290
f 290/290/290 327/327/327 328/328/328
f 290/290/290 328/328/328 291/291/291
f 291/291/291 328/328/328 329/329/329
f 291/291/291 329/329/329 292/292/292
f 292/292/292 329/329/329 330/330/330
f 292/292/292 330/330/330 293/293/293
f 293/293/293 330/330/330 331/331/331
f 293/293/293 331/331/331 294/294/294
f 294/294/294 331/331/331 332/332/332
f 294/294/294 332/332/332 295/295/295
f 295/295/295 332/332/332 333/333/333
f 295/295/295 333/333/333 296/296/296
f 297/297/297 334/334/334 335/335/335
f 297/297/297 335/335/335 298/298/298
f 298/298/298 335/335/335 336/336/336
f 298/298/298 336/336/336 299/299/299
f 299/299/299 336/336/336 337/337/337
f 299/299/299 337/337/337 300/300/300
f 300/300/300 337/337/337 338/338/338
f 300/300/300 338/338/338 301/301/301
f 301/301/301 338/338/338 339/339/339
f 301/301/301 339/339/339 302/302/302
f 302/302/302 339/339/339 340/340/340
f 302/302/302 340/340/340 303/303/303
f 303/303/303 340/340/340 341/341/341
f 303/303/303 341/341/341 304/304/304
f 304/304/304 341/341/341 342/342/342
f 304/304/304 342/342/342 305/305/305
f 305/305/305 342/342/342 343/343/343
f 305/305/305 343/343/343 306/306/306
f 306/306/306 343/343/343 344/344/344
f 306/306/306 344/344/344 307/307/307
f 307/307/307 344/344/344 345/345/345
f 307/307/307 345/345/345 308/308/308
f 308/308/308 345/345/345 346/346/346
f 308/308/308 346/346/346 309/309/309
f 309/309/309 346/346/346 347/347/347
f 309/309/309 347/347/347 310/310/310
f 310/310/310 347/347/347 348/348/348
f 310/310/310 348/348/348 311/311/311
f 311/311/311 348/348/348 349/349/349
f 311/311/311 349/349/349 312/312/312
f 312/312/312 349/349/349 350/350/350
f 312/312/312 350/350/350 313/313/313
f 313/313/313 350/350/350 351/351/351
f 313/313/313 351/351/351 314/314/314
f 314/314/314 351/351/351 352/352/352
f 314/314/314 352/352/352 315/315/315
f 315/315/315 352/352/352 353/353/353
f 315/315/315 353/353/353 316/316/316
f 316/316/316 353/353/353 354/354/354
f 316/316/316 354/354/354 317/317/317
f 317/317/317 354/354/354 355/355/355
f 317/317/317 355/355/355 318/318/318
f 318/318/318 355/355/355 356/356/356
f 318/318/318 356/356/356 319/319/319
f 319/319/319 356/356/356 357/357/357
f 319/319/319 357/357/357 320/320/320
f 320/320/320 357/357/357 358/358/358
f 320/320/320 358/358/358 321/321/321
f 321/321/321 358/358/358 359/359/359
f 321/321/321 359/359/359 322/322/322
f 322/322/322 359/359/359 360/360/360
f 322/322/322 360/360/360 323/323/323
f 323/323/323 360/360/360 361/361/361
f 323/323/323 361/361/361 324/324/324
f 324/324/324 361/361/361 362/362/362
f 324/324/324 362/362/362 325/325/325
f 325/325/325 362/362/362 363/363/363
f 325/325/325 363/363/363 326/326/326
f 326/326/326 363/363/363 364/364/364
f 326/326/326 364/364/364 327/327/327
f 327/327/327 364/364/364 365/365/365
f 327/327/327 365/365/365 328/328/328
f 328/328/328 365/365/365 366/366/366
f 328/328/328 366/366/366 329/329/329
f 329/329/329 366/366/366 367/367/367
f 329/329/329 367/367/367 330/330/330
f 330/330/330 367/367/367 368/368/368
f 330/330/330 368/368/368 331/331/331
f 331/331/331 368/368/368 369/369/369
f 331/331/331 369/369/369 332/332/332
f 332/332/332 369/369/369 370/370/370
f 332/332/332 370/370/370 333/333/333
f 334/334/334 371/371/371 372/372/372
f 334/334/334 372/372/372 335/335/335
f 335/335/335 372/372/372 373/373/373
f 335/335/335 373/373/373 336/336/336
f 336/336/336 373/373/373 374/374/374
f 336/336/336 374/374/374 337/337/337
f 337/337/337 374/374/374 375/375/375
f 337/337/337 375/375/375 338/338/338
f 338/338/338 375/375/375 376/376/376
f 338/338/338 376/376/376 339/339/339
f 339/339/339 376/376/376 377/377/377
f 339/339/339 377/377/377 340/340/340
f 340/340/340 377/377/377 378/378/378
f 340/340/340 378/378/378 341/341/341
f 341/341/341 378/378/378 379/379/379
f 341/341/341 379/379/379 342/342/342
f 342/342/342 379/379/379 380/380/380
f 342/342/342 380/380/380 343/343/343
f 343/343/343 380/380/380 381/381/381
f 343/343/343 381/381/381 344/344/344
f 344/344/344 381/381/381 382/382/382
f 344/344/344 382/382/382 345/345/345
f 345/345/345 382/382/382 383/383/383
f 345/345/345 383/383/383 346/346/346
f 346/346/346 383/383/383 384/384/384
f 346/346/346 384/384/384 347/347/347
f 347/347/347 384/384/384 385/385/385
f 347/347/347 385/385/385 348/348/348
f 348/348/348 385/385/385 386/386/386
f 348/348/348 386/386/386 349/349/349
f 349/349/349 386/386/386 387/387/387
f 349/349/349 387/387/387 350/350/350
f 350/350/350 387/387/387 388/388/388
f 350/350/350 388/388/388 351/351/351
f 351/351/351 388/388/388 389/389/389
f 351/351/351 389/389/389 352/352/352
f 352/352/352 389/389/389 390/390/390
f 352/352/352 390/390/390 353/353/353
f 353/353/353 390/390/390 391/391/391
f 353/353/353 391/391/391 354/354/354
f 354/354/354 391/391/391 392/392/392
f 354/354/354 392/392/392 355/355/355
f 355/355/355 392/392/392 393/393/393
f 355/355/355 393/393/393 356/356/356
f 356/356/356 393/393/393 394/394/394
f 356/356/356 394/394/394 357/357/357
f 357/357/357 394/394/394 395/395/395
f 357/357/357 395/395/395 358/358/358
f 358/358/358 395/395/395 396/396/396
f 358/358/358 396/396/396 359/359/359
f 359/359/359 396/396/396 397/397/397
f 359/359/359 397/397/397 360/360/360
f 360/360/360 397/397/397 398/398/398
f 360/360/360 398/398/398 361/361/361
f 361/361/361 398/398/398 399/399/399
f 361/361/361 399/399/399 362/362/362
f 362/362/362 399/399/399 400/400/400
f 362/362/362 400/400/400 363/363/363
f 363/363/363 400/400/400 401/401/401
f 363/363/363 401/401/401 364/364/364
f 364/364/364 401/401/401 402/402/402
f 364/364/364 402/402/402 365/365/365
f 365/365/365 402/402/402 403/403/403
f 365/365/365 403/403/403 366/366/366
f 366/366/366 403/403/403 404/404/404
f 366/366/366 404/404/404 367/367/367
f 367/367/367 404/404/404 405/405/405
f 367/367/367 405/405/405 368/368/368
f 368/368/368 405/405/405 406/406/406
f 368/368/368 406/406/406 369/369/369
f 369/369/369 406/406/406 407/407/407
f 369/369/369 407/407/407 370/370/370
