# Generated sky cornice; visual geometry only.
s 1
v 23.285905 -5.652310 -14.415961
v 23.323737 -3.388196 -14.208228
v 23.383948 0.391712 -13.877611
v 23.412188 4.955622 -13.722543
v 23.354109 9.536818 -14.041457
v 23.189461 13.953531 -14.945533
v 22.949151 18.380170 -16.265074
v 22.655556 22.552096 -17.877197
v 22.331057 26.200091 -19.659017
v 21.961800 29.129289 -21.686606
v 21.542455 31.254931 -23.989220
v 21.108191 32.493450 -26.373758
v 20.694175 32.791019 -28.647114
v 20.284688 31.995177 -30.895602
v 19.869340 30.102899 -33.176273
v 19.491290 27.339884 -35.252137
v 19.193699 23.970056 -36.886203
v 18.983761 20.121759 -38.038974
v 18.839894 15.816307 -38.828943
v 18.762100 11.199222 -39.256112
v 18.750377 6.429523 -39.320480
v 18.810321 1.564455 -38.991326
v 18.940068 -3.202776 -38.278890
v 19.128427 -7.516899 -37.244615
v 19.364208 -11.045600 -35.949943
v 19.670324 -13.564779 -34.269064
v 20.044111 -15.160303 -32.216606
v 20.436014 -16.399269 -30.064671
v 20.796480 -17.764403 -28.085358
v 21.131636 -19.235518 -26.245022
v 21.461464 -20.731866 -24.433944
v 21.757189 -22.359428 -22.810118
v 21.990040 -24.224186 -21.531538
v 22.143231 -26.646604 -20.690366
v 22.235146 -29.472759 -20.185664
v 22.289762 -32.097046 -19.885768
v 22.331057 -33.913860 -19.659017
v 17.796587 -5.434486 -9.661176
v 17.834853 -3.254154 -9.463169
v 17.895755 0.390297 -9.148031
v 17.924319 4.794678 -9.000223
v 17.865573 9.220865 -9.304206
v 17.699037 13.492834 -10.165955
v 17.455969 17.776782 -11.423720
v 17.159005 21.816641 -12.960368
v 16.830783 25.351886 -14.658768
v 16.457288 28.193535 -16.591430
v 16.033132 30.258613 -18.786243
v 15.593885 31.465525 -21.059143
v 15.175118 31.761576 -23.226067
v 14.760932 30.999597 -25.369286
v 14.340818 29.176496 -27.543183
v 13.958430 26.509490 -29.521861
v 13.657425 23.252946 -31.079425
v 13.445077 19.531232 -32.178225
v 13.299560 15.366110 -32.931211
v 13.220872 10.898989 -33.338380
v 13.209015 6.284397 -33.399735
v 13.269648 1.579050 -33.085991
v 13.400883 -3.029666 -32.406910
v 13.591403 -7.198700 -31.421057
v 13.829890 -10.607306 -30.186998
v 14.139519 -13.039090 -28.584812
v 14.517594 -14.576067 -26.628445
v 14.913995 -15.767287 -24.577257
v 15.278597 -17.079812 -22.690611
v 15.617598 -18.494234 -20.936434
v 15.951211 -19.932917 -19.210145
v 16.250330 -21.497758 -17.662342
v 16.485853 -23.290653 -16.443622
v 16.640802 -25.619718 -15.641832
v 16.733771 -28.336961 -15.160758
v 16.789014 -30.860115 -14.874902
v 16.830783 -32.606914 -14.658768
v 12.299273 -5.194312 -4.923286
v 12.337656 -3.112836 -4.735674
v 12.398744 0.363203 -4.437080
v 12.427396 4.561169 -4.297031
v 12.368470 8.776244 -4.585056
v 12.201423 12.841092 -5.401566
v 11.957610 16.915636 -6.593301
v 11.659737 20.756298 -8.049279
v 11.330508 24.115275 -9.658518
v 10.955869 26.813108 -11.489721
v 10.530412 28.771556 -13.569312
v 10.089819 29.913527 -15.722891
v 9.669769 30.189335 -17.776058
v 9.254314 29.458733 -19.806764
v 8.832912 27.718899 -21.866537
v 8.449352 25.177294 -23.741340
v 8.147424 22.076602 -25.217136
v 7.934426 18.534997 -26.258253
v 7.788462 14.572366 -26.971708
v 7.709534 10.322791 -27.357503
v 7.697641 5.932794 -27.415636
v 7.758459 1.455377 -27.118363
v 7.890096 -2.931524 -26.474932
v 8.081200 -6.901080 -25.540834
v 8.320418 -10.147609 -24.371559
v 8.630996 -12.464950 -22.853484
v 9.010230 -13.931886 -20.999820
v 9.407845 -15.070460 -19.056314
v 9.773565 -16.324979 -17.268712
v 10.113606 -17.676891 -15.606624
v 10.448240 -19.051993 -13.970961
v 10.748276 -20.547676 -12.504413
v 10.984521 -22.261335 -11.349672
v 11.139945 -24.487469 -10.589974
v 11.233199 -27.084625 -10.134155
v 11.288611 -29.496269 -9.863306
v 11.330508 -31.165869 -9.658518
v 6.794367 -4.936880 -0.197154
v 6.832567 -2.966252 -0.020402
v 6.893363 0.314897 0.260907
v 6.921878 4.268587 0.392848
v 6.863234 8.227051 0.121497
v 6.696985 12.034036 -0.647746
v 6.454338 15.844837 -1.770493
v 6.157888 19.431561 -3.142187
v 5.830234 22.562407 -4.658268
v 5.457385 25.070414 -6.383465
v 5.033962 26.884499 -8.342671
v 4.595475 27.934160 -10.371582
v 4.177433 28.174259 -12.305893
v 3.763964 27.472790 -14.219044
v 3.344577 25.827482 -16.159579
v 2.962851 23.435032 -17.925852
v 2.662366 20.524740 -19.316216
v 2.450386 17.206774 -20.297064
v 2.305120 13.497222 -20.969218
v 2.226569 9.520207 -21.332680
v 2.214733 5.411367 -21.387448
v 2.275260 1.217358 -21.107383
v 2.406268 -2.896299 -20.501200
v 2.596459 -6.622236 -19.621175
v 2.834533 -9.672663 -18.519588
v 3.143626 -11.853696 -17.089393
v 3.521048 -13.241417 -15.343036
v 3.916762 -14.323563 -13.512037
v 4.280733 -15.515908 -11.827917
v 4.619148 -16.800819 -10.262046
v 4.952183 -18.107770 -8.721069
v 5.250785 -19.529327 -7.339418
v 5.485900 -21.158056 -6.251524
v 5.640581 -23.273862 -5.535803
v 5.733390 -25.742302 -5.106371
v 5.788537 -28.034424 -4.851202
v 5.830234 -29.621279 -4.658268
v 1.282525 -4.667627 4.522504
v 1.320266 -2.816321 4.688138
v 1.380333 0.251031 4.951754
v 1.408506 3.933282 5.075397
v 1.350565 7.602348 4.821112
v 1.186311 11.114796 4.100252
v 0.946575 14.622533 3.048123
v 0.653682 17.915664 1.762706
v 0.329959 20.780758 0.341981
v -0.038416 23.065516 -1.274705
v -0.456758 24.707788 -3.110682
v -0.889984 25.645177 -5.011980
v -1.303011 25.838225 -6.824629
v -1.711519 25.164110 -8.617448
v -2.125875 23.621325 -10.435928
v -2.503021 21.395090 -12.091107
v -2.799900 18.700108 -13.394021
v -3.009337 15.637232 -14.313176
v -3.152860 12.217338 -14.943054
v -3.230468 8.552671 -15.283655
v -3.242163 4.765891 -15.334978
v -3.182361 0.895381 -15.072529
v -3.052925 -2.907907 -14.504473
v -2.865017 -6.358398 -13.679799
v -2.629799 -9.188222 -12.647499
v -2.324414 -11.217240 -11.307259
v -1.951521 -12.519241 -9.670743
v -1.560555 -13.542368 -7.954910
v -1.200950 -14.669683 -6.376716
v -0.866595 -15.884516 -4.909334
v -0.537556 -17.120187 -3.465280
v -0.242537 -18.464214 -2.170531
v -0.010243 -20.004114 -1.151063
v 0.142582 -22.004525 -0.480359
v 0.234277 -24.338338 -0.077937
v 0.288763 -26.505451 0.161183
v 0.329959 -28.005759 0.341981
v -4.235362 -4.392206 9.240989
v -4.198319 -2.664961 9.395460
v -4.139363 0.177798 9.641308
v -4.111711 3.572947 9.756617
v -4.168580 6.933546 9.519472
v -4.329797 10.130000 8.847197
v -4.565100 13.311613 7.865980
v -4.852578 16.287842 6.667199
v -5.170316 18.865018 5.342231
v -5.531880 20.906779 3.834508
v -5.942487 22.360967 2.122275
v -6.367703 23.174198 0.349123
v -6.773093 23.313370 -1.341354
v -7.174048 22.665391 -3.013338
v -7.580742 21.229642 -4.709254
v -7.950914 19.179476 -6.252875
v -8.242305 16.714315 -7.467974
v -8.447869 13.924919 -8.325178
v -8.588738 10.816101 -8.912603
v -8.664912 7.487092 -9.230247
v -8.676390 4.046331 -9.278111
v -8.617695 0.522768 -9.033351
v -8.490652 -2.948483 -8.503581
v -8.306218 -6.104992 -7.734491
v -8.075349 -8.699980 -6.771767
v -7.775611 -10.567904 -5.521858
v -7.409612 -11.780524 -3.995643
v -7.025874 -12.743280 -2.395455
v -6.672919 -13.804076 -0.923630
v -6.344746 -14.947226 0.444851
v -6.021791 -16.109984 1.791576
v -5.732227 -17.374704 2.999060
v -5.504228 -18.823740 3.949817
v -5.354228 -20.706114 4.575316
v -5.264228 -22.902217 4.950615
v -5.210750 -24.941456 5.173618
v -5.170316 -26.353236 5.342231
v -9.758184 -4.116360 13.963500
v -9.722034 -2.514170 14.106966
v -9.664500 0.101291 14.335301
v -9.637515 3.205116 14.442396
v -9.693013 6.251792 14.222144
v -9.850341 9.125879 13.597761
v -10.079970 11.974418 12.686444
v -10.360515 14.626621 11.573061
v -10.670590 16.909002 10.342480
v -11.023435 18.701534 8.942164
v -11.424140 19.962413 7.351907
v -11.839101 20.647570 5.705070
v -12.234715 20.730483 4.135019
v -12.626000 20.107943 2.582143
v -13.022887 18.780260 1.007041
v -13.384132 16.908855 -0.426616
v -13.668495 14.677701 -1.555154
v -13.869103 12.167229 -2.351293
v -14.006574 9.375881 -2.896871
v -14.080911 6.389511 -3.191887
v -14.092112 3.301936 -3.236341
v -14.034833 0.132274 -3.009017
v -13.910853 -3.000604 -2.516987
v -13.730867 -5.857785 -1.802684
v -13.505566 -8.213900 -0.908543
v -13.213056 -9.918243 0.252325
v -12.855884 -11.040665 1.669816
v -12.481400 -11.942956 3.156010
v -12.136957 -12.937131 4.522985
v -11.816698 -14.008487 5.793979
v -11.501531 -15.098220 7.044767
v -11.218950 -16.283511 8.166232
v -10.996450 -17.641542 9.049259
v -10.850067 -19.405696 9.630199
v -10.762238 -21.463876 9.978762
v -10.710050 -23.375043 10.185879
v -10.670590 -24.698159 10.342480
v -15.284640 -3.845784 18.695012
v -15.249527 -2.366084 18.827831
v -15.193643 0.026937 19.039219
v -15.167432 2.845829 19.138366
v -15.221338 5.585668 18.934460
v -15.374152 8.144835 18.356416
v -15.597192 10.668071 17.512734
v -15.869687 13.003889 16.481982
v -16.170865 14.998513 15.342730
v -16.513585 16.547859 14.046340
v -16.902792 17.620201 12.574105
v -17.305847 18.180544 11.049490
v -17.690108 18.208775 9.595962
v -18.070166 17.611349 8.158334
v -18.455665 16.389479 6.700129
v -18.806545 14.692890 5.372873
v -19.082748 12.690435 4.328091
v -19.277599 10.452460 3.591038
v -19.411126 7.971224 3.085951
v -19.483330 5.319534 2.812830
v -19.494210 2.576949 2.771674
v -19.438574 -0.246977 2.982127
v -19.318152 -3.049219 3.437641
v -19.143330 -5.613860 4.098931
v -18.924494 -7.736471 4.926713
v -18.640377 -9.280847 6.001426
v -18.293454 -10.314942 7.313717
v -17.929716 -11.157924 8.689611
v -17.595156 -12.086749 9.955135
v -17.284087 -13.087683 11.131801
v -16.977963 -14.105786 12.289759
v -16.703490 -15.213166 13.327994
v -16.487374 -16.481931 14.145487
v -16.345192 -18.130124 14.683311
v -16.259883 -20.053016 15.006005
v -16.209192 -21.838558 15.197751
v -16.170865 -23.074703 15.342730
v -20.813269 -3.585999 23.440166
v -20.779279 -2.223007 23.562878
v -20.725184 -0.040920 23.758181
v -20.699811 2.508623 23.849783
v -20.751992 4.959421 23.661394
v -20.899917 7.222799 23.127337
v -21.115821 9.440907 22.347855
v -21.379597 11.480369 21.395539
v -21.671139 13.205896 20.342980
v -22.002894 14.528293 19.145240
v -22.379649 15.425128 17.785036
v -22.769808 15.869797 16.376438
v -23.141775 15.848096 15.033517
v -23.509674 15.275607 13.705288
v -23.882838 14.154362 12.358046
v -24.222492 12.622916 11.131788
v -24.489858 10.835760 10.166510
v -24.678475 8.853807 9.485544
v -24.807730 6.663711 9.018892
v -24.877624 4.326135 8.766554
v -24.888156 1.907371 8.728531
v -24.834299 -0.591774 8.922969
v -24.717730 -3.083070 9.343820
v -24.548502 -5.372302 9.954788
v -24.336667 -7.274821 10.719579
v -24.061641 -8.668111 11.712511
v -23.725817 -9.618160 12.924942
v -23.373717 -10.404198 14.196136
v -23.049861 -11.270281 15.365359
v -22.748744 -12.203601 16.452485
v -22.452415 -13.152930 17.522328
v -22.186724 -14.185506 18.481557
v -21.977522 -15.368565 19.236842
v -21.839889 -16.905422 19.733740
v -21.757310 -18.698421 20.031878
v -21.708240 -20.363349 20.209033
v -21.671139 -21.515991 20.342980
vt 0.08984375 1.13459301
vt 0.08984375 1.13015709
vt 0.08984375 1.12275348
vt 0.08984375 1.11383577
vt 0.08984375 1.10487201
vt 0.08984375 1.09611222
vt 0.08984375 1.08718530
vt 0.08984375 1.07859641
vt 0.08984375 1.07086505
vt 0.08984375 1.06420204
vt 0.08984375 1.05852047
vt 0.08984375 1.05383164
vt 0.08984375 1.04995840
vt 0.08984375 1.04586436
vt 0.08984375 1.04053350
vt 0.08984375 1.03410315
vt 0.08984375 1.02696907
vt 0.08984375 1.01920609
vt 0.08984375 1.01069237
vt 0.08984375 1.00164596
vt 0.08984375 0.99232951
vt 0.08984375 0.98281127
vt 0.08984375 0.97342325
vt 0.08984375 0.96481900
vt 0.08984375 0.95759020
vt 0.08984375 0.95191342
vt 0.08984375 0.94725897
vt 0.08984375 0.94290061
vt 0.08984375 0.93863153
vt 0.08984375 0.93440476
vt 0.08984375 0.93018006
vt 0.08984375 0.92598641
vt 0.08984375 0.92175517
vt 0.08984375 0.91681627
vt 0.08984375 0.91123135
vt 0.08984375 0.90608095
vt 0.08984375 0.90251199
vt 0.10436140 1.12904394
vt 0.10436140 1.12477221
vt 0.10436140 1.11763403
vt 0.10436140 1.10902806
vt 0.10436140 1.10036775
vt 0.10436140 1.09189656
vt 0.10436140 1.08326087
vt 0.10436140 1.07494976
vt 0.10436140 1.06746622
vt 0.10436140 1.06101744
vt 0.10436140 1.05552427
vt 0.10436140 1.05099982
vt 0.10436140 1.04727288
vt 0.10436140 1.04333897
vt 0.10436140 1.03820847
vt 0.10436140 1.03200876
vt 0.10436140 1.02511972
vt 0.10436140 1.01761482
vt 0.10436140 1.00937983
vt 0.10436140 1.00062760
vt 0.10436140 0.99161412
vt 0.10436140 0.98240854
vt 0.10436140 0.97333349
vt 0.10436140 0.96502034
vt 0.10436140 0.95804052
vt 0.10436140 0.95256610
vt 0.10436140 0.94808718
vt 0.10436140 0.94389678
vt 0.10436140 0.93979221
vt 0.10436140 0.93572833
vt 0.10436140 0.93166644
vt 0.10436140 0.92763440
vt 0.10436140 0.92356622
vt 0.10436140 0.91881765
vt 0.10436140 0.91344796
vt 0.10436140 0.90849605
vt 0.10436140 0.90506462
vt 0.11887904 1.12135382
vt 0.11887904 1.11727574
vt 0.11887904 1.11046733
vt 0.11887904 1.10226467
vt 0.11887904 1.09401731
vt 0.11887904 1.08595575
vt 0.11887904 1.07773970
vt 0.11887904 1.06983419
vt 0.11887904 1.06271746
vt 0.11887904 1.05658430
vt 0.11887904 1.05135589
vt 0.11887904 1.04704316
vt 0.11887904 1.04348307
vt 0.11887904 1.03972132
vt 0.11887904 1.03482121
vt 0.11887904 1.02890785
vt 0.11887904 1.02234478
vt 0.11887904 1.01520112
vt 0.11887904 1.00736559
vt 0.11887904 0.99903934
vt 0.11887904 0.99046455
vt 0.11887904 0.98170477
vt 0.11887904 0.97306592
vt 0.11887904 0.96514930
vt 0.11887904 0.95849924
vt 0.11887904 0.95327857
vt 0.11887904 0.94900036
vt 0.11887904 0.94499515
vt 0.11887904 0.94107198
vt 0.11887904 0.93718771
vt 0.11887904 0.93330533
vt 0.11887904 0.92945148
vt 0.11887904 0.92556309
vt 0.11887904 0.92102438
vt 0.11887904 0.91589200
vt 0.11887904 0.91115894
vt 0.11887904 0.90787916
vt 0.13339669 1.11192786
vt 0.13339669 1.10806686
vt 0.13339669 1.10163994
vt 0.13339669 1.09391451
vt 0.13339669 1.08616891
vt 0.13339669 1.07861536
vt 0.13339669 1.07092337
vt 0.13339669 1.06352741
vt 0.13339669 1.05687424
vt 0.13339669 1.05113893
vt 0.13339669 1.04623684
vt 0.13339669 1.04217348
vt 0.13339669 1.03879607
vt 0.13339669 1.03521549
vt 0.13339669 1.03056947
vt 0.13339669 1.02498714
vt 0.13339669 1.01881547
vt 0.13339669 1.01211680
vt 0.13339669 1.00477896
vt 0.13339669 0.99698597
vt 0.13339669 0.98896033
vt 0.13339669 0.98075460
vt 0.13339669 0.97265203
vt 0.13339669 0.96521742
vt 0.13339669 0.95896247
vt 0.13339669 0.95403684
vt 0.13339669 0.94997916
vt 0.13339669 0.94617245
vt 0.13339669 0.94244371
vt 0.13339669 0.93875194
vt 0.13339669 0.93506198
vt 0.13339669 0.93139913
vt 0.13339669 0.92770345
vt 0.13339669 0.92338968
vt 0.13339669 0.91851166
vt 0.13339669 0.91401317
vt 0.13339669 0.91089594
vt 0.14791433 1.10125770
vt 0.14791433 1.09763034
vt 0.14791433 1.09162179
vt 0.14791433 1.08442666
vt 0.14791433 1.07724680
vt 0.14791433 1.07027223
vt 0.14791433 1.06317956
vt 0.14791433 1.05636795
vt 0.14791433 1.05024773
vt 0.14791433 1.04496873
vt 0.14791433 1.04043580
vt 0.14791433 1.03664714
vt 0.14791433 1.03346247
vt 0.14791433 1.03006896
vt 0.14791433 1.02569357
vt 0.14791433 1.02047398
vt 0.14791433 1.01474053
vt 0.14791433 1.00854717
vt 0.14791433 1.00177790
vt 0.14791433 0.99459573
vt 0.14791433 0.98719913
vt 0.14791433 0.97962569
vt 0.14791433 0.97213157
vt 0.14791433 0.96524048
vt 0.14791433 0.95942748
vt 0.14791433 0.95482622
vt 0.14791433 0.95100290
vt 0.14791433 0.94740381
vt 0.14791433 0.94387844
vt 0.14791433 0.94038801
vt 0.14791433 0.93689930
vt 0.14791433 0.93343622
vt 0.14791433 0.92994209
vt 0.14791433 0.92586359
vt 0.14791433 0.92125162
vt 0.14791433 0.91699847
vt 0.14791433 0.91405125
vt 0.16243198 1.08987542
vt 0.16243198 1.08649095
vt 0.16243198 1.08092185
vt 0.16243198 1.07428759
vt 0.16243198 1.06771066
vt 0.16243198 1.06135642
vt 0.16243198 1.05490677
vt 0.16243198 1.04872266
vt 0.16243198 1.04317503
vt 0.16243198 1.03838481
vt 0.16243198 1.03424345
vt 0.16243198 1.03074134
vt 0.16243198 1.02775328
vt 0.16243198 1.02454958
vt 0.16243198 1.02045382
vt 0.16243198 1.01561472
vt 0.16243198 1.01034625
vt 0.16243198 1.00469311
vt 0.16243198 0.99853379
vt 0.16243198 0.99200782
vt 0.16243198 0.98528705
vt 0.16243198 0.97839162
vt 0.16243198 0.97154800
vt 0.16243198 0.96523605
vt 0.16243198 0.95989192
vt 0.16243198 0.95563155
vt 0.16243198 0.95205010
vt 0.16243198 0.94866338
vt 0.16243198 0.94534602
vt 0.16243198 0.94206156
vt 0.16243198 0.93877870
vt 0.16243198 0.93551996
vt 0.16243198 0.93223201
vt 0.16243198 0.92839417
vt 0.16243198 0.92405433
vt 0.16243198 0.92005215
vt 0.16243198 0.91727884
vt 0.17694962 1.07830772
vt 0.17694962 1.07516809
vt 0.17694962 1.07004369
vt 0.17694962 1.06397855
vt 0.17694962 1.05801516
vt 0.17694962 1.05229320
vt 0.17694962 1.04649895
vt 0.17694962 1.04095419
vt 0.17694962 1.03598936
vt 0.17694962 1.03169472
vt 0.17694962 1.02794725
vt 0.17694962 1.02473051
vt 0.17694962 1.02193701
vt 0.17694962 1.01892262
vt 0.17694962 1.01510794
vt 0.17694962 1.01065323
vt 0.17694962 1.00585656
vt 0.17694962 1.00075345
vt 0.17694962 0.99521614
vt 0.17694962 0.98935989
vt 0.17694962 0.98332895
vt 0.17694962 0.97712505
vt 0.17694962 0.97094405
vt 0.17694962 0.96522120
vt 0.17694962 0.96035305
vt 0.17694962 0.95643736
vt 0.17694962 0.95309891
vt 0.17694962 0.94992489
vt 0.17694962 0.94681588
vt 0.17694962 0.94373768
vt 0.17694962 0.94066100
vt 0.17694962 0.93760693
vt 0.17694962 0.93452547
vt 0.17694962 0.93092866
vt 0.17694962 0.92686138
vt 0.17694962 0.92311055
vt 0.17694962 0.92051141
vt 0.19146727 1.06703544
vt 0.19146727 1.06413561
vt 0.19146727 1.05944641
vt 0.19146727 1.05393789
vt 0.19146727 1.04857418
vt 0.19146727 1.04346954
vt 0.19146727 1.03831452
vt 0.19146727 1.03339243
vt 0.19146727 1.02899389
vt 0.19146727 1.02517850
vt 0.19146727 1.02180938
vt 0.19146727 1.01886549
vt 0.19146727 1.01625942
vt 0.19146727 1.01343058
vt 0.19146727 1.00989116
vt 0.19146727 1.00581187
vt 0.19146727 1.00147556
vt 0.19146727 0.99690921
vt 0.19146727 0.99197920
vt 0.19146727 0.98677702
vt 0.19146727 0.98141990
vt 0.19146727 0.97589154
vt 0.19146727 0.97035784
vt 0.19146727 0.96521043
vt 0.19146727 0.96080716
vt 0.19146727 0.95722811
vt 0.19146727 0.95412769
vt 0.19146727 0.95116230
vt 0.19146727 0.94825765
vt 0.19146727 0.94538179
vt 0.19146727 0.94250734
vt 0.19146727 0.93965402
vt 0.19146727 0.93677511
vt 0.19146727 0.93341473
vt 0.19146727 0.92961480
vt 0.19146727 0.92611051
vt 0.19146727 0.92368222
vt 0.20598491 1.05646282
vt 0.20598491 1.05379149
vt 0.20598491 1.04951498
vt 0.20598491 1.04453265
vt 0.20598491 1.03973381
vt 0.20598491 1.03520880
vt 0.20598491 1.03065283
vt 0.20598491 1.02631290
vt 0.20598491 1.02244198
vt 0.20598491 1.01907063
vt 0.20598491 1.01605012
vt 0.20598491 1.01335789
vt 0.20598491 1.01092804
vt 0.20598491 1.00827772
vt 0.20598491 1.00500111
vt 0.20598491 1.00127712
vt 0.20598491 0.99737412
vt 0.20598491 0.99331181
vt 0.20598491 0.98895177
vt 0.20598491 0.98436343
vt 0.20598491 0.97963878
vt 0.20598491 0.97474498
vt 0.20598491 0.96981996
vt 0.20598491 0.96521421
vt 0.20598491 0.96124912
vt 0.20598491 0.95798844
vt 0.20598491 0.95511543
vt 0.20598491 0.95235036
vt 0.20598491 0.94964192
vt 0.20598491 0.94696033
vt 0.20598491 0.94428005
vt 0.20598491 0.94161947
vt 0.20598491 0.93893504
vt 0.20598491 0.93580165
vt 0.20598491 0.93225841
vt 0.20598491 0.92899084
vt 0.20598491 0.92672658
vn 0.178611 -0.078883 0.980752
vn 0.178643 -0.076594 0.980928
vn 0.178944 -0.050139 0.982581
vn 0.179148 0.015450 0.983701
vn 0.177951 0.116426 0.977128
vn 0.175100 0.211932 0.961470
vn 0.171892 0.282106 0.943859
vn 0.167800 0.350558 0.921386
vn 0.160285 0.446866 0.880124
vn 0.144106 0.594224 0.791285
vn 0.114611 0.768643 0.629326
vn 0.063992 0.934043 0.351380
vn -0.022707 0.991936 -0.124686
vn -0.101573 0.823782 -0.557734
vn -0.139424 0.628057 -0.765576
vn -0.158851 0.462551 -0.872246
vn -0.169993 0.315926 -0.933431
vn -0.175503 0.201283 -0.963682
vn -0.177942 0.116842 -0.977080
vn -0.178987 0.045116 -0.982816
vn -0.179119 -0.023695 -0.983542
vn -0.178396 -0.092858 -0.979567
vn -0.176754 -0.163647 -0.970555
vn -0.173568 -0.248098 -0.953059
vn -0.164936 -0.390612 -0.905659
vn -0.141104 -0.616260 -0.774799
vn -0.110344 -0.787852 -0.605898
vn -0.105723 -0.807349 -0.580525
vn -0.116902 -0.757821 -0.641905
vn -0.122875 -0.727789 -0.674704
vn -0.130008 -0.688102 -0.713872
vn -0.145626 -0.582571 -0.799628
vn -0.164811 -0.392252 -0.904973
vn -0.174943 -0.215936 -0.960607
vn -0.177735 -0.126295 -0.975940
vn -0.178240 -0.101742 -0.978713
vn -0.179170 0.000000 -0.983818
vn 0.189154 -0.078758 0.978784
vn 0.189189 -0.076415 0.978963
vn 0.189506 -0.049974 0.980607
vn 0.189721 0.015384 0.981718
vn 0.188467 0.115805 0.975228
vn 0.185485 0.210669 0.959799
vn 0.182135 0.280338 0.942463
vn 0.177865 0.348260 0.920369
vn 0.170027 0.443877 0.879809
vn 0.153123 0.590548 0.792342
vn 0.122199 0.765004 0.632326
vn 0.068809 0.931929 0.356054
vn -0.023398 0.992368 -0.121073
vn -0.107582 0.823725 -0.556689
vn -0.147837 0.626850 -0.764986
vn -0.168389 0.460888 -0.871336
vn -0.180124 0.314364 -0.932057
vn -0.185905 0.200124 -0.961972
vn -0.188460 0.116127 -0.975191
vn -0.189553 0.044835 -0.980846
vn -0.189691 -0.023552 -0.981561
vn -0.188933 -0.092334 -0.977639
vn -0.187212 -0.162805 -0.968734
vn -0.183866 -0.246959 -0.951422
vn -0.174786 -0.389161 -0.904436
vn -0.149612 -0.615042 -0.774170
vn -0.116934 -0.787530 -0.605081
vn -0.111963 -0.807349 -0.579354
vn -0.123800 -0.757821 -0.640610
vn -0.130126 -0.727789 -0.673343
vn -0.137680 -0.688102 -0.712432
vn -0.154220 -0.582571 -0.798015
vn -0.174537 -0.392252 -0.903147
vn -0.185267 -0.215936 -0.958670
vn -0.188224 -0.126295 -0.973972
vn -0.188759 -0.101742 -0.976739
vn -0.189743 0.000000 -0.981834
vn 0.199811 -0.078852 0.976657
vn 0.199847 -0.076549 0.976832
vn 0.200183 -0.050098 0.978477
vn 0.200411 0.015433 0.979590
vn 0.199075 0.116272 0.973062
vn 0.195896 0.211618 0.957519
vn 0.192320 0.281667 0.940041
vn 0.187758 0.349988 0.917745
vn 0.179383 0.446124 0.876809
vn 0.161345 0.593312 0.788637
vn 0.128430 0.767743 0.627755
vn 0.071859 0.933523 0.351242
vn -0.025233 0.992044 -0.123337
vn -0.113632 0.823768 -0.555423
vn -0.156020 0.627758 -0.762612
vn -0.177747 0.462139 -0.868812
vn -0.190195 0.315539 -0.929656
vn -0.196344 0.200996 -0.959713
vn -0.199066 0.116664 -0.973017
vn -0.200231 0.045046 -0.978713
vn -0.200379 -0.023660 -0.979433
vn -0.199571 -0.092728 -0.975486
vn -0.197740 -0.163438 -0.966534
vn -0.194183 -0.247816 -0.949147
vn -0.184542 -0.390253 -0.902024
vn -0.157898 -0.615959 -0.771792
vn -0.123461 -0.787773 -0.603466
vn -0.118271 -0.807349 -0.578100
vn -0.130776 -0.757821 -0.639223
vn -0.137458 -0.727789 -0.671884
vn -0.145438 -0.688102 -0.710889
vn -0.162909 -0.582571 -0.796286
vn -0.184372 -0.392252 -0.901191
vn -0.195706 -0.215936 -0.956593
vn -0.198830 -0.126295 -0.971862
vn -0.199395 -0.101742 -0.974623
vn -0.200435 0.000000 -0.979707
vn 0.210580 -0.079158 0.974367
vn 0.210615 -0.076988 0.974533
vn 0.210973 -0.050504 0.976186
vn 0.211217 0.015597 0.977315
vn 0.209771 0.117809 0.970627
vn 0.206314 0.214752 0.954629
vn 0.202415 0.286054 0.936590
vn 0.197428 0.355695 0.913512
vn 0.188267 0.453542 0.871123
vn 0.168613 0.602396 0.780185
vn 0.133068 0.776651 0.615716
vn 0.072882 0.938597 0.337231
vn -0.028354 0.990951 -0.131195
vn -0.119717 0.823906 -0.553938
vn -0.163928 0.630711 -0.758506
vn -0.186878 0.466231 -0.864699
vn -0.200177 0.319401 -0.926235
vn -0.206806 0.203870 -0.956906
vn -0.209756 0.118440 -0.970554
vn -0.211021 0.045744 -0.976411
vn -0.211181 -0.024016 -0.977152
vn -0.210307 -0.094026 -0.973103
vn -0.208329 -0.165521 -0.963951
vn -0.204500 -0.250630 -0.946237
vn -0.194171 -0.393827 -0.898442
vn -0.165918 -0.618942 -0.767712
vn -0.129906 -0.788559 -0.601082
vn -0.124649 -0.807349 -0.576758
vn -0.137828 -0.757821 -0.637739
vn -0.144870 -0.727789 -0.670325
vn -0.153280 -0.688102 -0.709239
vn -0.171694 -0.582571 -0.794439
vn -0.194313 -0.392252 -0.899100
vn -0.206259 -0.215936 -0.954374
vn -0.209551 -0.126295 -0.969607
vn -0.210146 -0.101742 -0.972362
vn -0.211242 0.000000 -0.977434
vn 0.221458 -0.079661 0.971911
vn 0.221492 -0.077715 0.972061
vn 0.221873 -0.051181 0.973732
vn 0.222136 0.015871 0.974887
vn 0.220548 0.120403 0.967916
vn 0.216718 0.220057 0.951109
vn 0.212380 0.293489 0.932072
vn 0.206804 0.365372 0.907599
vn 0.196556 0.466097 0.862623
vn 0.174725 0.617629 0.766815
vn 0.135847 0.791267 0.596189
vn 0.071659 0.946552 0.314491
vn -0.032822 0.989026 -0.144047
vn -0.125833 0.824131 -0.552245
vn -0.171521 0.635563 -0.752755
vn -0.195736 0.473034 -0.859026
vn -0.210035 0.325890 -0.921781
vn -0.217270 0.208729 -0.953533
vn -0.220519 0.121451 -0.967792
vn -0.221919 0.046929 -0.973935
vn -0.222096 -0.024620 -0.974714
vn -0.221133 -0.096221 -0.970485
vn -0.218967 -0.169030 -0.960980
vn -0.214799 -0.255351 -0.942686
vn -0.203638 -0.399780 -0.893704
vn -0.173632 -0.623846 -0.762016
vn -0.136256 -0.789841 -0.597985
vn -0.131093 -0.807349 -0.575328
vn -0.144954 -0.757821 -0.636157
vn -0.152360 -0.727789 -0.668663
vn -0.161205 -0.688102 -0.707480
vn -0.180570 -0.582571 -0.792468
vn -0.204359 -0.392252 -0.896870
vn -0.216922 -0.215936 -0.952006
vn -0.220385 -0.126295 -0.967202
vn -0.221011 -0.101742 -0.969950
vn -0.222164 0.000000 -0.975009
vn 0.232443 -0.080340 0.969286
vn 0.232473 -0.078702 0.969413
vn 0.232880 -0.052109 0.971109
vn 0.233166 0.016251 0.972301
vn 0.231396 0.124033 0.964921
vn 0.227080 0.227519 0.946926
vn 0.222162 0.303964 0.926418
vn 0.215798 0.379016 0.899877
vn 0.204096 0.483744 0.851080
vn 0.179431 0.638716 0.748229
vn 0.136485 0.810830 0.569145
vn 0.068051 0.956473 0.283775
vn -0.038613 0.986196 -0.161017
vn -0.131981 0.824430 -0.550360
vn -0.178775 0.642092 -0.745492
vn -0.204275 0.482347 -0.851829
vn -0.219729 0.334911 -0.916272
vn -0.227714 0.215552 -0.949570
vn -0.231347 0.125699 -0.964717
vn -0.232921 0.048602 -0.971280
vn -0.233121 -0.025472 -0.972114
vn -0.232044 -0.099302 -0.967623
vn -0.229642 -0.173929 -0.957608
vn -0.225057 -0.261901 -0.938487
vn -0.212909 -0.407953 -0.887831
vn -0.181014 -0.630448 -0.754831
vn -0.142509 -0.791546 -0.594261
vn -0.137603 -0.807349 -0.573805
vn -0.152152 -0.757821 -0.634474
vn -0.159926 -0.727789 -0.666893
vn -0.169210 -0.688102 -0.705608
vn -0.189537 -0.582571 -0.790371
vn -0.214507 -0.392252 -0.894497
vn -0.227695 -0.215936 -0.949488
vn -0.231329 -0.126295 -0.964643
vn -0.231986 -0.101742 -0.967384
vn -0.233196 0.000000 -0.972430
vn 0.243531 -0.081166 0.966491
vn 0.243556 -0.079914 0.966589
vn 0.243991 -0.053262 0.968314
vn 0.244303 0.016729 0.969555
vn 0.242307 0.128659 0.961631
vn 0.237371 0.237094 0.942041
vn 0.231701 0.317431 0.919539
vn 0.224303 0.396568 0.890181
vn 0.210702 0.506332 0.836201
vn 0.182454 0.665128 0.724096
vn 0.134738 0.834213 0.534728
vn 0.062045 0.967222 0.246236
vn -0.045609 0.982424 -0.181005
vn -0.138159 0.824787 -0.548306
vn -0.185681 0.649997 -0.736903
vn -0.212460 0.493874 -0.843178
vn -0.229218 0.346307 -0.909687
vn -0.238113 0.224285 -0.944986
vn -0.242226 0.131170 -0.961312
vn -0.244023 0.050763 -0.968440
vn -0.244251 -0.026569 -0.969348
vn -0.243032 -0.103246 -0.964508
vn -0.240340 -0.180154 -0.953825
vn -0.235252 -0.270153 -0.933635
vn -0.221956 -0.418107 -0.880865
vn -0.188058 -0.638450 -0.746335
vn -0.148670 -0.793583 -0.590020
vn -0.144177 -0.807349 -0.572189
vn -0.159421 -0.757821 -0.632687
vn -0.167567 -0.727789 -0.665015
vn -0.177295 -0.688102 -0.703621
vn -0.198593 -0.582571 -0.788145
vn -0.224756 -0.392252 -0.891977
vn -0.238573 -0.215936 -0.946813
vn -0.242381 -0.126295 -0.961926
vn -0.243070 -0.101742 -0.964658
vn -0.244338 0.000000 -0.969690
vn 0.254722 -0.082102 0.963523
vn 0.254738 -0.081301 0.963586
vn 0.255203 -0.054601 0.965345
vn 0.255546 0.017294 0.966642
vn 0.253272 0.134206 0.958041
vn 0.247556 0.248668 0.936419
vn 0.240930 0.333741 0.911356
vn 0.232205 0.417830 0.878350
vn 0.216175 0.533492 0.817713
vn 0.183529 0.695965 0.694226
vn 0.130463 0.859907 0.493497
vn 0.053804 0.977591 0.203521
vn -0.053607 0.977757 -0.202776
vn -0.144371 0.825182 -0.546105
vn -0.192257 0.658908 -0.727240
vn -0.220269 0.507207 -0.833200
vn -0.238466 0.359819 -0.902033
vn -0.248438 0.234812 -0.939756
vn -0.253146 0.137816 -0.957561
vn -0.255220 0.053394 -0.965408
vn -0.255485 -0.027902 -0.966410
vn -0.254089 -0.108001 -0.961132
vn -0.251047 -0.187590 -0.949624
vn -0.245368 -0.279908 -0.928141
vn -0.230760 -0.429908 -0.872886
vn -0.194776 -0.647481 -0.736771
vn -0.154757 -0.795843 -0.585392
vn -0.150814 -0.807349 -0.570476
vn -0.166759 -0.757821 -0.630793
vn -0.175280 -0.727789 -0.663023
vn -0.185456 -0.688102 -0.701514
vn -0.207734 -0.582571 -0.785785
vn -0.235101 -0.392252 -0.889306
vn -0.249555 -0.215936 -0.943978
vn -0.253538 -0.126295 -0.959045
vn -0.254258 -0.101742 -0.961770
vn -0.255584 0.000000 -0.966787
vn 0.266010 -0.083104 0.960381
vn 0.266017 -0.082806 0.960405
vn 0.266514 -0.056076 0.962199
vn 0.266891 0.017926 0.963560
vn 0.264284 0.140540 0.954150
vn 0.257609 0.262006 0.930049
vn 0.249793 0.352569 0.901831
vn 0.239397 0.442355 0.864298
vn 0.220338 0.564488 0.795490
vn 0.182479 0.729845 0.658807
vn 0.123723 0.886097 0.446681
vn 0.043702 0.986507 0.157780
vn -0.062334 0.972353 -0.225044
vn -0.150620 0.825596 -0.543787
vn -0.198548 0.668392 -0.716820
vn -0.227712 0.521805 -0.822111
vn -0.247450 0.375036 -0.893374
vn -0.258670 0.246901 -0.933879
vn -0.264092 0.145523 -0.953456
vn -0.266508 0.056455 -0.962178
vn -0.266818 -0.029447 -0.963297
vn -0.265210 -0.113464 -0.957491
vn -0.261754 -0.196043 -0.945014
vn -0.255393 -0.290861 -0.922049
vn -0.239325 -0.442900 -0.864039
vn -0.201215 -0.657104 -0.726449
vn -0.160795 -0.798210 -0.580522
vn -0.157511 -0.807349 -0.568663
vn -0.174164 -0.757821 -0.628788
vn -0.183063 -0.727789 -0.660917
vn -0.193691 -0.688102 -0.699285
vn -0.216958 -0.582571 -0.783288
vn -0.245541 -0.392252 -0.886481
vn -0.260636 -0.215936 -0.940978
vn -0.264796 -0.126295 -0.955998
vn -0.265548 -0.101742 -0.958714
vn -0.266934 0.000000 -0.963715
f 1/1/1 38/38/38 39/39/39
f 1/1/1 39/39/39 2/2/2
f 2/2/2 39/39/39 40/40/40
f 2/2/2 40/40/40 3/3/3
f 3/3/3 40/40/40 41/41/41
f 3/3/3 41/41/41 4/4/4
f 4/4/4 41/41/41 42/42/42
f 4/4/4 42/42/42 5/5/5
f 5/5/5 42/42/42 43/43/43
f 5/5/5 43/43/43 6/6/6
f 6/6/6 43/43/43 44/44/44
f 6/6/6 44/44/44 7/7/7
f 7/7/7 44/44/44 45/45/45
f 7/7/7 45/45/45 8/8/8
f 8/8/8 45/45/45 46/46/46
f 8/8/8 46/46/46 9/9/9
f 9/9/9 46/46/46 47/47/47
f 9/9/9 47/47/47 10/10/10
f 10/10/10 47/47/47 48/48/48
f 10/10/10 48/48/48 11/11/11
f 11/11/11 48/48/48 49/49/49
f 11/11/11 49/49/49 12/12/12
f 12/12/12 49/49/49 50/50/50
f 12/12/12 50/50/50 13/13/13
f 13/13/13 50/50/50 51/51/51
f 13/13/13 51/51/51 14/14/14
f 14/14/14 51/51/51 52/52/52
f 14/14/14 52/52/52 15/15/15
f 15/15/15 52/52/52 53/53/53
f 15/15/15 53/53/53 16/16/16
f 16/16/16 53/53/53 54/54/54
f 16/16/16 54/54/54 17/17/17
f 17/17/17 54/54/54 55/55/55
f 17/17/17 55/55/55 18/18/18
f 18/18/18 55/55/55 56/56/56
f 18/18/18 56/56/56 19/19/19
f 19/19/19 56/56/56 57/57/57
f 19/19/19 57/57/57 20/20/20
f 20/20/20 57/57/57 58/58/58
f 20/20/20 58/58/58 21/21/21
f 21/21/21 58/58/58 59/59/59
f 21/21/21 59/59/59 22/22/22
f 22/22/22 59/59/59 60/60/60
f 22/22/22 60/60/60 23/23/23
f 23/23/23 60/60/60 61/61/61
f 23/23/23 61/61/61 24/24/24
f 24/24/24 61/61/61 62/62/62
f 24/24/24 62/62/62 25/25/25
f 25/25/25 62/62/62 63/63/63
f 25/25/25 63/63/63 26/26/26
f 26/26/26 63/63/63 64/64/64
f 26/26/26 64/64/64 27/27/27
f 27/27/27 64/64/64 65/65/65
f 27/27/27 65/65/65 28/28/28
f 28/28/28 65/65/65 66/66/66
f 28/28/28 66/66/66 29/29/29
f 29/29/29 66/66/66 67/67/67
f 29/29/29 67/67/67 30/30/30
f 30/30/30 67/67/67 68/68/68
f 30/30/30 68/68/68 31/31/31
f 31/31/31 68/68/68 69/69/69
f 31/31/31 69/69/69 32/32/32
f 32/32/32 69/69/69 70/70/70
f 32/32/32 70/70/70 33/33/33
f 33/33/33 70/70/70 71/71/71
f 33/33/33 71/71/71 34/34/34
f 34/34/34 71/71/71 72/72/72
f 34/34/34 72/72/72 35/35/35
f 35/35/35 72/72/72 73/73/73
f 35/35/35 73/73/73 36/36/36
f 36/36/36 73/73/73 74/74/74
f 36/36/36 74/74/74 37/37/37
f 38/38/38 75/75/75 76/76/76
f 38/38/38 76/76/76 39/39/39
f 39/39/39 76/76/76 77/77/77
f 39/39/39 77/77/77 40/40/40
f 40/40/40 77/77/77 78/78/78
f 40/40/40 78/78/78 41/41/41
f 41/41/41 78/78/78 79/79/79
f 41/41/41 79/79/79 42/42/42
f 42/42/42 79/79/79 80/80/80
f 42/42/42 80/80/80 43/43/43
f 43/43/43 80/80/80 81/81/81
f 43/43/43 81/81/81 44/44/44
f 44/44/44 81/81/81 82/82/82
f 44/44/44 82/82/82 45/45/45
f 45/45/45 82/82/82 83/83/83
f 45/45/45 83/83/83 46/46/46
f 46/46/46 83/83/83 84/84/84
f 46/46/46 84/84/84 47/47/47
f 47/47/47 84/84/84 85/85/85
f 47/47/47 85/85/85 48/48/48
f 48/48/48 85/85/85 86/86/86
f 48/48/48 86/86/86 49/49/49
f 49/49/49 86/86/86 87/87/87
f 49/49/49 87/87/87 50/50/50
f 50/50/50 87/87/87 88/88/88
f 50/50/50 88/88/88 51/51/51
f 51/51/51 88/88/88 89/89/89
f 51/51/51 89/89/89 52/52/52
f 52/52/52 89/89/89 90/90/90
f 52/52/52 90/90/90 53/53/53
f 53/53/53 90/90/90 91/91/91
f 53/53/53 91/91/91 54/54/54
f 54/54/54 91/91/91 92/92/92
f 54/54/54 92/92/92 55/55/55
f 55/55/55 92/92/92 93/93/93
f 55/55/55 93/93/93 56/56/56
f 56/56/56 93/93/93 94/94/94
f 56/56/56 94/94/94 57/57/57
f 57/57/57 94/94/94 95/95/95
f 57/57/57 95/95/95 58/58/58
f 58/58/58 95/95/95 96/96/96
f 58/58/58 96/96/96 59/59/59
f 59/59/59 96/96/96 97/97/97
f 59/59/59 97/97/97 60/60/60
f 60/60/60 97/97/97 98/98/98
f 60/60/60 98/98/98 61/61/61
f 61/61/61 98/98/98 99/99/99
f 61/61/61 99/99/99 62/62/62
f 62/62/62 99/99/99 100/100/100
f 62/62/62 100/100/100 63/63/63
f 63/63/63 100/100/100 101/101/101
f 63/63/63 101/101/101 64/64/64
f 64/64/64 101/101/101 102/102/102
f 64/64/64 102/102/102 65/65/65
f 65/65/65 102/102/102 103/103/103
f 65/65/65 103/103/103 66/66/66
f 66/66/66 103/103/103 104/104/104
f 66/66/66 104/104/104 67/67/67
f 67/67/67 104/104/104 105/105/105
f 67/67/67 105/105/105 68/68/68
f 68/68/68 105/105/105 106/106/106
f 68/68/68 106/106/106 69/69/69
f 69/69/69 106/106/106 107/107/107
f 69/69/69 107/107/107 70/70/70
f 70/70/70 107/107/107 108/108/108
f 70/70/70 108/108/108 71/71/71
f 71/71/71 108/108/108 109/109/109
f 71/71/71 109/109/109 72/72/72
f 72/72/72 109/109/109 110/110/110
f 72/72/72 110/110/110 73/73/73
f 73/73/73 110/110/110 111/111/111
f 73/73/73 111/111/111 74/74/74
f 75/75/75 112/112/112 113/113/113
f 75/75/75 113/113/113 76/76/76
f 76/76/76 113/113/113 114/114/114
f 76/76/76 114/114/114 77/77/77
f 77/77/77 114/114/114 115/115/115
f 77/77/77 115/115/115 78/78/78
f 78/78/78 115/115/115 116/116/116
f 78/78/78 116/116/116 79/79/79
f 79/79/79 116/116/116 117/117/117
f 79/79/79 117/117/117 80/80/80
f 80/80/80 117/117/117 118/118/118
f 80/80/80 118/118/118 81/81/81
f 81/81/81 118/118/118 119/119/119
f 81/81/81 119/119/119 82/82/82
f 82/82/82 119/119/119 120/120/120
f 82/82/82 120/120/120 83/83/83
f 83/83/83 120/120/120 121/121/121
f 83/83/83 121/121/121 84/84/84
f 84/84/84 121/121/121 122/122/122
f 84/84/84 122/122/122 85/85/85
f 85/85/85 122/122/122 123/123/123
f 85/85/85 123/123/123 86/86/86
f 86/86/86 123/123/123 124/124/124
f 86/86/86 124/124/124 87/87/87
f 87/87/87 124/124/124 125/125/125
f 87/87/87 125/125/125 88/88/88
f 88/88/88 125/125/125 126/126/126
f 88/88/88 126/126/126 89/89/89
f 89/89/89 126/126/126 127/127/127
f 89/89/89 127/127/127 90/90/90
f 90/90/90 127/127/127 128/128/128
f 90/90/90 128/128/128 91/91/91
f 91/91/91 128/128/128 129/129/129
f 91/91/91 129/129/129 92/92/92
f 92/92/92 129/129/129 130/130/130
f 92/92/92 130/130/130 93/93/93
f 93/93/93 130/130/130 131/131/131
f 93/93/93 131/131/131 94/94/94
f 94/94/94 131/131/131 132/132/132
f 94/94/94 132/132/132 95/95/95
f 95/95/95 132/132/132 133/133/133
f 95/95/95 133/133/133 96/96/96
f 96/96/96 133/133/133 134/134/134
f 96/96/96 134/134/134 97/97/97
f 97/97/97 134/134/134 135/135/135
f 97/97/97 135/135/135 98/98/98
f 98/98/98 135/135/135 136/136/136
f 98/98/98 136/136/136 99/99/99
f 99/99/99 136/136/136 137/137/137
f 99/99/99 137/137/137 100/100/100
f 100/100/100 137/137/137 138/138/138
f 100/100/100 138/138/138 101/101/101
f 101/101/101 138/138/138 139/139/139
f 101/101/101 139/139/139 102/102/102
f 102/102/102 139/139/139 140/140/140
f 102/102/102 140/140/140 103/103/103
f 103/103/103 140/140/140 141/141/141
f 103/103/103 141/141/141 104/104/104
f 104/104/104 141/141/141 142/142/142
f 104/104/104 142/142/142 105/105/105
f 105/105/105 142/142/142 143/143/143
f 105/105/105 143/143/143 106/106/106
f 106/106/106 143/143/143 144/144/144
f 106/106/106 144/144/144 107/107/107
f 107/107/107 144/144/144 145/145/145
f 107/107/107 145/145/145 108/108/108
f 108/108/108 145/145/145 146/146/146
f 108/108/108 146/146/146 109/109/109
f 109/109/109 146/146/146 147/147/147
f 109/109/109 147/147/147 110/110/110
f 110/110/110 147/147/147 148/148/148
f 110/110/110 148/148/148 111/111/111
f 112/112/112 149/149/149 150/150/150
f 112/112/112 150/150/150 113/113/113
f 113/113/113 150/150/150 151/151/151
f 113/113/113 151/151/151 114/114/114
f 114/114/114 151/151/151 152/152/152
f 114/114/114 152/152/152 115/115/115
f 115/115/115 152/152/152 153/153/153
f 115/115/115 153/153/153 116/116/116
f 116/116/116 153/153/153 154/154/154
f 116/116/116 154/154/154 117/117/117
f 117/117/117 154/154/154 155/155/155
f 117/117/117 155/155/155 118/118/118
f 118/118/118 155/155/155 156/156/156
f 118/118/118 156/156/156 119/119/119
f 119/119/119 156/156/156 157/157/157
f 119/119/119 157/157/157 120/120/120
f 120/120/120 157/157/157 158/158/158
f 120/120/120 158/158/158 121/121/121
f 121/121/121 158/158/158 159/159/159
f 121/121/121 159/159/159 122/122/122
f 122/122/122 159/159/159 160/160/160
f 122/122/122 160/160/160 123/123/123
f 123/123/123 160/160/160 161/161/161
f 123/123/123 161/161/161 124/124/124
f 124/124/124 161/161/161 162/162/162
f 124/124/124 162/162/162 125/125/125
f 125/125/125 162/162/162 163/163/163
f 125/125/125 163/163/163 126/126/126
f 126/126/126 163/163/163 164/164/164
f 126/126/126 164/164/164 127/127/127
f 127/127/127 164/164/164 165/165/165
f 127/127/127 165/165/165 128/128/128
f 128/128/128 165/165/165 166/166/166
f 128/128/128 166/166/166 129/129/129
f 129/129/129 166/166/166 167/167/167
f 129/129/129 167/167/167 130/130/130
f 130/130/130 167/167/167 168/168/168
f 130/130/130 168/168/168 131/131/131
f 131/131/131 168/168/168 169/169/169
f 131/131/131 169/169/169 132/132/132
f 132/132/132 169/169/169 170/170/170
f 132/132/132 170/170/170 133/133/133
f 133/133/133 170/170/170 171/171/171
f 133/133/133 171/171/171 134/134/134
f 134/134/134 171/171/171 172/172/172
f 134/134/134 172/172/172 135/135/135
f 135/135/135 172/172/172 173/173/173
f 135/135/135 173/173/173 136/136/136
f 136/136/136 173/173/173 174/174/174
f 136/136/136 174/174/174 137/137/137
f 137/137/137 174/174/174 175/175/175
f 137/137/137 175/175/175 138/138/138
f 138/138/138 175/175/175 176/176/176
f 138/138/138 176/176/176 139/139/139
f 139/139/139 176/176/176 177/177/177
f 139/139/139 177/177/177 140/140/140
f 140/140/140 177/177/177 178/178/178
f 140/140/140 178/178/178 141/141/141
f 141/141/141 178/178/178 179/179/179
f 141/141/141 179/179/179 142/142/142
f 142/142/142 179/179/179 180/180/180
f 142/142/142 180/180/180 143/143/143
f 143/143/143 180/180/180 181/181/181
f 143/143/143 181/181/181 144/144/144
f 144/144/144 181/181/181 182/182/182
f 144/144/144 182/182/182 145/145/145
f 145/145/145 182/182/182 183/183/183
f 145/145/145 183/183/183 146/146/146
f 146/146/146 183/183/183 184/184/184
f 146/146/146 184/184/184 147/147/147
f 147/147/147 184/184/184 185/185/185
f 147/147/147 185/185/185 148/148/148
f 149/149/149 186/186/186 187/187/187
f 149/149/149 187/187/187 150/150/150
f 150/150/150 187/187/187 188/188/188
f 150/150/150 188/188/188 151/151/151
f 151/151/151 188/188/188 189/189/189
f 151/151/151 189/189/189 152/152/152
f 152/152/152 189/189/189 190/190/190
f 152/152/152 190/190/190 153/153/153
f 153/153/153 190/190/190 191/191/191
f 153/153/153 191/191/191 154/154/154
f 154/154/154 191/191/191 192/192/192
f 154/154/154 192/192/192 155/155/155
f 155/155/155 192/192/192 193/193/193
f 155/155/155 193/193/193 156/156/156
f 156/156/156 193/193/193 194/194/194
f 156/156/156 194/194/194 157/157/157
f 157/157/157 194/194/194 195/195/195
f 157/157/157 195/195/195 158/158/158
f 158/158/158 195/195/195 196/196/196
f 158/158/158 196/196/196 159/159/159
f 159/159/159 196/196/196 197/197/197
f 159/159/159 197/197/197 160/160/160
f 160/160/160 197/197/197 198/198/198
f 160/160/160 198/198/198 161/161/161
f 161/161/161 198/198/198 199/199/199
f 161/161/161 199/199/199 162/162/162
f 162/162/162 199/199/199 200/200/200
f 162/162/162 200/200/200 163/163/163
f 163/163/163 200/200/200 201/201/201
f 163/163/163 201/201/201 164/164/164
f 164/164/164 201/201/201 202/202/202
f 164/164/164 202/202/202 165/165/165
f 165/165/165 202/202/202 203/203/203
f 165/165/165 203/203/203 166/166/166
f 166/166/166 203/203/203 204/204/204
f 166/166/166 204/204/204 167/167/167
f 167/167/167 204/204/204 205/205/205
f 167/167/167 205/205/205 168/168/168
f 168/168/168 205/205/205 206/206/206
f 168/168/168 206/206/206 169/169/169
f 169/169/169 206/206/206 207/207/207
f 169/169/169 207/207/207 170/170/170
f 170/170/170 207/207/207 208/208/208
f 170/170/170 208/208/208 171/171/171
f 171/171/171 208/208/208 209/209/209
f 171/171/171 209/209/209 172/172/172
f 172/172/172 209/209/209 210/210/210
f 172/172/172 210/210/210 173/173/173
f 173/173/173 210/210/210 211/211/211
f 173/173/173 211/211/211 174/174/174
f 174/174/174 211/211/211 212/212/212
f 174/174/174 212/212/212 175/175/175
f 175/175/175 212/212/212 213/213/213
f 175/175/175 213/213/213 176/176/176
f 176/176/176 213/213/213 214/214/214
f 176/176/176 214/214/214 177/177/177
f 177/177/177 214/214/214 215/215/215
f 177/177/177 215/215/215 178/178/178
f 178/178/178 215/215/215 216/216/216
f 178/178/178 216/216/216 179/179/179
f 179/179/179 216/216/216 217/217/217
f 179/179/179 217/217/217 180/180/180
f 180/180/180 217/217/217 218/218/218
f 180/180/180 218/218/218 181/181/181
f 181/181/181 218/218/218 219/219/219
f 181/181/181 219/219/219 182/182/182
f 182/182/182 219/219/219 220/220/220
f 182/182/182 220/220/220 183/183/183
f 183/183/183 220/220/220 221/221/221
f 183/183/183 221/221/221 184/184/184
f 184/184/184 221/221/221 222/222/222
f 184/184/184 222/222/222 185/185/185
f 186/186/186 223/223/223 224/224/224
f 186/186/186 224/224/224 187/187/187
f 187/187/187 224/224/224 225/225/225
f 187/187/187 225/225/225 188/188/188
f 188/188/188 225/225/225 226/226/226
f 188/188/188 226/226/226 189/189/189
f 189/189/189 226/226/226 227/227/227
f 189/189/189 227/227/227 190/190/190
f 190/190/190 227/227/227 228/228/228
f 190/190/190 228/228/228 191/191/191
f 191/191/191 228/228/228 229/229/229
f 191/191/191 229/229/229 192/192/192
f 192/192/192 229/229/229 230/230/230
f 192/192/192 230/230/230 193/193/193
f 193/193/193 230/230/230 231/231/231
f 193/193/193 231/231/231 194/194/194
f 194/194/194 231/231/231 232/232/232
f 194/194/194 232/232/232 195/195/195
f 195/195/195 232/232/232 233/233/233
f 195/195/195 233/233/233 196/196/196
f 196/196/196 233/233/233 234/234/234
f 196/196/196 234/234/234 197/197/197
f 197/197/197 234/234/234 235/235/235
f 197/197/197 235/235/235 198/198/198
f 198/198/198 235/235/235 236/236/236
f 198/198/198 236/236/236 199/199/199
f 199/199/199 236/236/236 237/237/237
f 199/199/199 237/237/237 200/200/200
f 200/200/200 237/237/237 238/238/238
f 200/200/200 238/238/238 201/201/201
f 201/201/201 238/238/238 239/239/239
f 201/201/201 239/239/239 202/202/202
f 202/202/202 239/239/239 240/240/240
f 202/202/202 240/240/240 203/203/203
f 203/203/203 240/240/240 241/241/241
f 203/203/203 241/241/241 204/204/204
f 204/204/204 241/241/241 242/242/242
f 204/204/204 242/242/242 205/205/205
f 205/205/205 242/242/242 243/243/243
f 205/205/205 243/243/243 206/206/206
f 206/206/206 243/243/243 244/244/244
f 206/206/206 244/244/244 207/207/207
f 207/207/207 244/244/244 245/245/245
f 207/207/207 245/245/245 208/208/208
f 208/208/208 245/245/245 246/246/246
f 208/208/208 246/246/246 209/209/209
f 209/209/209 246/246/246 247/247/247
f 209/209/209 247/247/247 210/210/210
f 210/210/210 247/247/247 248/248/248
f 210/210/210 248/248/248 211/211/211
f 211/211/211 248/248/248 249/249/249
f 211/211/211 249/249/249 212/212/212
f 212/212/212 249/249/249 250/250/250
f 212/212/212 250/250/250 213/213/213
f 213/213/213 250/250/250 251/251/251
f 213/213/213 251/251/251 214/214/214
f 214/214/214 251/251/251 252/252/252
f 214/214/214 252/252/252 215/215/215
f 215/215/215 252/252/252 253/253/253
f 215/215/215 253/253/253 216/216/216
f 216/216/216 253/253/253 254/254/254
f 216/216/216 254/254/254 217/217/217
f 217/217/217 254/254/254 255/255/255
f 217/217/217 255/255/255 218/218/218
f 218/218/218 255/255/255 256/256/256
f 218/218/218 256/256/256 219/219/219
f 219/219/219 256/256/256 257/257/257
f 219/219/219 257/257/257 220/220/220
f 220/220/220 257/257/257 258/258/258
f 220/220/220 258/258/258 221/221/221
f 221/221/221 258/258/258 259/259/259
f 221/221/221 259/259/259 222/222/222
f 223/223/223 260/260/260 261/261/261
f 223/223/223 261/261/261 224/224/224
f 224/224/224 261/261/261 262/262/262
f 224/224/224 262/262/262 225/225/225
f 225/225/225 262/262/262 263/263/263
f 225/225/225 263/263/263 226/226/226
f 226/226/226 263/263/263 264/264/264
f 226/226/226 264/264/264 227/227/227
f 227/227/227 264/264/264 265/265/265
f 227/227/227 265/265/265 228/228/228
f 228/228/228 265/265/265 266/266/266
f 228/228/228 266/266/266 229/229/229
f 229/229/229 266/266/266 267/267/267
f 229/229/229 267/267/267 230/230/230
f 230/230/230 267/267/267 268/268/268
f 230/230/230 268/268/268 231/231/231
f 231/231/231 268/268/268 269/269/269
f 231/231/231 269/269/269 232/232/232
f 232/232/232 269/269/269 270/270/270
f 232/232/232 270/270/270 233/233/233
f 233/233/233 270/270/270 271/271/271
f 233/233/233 271/271/271 234/234/234
f 234/234/234 271/271/271 272/272/272
f 234/234/234 272/272/272 235/235/235
f 235/235/235 272/272/272 273/273/273
f 235/235/235 273/273/273 236/236/236
f 236/236/236 273/273/273 274/274/274
f 236/236/236 274/274/274 237/237/237
f 237/237/237 274/274/274 275/275/275
f 237/237/237 275/275/275 238/238/238
f 238/238/238 275/275/275 276/276/276
f 238/238/238 276/276/276 239/239/239
f 239/239/239 276/276/276 277/277/277
f 239/239/239 277/277/277 240/240/240
f 240/240/240 277/277/277 278/278/278
f 240/240/240 278/278/278 241/241/241
f 241/241/241 278/278/278 279/279/279
f 241/241/241 279/279/279 242/242/242
f 242/242/242 279/279/279 280/280/280
f 242/242/242 280/280/280 243/243/243
f 243/243/243 280/280/280 281/281/281
f 243/243/243 281/281/281 244/244/244
f 244/244/244 281/281/281 282/282/282
f 244/244/244 282/282/282 245/245/245
f 245/245/245 282/282/282 283/283/283
f 245/245/245 283/283/283 246/246/246
f 246/246/246 283/283/283 284/284/284
f 246/246/246 284/284/284 247/247/247
f 247/247/247 284/284/284 285/285/285
f 247/247/247 285/285/285 248/248/248
f 248/248/248 285/285/285 286/286/286
f 248/248/248 286/286/286 249/249/249
f 249/249/249 286/286/286 287/287/287
f 249/249/249 287/287/287 250/250/250
f 250/250/250 287/287/287 288/288/288
f 250/250/250 288/288/288 251/251/251
f 251/251/251 288/288/288 289/289/289
f 251/251/251 289/289/289 252/252/252
f 252/252/252 289/289/289 290/290/290
f 252/252/252 290/290/290 253/253/253
f 253/253/253 290/290/290 291/291/291
f 253/253/253 291/291/291 254/254/254
f 254/254/254 291/291/291 292/292/292
f 254/254/254 292/292/292 255/255/255
f 255/255/255 292/292/292 293/293/293
f 255/255/255 293/293/293 256/256/256
f 256/256/256 293/293/293 294/294/294
f 256/256/256 294/294/294 257/257/257
f 257/257/257 294/294/294 295/295/295
f 257/257/257 295/295/295 258/258/258
f 258/258/258 295/295/295 296/296/296
f 258/258/258 296/296/296 259/259/259
f 260/260/260 297/297/297 298/298/298
f 260/260/260 298/298/298 261/261/261
f 261/261/261 298/298/298 299/299/299
f 261/261/261 299/299/299 262/262/262
f 262/262/262 299/299/299 300/300/300
f 262/262/262 300/300/300 263/263/263
f 263/263/263 300/300/300 301/301/301
f 263/263/263 301/301/301 264/264/264
f 264/264/264 301/301/301 302/302/302
f 264/264/264 302/302/302 265/265/265
f 265/265/265 302/302/302 303/303/303
f 265/265/265 303/303/303 266/266/266
f 266/266/266 303/303/303 304/304/304
f 266/266/266 304/304/304 267/267/267
f 267/267/267 304/304/304 305/305/305
f 267/267/267 305/305/305 268/268/268
f 268/268/268 305/305/305 306/306/306
f 268/268/268 306/306/306 269/269/269
f 269/269/269 306/306/306 307/307/307
f 269/269/269 307/307/307 270/270/270
f 270/270/270 307/307/307 308/308/308
f 270/270/270 308/308/308 271/271/271
f 271/271/271 308/308/308 309/309/309
f 271/271/271 309/309/309 272/272/272
f 272/272/272 309/309/309 310/310/310
f 272/272/272 310/310/310 273/273/273
f 273/273/273 310/310/310 311/311/311
f 273/273/273 311/311/311 274/274/274
f 274/274/274 311/311/311 312/312/312
f 274/274/274 312/312/312 275/275/275
f 275/275/275 312/312/312 313/313/313
f 275/275/275 313/313/313 276/276/276
f 276/276/276 313/313/313 314/314/314
f 276/276/276 314/314/314 277/277/277
f 277/277/277 314/314/314 315/315/315
f 277/277/277 315/315/315 278/278/278
f 278/278/278 315/315/315 316/316/316
f 278/278/278 316/316/316 279/279/279
f 279/279/279 316/316/316 317/317/317
f 279/279/279 317/317/317 280/280/280
f 280/280/280 317/317/317 318/318/318
f 280/280/280 318/318/318 281/281/281
f 281/281/281 318/318/318 319/319/319
f 281/281/281 319/319/319 282/282/282
f 282/282/282 319/319/319 320/320/320
f 282/282/282 320/320/320 283/283/283
f 283/283/283 320/320/320 321/321/321
f 283/283/283 321/321/321 284/284/284
f 284/284/284 321/321/321 322/322/322
f 284/284/284 322/322/322 285/285/285
f 285/285/285 322/322/322 323/323/323
f 285/285/285 323/323/323 286/286/286
f 286/286/286 323/323/323 324/324/324
f 286/286/286 324/324/324 287/287/287
f 287/287/287 324/324/324 325/325/325
f 287/287/287 325/325/325 288/288/288
f 288/288/288 325/325/325 326/326/326
f 288/288/288 326/326/326 289/289/289
f 289/289/289 326/326/326 327/327/327
f 289/289/289 327/327/327 290/290/290
f 290/290/290 327/327/327 328/328/328
f 290/290/290 328/328/328 291/291/291
f 291/291/291 328/328/328 329/329/329
f 291/291/291 329/329/329 292/292/292
f 292/292/292 329/329/329 330/330/330
f 292/292/292 330/330/330 293/293/293
f 293/293/293 330/330/330 331/331/331
f 293/293/293 331/331/331 294/294/294
f 294/294/294 331/331/331 332/332/332
f 294/294/294 332/332/332 295/295/295
f 295/295/295 332/332/332 333/333/333
f 295/295/295 333/333/333 296/296/296
