# Generated sky cornice; visual geometry only.
s 1
v 30.178779 -4.994750 32.347088
v 30.119294 -3.257686 32.505404
v 30.024621 -0.693059 32.757371
v 29.980217 2.097820 32.875551
v 30.071538 4.510061 32.632503
v 30.330423 6.478704 31.943495
v 30.708277 8.270972 30.937855
v 31.169912 9.776942 29.709236
v 31.680141 10.886225 28.351288
v 32.260746 11.550257 26.806038
v 32.920106 11.806666 25.051186
v 33.602924 11.676449 23.233899
v 34.253905 11.183652 21.501345
v 34.897765 10.237741 19.787745
v 35.550841 8.850231 18.049616
v 36.145270 7.203922 16.467574
v 36.613189 5.485532 15.222231
v 36.943288 3.734831 14.343690
v 37.169497 1.874178 13.741644
v 37.291818 -0.081505 13.416094
v 37.310250 -2.115910 13.367038
v 37.215996 -4.305953 13.617890
v 37.011988 -6.604226 14.160847
v 36.715821 -8.808729 14.949081
v 36.345089 -10.719819 15.935767
v 35.863765 -12.210050 17.216786
v 35.276038 -13.396633 18.780990
v 34.659826 -14.491465 20.421008
v 34.093045 -15.697786 21.929467
v 33.566060 -16.997759 23.332010
v 33.047453 -18.320030 24.712256
v 32.582467 -19.758250 25.949795
v 32.216342 -21.406072 26.924217
v 31.975470 -23.546679 27.565284
v 31.830948 -26.044054 27.949924
v 31.745072 -28.363045 28.178479
v 31.680141 -29.968501 28.351288
v 24.297951 -4.715016 26.904002
v 24.235945 -3.061843 27.048331
v 24.137260 -0.601451 27.278036
v 24.090974 2.096224 27.385774
v 24.186166 4.456478 27.164200
v 24.456022 6.413130 26.536067
v 24.849888 8.212690 25.619277
v 25.331087 9.745097 24.499207
v 25.862938 10.899665 23.261236
v 26.468148 11.624271 21.852510
v 27.155450 11.948718 20.252701
v 27.867205 11.888009 18.595974
v 28.545774 11.461204 17.016493
v 29.216919 10.580596 15.454291
v 29.897671 9.256336 13.869729
v 30.517291 7.661828 12.427461
v 31.005040 5.975697 11.292146
v 31.349127 4.239227 10.491225
v 31.584923 2.384026 9.942371
v 31.712428 0.429955 9.645583
v 31.731641 -1.601281 9.600862
v 31.633393 -3.775813 9.829551
v 31.420739 -6.042623 10.324536
v 31.112021 -8.205338 11.043129
v 30.725578 -10.070719 11.942640
v 30.223856 -11.514872 13.110480
v 29.611223 -12.646346 14.536485
v 28.968897 -13.679860 16.031605
v 28.378097 -14.818621 17.406790
v 27.828779 -16.045788 18.685417
v 27.288195 -17.294004 19.943716
v 26.803503 -18.651676 21.071917
v 26.421862 -20.207210 21.960248
v 26.170783 -22.227931 22.544676
v 26.020136 -24.585439 22.895333
v 25.930620 -26.774553 23.103694
v 25.862938 -28.290094 23.261236
v 18.426239 -4.458436 21.493507
v 18.362074 -2.877644 21.625139
v 18.259951 -0.499425 21.834638
v 18.212053 2.134274 21.932899
v 18.310561 4.475181 21.730815
v 18.589815 6.454337 21.157937
v 18.997401 8.297295 20.321794
v 19.495360 9.891721 19.300254
v 20.045735 11.124448 18.171183
v 20.672025 11.937945 16.886379
v 21.383266 12.352892 15.427300
v 22.119811 12.377149 13.916311
v 22.822015 12.023965 12.475772
v 23.516537 11.207459 11.050993
v 24.220999 9.936281 9.605819
v 24.862201 8.375512 8.290424
v 25.366938 6.697156 7.254979
v 25.723010 4.945161 6.524513
v 25.967019 3.061291 6.023939
v 26.098964 1.071904 5.753259
v 26.118847 -0.994192 5.712472
v 26.017176 -3.191027 5.921044
v 25.797116 -5.462136 6.372487
v 25.477645 -7.614369 7.027867
v 25.077742 -9.458733 7.848251
v 24.558545 -10.873369 8.913359
v 23.924574 -11.958162 10.213923
v 23.259875 -12.935435 11.577521
v 22.648497 -14.012227 12.831736
v 22.080047 -15.172615 13.997886
v 21.520634 -16.352906 15.145496
v 21.019060 -17.636697 16.174452
v 20.624127 -19.107583 16.984639
v 20.364303 -21.018341 17.517657
v 20.208408 -23.247559 17.837468
v 20.115775 -25.317547 18.027500
v 20.045735 -26.750616 18.171183
v 12.547703 -4.259895 16.138736
v 12.481107 -2.731704 16.259880
v 12.375118 -0.407050 16.452686
v 12.325406 2.193194 16.543117
v 12.427644 4.540269 16.357136
v 12.717474 6.561831 15.829904
v 13.140495 8.465756 15.060384
v 13.657313 10.136347 14.120239
v 14.228533 11.456873 13.081131
v 14.878541 12.364020 11.898698
v 15.616718 12.869952 10.555877
v 16.381158 12.975780 9.165281
v 17.109955 12.689329 7.839523
v 17.830780 11.925559 6.528268
v 18.561922 10.691779 5.198244
v 19.227407 9.146841 3.987658
v 19.751259 7.458229 3.034716
v 20.120816 5.672902 2.362452
v 20.374066 3.741729 1.901764
v 20.511009 1.697568 1.652651
v 20.531644 -0.423676 1.615113
v 20.426123 -2.665021 1.807067
v 20.197729 -4.964193 2.222539
v 19.866159 -7.129088 2.825700
v 19.451111 -8.972785 3.580716
v 18.912251 -10.374090 4.560958
v 18.254270 -11.425648 5.757895
v 17.564398 -12.359401 7.012843
v 16.929866 -13.388242 8.167123
v 16.339887 -14.496956 9.240356
v 15.759288 -15.624687 10.296527
v 15.238719 -16.851309 11.243497
v 14.828829 -18.256694 11.989129
v 14.559165 -20.082363 12.479677
v 14.397366 -22.212311 12.774005
v 14.301225 -24.190119 12.948896
v 14.228533 -25.559371 13.081131
v 6.644952 -4.147416 10.854262
v 6.574968 -2.645053 10.967703
v 6.463583 -0.339061 11.148250
v 6.411341 2.260943 11.232931
v 6.518783 4.636160 11.058776
v 6.823364 6.710887 10.565068
v 7.267916 8.681281 9.844479
v 7.811037 10.427875 8.964114
v 8.411330 11.829994 7.991078
v 9.094421 12.819189 6.883831
v 9.870168 13.401103 5.626395
v 10.673515 13.571592 4.324222
v 11.439405 13.334333 3.082763
v 12.196917 12.604095 1.854885
v 12.965271 11.387214 0.609432
v 13.664626 9.839264 -0.524178
v 14.215141 8.125867 -1.416526
v 14.603507 6.296800 -2.046043
v 14.869647 4.309543 -2.477438
v 15.013559 2.202347 -2.710711
v 15.035244 0.017011 -2.745862
v 14.924353 -2.281324 -2.566114
v 14.684335 -4.625235 -2.177060
v 14.335889 -6.821526 -1.612252
v 13.899716 -8.683032 -0.905243
v 13.333431 -10.087870 0.012669
v 12.641961 -11.123963 1.133497
v 11.916977 -12.033062 2.308649
v 11.250150 -13.034737 3.389533
v 10.630144 -14.114177 4.394523
v 10.019995 -15.212131 5.383536
v 9.472930 -16.406365 6.270292
v 9.042179 -17.774642 6.968513
v 8.758790 -19.552106 7.427868
v 8.588756 -21.625814 7.703482
v 8.487722 -23.551401 7.867252
v 8.411330 -24.884499 7.991078
v 0.701728 -4.138872 5.644858
v 0.626750 -2.631039 5.753571
v 0.507419 -0.304600 5.926591
v 0.451450 2.330401 6.007743
v 0.566557 4.753876 5.840846
v 0.892869 6.887170 5.367719
v 1.369136 8.922361 4.677168
v 1.951007 10.736201 3.833500
v 2.594127 12.204123 2.901026
v 3.325953 13.253801 1.839934
v 4.157046 13.887210 0.634914
v 5.017707 14.097135 -0.612978
v 5.838239 13.884918 -1.802687
v 6.649796 13.164068 -2.979381
v 7.472968 11.940447 -4.172917
v 8.222219 10.369848 -5.259273
v 8.812009 8.619065 -6.114424
v 9.228084 6.740163 -6.717699
v 9.513211 4.693845 -7.131112
v 9.667391 2.521975 -7.354660
v 9.690623 0.270303 -7.388346
v 9.571820 -2.091817 -7.216091
v 9.314678 -4.493094 -6.843254
v 8.941372 -6.737093 -6.301990
v 8.474081 -8.633981 -5.624454
v 7.867394 -10.059832 -4.744804
v 7.126591 -11.101047 -3.670698
v 6.349884 -12.008273 -2.544532
v 5.635482 -13.007884 -1.508705
v 4.971242 -14.085100 -0.545607
v 4.317562 -15.180792 0.402179
v 3.731467 -16.372566 1.251970
v 3.269984 -17.738024 1.921086
v 2.966376 -19.511827 2.361293
v 2.784212 -21.581263 2.625418
v 2.675969 -23.502882 2.782361
v 2.594127 -24.833234 2.901026
v -5.294486 -4.239886 0.505550
v -5.376557 -2.694429 0.612311
v -5.507176 -0.308791 0.782226
v -5.568439 2.394396 0.861920
v -5.442444 4.882125 0.698020
v -5.085265 7.073520 0.233386
v -4.563944 9.164997 -0.444769
v -3.927032 11.029911 -1.273291
v -3.223076 12.540258 -2.189027
v -2.422023 13.621560 -3.231070
v -1.512313 14.275490 -4.414458
v -0.570237 14.494360 -5.639949
v 0.327913 14.279322 -6.808301
v 1.216238 13.541637 -7.963872
v 2.117279 12.287263 -9.135982
v 2.937405 10.675851 -10.202836
v 3.582986 8.878407 -11.042636
v 4.038419 6.948500 -11.635082
v 4.350518 4.846172 -12.041073
v 4.519282 2.614666 -12.260609
v 4.544713 0.301234 -12.293690
v 4.414672 -2.125117 -12.124527
v 4.133205 -4.590975 -11.758383
v 3.724587 -6.894759 -11.226836
v 3.213092 -8.841709 -10.561462
v 2.549015 -10.304657 -9.697603
v 1.738137 -11.371980 -8.642779
v 0.887957 -12.301348 -7.536829
v 0.105976 -13.325357 -6.519596
v -0.621098 -14.428863 -5.573788
v -1.336613 -15.551297 -4.643016
v -1.978149 -16.772157 -3.808479
v -2.483287 -18.170941 -3.151375
v -2.815614 -19.988035 -2.719070
v -3.015010 -22.107978 -2.459687
v -3.133492 -24.076496 -2.305561
v -3.223076 -25.439317 -2.189027
v -11.350197 -4.443168 -4.577105
v -11.441717 -2.831246 -4.470051
v -11.587376 -0.353679 -4.299670
v -11.655694 2.443157 -4.219756
v -11.515191 5.002801 -4.384106
v -11.116885 7.243270 -4.850016
v -10.535538 9.373670 -5.530033
v -9.825290 11.264873 -6.360830
v -9.040279 12.786428 -7.279079
v -8.146990 13.863866 -8.323983
v -7.132534 14.502196 -9.510620
v -6.081986 14.696109 -10.739476
v -5.080420 14.448884 -11.911035
v -4.089810 13.668805 -13.069778
v -3.085022 12.362530 -14.245107
v -2.170464 10.696880 -15.314890
v -1.450549 8.849715 -16.156995
v -0.942676 6.875040 -16.751067
v -0.594642 4.728188 -17.158173
v -0.406445 2.451186 -17.378311
v -0.378087 0.089956 -17.411483
v -0.523101 -2.391675 -17.241856
v -0.836977 -4.920341 -16.874707
v -1.292644 -7.288039 -16.341700
v -1.863034 -9.293394 -15.674499
v -2.603574 -10.805180 -14.808269
v -3.507819 -11.917212 -13.750549
v -4.455891 -12.891138 -12.641563
v -5.327911 -13.964243 -11.621538
v -6.138702 -15.120657 -10.673133
v -6.936604 -16.296906 -9.739806
v -7.652008 -17.576300 -8.902978
v -8.215308 -19.042149 -8.244070
v -8.585900 -20.946364 -7.810578
v -8.808256 -23.167948 -7.550483
v -8.940380 -25.230848 -7.395933
v -9.040279 -26.659009 -7.279079
v -17.464347 -4.729364 -9.622755
v -17.567632 -3.028990 -9.513942
v -17.732016 -0.437063 -9.340761
v -17.809116 2.467491 -9.259535
v -17.650551 5.096603 -9.426585
v -17.201042 7.368589 -9.900151
v -16.544961 9.512619 -10.591343
v -15.743408 11.398475 -11.435793
v -14.857482 12.894739 -12.369131
v -13.849358 13.929353 -13.431207
v -12.704490 14.514215 -14.637344
v -11.518890 14.649202 -15.886394
v -10.388570 14.341979 -17.077205
v -9.270615 13.497503 -18.254990
v -8.136657 12.123686 -19.449633
v -7.104531 10.397124 -20.536996
v -6.292068 8.504422 -21.392940
v -5.718906 6.498768 -21.996775
v -5.326131 4.326995 -22.410570
v -5.113741 2.027204 -22.634326
v -5.081737 -0.358967 -22.668043
v -5.245394 -2.877454 -22.495628
v -5.599619 -5.457361 -22.122446
v -6.113864 -7.883812 -21.580680
v -6.757579 -9.947943 -20.902515
v -7.593318 -11.514194 -20.022050
v -8.613807 -12.684831 -18.946948
v -9.683756 -13.721491 -17.819738
v -10.667877 -14.863717 -16.782951
v -11.582898 -16.094618 -15.818960
v -12.483372 -17.346633 -14.870296
v -13.290744 -18.708437 -14.019716
v -13.926458 -20.268705 -13.349980
v -14.344691 -22.295575 -12.909365
v -14.595631 -24.660257 -12.644995
v -14.744740 -26.856034 -12.487906
v -14.857482 -28.376187 -12.369131
v -23.627745 -5.069320 -14.654351
v -23.744747 -3.267357 -14.543222
v -23.930961 -0.549826 -14.366355
v -24.018301 2.466286 -14.283399
v -23.838678 5.156321 -14.454006
v -23.329473 7.440214 -14.937652
v -22.586264 9.572460 -15.643555
v -21.678264 11.423181 -16.505979
v -20.674684 12.861496 -17.459184
v -19.532680 13.819843 -18.543865
v -18.235773 14.319784 -19.775676
v -16.892723 14.368611 -21.051311
v -15.612294 13.980147 -22.267469
v -14.345873 13.055974 -23.470323
v -13.061324 11.605685 -24.690394
v -11.892130 9.817266 -25.800902
v -10.971770 7.887096 -26.675064
v -10.322492 5.866423 -27.291752
v -9.877556 3.690703 -27.714355
v -9.636960 1.391881 -27.942874
v -9.600706 -0.995135 -27.977308
v -9.786096 -3.529565 -27.801223
v -10.187363 -6.145069 -27.420098
v -10.769901 -8.620088 -26.866801
v -11.499102 -10.738104 -26.174201
v -12.445829 -12.359337 -25.274995
v -13.601840 -13.596641 -24.177010
v -14.813880 -14.707818 -23.025807
v -15.928694 -15.932149 -21.966951
v -16.965231 -17.251531 -20.982442
v -17.985290 -18.593543 -20.013586
v -18.899882 -20.053235 -19.144901
v -19.620020 -21.725658 -18.460910
v -20.093795 -23.898224 -18.010916
v -20.378060 -26.432884 -17.740919
v -20.546971 -28.786497 -17.580487
v -20.674684 -30.415922 -17.459184
v -29.823626 -5.427491 -19.695005
v -29.955631 -3.519895 -19.581919
v -30.165724 -0.674138 -19.401937
v -30.264263 2.452926 -19.317520
v -30.061607 5.198479 -19.491131
v -29.487105 7.484666 -19.983295
v -28.648593 9.593265 -20.701631
v -27.624158 11.395414 -21.579244
v -26.491887 12.761468 -22.549236
v -25.203442 13.629265 -23.653021
v -23.740228 14.031139 -24.906526
v -22.224957 13.982700 -26.204628
v -20.780336 13.504636 -27.442205
v -19.351518 12.495210 -28.666243
v -17.902249 10.965859 -29.907802
v -16.583126 9.116483 -31.037867
v -15.544747 7.153512 -31.927425
v -14.812211 5.125758 -32.554974
v -14.310219 2.956183 -32.985020
v -14.038772 0.669640 -33.217564
v -13.997869 -1.706712 -33.252604
v -14.207032 -4.246762 -33.073418
v -14.659754 -6.889626 -32.685581
v -15.316992 -9.407296 -32.122539
v -16.139700 -11.575687 -31.417741
v -17.207827 -13.250948 -30.502699
v -18.512077 -14.557307 -29.385376
v -19.879539 -15.746994 -28.213898
v -21.137308 -17.057830 -27.136394
v -22.306763 -18.470432 -26.134546
v -23.457626 -19.907263 -25.148626
v -24.489498 -21.470090 -24.264642
v -25.301981 -23.260677 -23.568605
v -25.836509 -25.586745 -23.110685
v -26.157226 -28.300491 -22.835934
v -26.347797 -30.820397 -22.672676
v -26.491887 -32.564948 -22.549236
v -36.029328 -5.766104 -24.765044
v -36.176726 -3.756964 -24.651165
v -36.411317 -0.785049 -24.469921
v -36.521346 2.454811 -24.384913
v -36.295060 5.263261 -24.559741
v -35.653568 7.563923 -25.055356
v -34.717280 9.663652 -25.778729
v -33.573390 11.433755 -26.662495
v -32.309090 12.744950 -27.639289
v -30.870404 13.539384 -28.750813
v -29.236572 13.858867 -30.013107
v -27.544611 13.726266 -31.320311
v -25.931539 13.168303 -32.566565
v -24.336113 12.079823 -33.799186
v -22.717851 10.473917 -35.049450
v -21.244911 8.561853 -36.187440
v -20.085450 6.559858 -37.083235
v -19.267496 4.514911 -37.715184
v -18.706969 2.338776 -38.148245
v -18.403869 0.050325 -38.382419
v -18.358197 -2.329819 -38.417706
v -18.591750 -4.888602 -38.237264
v -19.097262 -7.569511 -37.846706
v -19.831137 -10.137733 -37.279717
v -20.749779 -12.361429 -36.569977
v -21.942455 -14.092452 -35.648519
v -23.398787 -15.465515 -34.523361
v -24.925704 -16.729425 -33.343670
v -26.330136 -18.122042 -32.258610
v -27.635956 -19.622774 -31.249738
v -28.921016 -21.149247 -30.256904
v -30.073210 -22.809576 -29.366723
v -30.980434 -24.711875 -28.665805
v -31.577291 -27.183063 -28.204675
v -31.935405 -30.066115 -27.927997
v -32.148198 -32.743235 -27.763594
v -32.309090 -34.596626 -27.639289
vt 0.92612907 1.05515105
vt 0.92612907 1.05174428
vt 0.92612907 1.04671113
vt 0.92612907 1.04125531
vt 0.92612907 1.03652005
vt 0.92612907 1.03244635
vt 0.92612907 1.02843243
vt 0.92612907 1.02463641
vt 0.92612907 1.02121173
vt 0.92612907 1.01792680
vt 0.92612907 1.01446296
vt 0.92612907 1.01090447
vt 0.92612907 1.00738636
vt 0.92612907 1.00356343
vt 0.92612907 0.99921963
vt 0.92612907 0.99476018
vt 0.92612907 0.99061525
vt 0.92612907 0.98678953
vt 0.92612907 0.98296994
vt 0.92612907 0.97909768
vt 0.92612907 0.97512308
vt 0.92612907 0.97081768
vt 0.92612907 0.96620531
vt 0.92612907 0.96163268
vt 0.92612907 0.95743195
vt 0.92612907 0.95359378
vt 0.92612907 0.94975912
vt 0.92612907 0.94590780
vt 0.92612907 0.94213535
vt 0.92612907 0.93840030
vt 0.92612907 0.93466709
vt 0.92612907 0.93096130
vt 0.92612907 0.92722230
vt 0.92612907 0.92285796
vt 0.92612907 0.91792276
vt 0.92612907 0.91337154
vt 0.92612907 0.91021777
vt 0.94122871 1.05309376
vt 0.94122871 1.04985174
vt 0.94122871 1.04502388
vt 0.94122871 1.03975048
vt 0.94122871 1.03511888
vt 0.94122871 1.03109168
vt 0.94122871 1.02711784
vt 0.94122871 1.02336427
vt 0.94122871 1.01999476
vt 0.94122871 1.01681357
vt 0.94122871 1.01351661
vt 0.94122871 1.01016391
vt 0.94122871 1.00686256
vt 0.94122871 1.00326531
vt 0.94122871 0.99914712
vt 0.94122871 0.99488017
vt 0.94122871 0.99086553
vt 0.94122871 0.98710703
vt 0.94122871 0.98331738
vt 0.94122871 0.97945392
vt 0.94122871 0.97548563
vt 0.94122871 0.97121339
vt 0.94122871 0.96667426
vt 0.94122871 0.96220720
vt 0.94122871 0.95813494
vt 0.94122871 0.95445605
vt 0.94122871 0.95082272
vt 0.94122871 0.94718709
vt 0.94122871 0.94362592
vt 0.94122871 0.94010006
vt 0.94122871 0.93657592
vt 0.94122871 0.93307769
vt 0.94122871 0.92954809
vt 0.94122871 0.92542818
vt 0.94122871 0.92076938
vt 0.94122871 0.91647305
vt 0.94122871 0.91349591
vt 0.95632834 1.05222510
vt 0.95632834 1.04912530
vt 0.95632834 1.04445962
vt 0.95632834 1.03931155
vt 0.95632834 1.03471987
vt 0.95632834 1.03067199
vt 0.95632834 1.02666819
vt 0.95632834 1.02288854
vt 0.95632834 1.01951189
vt 0.95632834 1.01638425
vt 0.95632834 1.01321931
vt 0.95632834 1.01005068
vt 0.95632834 1.00695237
vt 0.95632834 1.00356587
vt 0.95632834 0.99964839
vt 0.95632834 0.99553744
vt 0.95632834 0.99160559
vt 0.95632834 0.98785658
vt 0.95632834 0.98403036
vt 0.95632834 0.98010361
vt 0.95632834 0.97606736
vt 0.95632834 0.97175443
vt 0.95632834 0.96721880
vt 0.95632834 0.96279629
vt 0.95632834 0.95880437
vt 0.95632834 0.95525166
vt 0.95632834 0.95179828
vt 0.95632834 0.94836049
vt 0.95632834 0.94499311
vt 0.95632834 0.94165912
vt 0.95632834 0.93832676
vt 0.95632834 0.93501889
vt 0.95632834 0.93168136
vt 0.95632834 0.92778565
vt 0.95632834 0.92338037
vt 0.95632834 0.91931783
vt 0.95632834 0.91650270
vt 0.97142798 1.05235061
vt 0.97142798 1.04935424
vt 0.97142798 1.04479454
vt 0.97142798 1.03971212
vt 0.97142798 1.03511015
vt 0.97142798 1.03099835
vt 0.97142798 1.02691985
vt 0.97142798 1.02306824
vt 0.97142798 1.01963767
vt 0.97142798 1.01651280
vt 0.97142798 1.01342712
vt 0.97142798 1.01039289
vt 0.97142798 1.00745312
vt 0.97142798 1.00423237
vt 0.97142798 1.00046545
vt 0.97142798 0.99645921
vt 0.97142798 0.99256297
vt 0.97142798 0.98878136
vt 0.97142798 0.98487849
vt 0.97142798 0.98084933
vt 0.97142798 0.97670547
vt 0.97142798 0.97230794
vt 0.97142798 0.96772720
vt 0.97142798 0.96329971
vt 0.97142798 0.95934138
vt 0.97142798 0.95587090
vt 0.97142798 0.95255317
vt 0.97142798 0.94926847
vt 0.97142798 0.94605104
vt 0.97142798 0.94286552
vt 0.97142798 0.93968155
vt 0.97142798 0.93652098
vt 0.97142798 0.93333208
vt 0.97142798 0.92960985
vt 0.97142798 0.92540074
vt 0.97142798 0.92151912
vt 0.97142798 0.91882935
vt 0.98652762 1.05333275
vt 0.98652762 1.05038724
vt 0.98652762 1.04586485
vt 0.98652762 1.04078310
vt 0.98652762 1.03612729
vt 0.98652762 1.03192384
vt 0.98652762 1.02774409
vt 0.98652762 1.02379347
vt 0.98652762 1.02027927
vt 0.98652762 1.01711493
vt 0.98652762 1.01405038
vt 0.98652762 1.01108438
vt 0.98652762 1.00823659
vt 0.98652762 1.00511288
vt 0.98652762 1.00142576
vt 0.98652762 0.99746046
vt 0.98652762 0.99355175
vt 0.98652762 0.98970570
vt 0.98652762 0.98570341
vt 0.98652762 0.98155407
vt 0.98652762 0.97728509
vt 0.98652762 0.97277776
vt 0.98652762 0.96811589
vt 0.98652762 0.96363983
vt 0.98652762 0.95966751
vt 0.98652762 0.95622589
vt 0.98652762 0.95298083
vt 0.98652762 0.94978286
vt 0.98652762 0.94665039
vt 0.98652762 0.94354897
vt 0.98652762 0.94044908
vt 0.98652762 0.93737196
vt 0.98652762 0.93426726
vt 0.98652762 0.93064331
vt 0.98652762 0.92654534
vt 0.98652762 0.92276621
vt 0.98652762 0.92014746
vt 1.00162726 1.05506062
vt 1.00162726 1.05210450
vt 1.00162726 1.04754242
vt 1.00162726 1.04239238
vt 1.00162726 1.03764271
vt 1.00162726 1.03332948
vt 1.00162726 1.02903419
vt 1.00162726 1.02497164
vt 1.00162726 1.02135915
vt 1.00162726 1.01812532
vt 1.00162726 1.01502744
vt 1.00162726 1.01205782
vt 1.00162726 1.00922331
vt 1.00162726 1.00611304
vt 1.00162726 1.00242184
vt 1.00162726 0.99842610
vt 1.00162726 0.99445681
vt 1.00162726 0.99052125
vt 1.00162726 0.98640747
vt 1.00162726 0.98213294
vt 1.00162726 0.97773443
vt 1.00162726 0.97310309
vt 1.00162726 0.96833148
vt 1.00162726 0.96376678
vt 1.00162726 0.95973242
vt 1.00162726 0.95626055
vt 1.00162726 0.95301332
vt 1.00162726 0.94982193
vt 1.00162726 0.94669592
vt 1.00162726 0.94360089
vt 1.00162726 0.94050738
vt 1.00162726 0.93743660
vt 1.00162726 0.93433830
vt 1.00162726 0.93072182
vt 1.00162726 0.92663229
vt 1.00162726 0.92286094
vt 1.00162726 0.92024759
vt 1.01672690 1.05735061
vt 1.01672690 1.05432075
vt 1.01672690 1.04964261
vt 1.01672690 1.04435932
vt 1.01672690 1.03948379
vt 1.01672690 1.03505390
vt 1.01672690 1.03064183
vt 1.01672690 1.02646852
vt 1.01672690 1.02275763
vt 1.01672690 1.01943743
vt 1.01672690 1.01625998
vt 1.01672690 1.01321684
vt 1.01672690 1.01031382
vt 1.01672690 1.00712831
vt 1.01672690 1.00334590
vt 1.01672690 0.99924892
vt 1.01672690 0.99517614
vt 1.01672690 0.99113515
vt 1.01672690 0.98690946
vt 1.01672690 0.98251775
vt 1.01672690 0.97799860
vt 1.01672690 0.97324142
vt 1.01672690 0.96834188
vt 1.01672690 0.96365637
vt 1.01672690 0.95951679
vt 1.01672690 0.95595658
vt 1.01672690 0.95262924
vt 1.01672690 0.94935997
vt 1.01672690 0.94615766
vt 1.01672690 0.94298710
vt 1.01672690 0.93981809
vt 1.01672690 0.93667236
vt 1.01672690 0.93349844
vt 1.01672690 0.92979369
vt 1.01672690 0.92560436
vt 1.01672690 0.92174097
vt 1.01672690 0.91906383
vt 1.03182654 1.05990138
vt 1.03182654 1.05674110
vt 1.03182654 1.05188234
vt 1.03182654 1.04641591
vt 1.03182654 1.04139881
vt 1.03182654 1.03686210
vt 1.03182654 1.03234920
vt 1.03182654 1.02808299
vt 1.03182654 1.02428852
vt 1.03182654 1.02087730
vt 1.03182654 1.01758330
vt 1.03182654 1.01440325
vt 1.03182654 1.01135456
vt 1.03182654 1.00801009
vt 1.03182654 1.00405675
vt 1.03182654 0.99979778
vt 1.03182654 0.99559095
vt 1.03182654 0.99144309
vt 1.03182654 0.98712152
vt 1.03182654 0.98263842
vt 1.03182654 0.97802586
vt 1.03182654 0.97315936
vt 1.03182654 0.96813128
vt 1.03182654 0.96330834
vt 1.03182654 0.95903289
vt 1.03182654 0.95533530
vt 1.03182654 0.95185633
vt 1.03182654 0.94843031
vt 1.03182654 0.94507447
vt 1.03182654 0.94175189
vt 1.03182654 0.93843094
vt 1.03182654 0.93513440
vt 1.03182654 0.93180830
vt 1.03182654 0.92792593
vt 1.03182654 0.92353573
vt 1.03182654 0.91948711
vt 1.03182654 0.91668162
vt 1.04692618 1.06238660
vt 1.04692618 1.05905268
vt 1.04692618 1.05396892
vt 1.04692618 1.04829175
vt 1.04692618 1.04313713
vt 1.04692618 1.03852034
vt 1.04692618 1.03393837
vt 1.04692618 1.02961062
vt 1.04692618 1.02575743
vt 1.04692618 1.02225745
vt 1.04692618 1.01881694
vt 1.04692618 1.01544582
vt 1.04692618 1.01218602
vt 1.04692618 1.00861345
vt 1.04692618 1.00442630
vt 1.04692618 0.99996181
vt 1.04692618 0.99560640
vt 1.04692618 0.99136554
vt 1.04692618 0.98698010
vt 1.04692618 0.98244815
vt 1.04692618 0.97778678
vt 1.04692618 0.97284603
vt 1.04692618 0.96770808
vt 1.04692618 0.96274979
vt 1.04692618 0.95832456
vt 1.04692618 0.95445540
vt 1.04692618 0.95076817
vt 1.04692618 0.94712147
vt 1.04692618 0.94354947
vt 1.04692618 0.94001287
vt 1.04692618 0.93647801
vt 1.04692618 0.93296913
vt 1.04692618 0.92942879
vt 1.04692618 0.92529634
vt 1.04692618 0.92062336
vt 1.04692618 0.91631396
vt 1.04692618 0.91332776
vt 1.06202582 1.06464291
vt 1.06202582 1.06110949
vt 1.06202582 1.05577836
vt 1.06202582 1.04988286
vt 1.06202582 1.04460684
vt 1.06202582 1.03994170
vt 1.06202582 1.03532464
vt 1.06202582 1.03096602
vt 1.06202582 1.02707531
vt 1.06202582 1.02348556
vt 1.06202582 1.01987250
vt 1.06202582 1.01626886
vt 1.06202582 1.01275164
vt 1.06202582 1.00890499
vt 1.06202582 1.00444463
vt 1.06202582 0.99975038
vt 1.06202582 0.99524417
vt 1.06202582 0.99093038
vt 1.06202582 0.98651653
vt 1.06202582 0.98198050
vt 1.06202582 0.97731735
vt 1.06202582 0.97234237
vt 1.06202582 0.96712182
vt 1.06202582 0.96204154
vt 1.06202582 0.95746571
vt 1.06202582 0.95340680
vt 1.06202582 0.94947560
vt 1.06202582 0.94556677
vt 1.06202582 0.94173800
vt 1.06202582 0.93794719
vt 1.06202582 0.93415824
vt 1.06202582 0.93039713
vt 1.06202582 0.92660230
vt 1.06202582 0.92217281
vt 1.06202582 0.91716393
vt 1.06202582 0.91254476
vt 1.06202582 0.90934390
vt 1.07712546 1.06680781
vt 1.07712546 1.06306691
vt 1.07712546 1.05748313
vt 1.07712546 1.05137044
vt 1.07712546 1.04598327
vt 1.07712546 1.04128472
vt 1.07712546 1.03664617
vt 1.07712546 1.03226570
vt 1.07712546 1.02833827
vt 1.07712546 1.02464663
vt 1.07712546 1.02084042
vt 1.07712546 1.01698236
vt 1.07712546 1.01318859
vt 1.07712546 1.00905173
vt 1.07712546 1.00430513
vt 1.07712546 0.99937352
vt 1.07712546 0.99471684
vt 1.07712546 0.99033942
vt 1.07712546 0.98591352
vt 1.07712546 0.98139448
vt 1.07712546 0.97675200
vt 1.07712546 0.97176248
vt 1.07712546 0.96647358
vt 1.07712546 0.96127947
vt 1.07712546 0.95655490
vt 1.07712546 0.95230077
vt 1.07712546 0.94811377
vt 1.07712546 0.94392877
vt 1.07712546 0.93982948
vt 1.07712546 0.93577083
vt 1.07712546 0.93171417
vt 1.07712546 0.92768732
vt 1.07712546 0.92362437
vt 1.07712546 0.91888191
vt 1.07712546 0.91351913
vt 1.07712546 0.90857359
vt 1.07712546 0.90514659
vt 1.09222509 1.06928157
vt 1.09222509 1.06534127
vt 1.09222509 1.05950901
vt 1.09222509 1.05317555
vt 1.09222509 1.04766299
vt 1.09222509 1.04290853
vt 1.09222509 1.03822239
vt 1.09222509 1.03379220
vt 1.09222509 1.02980056
vt 1.09222509 1.02598652
vt 1.09222509 1.02198086
vt 1.09222509 1.01787516
vt 1.09222509 1.01381952
vt 1.09222509 1.00940952
vt 1.09222509 1.00438988
vt 1.09222509 0.99922550
vt 1.09222509 0.99441159
vt 1.09222509 0.98995331
vt 1.09222509 0.98549153
vt 1.09222509 0.98096202
vt 1.09222509 0.97631199
vt 1.09222509 0.97128246
vt 1.09222509 0.96590510
vt 1.09222509 0.96058349
vt 1.09222509 0.95570369
vt 1.09222509 0.95125698
vt 1.09222509 0.94682631
vt 1.09222509 0.94238021
vt 1.09222509 0.93802517
vt 1.09222509 0.93371331
vt 1.09222509 0.92940356
vt 1.09222509 0.92512548
vt 1.09222509 0.92080905
vt 1.09222509 0.91577072
vt 1.09222509 0.91007336
vt 1.09222509 0.90481928
vt 1.09222509 0.90117847
vn -0.350275 -0.090764 0.932239
vn -0.350138 -0.094946 0.931874
vn -0.350890 -0.068951 0.933875
vn -0.351625 0.023992 0.935833
vn -0.344027 0.208098 0.915610
vn -0.320676 0.410816 0.853462
vn -0.291202 0.560843 0.775020
vn -0.250076 0.703197 0.665565
vn -0.183343 0.853395 0.487958
vn -0.094495 0.963235 0.251492
vn -0.012418 0.999377 0.033049
vn 0.060800 0.984946 -0.161817
vn 0.135505 0.922809 -0.360640
vn 0.196985 0.828458 -0.524265
vn 0.237259 0.738224 -0.631453
vn 0.269278 0.643331 -0.716670
vn 0.299972 0.522145 -0.798362
vn 0.325438 0.379338 -0.866137
vn 0.341776 0.236183 -0.909619
vn 0.350187 0.093473 -0.932004
vn 0.351326 -0.047714 -0.935037
vn 0.346351 -0.174158 -0.921797
vn 0.337295 -0.283508 -0.897694
vn 0.322972 -0.396009 -0.859573
vn 0.292648 -0.554727 -0.778868
vn 0.241011 -0.728333 -0.641439
vn 0.204004 -0.814612 -0.542945
vn 0.207545 -0.807349 -0.552370
vn 0.229489 -0.757821 -0.610772
vn 0.241215 -0.727789 -0.641980
vn 0.255218 -0.688102 -0.679249
vn 0.285876 -0.582571 -0.760846
vn 0.323538 -0.392252 -0.861081
vn 0.343429 -0.215936 -0.914018
vn 0.348910 -0.126295 -0.928607
vn 0.349901 -0.101742 -0.931245
vn 0.351727 0.000000 -0.936103
vn -0.393126 -0.090034 0.915066
vn -0.392991 -0.093739 0.914752
vn -0.393827 -0.067587 0.916697
vn -0.394622 0.023299 0.918548
vn -0.386777 0.199710 0.900288
vn -0.363165 0.391835 0.845326
vn -0.333525 0.534850 0.776335
vn -0.292130 0.672522 0.679981
vn -0.223223 0.824742 0.519588
vn -0.125972 0.947709 0.293221
vn -0.030779 0.996955 0.071642
vn 0.056828 0.989583 -0.132276
vn 0.147196 0.927870 -0.342622
vn 0.221215 0.828207 -0.514915
vn 0.269010 0.731813 -0.626166
vn 0.306194 0.631093 -0.712718
vn 0.340594 0.505453 -0.792788
vn 0.367858 0.362650 -0.856251
vn 0.384696 0.224029 -0.895444
vn 0.393184 0.088385 -0.915202
vn 0.394325 -0.045247 -0.917856
vn 0.389228 -0.166370 -0.905993
vn 0.379743 -0.272925 -0.883916
vn 0.364457 -0.384057 -0.848334
vn 0.331438 -0.543115 -0.771476
vn 0.273207 -0.721765 -0.635935
vn 0.229744 -0.813168 -0.534766
vn 0.232919 -0.807349 -0.542158
vn 0.257546 -0.757821 -0.599481
vn 0.270706 -0.727789 -0.630112
vn 0.286421 -0.688102 -0.666692
vn 0.320828 -0.582571 -0.746780
vn 0.363095 -0.392252 -0.845163
vn 0.385417 -0.215936 -0.897121
vn 0.391569 -0.126295 -0.911440
vn 0.392681 -0.101742 -0.914030
vn 0.394729 0.000000 -0.918797
vn -0.436432 -0.089041 0.895320
vn -0.436310 -0.092112 0.895069
vn -0.437223 -0.065780 0.896944
vn -0.438063 0.022400 0.898665
vn -0.430266 0.189109 0.882671
vn -0.407424 0.367999 0.835812
vn -0.379001 0.501844 0.777503
vn -0.339379 0.632533 0.696221
vn -0.271538 0.784834 0.557048
vn -0.168650 0.922960 0.345979
vn -0.059791 0.990646 0.122658
vn 0.045242 0.994655 -0.092811
vn 0.155736 0.934706 -0.319484
vn 0.245788 0.827858 -0.504222
vn 0.302715 0.722991 -0.621006
vn 0.345641 0.614619 -0.709067
vn 0.383502 0.483708 -0.786736
vn 0.411811 0.341623 -0.844811
vn 0.428491 0.209049 -0.879030
vn 0.436691 0.082173 -0.895851
vn 0.437782 -0.042217 -0.898090
vn 0.432764 -0.156633 -0.887796
vn 0.423170 -0.259435 -0.868114
vn 0.407334 -0.368521 -0.835626
vn 0.372218 -0.527623 -0.763589
vn 0.307348 -0.712737 -0.630510
vn 0.256251 -0.811165 -0.525687
vn 0.258554 -0.807349 -0.530412
vn 0.285891 -0.757821 -0.586493
vn 0.300499 -0.727789 -0.616460
vn 0.317944 -0.688102 -0.652248
vn 0.356138 -0.582571 -0.730601
vn 0.403056 -0.392252 -0.826852
vn 0.427835 -0.215936 -0.877684
vn 0.434664 -0.126295 -0.891693
vn 0.435899 -0.101742 -0.894226
vn 0.438172 0.000000 -0.898891
vn -0.479862 -0.088012 0.872918
vn -0.479757 -0.090449 0.872727
vn -0.480744 -0.063969 0.874524
vn -0.481620 0.021521 0.876116
vn -0.473949 0.179023 0.862162
vn -0.452063 0.345514 0.822350
vn -0.425100 0.470422 0.773301
vn -0.387694 0.593554 0.705256
vn -0.322198 0.743411 0.586112
vn -0.216145 0.893690 0.393191
vn -0.094839 0.980429 0.172523
vn 0.028689 0.998225 -0.052188
vn 0.162096 0.941688 -0.294870
vn 0.270484 0.827488 -0.492039
vn 0.337404 0.713751 -0.613773
vn 0.386172 0.597815 -0.702487
vn 0.427150 0.462349 -0.777031
vn 0.456122 0.321707 -0.829733
vn 0.472466 0.195181 -0.859465
vn 0.480320 0.076477 -0.873753
vn 0.481357 -0.039420 -0.875638
vn 0.476464 -0.147476 -0.866737
vn 0.466868 -0.246482 -0.849282
vn 0.450667 -0.353284 -0.819811
vn 0.413807 -0.511976 -0.752758
vn 0.342462 -0.703294 -0.622975
vn 0.283137 -0.809043 -0.515056
vn 0.284257 -0.807349 -0.517093
vn 0.314312 -0.757821 -0.571766
vn 0.330372 -0.727789 -0.600981
vn 0.349551 -0.688102 -0.635869
vn 0.391541 -0.582571 -0.712255
vn 0.443124 -0.392252 -0.806089
vn 0.470366 -0.215936 -0.855645
vn 0.477874 -0.126295 -0.869302
vn 0.479231 -0.101742 -0.871772
vn 0.481731 0.000000 -0.876319
vn -0.523051 -0.087168 0.847832
vn -0.522961 -0.089100 0.847687
vn -0.524022 -0.062526 0.849406
vn -0.524936 0.020836 0.850887
vn -0.517284 0.171349 0.838485
vn -0.495902 0.328554 0.803825
vn -0.469784 0.446585 0.761489
vn -0.433751 0.563501 0.703083
vn -0.369765 0.709954 0.599366
vn -0.261155 0.867527 0.423315
vn -0.129097 0.969301 0.209259
vn 0.011890 0.999744 -0.019274
vn 0.168170 0.947319 -0.272592
vn 0.295047 0.827178 -0.478252
vn 0.371798 0.706093 -0.602660
vn 0.426123 0.584233 -0.690718
vn 0.470024 0.445666 -0.761879
vn 0.499758 0.306628 -0.810075
vn 0.515999 0.184874 -0.836401
vn 0.523676 0.072275 -0.848846
vn 0.524683 -0.037346 -0.850478
vn 0.519836 -0.140578 -0.842620
vn 0.510148 -0.236551 -0.826917
vn 0.493506 -0.341385 -0.799942
vn 0.454876 -0.499438 -0.737325
vn 0.377274 -0.695475 -0.611538
vn 0.309879 -0.807264 -0.502294
vn 0.309818 -0.807349 -0.502195
vn 0.342575 -0.757821 -0.555293
vn 0.360080 -0.727789 -0.583666
vn 0.380983 -0.688102 -0.617549
vn 0.426750 -0.582571 -0.691734
vn 0.482971 -0.392252 -0.782865
vn 0.512662 -0.215936 -0.830993
vn 0.520845 -0.126295 -0.844257
vn 0.522325 -0.101742 -0.846655
vn 0.525050 0.000000 -0.851072
vn -0.565617 -0.086676 0.820101
vn -0.565535 -0.088322 0.819982
vn -0.566672 -0.061703 0.821630
vn -0.567635 0.020451 0.823026
vn -0.559770 0.167110 0.811623
vn -0.538044 0.319247 0.780122
vn -0.511642 0.433468 0.741841
vn -0.475353 0.546816 0.689225
vn -0.410479 0.690860 0.595163
vn -0.297590 0.851624 0.431483
vn -0.155566 0.961729 0.225559
vn 0.000442 1.000000 -0.000641
vn 0.176337 0.950545 -0.255674
vn 0.319197 0.826994 -0.462811
vn 0.404562 0.701606 -0.586583
vn 0.463942 0.576419 -0.672680
vn 0.510867 0.436293 -0.740718
vn 0.541900 0.298330 -0.785712
vn 0.558556 0.179270 -0.809863
vn 0.566361 0.070001 -0.821179
vn 0.567381 -0.036219 -0.822659
vn 0.562416 -0.136793 -0.815460
vn 0.552393 -0.231039 -0.800927
vn 0.535008 -0.334699 -0.775721
vn 0.494198 -0.492266 -0.716549
vn 0.410459 -0.690898 -0.595134
vn 0.335897 -0.806213 -0.487025
vn 0.335016 -0.807349 -0.485748
vn 0.370438 -0.757821 -0.537107
vn 0.389366 -0.727789 -0.564551
vn 0.411970 -0.688102 -0.597324
vn 0.461459 -0.582571 -0.669079
vn 0.522252 -0.392252 -0.757226
vn 0.554359 -0.215936 -0.803777
vn 0.563207 -0.126295 -0.816607
vn 0.564807 -0.101742 -0.818927
vn 0.567753 0.000000 -0.823199
vn -0.607172 -0.086631 0.789834
vn -0.607085 -0.088250 0.789721
vn -0.608304 -0.061627 0.791308
vn -0.609336 0.020415 0.792649
vn -0.600933 0.166723 0.781718
vn -0.577744 0.318400 0.751554
vn -0.549579 0.432272 0.714915
vn -0.510880 0.545291 0.664574
vn -0.441659 0.689097 0.574528
vn -0.320935 0.850121 0.417486
vn -0.168581 0.960983 0.219298
vn -0.000775 0.999999 0.001008
vn 0.188733 0.950844 -0.245512
vn 0.342662 0.826977 -0.445749
vn 0.434534 0.701186 -0.565260
vn 0.498336 0.575694 -0.648257
vn 0.548652 0.435432 -0.713709
vn 0.581853 0.297574 -0.756899
vn 0.599646 0.178762 -0.780044
vn 0.607977 0.069795 -0.790881
vn 0.609065 -0.036117 -0.792297
vn 0.603763 -0.136449 -0.785400
vn 0.593046 -0.230535 -0.771459
vn 0.574445 -0.334085 -0.747262
vn 0.530732 -0.491602 -0.690399
vn 0.440862 -0.690470 -0.573491
vn 0.360655 -0.806115 -0.469155
vn 0.359628 -0.807349 -0.467819
vn 0.397652 -0.757821 -0.517282
vn 0.417970 -0.727789 -0.543713
vn 0.442235 -0.688102 -0.575277
vn 0.495359 -0.582571 -0.644384
vn 0.560619 -0.392252 -0.729277
vn 0.595084 -0.215936 -0.774110
vn 0.604583 -0.126295 -0.786466
vn 0.606300 -0.101742 -0.788701
vn 0.609463 0.000000 -0.792815
vn -0.647342 -0.087038 0.757214
vn -0.647236 -0.088894 0.757089
vn -0.648546 -0.062307 0.758622
vn -0.649668 0.020733 0.759935
vn -0.640326 0.170210 0.749007
vn -0.614298 0.326050 0.718561
vn -0.582548 0.443058 0.681423
vn -0.538789 0.559025 0.630236
vn -0.460936 0.704865 0.539169
vn -0.327889 0.863357 0.383541
vn -0.164635 0.967372 0.192578
vn 0.010969 0.999858 -0.012831
vn 0.206471 0.948177 -0.241515
vn 0.365200 0.827129 -0.427184
vn 0.460909 0.704907 -0.539138
vn 0.528344 0.582157 -0.618018
vn 0.582516 0.443159 -0.681385
vn 0.618972 0.304397 -0.724028
vn 0.638791 0.183363 -0.747211
vn 0.648137 0.071661 -0.758144
vn 0.649362 -0.037042 -0.759577
vn 0.643449 -0.139560 -0.752660
vn 0.631599 -0.235072 -0.738799
vn 0.611190 -0.339598 -0.714926
vn 0.563674 -0.497530 -0.659345
vn 0.467680 -0.694265 -0.547058
vn 0.383757 -0.806987 -0.448891
vn 0.383435 -0.807349 -0.448514
vn 0.423976 -0.757821 -0.495936
vn 0.445639 -0.727789 -0.521276
vn 0.471510 -0.688102 -0.551538
vn 0.528151 -0.582571 -0.617793
vn 0.597731 -0.392252 -0.699182
vn 0.634477 -0.215936 -0.742166
vn 0.644605 -0.126295 -0.754012
vn 0.646436 -0.101742 -0.756154
vn 0.649808 0.000000 -0.760098
vn -0.685785 -0.087819 0.722486
vn -0.685643 -0.090139 0.722336
vn -0.687050 -0.063635 0.723818
vn -0.688288 0.021361 0.725123
vn -0.677548 0.177218 0.713808
vn -0.647053 0.341514 0.681682
vn -0.609557 0.464809 0.642178
vn -0.557600 0.586512 0.587441
vn -0.466301 0.735684 0.491256
vn -0.316785 0.887844 0.333738
vn -0.143309 0.978094 0.150979
vn 0.035231 0.998690 -0.037117
vn 0.229134 0.942987 -0.241397
vn 0.386622 0.827417 -0.407313
vn 0.483410 0.712002 -0.509281
vn 0.553481 0.594685 -0.583102
vn 0.611832 0.458459 -0.644575
vn 0.652672 0.318156 -0.687601
vn 0.675537 0.192738 -0.711689
vn 0.686481 0.075479 -0.723220
vn 0.687923 -0.038928 -0.724739
vn 0.681083 -0.145849 -0.717533
vn 0.667611 -0.244152 -0.703339
vn 0.644769 -0.350510 -0.679275
vn 0.592558 -0.509079 -0.624270
vn 0.490629 -0.701507 -0.516886
vn 0.405017 -0.808638 -0.426692
vn 0.406233 -0.807349 -0.427974
vn 0.449185 -0.757821 -0.473224
vn 0.472136 -0.727789 -0.497404
vn 0.499545 -0.688102 -0.526279
vn 0.559554 -0.582571 -0.589500
vn 0.633271 -0.392252 -0.667162
vn 0.672203 -0.215936 -0.708177
vn 0.682932 -0.126295 -0.719481
vn 0.684873 -0.101742 -0.721525
vn 0.688445 0.000000 -0.725288
vn -0.722204 -0.088817 0.685954
vn -0.722012 -0.091747 0.685771
vn -0.723519 -0.065381 0.687202
vn -0.724891 0.022204 0.688505
vn -0.712302 0.186837 0.676548
vn -0.675636 0.362916 0.641723
vn -0.630106 0.494762 0.598478
vn -0.566692 0.623819 0.538247
vn -0.457522 0.775779 0.434557
vn -0.289445 0.916866 0.274916
vn -0.108514 0.988738 0.103067
vn 0.068050 0.995586 -0.064634
vn 0.254765 0.936238 -0.241977
vn 0.406805 0.827778 -0.386385
vn 0.502437 0.720985 -0.477218
vn 0.574025 0.610933 -0.545212
vn 0.636496 0.478953 -0.604547
vn 0.682623 0.337128 -0.648359
vn 0.709535 0.205892 -0.673920
vn 0.722695 0.080872 -0.686420
vn 0.724443 -0.041580 -0.688080
vn 0.716357 -0.154561 -0.680400
vn 0.700807 -0.256526 -0.665630
vn 0.675009 -0.365128 -0.641127
vn 0.617476 -0.524178 -0.586482
vn 0.510093 -0.710687 -0.484489
vn 0.424494 -0.810706 -0.403187
vn 0.427845 -0.807349 -0.406369
vn 0.473081 -0.757821 -0.449335
vn 0.497254 -0.727789 -0.472294
vn 0.526121 -0.688102 -0.499712
vn 0.589322 -0.582571 -0.559742
vn 0.666961 -0.392252 -0.633483
vn 0.707964 -0.215936 -0.672428
vn 0.719264 -0.126295 -0.683161
vn 0.721307 -0.101742 -0.685102
vn 0.725070 0.000000 -0.688675
vn -0.756361 -0.089818 0.647959
vn -0.756112 -0.093383 0.647746
vn -0.757714 -0.067189 0.649118
vn -0.759228 0.023099 0.650415
vn -0.744498 0.197326 0.637796
vn -0.700428 0.386458 0.600042
vn -0.645208 0.527437 0.552736
vn -0.568096 0.663636 0.486676
vn -0.438866 0.816116 0.375967
vn -0.253467 0.942659 0.217140
vn -0.068864 0.995880 0.058994
vn 0.102704 0.990813 -0.087984
vn 0.280355 0.929364 -0.240174
vn 0.425686 0.828132 -0.364677
vn 0.519110 0.729902 -0.444711
vn 0.591312 0.627489 -0.506564
vn 0.657411 0.500626 -0.563191
vn 0.709122 0.357914 -0.607490
vn 0.740717 0.220624 -0.634557
vn 0.756553 0.086967 -0.648123
vn 0.758676 -0.044557 -0.649942
vn 0.749127 -0.164170 -0.641761
vn 0.731246 -0.269902 -0.626444
vn 0.702274 -0.380605 -0.601624
vn 0.639326 -0.539712 -0.547698
vn 0.527176 -0.719809 -0.451621
vn 0.442468 -0.812736 -0.379054
vn 0.448120 -0.807349 -0.383895
vn 0.495500 -0.757821 -0.424485
vn 0.520818 -0.727789 -0.446174
vn 0.551053 -0.688102 -0.472076
vn 0.617250 -0.582571 -0.528785
vn 0.698568 -0.392252 -0.598449
vn 0.741514 -0.215936 -0.635239
vn 0.753350 -0.126295 -0.645379
vn 0.755490 -0.101742 -0.647212
vn 0.759431 0.000000 -0.650588
vn -0.788081 -0.090593 0.608869
vn -0.787781 -0.094662 0.608637
vn -0.789469 -0.068628 0.609941
vn -0.791110 0.023827 0.611209
vn -0.774349 0.206083 0.598259
vn -0.723093 0.406247 0.558659
vn -0.658476 0.554613 0.508737
vn -0.568275 0.695917 0.439048
vn -0.420974 0.846757 0.325243
vn -0.222077 0.959814 0.171576
vn -0.035825 0.998975 0.027678
vn 0.131494 0.986098 -0.101592
vn 0.302604 0.923998 -0.233791
vn 0.443256 0.828400 -0.342458
vn 0.535093 0.736726 -0.413412
vn 0.607744 0.640452 -0.469541
vn 0.676808 0.518176 -0.522900
vn 0.733483 0.375326 -0.566687
vn 0.769510 0.233239 -0.594521
vn 0.787962 0.092236 -0.608777
vn 0.790456 -0.047116 -0.610704
vn 0.779503 -0.172280 -0.602241
vn 0.759457 -0.280973 -0.586754
vn 0.727607 -0.393165 -0.562147
vn 0.659857 -0.551987 -0.509803
vn 0.543529 -0.726798 -0.419929
vn 0.459353 -0.814276 -0.354894
vn 0.466946 -0.807349 -0.360761
vn 0.516317 -0.757821 -0.398905
vn 0.542698 -0.727789 -0.419287
vn 0.574204 -0.688102 -0.443628
vn 0.643181 -0.582571 -0.496920
vn 0.727915 -0.392252 -0.562385
vn 0.772665 -0.215936 -0.596959
vn 0.784998 -0.126295 -0.606487
vn 0.787229 -0.101742 -0.608210
vn 0.791335 0.000000 -0.611383
f 1/1/1 38/38/38 39/39/39
f 1/1/1 39/39/39 2/2/2
f 2/2/2 39/39/39 40/40/40
f 2/2/2 40/40/40 3/3/3
f 3/3/3 40/40/40 41/41/41
f 3/3/3 41/41/41 4/4/4
f 4/4/4 41/41/41 42/42/42
f 4/4/4 42/42/42 5/5/5
f 5/5/5 42/42/42 43/43/43
f 5/5/5 43/43/43 6/6/6
f 6/6/6 43/43/43 44/44/44
f 6/6/6 44/44/44 7/7/7
f 7/7/7 44/44/44 45/45/45
f 7/7/7 45/45/45 8/8/8
f 8/8/8 45/45/45 46/46/46
f 8/8/8 46/46/46 9/9/9
f 9/9/9 46/46/46 47/47/47
f 9/9/9 47/47/47 10/10/10
f 10/10/10 47/47/47 48/48/48
f 10/10/10 48/48/48 11/11/11
f 11/11/11 48/48/48 49/49/49
f 11/11/11 49/49/49 12/12/12
f 12/12/12 49/49/49 50/50/50
f 12/12/12 50/50/50 13/13/13
f 13/13/13 50/50/50 51/51/51
f 13/13/13 51/51/51 14/14/14
f 14/14/14 51/51/51 52/52/52
f 14/14/14 52/52/52 15/15/15
f 15/15/15 52/52/52 53/53/53
f 15/15/15 53/53/53 16/16/16
f 16/16/16 53/53/53 54/54/54
f 16/16/16 54/54/54 17/17/17
f 17/17/17 54/54/54 55/55/55
f 17/17/17 55/55/55 18/18/18
f 18/18/18 55/55/55 56/56/56
f 18/18/18 56/56/56 19/19/19
f 19/19/19 56/56/56 57/57/57
f 19/19/19 57/57/57 20/20/20
f 20/20/20 57/57/57 58/58/58
f 20/20/20 58/58/58 21/21/21
f 21/21/21 58/58/58 59/59/59
f 21/21/21 59/59/59 22/22/22
f 22/22/22 59/59/59 60/60/60
f 22/22/22 60/60/60 23/23/23
f 23/23/23 60/60/60 61/61/61
f 23/23/23 61/61/61 24/24/24
f 24/24/24 61/61/61 62/62/62
f 24/24/24 62/62/62 25/25/25
f 25/25/25 62/62/62 63/63/63
f 25/25/25 63/63/63 26/26/26
f 26/26/26 63/63/63 64/64/64
f 26/26/26 64/64/64 27/27/27
f 27/27/27 64/64/64 65/65/65
f 27/27/27 65/65/65 28/28/28
f 28/28/28 65/65/65 66/66/66
f 28/28/28 66/66/66 29/29/29
f 29/29/29 66/66/66 67/67/67
f 29/29/29 67/67/67 30/30/30
f 30/30/30 67/67/67 68/68/68
f 30/30/30 68/68/68 31/31/31
f 31/31/31 68/68/68 69/69/69
f 31/31/31 69/69/69 32/32/32
f 32/32/32 69/69/69 70/70/70
f 32/32/32 70/70/70 33/33/33
f 33/33/33 70/70/70 71/71/71
f 33/33/33 71/71/71 34/34/34
f 34/34/34 71/71/71 72/72/72
f 34/34/34 72/72/72 35/35/35
f 35/35/35 72/72/72 73/73/73
f 35/35/35 73/73/73 36/36/36
f 36/36/36 73/73/73 74/74/74
f 36/36/36 74/74/74 37/37/37
f 38/38/38 75/75/75 76/76/76
f 38/38/38 76/76/76 39/39/39
f 39/39/39 76/76/76 77/77/77
f 39/39/39 77/77/77 40/40/40
f 40/40/40 77/77/77 78/78/78
f 40/40/40 78/78/78 41/41/41
f 41/41/41 78/78/78 79/79/79
f 41/41/41 79/79/79 42/42/42
f 42/42/42 79/79/79 80/80/80
f 42/42/42 80/80/80 43/43/43
f 43/43/43 80/80/80 81/81/81
f 43/43/43 81/81/81 44/44/44
f 44/44/44 81/81/81 82/82/82
f 44/44/44 82/82/82 45/45/45
f 45/45/45 82/82/82 83/83/83
f 45/45/45 83/83/83 46/46/46
f 46/46/46 83/83/83 84/84/84
f 46/46/46 84/84/84 47/47/47
f 47/47/47 84/84/84 85/85/85
f 47/47/47 85/85/85 48/48/48
f 48/48/48 85/85/85 86/86/86
f 48/48/48 86/86/86 49/49/49
f 49/49/49 86/86/86 87/87/87
f 49/49/49 87/87/87 50/50/50
f 50/50/50 87/87/87 88/88/88
f 50/50/50 88/88/88 51/51/51
f 51/51/51 88/88/88 89/89/89
f 51/51/51 89/89/89 52/52/52
f 52/52/52 89/89/89 90/90/90
f 52/52/52 90/90/90 53/53/53
f 53/53/53 90/90/90 91/91/91
f 53/53/53 91/91/91 54/54/54
f 54/54/54 91/91/91 92/92/92
f 54/54/54 92/92/92 55/55/55
f 55/55/55 92/92/92 93/93/93
f 55/55/55 93/93/93 56/56/56
f 56/56/56 93/93/93 94/94/94
f 56/56/56 94/94/94 57/57/57
f 57/57/57 94/94/94 95/95/95
f 57/57/57 95/95/95 58/58/58
f 58/58/58 95/95/95 96/96/96
f 58/58/58 96/96/96 59/59/59
f 59/59/59 96/96/96 97/97/97
f 59/59/59 97/97/97 60/60/60
f 60/60/60 97/97/97 98/98/98
f 60/60/60 98/98/98 61/61/61
f 61/61/61 98/98/98 99/99/99
f 61/61/61 99/99/99 62/62/62
f 62/62/62 99/99/99 100/100/100
f 62/62/62 100/100/100 63/63/63
f 63/63/63 100/100/100 101/101/101
f 63/63/63 101/101/101 64/64/64
f 64/64/64 101/101/101 102/102/102
f 64/64/64 102/102/102 65/65/65
f 65/65/65 102/102/102 103/103/103
f 65/65/65 103/103/103 66/66/66
f 66/66/66 103/103/103 104/104/104
f 66/66/66 104/104/104 67/67/67
f 67/67/67 104/104/104 105/105/105
f 67/67/67 105/105/105 68/68/68
f 68/68/68 105/105/105 106/106/106
f 68/68/68 106/106/106 69/69/69
f 69/69/69 106/106/106 107/107/107
f 69/69/69 107/107/107 70/70/70
f 70/70/70 107/107/107 108/108/108
f 70/70/70 108/108/108 71/71/71
f 71/71/71 108/108/108 109/109/109
f 71/71/71 109/109/109 72/72/72
f 72/72/72 109/109/109 110/110/110
f 72/72/72 110/110/110 73/73/73
f 73/73/73 110/110/110 111/111/111
f 73/73/73 111/111/111 74/74/74
f 75/75/75 112/112/112 113/113/113
f 75/75/75 113/113/113 76/76/76
f 76/76/76 113/113/113 114/114/114
f 76/76/76 114/114/114 77/77/77
f 77/77/77 114/114/114 115/115/115
f 77/77/77 115/115/115 78/78/78
f 78/78/78 115/115/115 116/116/116
f 78/78/78 116/116/116 79/79/79
f 79/79/79 116/116/116 117/117/117
f 79/79/79 117/117/117 80/80/80
f 80/80/80 117/117/117 118/118/118
f 80/80/80 118/118/118 81/81/81
f 81/81/81 118/118/118 119/119/119
f 81/81/81 119/119/119 82/82/82
f 82/82/82 119/119/119 120/120/120
f 82/82/82 120/120/120 83/83/83
f 83/83/83 120/120/120 121/121/121
f 83/83/83 121/121/121 84/84/84
f 84/84/84 121/121/121 122/122/122
f 84/84/84 122/122/122 85/85/85
f 85/85/85 122/122/122 123/123/123
f 85/85/85 123/123/123 86/86/86
f 86/86/86 123/123/123 124/124/124
f 86/86/86 124/124/124 87/87/87
f 87/87/87 124/124/124 125/125/125
f 87/87/87 125/125/125 88/88/88
f 88/88/88 125/125/125 126/126/126
f 88/88/88 126/126/126 89/89/89
f 89/89/89 126/126/126 127/127/127
f 89/89/89 127/127/127 90/90/90
f 90/90/90 127/127/127 128/128/128
f 90/90/90 128/128/128 91/91/91
f 91/91/91 128/128/128 129/129/129
f 91/91/91 129/129/129 92/92/92
f 92/92/92 129/129/129 130/130/130
f 92/92/92 130/130/130 93/93/93
f 93/93/93 130/130/130 131/131/131
f 93/93/93 131/131/131 94/94/94
f 94/94/94 131/131/131 132/132/132
f 94/94/94 132/132/132 95/95/95
f 95/95/95 132/132/132 133/133/133
f 95/95/95 133/133/133 96/96/96
f 96/96/96 133/133/133 134/134/134
f 96/96/96 134/134/134 97/97/97
f 97/97/97 134/134/134 135/135/135
f 97/97/97 135/135/135 98/98/98
f 98/98/98 135/135/135 136/136/136
f 98/98/98 136/136/136 99/99/99
f 99/99/99 136/136/136 137/137/137
f 99/99/99 137/137/137 100/100/100
f 100/100/100 137/137/137 138/138/138
f 100/100/100 138/138/138 101/101/101
f 101/101/101 138/138/138 139/139/139
f 101/101/101 139/139/139 102/102/102
f 102/102/102 139/139/139 140/140/140
f 102/102/102 140/140/140 103/103/103
f 103/103/103 140/140/140 141/141/141
f 103/103/103 141/141/141 104/104/104
f 104/104/104 141/141/141 142/142/142
f 104/104/104 142/142/142 105/105/105
f 105/105/105 142/142/142 143/143/143
f 105/105/105 143/143/143 106/106/106
f 106/106/106 143/143/143 144/144/144
f 106/106/106 144/144/144 107/107/107
f 107/107/107 144/144/144 145/145/145
f 107/107/107 145/145/145 108/108/108
f 108/108/108 145/145/145 146/146/146
f 108/108/108 146/146/146 109/109/109
f 109/109/109 146/146/146 147/147/147
f 109/109/109 147/147/147 110/110/110
f 110/110/110 147/147/147 148/148/148
f 110/110/110 148/148/148 111/111/111
f 112/112/112 149/149/149 150/150/150
f 112/112/112 150/150/150 113/113/113
f 113/113/113 150/150/150 151/151/151
f 113/113/113 151/151/151 114/114/114
f 114/114/114 151/151/151 152/152/152
f 114/114/114 152/152/152 115/115/115
f 115/115/115 152/152/152 153/153/153
f 115/115/115 153/153/153 116/116/116
f 116/116/116 153/153/153 154/154/154
f 116/116/116 154/154/154 117/117/117
f 117/117/117 154/154/154 155/155/155
f 117/117/117 155/155/155 118/118/118
f 118/118/118 155/155/155 156/156/156
f 118/118/118 156/156/156 119/119/119
f 119/119/119 156/156/156 157/157/157
f 119/119/119 157/157/157 120/120/120
f 120/120/120 157/157/157 158/158/158
f 120/120/120 158/158/158 121/121/121
f 121/121/121 158/158/158 159/159/159
f 121/121/121 159/159/159 122/122/122
f 122/122/122 159/159/159 160/160/160
f 122/122/122 160/160/160 123/123/123
f 123/123/123 160/160/160 161/161/161
f 123/123/123 161/161/161 124/124/124
f 124/124/124 161/161/161 162/162/162
f 124/124/124 162/162/162 125/125/125
f 125/125/125 162/162/162 163/163/163
f 125/125/125 163/163/163 126/126/126
f 126/126/126 163/163/163 164/164/164
f 126/126/126 164/164/164 127/127/127
f 127/127/127 164/164/164 165/165/165
f 127/127/127 165/165/165 128/128/128
f 128/128/128 165/165/165 166/166/166
f 128/128/128 166/166/166 129/129/129
f 129/129/129 166/166/166 167/167/167
f 129/129/129 167/167/167 130/130/130
f 130/130/130 167/167/167 168/168/168
f 130/130/130 168/168/168 131/131/131
f 131/131/131 168/168/168 169/169/169
f 131/131/131 169/169/169 132/132/132
f 132/132/132 169/169/169 170/170/170
f 132/132/132 170/170/170 133/133/133
f 133/133/133 170/170/170 171/171/171
f 133/133/133 171/171/171 134/134/134
f 134/134/134 171/171/171 172/172/172
f 134/134/134 172/172/172 135/135/135
f 135/135/135 172/172/172 173/173/173
f 135/135/135 173/173/173 136/136/136
f 136/136/136 173/173/173 174/174/174
f 136/136/136 174/174/174 137/137/137
f 137/137/137 174/174/174 175/175/175
f 137/137/137 175/175/175 138/138/138
f 138/138/138 175/175/175 176/176/176
f 138/138/138 176/176/176 139/139/139
f 139/139/139 176/176/176 177/177/177
f 139/139/139 177/177/177 140/140/140
f 140/140/140 177/177/177 178/178/178
f 140/140/140 178/178/178 141/141/141
f 141/141/141 178/178/178 179/179/179
f 141/141/141 179/179/179 142/142/142
f 142/142/142 179/179/179 180/180/180
f 142/142/142 180/180/180 143/143/143
f 143/143/143 180/180/180 181/181/181
f 143/143/143 181/181/181 144/144/144
f 144/144/144 181/181/181 182/182/182
f 144/144/144 182/182/182 145/145/145
f 145/145/145 182/182/182 183/183/183
f 145/145/145 183/183/183 146/146/146
f 146/146/146 183/183/183 184/184/184
f 146/146/146 184/184/184 147/147/147
f 147/147/147 184/184/184 185/185/185
f 147/147/147 185/185/185 148/148/148
f 149/149/149 186/186/186 187/187/187
f 149/149/149 187/187/187 150/150/150
f 150/150/150 187/187/187 188/188/188
f 150/150/150 188/188/188 151/151/151
f 151/151/151 188/188/188 189/189/189
f 151/151/151 189/189/189 152/152/152
f 152/152/152 189/189/189 190/190/190
f 152/152/152 190/190/190 153/153/153
f 153/153/153 190/190/190 191/191/191
f 153/153/153 191/191/191 154/154/154
f 154/154/154 191/191/191 192/192/192
f 154/154/154 192/192/192 155/155/155
f 155/155/155 192/192/192 193/193/193
f 155/155/155 193/193/193 156/156/156
f 156/156/156 193/193/193 194/194/194
f 156/156/156 194/194/194 157/157/157
f 157/157/157 194/194/194 195/195/195
f 157/157/157 195/195/195 158/158/158
f 158/158/158 195/195/195 196/196/196
f 158/158/158 196/196/196 159/159/159
f 159/159/159 196/196/196 197/197/197
f 159/159/159 197/197/197 160/160/160
f 160/160/160 197/197/197 198/198/198
f 160/160/160 198/198/198 161/161/161
f 161/161/161 198/198/198 199/199/199
f 161/161/161 199/199/199 162/162/162
f 162/162/162 199/199/199 200/200/200
f 162/162/162 200/200/200 163/163/163
f 163/163/163 200/200/200 201/201/201
f 163/163/163 201/201/201 164/164/164
f 164/164/164 201/201/201 202/202/202
f 164/164/164 202/202/202 165/165/165
f 165/165/165 202/202/202 203/203/203
f 165/165/165 203/203/203 166/166/166
f 166/166/166 203/203/203 204/204/204
f 166/166/166 204/204/204 167/167/167
f 167/167/167 204/204/204 205/205/205
f 167/167/167 205/205/205 168/168/168
f 168/168/168 205/205/205 206/206/206
f 168/168/168 206/206/206 169/169/169
f 169/169/169 206/206/206 207/207/207
f 169/169/169 207/207/207 170/170/170
f 170/170/170 207/207/207 208/208/208
f 170/170/170 208/208/208 171/171/171
f 171/171/171 208/208/208 209/209/209
f 171/171/171 209/209/209 172/172/172
f 172/172/172 209/209/209 210/210/210
f 172/172/172 210/210/210 173/173/173
f 173/173/173 210/210/210 211/211/211
f 173/173/173 211/211/211 174/174/174
f 174/174/174 211/211/211 212/212/212
f 174/174/174 212/212/212 175/175/175
f 175/175/175 212/212/212 213/213/213
f 175/175/175 213/213/213 176/176/176
f 176/176/176 213/213/213 214/214/214
f 176/176/176 214/214/214 177/177/177
f 177/177/177 214/214/214 215/215/215
f 177/177/177 215/215/215 178/178/178
f 178/178/178 215/215/215 216/216/216
f 178/178/178 216/216/216 179/179/179
f 179/179/179 216/216/216 217/217/217
f 179/179/179 217/217/217 180/180/180
f 180/180/180 217/217/217 218/218/218
f 180/180/180 218/218/218 181/181/181
f 181/181/181 218/218/218 219/219/219
f 181/181/181 219/219/219 182/182/182
f 182/182/182 219/219/219 220/220/220
f 182/182/182 220/220/220 183/183/183
f 183/183/183 220/220/220 221/221/221
f 183/183/183 221/221/221 184/184/184
f 184/184/184 221/221/221 222/222/222
f 184/184/184 222/222/222 185/185/185
f 186/186/186 223/223/223 224/224/224
f 186/186/186 224/224/224 187/187/187
f 187/187/187 224/224/224 225/225/225
f 187/187/187 225/225/225 188/188/188
f 188/188/188 225/225/225 226/226/226
f 188/188/188 226/226/226 189/189/189
f 189/189/189 226/226/226 227/227/227
f 189/189/189 227/227/227 190/190/190
f 190/190/190 227/227/227 228/228/228
f 190/190/190 228/228/228 191/191/191
f 191/191/191 228/228/228 229/229/229
f 191/191/191 229/229/229 192/192/192
f 192/192/192 229/229/229 230/230/230
f 192/192/192 230/230/230 193/193/193
f 193/193/193 230/230/230 231/231/231
f 193/193/193 231/231/231 194/194/194
f 194/194/194 231/231/231 232/232/232
f 194/194/194 232/232/232 195/195/195
f 195/195/195 232/232/232 233/233/233
f 195/195/195 233/233/233 196/196/196
f 196/196/196 233/233/233 234/234/234
f 196/196/196 234/234/234 197/197/197
f 197/197/197 234/234/234 235/235/235
f 197/197/197 235/235/235 198/198/198
f 198/198/198 235/235/235 236/236/236
f 198/198/198 236/236/236 199/199/199
f 199/199/199 236/236/236 237/237/237
f 199/199/199 237/237/237 200/200/200
f 200/200/200 237/237/237 238/238/238
f 200/200/200 238/238/238 201/201/201
f 201/201/201 238/238/238 239/239/239
f 201/201/201 239/239/239 202/202/202
f 202/202/202 239/239/239 240/240/240
f 202/202/202 240/240/240 203/203/203
f 203/203/203 240/240/240 241/241/241
f 203/203/203 241/241/241 204/204/204
f 204/204/204 241/241/241 242/242/242
f 204/204/204 242/242/242 205/205/205
f 205/205/205 242/242/242 243/243/243
f 205/205/205 243/243/243 206/206/206
f 206/206/206 243/243/243 244/244/244
f 206/206/206 244/244/244 207/207/207
f 207/207/207 244/244/244 245/245/245
f 207/207/207 245/245/245 208/208/208
f 208/208/208 245/245/245 246/246/246
f 208/208/208 246/246/246 209/209/209
f 209/209/209 246/246/246 247/247/247
f 209/209/209 247/247/247 210/210/210
f 210/210/210 247/247/247 248/248/248
f 210/210/210 248/248/248 211/211/211
f 211/211/211 248/248/248 249/249/249
f 211/211/211 249/249/249 212/212/212
f 212/212/212 249/249/249 250/250/250
f 212/212/212 250/250/250 213/213/213
f 213/213/213 250/250/250 251/251/251
f 213/213/213 251/251/251 214/214/214
f 214/214/214 251/251/251 252/252/252
f 214/214/214 252/252/252 215/215/215
f 215/215/215 252/252/252 253/253/253
f 215/215/215 253/253/253 216/216/216
f 216/216/216 253/253/253 254/254/254
f 216/216/216 254/254/254 217/217/217
f 217/217/217 254/254/254 255/255/255
f 217/217/217 255/255/255 218/218/218
f 218/218/218 255/255/255 256/256/256
f 218/218/218 256/256/256 219/219/219
f 219/219/219 256/256/256 257/257/257
f 219/219/219 257/257/257 220/220/220
f 220/220/220 257/257/257 258/258/258
f 220/220/220 258/258/258 221/221/221
f 221/221/221 258/258/258 259/259/259
f 221/221/221 259/259/259 222/222/222
f 223/223/223 260/260/260 261/261/261
f 223/223/223 261/261/261 224/224/224
f 224/224/224 261/261/261 262/262/262
f 224/224/224 262/262/262 225/225/225
f 225/225/225 262/262/262 263/263/263
f 225/225/225 263/263/263 226/226/226
f 226/226/226 263/263/263 264/264/264
f 226/226/226 264/264/264 227/227/227
f 227/227/227 264/264/264 265/265/265
f 227/227/227 265/265/265 228/228/228
f 228/228/228 265/265/265 266/266/266
f 228/228/228 266/266/266 229/229/229
f 229/229/229 266/266/266 267/267/267
f 229/229/229 267/267/267 230/230/230
f 230/230/230 267/267/267 268/268/268
f 230/230/230 268/268/268 231/231/231
f 231/231/231 268/268/268 269/269/269
f 231/231/231 269/269/269 232/232/232
f 232/232/232 269/269/269 270/270/270
f 232/232/232 270/270/270 233/233/233
f 233/233/233 270/270/270 271/271/271
f 233/233/233 271/271/271 234/234/234
f 234/234/234 271/271/271 272/272/272
f 234/234/234 272/272/272 235/235/235
f 235/235/235 272/272/272 273/273/273
f 235/235/235 273/273/273 236/236/236
f 236/236/236 273/273/273 274/274/274
f 236/236/236 274/274/274 237/237/237
f 237/237/237 274/274/274 275/275/275
f 237/237/237 275/275/275 238/238/238
f 238/238/238 275/275/275 276/276/276
f 238/238/238 276/276/276 239/239/239
f 239/239/239 276/276/276 277/277/277
f 239/239/239 277/277/277 240/240/240
f 240/240/240 277/277/277 278/278/278
f 240/240/240 278/278/278 241/241/241
f 241/241/241 278/278/278 279/279/279
f 241/241/241 279/279/279 242/242/242
f 242/242/242 279/279/279 280/280/280
f 242/242/242 280/280/280 243/243/243
f 243/243/243 280/280/280 281/281/281
f 243/243/243 281/281/281 244/244/244
f 244/244/244 281/281/281 282/282/282
f 244/244/244 282/282/282 245/245/245
f 245/245/245 282/282/282 283/283/283
f 245/245/245 283/283/283 246/246/246
f 246/246/246 283/283/283 284/284/284
f 246/246/246 284/284/284 247/247/247
f 247/247/247 284/284/284 285/285/285
f 247/247/247 285/285/285 248/248/248
f 248/248/248 285/285/285 286/286/286
f 248/248/248 286/286/286 249/249/249
f 249/249/249 286/286/286 287/287/287
f 249/249/249 287/287/287 250/250/250
f 250/250/250 287/287/287 288/288/288
f 250/250/250 288/288/288 251/251/251
f 251/251/251 288/288/288 289/289/289
f 251/251/251 289/289/289 252/252/252
f 252/252/252 289/289/289 290/290/290
f 252/252/252 290/290/290 253/253/253
f 253/253/253 290/290/290 291/291/291
f 253/253/253 291/291/291 254/254/254
f 254/254/254 291/291/291 292/292/292
f 254/254/254 292/292/292 255/255/255
f 255/255/255 292/292/292 293/293/293
f 255/255/255 293/293/293 256/256/256
f 256/256/256 293/293/293 294/294/294
f 256/256/256 294/294/294 257/257/257
f 257/257/257 294/294/294 295/295/295
f 257/257/257 295/295/295 258/258/258
f 258/258/258 295/295/295 296/296/296
f 258/258/258 296/296/296 259/259/259
f 260/260/260 297/297/297 298/298/298
f 260/260/260 298/298/298 261/261/261
f 261/261/261 298/298/298 299/299/299
f 261/261/261 299/299/299 262/262/262
f 262/262/262 299/299/299 300/300/300
f 262/262/262 300/300/300 263/263/263
f 263/263/263 300/300/300 301/301/301
f 263/263/263 301/301/301 264/264/264
f 264/264/264 301/301/301 302/302/302
f 264/264/264 302/302/302 265/265/265
f 265/265/265 302/302/302 303/303/303
f 265/265/265 303/303/303 266/266/266
f 266/266/266 303/303/303 304/304/304
f 266/266/266 304/304/304 267/267/267
f 267/267/267 304/304/304 305/305/305
f 267/267/267 305/305/305 268/268/268
f 268/268/268 305/305/305 306/306/306
f 268/268/268 306/306/306 269/269/269
f 269/269/269 306/306/306 307/307/307
f 269/269/269 307/307/307 270/270/270
f 270/270/270 307/307/307 308/308/308
f 270/270/270 308/308/308 271/271/271
f 271/271/271 308/308/308 309/309/309
f 271/271/271 309/309/309 272/272/272
f 272/272/272 309/309/309 310/310/310
f 272/272/272 310/310/310 273/273/273
f 273/273/273 310/310/310 311/311/311
f 273/273/273 311/311/311 274/274/274
f 274/274/274 311/311/311 312/312/312
f 274/274/274 312/312/312 275/275/275
f 275/275/275 312/312/312 313/313/313
f 275/275/275 313/313/313 276/276/276
f 276/276/276 313/313/313 314/314/314
f 276/276/276 314/314/314 277/277/277
f 277/277/277 314/314/314 315/315/315
f 277/277/277 315/315/315 278/278/278
f 278/278/278 315/315/315 316/316/316
f 278/278/278 316/316/316 279/279/279
f 279/279/279 316/316/316 317/317/317
f 279/279/279 317/317/317 280/280/280
f 280/280/280 317/317/317 318/318/318
f 280/280/280 318/318/318 281/281/281
f 281/281/281 318/318/318 319/319/319
f 281/281/281 319/319/319 282/282/282
f 282/282/282 319/319/319 320/320/320
f 282/282/282 320/320/320 283/283/283
f 283/283/283 320/320/320 321/321/321
f 283/283/283 321/321/321 284/284/284
f 284/284/284 321/321/321 322/322/322
f 284/284/284 322/322/322 285/285/285
f 285/285/285 322/322/322 323/323/323
f 285/285/285 323/323/323 286/286/286
f 286/286/286 323/323/323 324/324/324
f 286/286/286 324/324/324 287/287/287
f 287/287/287 324/324/324 325/325/325
f 287/287/287 325/325/325 288/288/288
f 288/288/288 325/325/325 326/326/326
f 288/288/288 326/326/326 289/289/289
f 289/289/289 326/326/326 327/327/327
f 289/289/289 327/327/327 290/290/290
f 290/290/290 327/327/327 328/328/328
f 290/290/290 328/328/328 291/291/291
f 291/291/291 328/328/328 329/329/329
f 291/291/291 329/329/329 292/292/292
f 292/292/292 329/329/329 330/330/330
f 292/292/292 330/330/330 293/293/293
f 293/293/293 330/330/330 331/331/331
f 293/293/293 331/331/331 294/294/294
f 294/294/294 331/331/331 332/332/332
f 294/294/294 332/332/332 295/295/295
f 295/295/295 332/332/332 333/333/333
f 295/295/295 333/333/333 296/296/296
f 297/297/297 334/334/334 335/335/335
f 297/297/297 335/335/335 298/298/298
f 298/298/298 335/335/335 336/336/336
f 298/298/298 336/336/336 299/299/299
f 299/299/299 336/336/336 337/337/337
f 299/299/299 337/337/337 300/300/300
f 300/300/300 337/337/337 338/338/338
f 300/300/300 338/338/338 301/301/301
f 301/301/301 338/338/338 339/339/339
f 301/301/301 339/339/339 302/302/302
f 302/302/302 339/339/339 340/340/340
f 302/302/302 340/340/340 303/303/303
f 303/303/303 340/340/340 341/341/341
f 303/303/303 341/341/341 304/304/304
f 304/304/304 341/341/341 342/342/342
f 304/304/304 342/342/342 305/305/305
f 305/305/305 342/342/342 343/343/343
f 305/305/305 343/343/343 306/306/306
f 306/306/306 343/343/343 344/344/344
f 306/306/306 344/344/344 307/307/307
f 307/307/307 344/344/344 345/345/345
f 307/307/307 345/345/345 308/308/308
f 308/308/308 345/345/345 346/346/346
f 308/308/308 346/346/346 309/309/309
f 309/309/309 346/346/346 347/347/347
f 309/309/309 347/347/347 310/310/310
f 310/310/310 347/347/347 348/348/348
f 310/310/310 348/348/348 311/311/311
f 311/311/311 348/348/348 349/349/349
f 311/311/311 349/349/349 312/312/312
f 312/312/312 349/349/349 350/350/350
f 312/312/312 350/350/350 313/313/313
f 313/313/313 350/350/350 351/351/351
f 313/313/313 351/351/351 314/314/314
f 314/314/314 351/351/351 352/352/352
f 314/314/314 352/352/352 315/315/315
f 315/315/315 352/352/352 353/353/353
f 315/315/315 353/353/353 316/316/316
f 316/316/316 353/353/353 354/354/354
f 316/316/316 354/354/354 317/317/317
f 317/317/317 354/354/354 355/355/355
f 317/317/317 355/355/355 318/318/318
f 318/318/318 355/355/355 356/356/356
f 318/318/318 356/356/356 319/319/319
f 319/319/319 356/356/356 357/357/357
f 319/319/319 357/357/357 320/320/320
f 320/320/320 357/357/357 358/358/358
f 320/320/320 358/358/358 321/321/321
f 321/321/321 358/358/358 359/359/359
f 321/321/321 359/359/359 322/322/322
f 322/322/322 359/359/359 360/360/360
f 322/322/322 360/360/360 323/323/323
f 323/323/323 360/360/360 361/361/361
f 323/323/323 361/361/361 324/324/324
f 324/324/324 361/361/361 362/362/362
f 324/324/324 362/362/362 325/325/325
f 325/325/325 362/362/362 363/363/363
f 325/325/325 363/363/363 326/326/326
f 326/326/326 363/363/363 364/364/364
f 326/326/326 364/364/364 327/327/327
f 327/327/327 364/364/364 365/365/365
f 327/327/327 365/365/365 328/328/328
f 328/328/328 365/365/365 366/366/366
f 328/328/328 366/366/366 329/329/329
f 329/329/329 366/366/366 367/367/367
f 329/329/329 367/367/367 330/330/330
f 330/330/330 367/367/367 368/368/368
f 330/330/330 368/368/368 331/331/331
f 331/331/331 368/368/368 369/369/369
f 331/331/331 369/369/369 332/332/332
f 332/332/332 369/369/369 370/370/370
f 332/332/332 370/370/370 333/333/333
f 334/334/334 371/371/371 372/372/372
f 334/334/334 372/372/372 335/335/335
f 335/335/335 372/372/372 373/373/373
f 335/335/335 373/373/373 336/336/336
f 336/336/336 373/373/373 374/374/374
f 336/336/336 374/374/374 337/337/337
f 337/337/337 374/374/374 375/375/375
f 337/337/337 375/375/375 338/338/338
f 338/338/338 375/375/375 376/376/376
f 338/338/338 376/376/376 339/339/339
f 339/339/339 376/376/376 377/377/377
f 339/339/339 377/377/377 340/340/340
f 340/340/340 377/377/377 378/378/378
f 340/340/340 378/378/378 341/341/341
f 341/341/341 378/378/378 379/379/379
f 341/341/341 379/379/379 342/342/342
f 342/342/342 379/379/379 380/380/380
f 342/342/342 380/380/380 343/343/343
f 343/343/343 380/380/380 381/381/381
f 343/343/343 381/381/381 344/344/344
f 344/344/344 381/381/381 382/382/382
f 344/344/344 382/382/382 345/345/345
f 345/345/345 382/382/382 383/383/383
f 345/345/345 383/383/383 346/346/346
f 346/346/346 383/383/383 384/384/384
f 346/346/346 384/384/384 347/347/347
f 347/347/347 384/384/384 385/385/385
f 347/347/347 385/385/385 348/348/348
f 348/348/348 385/385/385 386/386/386
f 348/348/348 386/386/386 349/349/349
f 349/349/349 386/386/386 387/387/387
f 349/349/349 387/387/387 350/350/350
f 350/350/350 387/387/387 388/388/388
f 350/350/350 388/388/388 351/351/351
f 351/351/351 388/388/388 389/389/389
f 351/351/351 389/389/389 352/352/352
f 352/352/352 389/389/389 390/390/390
f 352/352/352 390/390/390 353/353/353
f 353/353/353 390/390/390 391/391/391
f 353/353/353 391/391/391 354/354/354
f 354/354/354 391/391/391 392/392/392
f 354/354/354 392/392/392 355/355/355
f 355/355/355 392/392/392 393/393/393
f 355/355/355 393/393/393 356/356/356
f 356/356/356 393/393/393 394/394/394
f 356/356/356 394/394/394 357/357/357
f 357/357/357 394/394/394 395/395/395
f 357/357/357 395/395/395 358/358/358
f 358/358/358 395/395/395 396/396/396
f 358/358/358 396/396/396 359/359/359
f 359/359/359 396/396/396 397/397/397
f 359/359/359 397/397/397 360/360/360
f 360/360/360 397/397/397 398/398/398
f 360/360/360 398/398/398 361/361/361
f 361/361/361 398/398/398 399/399/399
f 361/361/361 399/399/399 362/362/362
f 362/362/362 399/399/399 400/400/400
f 362/362/362 400/400/400 363/363/363
f 363/363/363 400/400/400 401/401/401
f 363/363/363 401/401/401 364/364/364
f 364/364/364 401/401/401 402/402/402
f 364/364/364 402/402/402 365/365/365
f 365/365/365 402/402/402 403/403/403
f 365/365/365 403/403/403 366/366/366
f 366/366/366 403/403/403 404/404/404
f 366/366/366 404/404/404 367/367/367
f 367/367/367 404/404/404 405/405/405
f 367/367/367 405/405/405 368/368/368
f 368/368/368 405/405/405 406/406/406
f 368/368/368 406/406/406 369/369/369
f 369/369/369 406/406/406 407/407/407
f 369/369/369 407/407/407 370/370/370
f 371/371/371 408/408/408 409/409/409
f 371/371/371 409/409/409 372/372/372
f 372/372/372 409/409/409 410/410/410
f 372/372/372 410/410/410 373/373/373
f 373/373/373 410/410/410 411/411/411
f 373/373/373 411/411/411 374/374/374
f 374/374/374 411/411/411 412/412/412
f 374/374/374 412/412/412 375/375/375
f 375/375/375 412/412/412 413/413/413
f 375/375/375 413/413/413 376/376/376
f 376/376/376 413/413/413 414/414/414
f 376/376/376 414/414/414 377/377/377
f 377/377/377 414/414/414 415/415/415
f 377/377/377 415/415/415 378/378/378
f 378/378/378 415/415/415 416/416/416
f 378/378/378 416/416/416 379/379/379
f 379/379/379 416/416/416 417/417/417
f 379/379/379 417/417/417 380/380/380
f 380/380/380 417/417/417 418/418/418
f 380/380/380 418/418/418 381/381/381
f 381/381/381 418/418/418 419/419/419
f 381/381/381 419/419/419 382/382/382
f 382/382/382 419/419/419 420/420/420
f 382/382/382 420/420/420 383/383/383
f 383/383/383 420/420/420 421/421/421
f 383/383/383 421/421/421 384/384/384
f 384/384/384 421/421/421 422/422/422
f 384/384/384 422/422/422 385/385/385
f 385/385/385 422/422/422 423/423/423
f 385/385/385 423/423/423 386/386/386
f 386/386/386 423/423/423 424/424/424
f 386/386/386 424/424/424 387/387/387
f 387/387/387 424/424/424 425/425/425
f 387/387/387 425/425/425 388/388/388
f 388/388/388 425/425/425 426/426/426
f 388/388/388 426/426/426 389/389/389
f 389/389/389 426/426/426 427/427/427
f 389/389/389 427/427/427 390/390/390
f 390/390/390 427/427/427 428/428/428
f 390/390/390 428/428/428 391/391/391
f 391/391/391 428/428/428 429/429/429
f 391/391/391 429/429/429 392/392/392
f 392/392/392 429/429/429 430/430/430
f 392/392/392 430/430/430 393/393/393
f 393/393/393 430/430/430 431/431/431
f 393/393/393 431/431/431 394/394/394
f 394/394/394 431/431/431 432/432/432
f 394/394/394 432/432/432 395/395/395
f 395/395/395 432/432/432 433/433/433
f 395/395/395 433/433/433 396/396/396
f 396/396/396 433/433/433 434/434/434
f 396/396/396 434/434/434 397/397/397
f 397/397/397 434/434/434 435/435/435
f 397/397/397 435/435/435 398/398/398
f 398/398/398 435/435/435 436/436/436
f 398/398/398 436/436/436 399/399/399
f 399/399/399 436/436/436 437/437/437
f 399/399/399 437/437/437 400/400/400
f 400/400/400 437/437/437 438/438/438
f 400/400/400 438/438/438 401/401/401
f 401/401/401 438/438/438 439/439/439
f 401/401/401 439/439/439 402/402/402
f 402/402/402 439/439/439 440/440/440
f 402/402/402 440/440/440 403/403/403
f 403/403/403 440/440/440 441/441/441
f 403/403/403 441/441/441 404/404/404
f 404/404/404 441/441/441 442/442/442
f 404/404/404 442/442/442 405/405/405
f 405/405/405 442/442/442 443/443/443
f 405/405/405 443/443/443 406/406/406
f 406/406/406 443/443/443 444/444/444
f 406/406/406 444/444/444 407/407/407
