# Generated sky cornice; visual geometry only.
s 1
v 4.147362 -4.590453 -40.000000
v 4.292863 -2.827210 -40.000000
v 4.524435 0.020423 -40.000000
v 4.633048 3.371123 -40.000000
v 4.409674 6.623017 -40.000000
v 3.776437 9.655888 -40.000000
v 2.852199 12.643781 -40.000000
v 1.723029 15.407276 -40.000000
v 0.475000 17.764257 -40.000000
v -0.945171 19.591884 -40.000000
v -2.557978 20.853557 -40.000000
v -4.228165 21.508578 -40.000000
v -5.820478 21.533745 -40.000000
v -7.395372 20.817899 -40.000000
v -8.992808 19.362647 -40.000000
v -10.446793 17.346521 -40.000000
v -11.591333 14.970542 -40.000000
v -12.398760 12.317846 -40.000000
v -12.952074 9.378105 -40.000000
v -13.251273 6.236940 -40.000000
v -13.296358 2.987913 -40.000000
v -13.065810 -0.359010 -40.000000
v -12.566804 -3.682247 -40.000000
v -11.842373 -6.725339 -40.000000
v -10.935554 -9.245330 -40.000000
v -9.758225 -11.080441 -40.000000
v -8.320635 -12.312250 -40.000000
v -6.813368 -13.318460 -40.000000
v -5.427010 -14.427137 -40.000000
v -4.137995 -15.621884 -40.000000
v -2.869473 -16.837124 -40.000000
v -1.732106 -18.158929 -40.000000
v -0.836558 -19.673368 -40.000000
v -0.247381 -21.640705 -40.000000
v 0.106124 -23.935931 -40.000000
v 0.316179 -26.067213 -40.000000
v 0.475000 -27.542716 -40.000000
v 3.886266 -4.264083 -32.000000
v 4.021422 -2.646406 -32.000000
v 4.236530 -0.060661 -32.000000
v 4.337421 2.956634 -32.000000
v 4.129928 5.851963 -32.000000
v 3.541713 8.520987 -32.000000
v 2.683186 11.134044 -32.000000
v 1.634298 13.533965 -32.000000
v 0.475000 15.561355 -32.000000
v -0.844201 17.111580 -32.000000
v -2.342340 18.159265 -32.000000
v -3.893781 18.673873 -32.000000
v -5.372885 18.639339 -32.000000
v -6.835808 17.955794 -32.000000
v -8.319671 16.625818 -32.000000
v -9.670281 14.813973 -32.000000
v -10.733446 12.703426 -32.000000
v -11.483468 10.365758 -32.000000
v -11.997442 7.783985 -32.000000
v -12.275369 5.028927 -32.000000
v -12.317248 2.177978 -32.000000
v -12.103092 -0.769375 -32.000000
v -11.639564 -3.709645 -32.000000
v -10.966638 -6.413183 -32.000000
v -10.124292 -8.661512 -32.000000
v -9.030668 -10.309762 -32.000000
v -7.695287 -11.436879 -32.000000
v -6.295183 -12.371551 -32.000000
v -5.007392 -13.401403 -32.000000
v -3.810022 -14.511207 -32.000000
v -2.631689 -15.640047 -32.000000
v -1.575186 -16.867874 -32.000000
v -0.743309 -18.274641 -32.000000
v -0.196022 -20.102105 -32.000000
v 0.132350 -22.234146 -32.000000
v 0.327470 -24.213899 -32.000000
v 0.475000 -25.584497 -32.000000
v 3.649336 -3.967920 -24.000000
v 3.775105 -2.481169 -24.000000
v 3.975273 -0.129640 -24.000000
v 4.069156 2.590607 -24.000000
v 3.876075 5.169615 -24.000000
v 3.328714 7.517031 -24.000000
v 2.529816 9.799326 -24.000000
v 1.553778 11.878977 -24.000000
v 0.475000 13.616640 -24.000000
v -0.752575 14.923658 -24.000000
v -2.146662 15.784340 -24.000000
v -3.590347 16.176952 -24.000000
v -4.966719 16.091589 -24.000000
v -6.328035 15.438429 -24.000000
v -7.708836 14.220874 -24.000000
v -8.965639 12.590883 -24.000000
v -9.954962 10.715625 -24.000000
v -10.652891 8.656525 -24.000000
v -11.131167 6.390981 -24.000000
v -11.389790 3.976891 -24.000000
v -11.428761 1.477524 -24.000000
v -11.229479 -1.116578 -24.000000
v -10.798145 -3.717801 -24.000000
v -10.171958 -6.120330 -24.000000
v -9.388116 -8.127483 -24.000000
v -8.370451 -9.609425 -24.000000
v -7.127819 -10.642529 -24.000000
v -5.824959 -11.512283 -24.000000
v -4.626612 -12.470607 -24.000000
v -3.512406 -13.503329 -24.000000
v -2.415913 -14.553765 -24.000000
v -1.432790 -15.696313 -24.000000
v -0.658692 -17.005373 -24.000000
v -0.149416 -18.705910 -24.000000
v 0.156149 -20.689870 -24.000000
v 0.337717 -22.532119 -24.000000
v 0.475000 -23.807522 -24.000000
v 3.443421 -3.710527 -16.000000
v 3.561032 -2.336608 -16.000000
v 3.748215 -0.185830 -16.000000
v 3.836008 2.280746 -16.000000
v 3.655451 4.590759 -16.000000
v 3.143598 6.665662 -16.000000
v 2.396523 8.668160 -16.000000
v 1.483799 10.477354 -16.000000
v 0.475000 11.970865 -16.000000
v -0.672944 13.073471 -16.000000
v -1.976598 13.777498 -16.000000
v -3.326633 14.068514 -16.000000
v -4.613722 13.941709 -16.000000
v -5.886731 13.315834 -16.000000
v -7.177961 12.194953 -16.000000
v -8.353237 10.720134 -16.000000
v -9.278384 9.044811 -16.000000
v -9.931039 7.221844 -16.000000
v -10.378290 5.224103 -16.000000
v -10.620137 3.098663 -16.000000
v -10.656580 0.896967 -16.000000
v -10.470225 -1.397755 -16.000000
v -10.066871 -3.711237 -16.000000
v -9.481304 -5.857976 -16.000000
v -8.748309 -7.659891 -16.000000
v -7.796658 -8.999957 -16.000000
v -6.634634 -9.952163 -16.000000
v -5.416289 -10.765497 -16.000000
v -4.295677 -11.661655 -16.000000
v -3.253748 -12.627386 -16.000000
v -2.228384 -13.609682 -16.000000
v -1.309034 -14.678115 -16.000000
v -0.585150 -15.902257 -16.000000
v -0.108911 -17.492483 -16.000000
v 0.176833 -19.347746 -16.000000
v 0.346622 -21.070491 -16.000000
v 0.475000 -22.263160 -16.000000
v 3.274694 -3.499617 -8.000000
v 3.385619 -2.217703 -8.000000
v 3.562162 -0.230094 -8.000000
v 3.644965 2.030749 -8.000000
v 3.474672 4.123146 -8.000000
v 2.991912 5.978061 -8.000000
v 2.287302 7.754919 -8.000000
v 1.426458 9.346230 -8.000000
v 0.475000 10.643300 -8.000000
v -0.607694 11.581705 -8.000000
v -1.837247 12.160143 -8.000000
v -3.110545 12.370006 -8.000000
v -4.324475 12.210537 -8.000000
v -5.525124 11.607436 -8.000000
v -6.742960 10.565283 -8.000000
v -7.851432 9.216251 -8.000000
v -8.723993 7.702599 -8.000000
v -9.339551 6.070299 -8.000000
v -9.761379 4.288670 -8.000000
v -9.989479 2.396115 -8.000000
v -10.023851 0.434600 -8.000000
v -9.848089 -1.618417 -8.000000
v -9.467662 -3.699400 -8.000000
v -8.915378 -5.639294 -8.000000
v -8.224048 -7.275102 -8.000000
v -7.326490 -8.500174 -8.000000
v -6.230516 -9.386472 -8.000000
v -5.081423 -10.153576 -8.000000
v -4.024507 -10.998796 -8.000000
v -3.041803 -11.909634 -8.000000
v -2.074721 -12.836095 -8.000000
v -1.207628 -13.843797 -8.000000
v -0.524891 -14.998358 -8.000000
v -0.075721 -16.498194 -8.000000
v 0.193781 -18.248002 -8.000000
v 0.353920 -19.872825 -8.000000
v 0.475000 -20.997701 -8.000000
v 3.148448 -3.341810 -0.000000
v 3.254371 -2.129023 -0.000000
v 3.422954 -0.264341 -0.000000
v 3.502023 1.841219 -0.000000
v 3.339409 3.769014 -0.000000
v 2.878418 5.457229 -0.000000
v 2.205580 7.062956 -0.000000
v 1.383555 8.488876 -0.000000
v 0.475000 9.636669 -0.000000
v -0.558872 10.450125 -0.000000
v -1.732982 10.932833 -0.000000
v -2.948863 11.080647 -0.000000
v -4.108054 10.895916 -0.000000
v -5.254563 10.309591 -0.000000
v -6.417483 9.326654 -0.000000
v -7.475971 8.072602 -0.000000
v -8.309186 6.681284 -0.000000
v -8.896987 5.193435 -0.000000
v -9.299794 3.575616 -0.000000
v -9.517608 1.859618 -0.000000
v -9.550430 0.080180 -0.000000
v -9.382593 -1.789699 -0.000000
v -9.019321 -3.694642 -0.000000
v -8.491941 -5.478025 -0.000000
v -7.831785 -6.988237 -0.000000
v -6.974700 -8.126468 -0.000000
v -5.928147 -8.963212 -0.000000
v -4.830869 -9.695724 -0.000000
v -3.821613 -10.502831 -0.000000
v -2.883221 -11.372597 -0.000000
v -1.959747 -12.257281 -0.000000
v -1.131754 -13.219544 -0.000000
v -0.479803 -14.322043 -0.000000
v -0.050888 -15.754247 -0.000000
v 0.206462 -17.425152 -0.000000
v 0.359379 -18.976706 -0.000000
v 0.475000 -20.050860 -0.000000
v 3.068928 -3.242410 8.000000
v 3.171701 -2.074445 8.000000
v 3.335269 -0.290960 8.000000
v 3.411987 1.710760 8.000000
v 3.254209 3.526931 8.000000
v 2.806930 5.100753 8.000000
v 2.154105 6.588397 8.000000
v 1.356530 7.899551 8.000000
v 0.475000 8.943049 8.000000
v -0.528121 9.668458 8.000000
v -1.667307 10.082992 8.000000
v -2.847023 10.185775 8.000000
v -3.971734 9.981463 8.000000
v -5.084141 9.404526 8.000000
v -6.212471 8.460270 8.000000
v -7.239476 7.269907 8.000000
v -8.047907 5.961760 8.000000
v -8.618224 4.572910 8.000000
v -9.009050 3.067712 8.000000
v -9.220386 1.473238 8.000000
v -9.252231 -0.180925 8.000000
v -9.089386 -1.925207 8.000000
v -8.736919 -3.709971 8.000000
v -8.225226 -5.386963 8.000000
v -7.584705 -6.812203 8.000000
v -6.753114 -7.892162 8.000000
v -5.737690 -8.696607 8.000000
v -4.673050 -9.407332 8.000000
v -3.693813 -10.190432 8.000000
v -2.783333 -11.034327 8.000000
v -1.887327 -11.892698 8.000000
v -1.083962 -12.826338 8.000000
v -0.451403 -13.896044 8.000000
v -0.035245 -15.285648 8.000000
v 0.214449 -16.906853 8.000000
v 0.362818 -18.412258 8.000000
v 0.475000 -19.454461 8.000000
v 3.039183 -3.205229 16.000000
v 3.140778 -2.056911 16.000000
v 3.302470 -0.312276 16.000000
v 3.378308 1.637024 16.000000
v 3.222339 3.393560 16.000000
v 2.780189 4.903449 16.000000
v 2.134851 6.323757 16.000000
v 1.346422 7.568146 16.000000
v 0.475000 8.549523 16.000000
v -0.516618 9.220962 16.000000
v -1.642741 9.592266 16.000000
v -2.808929 9.664818 16.000000
v -3.920743 9.444921 16.000000
v -5.020394 8.868844 16.000000
v -6.135785 7.942168 16.000000
v -7.151013 6.784320 16.000000
v -7.950174 5.521050 16.000000
v -8.513951 4.187265 16.000000
v -8.900295 2.745442 16.000000
v -9.109208 1.219646 16.000000
v -9.140688 -0.363825 16.000000
v -8.979711 -2.038073 16.000000
v -8.631285 -3.756957 16.000000
v -8.125460 -5.376580 16.000000
v -7.492284 -6.756842 16.000000
v -6.670229 -7.806960 16.000000
v -5.666448 -8.596883 16.000000
v -4.614017 -9.299457 16.000000
v -3.646009 -10.073577 16.000000
v -2.745969 -10.907796 16.000000
v -1.860238 -11.756323 16.000000
v -1.066086 -12.679257 16.000000
v -0.440780 -13.736697 16.000000
v -0.029394 -15.110366 16.000000
v 0.217437 -16.712981 16.000000
v 0.364105 -18.201123 16.000000
v 0.475000 -19.231375 16.000000
v 3.060961 -3.232451 24.000000
v 3.163418 -2.078242 24.000000
v 3.326484 -0.330148 24.000000
v 3.402966 1.617516 24.000000
v 3.245673 3.365008 24.000000
v 2.799767 4.859393 24.000000
v 2.148948 6.260722 24.000000
v 1.353823 7.483743 24.000000
v 0.475000 8.442487 24.000000
v -0.525040 9.091444 24.000000
v -1.660727 9.442147 24.000000
v -2.836820 9.497379 24.000000
v -3.958076 9.264546 24.000000
v -5.067067 8.680022 24.000000
v -6.191931 7.749644 24.000000
v -7.215781 6.593610 24.000000
v -8.021729 5.338056 24.000000
v -8.590294 4.017109 24.000000
v -8.979920 2.591511 24.000000
v -9.190607 1.083868 24.000000
v -9.222354 -0.481117 24.000000
v -9.060010 -2.138696 24.000000
v -8.708625 -3.844140 24.000000
v -8.198504 -5.453972 24.000000
v -7.559951 -6.828276 24.000000
v -6.730913 -7.876535 24.000000
v -5.718608 -8.669896 24.000000
v -4.657238 -9.378438 24.000000
v -3.681009 -10.159133 24.000000
v -2.773325 -11.000436 24.000000
v -1.880072 -11.856170 24.000000
v -1.079174 -12.786943 24.000000
v -0.448558 -13.853363 24.000000
v -0.033678 -15.238699 24.000000
v 0.215249 -16.854925 24.000000
v 0.363163 -18.355706 24.000000
v 0.475000 -19.394708 24.000000
v 3.134641 -3.324551 32.000000
v 3.240017 -2.139026 32.000000
v 3.407729 -0.345745 32.000000
v 3.486390 1.650012 32.000000
v 3.324615 3.437548 32.000000
v 2.866005 4.962988 32.000000
v 2.196642 6.391618 32.000000
v 1.378862 7.636495 32.000000
v 0.475000 8.609960 32.000000
v -0.553533 9.265943 32.000000
v -1.721578 9.616975 32.000000
v -2.931180 9.666485 32.000000
v -4.084384 9.422516 32.000000
v -5.224972 8.819892 32.000000
v -6.381886 7.864702 32.000000
v -7.434908 6.680468 32.000000
v -8.263819 5.396643 32.000000
v -8.848584 4.047888 32.000000
v -9.249311 2.593252 32.000000
v -9.466001 1.055308 32.000000
v -9.498653 -0.541277 32.000000
v -9.331683 -2.233519 32.000000
v -8.970286 -3.976151 32.000000
v -8.445631 -5.622272 32.000000
v -7.788884 -7.028543 32.000000
v -6.936225 -8.102285 32.000000
v -5.895077 -8.916920 32.000000
v -4.803467 -9.645650 32.000000
v -3.799423 -10.448588 32.000000
v -2.865877 -11.313862 32.000000
v -1.947173 -12.193978 32.000000
v -1.123456 -13.151270 32.000000
v -0.474872 -14.248075 32.000000
v -0.048172 -15.672883 32.000000
v 0.207849 -17.335158 32.000000
v 0.359976 -18.878700 32.000000
v 0.475000 -19.947305 32.000000
v 3.259208 -3.480260 40.000000
v 3.369520 -2.238599 40.000000
v 3.545087 -0.359530 40.000000
v 3.627432 1.732579 40.000000
v 3.458080 3.607628 40.000000
v 2.977991 5.208996 40.000000
v 2.277278 6.709450 40.000000
v 1.421196 8.017685 40.000000
v 0.475000 9.041644 40.000000
v -0.601705 9.732810 40.000000
v -1.824458 10.104042 40.000000
v -3.090713 10.158709 40.000000
v -4.297928 9.905064 40.000000
v -5.491937 9.274778 40.000000
v -6.703036 8.274191 40.000000
v -7.805378 7.032649 40.000000
v -8.673112 5.685776 40.000000
v -9.285265 4.270027 40.000000
v -9.704761 2.742757 40.000000
v -9.931599 1.127858 40.000000
v -9.965780 -0.548557 40.000000
v -9.790990 -2.324946 40.000000
v -9.412667 -4.153633 40.000000
v -8.863439 -5.880578 40.000000
v -8.175932 -7.355510 40.000000
v -7.283339 -8.481248 40.000000
v -6.193427 -9.334555 40.000000
v -5.050690 -10.097415 40.000000
v -3.999620 -10.937960 40.000000
v -3.022351 -11.843760 40.000000
v -2.060618 -12.765097 40.000000
v -1.198321 -13.767225 40.000000
v -0.519360 -14.915400 40.000000
v -0.072675 -16.406940 40.000000
v 0.195336 -18.147070 40.000000
v 0.354589 -19.762905 40.000000
v 0.475000 -20.881560 40.000000
vt 0.18164062 1.02286494
vt 0.18164062 1.01940940
vt 0.18164062 1.01382926
vt 0.18164062 1.00728148
vt 0.18164062 1.00091516
vt 0.18164062 0.99486385
vt 0.18164062 0.98875530
vt 0.18164062 0.98292467
vt 0.18164062 0.97771567
vt 0.18164062 0.97319507
vt 0.18164062 0.96919571
vt 0.18164062 0.96569173
vt 0.18164062 0.96258136
vt 0.18164062 0.95920255
vt 0.18164062 0.95498201
vt 0.18164062 0.95012707
vt 0.18164062 0.94497613
vt 0.18164062 0.93956040
vt 0.18164062 0.93371790
vt 0.18164062 0.92755504
vt 0.18164062 0.92120868
vt 0.18164062 0.91465623
vt 0.18164062 0.90809276
vt 0.18164062 0.90198313
vt 0.18164062 0.89675230
vt 0.18164062 0.89249389
vt 0.18164062 0.88879633
vt 0.18164062 0.88525675
vt 0.18164062 0.88178966
vt 0.18164062 0.87835695
vt 0.18164062 0.87492591
vt 0.18164062 0.87152009
vt 0.18164062 0.86808374
vt 0.18164062 0.86407267
vt 0.18164062 0.85953695
vt 0.18164062 0.85535412
vt 0.18164062 0.85245563
vt 0.19726562 1.00983808
vt 0.19726562 1.00666754
vt 0.19726562 1.00159981
vt 0.19726562 0.99570337
vt 0.19726562 0.99003392
vt 0.19726562 0.98469589
vt 0.19726562 0.97932386
vt 0.19726562 0.97420839
vt 0.19726562 0.96964699
vt 0.19726562 0.96567129
vt 0.19726562 0.96210072
vt 0.19726562 0.95890822
vt 0.19726562 0.95601856
vt 0.19726562 0.95286477
vt 0.19726562 0.94897286
vt 0.19726562 0.94455909
vt 0.19726562 0.93994346
vt 0.19726562 0.93514846
vt 0.19726562 0.93000698
vt 0.19726562 0.92459870
vt 0.19726562 0.91902984
vt 0.19726562 0.91325811
vt 0.19726562 0.90744447
vt 0.19726562 0.90200301
vt 0.19726562 0.89731367
vt 0.19726562 0.89345026
vt 0.19726562 0.89003724
vt 0.19726562 0.88674931
vt 0.19726562 0.88352873
vt 0.19726562 0.88034007
vt 0.19726562 0.87715298
vt 0.19726562 0.87398930
vt 0.19726562 0.87079726
vt 0.19726562 0.86707137
vt 0.19726562 0.86285813
vt 0.19726562 0.85897269
vt 0.19726562 0.85628028
vt 0.21289062 0.99833942
vt 0.21289062 0.99542524
vt 0.21289062 0.99081580
vt 0.21289062 0.98549966
vt 0.21289062 0.98044843
vt 0.21289062 0.97574065
vt 0.21289062 0.97101784
vt 0.21289062 0.96653092
vt 0.21289062 0.96253620
vt 0.21289062 0.95903404
vt 0.21289062 0.95583410
vt 0.21289062 0.95291199
vt 0.21289062 0.95021860
vt 0.21289062 0.94726957
vt 0.21289062 0.94367399
vt 0.21289062 0.93965396
vt 0.21289062 0.93551289
vt 0.21289062 0.93126648
vt 0.21289062 0.92674406
vt 0.21289062 0.92200206
vt 0.21289062 0.91711989
vt 0.21289062 0.91203836
vt 0.21289062 0.90688847
vt 0.21289062 0.90203927
vt 0.21289062 0.89783071
vt 0.21289062 0.89431954
vt 0.21289062 0.89116330
vt 0.21289062 0.88810374
vt 0.21289062 0.88510684
vt 0.21289062 0.88213965
vt 0.21289062 0.87917391
vt 0.21289062 0.87622997
vt 0.21289062 0.87325964
vt 0.21289062 0.86979253
vt 0.21289062 0.86587192
vt 0.21289062 0.86225634
vt 0.21289062 0.85975093
vt 0.22851562 0.98861371
vt 0.22851562 0.98592046
vt 0.22851562 0.98170385
vt 0.22851562 0.97688326
vt 0.22851562 0.97235776
vt 0.22851562 0.96818373
vt 0.22851562 0.96400928
vt 0.22851562 0.96005149
vt 0.22851562 0.95653139
vt 0.22851562 0.95342260
vt 0.22851562 0.95052883
vt 0.22851562 0.94783148
vt 0.22851562 0.94530546
vt 0.22851562 0.94253487
vt 0.22851562 0.93919528
vt 0.22851562 0.93551201
vt 0.22851562 0.93177413
vt 0.22851562 0.92799235
vt 0.22851562 0.92399392
vt 0.22851562 0.91981588
vt 0.22851562 0.91551511
vt 0.22851562 0.91101847
vt 0.22851562 0.90643179
vt 0.22851562 0.90208576
vt 0.22851562 0.89828635
vt 0.22851562 0.89507620
vt 0.22851562 0.89214196
vt 0.22851562 0.88928086
vt 0.22851562 0.88647837
vt 0.22851562 0.88370366
vt 0.22851562 0.88093030
vt 0.22851562 0.87817733
vt 0.22851562 0.87539968
vt 0.22851562 0.87215748
vt 0.22851562 0.86849119
vt 0.22851562 0.86511015
vt 0.22851562 0.86276727
vt 0.24414062 0.98078847
vt 0.24414062 0.97827538
vt 0.24414062 0.97437805
vt 0.24414062 0.96995938
vt 0.24414062 0.96585915
vt 0.24414062 0.96211558
vt 0.24414062 0.95838225
vt 0.24414062 0.95484859
vt 0.24414062 0.95170676
vt 0.24414062 0.94890838
vt 0.24414062 0.94625443
vt 0.24414062 0.94373397
vt 0.24414062 0.94134264
vt 0.24414062 0.93871840
vt 0.24414062 0.93558779
vt 0.24414062 0.93217759
vt 0.24414062 0.92876520
vt 0.24414062 0.92535795
vt 0.24414062 0.92178201
vt 0.24414062 0.91805886
vt 0.24414062 0.91422719
vt 0.24414062 0.91020272
vt 0.24414062 0.90607094
vt 0.24414062 0.90213153
vt 0.24414062 0.89866298
vt 0.24414062 0.89569680
vt 0.24414062 0.89294387
vt 0.24414062 0.89024540
vt 0.24414062 0.88760221
vt 0.24414062 0.88498521
vt 0.24414062 0.88236950
vt 0.24414062 0.87977301
vt 0.24414062 0.87715324
vt 0.24414062 0.87409533
vt 0.24414062 0.87063744
vt 0.24414062 0.86744858
vt 0.24414062 0.86523886
vt 0.25976562 0.97490095
vt 0.25976562 0.97252320
vt 0.25976562 0.96886640
vt 0.25976562 0.96475107
vt 0.25976562 0.96097248
vt 0.25976562 0.95755446
vt 0.25976562 0.95415408
vt 0.25976562 0.95093944
vt 0.25976562 0.94808033
vt 0.25976562 0.94551094
vt 0.25976562 0.94303152
vt 0.25976562 0.94063927
vt 0.25976562 0.93834666
vt 0.25976562 0.93583155
vt 0.25976562 0.93285757
vt 0.25976562 0.92965239
vt 0.25976562 0.92648495
vt 0.25976562 0.92336044
vt 0.25976562 0.92010417
vt 0.25976562 0.91672572
vt 0.25976562 0.91324966
vt 0.25976562 0.90958287
vt 0.25976562 0.90579523
vt 0.25976562 0.90216295
vt 0.25976562 0.89894382
vt 0.25976562 0.89616093
vt 0.25976562 0.89354388
vt 0.25976562 0.89096709
vt 0.25976562 0.88844308
vt 0.25976562 0.88594410
vt 0.25976562 0.88344633
vt 0.25976562 0.88096693
vt 0.25976562 0.87846529
vt 0.25976562 0.87554527
vt 0.25976562 0.87224330
vt 0.25976562 0.86919824
vt 0.25976562 0.86708816
vt 0.27539062 0.97092925
vt 0.27539062 0.96863925
vt 0.27539062 0.96514126
vt 0.27539062 0.96122878
vt 0.27539062 0.95766821
vt 0.27539062 0.95447262
vt 0.27539062 0.95129961
vt 0.27539062 0.94830218
vt 0.27539062 0.94563419
vt 0.27539062 0.94321636
vt 0.27539062 0.94084866
vt 0.27539062 0.93853579
vt 0.27539062 0.93630314
vt 0.27539062 0.93385565
vt 0.27539062 0.93098200
vt 0.27539062 0.92791136
vt 0.27539062 0.92490786
vt 0.27539062 0.92197546
vt 0.27539062 0.91893814
vt 0.27539062 0.91579670
vt 0.27539062 0.91256531
vt 0.27539062 0.90914369
vt 0.27539062 0.90559050
vt 0.27539062 0.90216605
vt 0.27539062 0.89911418
vt 0.27539062 0.89645201
vt 0.27539062 0.89392181
vt 0.27539062 0.89142167
vt 0.27539062 0.88897274
vt 0.27539062 0.88654808
vt 0.27539062 0.88412461
vt 0.27539062 0.88171895
vt 0.27539062 0.87929173
vt 0.27539062 0.87645856
vt 0.27539062 0.87325481
vt 0.27539062 0.87030032
vt 0.27539062 0.86825300
vt 0.29101562 0.96882105
vt 0.29101562 0.96656948
vt 0.29101562 0.96314739
vt 0.29101562 0.95933728
vt 0.29101562 0.95589305
vt 0.29101562 0.95282020
vt 0.29101562 0.94977324
vt 0.29101562 0.94689603
vt 0.29101562 0.94433268
vt 0.29101562 0.94199371
vt 0.29101562 0.93967778
vt 0.29101562 0.93739566
vt 0.29101562 0.93518209
vt 0.29101562 0.93275746
vt 0.29101562 0.92992521
vt 0.29101562 0.92691759
vt 0.29101562 0.92399800
vt 0.29101562 0.92116980
vt 0.29101562 0.91825439
vt 0.29101562 0.91524652
vt 0.29101562 0.91215319
vt 0.29101562 0.90886809
vt 0.29101562 0.90544262
vt 0.29101562 0.90212861
vt 0.29101562 0.89916267
vt 0.29101562 0.89655795
vt 0.29101562 0.89406318
vt 0.29101562 0.89159171
vt 0.29101562 0.88917086
vt 0.29101562 0.88677400
vt 0.29101562 0.88437833
vt 0.29101562 0.88200025
vt 0.29101562 0.87960086
vt 0.29101562 0.87680018
vt 0.29101562 0.87363316
vt 0.29101562 0.87071255
vt 0.29101562 0.86868872
vt 0.30664062 0.96851458
vt 0.30664062 0.96625140
vt 0.30664062 0.96282233
vt 0.30664062 0.95901537
vt 0.30664062 0.95558850
vt 0.30664062 0.95254262
vt 0.30664062 0.94952487
vt 0.30664062 0.94667572
vt 0.30664062 0.94413551
vt 0.30664062 0.94180709
vt 0.30664062 0.93948560
vt 0.30664062 0.93718601
vt 0.30664062 0.93494934
vt 0.30664062 0.93250089
vt 0.30664062 0.92964978
vt 0.30664062 0.92663369
vt 0.30664062 0.92371969
vt 0.30664062 0.92091087
vt 0.30664062 0.91802438
vt 0.30664062 0.91505115
vt 0.30664062 0.91199391
vt 0.30664062 0.90874096
vt 0.30664062 0.90534005
vt 0.30664062 0.90204177
vt 0.30664062 0.89908198
vt 0.30664062 0.89647169
vt 0.30664062 0.89395968
vt 0.30664062 0.89146722
vt 0.30664062 0.88902580
vt 0.30664062 0.88660859
vt 0.30664062 0.88419257
vt 0.30664062 0.88179430
vt 0.30664062 0.87937453
vt 0.30664062 0.87655006
vt 0.30664062 0.87335615
vt 0.30664062 0.87041073
vt 0.30664062 0.86836971
vt 0.32226562 0.96994911
vt 0.32226562 0.96762450
vt 0.32226562 0.96410672
vt 0.32226562 0.96020573
vt 0.32226562 0.95670018
vt 0.32226562 0.95358907
vt 0.32226562 0.95050769
vt 0.32226562 0.94759860
vt 0.32226562 0.94500410
vt 0.32226562 0.94262145
vt 0.32226562 0.94023931
vt 0.32226562 0.93787483
vt 0.32226562 0.93557263
vt 0.32226562 0.93305310
vt 0.32226562 0.93012287
vt 0.32226562 0.92702776
vt 0.32226562 0.92404305
vt 0.32226562 0.92117183
vt 0.32226562 0.91822491
vt 0.32226562 0.91519145
vt 0.32226562 0.91207246
vt 0.32226562 0.90875125
vt 0.32226562 0.90527525
vt 0.32226562 0.90190082
vt 0.32226562 0.89886944
vt 0.32226562 0.89619149
vt 0.32226562 0.89360950
vt 0.32226562 0.89104602
vt 0.32226562 0.88853505
vt 0.32226562 0.88604897
vt 0.32226562 0.88356410
vt 0.32226562 0.88109750
vt 0.32226562 0.87860879
vt 0.32226562 0.87570385
vt 0.32226562 0.87241893
vt 0.32226562 0.86938960
vt 0.32226562 0.86729042
vt 0.33789062 0.97306452
vt 0.33789062 0.97062985
vt 0.33789062 0.96694381
vt 0.33789062 0.96285449
vt 0.33789062 0.95917738
vt 0.33789062 0.95591218
vt 0.33789062 0.95267779
vt 0.33789062 0.94962419
vt 0.33789062 0.94690115
vt 0.33789062 0.94440222
vt 0.33789062 0.94190639
vt 0.33789062 0.93943093
vt 0.33789062 0.93702161
vt 0.33789062 0.93438459
vt 0.33789062 0.93131629
vt 0.33789062 0.92807352
vt 0.33789062 0.92494424
vt 0.33789062 0.92193169
vt 0.33789062 0.91883826
vt 0.33789062 0.91565320
vt 0.33789062 0.91237827
vt 0.33789062 0.90889200
vt 0.33789062 0.90524472
vt 0.33789062 0.90170531
vt 0.33789062 0.89852699
vt 0.33789062 0.89572101
vt 0.33789062 0.89301747
vt 0.33789062 0.89033393
vt 0.33789062 0.88770535
vt 0.33789062 0.88510283
vt 0.33789062 0.88250158
vt 0.33789062 0.87991946
vt 0.33789062 0.87731418
vt 0.33789062 0.87427318
vt 0.33789062 0.87083441
vt 0.33789062 0.86766320
vt 0.33789062 0.86546570
vn 0.996613 -0.082239 0.000000
vn 0.996673 -0.081507 0.000000
vn 0.998497 -0.054801 0.000000
vn 0.999849 0.017379 0.000000
vn 0.990839 0.135051 0.000000
vn 0.968132 0.250440 0.000000
vn 0.941776 0.336241 0.000000
vn 0.907020 0.421087 0.000000
vn 0.843180 0.537631 0.000000
vn 0.713582 0.700572 0.000000
vn 0.504188 0.863594 0.000000
vn 0.204098 0.978950 0.000000
vn -0.213065 0.977038 -0.000000
vn -0.564782 0.825240 -0.000000
vn -0.751077 0.660214 -0.000000
vn -0.860653 0.509192 -0.000000
vn -0.932232 0.361862 -0.000000
vn -0.971651 0.236420 -0.000000
vn -0.990315 0.138837 -0.000000
vn -0.998552 0.053799 -0.000000
vn -0.999605 -0.028107 -0.000000
vn -0.994072 -0.108727 -0.000000
vn -0.982031 -0.188720 -0.000000
vn -0.959596 -0.281380 -0.000000
vn -0.902032 -0.431670 -0.000000
vn -0.760954 -0.648805 -0.000000
vn -0.605071 -0.796172 -0.000000
vn -0.590074 -0.807349 -0.000000
vn -0.652463 -0.757821 -0.000000
vn -0.685801 -0.727789 -0.000000
vn -0.725614 -0.688102 -0.000000
vn -0.812780 -0.582571 -0.000000
vn -0.919858 -0.392252 -0.000000
vn -0.976407 -0.215936 -0.000000
vn -0.991993 -0.126295 -0.000000
vn -0.994811 -0.101742 -0.000000
vn -1.000000 0.000000 -0.000000
vn 0.996528 -0.083259 0.000000
vn 0.996546 -0.083040 0.000000
vn 0.998413 -0.056308 0.000000
vn 0.999838 0.018027 0.000000
vn 0.989930 0.141561 0.000000
vn 0.964477 0.264167 0.000000
vn 0.934630 0.355622 0.000000
vn 0.894869 0.446329 0.000000
vn 0.822011 0.569472 0.000000
vn 0.677898 0.735156 0.000000
vn 0.455948 0.890006 0.000000
vn 0.156461 0.987684 0.000000
vn -0.237116 0.971481 -0.000000
vn -0.564168 0.825660 -0.000000
vn -0.742491 0.669857 -0.000000
vn -0.851659 0.524097 -0.000000
vn -0.926023 0.377467 -0.000000
vn -0.968541 0.248856 -0.000000
vn -0.989170 0.146777 -0.000000
vn -0.998377 0.056954 -0.000000
vn -0.999559 -0.029698 -0.000000
vn -0.993441 -0.114348 -0.000000
vn -0.980323 -0.197401 -0.000000
vn -0.956233 -0.292607 -0.000000
vn -0.895557 -0.444947 -0.000000
vn -0.752502 -0.658590 -0.000000
vn -0.601899 -0.798572 -0.000000
vn -0.590074 -0.807349 -0.000000
vn -0.652463 -0.757821 -0.000000
vn -0.685801 -0.727789 -0.000000
vn -0.725614 -0.688102 -0.000000
vn -0.812780 -0.582571 -0.000000
vn -0.919858 -0.392252 -0.000000
vn -0.976407 -0.215936 -0.000000
vn -0.991993 -0.126295 -0.000000
vn -0.994811 -0.101742 -0.000000
vn -1.000000 0.000000 -0.000000
vn 0.996441 -0.084292 0.000000
vn 0.996414 -0.084613 0.000000
vn 0.998324 -0.057881 0.000000
vn 0.999825 0.018716 0.000000
vn 0.988893 0.148631 0.000000
vn 0.960227 0.279221 0.000000
vn 0.926252 0.376905 0.000000
vn 0.880535 0.473982 0.000000
vn 0.797120 0.603821 0.000000
vn 0.637227 0.770676 0.000000
vn 0.404001 0.914759 0.000000
vn 0.108310 0.994117 0.000000
vn -0.260451 0.965487 -0.000000
vn -0.563561 0.826074 -0.000000
vn -0.733634 0.679545 -0.000000
vn -0.841969 0.539525 -0.000000
vn -0.919052 0.394136 -0.000000
vn -0.964947 0.262444 -0.000000
vn -0.987828 0.155553 -0.000000
vn -0.998171 0.060456 -0.000000
vn -0.999505 -0.031458 -0.000000
vn -0.992714 -0.120497 -0.000000
vn -0.978388 -0.206778 -0.000000
vn -0.952491 -0.304566 -0.000000
vn -0.888550 -0.458780 -0.000000
vn -0.743771 -0.668435 -0.000000
vn -0.598738 -0.800945 -0.000000
vn -0.590074 -0.807349 -0.000000
vn -0.652463 -0.757821 -0.000000
vn -0.685801 -0.727789 -0.000000
vn -0.725614 -0.688102 -0.000000
vn -0.812780 -0.582571 -0.000000
vn -0.919858 -0.392252 -0.000000
vn -0.976407 -0.215936 -0.000000
vn -0.991993 -0.126295 -0.000000
vn -0.994811 -0.101742 -0.000000
vn -1.000000 0.000000 -0.000000
vn 0.996356 -0.085290 0.000000
vn 0.996282 -0.086152 0.000000
vn 0.998231 -0.059448 0.000000
vn 0.999811 0.019417 0.000000
vn 0.987761 0.155975 0.000000
vn 0.955492 0.295016 0.000000
vn 0.916846 0.399240 0.000000
vn 0.864354 0.502884 0.000000
vn 0.769195 0.639014 0.000000
vn 0.593240 0.805026 0.000000
vn 0.351095 0.936340 0.000000
vn 0.062148 0.998067 0.000000
vn -0.282066 0.959395 -0.000000
vn -0.562987 0.826466 -0.000000
vn -0.724917 0.688836 -0.000000
vn -0.832010 0.554760 -0.000000
vn -0.911573 0.411139 -0.000000
vn -0.960972 0.276645 -0.000000
vn -0.986320 0.164841 -0.000000
vn -0.997938 0.064180 -0.000000
vn -0.999445 -0.033322 -0.000000
vn -0.991911 -0.126934 -0.000000
vn -0.976291 -0.216463 -0.000000
vn -0.948514 -0.316735 -0.000000
vn -0.881312 -0.472535 -0.000000
vn -0.735166 -0.677887 -0.000000
vn -0.595729 -0.803185 -0.000000
vn -0.590074 -0.807349 -0.000000
vn -0.652463 -0.757821 -0.000000
vn -0.685801 -0.727789 -0.000000
vn -0.725614 -0.688102 -0.000000
vn -0.812780 -0.582571 -0.000000
vn -0.919858 -0.392252 -0.000000
vn -0.976407 -0.215936 -0.000000
vn -0.991993 -0.126295 -0.000000
vn -0.994811 -0.101742 -0.000000
vn -1.000000 0.000000 -0.000000
vn 0.996277 -0.086209 0.000000
vn 0.996157 -0.087586 0.000000
vn 0.998142 -0.060932 0.000000
vn 0.999798 0.020094 0.000000
vn 0.986589 0.163224 0.000000
vn 0.950491 0.310753 0.000000
vn 0.906838 0.421479 0.000000
vn 0.847066 0.531488 0.000000
vn 0.739627 0.673017 0.000000
vn 0.548513 0.836142 0.000000
vn 0.300413 0.953809 0.000000
vn 0.020257 0.999795 0.000000
vn -0.301157 0.953575 -0.000000
vn -0.562470 0.826818 -0.000000
vn -0.716763 0.697316 -0.000000
vn -0.822303 0.569050 -0.000000
vn -0.903968 0.427601 -0.000000
vn -0.956801 0.290742 -0.000000
vn -0.984713 0.174186 -0.000000
vn -0.997689 0.067945 -0.000000
vn -0.999380 -0.035198 -0.000000
vn -0.991071 -0.133339 -0.000000
vn -0.974135 -0.225967 -0.000000
vn -0.944506 -0.328495 -0.000000
vn -0.874221 -0.485529 -0.000000
vn -0.727106 -0.686525 -0.000000
vn -0.593000 -0.805203 -0.000000
vn -0.590074 -0.807349 -0.000000
vn -0.652463 -0.757821 -0.000000
vn -0.685801 -0.727789 -0.000000
vn -0.725614 -0.688102 -0.000000
vn -0.812780 -0.582571 -0.000000
vn -0.919858 -0.392252 -0.000000
vn -0.976407 -0.215936 -0.000000
vn -0.991993 -0.126295 -0.000000
vn -0.994811 -0.101742 -0.000000
vn -1.000000 0.000000 -0.000000
vn 0.996208 -0.087008 0.000000
vn 0.996045 -0.088846 0.000000
vn 0.998060 -0.062256 0.000000
vn 0.999786 0.020709 0.000000
vn 0.985453 0.169948 0.000000
vn 0.945551 0.325474 0.000000
vn 0.896894 0.442246 0.000000
vn 0.829845 0.557993 0.000000
vn 0.710508 0.703689 0.000000
vn 0.506251 0.862386 0.000000
vn 0.255090 0.966917 0.000000
vn -0.015542 0.999879 -0.000000
vn -0.317149 0.948376 -0.000000
vn -0.562028 0.827118 -0.000000
vn -0.709573 0.704631 -0.000000
vn -0.813420 0.581677 -0.000000
vn -0.896729 0.442581 -0.000000
vn -0.952709 0.303884 -0.000000
vn -0.983110 0.183015 -0.000000
vn -0.997439 0.071520 -0.000000
vn -0.999316 -0.036972 -0.000000
vn -0.990247 -0.139325 -0.000000
vn -0.972060 -0.234732 -0.000000
vn -0.940720 -0.339185 -0.000000
vn -0.867700 -0.497088 -0.000000
vn -0.719990 -0.693984 -0.000000
vn -0.590657 -0.806923 -0.000000
vn -0.590074 -0.807349 -0.000000
vn -0.652463 -0.757821 -0.000000
vn -0.685801 -0.727789 -0.000000
vn -0.725614 -0.688102 -0.000000
vn -0.812780 -0.582571 -0.000000
vn -0.919858 -0.392252 -0.000000
vn -0.976407 -0.215936 -0.000000
vn -0.991993 -0.126295 -0.000000
vn -0.994811 -0.101742 -0.000000
vn -1.000000 0.000000 -0.000000
vn 0.996151 -0.087654 0.000000
vn 0.995953 -0.089875 0.000000
vn 0.997991 -0.063353 0.000000
vn 0.999775 0.021227 0.000000
vn 0.984443 0.175706 0.000000
vn 0.941086 0.338169 0.000000
vn 0.887862 0.460110 0.000000
vn 0.814189 0.580599 0.000000
vn 0.684363 0.729142 0.000000
vn 0.469747 0.882801 0.000000
vn 0.217735 0.976008 0.000000
vn -0.044016 0.999031 -0.000000
vn -0.329695 0.944087 -0.000000
vn -0.561677 0.827357 -0.000000
vn -0.703684 0.710513 -0.000000
vn -0.805913 0.592034 -0.000000
vn -0.890397 0.455185 -0.000000
vn -0.949031 0.315183 -0.000000
vn -0.981648 0.190701 -0.000000
vn -0.997210 0.074647 -0.000000
vn -0.999258 -0.038518 -0.000000
vn -0.989507 -0.144488 -0.000000
vn -0.970227 -0.242198 -0.000000
vn -0.937430 -0.348175 -0.000000
vn -0.862165 -0.506628 -0.000000
vn -0.714156 -0.699987 -0.000000
vn -0.588781 -0.808293 -0.000000
vn -0.590074 -0.807349 -0.000000
vn -0.652463 -0.757821 -0.000000
vn -0.685801 -0.727789 -0.000000
vn -0.725614 -0.688102 -0.000000
vn -0.812780 -0.582571 -0.000000
vn -0.919858 -0.392252 -0.000000
vn -0.976407 -0.215936 -0.000000
vn -0.991993 -0.126295 -0.000000
vn -0.994811 -0.101742 -0.000000
vn -1.000000 0.000000 -0.000000
vn 0.996109 -0.088128 0.000000
vn 0.995884 -0.090635 0.000000
vn 0.997939 -0.064170 0.000000
vn 0.999766 0.021618 0.000000
vn 0.983645 0.180116 0.000000
vn 0.937516 0.347942 0.000000
vn 0.880619 0.473826 0.000000
vn 0.801635 0.597814 0.000000
vn 0.663641 0.748051 0.000000
vn 0.441740 0.897143 0.000000
vn 0.190098 0.981765 0.000000
vn -0.064547 0.997915 -0.000000
vn -0.338662 0.940908 -0.000000
vn -0.561422 0.827530 -0.000000
vn -0.699332 0.714797 -0.000000
vn -0.800230 0.599693 -0.000000
vn -0.885470 0.464696 -0.000000
vn -0.946104 0.323862 -0.000000
vn -0.980470 0.196667 -0.000000
vn -0.997025 0.077085 -0.000000
vn -0.999211 -0.039719 -0.000000
vn -0.988918 -0.148464 -0.000000
vn -0.968788 -0.247892 -0.000000
vn -0.934882 -0.354958 -0.000000
vn -0.857959 -0.513718 -0.000000
vn -0.709841 -0.704362 -0.000000
vn -0.587417 -0.809284 -0.000000
vn -0.590074 -0.807349 -0.000000
vn -0.652463 -0.757821 -0.000000
vn -0.685801 -0.727789 -0.000000
vn -0.725614 -0.688102 -0.000000
vn -0.812780 -0.582571 -0.000000
vn -0.919858 -0.392252 -0.000000
vn -0.976407 -0.215936 -0.000000
vn -0.991993 -0.126295 -0.000000
vn -0.994811 -0.101742 -0.000000
vn -1.000000 0.000000 -0.000000
vn 0.996083 -0.088421 0.000000
vn 0.995841 -0.091106 0.000000
vn 0.997906 -0.064681 0.000000
vn 0.999761 0.021864 0.000000
vn 0.983127 0.182925 0.000000
vn 0.935174 0.354188 0.000000
vn 0.875856 0.482573 0.000000
vn 0.793385 0.608720 0.000000
vn 0.650150 0.759806 0.000000
vn 0.423925 0.905697 0.000000
vn 0.172948 0.984931 0.000000
vn -0.077077 0.997025 -0.000000
vn -0.344106 0.938931 -0.000000
vn -0.561266 0.827636 -0.000000
vn -0.696629 0.717431 -0.000000
vn -0.796641 0.604453 -0.000000
vn -0.882299 0.470689 -0.000000
vn -0.944190 0.329401 -0.000000
vn -0.979693 0.200502 -0.000000
vn -0.996902 0.078657 -0.000000
vn -0.999180 -0.040493 -0.000000
vn -0.988533 -0.151006 -0.000000
vn -0.967856 -0.251506 -0.000000
vn -0.933248 -0.359232 -0.000000
vn -0.855296 -0.518139 -0.000000
vn -0.707160 -0.707054 -0.000000
vn -0.586580 -0.809891 -0.000000
vn -0.590074 -0.807349 -0.000000
vn -0.652463 -0.757821 -0.000000
vn -0.685801 -0.727789 -0.000000
vn -0.725614 -0.688102 -0.000000
vn -0.812780 -0.582571 -0.000000
vn -0.919858 -0.392252 -0.000000
vn -0.976407 -0.215936 -0.000000
vn -0.991993 -0.126295 -0.000000
vn -0.994811 -0.101742 -0.000000
vn -1.000000 0.000000 -0.000000
vn 0.996073 -0.088537 0.000000
vn 0.995824 -0.091294 0.000000
vn 0.997893 -0.064886 0.000000
vn 0.999759 0.021963 0.000000
vn 0.982915 0.184060 0.000000
vn 0.934213 0.356717 0.000000
vn 0.873899 0.486108 0.000000
vn 0.789996 0.613112 0.000000
vn 0.644637 0.764488 0.000000
vn 0.416740 0.909026 0.000000
vn 0.166121 0.986105 0.000000
vn -0.082023 0.996630 -0.000000
vn -0.346250 0.938142 -0.000000
vn -0.561204 0.827677 -0.000000
vn -0.695552 0.718476 -0.000000
vn -0.795198 0.606350 -0.000000
vn -0.881011 0.473096 -0.000000
vn -0.943406 0.331641 -0.000000
vn -0.979373 0.202060 -0.000000
vn -0.996851 0.079296 -0.000000
vn -0.999167 -0.040807 -0.000000
vn -0.988375 -0.152036 -0.000000
vn -0.967476 -0.252964 -0.000000
vn -0.932585 -0.360949 -0.000000
vn -0.854224 -0.519905 -0.000000
vn -0.706091 -0.708121 -0.000000
vn -0.586249 -0.810131 -0.000000
vn -0.590074 -0.807349 -0.000000
vn -0.652463 -0.757821 -0.000000
vn -0.685801 -0.727789 -0.000000
vn -0.725614 -0.688102 -0.000000
vn -0.812780 -0.582571 -0.000000
vn -0.919858 -0.392252 -0.000000
vn -0.976407 -0.215936 -0.000000
vn -0.991993 -0.126295 -0.000000
vn -0.994811 -0.101742 -0.000000
vn -1.000000 0.000000 -0.000000
vn 0.996077 -0.088494 0.000000
vn 0.995830 -0.091224 0.000000
vn 0.997898 -0.064809 0.000000
vn 0.999760 0.021926 0.000000
vn 0.982994 0.183637 0.000000
vn 0.934572 0.355773 0.000000
vn 0.874631 0.484789 0.000000
vn 0.791264 0.611475 0.000000
vn 0.646698 0.762746 0.000000
vn 0.419419 0.907793 0.000000
vn 0.168661 0.985674 0.000000
vn -0.080186 0.996780 -0.000000
vn -0.345454 0.938436 -0.000000
vn -0.561227 0.827662 -0.000000
vn -0.695953 0.718088 -0.000000
vn -0.795735 0.605644 -0.000000
vn -0.881492 0.472199 -0.000000
vn -0.943699 0.330805 -0.000000
vn -0.979493 0.201479 -0.000000
vn -0.996870 0.079057 -0.000000
vn -0.999172 -0.040689 -0.000000
vn -0.988434 -0.151652 -0.000000
vn -0.967618 -0.252421 -0.000000
vn -0.932833 -0.360310 -0.000000
vn -0.854624 -0.519248 -0.000000
vn -0.706489 -0.707724 -0.000000
vn -0.586372 -0.810042 -0.000000
vn -0.590074 -0.807349 -0.000000
vn -0.652463 -0.757821 -0.000000
vn -0.685801 -0.727789 -0.000000
vn -0.725614 -0.688102 -0.000000
vn -0.812780 -0.582571 -0.000000
vn -0.919858 -0.392252 -0.000000
vn -0.976407 -0.215936 -0.000000
vn -0.991993 -0.126295 -0.000000
vn -0.994811 -0.101742 -0.000000
vn -1.000000 0.000000 -0.000000
f 1/1/1 38/38/38 39/39/39
f 1/1/1 39/39/39 2/2/2
f 2/2/2 39/39/39 40/40/40
f 2/2/2 40/40/40 3/3/3
f 3/3/3 40/40/40 41/41/41
f 3/3/3 41/41/41 4/4/4
f 4/4/4 41/41/41 42/42/42
f 4/4/4 42/42/42 5/5/5
f 5/5/5 42/42/42 43/43/43
f 5/5/5 43/43/43 6/6/6
f 6/6/6 43/43/43 44/44/44
f 6/6/6 44/44/44 7/7/7
f 7/7/7 44/44/44 45/45/45
f 7/7/7 45/45/45 8/8/8
f 8/8/8 45/45/45 46/46/46
f 8/8/8 46/46/46 9/9/9
f 9/9/9 46/46/46 47/47/47
f 9/9/9 47/47/47 10/10/10
f 10/10/10 47/47/47 48/48/48
f 10/10/10 48/48/48 11/11/11
f 11/11/11 48/48/48 49/49/49
f 11/11/11 49/49/49 12/12/12
f 12/12/12 49/49/49 50/50/50
f 12/12/12 50/50/50 13/13/13
f 13/13/13 50/50/50 51/51/51
f 13/13/13 51/51/51 14/14/14
f 14/14/14 51/51/51 52/52/52
f 14/14/14 52/52/52 15/15/15
f 15/15/15 52/52/52 53/53/53
f 15/15/15 53/53/53 16/16/16
f 16/16/16 53/53/53 54/54/54
f 16/16/16 54/54/54 17/17/17
f 17/17/17 54/54/54 55/55/55
f 17/17/17 55/55/55 18/18/18
f 18/18/18 55/55/55 56/56/56
f 18/18/18 56/56/56 19/19/19
f 19/19/19 56/56/56 57/57/57
f 19/19/19 57/57/57 20/20/20
f 20/20/20 57/57/57 58/58/58
f 20/20/20 58/58/58 21/21/21
f 21/21/21 58/58/58 59/59/59
f 21/21/21 59/59/59 22/22/22
f 22/22/22 59/59/59 60/60/60
f 22/22/22 60/60/60 23/23/23
f 23/23/23 60/60/60 61/61/61
f 23/23/23 61/61/61 24/24/24
f 24/24/24 61/61/61 62/62/62
f 24/24/24 62/62/62 25/25/25
f 25/25/25 62/62/62 63/63/63
f 25/25/25 63/63/63 26/26/26
f 26/26/26 63/63/63 64/64/64
f 26/26/26 64/64/64 27/27/27
f 27/27/27 64/64/64 65/65/65
f 27/27/27 65/65/65 28/28/28
f 28/28/28 65/65/65 66/66/66
f 28/28/28 66/66/66 29/29/29
f 29/29/29 66/66/66 67/67/67
f 29/29/29 67/67/67 30/30/30
f 30/30/30 67/67/67 68/68/68
f 30/30/30 68/68/68 31/31/31
f 31/31/31 68/68/68 69/69/69
f 31/31/31 69/69/69 32/32/32
f 32/32/32 69/69/69 70/70/70
f 32/32/32 70/70/70 33/33/33
f 33/33/33 70/70/70 71/71/71
f 33/33/33 71/71/71 34/34/34
f 34/34/34 71/71/71 72/72/72
f 34/34/34 72/72/72 35/35/35
f 35/35/35 72/72/72 73/73/73
f 35/35/35 73/73/73 36/36/36
f 36/36/36 73/73/73 74/74/74
f 36/36/36 74/74/74 37/37/37
f 38/38/38 75/75/75 76/76/76
f 38/38/38 76/76/76 39/39/39
f 39/39/39 76/76/76 77/77/77
f 39/39/39 77/77/77 40/40/40
f 40/40/40 77/77/77 78/78/78
f 40/40/40 78/78/78 41/41/41
f 41/41/41 78/78/78 79/79/79
f 41/41/41 79/79/79 42/42/42
f 42/42/42 79/79/79 80/80/80
f 42/42/42 80/80/80 43/43/43
f 43/43/43 80/80/80 81/81/81
f 43/43/43 81/81/81 44/44/44
f 44/44/44 81/81/81 82/82/82
f 44/44/44 82/82/82 45/45/45
f 45/45/45 82/82/82 83/83/83
f 45/45/45 83/83/83 46/46/46
f 46/46/46 83/83/83 84/84/84
f 46/46/46 84/84/84 47/47/47
f 47/47/47 84/84/84 85/85/85
f 47/47/47 85/85/85 48/48/48
f 48/48/48 85/85/85 86/86/86
f 48/48/48 86/86/86 49/49/49
f 49/49/49 86/86/86 87/87/87
f 49/49/49 87/87/87 50/50/50
f 50/50/50 87/87/87 88/88/88
f 50/50/50 88/88/88 51/51/51
f 51/51/51 88/88/88 89/89/89
f 51/51/51 89/89/89 52/52/52
f 52/52/52 89/89/89 90/90/90
f 52/52/52 90/90/90 53/53/53
f 53/53/53 90/90/90 91/91/91
f 53/53/53 91/91/91 54/54/54
f 54/54/54 91/91/91 92/92/92
f 54/54/54 92/92/92 55/55/55
f 55/55/55 92/92/92 93/93/93
f 55/55/55 93/93/93 56/56/56
f 56/56/56 93/93/93 94/94/94
f 56/56/56 94/94/94 57/57/57
f 57/57/57 94/94/94 95/95/95
f 57/57/57 95/95/95 58/58/58
f 58/58/58 95/95/95 96/96/96
f 58/58/58 96/96/96 59/59/59
f 59/59/59 96/96/96 97/97/97
f 59/59/59 97/97/97 60/60/60
f 60/60/60 97/97/97 98/98/98
f 60/60/60 98/98/98 61/61/61
f 61/61/61 98/98/98 99/99/99
f 61/61/61 99/99/99 62/62/62
f 62/62/62 99/99/99 100/100/100
f 62/62/62 100/100/100 63/63/63
f 63/63/63 100/100/100 101/101/101
f 63/63/63 101/101/101 64/64/64
f 64/64/64 101/101/101 102/102/102
f 64/64/64 102/102/102 65/65/65
f 65/65/65 102/102/102 103/103/103
f 65/65/65 103/103/103 66/66/66
f 66/66/66 103/103/103 104/104/104
f 66/66/66 104/104/104 67/67/67
f 67/67/67 104/104/104 105/105/105
f 67/67/67 105/105/105 68/68/68
f 68/68/68 105/105/105 106/106/106
f 68/68/68 106/106/106 69/69/69
f 69/69/69 106/106/106 107/107/107
f 69/69/69 107/107/107 70/70/70
f 70/70/70 107/107/107 108/108/108
f 70/70/70 108/108/108 71/71/71
f 71/71/71 108/108/108 109/109/109
f 71/71/71 109/109/109 72/72/72
f 72/72/72 109/109/109 110/110/110
f 72/72/72 110/110/110 73/73/73
f 73/73/73 110/110/110 111/111/111
f 73/73/73 111/111/111 74/74/74
f 75/75/75 112/112/112 113/113/113
f 75/75/75 113/113/113 76/76/76
f 76/76/76 113/113/113 114/114/114
f 76/76/76 114/114/114 77/77/77
f 77/77/77 114/114/114 115/115/115
f 77/77/77 115/115/115 78/78/78
f 78/78/78 115/115/115 116/116/116
f 78/78/78 116/116/116 79/79/79
f 79/79/79 116/116/116 117/117/117
f 79/79/79 117/117/117 80/80/80
f 80/80/80 117/117/117 118/118/118
f 80/80/80 118/118/118 81/81/81
f 81/81/81 118/118/118 119/119/119
f 81/81/81 119/119/119 82/82/82
f 82/82/82 119/119/119 120/120/120
f 82/82/82 120/120/120 83/83/83
f 83/83/83 120/120/120 121/121/121
f 83/83/83 121/121/121 84/84/84
f 84/84/84 121/121/121 122/122/122
f 84/84/84 122/122/122 85/85/85
f 85/85/85 122/122/122 123/123/123
f 85/85/85 123/123/123 86/86/86
f 86/86/86 123/123/123 124/124/124
f 86/86/86 124/124/124 87/87/87
f 87/87/87 124/124/124 125/125/125
f 87/87/87 125/125/125 88/88/88
f 88/88/88 125/125/125 126/126/126
f 88/88/88 126/126/126 89/89/89
f 89/89/89 126/126/126 127/127/127
f 89/89/89 127/127/127 90/90/90
f 90/90/90 127/127/127 128/128/128
f 90/90/90 128/128/128 91/91/91
f 91/91/91 128/128/128 129/129/129
f 91/91/91 129/129/129 92/92/92
f 92/92/92 129/129/129 130/130/130
f 92/92/92 130/130/130 93/93/93
f 93/93/93 130/130/130 131/131/131
f 93/93/93 131/131/131 94/94/94
f 94/94/94 131/131/131 132/132/132
f 94/94/94 132/132/132 95/95/95
f 95/95/95 132/132/132 133/133/133
f 95/95/95 133/133/133 96/96/96
f 96/96/96 133/133/133 134/134/134
f 96/96/96 134/134/134 97/97/97
f 97/97/97 134/134/134 135/135/135
f 97/97/97 135/135/135 98/98/98
f 98/98/98 135/135/135 136/136/136
f 98/98/98 136/136/136 99/99/99
f 99/99/99 136/136/136 137/137/137
f 99/99/99 137/137/137 100/100/100
f 100/100/100 137/137/137 138/138/138
f 100/100/100 138/138/138 101/101/101
f 101/101/101 138/138/138 139/139/139
f 101/101/101 139/139/139 102/102/102
f 102/102/102 139/139/139 140/140/140
f 102/102/102 140/140/140 103/103/103
f 103/103/103 140/140/140 141/141/141
f 103/103/103 141/141/141 104/104/104
f 104/104/104 141/141/141 142/142/142
f 104/104/104 142/142/142 105/105/105
f 105/105/105 142/142/142 143/143/143
f 105/105/105 143/143/143 106/106/106
f 106/106/106 143/143/143 144/144/144
f 106/106/106 144/144/144 107/107/107
f 107/107/107 144/144/144 145/145/145
f 107/107/107 145/145/145 108/108/108
f 108/108/108 145/145/145 146/146/146
f 108/108/108 146/146/146 109/109/109
f 109/109/109 146/146/146 147/147/147
f 109/109/109 147/147/147 110/110/110
f 110/110/110 147/147/147 148/148/148
f 110/110/110 148/148/148 111/111/111
f 112/112/112 149/149/149 150/150/150
f 112/112/112 150/150/150 113/113/113
f 113/113/113 150/150/150 151/151/151
f 113/113/113 151/151/151 114/114/114
f 114/114/114 151/151/151 152/152/152
f 114/114/114 152/152/152 115/115/115
f 115/115/115 152/152/152 153/153/153
f 115/115/115 153/153/153 116/116/116
f 116/116/116 153/153/153 154/154/154
f 116/116/116 154/154/154 117/117/117
f 117/117/117 154/154/154 155/155/155
f 117/117/117 155/155/155 118/118/118
f 118/118/118 155/155/155 156/156/156
f 118/118/118 156/156/156 119/119/119
f 119/119/119 156/156/156 157/157/157
f 119/119/119 157/157/157 120/120/120
f 120/120/120 157/157/157 158/158/158
f 120/120/120 158/158/158 121/121/121
f 121/121/121 158/158/158 159/159/159
f 121/121/121 159/159/159 122/122/122
f 122/122/122 159/159/159 160/160/160
f 122/122/122 160/160/160 123/123/123
f 123/123/123 160/160/160 161/161/161
f 123/123/123 161/161/161 124/124/124
f 124/124/124 161/161/161 162/162/162
f 124/124/124 162/162/162 125/125/125
f 125/125/125 162/162/162 163/163/163
f 125/125/125 163/163/163 126/126/126
f 126/126/126 163/163/163 164/164/164
f 126/126/126 164/164/164 127/127/127
f 127/127/127 164/164/164 165/165/165
f 127/127/127 165/165/165 128/128/128
f 128/128/128 165/165/165 166/166/166
f 128/128/128 166/166/166 129/129/129
f 129/129/129 166/166/166 167/167/167
f 129/129/129 167/167/167 130/130/130
f 130/130/130 167/167/167 168/168/168
f 130/130/130 168/168/168 131/131/131
f 131/131/131 168/168/168 169/169/169
f 131/131/131 169/169/169 132/132/132
f 132/132/132 169/169/169 170/170/170
f 132/132/132 170/170/170 133/133/133
f 133/133/133 170/170/170 171/171/171
f 133/133/133 171/171/171 134/134/134
f 134/134/134 171/171/171 172/172/172
f 134/134/134 172/172/172 135/135/135
f 135/135/135 172/172/172 173/173/173
f 135/135/135 173/173/173 136/136/136
f 136/136/136 173/173/173 174/174/174
f 136/136/136 174/174/174 137/137/137
f 137/137/137 174/174/174 175/175/175
f 137/137/137 175/175/175 138/138/138
f 138/138/138 175/175/175 176/176/176
f 138/138/138 176/176/176 139/139/139
f 139/139/139 176/176/176 177/177/177
f 139/139/139 177/177/177 140/140/140
f 140/140/140 177/177/177 178/178/178
f 140/140/140 178/178/178 141/141/141
f 141/141/141 178/178/178 179/179/179
f 141/141/141 179/179/179 142/142/142
f 142/142/142 179/179/179 180/180/180
f 142/142/142 180/180/180 143/143/143
f 143/143/143 180/180/180 181/181/181
f 143/143/143 181/181/181 144/144/144
f 144/144/144 181/181/181 182/182/182
f 144/144/144 182/182/182 145/145/145
f 145/145/145 182/182/182 183/183/183
f 145/145/145 183/183/183 146/146/146
f 146/146/146 183/183/183 184/184/184
f 146/146/146 184/184/184 147/147/147
f 147/147/147 184/184/184 185/185/185
f 147/147/147 185/185/185 148/148/148
f 149/149/149 186/186/186 187/187/187
f 149/149/149 187/187/187 150/150/150
f 150/150/150 187/187/187 188/188/188
f 150/150/150 188/188/188 151/151/151
f 151/151/151 188/188/188 189/189/189
f 151/151/151 189/189/189 152/152/152
f 152/152/152 189/189/189 190/190/190
f 152/152/152 190/190/190 153/153/153
f 153/153/153 190/190/190 191/191/191
f 153/153/153 191/191/191 154/154/154
f 154/154/154 191/191/191 192/192/192
f 154/154/154 192/192/192 155/155/155
f 155/155/155 192/192/192 193/193/193
f 155/155/155 193/193/193 156/156/156
f 156/156/156 193/193/193 194/194/194
f 156/156/156 194/194/194 157/157/157
f 157/157/157 194/194/194 195/195/195
f 157/157/157 195/195/195 158/158/158
f 158/158/158 195/195/195 196/196/196
f 158/158/158 196/196/196 159/159/159
f 159/159/159 196/196/196 197/197/197
f 159/159/159 197/197/197 160/160/160
f 160/160/160 197/197/197 198/198/198
f 160/160/160 198/198/198 161/161/161
f 161/161/161 198/198/198 199/199/199
f 161/161/161 199/199/199 162/162/162
f 162/162/162 199/199/199 200/200/200
f 162/162/162 200/200/200 163/163/163
f 163/163/163 200/200/200 201/201/201
f 163/163/163 201/201/201 164/164/164
f 164/164/164 201/201/201 202/202/202
f 164/164/164 202/202/202 165/165/165
f 165/165/165 202/202/202 203/203/203
f 165/165/165 203/203/203 166/166/166
f 166/166/166 203/203/203 204/204/204
f 166/166/166 204/204/204 167/167/167
f 167/167/167 204/204/204 205/205/205
f 167/167/167 205/205/205 168/168/168
f 168/168/168 205/205/205 206/206/206
f 168/168/168 206/206/206 169/169/169
f 169/169/169 206/206/206 207/207/207
f 169/169/169 207/207/207 170/170/170
f 170/170/170 207/207/207 208/208/208
f 170/170/170 208/208/208 171/171/171
f 171/171/171 208/208/208 209/209/209
f 171/171/171 209/209/209 172/172/172
f 172/172/172 209/209/209 210/210/210
f 172/172/172 210/210/210 173/173/173
f 173/173/173 210/210/210 211/211/211
f 173/173/173 211/211/211 174/174/174
f 174/174/174 211/211/211 212/212/212
f 174/174/174 212/212/212 175/175/175
f 175/175/175 212/212/212 213/213/213
f 175/175/175 213/213/213 176/176/176
f 176/176/176 213/213/213 214/214/214
f 176/176/176 214/214/214 177/177/177
f 177/177/177 214/214/214 215/215/215
f 177/177/177 215/215/215 178/178/178
f 178/178/178 215/215/215 216/216/216
f 178/178/178 216/216/216 179/179/179
f 179/179/179 216/216/216 217/217/217
f 179/179/179 217/217/217 180/180/180
f 180/180/180 217/217/217 218/218/218
f 180/180/180 218/218/218 181/181/181
f 181/181/181 218/218/218 219/219/219
f 181/181/181 219/219/219 182/182/182
f 182/182/182 219/219/219 220/220/220
f 182/182/182 220/220/220 183/183/183
f 183/183/183 220/220/220 221/221/221
f 183/183/183 221/221/221 184/184/184
f 184/184/184 221/221/221 222/222/222
f 184/184/184 222/222/222 185/185/185
f 186/186/186 223/223/223 224/224/224
f 186/186/186 224/224/224 187/187/187
f 187/187/187 224/224/224 225/225/225
f 187/187/187 225/225/225 188/188/188
f 188/188/188 225/225/225 226/226/226
f 188/188/188 226/226/226 189/189/189
f 189/189/189 226/226/226 227/227/227
f 189/189/189 227/227/227 190/190/190
f 190/190/190 227/227/227 228/228/228
f 190/190/190 228/228/228 191/191/191
f 191/191/191 228/228/228 229/229/229
f 191/191/191 229/229/229 192/192/192
f 192/192/192 229/229/229 230/230/230
f 192/192/192 230/230/230 193/193/193
f 193/193/193 230/230/230 231/231/231
f 193/193/193 231/231/231 194/194/194
f 194/194/194 231/231/231 232/232/232
f 194/194/194 232/232/232 195/195/195
f 195/195/195 232/232/232 233/233/233
f 195/195/195 233/233/233 196/196/196
f 196/196/196 233/233/233 234/234/234
f 196/196/196 234/234/234 197/197/197
f 197/197/197 234/234/234 235/235/235
f 197/197/197 235/235/235 198/198/198
f 198/198/198 235/235/235 236/236/236
f 198/198/198 236/236/236 199/199/199
f 199/199/199 236/236/236 237/237/237
f 199/199/199 237/237/237 200/200/200
f 200/200/200 237/237/237 238/238/238
f 200/200/200 238/238/238 201/201/201
f 201/201/201 238/238/238 239/239/239
f 201/201/201 239/239/239 202/202/202
f 202/202/202 239/239/239 240/240/240
f 202/202/202 240/240/240 203/203/203
f 203/203/203 240/240/240 241/241/241
f 203/203/203 241/241/241 204/204/204
f 204/204/204 241/241/241 242/242/242
f 204/204/204 242/242/242 205/205/205
f 205/205/205 242/242/242 243/243/243
f 205/205/205 243/243/243 206/206/206
f 206/206/206 243/243/243 244/244/244
f 206/206/206 244/244/244 207/207/207
f 207/207/207 244/244/244 245/245/245
f 207/207/207 245/245/245 208/208/208
f 208/208/208 245/245/245 246/246/246
f 208/208/208 246/246/246 209/209/209
f 209/209/209 246/246/246 247/247/247
f 209/209/209 247/247/247 210/210/210
f 210/210/210 247/247/247 248/248/248
f 210/210/210 248/248/248 211/211/211
f 211/211/211 248/248/248 249/249/249
f 211/211/211 249/249/249 212/212/212
f 212/212/212 249/249/249 250/250/250
f 212/212/212 250/250/250 213/213/213
f 213/213/213 250/250/250 251/251/251
f 213/213/213 251/251/251 214/214/214
f 214/214/214 251/251/251 252/252/252
f 214/214/214 252/252/252 215/215/215
f 215/215/215 252/252/252 253/253/253
f 215/215/215 253/253/253 216/216/216
f 216/216/216 253/253/253 254/254/254
f 216/216/216 254/254/254 217/217/217
f 217/217/217 254/254/254 255/255/255
f 217/217/217 255/255/255 218/218/218
f 218/218/218 255/255/255 256/256/256
f 218/218/218 256/256/256 219/219/219
f 219/219/219 256/256/256 257/257/257
f 219/219/219 257/257/257 220/220/220
f 220/220/220 257/257/257 258/258/258
f 220/220/220 258/258/258 221/221/221
f 221/221/221 258/258/258 259/259/259
f 221/221/221 259/259/259 222/222/222
f 223/223/223 260/260/260 261/261/261
f 223/223/223 261/261/261 224/224/224
f 224/224/224 261/261/261 262/262/262
f 224/224/224 262/262/262 225/225/225
f 225/225/225 262/262/262 263/263/263
f 225/225/225 263/263/263 226/226/226
f 226/226/226 263/263/263 264/264/264
f 226/226/226 264/264/264 227/227/227
f 227/227/227 264/264/264 265/265/265
f 227/227/227 265/265/265 228/228/228
f 228/228/228 265/265/265 266/266/266
f 228/228/228 266/266/266 229/229/229
f 229/229/229 266/266/266 267/267/267
f 229/229/229 267/267/267 230/230/230
f 230/230/230 267/267/267 268/268/268
f 230/230/230 268/268/268 231/231/231
f 231/231/231 268/268/268 269/269/269
f 231/231/231 269/269/269 232/232/232
f 232/232/232 269/269/269 270/270/270
f 232/232/232 270/270/270 233/233/233
f 233/233/233 270/270/270 271/271/271
f 233/233/233 271/271/271 234/234/234
f 234/234/234 271/271/271 272/272/272
f 234/234/234 272/272/272 235/235/235
f 235/235/235 272/272/272 273/273/273
f 235/235/235 273/273/273 236/236/236
f 236/236/236 273/273/273 274/274/274
f 236/236/236 274/274/274 237/237/237
f 237/237/237 274/274/274 275/275/275
f 237/237/237 275/275/275 238/238/238
f 238/238/238 275/275/275 276/276/276
f 238/238/238 276/276/276 239/239/239
f 239/239/239 276/276/276 277/277/277
f 239/239/239 277/277/277 240/240/240
f 240/240/240 277/277/277 278/278/278
f 240/240/240 278/278/278 241/241/241
f 241/241/241 278/278/278 279/279/279
f 241/241/241 279/279/279 242/242/242
f 242/242/242 279/279/279 280/280/280
f 242/242/242 280/280/280 243/243/243
f 243/243/243 280/280/280 281/281/281
f 243/243/243 281/281/281 244/244/244
f 244/244/244 281/281/281 282/282/282
f 244/244/244 282/282/282 245/245/245
f 245/245/245 282/282/282 283/283/283
f 245/245/245 283/283/283 246/246/246
f 246/246/246 283/283/283 284/284/284
f 246/246/246 284/284/284 247/247/247
f 247/247/247 284/284/284 285/285/285
f 247/247/247 285/285/285 248/248/248
f 248/248/248 285/285/285 286/286/286
f 248/248/248 286/286/286 249/249/249
f 249/249/249 286/286/286 287/287/287
f 249/249/249 287/287/287 250/250/250
f 250/250/250 287/287/287 288/288/288
f 250/250/250 288/288/288 251/251/251
f 251/251/251 288/288/288 289/289/289
f 251/251/251 289/289/289 252/252/252
f 252/252/252 289/289/289 290/290/290
f 252/252/252 290/290/290 253/253/253
f 253/253/253 290/290/290 291/291/291
f 253/253/253 291/291/291 254/254/254
f 254/254/254 291/291/291 292/292/292
f 254/254/254 292/292/292 255/255/255
f 255/255/255 292/292/292 293/293/293
f 255/255/255 293/293/293 256/256/256
f 256/256/256 293/293/293 294/294/294
f 256/256/256 294/294/294 257/257/257
f 257/257/257 294/294/294 295/295/295
f 257/257/257 295/295/295 258/258/258
f 258/258/258 295/295/295 296/296/296
f 258/258/258 296/296/296 259/259/259
f 260/260/260 297/297/297 298/298/298
f 260/260/260 298/298/298 261/261/261
f 261/261/261 298/298/298 299/299/299
f 261/261/261 299/299/299 262/262/262
f 262/262/262 299/299/299 300/300/300
f 262/262/262 300/300/300 263/263/263
f 263/263/263 300/300/300 301/301/301
f 263/263/263 301/301/301 264/264/264
f 264/264/264 301/301/301 302/302/302
f 264/264/264 302/302/302 265/265/265
f 265/265/265 302/302/302 303/303/303
f 265/265/265 303/303/303 266/266/266
f 266/266/266 303/303/303 304/304/304
f 266/266/266 304/304/304 267/267/267
f 267/267/267 304/304/304 305/305/305
f 267/267/267 305/305/305 268/268/268
f 268/268/268 305/305/305 306/306/306
f 268/268/268 306/306/306 269/269/269
f 269/269/269 306/306/306 307/307/307
f 269/269/269 307/307/307 270/270/270
f 270/270/270 307/307/307 308/308/308
f 270/270/270 308/308/308 271/271/271
f 271/271/271 308/308/308 309/309/309
f 271/271/271 309/309/309 272/272/272
f 272/272/272 309/309/309 310/310/310
f 272/272/272 310/310/310 273/273/273
f 273/273/273 310/310/310 311/311/311
f 273/273/273 311/311/311 274/274/274
f 274/274/274 311/311/311 312/312/312
f 274/274/274 312/312/312 275/275/275
f 275/275/275 312/312/312 313/313/313
f 275/275/275 313/313/313 276/276/276
f 276/276/276 313/313/313 314/314/314
f 276/276/276 314/314/314 277/277/277
f 277/277/277 314/314/314 315/315/315
f 277/277/277 315/315/315 278/278/278
f 278/278/278 315/315/315 316/316/316
f 278/278/278 316/316/316 279/279/279
f 279/279/279 316/316/316 317/317/317
f 279/279/279 317/317/317 280/280/280
f 280/280/280 317/317/317 318/318/318
f 280/280/280 318/318/318 281/281/281
f 281/281/281 318/318/318 319/319/319
f 281/281/281 319/319/319 282/282/282
f 282/282/282 319/319/319 320/320/320
f 282/282/282 320/320/320 283/283/283
f 283/283/283 320/320/320 321/321/321
f 283/283/283 321/321/321 284/284/284
f 284/284/284 321/321/321 322/322/322
f 284/284/284 322/322/322 285/285/285
f 285/285/285 322/322/322 323/323/323
f 285/285/285 323/323/323 286/286/286
f 286/286/286 323/323/323 324/324/324
f 286/286/286 324/324/324 287/287/287
f 287/287/287 324/324/324 325/325/325
f 287/287/287 325/325/325 288/288/288
f 288/288/288 325/325/325 326/326/326
f 288/288/288 326/326/326 289/289/289
f 289/289/289 326/326/326 327/327/327
f 289/289/289 327/327/327 290/290/290
f 290/290/290 327/327/327 328/328/328
f 290/290/290 328/328/328 291/291/291
f 291/291/291 328/328/328 329/329/329
f 291/291/291 329/329/329 292/292/292
f 292/292/292 329/329/329 330/330/330
f 292/292/292 330/330/330 293/293/293
f 293/293/293 330/330/330 331/331/331
f 293/293/293 331/331/331 294/294/294
f 294/294/294 331/331/331 332/332/332
f 294/294/294 332/332/332 295/295/295
f 295/295/295 332/332/332 333/333/333
f 295/295/295 333/333/333 296/296/296
f 297/297/297 334/334/334 335/335/335
f 297/297/297 335/335/335 298/298/298
f 298/298/298 335/335/335 336/336/336
f 298/298/298 336/336/336 299/299/299
f 299/299/299 336/336/336 337/337/337
f 299/299/299 337/337/337 300/300/300
f 300/300/300 337/337/337 338/338/338
f 300/300/300 338/338/338 301/301/301
f 301/301/301 338/338/338 339/339/339
f 301/301/301 339/339/339 302/302/302
f 302/302/302 339/339/339 340/340/340
f 302/302/302 340/340/340 303/303/303
f 303/303/303 340/340/340 341/341/341
f 303/303/303 341/341/341 304/304/304
f 304/304/304 341/341/341 342/342/342
f 304/304/304 342/342/342 305/305/305
f 305/305/305 342/342/342 343/343/343
f 305/305/305 343/343/343 306/306/306
f 306/306/306 343/343/343 344/344/344
f 306/306/306 344/344/344 307/307/307
f 307/307/307 344/344/344 345/345/345
f 307/307/307 345/345/345 308/308/308
f 308/308/308 345/345/345 346/346/346
f 308/308/308 346/346/346 309/309/309
f 309/309/309 346/346/346 347/347/347
f 309/309/309 347/347/347 310/310/310
f 310/310/310 347/347/347 348/348/348
f 310/310/310 348/348/348 311/311/311
f 311/311/311 348/348/348 349/349/349
f 311/311/311 349/349/349 312/312/312
f 312/312/312 349/349/349 350/350/350
f 312/312/312 350/350/350 313/313/313
f 313/313/313 350/350/350 351/351/351
f 313/313/313 351/351/351 314/314/314
f 314/314/314 351/351/351 352/352/352
f 314/314/314 352/352/352 315/315/315
f 315/315/315 352/352/352 353/353/353
f 315/315/315 353/353/353 316/316/316
f 316/316/316 353/353/353 354/354/354
f 316/316/316 354/354/354 317/317/317
f 317/317/317 354/354/354 355/355/355
f 317/317/317 355/355/355 318/318/318
f 318/318/318 355/355/355 356/356/356
f 318/318/318 356/356/356 319/319/319
f 319/319/319 356/356/356 357/357/357
f 319/319/319 357/357/357 320/320/320
f 320/320/320 357/357/357 358/358/358
f 320/320/320 358/358/358 321/321/321
f 321/321/321 358/358/358 359/359/359
f 321/321/321 359/359/359 322/322/322
f 322/322/322 359/359/359 360/360/360
f 322/322/322 360/360/360 323/323/323
f 323/323/323 360/360/360 361/361/361
f 323/323/323 361/361/361 324/324/324
f 324/324/324 361/361/361 362/362/362
f 324/324/324 362/362/362 325/325/325
f 325/325/325 362/362/362 363/363/363
f 325/325/325 363/363/363 326/326/326
f 326/326/326 363/363/363 364/364/364
f 326/326/326 364/364/364 327/327/327
f 327/327/327 364/364/364 365/365/365
f 327/327/327 365/365/365 328/328/328
f 328/328/328 365/365/365 366/366/366
f 328/328/328 366/366/366 329/329/329
f 329/329/329 366/366/366 367/367/367
f 329/329/329 367/367/367 330/330/330
f 330/330/330 367/367/367 368/368/368
f 330/330/330 368/368/368 331/331/331
f 331/331/331 368/368/368 369/369/369
f 331/331/331 369/369/369 332/332/332
f 332/332/332 369/369/369 370/370/370
f 332/332/332 370/370/370 333/333/333
f 334/334/334 371/371/371 372/372/372
f 334/334/334 372/372/372 335/335/335
f 335/335/335 372/372/372 373/373/373
f 335/335/335 373/373/373 336/336/336
f 336/336/336 373/373/373 374/374/374
f 336/336/336 374/374/374 337/337/337
f 337/337/337 374/374/374 375/375/375
f 337/337/337 375/375/375 338/338/338
f 338/338/338 375/375/375 376/376/376
f 338/338/338 376/376/376 339/339/339
f 339/339/339 376/376/376 377/377/377
f 339/339/339 377/377/377 340/340/340
f 340/340/340 377/377/377 378/378/378
f 340/340/340 378/378/378 341/341/341
f 341/341/341 378/378/378 379/379/379
f 341/341/341 379/379/379 342/342/342
f 342/342/342 379/379/379 380/380/380
f 342/342/342 380/380/380 343/343/343
f 343/343/343 380/380/380 381/381/381
f 343/343/343 381/381/381 344/344/344
f 344/344/344 381/381/381 382/382/382
f 344/344/344 382/382/382 345/345/345
f 345/345/345 382/382/382 383/383/383
f 345/345/345 383/383/383 346/346/346
f 346/346/346 383/383/383 384/384/384
f 346/346/346 384/384/384 347/347/347
f 347/347/347 384/384/384 385/385/385
f 347/347/347 385/385/385 348/348/348
f 348/348/348 385/385/385 386/386/386
f 348/348/348 386/386/386 349/349/349
f 349/349/349 386/386/386 387/387/387
f 349/349/349 387/387/387 350/350/350
f 350/350/350 387/387/387 388/388/388
f 350/350/350 388/388/388 351/351/351
f 351/351/351 388/388/388 389/389/389
f 351/351/351 389/389/389 352/352/352
f 352/352/352 389/389/389 390/390/390
f 352/352/352 390/390/390 353/353/353
f 353/353/353 390/390/390 391/391/391
f 353/353/353 391/391/391 354/354/354
f 354/354/354 391/391/391 392/392/392
f 354/354/354 392/392/392 355/355/355
f 355/355/355 392/392/392 393/393/393
f 355/355/355 393/393/393 356/356/356
f 356/356/356 393/393/393 394/394/394
f 356/356/356 394/394/394 357/357/357
f 357/357/357 394/394/394 395/395/395
f 357/357/357 395/395/395 358/358/358
f 358/358/358 395/395/395 396/396/396
f 358/358/358 396/396/396 359/359/359
f 359/359/359 396/396/396 397/397/397
f 359/359/359 397/397/397 360/360/360
f 360/360/360 397/397/397 398/398/398
f 360/360/360 398/398/398 361/361/361
f 361/361/361 398/398/398 399/399/399
f 361/361/361 399/399/399 362/362/362
f 362/362/362 399/399/399 400/400/400
f 362/362/362 400/400/400 363/363/363
f 363/363/363 400/400/400 401/401/401
f 363/363/363 401/401/401 364/364/364
f 364/364/364 401/401/401 402/402/402
f 364/364/364 402/402/402 365/365/365
f 365/365/365 402/402/402 403/403/403
f 365/365/365 403/403/403 366/366/366
f 366/366/366 403/403/403 404/404/404
f 366/366/366 404/404/404 367/367/367
f 367/367/367 404/404/404 405/405/405
f 367/367/367 405/405/405 368/368/368
f 368/368/368 405/405/405 406/406/406
f 368/368/368 406/406/406 369/369/369
f 369/369/369 406/406/406 407/407/407
f 369/369/369 407/407/407 370/370/370
