# Generated sky cornice; visual geometry only.
s 1
v 34.564831 -5.284785 33.674423
v 34.360655 -3.315649 33.725598
v 34.035699 -0.216162 33.807045
v 33.883285 3.354884 33.845246
v 34.196739 6.721329 33.766682
v 35.085337 9.766837 33.543963
v 36.382288 12.717863 33.218894
v 37.96681 15.396431 32.821748
v 39.718125 17.622286 32.382797
v 41.711 19.282524 31.883301
v 43.974193 20.360958 31.316052
v 46.317907 20.832609 30.728621
v 48.552342 20.687282 30.16858
v 50.762335 19.807196 29.614666
v 53.00396 18.197475 29.052823
v 55.044285 16.059814 28.541434
v 56.650375 13.614916 28.138882
v 57.78341 10.941506 27.854897
v 58.559855 8.005446 27.660288
v 58.97971 4.879089 27.555055
v 59.042976 1.641503 27.539198
v 58.719457 -1.725246 27.620285
v 58.019219 -5.109626 27.795794
v 57.002651 -8.242206 28.050587
v 55.730144 -10.864963 28.369529
v 54.078042 -12.807927 28.783614
v 52.060723 -14.174547 29.289236
v 49.94563 -15.332953 29.819365
v 48.000204 -16.609323 30.306969
v 46.191375 -17.984782 30.760335
v 44.411303 -19.383835 31.206494
v 42.815277 -20.90557 31.606524
v 41.558587 -22.649077 31.921502
v 40.731817 -24.913984 32.128724
v 40.235755 -27.556377 32.253058
v 39.940993 -30.010027 32.326937
v 39.718125 -31.708707 32.382797
v 29.021034 -4.97724 28.924306
v 28.841106 -3.10427 28.982396
v 28.554742 -0.13095 29.074849
v 28.420429 3.319094 29.118212
v 28.696657 6.603976 29.029032
v 29.479724 9.607443 28.776218
v 30.622648 12.534866 28.407225
v 32.018992 15.209965 27.956415
v 33.562319 17.454064 27.458152
v 35.318519 19.152186 26.891163
v 37.312934 20.281224 26.247266
v 39.378306 20.811021 25.58046
v 41.347379 20.726973 24.944745
v 43.294911 19.915062 24.315984
v 45.270319 18.379124 23.678223
v 47.068333 16.310279 23.097734
v 48.483684 13.919637 22.640788
v 49.482158 11.286488 22.318431
v 50.166392 8.385424 22.097526
v 50.536385 5.292532 21.978073
v 50.592137 2.090961 21.960074
v 50.30704 -1.227269 22.052117
v 49.689962 -4.548498 22.251341
v 48.794123 -7.611148 22.540563
v 47.67274 -10.165643 22.902601
v 46.216843 -12.04697 23.372638
v 44.439102 -13.34967 23.946582
v 42.575198 -14.440663 24.548343
v 40.860813 -15.642755 25.101833
v 39.266801 -16.938171 25.616459
v 37.698132 -18.255807 26.122904
v 36.291652 -19.688985 26.576987
v 35.184207 -21.33103 26.934526
v 34.455624 -23.464133 27.169748
v 34.018475 -25.952753 27.310882
v 33.75872 -28.263615 27.394744
v 33.562319 -29.863442 27.458152
v 23.422063 -4.689236 24.150069
v 23.264197 -2.916201 24.214118
v 23.012945 -0.090096 24.316055
v 22.895101 3.200087 24.363866
v 23.137459 6.347278 24.265537
v 23.82451 9.238889 23.986789
v 24.827293 12.064785 23.579942
v 26.052423 14.654917 23.082886
v 27.406513 16.836867 22.533507
v 28.947375 18.49835 21.908353
v 30.697243 19.613993 21.198401
v 32.509367 20.152349 20.463191
v 34.237 20.097365 19.76226
v 35.945733 19.340205 19.068997
v 37.678925 17.884028 18.365811
v 39.256474 15.90943 17.725771
v 40.498279 13.616792 17.221949
v 41.374325 11.083177 16.866522
v 41.974661 8.287734 16.622956
v 42.299287 5.305788 16.491249
v 42.348203 2.219654 16.471403
v 42.098063 -0.974104 16.572889
v 41.556649 -4.164453 16.79255
v 40.770654 -7.101366 17.111442
v 39.78677 -9.5467 17.510621
v 38.509389 -11.34273 18.028877
v 36.949628 -12.577201 18.661699
v 35.314269 -13.605064 19.325193
v 33.810095 -14.737599 19.935463
v 32.411535 -15.958056 20.502883
v 31.035209 -17.199448 21.061282
v 29.801186 -18.549696 21.561947
v 28.829531 -20.096725 21.956164
v 28.190285 -22.106398 22.215518
v 27.806737 -24.451016 22.37113
v 27.578832 -26.628161 22.463595
v 27.406513 -28.135416 22.533507
v 17.744989 -4.454575 19.368
v 17.606091 -2.771455 19.437698
v 17.385027 -0.090267 19.548626
v 17.281342 3.029675 19.600654
v 17.494581 6.012007 19.493653
v 18.099082 8.750205 19.190319
v 18.981381 11.425143 18.74759
v 20.059311 13.87584 18.206695
v 21.250708 15.939079 17.608863
v 22.606435 17.508752 16.928571
v 24.146055 18.561263 16.156004
v 25.740453 19.067164 15.35595
v 27.26051 19.011528 14.593199
v 28.763939 18.291166 13.838792
v 30.288888 16.909142 13.073587
v 31.676894 15.036938 12.377098
v 32.769496 12.8647 11.82884
v 33.540285 10.465302 11.442065
v 34.06849 7.818503 11.177017
v 34.354112 4.995346 11.033694
v 34.397151 2.073466 11.012098
v 34.177066 -0.950971 11.122535
v 33.700703 -3.973047 11.361569
v 33.009145 -6.755752 11.708586
v 32.143475 -9.07328 12.142972
v 31.019572 -10.776118 12.706936
v 29.647216 -11.947808 13.395572
v 28.208346 -12.924235 14.117584
v 26.884898 -14.000094 14.781678
v 25.654375 -15.159477 15.399143
v 24.443415 -16.338747 16.006791
v 23.35766 -17.621426 16.551613
v 22.50275 -19.091038 16.980599
v 21.940309 -21.000142 17.262827
v 21.602844 -23.227429 17.432164
v 21.402322 -25.295625 17.532784
v 21.250708 -26.727453 17.608863
v 11.980303 -4.300246 14.59814
v 11.856901 -2.684184 14.673971
v 11.6605 -0.121616 14.794659
v 11.568383 2.849028 14.851265
v 11.757831 5.67376 14.734849
v 12.294891 8.252922 14.404826
v 13.078755 10.764874 13.923141
v 14.036425 13.058322 13.334653
v 15.094902 14.979936 12.684218
v 16.299376 16.431384 11.944069
v 17.667227 17.393621 11.103523
v 19.083744 17.841366 10.233073
v 20.434215 17.762584 9.403209
v 21.769912 17.059129 8.582422
v 23.124728 15.734428 7.749887
v 24.357879 13.953471 6.992115
v 25.328585 11.898273 6.395617
v 26.013379 9.636739 5.97481
v 26.482655 7.14613 5.68644
v 26.736411 4.491256 5.530507
v 26.774648 1.742943 5.50701
v 26.579117 -1.106743 5.627164
v 26.1559 -3.960608 5.887231
v 25.541497 -6.593567 6.264782
v 24.772406 -8.790757 6.737388
v 23.773892 -10.410187 7.350976
v 22.554645 -11.533874 8.100204
v 21.276303 -12.476473 8.885745
v 20.100507 -13.515059 9.608272
v 19.007269 -14.634275 10.280067
v 17.931412 -15.772688 10.941182
v 16.96679 -17.010929 11.533942
v 16.207259 -18.429626 12.000675
v 15.707567 -20.272588 12.307735
v 15.407752 -22.422712 12.491972
v 15.229601 -24.419254 12.601445
v 15.094902 -25.801476 12.684218
v 6.131974 -4.243088 9.860919
v 6.020754 -2.661683 9.944176
v 5.843743 -0.171935 10.076683
v 5.76072 2.697148 10.138832
v 5.931465 5.402573 10.011016
v 6.415506 7.850787 9.648674
v 7.121986 10.22343 9.11982
v 7.985113 12.377415 8.473703
v 8.939096 14.16782 7.759574
v 10.024663 15.503801 6.946944
v 11.257478 16.372189 6.024087
v 12.534154 16.752779 5.068397
v 13.751305 16.637275 4.157266
v 14.95514 15.931043 3.256103
v 16.176207 14.638175 2.342041
v 17.28762 12.920634 1.510063
v 18.162496 10.955694 0.855151
v 18.779687 8.806677 0.393137
v 19.202635 6.446323 0.076528
v 19.43134 3.932901 -0.094676
v 19.465803 1.330087 -0.120473
v 19.289574 -1.376319 0.011447
v 18.908138 -4.096578 0.296981
v 18.354389 -6.614191 0.711505
v 17.661224 -8.72185 1.230392
v 16.761285 -10.282978 1.904065
v 15.662403 -11.380569 2.726663
v 14.510262 -12.310638 3.589129
v 13.450542 -13.33542 4.382411
v 12.465229 -14.439759 5.119992
v 11.495582 -15.563041 5.845848
v 10.626189 -16.784823 6.496655
v 9.941639 -18.184664 7.009093
v 9.491278 -20.00313 7.346223
v 9.221061 -22.124674 7.548501
v 9.060498 -24.094679 7.668695
v 8.939096 -25.458529 7.759574
v 0.215518 -4.28772 5.17348
v 0.113782 -2.703571 5.266135
v -0.048137 -0.228493 5.4136
v -0.124081 2.605331 5.482764
v 0.032106 5.253023 5.34052
v 0.474875 7.625084 4.937276
v 1.121116 9.911026 4.348723
v 1.910649 11.972785 3.629671
v 2.78329 13.670632 2.834929
v 3.776296 14.919281 1.930567
v 4.903994 15.711352 0.903536
v 6.071815 16.031426 -0.160035
v 7.185184 15.874891 -1.174017
v 8.286375 15.148446 -2.176905
v 9.403327 13.856974 -3.194149
v 10.419975 12.163265 -4.120043
v 11.220254 10.244007 -4.848883
v 11.78482 8.159309 -5.363051
v 12.171705 5.87654 -5.7154
v 12.38091 3.448596 -5.905929
v 12.412434 0.933276 -5.934639
v 12.251232 -1.690484 -5.787827
v 11.902319 -4.338501 -5.470061
v 11.395786 -6.797894 -5.008745
v 10.761724 -8.864128 -4.431285
v 9.938518 -10.402908 -3.681565
v 8.933333 -11.500278 -2.766111
v 7.879429 -12.440131 -1.806287
v 6.910066 -13.475692 -0.923457
v 6.008767 -14.591648 -0.102615
v 5.121796 -15.726745 0.705177
v 4.326532 -16.961379 1.429449
v 3.700351 -18.375944 1.999732
v 3.28839 -20.213538 2.374918
v 3.041214 -22.357398 2.60003
v 2.894341 -24.348126 2.733792
v 2.78329 -25.726321 2.834929
v -5.745535 -4.425972 0.546277
v -5.839555 -2.801389 0.650717
v -5.989193 -0.277818 0.816937
v -6.059377 2.59723 0.894899
v -5.915036 5.26424 0.734562
v -5.505849 7.634691 0.28003
v -4.908622 9.90877 -0.383381
v -4.178971 11.948966 -1.19389
v -3.372516 13.616192 -2.089716
v -2.454825 14.827405 -3.109104
v -1.412656 15.579531 -4.266763
v -0.333409 15.86048 -5.465611
v 0.695517 15.668385 -6.608561
v 1.713187 14.90872 -7.739007
v 2.745424 13.587097 -8.885635
v 3.684965 11.870886 -9.929294
v 4.424547 9.940592 -10.750835
v 4.946293 7.85529 -11.3304
v 5.303835 5.577402 -11.727564
v 5.497172 3.156938 -11.942327
v 5.526305 0.648549 -11.974689
v 5.37733 -1.974659 -11.809204
v 5.05488 -4.630766 -11.451021
v 4.586765 -7.104547 -10.93103
v 4.000793 -9.188668 -10.280122
v 3.240023 -10.747353 -9.435045
v 2.311077 -11.87109 -8.403154
v 1.337106 -12.841247 -7.321249
v 0.441265 -13.910198 -6.326133
v -0.391675 -15.062137 -5.400888
v -1.211373 -16.233834 -4.490352
v -1.946321 -17.508277 -3.673959
v -2.525009 -18.968452 -3.031142
v -2.905725 -20.865298 -2.608236
v -3.134154 -23.078284 -2.354492
v -3.269888 -25.133199 -2.203717
v -3.372516 -26.555833 -2.089716
v -11.72413 -4.637899 -4.01948
v -11.811129 -2.939177 -3.900821
v -11.949592 -0.305509 -3.71197
v -12.014535 2.690006 -3.623394
v -11.880973 5.462067 -3.80556
v -11.502343 7.91924 -4.321976
v -10.949715 10.272862 -5.07571
v -10.274553 12.380556 -5.996569
v -9.528321 14.098339 -7.01436
v -8.679161 15.340903 -8.172537
v -7.714819 16.106585 -9.487811
v -6.716168 16.38403 -10.849879
v -5.764079 16.172273 -12.148441
v -4.822406 15.372873 -13.432796
v -3.867254 13.991909 -14.735536
v -2.997875 12.204533 -15.921288
v -2.313523 10.199249 -16.854681
v -1.83074 8.036942 -17.513153
v -1.499898 5.676898 -17.964391
v -1.320998 3.169949 -18.208394
v -1.294041 0.571641 -18.245161
v -1.431892 -2.147971 -18.057145
v -1.730262 -4.904753 -17.650196
v -2.163419 -7.474724 -17.059409
v -2.705632 -9.641925 -16.319881
v -3.409589 -11.265055 -15.359748
v -4.269165 -12.439507 -14.187366
v -5.170402 -13.456118 -12.958161
v -5.999344 -14.576253 -11.827561
v -6.770083 -15.783349 -10.776344
v -7.528568 -17.01115 -9.741841
v -8.208631 -18.346616 -8.814297
v -8.744104 -19.876709 -8.08396
v -9.096389 -21.86438 -7.603476
v -9.30776 -24.183329 -7.315185
v -9.433358 -26.336639 -7.143882
v -9.528321 -27.827392 -7.01436
v -17.694391 -4.894247 -8.533061
v -17.774039 -3.095495 -8.398115
v -17.900802 -0.298204 -8.183343
v -17.960257 2.891795 -8.082609
v -17.837981 5.85516 -8.289779
v -17.491345 8.493174 -8.877076
v -16.985414 11.026225 -9.734264
v -16.367303 13.301178 -10.781516
v -15.684127 15.163126 -11.939005
v -14.906721 16.519168 -13.256148
v -14.023865 17.364928 -14.75195
v -13.109599 17.686217 -16.30097
v -12.237961 17.480349 -17.777767
v -11.375858 16.642414 -19.238407
v -10.501416 15.178494 -20.719955
v -9.7055 13.273812 -22.068458
v -9.078975 11.128374 -23.129965
v -8.636986 8.808142 -23.878816
v -8.3341 6.2724 -24.391989
v -8.170318 3.577435 -24.669482
v -8.145638 0.784754 -24.711296
v -8.271841 -2.134274 -24.497474
v -8.544999 -5.087995 -24.034669
v -8.941555 -7.837442 -23.362793
v -9.437951 -10.152529 -22.52176
v -10.082424 -11.882504 -21.429844
v -10.869366 -13.127069 -20.096546
v -11.694449 -14.199871 -18.698626
v -12.453346 -15.381919 -17.412844
v -13.158958 -16.655734 -16.217342
v -13.853351 -17.951398 -15.040847
v -14.47595 -19.360679 -13.985993
v -14.966176 -20.975344 -13.155414
v -15.288693 -23.072878 -12.60898
v -15.482203 -25.520001 -12.28112
v -15.597188 -27.79233 -12.086305
v -15.684127 -29.365481 -11.939005
v -23.635801 -5.160073 -13.013849
v -23.706954 -3.246788 -12.861318
v -23.820198 -0.248039 -12.618557
v -23.873312 3.194539 -12.504696
v -23.764077 6.423328 -12.738864
v -23.45441 9.32814 -13.402696
v -23.002437 12.134112 -14.371591
v -22.450247 14.671876 -15.555319
v -21.839933 16.769971 -16.86365
v -21.145437 18.322554 -18.35244
v -20.356739 19.317825 -20.043172
v -19.53998 19.734768 -21.794058
v -18.761303 19.565979 -23.463307
v -17.991144 18.698027 -25.114296
v -17.209962 17.13642 -26.788916
v -16.498931 15.077503 -28.313153
v -15.939225 12.735113 -29.512994
v -15.544375 10.183501 -30.359434
v -15.273792 7.385898 -30.939482
v -15.127477 4.408906 -31.253138
v -15.10543 1.325307 -31.300401
v -15.218173 -1.886945 -31.058714
v -15.462198 -5.123341 -30.535597
v -15.816461 -8.124789 -29.776163
v -16.259916 -10.642701 -28.825529
v -16.835656 -12.513629 -27.591316
v -17.53867 -13.840053 -26.084265
v -18.275757 -14.971123 -24.504171
v -18.953717 -16.217373 -23.050829
v -19.584075 -17.560374 -21.699532
v -20.204411 -18.926411 -20.369718
v -20.760609 -20.412236 -19.177397
v -21.198552 -22.114599 -18.238578
v -21.486672 -24.326059 -17.620935
v -21.659545 -26.906096 -17.250348
v -21.762266 -29.301844 -17.030145
v -21.839933 -30.960439 -16.86365
v -29.536214 -5.399064 -17.489334
v -29.597249 -3.371302 -17.319007
v -29.694388 -0.157592 -17.047923
v -29.739949 3.566266 -16.920777
v -29.646248 7.105073 -17.182265
v -29.380619 10.334153 -17.923548
v -28.992922 13.477976 -19.005485
v -28.51926 16.347174 -20.327319
v -27.995739 18.749836 -21.788294
v -27.400008 20.56309 -23.450783
v -26.723471 21.763554 -25.338775
v -26.022864 22.319934 -27.293938
v -25.354924 22.217458 -29.157941
v -24.69429 21.333109 -31.001552
v -24.024201 19.671256 -32.871551
v -23.414286 17.438971 -34.573623
v -22.934177 14.864558 -35.91345
v -22.595479 12.032928 -36.858645
v -22.363376 8.915073 -37.506368
v -22.237868 5.591832 -37.856618
v -22.218956 2.151539 -37.909396
v -22.315666 -1.416366 -37.639511
v -22.524988 -4.990437 -37.055361
v -22.828871 -8.2886 -36.207324
v -23.209262 -11.041534 -35.145778
v -23.703125 -13.071298 -33.767568
v -24.306163 -14.481062 -32.084688
v -24.938428 -15.664517 -30.320243
v -25.519975 -16.968488 -28.697338
v -26.060689 -18.37369 -27.188383
v -26.592806 -19.802996 -25.703419
v -27.069906 -21.357638 -24.371989
v -27.445569 -23.138847 -23.323637
v -27.692716 -25.452731 -22.633932
v -27.841004 -28.152263 -22.22011
v -27.929117 -30.658972 -21.974215
v -27.995739 -32.394385 -21.788294
v -35.393291 -5.578026 -21.991649
v -35.442489 -3.452411 -21.804589
v -35.520792 -0.042051 -21.506874
v -35.557517 3.949584 -21.367237
v -35.481987 7.795809 -21.654414
v -35.267869 11.356701 -22.46852
v -34.955354 14.851024 -23.656747
v -34.573544 18.068735 -25.108438
v -34.151545 20.796741 -26.712939
v -33.671338 22.893732 -28.53875
v -33.125995 24.322472 -30.612219
v -32.56125 25.03961 -32.759457
v -32.022837 25.021562 -34.806579
v -31.490314 24.136098 -36.831306
v -30.950168 22.386084 -38.885015
v -30.458528 19.987388 -40.754298
v -30.071522 17.181286 -42.225749
v -29.798504 14.064062 -43.263801
v -29.61141 10.616959 -43.975156
v -29.510241 6.936702 -44.359814
v -29.494997 3.128991 -44.417777
v -29.572952 -0.802269 -44.121379
v -29.741683 -4.717275 -43.479842
v -29.986637 -8.311596 -42.548494
v -30.293262 -11.296057 -41.382662
v -30.691355 -13.478617 -39.869056
v -31.177452 -14.961063 -38.02085
v -31.687108 -16.183746 -36.083066
v -32.155881 -17.530939 -34.300727
v -32.59174 -18.98272 -32.643533
v -33.020669 -20.459403 -31.012685
v -33.40525 -22.065575 -29.550455
v -33.708064 -23.905826 -28.399114
v -33.907284 -26.296408 -27.641653
v -34.026816 -29.085421 -27.187176
v -34.097842 -31.675219 -26.917124
v -34.151545 -33.468156 -26.712939
v -41.214171 -5.670989 -26.553112
v -41.2501 -3.480398 -26.351663
v -41.307282 0.073724 -26.031046
v -41.334102 4.271099 -25.880668
v -41.278944 8.364791 -26.189936
v -41.122578 12.201824 -27.066667
v -40.894355 15.99193 -28.346296
v -40.615528 19.507675 -29.909658
v -40.30735 22.518124 -31.637584
v -39.956666 24.865753 -33.603844
v -39.558414 26.500095 -35.836812
v -39.145993 27.366447 -38.149225
v -38.752801 27.432805 -40.35382
v -38.363911 26.55978 -42.534298
v -37.969454 24.748698 -44.745986
v -37.61042 22.22089 -46.759062
v -37.327798 19.226865 -48.343704
v -37.128419 15.872765 -49.461606
v -36.991789 12.150333 -50.227682
v -36.917907 8.170649 -50.64193
v -36.906774 4.055094 -50.704351
v -36.963703 -0.178072 -50.385153
v -37.086924 -4.372891 -49.694266
v -37.265808 -8.207312 -48.691275
v -37.48973 -11.376807 -47.435762
v -37.780449 -13.67822 -45.805724
v -38.135435 -15.210403 -43.815346
v -38.507626 -16.453463 -41.7285
v -38.849961 -17.823108 -39.809055
v -39.168259 -19.299085 -38.024383
v -39.481496 -20.800378 -36.268084
v -39.762347 -22.433319 -34.693374
v -39.983486 -24.304239 -33.453466
v -40.128972 -26.734663 -32.637738
v -40.216264 -29.570157 -32.148301
v -40.268133 -32.203116 -31.857476
v -40.30735 -34.025934 -31.637584
vt 0.58849656 1.01074196
vt 0.58849656 1.0068821
vt 0.58849656 1.00080606
vt 0.58849656 0.99382709
vt 0.58849656 0.98723285
vt 0.58849656 0.98111654
vt 0.58849656 0.97498961
vt 0.58849656 0.96917446
vt 0.58849656 0.96400004
vt 0.58849656 0.95944898
vt 0.58849656 0.9552552
vt 0.58849656 0.95138837
vt 0.58849656 0.94779675
vt 0.58849656 0.94386039
vt 0.58849656 0.93908687
vt 0.58849656 0.93378402
vt 0.58849656 0.92835948
vt 0.58849656 0.92283134
vt 0.58849656 0.91696344
vt 0.58849656 0.91082032
vt 0.58849656 0.9044961
vt 0.58849656 0.89790001
vt 0.58849656 0.89119534
vt 0.58849656 0.8848639
vt 0.58849656 0.87935043
vt 0.58849656 0.87472344
vt 0.58849656 0.87053137
vt 0.58849656 0.8664564
vt 0.58849656 0.8624649
vt 0.58849656 0.85851296
vt 0.58849656 0.85456297
vt 0.58849656 0.85064199
vt 0.58849656 0.84668587
vt 0.58849656 0.84206811
vt 0.58849656 0.83684634
vt 0.58849656 0.83203083
vt 0.58849656 0.82869393
vt 0.60388868 1.00799394
vt 0.60388868 1.00432284
vt 0.60388868 0.99849491
vt 0.60388868 0.99175261
vt 0.60388868 0.98531941
vt 0.60388868 0.97930194
vt 0.60388868 0.9732586
vt 0.60388868 0.96751259
vt 0.60388868 0.9623944
vt 0.60388868 0.95791722
vt 0.60388868 0.95385177
vt 0.60388868 0.95016657
vt 0.60388868 0.94679055
vt 0.60388868 0.94309761
vt 0.60388868 0.93857619
vt 0.60388868 0.93349602
vt 0.60388868 0.92823518
vt 0.60388868 0.92281552
vt 0.60388868 0.91702949
vt 0.60388868 0.91095554
vt 0.60388868 0.90470175
vt 0.60388868 0.89820246
vt 0.60388868 0.89163018
vt 0.60388868 0.88545485
vt 0.60388868 0.88010878
vt 0.60388868 0.8756683
vt 0.60388868 0.8717007
vt 0.60388868 0.86786287
vt 0.60388868 0.86410365
vt 0.60388868 0.8603817
vt 0.60388868 0.85666157
vt 0.60388868 0.85296878
vt 0.60388868 0.84924288
vt 0.60388868 0.84489384
vt 0.60388868 0.83997595
vt 0.60388868 0.83544068
vt 0.60388868 0.83229796
vt 0.61928081 1.00316021
vt 0.61928081 0.9996851
vt 0.61928081 0.99414606
vt 0.61928081 0.98771627
vt 0.61928081 0.98155328
vt 0.61928081 0.97576601
vt 0.61928081 0.96994679
vt 0.61928081 0.96440898
vt 0.61928081 0.95947323
vt 0.61928081 0.95516521
vt 0.61928081 0.95127905
vt 0.61928081 0.94778481
vt 0.61928081 0.94460608
vt 0.61928081 0.94113332
vt 0.61928081 0.93686171
vt 0.61928081 0.93203584
vt 0.61928081 0.92700938
vt 0.61928081 0.9218053
vt 0.61928081 0.91623496
vt 0.61928081 0.91038033
vt 0.61928081 0.90435206
vt 0.61928081 0.89809731
vt 0.61928081 0.89178713
vt 0.61928081 0.88587167
vt 0.61928081 0.88076443
vt 0.61928081 0.87654273
vt 0.61928081 0.87279574
vt 0.61928081 0.86917999
vt 0.61928081 0.86563829
vt 0.61928081 0.86213171
vt 0.61928081 0.85862684
vt 0.61928081 0.85514773
vt 0.61928081 0.85163743
vt 0.61928081 0.84754004
vt 0.61928081 0.84290672
vt 0.61928081 0.83863388
vt 0.61928081 0.83567302
vt 0.63467293 0.99725285
vt 0.63467293 0.99395396
vt 0.63467293 0.9886989
vt 0.63467293 0.98260179
vt 0.63467293 0.97676156
vt 0.63467293 0.9712805
vt 0.63467293 0.96577016
vt 0.63467293 0.96052699
vt 0.63467293 0.95585428
vt 0.63467293 0.95177458
vt 0.63467293 0.94809087
vt 0.63467293 0.94477472
vt 0.63467293 0.94175483
vt 0.63467293 0.93845494
vt 0.63467293 0.93439875
vt 0.63467293 0.92981997
vt 0.63467293 0.92505491
vt 0.63467293 0.92012505
vt 0.63467293 0.91485022
vt 0.63467293 0.90930716
vt 0.63467293 0.90359972
vt 0.63467293 0.89767648
vt 0.63467293 0.8916987
vt 0.63467293 0.88609298
vt 0.63467293 0.88125124
vt 0.63467293 0.87724618
vt 0.63467293 0.87368796
vt 0.63467293 0.87025315
vt 0.63467293 0.86688868
vt 0.63467293 0.86355758
vt 0.63467293 0.8602281
vt 0.63467293 0.85692309
vt 0.63467293 0.85358846
vt 0.63467293 0.84969612
vt 0.63467293 0.84529465
vt 0.63467293 0.84123564
vt 0.63467293 0.83842294
vt 0.65006506 0.99153238
vt 0.65006506 0.9883648
vt 0.65006506 0.98334188
vt 0.65006506 0.97753644
vt 0.65006506 0.97200427
vt 0.65006506 0.96683532
vt 0.65006506 0.96164591
vt 0.65006506 0.95671304
vt 0.65006506 0.95231983
vt 0.65006506 0.94847428
vt 0.65006506 0.94497576
vt 0.65006506 0.94179724
vt 0.65006506 0.9388798
vt 0.65006506 0.93568751
vt 0.65006506 0.93178409
vt 0.65006506 0.92740499
vt 0.65006506 0.92287752
vt 0.65006506 0.91821996
vt 0.65006506 0.91325126
vt 0.65006506 0.90803715
vt 0.65006506 0.90266871
vt 0.65006506 0.89708696
vt 0.65006506 0.89143872
vt 0.65006506 0.88612816
vt 0.65006506 0.8815272
vt 0.65006506 0.8777004
vt 0.65006506 0.87427475
vt 0.65006506 0.87095893
vt 0.65006506 0.86771103
vt 0.65006506 0.86449533
vt 0.65006506 0.86128121
vt 0.65006506 0.8580907
vt 0.65006506 0.85487159
vt 0.65006506 0.8511141
vt 0.65006506 0.84686513
vt 0.65006506 0.84294674
vt 0.65006506 0.84023149
vt 0.66545718 0.98715948
vt 0.66545718 0.98405965
vt 0.66545718 0.97917892
vt 0.66545718 0.97357182
vt 0.66545718 0.96827242
vt 0.66545718 0.96335599
vt 0.66545718 0.95843068
vt 0.66545718 0.95375581
vt 0.66545718 0.94959592
vt 0.66545718 0.94593776
vt 0.66545718 0.94256814
vt 0.66545718 0.93946263
vt 0.66545718 0.93657914
vt 0.66545718 0.933419
vt 0.66545718 0.92958584
vt 0.66545718 0.92532633
vt 0.66545718 0.92096766
vt 0.66545718 0.91652445
vt 0.66545718 0.9118074
vt 0.66545718 0.90686875
vt 0.66545718 0.90178448
vt 0.66545718 0.89648217
vt 0.66545718 0.89109333
vt 0.66545718 0.88600516
vt 0.66545718 0.88157505
vt 0.66545718 0.87785827
vt 0.66545718 0.87449207
vt 0.66545718 0.87122033
vt 0.66545718 0.8680156
vt 0.66545718 0.86484264
vt 0.66545718 0.86167124
vt 0.66545718 0.85852314
vt 0.66545718 0.85534682
vt 0.66545718 0.85163927
vt 0.66545718 0.84744678
vt 0.66545718 0.84358047
vt 0.66545718 0.84090131
vt 0.68084931 0.98500808
vt 0.68084931 0.98190267
vt 0.68084931 0.97705011
vt 0.68084931 0.97151175
vt 0.68084931 0.96632445
vt 0.68084931 0.96154966
vt 0.68084931 0.95677716
vt 0.68084931 0.95225398
vt 0.68084931 0.94823149
vt 0.68084931 0.94467339
vt 0.68084931 0.9413492
vt 0.68084931 0.93823878
vt 0.68084931 0.93531784
vt 0.68084931 0.93211349
vt 0.68084931 0.92825923
vt 0.68084931 0.92401907
vt 0.68084931 0.91972822
vt 0.68084931 0.91539829
vt 0.68084931 0.91082692
vt 0.68084931 0.90605353
vt 0.68084931 0.90114011
vt 0.68084931 0.89599835
vt 0.68084931 0.89074693
vt 0.68084931 0.88576494
vt 0.68084931 0.88140341
vt 0.68084931 0.87770939
vt 0.68084931 0.87432237
vt 0.68084931 0.87101621
vt 0.68084931 0.86777778
vt 0.68084931 0.86457144
vt 0.68084931 0.86136668
vt 0.68084931 0.85818547
vt 0.68084931 0.85497574
vt 0.68084931 0.85122919
vt 0.68084931 0.84699259
vt 0.68084931 0.84308562
vt 0.68084931 0.84037828
vt 0.69624144 0.98564576
vt 0.69624144 0.98246094
vt 0.69624144 0.97751284
vt 0.69624144 0.97189378
vt 0.69624144 0.96666782
vt 0.69624144 0.96188693
vt 0.69624144 0.95711653
vt 0.69624144 0.95259992
vt 0.69624144 0.94858407
vt 0.69624144 0.94501355
vt 0.69624144 0.9416398
vt 0.69624144 0.93844709
vt 0.69624144 0.93542516
vt 0.69624144 0.93210897
vt 0.69624144 0.92814509
vt 0.69624144 0.92381696
vt 0.69624144 0.91947424
vt 0.69624144 0.91512682
vt 0.69624144 0.91055744
vt 0.69624144 0.90579651
vt 0.69624144 0.90089658
vt 0.69624144 0.89575476
vt 0.69624144 0.89048263
vt 0.69624144 0.88546213
vt 0.69624144 0.88104789
vt 0.69624144 0.87728183
vt 0.69624144 0.87379671
vt 0.69624144 0.87038396
vt 0.69624144 0.8670411
vt 0.69624144 0.86373138
vt 0.69624144 0.86042328
vt 0.69624144 0.8571395
vt 0.69624144 0.85382627
vt 0.69624144 0.84995893
vt 0.69624144 0.84558572
vt 0.69624144 0.84155277
vt 0.69624144 0.83875814
vt 0.71163356 0.98937501
vt 0.71163356 0.9860448
vt 0.71163356 0.98088066
vt 0.71163356 0.97502612
vt 0.71163356 0.96959402
vt 0.71163356 0.96463484
vt 0.71163356 0.95968935
vt 0.71163356 0.95500841
vt 0.71163356 0.9508465
vt 0.71163356 0.94713929
vt 0.71163356 0.94362287
vt 0.71163356 0.94028282
vt 0.71163356 0.93711358
vt 0.71163356 0.93363567
vt 0.71163356 0.92948699
vt 0.71163356 0.92496826
vt 0.71163356 0.92044714
vt 0.71163356 0.91593333
vt 0.71163356 0.91119632
vt 0.71163356 0.90626446
vt 0.71163356 0.90118886
vt 0.71163356 0.89585767
vt 0.71163356 0.89038403
vt 0.71163356 0.88516496
vt 0.71163356 0.88056944
vt 0.71163356 0.87663912
vt 0.71163356 0.87299093
vt 0.71163356 0.86941476
vt 0.71163356 0.86591184
vt 0.71163356 0.86244365
vt 0.71163356 0.85897715
vt 0.71163356 0.85553613
vt 0.71163356 0.85206426
vt 0.71163356 0.84801173
vt 0.71163356 0.84342913
vt 0.71163356 0.83920307
vt 0.71163356 0.83627462
vt 0.72702569 0.99621391
vt 0.72702569 0.99268768
vt 0.72702569 0.98720298
vt 0.72702569 0.98096841
vt 0.72702569 0.97516193
vt 0.72702569 0.96984349
vt 0.72702569 0.96453496
vt 0.72702569 0.95950788
vt 0.72702569 0.95503807
vt 0.72702569 0.95106812
vt 0.72702569 0.94732539
vt 0.72702569 0.94379126
vt 0.72702569 0.94045117
vt 0.72702569 0.93678596
vt 0.72702569 0.93239955
vt 0.72702569 0.92760306
vt 0.72702569 0.92278237
vt 0.72702569 0.9179488
vt 0.72702569 0.91286392
vt 0.72702569 0.90756357
vt 0.72702569 0.90210831
vt 0.72702569 0.8963869
vt 0.72702569 0.89052508
vt 0.72702569 0.8849472
vt 0.72702569 0.88004707
vt 0.72702569 0.87587248
vt 0.72702569 0.87201626
vt 0.72702569 0.86824242
vt 0.72702569 0.86454589
vt 0.72702569 0.86088599
vt 0.72702569 0.8572279
vt 0.72702569 0.85359668
vt 0.72702569 0.84993291
vt 0.72702569 0.84565639
vt 0.72702569 0.8408205
vt 0.72702569 0.83636085
vt 0.72702569 0.83327054
vt 0.74241781 1.00576454
vt 0.74241781 1.00201403
vt 0.74241781 0.99613507
vt 0.74241781 0.98940706
vt 0.74241781 0.98308179
vt 0.74241781 0.97724047
vt 0.74241781 0.97139647
vt 0.74241781 0.9658545
vt 0.74241781 0.96092499
vt 0.74241781 0.95657562
vt 0.74241781 0.95253623
vt 0.74241781 0.94878003
vt 0.74241781 0.94526862
vt 0.74241781 0.94141775
vt 0.74241781 0.93676989
vt 0.74241781 0.93163557
vt 0.74241781 0.92641593
vt 0.74241781 0.92112642
vt 0.74241781 0.91552894
vt 0.74241781 0.90967752
vt 0.74241781 0.90365405
vt 0.74241781 0.89735973
vt 0.74241781 0.89094441
vt 0.74241781 0.88487028
vt 0.74241781 0.87956477
vt 0.74241781 0.87508883
vt 0.74241781 0.87100554
vt 0.74241781 0.86702673
vt 0.74241781 0.86312942
vt 0.74241781 0.85927075
vt 0.74241781 0.85541396
vt 0.74241781 0.85158552
vt 0.74241781 0.84772276
vt 0.74241781 0.84321397
vt 0.74241781 0.83811541
vt 0.74241781 0.83341355
vt 0.74241781 0.83015539
vt 0.75780994 1.01702951
vt 0.75780994 1.01305496
vt 0.75780994 1.00675568
vt 0.75780994 0.99947824
vt 0.75780994 0.99254749
vt 0.75780994 0.98607511
vt 0.75780994 0.97957813
vt 0.75780994 0.97340302
vt 0.75780994 0.96790386
vt 0.75780994 0.96308874
vt 0.75780994 0.95870426
vt 0.75780994 0.95471664
vt 0.75780994 0.95105335
vt 0.75780994 0.94704438
vt 0.75780994 0.94214529
vt 0.75780994 0.93665303
vt 0.75780994 0.93097897
vt 0.75780994 0.9251457
vt 0.75780994 0.9189249
vt 0.75780994 0.91239791
vt 0.75780994 0.90567779
vt 0.75780994 0.89868913
vt 0.75780994 0.89161503
vt 0.75780994 0.88496182
vt 0.75780994 0.87919557
vt 0.75780994 0.87439653
vt 0.75780994 0.87009685
vt 0.75780994 0.86593377
vt 0.75780994 0.86185595
vt 0.75780994 0.85781856
vt 0.75780994 0.85378315
vt 0.75780994 0.84977739
vt 0.75780994 0.84573572
vt 0.75780994 0.8410181
vt 0.75780994 0.83568341
vt 0.75780994 0.83076377
vt 0.75780994 0.82735472
vt 0.77320206 1.02834367
vt 0.77320206 1.02417774
vt 0.77320206 1.01749424
vt 0.77320206 1.00969382
vt 0.77320206 1.00216298
vt 0.77320206 0.99504759
vt 0.77320206 0.9878789
vt 0.77320206 0.98104679
vt 0.77320206 0.9749507
vt 0.77320206 0.96964646
vt 0.77320206 0.96490956
vt 0.77320206 0.9607055
vt 0.77320206 0.95692627
vt 0.77320206 0.95280785
vt 0.77320206 0.94770334
vt 0.77320206 0.9418847
vt 0.77320206 0.93576782
vt 0.77320206 0.92938504
vt 0.77320206 0.92252554
vt 0.77320206 0.91530255
vt 0.77320206 0.90786485
vt 0.77320206 0.90016713
vt 0.77320206 0.89242947
vt 0.77320206 0.88520184
vt 0.77320206 0.87898819
vt 0.77320206 0.87389124
vt 0.77320206 0.86941641
vt 0.77320206 0.86511533
vt 0.77320206 0.86090235
vt 0.77320206 0.85673113
vt 0.77320206 0.85256196
vt 0.77320206 0.84842342
vt 0.77320206 0.84424779
vt 0.77320206 0.83937379
vt 0.77320206 0.83386227
vt 0.77320206 0.82877957
vt 0.77320206 0.82525751
vt 0.78859419 1.03759533
vt 0.78859419 1.03330245
vt 0.78859419 1.02633836
vt 0.78859419 1.01813617
vt 0.78859419 1.01012253
vt 0.78859419 1.00247416
vt 0.78859419 0.99474299
vt 0.78859419 0.98735553
vt 0.78859419 0.98074948
vt 0.78859419 0.97502529
vt 0.78859419 0.9699921
vt 0.78859419 0.96562134
vt 0.78859419 0.96177711
vt 0.78859419 0.95761207
vt 0.78859419 0.95238056
vt 0.78859419 0.9463239
vt 0.78859419 0.93985689
vt 0.78859419 0.93302236
vt 0.78859419 0.92563042
vt 0.78859419 0.91782414
vt 0.78859419 0.90978522
vt 0.78859419 0.90149862
vt 0.78859419 0.89321762
vt 0.78859419 0.88552723
vt 0.78859419 0.8789615
vt 0.78859419 0.87364414
vt 0.78859419 0.86906295
vt 0.78859419 0.86469019
vt 0.78859419 0.860407
vt 0.78859419 0.85616626
vt 0.78859419 0.8519276
vt 0.78859419 0.84772009
vt 0.78859419 0.84347487
vt 0.78859419 0.83851964
vt 0.78859419 0.83291627
vt 0.78859419 0.82774885
vt 0.78859419 0.8241681
vn -0.966505 -0.084761 0.242246
vn -0.966458 -0.085334 0.242234
vn -0.968329 -0.058611 0.242703
vn -0.96982 0.019041 0.243077
vn -0.958723 0.152016 0.240295
vn -0.929339 0.286482 0.23293
vn -0.894343 0.387172 0.224159
vn -0.847042 0.487286 0.212303
vn -0.76097 0.620118 0.19073
vn -0.598631 0.786847 0.150041
vn -0.368065 0.925212 0.092252
vn -0.083958 0.996247 0.021043
vn 0.262598 0.962658 -0.065818
vn 0.546389 0.826259 -0.136947
vn 0.707667 0.68392 -0.17737
vn 0.81224 0.546645 -0.203581
vn 0.888161 0.402013 -0.22261
vn 0.934248 0.268979 -0.234161
vn 0.957529 0.159812 -0.239996
vn 0.96812 0.062162 -0.242651
vn 0.96949 -0.032313 -0.242994
vn 0.962575 -0.123458 -0.241261
vn 0.948105 -0.211249 -0.237634
vn 0.922145 -0.310207 -0.231127
vn 0.858648 -0.465196 -0.215212
vn 0.717553 -0.672884 -0.179848
vn 0.579397 -0.802004 -0.145221
vn 0.572369 -0.807349 -0.143459
vn 0.632886 -0.757821 -0.158627
vn 0.665224 -0.727789 -0.166732
vn 0.703842 -0.688102 -0.176412
vn 0.788393 -0.582571 -0.197604
vn 0.892258 -0.392252 -0.223636
vn 0.947111 -0.215936 -0.237385
vn 0.962229 -0.126295 -0.241174
vn 0.964963 -0.101742 -0.241859
vn 0.969996 0 -0.243121
vn -0.948276 -0.083933 0.306151
vn -0.948265 -0.084064 0.306148
vn -0.950069 -0.057329 0.30673
vn -0.951471 0.018472 0.307183
vn -0.94142 0.146115 0.303938
vn -0.915256 0.273846 0.29549
vn -0.884361 0.369305 0.285516
vn -0.842932 0.464117 0.272141
vn -0.767211 0.591637 0.247694
vn -0.620379 0.758297 0.200289
vn -0.401971 0.906409 0.129776
vn -0.118975 0.992154 0.038411
vn 0.240242 0.967609 -0.077562
vn 0.536503 0.825931 -0.17321
vn 0.701099 0.676185 -0.22635
vn 0.804518 0.534122 -0.259739
vn 0.876987 0.388237 -0.283135
vn 0.919518 0.257598 -0.296866
vn 0.940516 0.152411 -0.303646
vn 0.949965 0.059201 -0.306696
vn 0.951181 -0.030828 -0.307089
vn 0.944951 -0.118303 -0.305077
vn 0.931731 -0.203447 -0.30081
vn 0.907699 -0.300338 -0.293051
vn 0.847943 -0.453925 -0.273759
vn 0.710705 -0.665019 -0.229451
vn 0.57082 -0.800126 -0.184289
vn 0.561534 -0.807349 -0.181291
vn 0.620906 -0.757821 -0.200459
vn 0.652631 -0.727789 -0.210702
vn 0.690518 -0.688102 -0.222934
vn 0.773469 -0.582571 -0.249714
vn 0.875367 -0.392252 -0.282612
vn 0.929182 -0.215936 -0.299987
vn 0.944014 -0.126295 -0.304775
vn 0.946695 -0.101742 -0.305641
vn 0.951634 0 -0.307235
vn -0.9234 -0.083536 0.374639
vn -0.923406 -0.08346 0.374642
vn -0.925147 -0.056725 0.375348
vn -0.926485 0.018208 0.375891
vn -0.917061 0.143406 0.372068
vn -0.89272 0.268081 0.362192
vn -0.864096 0.361154 0.350579
vn -0.825861 0.453524 0.335066
vn -0.755864 0.578468 0.306667
vn -0.618498 0.744642 0.250935
vn -0.409875 0.896855 0.166293
vn -0.133007 0.989645 0.053963
vn 0.225606 0.969909 -0.091532
vn 0.522628 0.825772 -0.212039
vn 0.685836 0.67246 -0.278256
vn 0.786829 0.528198 -0.31923
vn 0.856424 0.381845 -0.347466
vn 0.896638 0.252394 -0.363782
vn 0.916287 0.149052 -0.371754
vn 0.925086 0.057861 -0.375324
vn 0.926217 -0.030155 -0.375782
vn 0.920389 -0.115948 -0.373418
vn 0.907944 -0.199853 -0.368369
vn 0.885185 -0.295752 -0.359135
vn 0.82816 -0.448615 -0.335999
vn 0.695145 -0.661234 -0.282033
vn 0.556954 -0.799213 -0.225966
vn 0.546785 -0.807349 -0.22184
vn 0.604597 -0.757821 -0.245296
vn 0.63549 -0.727789 -0.257829
vn 0.672382 -0.688102 -0.272797
vn 0.753153 -0.582571 -0.305567
vn 0.852376 -0.392252 -0.345824
vn 0.904777 -0.215936 -0.367084
vn 0.919219 -0.126295 -0.372943
vn 0.92183 -0.101742 -0.374003
vn 0.926639 0 -0.375953
vn -0.890658 -0.083595 0.446924
vn -0.890661 -0.083549 0.446926
vn -0.892342 -0.056814 0.447769
vn -0.893637 0.018247 0.448419
vn -0.884497 0.143801 0.443832
vn -0.860861 0.26892 0.431972
vn -0.83305 0.36234 0.418017
vn -0.795879 0.455066 0.399365
vn -0.727845 0.58039 0.365226
vn -0.594559 0.746652 0.298344
vn -0.392743 0.898284 0.197075
vn -0.12585 0.990037 0.06315
vn 0.2188 0.969573 -0.109792
vn 0.504068 0.825795 -0.252937
vn 0.661074 0.67301 -0.331721
vn 0.758448 0.529068 -0.380582
vn 0.825715 0.382779 -0.414336
vn 0.864672 0.253151 -0.433885
vn 0.883736 0.14954 -0.443451
vn 0.892279 0.058055 -0.447737
vn 0.893377 -0.030252 -0.448288
vn 0.887722 -0.116291 -0.445451
vn 0.875659 -0.200377 -0.439398
vn 0.853617 -0.296422 -0.428337
vn 0.798449 -0.449394 -0.400654
vn 0.670059 -0.661793 -0.33623
vn 0.537047 -0.799348 -0.269485
vn 0.5274 -0.807349 -0.264644
vn 0.583162 -0.757821 -0.292625
vn 0.612959 -0.727789 -0.307577
vn 0.648543 -0.688102 -0.325433
vn 0.726451 -0.582571 -0.364527
vn 0.822156 -0.392252 -0.41255
vn 0.872699 -0.215936 -0.437913
vn 0.886629 -0.126295 -0.444902
vn 0.889148 -0.101742 -0.446166
vn 0.893786 0 -0.448494
vn -0.84898 -0.084044 0.521699
vn -0.848966 -0.084233 0.52169
vn -0.850585 -0.057499 0.522685
vn -0.851848 0.018547 0.523461
vn -0.842753 0.146885 0.517872
vn -0.819025 0.275491 0.503291
vn -0.790976 0.371629 0.486055
vn -0.753321 0.467135 0.462916
vn -0.684534 0.595374 0.420646
vn -0.551612 0.76212 0.338966
vn -0.355071 0.90902 0.218192
vn -0.102115 0.992791 0.06275
vn 0.217204 0.966958 -0.133472
vn 0.480274 0.825976 -0.295129
vn 0.626878 0.677224 -0.385217
vn 0.719384 0.535787 -0.442062
vn 0.784512 0.390048 -0.482083
vn 0.822904 0.259081 -0.505674
vn 0.841914 0.153371 -0.517357
vn 0.850481 0.059584 -0.522621
vn 0.851584 -0.031021 -0.523299
vn 0.845943 -0.118975 -0.519832
vn 0.833995 -0.204468 -0.51249
vn 0.812311 -0.301636 -0.499165
vn 0.758511 -0.45542 -0.466105
vn 0.63549 -0.666075 -0.390509
vn 0.510765 -0.80038 -0.313865
vn 0.50274 -0.807349 -0.308934
vn 0.555895 -0.757821 -0.341598
vn 0.584299 -0.727789 -0.359052
vn 0.618219 -0.688102 -0.379896
vn 0.692484 -0.582571 -0.425532
vn 0.783714 -0.392252 -0.481592
vn 0.831894 -0.215936 -0.511199
vn 0.845172 -0.126295 -0.519359
vn 0.847573 -0.101742 -0.520834
vn 0.851994 0 -0.523551
vn -0.797667 -0.084739 0.597115
vn -0.797629 -0.0853 0.597086
vn -0.799172 -0.058577 0.598241
vn -0.800402 0.019026 0.599162
vn -0.791262 0.151855 0.592321
vn -0.767075 0.286137 0.574214
vn -0.738273 0.386685 0.552654
vn -0.699353 0.486656 0.523519
vn -0.628521 0.61935 0.470496
vn -0.494823 0.786094 0.370413
vn -0.304693 0.924737 0.228086
vn -0.070101 0.996159 0.052476
vn 0.216345 0.962791 -0.161951
vn 0.45095 0.826251 -0.337571
vn 0.584197 0.683716 -0.437316
vn 0.670524 0.546311 -0.501938
vn 0.733138 0.401641 -0.54881
vn 0.771113 0.268669 -0.577237
vn 0.790284 0.159609 -0.591588
vn 0.799002 0.06208 -0.598115
vn 0.80013 -0.032272 -0.598958
vn 0.794436 -0.123317 -0.594696
vn 0.782517 -0.211038 -0.585774
vn 0.761124 -0.309941 -0.56976
vn 0.708776 -0.464895 -0.530574
vn 0.592353 -0.672677 -0.443422
vn 0.478234 -0.801955 -0.357995
vn 0.472382 -0.807349 -0.353614
vn 0.522327 -0.757821 -0.391002
vn 0.549016 -0.727789 -0.41098
vn 0.580888 -0.688102 -0.434839
vn 0.650668 -0.582571 -0.487075
vn 0.736389 -0.392252 -0.551244
vn 0.78166 -0.215936 -0.585132
vn 0.794136 -0.126295 -0.594472
vn 0.796392 -0.101742 -0.596161
vn 0.800547 0 -0.59927
vn -0.73663 -0.085477 0.670872
vn -0.736568 -0.086442 0.670816
vn -0.738015 -0.059746 0.672134
vn -0.739195 0.019552 0.673208
vn -0.730119 0.157407 0.664943
vn -0.705719 0.298114 0.64272
vn -0.676438 0.40362 0.616054
vn -0.6366 0.508533 0.579772
vn -0.564489 0.645799 0.514098
vn -0.432136 0.8114 0.39356
vn -0.252074 0.940083 0.229572
vn -0.03962 0.998563 0.036083
vn 0.211453 0.958228 -0.192577
vn 0.416158 0.826538 -0.379009
vn 0.534741 0.690564 -0.487005
vn 0.61371 0.557641 -0.558925
vn 0.67286 0.414417 -0.612795
vn 0.709887 0.279424 -0.646516
vn 0.728994 0.166674 -0.663918
vn 0.737776 0.064917 -0.671916
vn 0.738916 -0.03369 -0.672955
vn 0.733236 -0.128196 -0.667781
vn 0.721497 -0.218346 -0.65709
vn 0.70069 -0.319078 -0.63814
vn 0.650546 -0.475148 -0.592473
vn 0.542333 -0.679646 -0.49392
vn 0.440032 -0.803598 -0.400751
vn 0.436263 -0.807349 -0.397318
vn 0.482389 -0.757821 -0.439327
vn 0.507037 -0.727789 -0.461775
vn 0.536472 -0.688102 -0.488582
vn 0.600917 -0.582571 -0.547275
vn 0.680084 -0.392252 -0.619374
vn 0.721893 -0.215936 -0.657451
vn 0.733416 -0.126295 -0.667945
vn 0.735499 -0.101742 -0.669843
vn 0.739336 0 -0.673337
vn -0.666581 -0.086033 0.740451
vn -0.666507 -0.08731 0.740368
vn -0.667831 -0.060644 0.741839
vn -0.668929 0.019961 0.743058
vn -0.660247 0.161795 0.733414
vn -0.636615 0.30764 0.707163
vn -0.60809 0.417082 0.675477
vn -0.56909 0.525849 0.632155
vn -0.498858 0.666385 0.554141
vn -0.372942 0.830237 0.414271
vn -0.207585 0.950651 0.230589
vn -0.018891 0.999601 0.020985
vn 0.199083 0.954705 -0.221145
vn 0.376393 0.826751 -0.418104
vn 0.480612 0.695696 -0.533872
vn 0.551445 0.56629 -0.612555
vn 0.605825 0.424381 -0.672961
vn 0.640723 0.287957 -0.711727
vn 0.659052 0.17233 -0.732087
vn 0.66755 0.067196 -0.741527
vn 0.668656 -0.034825 -0.742756
vn 0.663201 -0.132072 -0.736696
vn 0.652046 -0.224098 -0.724304
vn 0.632466 -0.326196 -0.702555
vn 0.58584 -0.483012 -0.650762
vn 0.48752 -0.684874 -0.541546
vn 0.397102 -0.804819 -0.441108
vn 0.394796 -0.807349 -0.438547
vn 0.436538 -0.757821 -0.484915
vn 0.458844 -0.727789 -0.509692
vn 0.485481 -0.688102 -0.539281
vn 0.5438 -0.582571 -0.604063
vn 0.615442 -0.392252 -0.683644
vn 0.653277 -0.215936 -0.725672
vn 0.663705 -0.126295 -0.737255
vn 0.66559 -0.101742 -0.73935
vn 0.669062 0 -0.743206
vn -0.589085 -0.086216 0.803458
vn -0.589014 -0.087597 0.803361
vn -0.590188 -0.060944 0.804962
vn -0.591168 0.020099 0.806298
vn -0.583351 0.163284 0.795638
vn -0.561988 0.310884 0.766499
vn -0.536151 0.421664 0.73126
vn -0.500771 0.531725 0.683006
vn -0.437182 0.673295 0.596276
vn -0.324107 0.836388 0.442052
vn -0.177386 0.953939 0.241939
vn -0.011781 0.999801 0.016068
vn 0.178159 0.953527 -0.242992
vn 0.332579 0.826821 -0.453607
vn 0.423774 0.697384 -0.577989
vn 0.48617 0.569165 -0.663091
vn 0.534467 0.427736 -0.728963
vn 0.565723 0.290859 -0.771595
vn 0.58224 0.174265 -0.794121
vn 0.589919 0.067977 -0.804596
vn 0.59092 -0.035214 -0.805961
vn 0.586003 -0.133392 -0.799254
vn 0.575983 -0.226046 -0.785587
vn 0.558454 -0.328591 -0.76168
vn 0.516881 -0.485634 -0.704978
vn 0.42989 -0.686594 -0.58633
vn 0.35062 -0.805219 -0.478214
vn 0.348903 -0.807349 -0.475872
vn 0.385793 -0.757821 -0.526186
vn 0.405505 -0.727789 -0.553072
vn 0.429046 -0.688102 -0.585179
vn 0.480586 -0.582571 -0.655476
vn 0.5439 -0.392252 -0.741829
vn 0.577337 -0.215936 -0.787435
vn 0.586552 -0.126295 -0.800004
vn 0.588219 -0.101742 -0.802276
vn 0.591287 0 -0.806461
vn -0.506411 -0.085924 0.858001
vn -0.506357 -0.08714 0.85791
vn -0.507361 -0.060467 0.85961
vn -0.50819 0.019881 0.861015
vn -0.501666 0.160924 0.849961
vn -0.48395 0.305746 0.819946
vn -0.462591 0.414406 0.783758
vn -0.433416 0.522412 0.734327
vn -0.38082 0.662325 0.645214
vn -0.286073 0.826583 0.484688
vn -0.160772 0.948659 0.272393
vn -0.016857 0.99945 0.02856
vn 0.15011 0.955398 -0.254327
vn 0.285979 0.82671 -0.484528
vn 0.365615 0.694696 -0.619454
vn 0.419527 0.564595 -0.710795
vn 0.460716 0.422413 -0.780581
vn 0.487019 0.286262 -0.825146
vn 0.500786 0.171203 -0.848471
vn 0.507157 0.066741 -0.859265
vn 0.507986 -0.034599 -0.86067
vn 0.50389 -0.131302 -0.85373
vn 0.495496 -0.222959 -0.839508
vn 0.480734 -0.324791 -0.814497
vn 0.445498 -0.481468 -0.754798
vn 0.370858 -0.683855 -0.628336
vn 0.301844 -0.804582 -0.511408
vn 0.299929 -0.807349 -0.508163
vn 0.331641 -0.757821 -0.561892
vn 0.348586 -0.727789 -0.590602
vn 0.368823 -0.688102 -0.624888
vn 0.413129 -0.582571 -0.699954
vn 0.467555 -0.392252 -0.792168
vn 0.496299 -0.215936 -0.840868
vn 0.504221 -0.126295 -0.85429
vn 0.505653 -0.101742 -0.856717
vn 0.508291 0 -0.861186
vn -0.421213 -0.085174 0.902954
vn -0.421184 -0.085971 0.902892
vn -0.422006 -0.059262 0.904654
vn -0.42267 0.019333 0.906077
vn -0.417634 0.155089 0.895282
vn -0.404182 0.293103 0.866445
vn -0.388092 0.396536 0.831952
vn -0.36626 0.499392 0.78515
vn -0.326646 0.634805 0.700232
vn -0.253068 0.80103 0.542501
vn -0.151091 0.933951 0.323893
vn -0.02854 0.997718 0.061182
vn 0.118196 0.96012 -0.253376
vn 0.23803 0.82642 -0.510265
vn 0.306892 0.687755 -0.657884
vn 0.352237 0.552964 -0.755089
vn 0.385753 0.409106 -0.826938
vn 0.406458 0.274928 -0.871324
vn 0.417045 0.163712 -0.89402
vn 0.42189 0.063726 -0.904405
vn 0.422517 -0.033095 -0.90575
vn 0.419371 -0.126155 -0.899006
vn 0.412835 -0.215299 -0.884994
vn 0.401188 -0.315281 -0.860027
vn 0.372941 -0.470909 -0.799474
vn 0.311219 -0.676786 -0.66716
vn 0.251992 -0.802926 -0.540194
vn 0.249453 -0.807349 -0.534753
vn 0.275828 -0.757821 -0.591292
vn 0.289922 -0.727789 -0.621505
vn 0.306752 -0.688102 -0.657585
vn 0.343602 -0.582571 -0.736579
vn 0.388869 -0.392252 -0.833618
vn 0.412775 -0.215936 -0.884866
vn 0.419364 -0.126295 -0.89899
vn 0.420555 -0.101742 -0.901544
vn 0.422749 0 -0.906247
vn -0.336138 -0.084095 0.938051
vn -0.336132 -0.084311 0.938034
vn -0.336773 -0.057577 0.939824
vn -0.337275 0.018582 0.941223
vn -0.333656 0.147243 0.931125
vn -0.324206 0.276254 0.904751
vn -0.313028 0.372709 0.873557
vn -0.298015 0.468537 0.831661
vn -0.270596 0.597106 0.755144
vn -0.217699 0.763884 0.607527
vn -0.139702 0.910215 0.389862
vn -0.039627 0.993076 0.110586
vn 0.086384 0.966656 -0.241068
vn 0.190146 0.825996 -0.530636
vn 0.248053 0.677703 -0.692234
vn 0.284663 0.536557 -0.794402
vn 0.310494 0.390887 -0.866488
vn 0.325753 0.25977 -0.909068
vn 0.333318 0.153817 -0.930182
vn 0.33673 0.059763 -0.939703
vn 0.33717 -0.03111 -0.94093
vn 0.334924 -0.119286 -0.934664
vn 0.330173 -0.204941 -0.921404
vn 0.321557 -0.302237 -0.897359
vn 0.3002 -0.456111 -0.83776
vn 0.251465 -0.666562 -0.701755
vn 0.202176 -0.800496 -0.564208
vn 0.199051 -0.807349 -0.555487
vn 0.220097 -0.757821 -0.614219
vn 0.231343 -0.727789 -0.645603
vn 0.244773 -0.688102 -0.683082
vn 0.274177 -0.582571 -0.765139
vn 0.310298 -0.392252 -0.865941
vn 0.329374 -0.215936 -0.919176
vn 0.334632 -0.126295 -0.933847
vn 0.335582 -0.101742 -0.9365
vn 0.337333 0 -0.941385
vn -0.253484 -0.082891 0.963782
vn -0.253493 -0.082485 0.963814
vn -0.253964 -0.055759 0.965605
vn -0.254319 0.017789 0.966957
vn -0.251885 0.13916 0.9577
vn -0.245674 0.259088 0.934087
vn -0.238418 0.348448 0.906499
vn -0.228788 0.43699 0.869883
vn -0.211122 0.557741 0.802716
vn -0.175832 0.722594 0.668536
vn -0.120496 0.880674 0.458143
vn -0.044173 0.984805 0.167952
vn 0.058134 0.973532 -0.221034
vn 0.143558 0.825509 -0.545826
vn 0.189653 0.666384 -0.721085
vn 0.21747 0.518679 -0.826849
vn 0.236131 0.371739 -0.897804
vn 0.246655 0.24426 -0.937816
vn 0.251715 0.143833 -0.957054
vn 0.253963 0.055783 -0.965604
vn 0.254252 -0.029108 -0.9667
vn 0.252751 -0.11227 -0.960995
vn 0.249517 -0.194204 -0.948697
vn 0.243545 -0.28849 -0.925991
vn 0.2284 -0.440111 -0.86841
vn 0.192187 -0.655065 -0.730721
vn 0.153389 -0.797712 -0.583204
vn 0.150091 -0.807349 -0.570666
vn 0.16596 -0.757821 -0.631003
vn 0.17444 -0.727789 -0.663245
vn 0.184567 -0.688102 -0.701748
vn 0.206738 -0.582571 -0.786048
vn 0.233974 -0.392252 -0.889603
vn 0.248358 -0.215936 -0.944293
vn 0.252323 -0.126295 -0.959366
vn 0.25304 -0.101742 -0.962091
vn 0.254359 0 -0.96711
vn -0.174992 -0.081781 0.981168
vn -0.175006 -0.080823 0.981244
vn -0.175323 -0.054137 0.983021
vn -0.175555 0.017097 0.984321
vn -0.174038 0.132264 0.975816
vn -0.170247 0.244605 0.95456
vn -0.165866 0.328012 0.929998
vn -0.160116 0.410362 0.897756
vn -0.149547 0.52398 0.838499
vn -0.127871 0.685284 0.716963
vn -0.09215 0.851205 0.51668
vn -0.039586 0.974253 0.221955
vn 0.035453 0.979402 -0.198781
vn 0.099214 0.825048 -0.556285
vn 0.132543 0.655856 -0.743159
vn 0.151793 0.502599 -0.851089
vn 0.164137 0.355108 -0.920303
vn 0.170826 0.23112 -0.957811
vn 0.173961 0.135479 -0.975389
vn 0.175338 0.052468 -0.983109
vn 0.175514 -0.027433 -0.984095
vn 0.174585 -0.106333 -0.978884
vn 0.17255 -0.18499 -0.967474
vn 0.168735 -0.27651 -0.946082
vn 0.158866 -0.425822 -0.890751
vn 0.134266 -0.644386 -0.752821
vn 0.106492 -0.795073 -0.597091
vn 0.103605 -0.807349 -0.580907
vn 0.11456 -0.757821 -0.642327
vn 0.120413 -0.727789 -0.675147
vn 0.127403 -0.688102 -0.714341
vn 0.142708 -0.582571 -0.800154
vn 0.161509 -0.392252 -0.905568
vn 0.171438 -0.215936 -0.961239
vn 0.174174 -0.126295 -0.976582
vn 0.174669 -0.101742 -0.979357
vn 0.17558 0 -0.984465
f 1/1/1 38/38/38 39/39/39
f 1/1/1 39/39/39 2/2/2
f 2/2/2 39/39/39 40/40/40
f 2/2/2 40/40/40 3/3/3
f 3/3/3 40/40/40 41/41/41
f 3/3/3 41/41/41 4/4/4
f 4/4/4 41/41/41 42/42/42
f 4/4/4 42/42/42 5/5/5
f 5/5/5 42/42/42 43/43/43
f 5/5/5 43/43/43 6/6/6
f 6/6/6 43/43/43 44/44/44
f 6/6/6 44/44/44 7/7/7
f 7/7/7 44/44/44 45/45/45
f 7/7/7 45/45/45 8/8/8
f 8/8/8 45/45/45 46/46/46
f 8/8/8 46/46/46 9/9/9
f 9/9/9 46/46/46 47/47/47
f 9/9/9 47/47/47 10/10/10
f 10/10/10 47/47/47 48/48/48
f 10/10/10 48/48/48 11/11/11
f 11/11/11 48/48/48 49/49/49
f 11/11/11 49/49/49 12/12/12
f 12/12/12 49/49/49 50/50/50
f 12/12/12 50/50/50 13/13/13
f 13/13/13 50/50/50 51/51/51
f 13/13/13 51/51/51 14/14/14
f 14/14/14 51/51/51 52/52/52
f 14/14/14 52/52/52 15/15/15
f 15/15/15 52/52/52 53/53/53
f 15/15/15 53/53/53 16/16/16
f 16/16/16 53/53/53 54/54/54
f 16/16/16 54/54/54 17/17/17
f 17/17/17 54/54/54 55/55/55
f 17/17/17 55/55/55 18/18/18
f 18/18/18 55/55/55 56/56/56
f 18/18/18 56/56/56 19/19/19
f 19/19/19 56/56/56 57/57/57
f 19/19/19 57/57/57 20/20/20
f 20/20/20 57/57/57 58/58/58
f 20/20/20 58/58/58 21/21/21
f 21/21/21 58/58/58 59/59/59
f 21/21/21 59/59/59 22/22/22
f 22/22/22 59/59/59 60/60/60
f 22/22/22 60/60/60 23/23/23
f 23/23/23 60/60/60 61/61/61
f 23/23/23 61/61/61 24/24/24
f 24/24/24 61/61/61 62/62/62
f 24/24/24 62/62/62 25/25/25
f 25/25/25 62/62/62 63/63/63
f 25/25/25 63/63/63 26/26/26
f 26/26/26 63/63/63 64/64/64
f 26/26/26 64/64/64 27/27/27
f 27/27/27 64/64/64 65/65/65
f 27/27/27 65/65/65 28/28/28
f 28/28/28 65/65/65 66/66/66
f 28/28/28 66/66/66 29/29/29
f 29/29/29 66/66/66 67/67/67
f 29/29/29 67/67/67 30/30/30
f 30/30/30 67/67/67 68/68/68
f 30/30/30 68/68/68 31/31/31
f 31/31/31 68/68/68 69/69/69
f 31/31/31 69/69/69 32/32/32
f 32/32/32 69/69/69 70/70/70
f 32/32/32 70/70/70 33/33/33
f 33/33/33 70/70/70 71/71/71
f 33/33/33 71/71/71 34/34/34
f 34/34/34 71/71/71 72/72/72
f 34/34/34 72/72/72 35/35/35
f 35/35/35 72/72/72 73/73/73
f 35/35/35 73/73/73 36/36/36
f 36/36/36 73/73/73 74/74/74
f 36/36/36 74/74/74 37/37/37
f 38/38/38 75/75/75 76/76/76
f 38/38/38 76/76/76 39/39/39
f 39/39/39 76/76/76 77/77/77
f 39/39/39 77/77/77 40/40/40
f 40/40/40 77/77/77 78/78/78
f 40/40/40 78/78/78 41/41/41
f 41/41/41 78/78/78 79/79/79
f 41/41/41 79/79/79 42/42/42
f 42/42/42 79/79/79 80/80/80
f 42/42/42 80/80/80 43/43/43
f 43/43/43 80/80/80 81/81/81
f 43/43/43 81/81/81 44/44/44
f 44/44/44 81/81/81 82/82/82
f 44/44/44 82/82/82 45/45/45
f 45/45/45 82/82/82 83/83/83
f 45/45/45 83/83/83 46/46/46
f 46/46/46 83/83/83 84/84/84
f 46/46/46 84/84/84 47/47/47
f 47/47/47 84/84/84 85/85/85
f 47/47/47 85/85/85 48/48/48
f 48/48/48 85/85/85 86/86/86
f 48/48/48 86/86/86 49/49/49
f 49/49/49 86/86/86 87/87/87
f 49/49/49 87/87/87 50/50/50
f 50/50/50 87/87/87 88/88/88
f 50/50/50 88/88/88 51/51/51
f 51/51/51 88/88/88 89/89/89
f 51/51/51 89/89/89 52/52/52
f 52/52/52 89/89/89 90/90/90
f 52/52/52 90/90/90 53/53/53
f 53/53/53 90/90/90 91/91/91
f 53/53/53 91/91/91 54/54/54
f 54/54/54 91/91/91 92/92/92
f 54/54/54 92/92/92 55/55/55
f 55/55/55 92/92/92 93/93/93
f 55/55/55 93/93/93 56/56/56
f 56/56/56 93/93/93 94/94/94
f 56/56/56 94/94/94 57/57/57
f 57/57/57 94/94/94 95/95/95
f 57/57/57 95/95/95 58/58/58
f 58/58/58 95/95/95 96/96/96
f 58/58/58 96/96/96 59/59/59
f 59/59/59 96/96/96 97/97/97
f 59/59/59 97/97/97 60/60/60
f 60/60/60 97/97/97 98/98/98
f 60/60/60 98/98/98 61/61/61
f 61/61/61 98/98/98 99/99/99
f 61/61/61 99/99/99 62/62/62
f 62/62/62 99/99/99 100/100/100
f 62/62/62 100/100/100 63/63/63
f 63/63/63 100/100/100 101/101/101
f 63/63/63 101/101/101 64/64/64
f 64/64/64 101/101/101 102/102/102
f 64/64/64 102/102/102 65/65/65
f 65/65/65 102/102/102 103/103/103
f 65/65/65 103/103/103 66/66/66
f 66/66/66 103/103/103 104/104/104
f 66/66/66 104/104/104 67/67/67
f 67/67/67 104/104/104 105/105/105
f 67/67/67 105/105/105 68/68/68
f 68/68/68 105/105/105 106/106/106
f 68/68/68 106/106/106 69/69/69
f 69/69/69 106/106/106 107/107/107
f 69/69/69 107/107/107 70/70/70
f 70/70/70 107/107/107 108/108/108
f 70/70/70 108/108/108 71/71/71
f 71/71/71 108/108/108 109/109/109
f 71/71/71 109/109/109 72/72/72
f 72/72/72 109/109/109 110/110/110
f 72/72/72 110/110/110 73/73/73
f 73/73/73 110/110/110 111/111/111
f 73/73/73 111/111/111 74/74/74
f 75/75/75 112/112/112 113/113/113
f 75/75/75 113/113/113 76/76/76
f 76/76/76 113/113/113 114/114/114
f 76/76/76 114/114/114 77/77/77
f 77/77/77 114/114/114 115/115/115
f 77/77/77 115/115/115 78/78/78
f 78/78/78 115/115/115 116/116/116
f 78/78/78 116/116/116 79/79/79
f 79/79/79 116/116/116 117/117/117
f 79/79/79 117/117/117 80/80/80
f 80/80/80 117/117/117 118/118/118
f 80/80/80 118/118/118 81/81/81
f 81/81/81 118/118/118 119/119/119
f 81/81/81 119/119/119 82/82/82
f 82/82/82 119/119/119 120/120/120
f 82/82/82 120/120/120 83/83/83
f 83/83/83 120/120/120 121/121/121
f 83/83/83 121/121/121 84/84/84
f 84/84/84 121/121/121 122/122/122
f 84/84/84 122/122/122 85/85/85
f 85/85/85 122/122/122 123/123/123
f 85/85/85 123/123/123 86/86/86
f 86/86/86 123/123/123 124/124/124
f 86/86/86 124/124/124 87/87/87
f 87/87/87 124/124/124 125/125/125
f 87/87/87 125/125/125 88/88/88
f 88/88/88 125/125/125 126/126/126
f 88/88/88 126/126/126 89/89/89
f 89/89/89 126/126/126 127/127/127
f 89/89/89 127/127/127 90/90/90
f 90/90/90 127/127/127 128/128/128
f 90/90/90 128/128/128 91/91/91
f 91/91/91 128/128/128 129/129/129
f 91/91/91 129/129/129 92/92/92
f 92/92/92 129/129/129 130/130/130
f 92/92/92 130/130/130 93/93/93
f 93/93/93 130/130/130 131/131/131
f 93/93/93 131/131/131 94/94/94
f 94/94/94 131/131/131 132/132/132
f 94/94/94 132/132/132 95/95/95
f 95/95/95 132/132/132 133/133/133
f 95/95/95 133/133/133 96/96/96
f 96/96/96 133/133/133 134/134/134
f 96/96/96 134/134/134 97/97/97
f 97/97/97 134/134/134 135/135/135
f 97/97/97 135/135/135 98/98/98
f 98/98/98 135/135/135 136/136/136
f 98/98/98 136/136/136 99/99/99
f 99/99/99 136/136/136 137/137/137
f 99/99/99 137/137/137 100/100/100
f 100/100/100 137/137/137 138/138/138
f 100/100/100 138/138/138 101/101/101
f 101/101/101 138/138/138 139/139/139
f 101/101/101 139/139/139 102/102/102
f 102/102/102 139/139/139 140/140/140
f 102/102/102 140/140/140 103/103/103
f 103/103/103 140/140/140 141/141/141
f 103/103/103 141/141/141 104/104/104
f 104/104/104 141/141/141 142/142/142
f 104/104/104 142/142/142 105/105/105
f 105/105/105 142/142/142 143/143/143
f 105/105/105 143/143/143 106/106/106
f 106/106/106 143/143/143 144/144/144
f 106/106/106 144/144/144 107/107/107
f 107/107/107 144/144/144 145/145/145
f 107/107/107 145/145/145 108/108/108
f 108/108/108 145/145/145 146/146/146
f 108/108/108 146/146/146 109/109/109
f 109/109/109 146/146/146 147/147/147
f 109/109/109 147/147/147 110/110/110
f 110/110/110 147/147/147 148/148/148
f 110/110/110 148/148/148 111/111/111
f 112/112/112 149/149/149 150/150/150
f 112/112/112 150/150/150 113/113/113
f 113/113/113 150/150/150 151/151/151
f 113/113/113 151/151/151 114/114/114
f 114/114/114 151/151/151 152/152/152
f 114/114/114 152/152/152 115/115/115
f 115/115/115 152/152/152 153/153/153
f 115/115/115 153/153/153 116/116/116
f 116/116/116 153/153/153 154/154/154
f 116/116/116 154/154/154 117/117/117
f 117/117/117 154/154/154 155/155/155
f 117/117/117 155/155/155 118/118/118
f 118/118/118 155/155/155 156/156/156
f 118/118/118 156/156/156 119/119/119
f 119/119/119 156/156/156 157/157/157
f 119/119/119 157/157/157 120/120/120
f 120/120/120 157/157/157 158/158/158
f 120/120/120 158/158/158 121/121/121
f 121/121/121 158/158/158 159/159/159
f 121/121/121 159/159/159 122/122/122
f 122/122/122 159/159/159 160/160/160
f 122/122/122 160/160/160 123/123/123
f 123/123/123 160/160/160 161/161/161
f 123/123/123 161/161/161 124/124/124
f 124/124/124 161/161/161 162/162/162
f 124/124/124 162/162/162 125/125/125
f 125/125/125 162/162/162 163/163/163
f 125/125/125 163/163/163 126/126/126
f 126/126/126 163/163/163 164/164/164
f 126/126/126 164/164/164 127/127/127
f 127/127/127 164/164/164 165/165/165
f 127/127/127 165/165/165 128/128/128
f 128/128/128 165/165/165 166/166/166
f 128/128/128 166/166/166 129/129/129
f 129/129/129 166/166/166 167/167/167
f 129/129/129 167/167/167 130/130/130
f 130/130/130 167/167/167 168/168/168
f 130/130/130 168/168/168 131/131/131
f 131/131/131 168/168/168 169/169/169
f 131/131/131 169/169/169 132/132/132
f 132/132/132 169/169/169 170/170/170
f 132/132/132 170/170/170 133/133/133
f 133/133/133 170/170/170 171/171/171
f 133/133/133 171/171/171 134/134/134
f 134/134/134 171/171/171 172/172/172
f 134/134/134 172/172/172 135/135/135
f 135/135/135 172/172/172 173/173/173
f 135/135/135 173/173/173 136/136/136
f 136/136/136 173/173/173 174/174/174
f 136/136/136 174/174/174 137/137/137
f 137/137/137 174/174/174 175/175/175
f 137/137/137 175/175/175 138/138/138
f 138/138/138 175/175/175 176/176/176
f 138/138/138 176/176/176 139/139/139
f 139/139/139 176/176/176 177/177/177
f 139/139/139 177/177/177 140/140/140
f 140/140/140 177/177/177 178/178/178
f 140/140/140 178/178/178 141/141/141
f 141/141/141 178/178/178 179/179/179
f 141/141/141 179/179/179 142/142/142
f 142/142/142 179/179/179 180/180/180
f 142/142/142 180/180/180 143/143/143
f 143/143/143 180/180/180 181/181/181
f 143/143/143 181/181/181 144/144/144
f 144/144/144 181/181/181 182/182/182
f 144/144/144 182/182/182 145/145/145
f 145/145/145 182/182/182 183/183/183
f 145/145/145 183/183/183 146/146/146
f 146/146/146 183/183/183 184/184/184
f 146/146/146 184/184/184 147/147/147
f 147/147/147 184/184/184 185/185/185
f 147/147/147 185/185/185 148/148/148
f 149/149/149 186/186/186 187/187/187
f 149/149/149 187/187/187 150/150/150
f 150/150/150 187/187/187 188/188/188
f 150/150/150 188/188/188 151/151/151
f 151/151/151 188/188/188 189/189/189
f 151/151/151 189/189/189 152/152/152
f 152/152/152 189/189/189 190/190/190
f 152/152/152 190/190/190 153/153/153
f 153/153/153 190/190/190 191/191/191
f 153/153/153 191/191/191 154/154/154
f 154/154/154 191/191/191 192/192/192
f 154/154/154 192/192/192 155/155/155
f 155/155/155 192/192/192 193/193/193
f 155/155/155 193/193/193 156/156/156
f 156/156/156 193/193/193 194/194/194
f 156/156/156 194/194/194 157/157/157
f 157/157/157 194/194/194 195/195/195
f 157/157/157 195/195/195 158/158/158
f 158/158/158 195/195/195 196/196/196
f 158/158/158 196/196/196 159/159/159
f 159/159/159 196/196/196 197/197/197
f 159/159/159 197/197/197 160/160/160
f 160/160/160 197/197/197 198/198/198
f 160/160/160 198/198/198 161/161/161
f 161/161/161 198/198/198 199/199/199
f 161/161/161 199/199/199 162/162/162
f 162/162/162 199/199/199 200/200/200
f 162/162/162 200/200/200 163/163/163
f 163/163/163 200/200/200 201/201/201
f 163/163/163 201/201/201 164/164/164
f 164/164/164 201/201/201 202/202/202
f 164/164/164 202/202/202 165/165/165
f 165/165/165 202/202/202 203/203/203
f 165/165/165 203/203/203 166/166/166
f 166/166/166 203/203/203 204/204/204
f 166/166/166 204/204/204 167/167/167
f 167/167/167 204/204/204 205/205/205
f 167/167/167 205/205/205 168/168/168
f 168/168/168 205/205/205 206/206/206
f 168/168/168 206/206/206 169/169/169
f 169/169/169 206/206/206 207/207/207
f 169/169/169 207/207/207 170/170/170
f 170/170/170 207/207/207 208/208/208
f 170/170/170 208/208/208 171/171/171
f 171/171/171 208/208/208 209/209/209
f 171/171/171 209/209/209 172/172/172
f 172/172/172 209/209/209 210/210/210
f 172/172/172 210/210/210 173/173/173
f 173/173/173 210/210/210 211/211/211
f 173/173/173 211/211/211 174/174/174
f 174/174/174 211/211/211 212/212/212
f 174/174/174 212/212/212 175/175/175
f 175/175/175 212/212/212 213/213/213
f 175/175/175 213/213/213 176/176/176
f 176/176/176 213/213/213 214/214/214
f 176/176/176 214/214/214 177/177/177
f 177/177/177 214/214/214 215/215/215
f 177/177/177 215/215/215 178/178/178
f 178/178/178 215/215/215 216/216/216
f 178/178/178 216/216/216 179/179/179
f 179/179/179 216/216/216 217/217/217
f 179/179/179 217/217/217 180/180/180
f 180/180/180 217/217/217 218/218/218
f 180/180/180 218/218/218 181/181/181
f 181/181/181 218/218/218 219/219/219
f 181/181/181 219/219/219 182/182/182
f 182/182/182 219/219/219 220/220/220
f 182/182/182 220/220/220 183/183/183
f 183/183/183 220/220/220 221/221/221
f 183/183/183 221/221/221 184/184/184
f 184/184/184 221/221/221 222/222/222
f 184/184/184 222/222/222 185/185/185
f 186/186/186 223/223/223 224/224/224
f 186/186/186 224/224/224 187/187/187
f 187/187/187 224/224/224 225/225/225
f 187/187/187 225/225/225 188/188/188
f 188/188/188 225/225/225 226/226/226
f 188/188/188 226/226/226 189/189/189
f 189/189/189 226/226/226 227/227/227
f 189/189/189 227/227/227 190/190/190
f 190/190/190 227/227/227 228/228/228
f 190/190/190 228/228/228 191/191/191
f 191/191/191 228/228/228 229/229/229
f 191/191/191 229/229/229 192/192/192
f 192/192/192 229/229/229 230/230/230
f 192/192/192 230/230/230 193/193/193
f 193/193/193 230/230/230 231/231/231
f 193/193/193 231/231/231 194/194/194
f 194/194/194 231/231/231 232/232/232
f 194/194/194 232/232/232 195/195/195
f 195/195/195 232/232/232 233/233/233
f 195/195/195 233/233/233 196/196/196
f 196/196/196 233/233/233 234/234/234
f 196/196/196 234/234/234 197/197/197
f 197/197/197 234/234/234 235/235/235
f 197/197/197 235/235/235 198/198/198
f 198/198/198 235/235/235 236/236/236
f 198/198/198 236/236/236 199/199/199
f 199/199/199 236/236/236 237/237/237
f 199/199/199 237/237/237 200/200/200
f 200/200/200 237/237/237 238/238/238
f 200/200/200 238/238/238 201/201/201
f 201/201/201 238/238/238 239/239/239
f 201/201/201 239/239/239 202/202/202
f 202/202/202 239/239/239 240/240/240
f 202/202/202 240/240/240 203/203/203
f 203/203/203 240/240/240 241/241/241
f 203/203/203 241/241/241 204/204/204
f 204/204/204 241/241/241 242/242/242
f 204/204/204 242/242/242 205/205/205
f 205/205/205 242/242/242 243/243/243
f 205/205/205 243/243/243 206/206/206
f 206/206/206 243/243/243 244/244/244
f 206/206/206 244/244/244 207/207/207
f 207/207/207 244/244/244 245/245/245
f 207/207/207 245/245/245 208/208/208
f 208/208/208 245/245/245 246/246/246
f 208/208/208 246/246/246 209/209/209
f 209/209/209 246/246/246 247/247/247
f 209/209/209 247/247/247 210/210/210
f 210/210/210 247/247/247 248/248/248
f 210/210/210 248/248/248 211/211/211
f 211/211/211 248/248/248 249/249/249
f 211/211/211 249/249/249 212/212/212
f 212/212/212 249/249/249 250/250/250
f 212/212/212 250/250/250 213/213/213
f 213/213/213 250/250/250 251/251/251
f 213/213/213 251/251/251 214/214/214
f 214/214/214 251/251/251 252/252/252
f 214/214/214 252/252/252 215/215/215
f 215/215/215 252/252/252 253/253/253
f 215/215/215 253/253/253 216/216/216
f 216/216/216 253/253/253 254/254/254
f 216/216/216 254/254/254 217/217/217
f 217/217/217 254/254/254 255/255/255
f 217/217/217 255/255/255 218/218/218
f 218/218/218 255/255/255 256/256/256
f 218/218/218 256/256/256 219/219/219
f 219/219/219 256/256/256 257/257/257
f 219/219/219 257/257/257 220/220/220
f 220/220/220 257/257/257 258/258/258
f 220/220/220 258/258/258 221/221/221
f 221/221/221 258/258/258 259/259/259
f 221/221/221 259/259/259 222/222/222
f 223/223/223 260/260/260 261/261/261
f 223/223/223 261/261/261 224/224/224
f 224/224/224 261/261/261 262/262/262
f 224/224/224 262/262/262 225/225/225
f 225/225/225 262/262/262 263/263/263
f 225/225/225 263/263/263 226/226/226
f 226/226/226 263/263/263 264/264/264
f 226/226/226 264/264/264 227/227/227
f 227/227/227 264/264/264 265/265/265
f 227/227/227 265/265/265 228/228/228
f 228/228/228 265/265/265 266/266/266
f 228/228/228 266/266/266 229/229/229
f 229/229/229 266/266/266 267/267/267
f 229/229/229 267/267/267 230/230/230
f 230/230/230 267/267/267 268/268/268
f 230/230/230 268/268/268 231/231/231
f 231/231/231 268/268/268 269/269/269
f 231/231/231 269/269/269 232/232/232
f 232/232/232 269/269/269 270/270/270
f 232/232/232 270/270/270 233/233/233
f 233/233/233 270/270/270 271/271/271
f 233/233/233 271/271/271 234/234/234
f 234/234/234 271/271/271 272/272/272
f 234/234/234 272/272/272 235/235/235
f 235/235/235 272/272/272 273/273/273
f 235/235/235 273/273/273 236/236/236
f 236/236/236 273/273/273 274/274/274
f 236/236/236 274/274/274 237/237/237
f 237/237/237 274/274/274 275/275/275
f 237/237/237 275/275/275 238/238/238
f 238/238/238 275/275/275 276/276/276
f 238/238/238 276/276/276 239/239/239
f 239/239/239 276/276/276 277/277/277
f 239/239/239 277/277/277 240/240/240
f 240/240/240 277/277/277 278/278/278
f 240/240/240 278/278/278 241/241/241
f 241/241/241 278/278/278 279/279/279
f 241/241/241 279/279/279 242/242/242
f 242/242/242 279/279/279 280/280/280
f 242/242/242 280/280/280 243/243/243
f 243/243/243 280/280/280 281/281/281
f 243/243/243 281/281/281 244/244/244
f 244/244/244 281/281/281 282/282/282
f 244/244/244 282/282/282 245/245/245
f 245/245/245 282/282/282 283/283/283
f 245/245/245 283/283/283 246/246/246
f 246/246/246 283/283/283 284/284/284
f 246/246/246 284/284/284 247/247/247
f 247/247/247 284/284/284 285/285/285
f 247/247/247 285/285/285 248/248/248
f 248/248/248 285/285/285 286/286/286
f 248/248/248 286/286/286 249/249/249
f 249/249/249 286/286/286 287/287/287
f 249/249/249 287/287/287 250/250/250
f 250/250/250 287/287/287 288/288/288
f 250/250/250 288/288/288 251/251/251
f 251/251/251 288/288/288 289/289/289
f 251/251/251 289/289/289 252/252/252
f 252/252/252 289/289/289 290/290/290
f 252/252/252 290/290/290 253/253/253
f 253/253/253 290/290/290 291/291/291
f 253/253/253 291/291/291 254/254/254
f 254/254/254 291/291/291 292/292/292
f 254/254/254 292/292/292 255/255/255
f 255/255/255 292/292/292 293/293/293
f 255/255/255 293/293/293 256/256/256
f 256/256/256 293/293/293 294/294/294
f 256/256/256 294/294/294 257/257/257
f 257/257/257 294/294/294 295/295/295
f 257/257/257 295/295/295 258/258/258
f 258/258/258 295/295/295 296/296/296
f 258/258/258 296/296/296 259/259/259
f 260/260/260 297/297/297 298/298/298
f 260/260/260 298/298/298 261/261/261
f 261/261/261 298/298/298 299/299/299
f 261/261/261 299/299/299 262/262/262
f 262/262/262 299/299/299 300/300/300
f 262/262/262 300/300/300 263/263/263
f 263/263/263 300/300/300 301/301/301
f 263/263/263 301/301/301 264/264/264
f 264/264/264 301/301/301 302/302/302
f 264/264/264 302/302/302 265/265/265
f 265/265/265 302/302/302 303/303/303
f 265/265/265 303/303/303 266/266/266
f 266/266/266 303/303/303 304/304/304
f 266/266/266 304/304/304 267/267/267
f 267/267/267 304/304/304 305/305/305
f 267/267/267 305/305/305 268/268/268
f 268/268/268 305/305/305 306/306/306
f 268/268/268 306/306/306 269/269/269
f 269/269/269 306/306/306 307/307/307
f 269/269/269 307/307/307 270/270/270
f 270/270/270 307/307/307 308/308/308
f 270/270/270 308/308/308 271/271/271
f 271/271/271 308/308/308 309/309/309
f 271/271/271 309/309/309 272/272/272
f 272/272/272 309/309/309 310/310/310
f 272/272/272 310/310/310 273/273/273
f 273/273/273 310/310/310 311/311/311
f 273/273/273 311/311/311 274/274/274
f 274/274/274 311/311/311 312/312/312
f 274/274/274 312/312/312 275/275/275
f 275/275/275 312/312/312 313/313/313
f 275/275/275 313/313/313 276/276/276
f 276/276/276 313/313/313 314/314/314
f 276/276/276 314/314/314 277/277/277
f 277/277/277 314/314/314 315/315/315
f 277/277/277 315/315/315 278/278/278
f 278/278/278 315/315/315 316/316/316
f 278/278/278 316/316/316 279/279/279
f 279/279/279 316/316/316 317/317/317
f 279/279/279 317/317/317 280/280/280
f 280/280/280 317/317/317 318/318/318
f 280/280/280 318/318/318 281/281/281
f 281/281/281 318/318/318 319/319/319
f 281/281/281 319/319/319 282/282/282
f 282/282/282 319/319/319 320/320/320
f 282/282/282 320/320/320 283/283/283
f 283/283/283 320/320/320 321/321/321
f 283/283/283 321/321/321 284/284/284
f 284/284/284 321/321/321 322/322/322
f 284/284/284 322/322/322 285/285/285
f 285/285/285 322/322/322 323/323/323
f 285/285/285 323/323/323 286/286/286
f 286/286/286 323/323/323 324/324/324
f 286/286/286 324/324/324 287/287/287
f 287/287/287 324/324/324 325/325/325
f 287/287/287 325/325/325 288/288/288
f 288/288/288 325/325/325 326/326/326
f 288/288/288 326/326/326 289/289/289
f 289/289/289 326/326/326 327/327/327
f 289/289/289 327/327/327 290/290/290
f 290/290/290 327/327/327 328/328/328
f 290/290/290 328/328/328 291/291/291
f 291/291/291 328/328/328 329/329/329
f 291/291/291 329/329/329 292/292/292
f 292/292/292 329/329/329 330/330/330
f 292/292/292 330/330/330 293/293/293
f 293/293/293 330/330/330 331/331/331
f 293/293/293 331/331/331 294/294/294
f 294/294/294 331/331/331 332/332/332
f 294/294/294 332/332/332 295/295/295
f 295/295/295 332/332/332 333/333/333
f 295/295/295 333/333/333 296/296/296
f 297/297/297 334/334/334 335/335/335
f 297/297/297 335/335/335 298/298/298
f 298/298/298 335/335/335 336/336/336
f 298/298/298 336/336/336 299/299/299
f 299/299/299 336/336/336 337/337/337
f 299/299/299 337/337/337 300/300/300
f 300/300/300 337/337/337 338/338/338
f 300/300/300 338/338/338 301/301/301
f 301/301/301 338/338/338 339/339/339
f 301/301/301 339/339/339 302/302/302
f 302/302/302 339/339/339 340/340/340
f 302/302/302 340/340/340 303/303/303
f 303/303/303 340/340/340 341/341/341
f 303/303/303 341/341/341 304/304/304
f 304/304/304 341/341/341 342/342/342
f 304/304/304 342/342/342 305/305/305
f 305/305/305 342/342/342 343/343/343
f 305/305/305 343/343/343 306/306/306
f 306/306/306 343/343/343 344/344/344
f 306/306/306 344/344/344 307/307/307
f 307/307/307 344/344/344 345/345/345
f 307/307/307 345/345/345 308/308/308
f 308/308/308 345/345/345 346/346/346
f 308/308/308 346/346/346 309/309/309
f 309/309/309 346/346/346 347/347/347
f 309/309/309 347/347/347 310/310/310
f 310/310/310 347/347/347 348/348/348
f 310/310/310 348/348/348 311/311/311
f 311/311/311 348/348/348 349/349/349
f 311/311/311 349/349/349 312/312/312
f 312/312/312 349/349/349 350/350/350
f 312/312/312 350/350/350 313/313/313
f 313/313/313 350/350/350 351/351/351
f 313/313/313 351/351/351 314/314/314
f 314/314/314 351/351/351 352/352/352
f 314/314/314 352/352/352 315/315/315
f 315/315/315 352/352/352 353/353/353
f 315/315/315 353/353/353 316/316/316
f 316/316/316 353/353/353 354/354/354
f 316/316/316 354/354/354 317/317/317
f 317/317/317 354/354/354 355/355/355
f 317/317/317 355/355/355 318/318/318
f 318/318/318 355/355/355 356/356/356
f 318/318/318 356/356/356 319/319/319
f 319/319/319 356/356/356 357/357/357
f 319/319/319 357/357/357 320/320/320
f 320/320/320 357/357/357 358/358/358
f 320/320/320 358/358/358 321/321/321
f 321/321/321 358/358/358 359/359/359
f 321/321/321 359/359/359 322/322/322
f 322/322/322 359/359/359 360/360/360
f 322/322/322 360/360/360 323/323/323
f 323/323/323 360/360/360 361/361/361
f 323/323/323 361/361/361 324/324/324
f 324/324/324 361/361/361 362/362/362
f 324/324/324 362/362/362 325/325/325
f 325/325/325 362/362/362 363/363/363
f 325/325/325 363/363/363 326/326/326
f 326/326/326 363/363/363 364/364/364
f 326/326/326 364/364/364 327/327/327
f 327/327/327 364/364/364 365/365/365
f 327/327/327 365/365/365 328/328/328
f 328/328/328 365/365/365 366/366/366
f 328/328/328 366/366/366 329/329/329
f 329/329/329 366/366/366 367/367/367
f 329/329/329 367/367/367 330/330/330
f 330/330/330 367/367/367 368/368/368
f 330/330/330 368/368/368 331/331/331
f 331/331/331 368/368/368 369/369/369
f 331/331/331 369/369/369 332/332/332
f 332/332/332 369/369/369 370/370/370
f 332/332/332 370/370/370 333/333/333
f 334/334/334 371/371/371 372/372/372
f 334/334/334 372/372/372 335/335/335
f 335/335/335 372/372/372 373/373/373
f 335/335/335 373/373/373 336/336/336
f 336/336/336 373/373/373 374/374/374
f 336/336/336 374/374/374 337/337/337
f 337/337/337 374/374/374 375/375/375
f 337/337/337 375/375/375 338/338/338
f 338/338/338 375/375/375 376/376/376
f 338/338/338 376/376/376 339/339/339
f 339/339/339 376/376/376 377/377/377
f 339/339/339 377/377/377 340/340/340
f 340/340/340 377/377/377 378/378/378
f 340/340/340 378/378/378 341/341/341
f 341/341/341 378/378/378 379/379/379
f 341/341/341 379/379/379 342/342/342
f 342/342/342 379/379/379 380/380/380
f 342/342/342 380/380/380 343/343/343
f 343/343/343 380/380/380 381/381/381
f 343/343/343 381/381/381 344/344/344
f 344/344/344 381/381/381 382/382/382
f 344/344/344 382/382/382 345/345/345
f 345/345/345 382/382/382 383/383/383
f 345/345/345 383/383/383 346/346/346
f 346/346/346 383/383/383 384/384/384
f 346/346/346 384/384/384 347/347/347
f 347/347/347 384/384/384 385/385/385
f 347/347/347 385/385/385 348/348/348
f 348/348/348 385/385/385 386/386/386
f 348/348/348 386/386/386 349/349/349
f 349/349/349 386/386/386 387/387/387
f 349/349/349 387/387/387 350/350/350
f 350/350/350 387/387/387 388/388/388
f 350/350/350 388/388/388 351/351/351
f 351/351/351 388/388/388 389/389/389
f 351/351/351 389/389/389 352/352/352
f 352/352/352 389/389/389 390/390/390
f 352/352/352 390/390/390 353/353/353
f 353/353/353 390/390/390 391/391/391
f 353/353/353 391/391/391 354/354/354
f 354/354/354 391/391/391 392/392/392
f 354/354/354 392/392/392 355/355/355
f 355/355/355 392/392/392 393/393/393
f 355/355/355 393/393/393 356/356/356
f 356/356/356 393/393/393 394/394/394
f 356/356/356 394/394/394 357/357/357
f 357/357/357 394/394/394 395/395/395
f 357/357/357 395/395/395 358/358/358
f 358/358/358 395/395/395 396/396/396
f 358/358/358 396/396/396 359/359/359
f 359/359/359 396/396/396 397/397/397
f 359/359/359 397/397/397 360/360/360
f 360/360/360 397/397/397 398/398/398
f 360/360/360 398/398/398 361/361/361
f 361/361/361 398/398/398 399/399/399
f 361/361/361 399/399/399 362/362/362
f 362/362/362 399/399/399 400/400/400
f 362/362/362 400/400/400 363/363/363
f 363/363/363 400/400/400 401/401/401
f 363/363/363 401/401/401 364/364/364
f 364/364/364 401/401/401 402/402/402
f 364/364/364 402/402/402 365/365/365
f 365/365/365 402/402/402 403/403/403
f 365/365/365 403/403/403 366/366/366
f 366/366/366 403/403/403 404/404/404
f 366/366/366 404/404/404 367/367/367
f 367/367/367 404/404/404 405/405/405
f 367/367/367 405/405/405 368/368/368
f 368/368/368 405/405/405 406/406/406
f 368/368/368 406/406/406 369/369/369
f 369/369/369 406/406/406 407/407/407
f 369/369/369 407/407/407 370/370/370
f 371/371/371 408/408/408 409/409/409
f 371/371/371 409/409/409 372/372/372
f 372/372/372 409/409/409 410/410/410
f 372/372/372 410/410/410 373/373/373
f 373/373/373 410/410/410 411/411/411
f 373/373/373 411/411/411 374/374/374
f 374/374/374 411/411/411 412/412/412
f 374/374/374 412/412/412 375/375/375
f 375/375/375 412/412/412 413/413/413
f 375/375/375 413/413/413 376/376/376
f 376/376/376 413/413/413 414/414/414
f 376/376/376 414/414/414 377/377/377
f 377/377/377 414/414/414 415/415/415
f 377/377/377 415/415/415 378/378/378
f 378/378/378 415/415/415 416/416/416
f 378/378/378 416/416/416 379/379/379
f 379/379/379 416/416/416 417/417/417
f 379/379/379 417/417/417 380/380/380
f 380/380/380 417/417/417 418/418/418
f 380/380/380 418/418/418 381/381/381
f 381/381/381 418/418/418 419/419/419
f 381/381/381 419/419/419 382/382/382
f 382/382/382 419/419/419 420/420/420
f 382/382/382 420/420/420 383/383/383
f 383/383/383 420/420/420 421/421/421
f 383/383/383 421/421/421 384/384/384
f 384/384/384 421/421/421 422/422/422
f 384/384/384 422/422/422 385/385/385
f 385/385/385 422/422/422 423/423/423
f 385/385/385 423/423/423 386/386/386
f 386/386/386 423/423/423 424/424/424
f 386/386/386 424/424/424 387/387/387
f 387/387/387 424/424/424 425/425/425
f 387/387/387 425/425/425 388/388/388
f 388/388/388 425/425/425 426/426/426
f 388/388/388 426/426/426 389/389/389
f 389/389/389 426/426/426 427/427/427
f 389/389/389 427/427/427 390/390/390
f 390/390/390 427/427/427 428/428/428
f 390/390/390 428/428/428 391/391/391
f 391/391/391 428/428/428 429/429/429
f 391/391/391 429/429/429 392/392/392
f 392/392/392 429/429/429 430/430/430
f 392/392/392 430/430/430 393/393/393
f 393/393/393 430/430/430 431/431/431
f 393/393/393 431/431/431 394/394/394
f 394/394/394 431/431/431 432/432/432
f 394/394/394 432/432/432 395/395/395
f 395/395/395 432/432/432 433/433/433
f 395/395/395 433/433/433 396/396/396
f 396/396/396 433/433/433 434/434/434
f 396/396/396 434/434/434 397/397/397
f 397/397/397 434/434/434 435/435/435
f 397/397/397 435/435/435 398/398/398
f 398/398/398 435/435/435 436/436/436
f 398/398/398 436/436/436 399/399/399
f 399/399/399 436/436/436 437/437/437
f 399/399/399 437/437/437 400/400/400
f 400/400/400 437/437/437 438/438/438
f 400/400/400 438/438/438 401/401/401
f 401/401/401 438/438/438 439/439/439
f 401/401/401 439/439/439 402/402/402
f 402/402/402 439/439/439 440/440/440
f 402/402/402 440/440/440 403/403/403
f 403/403/403 440/440/440 441/441/441
f 403/403/403 441/441/441 404/404/404
f 404/404/404 441/441/441 442/442/442
f 404/404/404 442/442/442 405/405/405
f 405/405/405 442/442/442 443/443/443
f 405/405/405 443/443/443 406/406/406
f 406/406/406 443/443/443 444/444/444
f 406/406/406 444/444/444 407/407/407
f 408/408/408 445/445/445 446/446/446
f 408/408/408 446/446/446 409/409/409
f 409/409/409 446/446/446 447/447/447
f 409/409/409 447/447/447 410/410/410
f 410/410/410 447/447/447 448/448/448
f 410/410/410 448/448/448 411/411/411
f 411/411/411 448/448/448 449/449/449
f 411/411/411 449/449/449 412/412/412
f 412/412/412 449/449/449 450/450/450
f 412/412/412 450/450/450 413/413/413
f 413/413/413 450/450/450 451/451/451
f 413/413/413 451/451/451 414/414/414
f 414/414/414 451/451/451 452/452/452
f 414/414/414 452/452/452 415/415/415
f 415/415/415 452/452/452 453/453/453
f 415/415/415 453/453/453 416/416/416
f 416/416/416 453/453/453 454/454/454
f 416/416/416 454/454/454 417/417/417
f 417/417/417 454/454/454 455/455/455
f 417/417/417 455/455/455 418/418/418
f 418/418/418 455/455/455 456/456/456
f 418/418/418 456/456/456 419/419/419
f 419/419/419 456/456/456 457/457/457
f 419/419/419 457/457/457 420/420/420
f 420/420/420 457/457/457 458/458/458
f 420/420/420 458/458/458 421/421/421
f 421/421/421 458/458/458 459/459/459
f 421/421/421 459/459/459 422/422/422
f 422/422/422 459/459/459 460/460/460
f 422/422/422 460/460/460 423/423/423
f 423/423/423 460/460/460 461/461/461
f 423/423/423 461/461/461 424/424/424
f 424/424/424 461/461/461 462/462/462
f 424/424/424 462/462/462 425/425/425
f 425/425/425 462/462/462 463/463/463
f 425/425/425 463/463/463 426/426/426
f 426/426/426 463/463/463 464/464/464
f 426/426/426 464/464/464 427/427/427
f 427/427/427 464/464/464 465/465/465
f 427/427/427 465/465/465 428/428/428
f 428/428/428 465/465/465 466/466/466
f 428/428/428 466/466/466 429/429/429
f 429/429/429 466/466/466 467/467/467
f 429/429/429 467/467/467 430/430/430
f 430/430/430 467/467/467 468/468/468
f 430/430/430 468/468/468 431/431/431
f 431/431/431 468/468/468 469/469/469
f 431/431/431 469/469/469 432/432/432
f 432/432/432 469/469/469 470/470/470
f 432/432/432 470/470/470 433/433/433
f 433/433/433 470/470/470 471/471/471
f 433/433/433 471/471/471 434/434/434
f 434/434/434 471/471/471 472/472/472
f 434/434/434 472/472/472 435/435/435
f 435/435/435 472/472/472 473/473/473
f 435/435/435 473/473/473 436/436/436
f 436/436/436 473/473/473 474/474/474
f 436/436/436 474/474/474 437/437/437
f 437/437/437 474/474/474 475/475/475
f 437/437/437 475/475/475 438/438/438
f 438/438/438 475/475/475 476/476/476
f 438/438/438 476/476/476 439/439/439
f 439/439/439 476/476/476 477/477/477
f 439/439/439 477/477/477 440/440/440
f 440/440/440 477/477/477 478/478/478
f 440/440/440 478/478/478 441/441/441
f 441/441/441 478/478/478 479/479/479
f 441/441/441 479/479/479 442/442/442
f 442/442/442 479/479/479 480/480/480
f 442/442/442 480/480/480 443/443/443
f 443/443/443 480/480/480 481/481/481
f 443/443/443 481/481/481 444/444/444
f 445/445/445 482/482/482 483/483/483
f 445/445/445 483/483/483 446/446/446
f 446/446/446 483/483/483 484/484/484
f 446/446/446 484/484/484 447/447/447
f 447/447/447 484/484/484 485/485/485
f 447/447/447 485/485/485 448/448/448
f 448/448/448 485/485/485 486/486/486
f 448/448/448 486/486/486 449/449/449
f 449/449/449 486/486/486 487/487/487
f 449/449/449 487/487/487 450/450/450
f 450/450/450 487/487/487 488/488/488
f 450/450/450 488/488/488 451/451/451
f 451/451/451 488/488/488 489/489/489
f 451/451/451 489/489/489 452/452/452
f 452/452/452 489/489/489 490/490/490
f 452/452/452 490/490/490 453/453/453
f 453/453/453 490/490/490 491/491/491
f 453/453/453 491/491/491 454/454/454
f 454/454/454 491/491/491 492/492/492
f 454/454/454 492/492/492 455/455/455
f 455/455/455 492/492/492 493/493/493
f 455/455/455 493/493/493 456/456/456
f 456/456/456 493/493/493 494/494/494
f 456/456/456 494/494/494 457/457/457
f 457/457/457 494/494/494 495/495/495
f 457/457/457 495/495/495 458/458/458
f 458/458/458 495/495/495 496/496/496
f 458/458/458 496/496/496 459/459/459
f 459/459/459 496/496/496 497/497/497
f 459/459/459 497/497/497 460/460/460
f 460/460/460 497/497/497 498/498/498
f 460/460/460 498/498/498 461/461/461
f 461/461/461 498/498/498 499/499/499
f 461/461/461 499/499/499 462/462/462
f 462/462/462 499/499/499 500/500/500
f 462/462/462 500/500/500 463/463/463
f 463/463/463 500/500/500 501/501/501
f 463/463/463 501/501/501 464/464/464
f 464/464/464 501/501/501 502/502/502
f 464/464/464 502/502/502 465/465/465
f 465/465/465 502/502/502 503/503/503
f 465/465/465 503/503/503 466/466/466
f 466/466/466 503/503/503 504/504/504
f 466/466/466 504/504/504 467/467/467
f 467/467/467 504/504/504 505/505/505
f 467/467/467 505/505/505 468/468/468
f 468/468/468 505/505/505 506/506/506
f 468/468/468 506/506/506 469/469/469
f 469/469/469 506/506/506 507/507/507
f 469/469/469 507/507/507 470/470/470
f 470/470/470 507/507/507 508/508/508
f 470/470/470 508/508/508 471/471/471
f 471/471/471 508/508/508 509/509/509
f 471/471/471 509/509/509 472/472/472
f 472/472/472 509/509/509 510/510/510
f 472/472/472 510/510/510 473/473/473
f 473/473/473 510/510/510 511/511/511
f 473/473/473 511/511/511 474/474/474
f 474/474/474 511/511/511 512/512/512
f 474/474/474 512/512/512 475/475/475
f 475/475/475 512/512/512 513/513/513
f 475/475/475 513/513/513 476/476/476
f 476/476/476 513/513/513 514/514/514
f 476/476/476 514/514/514 477/477/477
f 477/477/477 514/514/514 515/515/515
f 477/477/477 515/515/515 478/478/478
f 478/478/478 515/515/515 516/516/516
f 478/478/478 516/516/516 479/479/479
f 479/479/479 516/516/516 517/517/517
f 479/479/479 517/517/517 480/480/480
f 480/480/480 517/517/517 518/518/518
f 480/480/480 518/518/518 481/481/481
