# Generated sky cornice; visual geometry only.
s 1
v 35.554600 -7.020348 -5.430762
v 35.530582 -4.462024 -5.188199
v 35.492355 -0.513749 -4.802149
v 35.474426 3.959218 -4.621081
v 35.511299 8.074500 -4.993466
v 35.615830 11.698413 -6.049127
v 35.768398 15.156443 -7.589913
v 35.954795 18.239190 -9.472336
v 36.160812 20.735006 -11.552910
v 36.395246 22.520863 -13.920460
v 36.661479 23.599799 -16.609148
v 36.937183 23.959308 -19.393496
v 37.200033 23.601464 -22.048021
v 37.460007 22.379441 -24.673507
v 37.723703 20.303139 -27.336573
v 37.963718 17.636862 -29.760492
v 38.152652 14.663655 -31.668539
v 38.285938 11.472039 -33.014592
v 38.377275 7.995626 -33.937013
v 38.426665 4.305748 -34.435805
v 38.434108 0.480352 -34.510965
v 38.396050 -3.532185 -34.126622
v 38.313677 -7.610596 -33.294735
v 38.194092 -11.421371 -32.087045
v 38.044400 -14.642253 -30.575298
v 37.850054 -17.062843 -28.612590
v 37.612744 -18.829576 -26.216001
v 37.363934 -20.368411 -23.703256
v 37.135082 -22.063951 -21.392076
v 36.922299 -23.891122 -19.243175
v 36.712898 -25.749633 -17.128438
v 36.525149 -27.771118 -15.232348
v 36.377317 -30.087206 -13.739392
v 36.280059 -33.095926 -12.757183
v 36.221704 -36.606100 -12.167858
v 36.187030 -39.865547 -11.817679
v 36.160812 -42.122088 -11.552910
v 28.677848 -7.320192 -2.885661
v 28.666696 -4.646866 -2.637369
v 28.648947 -0.513094 -2.242200
v 28.640622 4.177925 -2.056855
v 28.657743 8.504547 -2.438036
v 28.706277 12.325300 -3.518631
v 28.777115 15.977111 -5.095810
v 28.863660 19.238940 -7.022695
v 28.959315 21.887330 -9.152411
v 29.068164 23.791307 -11.575881
v 29.191778 24.951594 -14.328075
v 29.319789 25.353087 -17.178188
v 29.441832 24.996393 -19.895411
v 29.562539 23.727453 -22.582910
v 29.684974 21.556281 -25.308876
v 29.796415 18.758834 -27.790048
v 29.884138 15.631253 -29.743162
v 29.946023 12.267444 -31.121007
v 29.988432 8.600282 -32.065216
v 30.011364 4.706615 -32.575789
v 30.014819 0.670421 -32.652724
v 29.997149 -3.559354 -32.259304
v 29.958903 -7.853584 -31.407767
v 29.903379 -11.862080 -30.171553
v 29.833876 -15.246776 -28.624099
v 29.743640 -17.786752 -26.615032
v 29.633456 -19.633800 -24.161837
v 29.517931 -21.238360 -21.589742
v 29.411674 -23.006317 -19.223974
v 29.312878 -24.911527 -17.024317
v 29.215652 -26.849417 -14.859630
v 29.128479 -28.957240 -12.918756
v 29.059840 -31.372250 -11.390536
v 29.014682 -34.509475 -10.385129
v 28.987588 -38.169571 -9.781884
v 28.971488 -41.568231 -9.423434
v 28.959315 -43.921150 -9.152411
v 21.829769 -7.614606 -0.354696
v 21.832620 -4.824456 -0.101235
v 21.837157 -0.497054 0.302161
v 21.839285 4.426473 0.491364
v 21.834908 8.984849 0.102248
v 21.822502 13.027535 -1.000844
v 21.804394 16.901020 -2.610857
v 21.782270 20.370999 -4.577858
v 21.757819 23.200526 -6.751912
v 21.729994 25.248999 -9.225836
v 21.698395 26.513194 -12.035327
v 21.665672 26.974058 -14.944775
v 21.634475 26.629690 -17.718568
v 21.603619 25.318278 -20.462017
v 21.572322 23.049737 -23.244735
v 21.543835 20.111710 -25.777561
v 21.521410 16.813892 -27.771336
v 21.505591 13.256562 -29.177867
v 21.494750 9.373302 -30.141733
v 21.488888 5.248061 -30.662935
v 21.488005 0.972581 -30.741472
v 21.492522 -3.501749 -30.339861
v 21.502298 -8.036253 -29.470597
v 21.516492 -12.262711 -28.208646
v 21.534259 -15.826140 -26.628976
v 21.557325 -18.494244 -24.578083
v 21.585491 -20.423461 -22.073816
v 21.615022 -22.092555 -19.448173
v 21.642184 -23.931618 -17.033152
v 21.667439 -25.913455 -14.787701
v 21.692292 -27.929286 -12.577948
v 21.714576 -30.121885 -10.596668
v 21.732122 -32.634025 -9.036632
v 21.743665 -35.897427 -8.010293
v 21.750591 -39.704730 -7.394490
v 21.754707 -43.240083 -7.028578
v 21.757819 -45.687635 -6.751912
v 15.008783 -7.889623 2.150881
v 15.026709 -4.985416 2.408505
v 15.055241 -0.462643 2.818527
v 15.068623 4.701294 3.010839
v 15.041101 9.506741 2.615331
v 14.963082 13.792901 1.494120
v 14.849209 17.913078 -0.142339
v 14.710088 21.618260 -2.141649
v 14.556322 24.656518 -4.351413
v 14.381347 26.875942 -6.865972
v 14.182638 28.267524 -9.721612
v 13.976859 28.806740 -12.678849
v 13.780675 28.488016 -15.498204
v 13.586637 27.141466 -18.286715
v 13.389821 24.776651 -21.115141
v 13.210680 21.692438 -23.689571
v 13.069665 18.212052 -25.716095
v 12.970184 14.443107 -27.145729
v 12.902012 10.321643 -28.125427
v 12.865148 5.940373 -28.655190
v 12.859594 1.400607 -28.735017
v 12.887999 -3.341593 -28.326810
v 12.949480 -8.136333 -27.443267
v 13.038735 -12.596448 -26.160588
v 13.150461 -16.349402 -24.554971
v 13.295516 -19.150950 -22.470390
v 13.472638 -21.161097 -19.924989
v 13.658344 -22.890474 -17.256218
v 13.829153 -24.795959 -14.801529
v 13.987968 -26.849375 -12.519195
v 14.144259 -28.938012 -10.273146
v 14.284391 -31.209801 -8.259321
v 14.394729 -33.812672 -6.673661
v 14.467319 -37.193939 -5.630464
v 14.510874 -41.138751 -5.004546
v 14.536754 -44.801790 -4.632623
v 14.556322 -47.337741 -4.351413
v 8.210608 -8.131058 4.620535
v 8.244515 -5.120584 4.880899
v 8.298479 -0.408243 5.295282
v 8.323789 4.995661 5.489638
v 8.271736 10.056090 5.089924
v 8.124170 14.601019 3.956789
v 7.908792 18.987098 2.302926
v 7.645657 22.949522 0.282352
v 7.354825 26.220240 -1.950914
v 7.023877 28.634537 -4.492217
v 6.648039 30.175705 -7.378227
v 6.258830 30.812214 -10.366917
v 5.887768 30.533594 -13.216256
v 5.520765 29.161845 -16.034425
v 5.148508 26.705885 -18.892932
v 4.809681 23.474826 -21.494742
v 4.542965 19.804850 -23.542819
v 4.354808 15.811723 -24.987658
v 4.225867 11.435894 -25.977776
v 4.156144 6.780408 -26.513173
v 4.145637 1.957875 -26.593849
v 4.199362 -3.068581 -26.181300
v 4.315648 -8.136339 -25.288360
v 4.484464 -12.839006 -23.992039
v 4.695784 -16.786439 -22.369346
v 4.970141 -19.722266 -20.262595
v 5.305147 -21.808660 -17.690122
v 5.656391 -23.590959 -14.992967
v 5.979459 -25.554754 -12.512172
v 6.279843 -27.671008 -10.205564
v 6.575451 -29.823560 -7.935627
v 6.840495 -32.164869 -5.900385
v 7.049188 -34.847392 -4.297860
v 7.186486 -38.332132 -3.243568
v 7.268864 -42.397661 -2.610993
v 7.317814 -46.172795 -2.235115
v 7.354825 -48.786349 -1.950914
v 1.428325 -8.325229 7.045036
v 1.478841 -5.221618 7.306351
v 1.559240 -0.334246 7.722247
v 1.596949 5.298800 7.917313
v 1.519396 10.611914 7.516139
v 1.299545 15.421251 6.378866
v 0.978661 20.082867 4.718961
v 0.586628 24.315643 2.691007
v 0.153328 27.834853 0.449585
v -0.339737 30.461885 -2.101000
v -0.899683 32.170564 -4.997551
v -1.479550 32.920963 -7.997156
v -2.032381 32.696593 -10.856903
v -2.579164 31.311642 -13.685365
v -3.133773 28.774096 -16.554312
v -3.638578 25.401790 -19.165625
v -4.035948 21.542683 -21.221183
v -4.316276 17.321238 -22.671298
v -4.508380 12.684258 -23.665033
v -4.612258 7.746410 -24.202385
v -4.627910 2.633002 -24.283356
v -4.547867 -2.683448 -23.869300
v -4.374619 -8.026498 -22.973099
v -4.123106 -12.971028 -21.672044
v -3.808270 -17.110003 -20.043424
v -3.399516 -20.175240 -17.928978
v -2.900403 -22.329455 -15.347109
v -2.377100 -24.154315 -12.640103
v -1.895774 -26.165007 -10.150247
v -1.448245 -28.331796 -7.835214
v -1.007830 -30.535752 -5.556987
v -0.612951 -32.932972 -3.514311
v -0.302028 -35.679555 -1.905934
v -0.097474 -39.247510 -0.847791
v 0.025259 -43.410125 -0.212905
v 0.098187 -47.275410 0.164346
v 0.153328 -49.951377 0.449585
v -5.347362 -8.459689 9.416984
v -5.279975 -5.281556 9.677168
v -5.172725 -0.243488 10.091264
v -5.122422 5.595466 10.285486
v -5.225876 11.145769 9.886048
v -5.519151 16.211755 8.753698
v -5.947200 21.144766 7.100979
v -6.470160 25.647675 5.081804
v -7.048169 29.419359 2.850084
v -7.705903 32.266883 0.310540
v -8.452853 34.153235 -2.573473
v -9.226379 35.029070 -5.560093
v -9.963838 34.871005 -8.407460
v -10.693230 33.486138 -11.223678
v -11.433062 30.881271 -14.080207
v -12.106457 27.380914 -16.680216
v -12.636535 23.342947 -18.726875
v -13.010485 18.900659 -20.170714
v -13.266745 14.008918 -21.160147
v -13.405315 8.794763 -21.695173
v -13.426196 3.397017 -21.775794
v -13.319421 -2.200446 -21.363530
v -13.088312 -7.806925 -20.471208
v -12.752801 -12.980075 -19.175785
v -12.332820 -17.297591 -17.554215
v -11.787555 -20.480424 -15.448922
v -11.121754 -22.690095 -12.878230
v -10.423683 -24.544429 -10.182942
v -9.781609 -26.587595 -7.703864
v -9.184618 -28.789380 -5.398852
v -8.597118 -31.028931 -3.130487
v -8.070362 -33.464869 -1.096653
v -7.655600 -36.255811 0.504762
v -7.382731 -39.881392 1.558324
v -7.219009 -44.111236 2.190462
v -7.121725 -48.038949 2.566080
v -7.048169 -50.758135 2.850084
v -12.127652 -8.523915 11.731241
v -12.043577 -5.295270 11.988008
v -11.909766 -0.141348 12.396665
v -11.847006 5.866225 12.588337
v -11.976079 11.622374 12.194145
v -12.341985 16.920374 11.076665
v -12.876041 22.102914 9.445651
v -13.528513 26.858215 7.452994
v -14.249666 30.870105 5.250583
v -15.070288 33.931813 2.744391
v -16.002222 35.994788 -0.101747
v -16.967312 36.999818 -3.049144
v -17.887404 36.916177 -5.859117
v -18.797430 35.545078 -8.638350
v -19.720483 32.891953 -11.457364
v -20.560644 29.285442 -14.023227
v -21.221997 25.090795 -16.043008
v -21.688556 20.449682 -17.467885
v -22.008279 15.326283 -18.444324
v -22.181166 9.859975 -18.972324
v -22.207218 4.203065 -19.051885
v -22.074000 -1.647937 -18.645036
v -21.785657 -7.488542 -17.764433
v -21.367057 -12.861846 -16.486022
v -20.843066 -17.332930 -14.885748
v -20.162766 -20.613563 -12.808104
v -19.332079 -22.862357 -10.271172
v -18.461129 -24.730769 -7.611282
v -17.660045 -26.789447 -5.164761
v -16.915209 -29.007948 -2.890021
v -16.182214 -31.264502 -0.651445
v -15.525006 -33.718933 1.355678
v -15.007528 -36.531063 2.936062
v -14.667082 -40.184170 3.975788
v -14.462814 -44.446127 4.599624
v -14.341438 -48.403659 4.970309
v -14.249666 -51.143489 5.250583
v -18.925006 -8.509929 13.985232
v -18.824918 -5.259764 14.236194
v -18.665624 -0.035412 14.635613
v -18.590910 6.088646 14.822952
v -18.744566 12.001760 14.437671
v -19.180159 17.487814 13.345454
v -19.815927 22.877430 11.751313
v -20.592664 27.846734 9.803703
v -21.451163 32.067104 7.651082
v -22.428075 35.319533 5.201547
v -23.537497 37.544103 2.419752
v -24.686391 38.672052 -0.461014
v -25.781717 38.665421 -3.207462
v -26.865060 37.321253 -5.923865
v -27.963910 34.643530 -8.679150
v -28.964082 30.962043 -11.187007
v -29.751392 26.646175 -13.161127
v -30.306808 21.844853 -14.553792
v -30.687423 16.532130 -15.508156
v -30.893237 10.858716 -16.024219
v -30.924250 4.989303 -16.101982
v -30.765661 -1.066626 -15.704331
v -30.422402 -7.092372 -14.843636
v -29.924078 -12.620394 -13.594125
v -29.300292 -17.206924 -12.030029
v -28.490428 -20.557026 -9.999354
v -27.501533 -22.824847 -7.519774
v -26.464710 -24.690193 -4.920016
v -25.511057 -26.745493 -2.528803
v -24.624365 -28.960354 -0.305488
v -23.751770 -31.213206 1.882480
v -22.969394 -33.663609 3.844229
v -22.353361 -36.471126 5.388885
v -21.948077 -40.118239 6.405106
v -21.704906 -44.373204 7.014839
v -21.560413 -48.324242 7.377144
v -21.451163 -51.059577 7.651082
v -25.752358 -8.412817 16.179124
v -25.637446 -5.174290 16.421900
v -25.454559 0.065309 16.808291
v -25.368780 6.239384 16.989519
v -25.545193 12.242948 16.616805
v -26.045301 17.853115 15.560215
v -26.775232 23.385819 14.018071
v -27.667010 28.508916 12.133988
v -28.652659 32.885226 10.051580
v -29.774261 36.286306 7.681945
v -31.047998 38.642061 4.990886
v -32.367053 39.875357 2.204085
v -33.624606 39.941757 -0.452779
v -34.868401 38.636352 -3.080579
v -36.130000 35.961709 -5.745992
v -37.278306 32.245465 -8.172048
v -38.182223 27.857274 -10.081776
v -38.819901 22.951473 -11.429015
v -39.256888 17.511724 -12.352250
v -39.493185 11.697991 -12.851480
v -39.528792 5.685076 -12.926707
v -39.346714 -0.505337 -12.542026
v -38.952616 -6.647118 -11.709405
v -38.380486 -12.267255 -10.500651
v -37.664312 -16.917970 -8.987572
v -36.734500 -20.300879 -7.023133
v -35.599142 -22.564378 -4.624433
v -34.408755 -24.408438 -2.109473
v -33.313859 -26.440283 0.203743
v -32.295840 -28.629869 2.354538
v -31.294006 -30.857013 4.471139
v -30.395754 -33.279453 6.368900
v -29.688482 -36.054932 7.863172
v -29.223171 -39.660425 8.846246
v -28.943984 -43.866834 9.436091
v -28.778091 -47.772785 9.786578
v -28.652659 -50.476905 10.051580
v -32.622230 -8.231106 18.315849
v -32.494180 -5.040299 18.548174
v -32.290381 0.151520 18.917932
v -32.194794 6.296967 19.091358
v -32.391378 12.308798 18.734689
v -32.948669 17.960878 17.723582
v -33.762061 23.552778 16.247823
v -34.755807 28.749080 14.444845
v -35.854156 33.209137 12.452079
v -37.104003 36.699014 10.184450
v -38.523381 39.140641 7.609234
v -39.993258 40.450557 4.942397
v -41.394601 40.579244 2.399904
v -42.780614 39.322495 -0.114777
v -44.186466 36.681624 -2.665451
v -45.466070 32.978594 -4.987071
v -46.473342 28.578996 -6.814591
v -47.183933 23.640044 -8.103835
v -47.670886 18.153887 -8.987327
v -47.934201 12.286616 -9.465067
v -47.973879 6.219733 -9.537055
v -47.770982 -0.014798 -9.168934
v -47.331822 -6.185332 -8.372155
v -46.694274 -11.819636 -7.215435
v -45.896212 -16.471677 -5.767489
v -44.860084 -19.843563 -3.887615
v -43.594908 -22.077002 -1.592172
v -42.268411 -23.881231 0.814526
v -41.048323 -25.869190 3.028165
v -39.913903 -28.011482 5.086374
v -38.797518 -30.190521 7.111861
v -37.796558 -32.560638 8.927928
v -37.008416 -35.276168 10.357876
v -36.489901 -38.803785 11.298632
v -36.178792 -42.919338 11.863085
v -35.993930 -46.740923 12.198484
v -35.854156 -49.386635 12.452079
vt 0.58296461 1.11531475
vt 0.58296461 1.11029916
vt 0.58296461 1.10255673
vt 0.58296461 1.09381444
vt 0.58296461 1.08574914
vt 0.58296461 1.07842281
vt 0.58296461 1.07112641
vt 0.58296461 1.06422509
vt 0.58296461 1.05808840
vt 0.58296461 1.05259650
vt 0.58296461 1.04733833
vt 0.58296461 1.04230033
vt 0.58296461 1.03749304
vt 0.58296461 1.03221800
vt 0.58296461 1.02595600
vt 0.58296461 1.01917509
vt 0.58296461 1.01243644
vt 0.58296461 1.00575252
vt 0.58296461 0.99876440
vt 0.58296461 0.99150240
vt 0.58296461 0.98402971
vt 0.58296461 0.97616253
vt 0.58296461 0.96805863
vt 0.58296461 0.96030754
vt 0.58296461 0.95345839
vt 0.58296461 0.94756618
vt 0.58296461 0.94205746
vt 0.58296461 0.93664425
vt 0.58296461 0.93134190
vt 0.58296461 0.92609213
vt 0.58296461 0.92084492
vt 0.58296461 0.91563627
vt 0.58296461 0.91038093
vt 0.58296461 0.90424666
vt 0.58296461 0.89731001
vt 0.58296461 0.89091306
vt 0.58296461 0.88648030
vt 0.59778779 1.12285497
vt 0.59778779 1.11761400
vt 0.59778779 1.10950808
vt 0.59778779 1.10033969
vt 0.59778779 1.09186066
vt 0.59778779 1.08414203
vt 0.59778779 1.07645060
vt 0.59778779 1.06917359
vt 0.59778779 1.06270324
vt 0.59778779 1.05692452
vt 0.59778779 1.05141380
vt 0.59778779 1.04615313
vt 0.59778779 1.04114508
vt 0.59778779 1.03564939
vt 0.59778779 1.02911210
vt 0.59778779 1.02201561
vt 0.59778779 1.01494299
vt 0.59778779 1.00790821
vt 0.59778779 1.00054138
vt 0.59778779 0.99287967
vt 0.59778779 0.98499523
vt 0.59778779 0.97670281
vt 0.59778779 0.96817285
vt 0.59778779 0.96002512
vt 0.59778779 0.95283633
vt 0.59778779 0.94666735
vt 0.59778779 0.94091741
vt 0.59778779 0.93527299
vt 0.59778779 0.92974418
vt 0.59778779 0.92427018
vt 0.59778779 0.91879886
vt 0.59778779 0.91336775
vt 0.59778779 0.90788795
vt 0.59778779 0.90149168
vt 0.59778779 0.89425876
vt 0.59778779 0.88758859
vt 0.59778779 0.88296650
vt 0.61261097 1.13113848
vt 0.61261097 1.12566862
vt 0.61261097 1.11718343
vt 0.61261097 1.10756073
vt 0.61261097 1.09862828
vt 0.61261097 1.09047023
vt 0.61261097 1.08233380
vt 0.61261097 1.07463217
vt 0.61261097 1.06778451
vt 0.61261097 1.06168717
vt 0.61261097 1.05590794
vt 0.61261097 1.05042247
vt 0.61261097 1.04521998
vt 0.61261097 1.03951079
vt 0.61261097 1.03269783
vt 0.61261097 1.02527363
vt 0.61261097 1.01784145
vt 0.61261097 1.01041740
vt 0.61261097 1.00262394
vt 0.61261097 0.99450872
vt 0.61261097 0.98615690
vt 0.61261097 0.97738611
vt 0.61261097 0.96838331
vt 0.61261097 0.95980133
vt 0.61261097 0.95224682
vt 0.61261097 0.94578887
vt 0.61261097 0.93979800
vt 0.61261097 0.93392656
vt 0.61261097 0.92817539
vt 0.61261097 0.92248123
vt 0.61261097 0.91678985
vt 0.61261097 0.91114031
vt 0.61261097 0.90544011
vt 0.61261097 0.89878659
vt 0.61261097 0.89126277
vt 0.61261097 0.88432433
vt 0.61261097 0.87951634
vt 0.62743414 1.13999582
vt 0.62743414 1.13430255
vt 0.62743414 1.12543487
vt 0.62743414 1.11534247
vt 0.62743414 1.10592693
vt 0.62743414 1.09728986
vt 0.62743414 1.08866528
vt 0.62743414 1.08049600
vt 0.62743414 1.07323206
vt 0.62743414 1.06678864
vt 0.62743414 1.06073076
vt 0.62743414 1.05502615
vt 0.62743414 1.04964488
vt 0.62743414 1.04374017
vt 0.62743414 1.03666289
vt 0.62743414 1.02890989
vt 0.62743414 1.02110163
vt 0.62743414 1.01325728
vt 0.62743414 1.00499604
vt 0.62743414 0.99638013
vt 0.62743414 0.98751210
vt 0.62743414 0.97821772
vt 0.62743414 0.96870436
vt 0.62743414 0.95966013
vt 0.62743414 0.95172320
vt 0.62743414 0.94497343
vt 0.62743414 0.93875233
vt 0.62743414 0.93266884
vt 0.62743414 0.92670995
vt 0.62743414 0.92081013
vt 0.62743414 0.91491320
vt 0.62743414 0.90905961
vt 0.62743414 0.90315354
vt 0.62743414 0.89625971
vt 0.62743414 0.88846415
vt 0.62743414 0.88127511
vt 0.62743414 0.87629348
vt 0.64225732 1.14917847
vt 0.64225732 1.14327713
vt 0.64225732 1.13403854
vt 0.64225732 1.12347735
vt 0.64225732 1.11356354
vt 0.64225732 1.10442039
vt 0.64225732 1.09527656
vt 0.64225732 1.08660741
vt 0.64225732 1.07889702
vt 0.64225732 1.07208714
vt 0.64225732 1.06574737
vt 0.64225732 1.05983702
vt 0.64225732 1.05430149
vt 0.64225732 1.04822995
vt 0.64225732 1.04091211
vt 0.64225732 1.03284198
vt 0.64225732 1.02465311
vt 0.64225732 1.01636889
vt 0.64225732 1.00761060
vt 0.64225732 0.99845912
vt 0.64225732 0.98903882
vt 0.64225732 0.97918918
vt 0.64225732 0.96914179
vt 0.64225732 0.95962111
vt 0.64225732 0.95129743
vt 0.64225732 0.94426402
vt 0.64225732 0.93783436
vt 0.64225732 0.93156470
vt 0.64225732 0.92542346
vt 0.64225732 0.91934310
vt 0.64225732 0.91326571
vt 0.64225732 0.90723299
vt 0.64225732 0.90114619
vt 0.64225732 0.89404139
vt 0.64225732 0.88600728
vt 0.64225732 0.87859825
vt 0.64225732 0.87346416
vt 0.65708050 1.15833761
vt 0.65708050 1.15225400
vt 0.65708050 1.14267317
vt 0.65708050 1.13166440
vt 0.65708050 1.12125711
vt 0.65708050 1.11159977
vt 0.65708050 1.10192435
vt 0.65708050 1.09274048
vt 0.65708050 1.08456813
vt 0.65708050 1.07738256
vt 0.65708050 1.07076637
vt 0.65708050 1.06467143
vt 0.65708050 1.05901417
vt 0.65708050 1.05281439
vt 0.65708050 1.04529235
vt 0.65708050 1.03693127
vt 0.65708050 1.02837280
vt 0.65708050 1.01964582
vt 0.65708050 1.01037957
vt 0.65708050 1.00067728
vt 0.65708050 0.99068888
vt 0.65708050 0.98027312
vt 0.65708050 0.96968884
vt 0.65708050 0.95969645
vt 0.65708050 0.95099773
vt 0.65708050 0.94370163
vt 0.65708050 0.93709609
vt 0.65708050 0.93067671
vt 0.65708050 0.92438881
vt 0.65708050 0.91816325
vt 0.65708050 0.91194074
vt 0.65708050 0.90576395
vt 0.65708050 0.89953179
vt 0.65708050 0.89225734
vt 0.65708050 0.88403137
vt 0.65708050 0.87644541
vt 0.65708050 0.87118872
vt 0.67190367 1.16701234
vt 0.67190367 1.16078300
vt 0.67190367 1.15090778
vt 0.67190367 1.13949688
vt 0.67190367 1.12862667
vt 0.67190367 1.11847303
vt 0.67190367 1.10828009
vt 0.67190367 1.09859163
vt 0.67190367 1.08996344
vt 0.67190367 1.08240956
vt 0.67190367 1.07553400
vt 0.67190367 1.06928371
vt 0.67190367 1.06354404
vt 0.67190367 1.05726314
vt 0.67190367 1.04958563
vt 0.67190367 1.04097583
vt 0.67190367 1.03207803
vt 0.67190367 1.02292788
vt 0.67190367 1.01316833
vt 0.67190367 1.00292765
vt 0.67190367 0.99238393
vt 0.67190367 0.98141994
vt 0.67190367 0.97032345
vt 0.67190367 0.95988861
vt 0.67190367 0.95084630
vt 0.67190367 0.94332285
vt 0.67190367 0.93658485
vt 0.67190367 0.93006179
vt 0.67190367 0.92367234
vt 0.67190367 0.91734623
vt 0.67190367 0.91102322
vt 0.67190367 0.90474667
vt 0.67190367 0.89841386
vt 0.67190367 0.89102191
vt 0.67190367 0.88266309
vt 0.67190367 0.87495461
vt 0.67190367 0.86961302
vt 0.68672685 1.17463563
vt 0.68672685 1.16830764
vt 0.68672685 1.15820641
vt 0.68672685 1.14646626
vt 0.68672685 1.13519463
vt 0.68672685 1.12459519
vt 0.68672685 1.11393247
vt 0.68672685 1.10378202
vt 0.68672685 1.09473296
vt 0.68672685 1.08684072
vt 0.68672685 1.07973805
vt 0.68672685 1.07337063
vt 0.68672685 1.06759346
vt 0.68672685 1.06128515
vt 0.68672685 1.05351237
vt 0.68672685 1.04471328
vt 0.68672685 1.03552906
vt 0.68672685 1.02600313
vt 0.68672685 1.01579726
vt 0.68672685 1.00506588
vt 0.68672685 0.99401602
vt 0.68672685 0.98255773
vt 0.68672685 0.97100763
vt 0.68672685 0.96018903
vt 0.68672685 0.95085768
vt 0.68672685 0.94315785
vt 0.68672685 0.93634065
vt 0.68672685 0.92976807
vt 0.68672685 0.92333011
vt 0.68672685 0.91695597
vt 0.68672685 0.91058496
vt 0.68672685 0.90426076
vt 0.68672685 0.89787987
vt 0.68672685 0.89043181
vt 0.68672685 0.88200952
vt 0.68672685 0.87424251
vt 0.68672685 0.86886037
vt 0.70155003 1.18056438
vt 0.70155003 1.17419458
vt 0.70155003 1.16395637
vt 0.70155003 1.15198886
vt 0.70155003 1.14041152
vt 0.70155003 1.12945401
vt 0.70155003 1.11840829
vt 0.70155003 1.10787665
vt 0.70155003 1.09847636
vt 0.70155003 1.09030359
vt 0.70155003 1.08302494
vt 0.70155003 1.07658880
vt 0.70155003 1.07082340
vt 0.70155003 1.06454575
vt 0.70155003 1.05674792
vt 0.70155003 1.04783628
vt 0.70155003 1.03844326
vt 0.70155003 1.02862053
vt 0.70155003 1.01805248
vt 0.70155003 1.00691877
vt 0.70155003 0.99545391
vt 0.70155003 0.98359650
vt 0.70155003 0.97168959
vt 0.70155003 0.96057862
vt 0.70155003 0.95103778
vt 0.70155003 0.94322851
vt 0.70155003 0.93639383
vt 0.70155003 0.92983203
vt 0.70155003 0.92340463
vt 0.70155003 0.91704095
vt 0.70155003 0.91068039
vt 0.70155003 0.90436657
vt 0.70155003 0.89799615
vt 0.70155003 0.89056030
vt 0.70155003 0.88215184
vt 0.70155003 0.87439757
vt 0.70155003 0.86902426
vt 0.71637320 1.18413579
vt 0.71637320 1.17778914
vt 0.71637320 1.16752203
vt 0.71637320 1.15545703
vt 0.71637320 1.14370409
vt 0.71637320 1.13251475
vt 0.71637320 1.12121362
vt 0.71637320 1.11042208
vt 0.71637320 1.10077761
vt 0.71637320 1.09241298
vt 0.71637320 1.08503077
vt 0.71637320 1.07858539
vt 0.71637320 1.07288432
vt 0.71637320 1.06669730
vt 0.71637320 1.05895236
vt 0.71637320 1.05002100
vt 0.71637320 1.04052150
vt 0.71637320 1.03051346
vt 0.71637320 1.01970593
vt 0.71637320 1.00830059
vt 0.71637320 0.99655550
vt 0.71637320 0.98443672
vt 0.71637320 0.97230880
vt 0.71637320 0.96102985
vt 0.71637320 0.95138389
vt 0.71637320 0.94354711
vt 0.71637320 0.93676306
vt 0.71637320 0.93027614
vt 0.71637320 0.92392210
vt 0.71637320 0.91763104
vt 0.71637320 0.91134306
vt 0.71637320 0.90510129
vt 0.71637320 0.89880356
vt 0.71637320 0.89145257
vt 0.71637320 0.88314006
vt 0.71637320 0.87547429
vt 0.71637320 0.87016230
vt 0.73119638 1.18474554
vt 0.73119638 1.17849270
vt 0.73119638 1.16832005
vt 0.73119638 1.15631120
vt 0.73119638 1.14454331
vt 0.73119638 1.13328354
vt 0.73119638 1.12189231
vt 0.73119638 1.11100007
vt 0.73119638 1.10125400
vt 0.73119638 1.09281616
vt 0.73119638 1.08542398
vt 0.73119638 1.07903971
vt 0.73119638 1.07345755
vt 0.73119638 1.06742053
vt 0.73119638 1.05981118
vt 0.73119638 1.05096597
vt 0.73119638 1.04148411
vt 0.73119638 1.03143180
vt 0.73119638 1.02054284
vt 0.73119638 1.00903553
vt 0.73119638 0.99718509
vt 0.73119638 0.98498154
vt 0.73119638 0.97280366
vt 0.73119638 0.96151050
vt 0.73119638 0.95188545
vt 0.73119638 0.94411550
vt 0.73119638 0.93745396
vt 0.73119638 0.93110716
vt 0.73119638 0.92489035
vt 0.73119638 0.91873517
vt 0.73119638 0.91258301
vt 0.73119638 0.90647606
vt 0.73119638 0.90031436
vt 0.73119638 0.89312215
vt 0.73119638 0.88498918
vt 0.73119638 0.87748898
vt 0.73119638 0.87229173
vn -0.098167 -0.086652 0.991390
vn -0.098153 -0.088283 0.991248
vn -0.098350 -0.061662 0.993240
vn -0.098517 0.020432 0.994926
vn -0.097156 0.166900 0.981175
vn -0.093397 0.318787 0.943214
vn -0.088830 0.432818 0.897094
vn -0.082554 0.545988 0.833716
vn -0.071332 0.689903 0.720379
vn -0.051779 0.850809 0.522918
vn -0.027139 0.961325 0.274076
vn -0.000033 1.000000 0.000332
vn 0.030556 0.950707 -0.308581
vn 0.055400 0.826985 -0.559488
vn 0.070237 0.701378 -0.709321
vn 0.080548 0.576026 -0.813453
vn 0.088687 0.435825 -0.895651
vn 0.094063 0.297919 -0.949945
vn 0.096946 0.178994 -0.979062
vn 0.098297 0.069889 -0.992700
vn 0.098473 -0.036164 -0.994482
vn 0.097614 -0.136606 -0.985804
vn 0.095878 -0.230765 -0.968274
vn 0.092866 -0.334365 -0.937857
vn 0.085792 -0.491906 -0.866411
vn 0.071260 -0.690666 -0.719655
vn 0.058304 -0.806160 -0.588818
vn 0.058144 -0.807349 -0.587202
vn 0.064292 -0.757821 -0.649288
vn 0.067577 -0.727789 -0.682464
vn 0.071500 -0.688102 -0.722082
vn 0.080089 -0.582571 -0.808825
vn 0.090641 -0.392252 -0.915381
vn 0.096213 -0.215936 -0.971656
vn 0.097749 -0.126295 -0.987165
vn 0.098026 -0.101742 -0.989969
vn 0.098538 0.000000 -0.995133
vn -0.044701 -0.086467 0.995251
vn -0.044695 -0.087992 0.995118
vn -0.044785 -0.061356 0.997111
vn -0.044860 0.020290 0.998787
vn -0.044252 0.165353 0.985241
vn -0.042579 0.315403 0.948002
vn -0.040551 0.428043 0.902848
vn -0.037768 0.539889 0.840888
vn -0.032780 0.682831 0.729840
vn -0.024014 0.844731 0.534652
vn -0.012827 0.958268 0.285583
vn -0.000386 0.999963 0.008602
vn 0.013747 0.951906 -0.306081
vn 0.025231 0.826915 -0.561760
vn 0.032057 0.699688 -0.713729
vn 0.036769 0.573112 -0.818651
vn 0.040458 0.432375 -0.900786
vn 0.042874 0.294897 -0.954567
vn 0.044161 0.176966 -0.983226
vn 0.044762 0.069068 -0.996607
vn 0.044841 -0.035756 -0.998354
vn 0.044457 -0.135230 -0.989816
vn 0.043680 -0.228748 -0.972505
vn 0.042326 -0.331903 -0.942363
vn 0.039133 -0.489240 -0.871271
vn 0.032522 -0.688942 -0.724086
vn 0.026573 -0.805762 -0.591643
vn 0.026476 -0.807349 -0.589480
vn 0.029276 -0.757821 -0.651806
vn 0.030771 -0.727789 -0.685110
vn 0.032558 -0.688102 -0.724883
vn 0.036469 -0.582571 -0.811961
vn 0.041273 -0.392252 -0.918931
vn 0.043811 -0.215936 -0.975424
vn 0.044510 -0.126295 -0.990994
vn 0.044636 -0.101742 -0.993809
vn 0.044869 0.000000 -0.998993
vn 0.011205 -0.086181 0.996216
vn 0.011203 -0.087542 0.996098
vn 0.011226 -0.060886 0.998082
vn 0.011244 0.020073 0.999735
vn 0.011096 0.162996 0.986564
vn 0.010691 0.310256 0.950593
vn 0.010202 0.420777 0.907107
vn 0.009533 0.530588 0.847576
vn 0.008329 0.671961 0.740539
vn 0.006185 0.835208 0.549900
vn 0.003396 0.953314 0.301961
vn 0.000242 0.999768 0.021520
vn -0.003381 0.953754 -0.300568
vn -0.006326 0.826807 -0.562450
vn -0.008064 0.697059 -0.716968
vn -0.009251 0.568611 -0.822554
vn -0.010169 0.427088 -0.904153
vn -0.010762 0.290297 -0.956876
vn -0.011075 0.173890 -0.984703
vn -0.011221 0.067825 -0.997634
vn -0.011239 -0.035138 -0.999319
vn -0.011146 -0.133137 -0.991035
vn -0.010956 -0.225669 -0.974142
vn -0.010624 -0.328129 -0.944573
vn -0.009834 -0.485129 -0.874388
vn -0.008180 -0.686263 -0.727307
vn -0.006670 -0.805142 -0.593045
vn -0.006636 -0.807349 -0.590037
vn -0.007338 -0.757821 -0.652422
vn -0.007713 -0.727789 -0.685758
vn -0.008161 -0.688102 -0.725568
vn -0.009141 -0.582571 -0.812729
vn -0.010345 -0.392252 -0.919799
vn -0.010981 -0.215936 -0.976346
vn -0.011156 -0.126295 -0.991930
vn -0.011188 -0.101742 -0.994748
vn -0.011246 0.000000 -0.999937
vn 0.069161 -0.085790 0.993910
vn 0.069154 -0.086929 0.993811
vn 0.069291 -0.060249 0.995775
vn 0.069403 0.019781 0.997393
vn 0.068524 0.159854 0.984759
vn 0.066144 0.303419 0.950559
vn 0.063279 0.411119 0.909383
vn 0.059370 0.518187 0.853204
vn 0.052314 0.657316 0.751797
vn 0.039529 0.822033 0.568066
vn 0.022474 0.946140 0.322978
vn 0.002728 0.999228 0.039197
vn -0.020307 0.956254 -0.291832
vn -0.039061 0.826658 -0.561347
vn -0.050015 0.693455 -0.718762
vn -0.057394 0.562496 -0.824805
vn -0.062998 0.419987 -0.905341
vn -0.066555 0.284179 -0.956458
vn -0.068409 0.169820 -0.983098
vn -0.069265 0.066183 -0.995400
vn -0.069376 -0.034321 -0.997000
vn -0.068825 -0.130355 -0.989076
vn -0.067692 -0.221556 -0.972795
vn -0.065695 -0.323058 -0.944096
vn -0.060914 -0.479558 -0.875393
vn -0.050730 -0.682590 -0.729038
vn -0.041250 -0.804287 -0.592807
vn -0.040961 -0.807349 -0.588651
vn -0.045292 -0.757821 -0.650889
vn -0.047606 -0.727789 -0.684147
vn -0.050370 -0.688102 -0.723863
vn -0.056421 -0.582571 -0.810819
vn -0.063854 -0.392252 -0.917639
vn -0.067779 -0.215936 -0.974052
vn -0.068861 -0.126295 -0.989600
vn -0.069057 -0.101742 -0.992411
vn -0.069417 0.000000 -0.997588
vn 0.128666 -0.085298 0.988013
vn 0.128657 -0.086163 0.987939
vn 0.128909 -0.059459 0.989872
vn 0.129113 0.019422 0.991440
vn 0.127555 0.156031 0.979482
vn 0.123385 0.295136 0.947455
vn 0.118389 0.399411 0.909096
vn 0.111604 0.503104 0.856990
vn 0.099303 0.639279 0.762536
vn 0.076565 0.805276 0.587936
vn 0.045288 0.936488 0.347762
vn 0.007982 0.998088 0.061295
vn -0.036445 0.959349 -0.279858
vn -0.072702 0.826469 -0.558269
vn -0.093605 0.688904 -0.718783
vn -0.107434 0.554873 -0.824969
vn -0.117710 0.411266 -0.903883
vn -0.124093 0.276753 -0.952895
vn -0.127369 0.164913 -0.978050
vn -0.128871 0.064209 -0.989581
vn -0.129065 -0.033336 -0.991076
vn -0.128092 -0.126983 -0.983599
vn -0.126073 -0.216537 -0.968100
vn -0.122484 -0.316826 -0.940542
vn -0.113803 -0.472638 -0.873878
vn -0.094929 -0.677956 -0.728947
vn -0.076928 -0.803202 -0.590719
vn -0.076200 -0.807349 -0.585133
vn -0.084257 -0.757821 -0.647000
vn -0.088562 -0.727789 -0.680059
vn -0.093704 -0.688102 -0.719538
vn -0.104960 -0.582571 -0.805974
vn -0.118788 -0.392252 -0.912155
vn -0.126090 -0.215936 -0.968232
vn -0.128103 -0.126295 -0.983686
vn -0.128467 -0.101742 -0.986481
vn -0.129137 0.000000 -0.991627
vn 0.189118 -0.084718 0.978293
vn 0.189109 -0.085267 0.978247
vn 0.189475 -0.058543 0.980139
vn 0.189766 0.019011 0.981645
vn 0.187604 0.151699 0.970460
vn 0.181884 0.285802 0.940870
vn 0.175074 0.386210 0.905644
vn 0.165874 0.486041 0.858050
vn 0.149128 0.618600 0.771424
vn 0.117494 0.785359 0.607788
vn 0.072453 0.924272 0.374796
vn 0.016808 0.996071 0.086945
vn -0.051205 0.962921 -0.264880
vn -0.106917 0.826242 -0.553075
vn -0.138542 0.683518 -0.716666
vn -0.159014 0.545986 -0.822565
vn -0.173849 0.401279 -0.899306
vn -0.182838 0.268367 -0.945806
vn -0.187374 0.159412 -0.969267
vn -0.189435 0.062001 -0.979934
vn -0.189702 -0.032232 -0.981312
vn -0.188355 -0.123180 -0.974345
vn -0.185534 -0.210832 -0.959754
vn -0.180470 -0.309682 -0.933557
vn -0.168072 -0.464602 -0.869423
vn -0.140475 -0.672475 -0.726666
vn -0.113396 -0.801907 -0.586589
vn -0.111996 -0.807349 -0.579348
vn -0.123838 -0.757821 -0.640603
vn -0.130166 -0.727789 -0.673335
vn -0.137722 -0.688102 -0.712424
vn -0.154266 -0.582571 -0.798006
vn -0.174590 -0.392252 -0.903137
vn -0.185323 -0.215936 -0.958659
vn -0.188281 -0.126295 -0.973961
vn -0.188816 -0.101742 -0.976728
vn -0.189801 0.000000 -0.981823
vn 0.249837 -0.084072 0.964631
vn 0.249832 -0.084276 0.964615
vn 0.250309 -0.057542 0.966455
vn 0.250681 0.018566 0.967892
vn 0.247997 0.147082 0.957530
vn 0.240992 0.275911 0.930481
vn 0.232708 0.372224 0.898497
vn 0.221584 0.467908 0.855548
vn 0.201266 0.596329 0.777099
vn 0.162040 0.763093 0.625645
vn 0.104128 0.909680 0.402045
vn 0.029721 0.992949 0.114753
vn -0.064077 0.966791 -0.247404
vn -0.141331 0.825987 -0.545684
vn -0.184416 0.677488 -0.712039
vn -0.211632 0.536212 -0.817122
vn -0.230816 0.390510 -0.891193
vn -0.242138 0.259461 -0.934906
vn -0.247748 0.153617 -0.956568
vn -0.250277 0.059683 -0.966333
vn -0.250603 -0.031070 -0.967591
vn -0.248938 -0.119146 -0.961163
vn -0.245414 -0.204729 -0.947554
vn -0.239020 -0.301968 -0.922868
vn -0.223165 -0.455801 -0.861651
vn -0.186951 -0.666344 -0.721828
vn -0.150286 -0.800444 -0.580261
vn -0.147946 -0.807349 -0.571226
vn -0.163588 -0.757821 -0.631622
vn -0.171947 -0.727789 -0.663896
vn -0.181929 -0.688102 -0.702437
vn -0.203784 -0.582571 -0.786819
vn -0.230631 -0.392252 -0.890476
vn -0.244809 -0.215936 -0.945220
vn -0.248717 -0.126295 -0.960307
vn -0.249423 -0.101742 -0.963035
vn -0.250724 0.000000 -0.968059
vn 0.310097 -0.083390 0.947041
vn 0.310101 -0.083238 0.947053
vn 0.310684 -0.056504 0.948832
vn 0.311130 0.018112 0.950195
vn 0.308009 0.142427 0.940662
vn 0.299970 0.266002 0.916112
vn 0.290531 0.358216 0.887284
vn 0.277940 0.449704 0.848832
vn 0.254878 0.573696 0.778402
vn 0.209430 0.739626 0.639603
vn 0.139891 0.893255 0.427230
vn 0.046790 0.988631 0.142898
vn -0.074721 0.970743 -0.228199
vn -0.175534 0.825713 -0.536084
vn -0.230703 0.671085 -0.704571
vn -0.264649 0.526028 -0.808242
vn -0.287899 0.379524 -0.879247
vn -0.301258 0.250515 -0.920046
vn -0.307761 0.147843 -0.939907
vn -0.310668 0.057379 -0.948785
vn -0.311042 -0.029912 -0.949925
vn -0.309113 -0.115099 -0.944035
vn -0.304985 -0.198552 -0.931430
vn -0.297420 -0.294085 -0.908325
vn -0.278413 -0.446673 -0.850276
vn -0.233824 -0.659838 -0.714101
vn -0.187174 -0.798875 -0.571633
vn -0.183620 -0.807349 -0.560777
vn -0.203034 -0.757821 -0.620069
vn -0.213408 -0.727789 -0.651752
vn -0.225797 -0.688102 -0.689588
vn -0.252922 -0.582571 -0.772426
vn -0.286242 -0.392252 -0.874187
vn -0.303839 -0.215936 -0.927929
vn -0.308689 -0.126295 -0.942741
vn -0.309566 -0.101742 -0.945419
vn -0.311181 0.000000 -0.950351
vn 0.369173 -0.082707 0.925673
vn 0.369188 -0.082207 0.925712
vn 0.369871 -0.055486 0.927425
vn 0.370384 0.017672 0.928711
vn 0.366899 0.137977 0.919972
vn 0.358039 0.256594 0.897757
vn 0.347708 0.344926 0.871852
vn 0.334020 0.432403 0.837531
vn 0.308901 0.551957 0.774547
vn 0.258483 0.716323 0.648127
vn 0.178734 0.875903 0.448162
vn 0.067529 0.983244 0.169324
vn -0.083055 0.974542 -0.208254
vn -0.209114 0.825433 -0.524338
vn -0.276781 0.664639 -0.694008
vn -0.317321 0.515977 -0.795660
vn -0.344313 0.368906 -0.863340
vn -0.359431 0.242001 -0.901246
vn -0.366667 0.142390 -0.919391
vn -0.369877 0.055209 -0.927439
vn -0.370288 -0.028819 -0.928470
vn -0.368142 -0.111249 -0.923090
vn -0.363504 -0.192627 -0.911460
vn -0.354918 -0.286453 -0.889931
vn -0.333072 -0.437703 -0.835152
vn -0.280463 -0.653294 -0.703241
vn -0.223603 -0.797278 -0.560669
vn -0.218588 -0.807349 -0.548093
vn -0.241700 -0.757821 -0.606044
vn -0.254049 -0.727789 -0.637010
vn -0.268798 -0.688102 -0.673990
vn -0.301088 -0.582571 -0.754955
vn -0.340754 -0.392252 -0.854415
vn -0.361702 -0.215936 -0.906942
vn -0.367476 -0.126295 -0.921418
vn -0.368520 -0.101742 -0.924036
vn -0.370442 0.000000 -0.928856
vn 0.426376 -0.082061 0.900816
vn 0.426405 -0.081241 0.900877
vn 0.427182 -0.054542 0.902519
vn 0.427755 0.017268 0.903730
vn 0.423963 0.133957 0.895718
vn 0.414438 0.248147 0.875594
vn 0.403401 0.333006 0.852276
vn 0.388873 0.416872 0.821581
vn 0.362180 0.532273 0.765187
vn 0.307770 0.694604 0.650233
vn 0.219170 0.858809 0.463046
vn 0.090874 0.977180 0.191992
vn -0.089309 0.977968 -0.188686
vn -0.241671 0.825165 -0.510585
vn -0.321961 0.658521 -0.680214
vn -0.368852 0.506620 -0.779284
vn -0.399264 0.359216 -0.843535
vn -0.415906 0.234338 -0.878696
vn -0.423755 0.137516 -0.895277
vn -0.427211 0.053275 -0.902581
vn -0.427653 -0.027842 -0.903514
vn -0.425327 -0.107787 -0.898599
vn -0.420251 -0.187257 -0.887876
vn -0.410772 -0.279474 -0.867848
vn -0.386372 -0.429387 -0.816299
vn -0.326176 -0.647088 -0.689120
vn -0.259100 -0.795746 -0.547408
vn -0.252445 -0.807349 -0.533347
vn -0.279136 -0.757821 -0.589738
vn -0.293399 -0.727789 -0.619871
vn -0.310431 -0.688102 -0.655856
vn -0.347723 -0.582571 -0.734643
vn -0.393533 -0.392252 -0.831427
vn -0.417726 -0.215936 -0.882540
vn -0.424393 -0.126295 -0.896627
vn -0.425599 -0.101742 -0.899174
vn -0.427819 0.000000 -0.903864
vn 0.481099 -0.081493 0.872870
vn 0.481142 -0.080397 0.872948
vn 0.482007 -0.053726 0.874518
vn 0.482635 0.016924 0.875658
vn 0.478573 0.130560 0.868287
vn 0.468471 0.241049 0.849959
vn 0.456831 0.323000 0.828840
vn 0.441595 0.403829 0.801197
vn 0.413585 0.515634 0.750379
vn 0.355792 0.675805 0.645522
vn 0.259421 0.843307 0.470674
vn 0.115271 0.971068 0.209139
vn -0.094044 0.980837 -0.170627
vn -0.272844 0.824926 -0.495028
vn -0.365531 0.653118 -0.663193
vn -0.418451 0.498502 -0.759207
vn -0.452000 0.350957 -0.820076
vn -0.470003 0.227886 -0.852740
vn -0.478388 0.133437 -0.867952
vn -0.482060 0.051659 -0.874614
vn -0.482528 -0.027024 -0.875464
vn -0.480043 -0.104872 -0.870954
vn -0.474579 -0.182706 -0.861042
vn -0.464298 -0.273513 -0.842388
vn -0.437574 -0.422196 -0.793902
vn -0.370249 -0.641612 -0.671752
vn -0.293206 -0.794379 -0.531971
vn -0.284831 -0.807349 -0.516777
vn -0.314947 -0.757821 -0.571416
vn -0.331039 -0.727789 -0.600613
vn -0.350257 -0.688102 -0.635480
vn -0.392332 -0.582571 -0.711819
vn -0.444019 -0.392252 -0.805596
vn -0.471316 -0.215936 -0.855121
vn -0.478839 -0.126295 -0.868771
vn -0.480200 -0.101742 -0.871239
vn -0.482704 0.000000 -0.875783
f 1/1/1 38/38/38 39/39/39
f 1/1/1 39/39/39 2/2/2
f 2/2/2 39/39/39 40/40/40
f 2/2/2 40/40/40 3/3/3
f 3/3/3 40/40/40 41/41/41
f 3/3/3 41/41/41 4/4/4
f 4/4/4 41/41/41 42/42/42
f 4/4/4 42/42/42 5/5/5
f 5/5/5 42/42/42 43/43/43
f 5/5/5 43/43/43 6/6/6
f 6/6/6 43/43/43 44/44/44
f 6/6/6 44/44/44 7/7/7
f 7/7/7 44/44/44 45/45/45
f 7/7/7 45/45/45 8/8/8
f 8/8/8 45/45/45 46/46/46
f 8/8/8 46/46/46 9/9/9
f 9/9/9 46/46/46 47/47/47
f 9/9/9 47/47/47 10/10/10
f 10/10/10 47/47/47 48/48/48
f 10/10/10 48/48/48 11/11/11
f 11/11/11 48/48/48 49/49/49
f 11/11/11 49/49/49 12/12/12
f 12/12/12 49/49/49 50/50/50
f 12/12/12 50/50/50 13/13/13
f 13/13/13 50/50/50 51/51/51
f 13/13/13 51/51/51 14/14/14
f 14/14/14 51/51/51 52/52/52
f 14/14/14 52/52/52 15/15/15
f 15/15/15 52/52/52 53/53/53
f 15/15/15 53/53/53 16/16/16
f 16/16/16 53/53/53 54/54/54
f 16/16/16 54/54/54 17/17/17
f 17/17/17 54/54/54 55/55/55
f 17/17/17 55/55/55 18/18/18
f 18/18/18 55/55/55 56/56/56
f 18/18/18 56/56/56 19/19/19
f 19/19/19 56/56/56 57/57/57
f 19/19/19 57/57/57 20/20/20
f 20/20/20 57/57/57 58/58/58
f 20/20/20 58/58/58 21/21/21
f 21/21/21 58/58/58 59/59/59
f 21/21/21 59/59/59 22/22/22
f 22/22/22 59/59/59 60/60/60
f 22/22/22 60/60/60 23/23/23
f 23/23/23 60/60/60 61/61/61
f 23/23/23 61/61/61 24/24/24
f 24/24/24 61/61/61 62/62/62
f 24/24/24 62/62/62 25/25/25
f 25/25/25 62/62/62 63/63/63
f 25/25/25 63/63/63 26/26/26
f 26/26/26 63/63/63 64/64/64
f 26/26/26 64/64/64 27/27/27
f 27/27/27 64/64/64 65/65/65
f 27/27/27 65/65/65 28/28/28
f 28/28/28 65/65/65 66/66/66
f 28/28/28 66/66/66 29/29/29
f 29/29/29 66/66/66 67/67/67
f 29/29/29 67/67/67 30/30/30
f 30/30/30 67/67/67 68/68/68
f 30/30/30 68/68/68 31/31/31
f 31/31/31 68/68/68 69/69/69
f 31/31/31 69/69/69 32/32/32
f 32/32/32 69/69/69 70/70/70
f 32/32/32 70/70/70 33/33/33
f 33/33/33 70/70/70 71/71/71
f 33/33/33 71/71/71 34/34/34
f 34/34/34 71/71/71 72/72/72
f 34/34/34 72/72/72 35/35/35
f 35/35/35 72/72/72 73/73/73
f 35/35/35 73/73/73 36/36/36
f 36/36/36 73/73/73 74/74/74
f 36/36/36 74/74/74 37/37/37
f 38/38/38 75/75/75 76/76/76
f 38/38/38 76/76/76 39/39/39
f 39/39/39 76/76/76 77/77/77
f 39/39/39 77/77/77 40/40/40
f 40/40/40 77/77/77 78/78/78
f 40/40/40 78/78/78 41/41/41
f 41/41/41 78/78/78 79/79/79
f 41/41/41 79/79/79 42/42/42
f 42/42/42 79/79/79 80/80/80
f 42/42/42 80/80/80 43/43/43
f 43/43/43 80/80/80 81/81/81
f 43/43/43 81/81/81 44/44/44
f 44/44/44 81/81/81 82/82/82
f 44/44/44 82/82/82 45/45/45
f 45/45/45 82/82/82 83/83/83
f 45/45/45 83/83/83 46/46/46
f 46/46/46 83/83/83 84/84/84
f 46/46/46 84/84/84 47/47/47
f 47/47/47 84/84/84 85/85/85
f 47/47/47 85/85/85 48/48/48
f 48/48/48 85/85/85 86/86/86
f 48/48/48 86/86/86 49/49/49
f 49/49/49 86/86/86 87/87/87
f 49/49/49 87/87/87 50/50/50
f 50/50/50 87/87/87 88/88/88
f 50/50/50 88/88/88 51/51/51
f 51/51/51 88/88/88 89/89/89
f 51/51/51 89/89/89 52/52/52
f 52/52/52 89/89/89 90/90/90
f 52/52/52 90/90/90 53/53/53
f 53/53/53 90/90/90 91/91/91
f 53/53/53 91/91/91 54/54/54
f 54/54/54 91/91/91 92/92/92
f 54/54/54 92/92/92 55/55/55
f 55/55/55 92/92/92 93/93/93
f 55/55/55 93/93/93 56/56/56
f 56/56/56 93/93/93 94/94/94
f 56/56/56 94/94/94 57/57/57
f 57/57/57 94/94/94 95/95/95
f 57/57/57 95/95/95 58/58/58
f 58/58/58 95/95/95 96/96/96
f 58/58/58 96/96/96 59/59/59
f 59/59/59 96/96/96 97/97/97
f 59/59/59 97/97/97 60/60/60
f 60/60/60 97/97/97 98/98/98
f 60/60/60 98/98/98 61/61/61
f 61/61/61 98/98/98 99/99/99
f 61/61/61 99/99/99 62/62/62
f 62/62/62 99/99/99 100/100/100
f 62/62/62 100/100/100 63/63/63
f 63/63/63 100/100/100 101/101/101
f 63/63/63 101/101/101 64/64/64
f 64/64/64 101/101/101 102/102/102
f 64/64/64 102/102/102 65/65/65
f 65/65/65 102/102/102 103/103/103
f 65/65/65 103/103/103 66/66/66
f 66/66/66 103/103/103 104/104/104
f 66/66/66 104/104/104 67/67/67
f 67/67/67 104/104/104 105/105/105
f 67/67/67 105/105/105 68/68/68
f 68/68/68 105/105/105 106/106/106
f 68/68/68 106/106/106 69/69/69
f 69/69/69 106/106/106 107/107/107
f 69/69/69 107/107/107 70/70/70
f 70/70/70 107/107/107 108/108/108
f 70/70/70 108/108/108 71/71/71
f 71/71/71 108/108/108 109/109/109
f 71/71/71 109/109/109 72/72/72
f 72/72/72 109/109/109 110/110/110
f 72/72/72 110/110/110 73/73/73
f 73/73/73 110/110/110 111/111/111
f 73/73/73 111/111/111 74/74/74
f 75/75/75 112/112/112 113/113/113
f 75/75/75 113/113/113 76/76/76
f 76/76/76 113/113/113 114/114/114
f 76/76/76 114/114/114 77/77/77
f 77/77/77 114/114/114 115/115/115
f 77/77/77 115/115/115 78/78/78
f 78/78/78 115/115/115 116/116/116
f 78/78/78 116/116/116 79/79/79
f 79/79/79 116/116/116 117/117/117
f 79/79/79 117/117/117 80/80/80
f 80/80/80 117/117/117 118/118/118
f 80/80/80 118/118/118 81/81/81
f 81/81/81 118/118/118 119/119/119
f 81/81/81 119/119/119 82/82/82
f 82/82/82 119/119/119 120/120/120
f 82/82/82 120/120/120 83/83/83
f 83/83/83 120/120/120 121/121/121
f 83/83/83 121/121/121 84/84/84
f 84/84/84 121/121/121 122/122/122
f 84/84/84 122/122/122 85/85/85
f 85/85/85 122/122/122 123/123/123
f 85/85/85 123/123/123 86/86/86
f 86/86/86 123/123/123 124/124/124
f 86/86/86 124/124/124 87/87/87
f 87/87/87 124/124/124 125/125/125
f 87/87/87 125/125/125 88/88/88
f 88/88/88 125/125/125 126/126/126
f 88/88/88 126/126/126 89/89/89
f 89/89/89 126/126/126 127/127/127
f 89/89/89 127/127/127 90/90/90
f 90/90/90 127/127/127 128/128/128
f 90/90/90 128/128/128 91/91/91
f 91/91/91 128/128/128 129/129/129
f 91/91/91 129/129/129 92/92/92
f 92/92/92 129/129/129 130/130/130
f 92/92/92 130/130/130 93/93/93
f 93/93/93 130/130/130 131/131/131
f 93/93/93 131/131/131 94/94/94
f 94/94/94 131/131/131 132/132/132
f 94/94/94 132/132/132 95/95/95
f 95/95/95 132/132/132 133/133/133
f 95/95/95 133/133/133 96/96/96
f 96/96/96 133/133/133 134/134/134
f 96/96/96 134/134/134 97/97/97
f 97/97/97 134/134/134 135/135/135
f 97/97/97 135/135/135 98/98/98
f 98/98/98 135/135/135 136/136/136
f 98/98/98 136/136/136 99/99/99
f 99/99/99 136/136/136 137/137/137
f 99/99/99 137/137/137 100/100/100
f 100/100/100 137/137/137 138/138/138
f 100/100/100 138/138/138 101/101/101
f 101/101/101 138/138/138 139/139/139
f 101/101/101 139/139/139 102/102/102
f 102/102/102 139/139/139 140/140/140
f 102/102/102 140/140/140 103/103/103
f 103/103/103 140/140/140 141/141/141
f 103/103/103 141/141/141 104/104/104
f 104/104/104 141/141/141 142/142/142
f 104/104/104 142/142/142 105/105/105
f 105/105/105 142/142/142 143/143/143
f 105/105/105 143/143/143 106/106/106
f 106/106/106 143/143/143 144/144/144
f 106/106/106 144/144/144 107/107/107
f 107/107/107 144/144/144 145/145/145
f 107/107/107 145/145/145 108/108/108
f 108/108/108 145/145/145 146/146/146
f 108/108/108 146/146/146 109/109/109
f 109/109/109 146/146/146 147/147/147
f 109/109/109 147/147/147 110/110/110
f 110/110/110 147/147/147 148/148/148
f 110/110/110 148/148/148 111/111/111
f 112/112/112 149/149/149 150/150/150
f 112/112/112 150/150/150 113/113/113
f 113/113/113 150/150/150 151/151/151
f 113/113/113 151/151/151 114/114/114
f 114/114/114 151/151/151 152/152/152
f 114/114/114 152/152/152 115/115/115
f 115/115/115 152/152/152 153/153/153
f 115/115/115 153/153/153 116/116/116
f 116/116/116 153/153/153 154/154/154
f 116/116/116 154/154/154 117/117/117
f 117/117/117 154/154/154 155/155/155
f 117/117/117 155/155/155 118/118/118
f 118/118/118 155/155/155 156/156/156
f 118/118/118 156/156/156 119/119/119
f 119/119/119 156/156/156 157/157/157
f 119/119/119 157/157/157 120/120/120
f 120/120/120 157/157/157 158/158/158
f 120/120/120 158/158/158 121/121/121
f 121/121/121 158/158/158 159/159/159
f 121/121/121 159/159/159 122/122/122
f 122/122/122 159/159/159 160/160/160
f 122/122/122 160/160/160 123/123/123
f 123/123/123 160/160/160 161/161/161
f 123/123/123 161/161/161 124/124/124
f 124/124/124 161/161/161 162/162/162
f 124/124/124 162/162/162 125/125/125
f 125/125/125 162/162/162 163/163/163
f 125/125/125 163/163/163 126/126/126
f 126/126/126 163/163/163 164/164/164
f 126/126/126 164/164/164 127/127/127
f 127/127/127 164/164/164 165/165/165
f 127/127/127 165/165/165 128/128/128
f 128/128/128 165/165/165 166/166/166
f 128/128/128 166/166/166 129/129/129
f 129/129/129 166/166/166 167/167/167
f 129/129/129 167/167/167 130/130/130
f 130/130/130 167/167/167 168/168/168
f 130/130/130 168/168/168 131/131/131
f 131/131/131 168/168/168 169/169/169
f 131/131/131 169/169/169 132/132/132
f 132/132/132 169/169/169 170/170/170
f 132/132/132 170/170/170 133/133/133
f 133/133/133 170/170/170 171/171/171
f 133/133/133 171/171/171 134/134/134
f 134/134/134 171/171/171 172/172/172
f 134/134/134 172/172/172 135/135/135
f 135/135/135 172/172/172 173/173/173
f 135/135/135 173/173/173 136/136/136
f 136/136/136 173/173/173 174/174/174
f 136/136/136 174/174/174 137/137/137
f 137/137/137 174/174/174 175/175/175
f 137/137/137 175/175/175 138/138/138
f 138/138/138 175/175/175 176/176/176
f 138/138/138 176/176/176 139/139/139
f 139/139/139 176/176/176 177/177/177
f 139/139/139 177/177/177 140/140/140
f 140/140/140 177/177/177 178/178/178
f 140/140/140 178/178/178 141/141/141
f 141/141/141 178/178/178 179/179/179
f 141/141/141 179/179/179 142/142/142
f 142/142/142 179/179/179 180/180/180
f 142/142/142 180/180/180 143/143/143
f 143/143/143 180/180/180 181/181/181
f 143/143/143 181/181/181 144/144/144
f 144/144/144 181/181/181 182/182/182
f 144/144/144 182/182/182 145/145/145
f 145/145/145 182/182/182 183/183/183
f 145/145/145 183/183/183 146/146/146
f 146/146/146 183/183/183 184/184/184
f 146/146/146 184/184/184 147/147/147
f 147/147/147 184/184/184 185/185/185
f 147/147/147 185/185/185 148/148/148
f 149/149/149 186/186/186 187/187/187
f 149/149/149 187/187/187 150/150/150
f 150/150/150 187/187/187 188/188/188
f 150/150/150 188/188/188 151/151/151
f 151/151/151 188/188/188 189/189/189
f 151/151/151 189/189/189 152/152/152
f 152/152/152 189/189/189 190/190/190
f 152/152/152 190/190/190 153/153/153
f 153/153/153 190/190/190 191/191/191
f 153/153/153 191/191/191 154/154/154
f 154/154/154 191/191/191 192/192/192
f 154/154/154 192/192/192 155/155/155
f 155/155/155 192/192/192 193/193/193
f 155/155/155 193/193/193 156/156/156
f 156/156/156 193/193/193 194/194/194
f 156/156/156 194/194/194 157/157/157
f 157/157/157 194/194/194 195/195/195
f 157/157/157 195/195/195 158/158/158
f 158/158/158 195/195/195 196/196/196
f 158/158/158 196/196/196 159/159/159
f 159/159/159 196/196/196 197/197/197
f 159/159/159 197/197/197 160/160/160
f 160/160/160 197/197/197 198/198/198
f 160/160/160 198/198/198 161/161/161
f 161/161/161 198/198/198 199/199/199
f 161/161/161 199/199/199 162/162/162
f 162/162/162 199/199/199 200/200/200
f 162/162/162 200/200/200 163/163/163
f 163/163/163 200/200/200 201/201/201
f 163/163/163 201/201/201 164/164/164
f 164/164/164 201/201/201 202/202/202
f 164/164/164 202/202/202 165/165/165
f 165/165/165 202/202/202 203/203/203
f 165/165/165 203/203/203 166/166/166
f 166/166/166 203/203/203 204/204/204
f 166/166/166 204/204/204 167/167/167
f 167/167/167 204/204/204 205/205/205
f 167/167/167 205/205/205 168/168/168
f 168/168/168 205/205/205 206/206/206
f 168/168/168 206/206/206 169/169/169
f 169/169/169 206/206/206 207/207/207
f 169/169/169 207/207/207 170/170/170
f 170/170/170 207/207/207 208/208/208
f 170/170/170 208/208/208 171/171/171
f 171/171/171 208/208/208 209/209/209
f 171/171/171 209/209/209 172/172/172
f 172/172/172 209/209/209 210/210/210
f 172/172/172 210/210/210 173/173/173
f 173/173/173 210/210/210 211/211/211
f 173/173/173 211/211/211 174/174/174
f 174/174/174 211/211/211 212/212/212
f 174/174/174 212/212/212 175/175/175
f 175/175/175 212/212/212 213/213/213
f 175/175/175 213/213/213 176/176/176
f 176/176/176 213/213/213 214/214/214
f 176/176/176 214/214/214 177/177/177
f 177/177/177 214/214/214 215/215/215
f 177/177/177 215/215/215 178/178/178
f 178/178/178 215/215/215 216/216/216
f 178/178/178 216/216/216 179/179/179
f 179/179/179 216/216/216 217/217/217
f 179/179/179 217/217/217 180/180/180
f 180/180/180 217/217/217 218/218/218
f 180/180/180 218/218/218 181/181/181
f 181/181/181 218/218/218 219/219/219
f 181/181/181 219/219/219 182/182/182
f 182/182/182 219/219/219 220/220/220
f 182/182/182 220/220/220 183/183/183
f 183/183/183 220/220/220 221/221/221
f 183/183/183 221/221/221 184/184/184
f 184/184/184 221/221/221 222/222/222
f 184/184/184 222/222/222 185/185/185
f 186/186/186 223/223/223 224/224/224
f 186/186/186 224/224/224 187/187/187
f 187/187/187 224/224/224 225/225/225
f 187/187/187 225/225/225 188/188/188
f 188/188/188 225/225/225 226/226/226
f 188/188/188 226/226/226 189/189/189
f 189/189/189 226/226/226 227/227/227
f 189/189/189 227/227/227 190/190/190
f 190/190/190 227/227/227 228/228/228
f 190/190/190 228/228/228 191/191/191
f 191/191/191 228/228/228 229/229/229
f 191/191/191 229/229/229 192/192/192
f 192/192/192 229/229/229 230/230/230
f 192/192/192 230/230/230 193/193/193
f 193/193/193 230/230/230 231/231/231
f 193/193/193 231/231/231 194/194/194
f 194/194/194 231/231/231 232/232/232
f 194/194/194 232/232/232 195/195/195
f 195/195/195 232/232/232 233/233/233
f 195/195/195 233/233/233 196/196/196
f 196/196/196 233/233/233 234/234/234
f 196/196/196 234/234/234 197/197/197
f 197/197/197 234/234/234 235/235/235
f 197/197/197 235/235/235 198/198/198
f 198/198/198 235/235/235 236/236/236
f 198/198/198 236/236/236 199/199/199
f 199/199/199 236/236/236 237/237/237
f 199/199/199 237/237/237 200/200/200
f 200/200/200 237/237/237 238/238/238
f 200/200/200 238/238/238 201/201/201
f 201/201/201 238/238/238 239/239/239
f 201/201/201 239/239/239 202/202/202
f 202/202/202 239/239/239 240/240/240
f 202/202/202 240/240/240 203/203/203
f 203/203/203 240/240/240 241/241/241
f 203/203/203 241/241/241 204/204/204
f 204/204/204 241/241/241 242/242/242
f 204/204/204 242/242/242 205/205/205
f 205/205/205 242/242/242 243/243/243
f 205/205/205 243/243/243 206/206/206
f 206/206/206 243/243/243 244/244/244
f 206/206/206 244/244/244 207/207/207
f 207/207/207 244/244/244 245/245/245
f 207/207/207 245/245/245 208/208/208
f 208/208/208 245/245/245 246/246/246
f 208/208/208 246/246/246 209/209/209
f 209/209/209 246/246/246 247/247/247
f 209/209/209 247/247/247 210/210/210
f 210/210/210 247/247/247 248/248/248
f 210/210/210 248/248/248 211/211/211
f 211/211/211 248/248/248 249/249/249
f 211/211/211 249/249/249 212/212/212
f 212/212/212 249/249/249 250/250/250
f 212/212/212 250/250/250 213/213/213
f 213/213/213 250/250/250 251/251/251
f 213/213/213 251/251/251 214/214/214
f 214/214/214 251/251/251 252/252/252
f 214/214/214 252/252/252 215/215/215
f 215/215/215 252/252/252 253/253/253
f 215/215/215 253/253/253 216/216/216
f 216/216/216 253/253/253 254/254/254
f 216/216/216 254/254/254 217/217/217
f 217/217/217 254/254/254 255/255/255
f 217/217/217 255/255/255 218/218/218
f 218/218/218 255/255/255 256/256/256
f 218/218/218 256/256/256 219/219/219
f 219/219/219 256/256/256 257/257/257
f 219/219/219 257/257/257 220/220/220
f 220/220/220 257/257/257 258/258/258
f 220/220/220 258/258/258 221/221/221
f 221/221/221 258/258/258 259/259/259
f 221/221/221 259/259/259 222/222/222
f 223/223/223 260/260/260 261/261/261
f 223/223/223 261/261/261 224/224/224
f 224/224/224 261/261/261 262/262/262
f 224/224/224 262/262/262 225/225/225
f 225/225/225 262/262/262 263/263/263
f 225/225/225 263/263/263 226/226/226
f 226/226/226 263/263/263 264/264/264
f 226/226/226 264/264/264 227/227/227
f 227/227/227 264/264/264 265/265/265
f 227/227/227 265/265/265 228/228/228
f 228/228/228 265/265/265 266/266/266
f 228/228/228 266/266/266 229/229/229
f 229/229/229 266/266/266 267/267/267
f 229/229/229 267/267/267 230/230/230
f 230/230/230 267/267/267 268/268/268
f 230/230/230 268/268/268 231/231/231
f 231/231/231 268/268/268 269/269/269
f 231/231/231 269/269/269 232/232/232
f 232/232/232 269/269/269 270/270/270
f 232/232/232 270/270/270 233/233/233
f 233/233/233 270/270/270 271/271/271
f 233/233/233 271/271/271 234/234/234
f 234/234/234 271/271/271 272/272/272
f 234/234/234 272/272/272 235/235/235
f 235/235/235 272/272/272 273/273/273
f 235/235/235 273/273/273 236/236/236
f 236/236/236 273/273/273 274/274/274
f 236/236/236 274/274/274 237/237/237
f 237/237/237 274/274/274 275/275/275
f 237/237/237 275/275/275 238/238/238
f 238/238/238 275/275/275 276/276/276
f 238/238/238 276/276/276 239/239/239
f 239/239/239 276/276/276 277/277/277
f 239/239/239 277/277/277 240/240/240
f 240/240/240 277/277/277 278/278/278
f 240/240/240 278/278/278 241/241/241
f 241/241/241 278/278/278 279/279/279
f 241/241/241 279/279/279 242/242/242
f 242/242/242 279/279/279 280/280/280
f 242/242/242 280/280/280 243/243/243
f 243/243/243 280/280/280 281/281/281
f 243/243/243 281/281/281 244/244/244
f 244/244/244 281/281/281 282/282/282
f 244/244/244 282/282/282 245/245/245
f 245/245/245 282/282/282 283/283/283
f 245/245/245 283/283/283 246/246/246
f 246/246/246 283/283/283 284/284/284
f 246/246/246 284/284/284 247/247/247
f 247/247/247 284/284/284 285/285/285
f 247/247/247 285/285/285 248/248/248
f 248/248/248 285/285/285 286/286/286
f 248/248/248 286/286/286 249/249/249
f 249/249/249 286/286/286 287/287/287
f 249/249/249 287/287/287 250/250/250
f 250/250/250 287/287/287 288/288/288
f 250/250/250 288/288/288 251/251/251
f 251/251/251 288/288/288 289/289/289
f 251/251/251 289/289/289 252/252/252
f 252/252/252 289/289/289 290/290/290
f 252/252/252 290/290/290 253/253/253
f 253/253/253 290/290/290 291/291/291
f 253/253/253 291/291/291 254/254/254
f 254/254/254 291/291/291 292/292/292
f 254/254/254 292/292/292 255/255/255
f 255/255/255 292/292/292 293/293/293
f 255/255/255 293/293/293 256/256/256
f 256/256/256 293/293/293 294/294/294
f 256/256/256 294/294/294 257/257/257
f 257/257/257 294/294/294 295/295/295
f 257/257/257 295/295/295 258/258/258
f 258/258/258 295/295/295 296/296/296
f 258/258/258 296/296/296 259/259/259
f 260/260/260 297/297/297 298/298/298
f 260/260/260 298/298/298 261/261/261
f 261/261/261 298/298/298 299/299/299
f 261/261/261 299/299/299 262/262/262
f 262/262/262 299/299/299 300/300/300
f 262/262/262 300/300/300 263/263/263
f 263/263/263 300/300/300 301/301/301
f 263/263/263 301/301/301 264/264/264
f 264/264/264 301/301/301 302/302/302
f 264/264/264 302/302/302 265/265/265
f 265/265/265 302/302/302 303/303/303
f 265/265/265 303/303/303 266/266/266
f 266/266/266 303/303/303 304/304/304
f 266/266/266 304/304/304 267/267/267
f 267/267/267 304/304/304 305/305/305
f 267/267/267 305/305/305 268/268/268
f 268/268/268 305/305/305 306/306/306
f 268/268/268 306/306/306 269/269/269
f 269/269/269 306/306/306 307/307/307
f 269/269/269 307/307/307 270/270/270
f 270/270/270 307/307/307 308/308/308
f 270/270/270 308/308/308 271/271/271
f 271/271/271 308/308/308 309/309/309
f 271/271/271 309/309/309 272/272/272
f 272/272/272 309/309/309 310/310/310
f 272/272/272 310/310/310 273/273/273
f 273/273/273 310/310/310 311/311/311
f 273/273/273 311/311/311 274/274/274
f 274/274/274 311/311/311 312/312/312
f 274/274/274 312/312/312 275/275/275
f 275/275/275 312/312/312 313/313/313
f 275/275/275 313/313/313 276/276/276
f 276/276/276 313/313/313 314/314/314
f 276/276/276 314/314/314 277/277/277
f 277/277/277 314/314/314 315/315/315
f 277/277/277 315/315/315 278/278/278
f 278/278/278 315/315/315 316/316/316
f 278/278/278 316/316/316 279/279/279
f 279/279/279 316/316/316 317/317/317
f 279/279/279 317/317/317 280/280/280
f 280/280/280 317/317/317 318/318/318
f 280/280/280 318/318/318 281/281/281
f 281/281/281 318/318/318 319/319/319
f 281/281/281 319/319/319 282/282/282
f 282/282/282 319/319/319 320/320/320
f 282/282/282 320/320/320 283/283/283
f 283/283/283 320/320/320 321/321/321
f 283/283/283 321/321/321 284/284/284
f 284/284/284 321/321/321 322/322/322
f 284/284/284 322/322/322 285/285/285
f 285/285/285 322/322/322 323/323/323
f 285/285/285 323/323/323 286/286/286
f 286/286/286 323/323/323 324/324/324
f 286/286/286 324/324/324 287/287/287
f 287/287/287 324/324/324 325/325/325
f 287/287/287 325/325/325 288/288/288
f 288/288/288 325/325/325 326/326/326
f 288/288/288 326/326/326 289/289/289
f 289/289/289 326/326/326 327/327/327
f 289/289/289 327/327/327 290/290/290
f 290/290/290 327/327/327 328/328/328
f 290/290/290 328/328/328 291/291/291
f 291/291/291 328/328/328 329/329/329
f 291/291/291 329/329/329 292/292/292
f 292/292/292 329/329/329 330/330/330
f 292/292/292 330/330/330 293/293/293
f 293/293/293 330/330/330 331/331/331
f 293/293/293 331/331/331 294/294/294
f 294/294/294 331/331/331 332/332/332
f 294/294/294 332/332/332 295/295/295
f 295/295/295 332/332/332 333/333/333
f 295/295/295 333/333/333 296/296/296
f 297/297/297 334/334/334 335/335/335
f 297/297/297 335/335/335 298/298/298
f 298/298/298 335/335/335 336/336/336
f 298/298/298 336/336/336 299/299/299
f 299/299/299 336/336/336 337/337/337
f 299/299/299 337/337/337 300/300/300
f 300/300/300 337/337/337 338/338/338
f 300/300/300 338/338/338 301/301/301
f 301/301/301 338/338/338 339/339/339
f 301/301/301 339/339/339 302/302/302
f 302/302/302 339/339/339 340/340/340
f 302/302/302 340/340/340 303/303/303
f 303/303/303 340/340/340 341/341/341
f 303/303/303 341/341/341 304/304/304
f 304/304/304 341/341/341 342/342/342
f 304/304/304 342/342/342 305/305/305
f 305/305/305 342/342/342 343/343/343
f 305/305/305 343/343/343 306/306/306
f 306/306/306 343/343/343 344/344/344
f 306/306/306 344/344/344 307/307/307
f 307/307/307 344/344/344 345/345/345
f 307/307/307 345/345/345 308/308/308
f 308/308/308 345/345/345 346/346/346
f 308/308/308 346/346/346 309/309/309
f 309/309/309 346/346/346 347/347/347
f 309/309/309 347/347/347 310/310/310
f 310/310/310 347/347/347 348/348/348
f 310/310/310 348/348/348 311/311/311
f 311/311/311 348/348/348 349/349/349
f 311/311/311 349/349/349 312/312/312
f 312/312/312 349/349/349 350/350/350
f 312/312/312 350/350/350 313/313/313
f 313/313/313 350/350/350 351/351/351
f 313/313/313 351/351/351 314/314/314
f 314/314/314 351/351/351 352/352/352
f 314/314/314 352/352/352 315/315/315
f 315/315/315 352/352/352 353/353/353
f 315/315/315 353/353/353 316/316/316
f 316/316/316 353/353/353 354/354/354
f 316/316/316 354/354/354 317/317/317
f 317/317/317 354/354/354 355/355/355
f 317/317/317 355/355/355 318/318/318
f 318/318/318 355/355/355 356/356/356
f 318/318/318 356/356/356 319/319/319
f 319/319/319 356/356/356 357/357/357
f 319/319/319 357/357/357 320/320/320
f 320/320/320 357/357/357 358/358/358
f 320/320/320 358/358/358 321/321/321
f 321/321/321 358/358/358 359/359/359
f 321/321/321 359/359/359 322/322/322
f 322/322/322 359/359/359 360/360/360
f 322/322/322 360/360/360 323/323/323
f 323/323/323 360/360/360 361/361/361
f 323/323/323 361/361/361 324/324/324
f 324/324/324 361/361/361 362/362/362
f 324/324/324 362/362/362 325/325/325
f 325/325/325 362/362/362 363/363/363
f 325/325/325 363/363/363 326/326/326
f 326/326/326 363/363/363 364/364/364
f 326/326/326 364/364/364 327/327/327
f 327/327/327 364/364/364 365/365/365
f 327/327/327 365/365/365 328/328/328
f 328/328/328 365/365/365 366/366/366
f 328/328/328 366/366/366 329/329/329
f 329/329/329 366/366/366 367/367/367
f 329/329/329 367/367/367 330/330/330
f 330/330/330 367/367/367 368/368/368
f 330/330/330 368/368/368 331/331/331
f 331/331/331 368/368/368 369/369/369
f 331/331/331 369/369/369 332/332/332
f 332/332/332 369/369/369 370/370/370
f 332/332/332 370/370/370 333/333/333
f 334/334/334 371/371/371 372/372/372
f 334/334/334 372/372/372 335/335/335
f 335/335/335 372/372/372 373/373/373
f 335/335/335 373/373/373 336/336/336
f 336/336/336 373/373/373 374/374/374
f 336/336/336 374/374/374 337/337/337
f 337/337/337 374/374/374 375/375/375
f 337/337/337 375/375/375 338/338/338
f 338/338/338 375/375/375 376/376/376
f 338/338/338 376/376/376 339/339/339
f 339/339/339 376/376/376 377/377/377
f 339/339/339 377/377/377 340/340/340
f 340/340/340 377/377/377 378/378/378
f 340/340/340 378/378/378 341/341/341
f 341/341/341 378/378/378 379/379/379
f 341/341/341 379/379/379 342/342/342
f 342/342/342 379/379/379 380/380/380
f 342/342/342 380/380/380 343/343/343
f 343/343/343 380/380/380 381/381/381
f 343/343/343 381/381/381 344/344/344
f 344/344/344 381/381/381 382/382/382
f 344/344/344 382/382/382 345/345/345
f 345/345/345 382/382/382 383/383/383
f 345/345/345 383/383/383 346/346/346
f 346/346/346 383/383/383 384/384/384
f 346/346/346 384/384/384 347/347/347
f 347/347/347 384/384/384 385/385/385
f 347/347/347 385/385/385 348/348/348
f 348/348/348 385/385/385 386/386/386
f 348/348/348 386/386/386 349/349/349
f 349/349/349 386/386/386 387/387/387
f 349/349/349 387/387/387 350/350/350
f 350/350/350 387/387/387 388/388/388
f 350/350/350 388/388/388 351/351/351
f 351/351/351 388/388/388 389/389/389
f 351/351/351 389/389/389 352/352/352
f 352/352/352 389/389/389 390/390/390
f 352/352/352 390/390/390 353/353/353
f 353/353/353 390/390/390 391/391/391
f 353/353/353 391/391/391 354/354/354
f 354/354/354 391/391/391 392/392/392
f 354/354/354 392/392/392 355/355/355
f 355/355/355 392/392/392 393/393/393
f 355/355/355 393/393/393 356/356/356
f 356/356/356 393/393/393 394/394/394
f 356/356/356 394/394/394 357/357/357
f 357/357/357 394/394/394 395/395/395
f 357/357/357 395/395/395 358/358/358
f 358/358/358 395/395/395 396/396/396
f 358/358/358 396/396/396 359/359/359
f 359/359/359 396/396/396 397/397/397
f 359/359/359 397/397/397 360/360/360
f 360/360/360 397/397/397 398/398/398
f 360/360/360 398/398/398 361/361/361
f 361/361/361 398/398/398 399/399/399
f 361/361/361 399/399/399 362/362/362
f 362/362/362 399/399/399 400/400/400
f 362/362/362 400/400/400 363/363/363
f 363/363/363 400/400/400 401/401/401
f 363/363/363 401/401/401 364/364/364
f 364/364/364 401/401/401 402/402/402
f 364/364/364 402/402/402 365/365/365
f 365/365/365 402/402/402 403/403/403
f 365/365/365 403/403/403 366/366/366
f 366/366/366 403/403/403 404/404/404
f 366/366/366 404/404/404 367/367/367
f 367/367/367 404/404/404 405/405/405
f 367/367/367 405/405/405 368/368/368
f 368/368/368 405/405/405 406/406/406
f 368/368/368 406/406/406 369/369/369
f 369/369/369 406/406/406 407/407/407
f 369/369/369 407/407/407 370/370/370
