# Generated sky cornice; visual geometry only.
s 1
v -64.000000 -4.088256 -3.745605
v -64.000000 -2.487492 -3.875188
v -64.000000 0.138094 -4.081426
v -64.000000 3.265543 -4.178157
v -64.000000 6.350445 -3.979220
v -64.000000 9.274699 -3.415259
v -64.000000 12.180257 -2.592133
v -64.000000 14.893030 -1.586495
v -64.000000 17.236113 -0.475000
v -64.000000 19.085840 0.789804
v -64.000000 20.396630 2.226169
v -64.000000 21.121294 3.713638
v -64.000000 21.230908 5.131752
v -64.000000 20.621374 6.534352
v -64.000000 19.292485 7.957029
v -64.000000 17.405163 9.251948
v -64.000000 15.143803 10.271274
v -64.000000 12.590942 10.990369
v -64.000000 9.748514 11.483150
v -64.000000 6.705889 11.749617
v -64.000000 3.560725 11.789769
v -64.000000 0.336608 11.584444
v -64.000000 -2.843951 11.140029
v -64.000000 -5.739632 10.494851
v -64.000000 -8.123214 9.687238
v -64.000000 -9.842472 8.638709
v -64.000000 -10.965288 7.358391
v -64.000000 -11.861419 6.016020
v -64.000000 -12.848806 4.781330
v -64.000000 -13.912848 3.633333
v -64.000000 -14.995141 2.503587
v -64.000000 -16.172340 1.490648
v -64.000000 -17.521099 0.693073
v -64.000000 -19.273209 0.168353
v -64.000000 -21.317337 -0.146479
v -64.000000 -23.215456 -0.333554
v -64.000000 -24.529539 -0.475000
v -56.000000 -3.838517 -3.545813
v -56.000000 -2.317993 -3.667481
v -56.000000 0.198814 -3.861120
v -56.000000 3.217872 -3.951942
v -56.000000 6.223196 -3.765157
v -56.000000 9.097533 -3.235647
v -56.000000 11.966637 -2.462803
v -56.000000 14.658807 -1.518597
v -56.000000 16.999458 -0.475000
v -56.000000 18.864252 0.712541
v -56.000000 20.202904 2.061163
v -56.000000 20.964797 3.457766
v -56.000000 21.118007 4.789251
v -56.000000 20.561855 6.106171
v -56.000000 19.295204 7.441941
v -56.000000 17.470250 8.657756
v -56.000000 15.263221 9.614815
v -56.000000 12.756511 10.289983
v -56.000000 9.958359 10.752661
v -56.000000 6.960236 11.002850
v -56.000000 3.862103 11.040550
v -56.000000 0.694588 10.847767
v -56.000000 -2.419073 10.430500
v -56.000000 -5.244855 9.824734
v -56.000000 -7.563159 9.066456
v -56.000000 -9.226362 8.081979
v -56.000000 -10.295450 6.879872
v -56.000000 -11.136839 5.619502
v -56.000000 -12.063909 4.460236
v -56.000000 -13.062952 3.382367
v -56.000000 -14.079131 2.321634
v -56.000000 -15.184418 1.370573
v -56.000000 -16.450786 0.621719
v -56.000000 -18.095864 0.129052
v -56.000000 -20.015122 -0.166548
v -56.000000 -21.797291 -0.342194
v -56.000000 -23.031100 -0.475000
v -48.000000 -3.546085 -3.311868
v -48.000000 -2.129814 -3.424266
v -48.000000 0.229335 -3.603153
v -48.000000 3.072975 -3.687056
v -48.000000 5.921238 -3.514501
v -48.000000 8.661599 -3.025331
v -48.000000 11.405262 -2.311365
v -48.000000 13.988161 -1.439092
v -48.000000 16.243407 -0.475000
v -48.000000 18.050703 0.622070
v -48.000000 19.358649 1.867949
v -48.000000 20.116316 3.158154
v -48.000000 20.291066 4.388202
v -48.000000 19.787947 5.604794
v -48.000000 18.605286 6.838799
v -48.000000 16.884415 7.961990
v -48.000000 14.790180 8.846137
v -48.000000 12.401935 9.469868
v -48.000000 9.731529 9.897297
v -48.000000 6.868462 10.128426
v -48.000000 3.910536 10.163254
v -48.000000 0.891652 9.985158
v -48.000000 -2.068927 9.599680
v -48.000000 -4.750084 9.040063
v -48.000000 -6.944817 8.339553
v -48.000000 -8.513650 7.430077
v -48.000000 -9.511105 6.319551
v -48.000000 -10.288395 5.155201
v -48.000000 -11.144837 4.084252
v -48.000000 -12.067769 3.088498
v -48.000000 -13.006532 2.108576
v -48.000000 -14.027614 1.229970
v -48.000000 -15.197505 0.538167
v -48.000000 -16.717256 0.083033
v -48.000000 -18.490298 -0.190047
v -48.000000 -20.136695 -0.352312
v -48.000000 -21.276508 -0.475000
v -40.000000 -3.230405 -3.059324
v -40.000000 -1.935573 -3.161716
v -40.000000 0.227210 -3.324678
v -40.000000 2.839564 -3.401112
v -40.000000 5.463063 -3.243918
v -40.000000 7.993516 -2.798295
v -40.000000 10.530235 -2.147888
v -40.000000 12.921579 -1.353266
v -40.000000 15.013272 -0.475000
v -40.000000 16.693549 0.524406
v -40.000000 17.913607 1.659374
v -40.000000 18.625379 2.834723
v -40.000000 18.797874 3.955269
v -40.000000 18.343815 5.063558
v -40.000000 17.261427 6.187710
v -40.000000 15.679755 7.210911
v -40.000000 13.749786 8.016349
v -40.000000 11.545108 8.584554
v -40.000000 9.078213 8.973934
v -40.000000 6.432633 9.184487
v -40.000000 3.699652 9.216214
v -40.000000 0.912394 9.053973
v -40.000000 -1.818321 8.702810
v -40.000000 -4.289093 8.193012
v -40.000000 -6.309692 7.554863
v -40.000000 -7.751816 6.726351
v -40.000000 -8.664407 5.714686
v -40.000000 -9.372500 4.653988
v -40.000000 -10.152700 3.678377
v -40.000000 -10.993471 2.771268
v -40.000000 -11.848663 1.878581
v -40.000000 -12.778846 1.078190
v -40.000000 -13.844591 0.447973
v -40.000000 -15.229050 0.033356
v -40.000000 -16.844253 -0.215414
v -40.000000 -18.344083 -0.363234
v -40.000000 -19.382428 -0.475000
v -32.000000 -2.912679 -2.805143
v -32.000000 -1.747280 -2.897465
v -32.000000 0.196665 -3.044399
v -32.000000 2.542284 -3.113315
v -32.000000 4.894844 -2.971582
v -32.000000 7.161156 -2.569788
v -32.000000 9.431659 -1.983352
v -32.000000 11.570601 -1.266885
v -32.000000 13.439887 -0.475000
v -32.000000 14.939721 0.426110
v -32.000000 16.026985 1.449449
v -32.000000 16.659091 2.509196
v -32.000000 16.808658 3.519531
v -32.000000 16.397344 4.518814
v -32.000000 15.423659 5.532401
v -32.000000 14.003825 6.454966
v -32.000000 12.273613 7.181185
v -32.000000 10.298790 7.693505
v -32.000000 8.089861 8.044587
v -32.000000 5.721244 8.234431
v -32.000000 3.274264 8.263037
v -32.000000 0.777783 8.116753
v -32.000000 -1.669252 7.800130
v -32.000000 -3.884329 7.340472
v -32.000000 -5.696671 6.765088
v -32.000000 -6.991150 6.018064
v -32.000000 -7.812222 5.105901
v -32.000000 -8.450670 4.149528
v -32.000000 -9.154135 3.269873
v -32.000000 -9.912211 2.451983
v -32.000000 -10.683291 1.647095
v -32.000000 -11.521987 0.925427
v -32.000000 -12.482911 0.357194
v -32.000000 -13.731202 -0.016643
v -32.000000 -15.187541 -0.240945
v -32.000000 -16.539857 -0.374227
v -32.000000 -17.476075 -0.475000
v -24.000000 -2.613993 -2.566194
v -24.000000 -1.575736 -2.649048
v -24.000000 0.146405 -2.780915
v -24.000000 2.215520 -2.842764
v -24.000000 4.279457 -2.715565
v -24.000000 6.257354 -2.354974
v -24.000000 8.233651 -1.828675
v -24.000000 10.090105 -1.185679
v -24.000000 11.706476 -0.475000
v -24.000000 12.996780 0.333704
v -24.000000 13.925581 1.252102
v -24.000000 14.457403 2.203176
v -24.000000 14.569748 3.109904
v -24.000000 14.193586 4.006714
v -24.000000 13.327992 4.916360
v -24.000000 12.076787 5.744319
v -24.000000 10.560472 6.396067
v -24.000000 8.835939 6.855849
v -24.000000 6.909820 7.170929
v -24.000000 4.845611 7.341305
v -24.000000 2.712702 7.366978
v -24.000000 0.533301 7.235695
v -24.000000 -1.607363 6.951540
v -24.000000 -3.548734 6.539020
v -24.000000 -5.140271 6.022639
v -24.000000 -6.280696 5.352220
v -24.000000 -7.011102 4.533597
v -24.000000 -7.584080 3.675297
v -24.000000 -8.215406 2.885848
v -24.000000 -8.895744 2.151829
v -24.000000 -9.587752 1.429480
v -24.000000 -10.340442 0.781817
v -24.000000 -11.202826 0.271855
v -24.000000 -12.323109 -0.063646
v -24.000000 -13.630105 -0.264947
v -24.000000 -14.843745 -0.384561
v -24.000000 -15.683957 -0.475000
v -16.000000 -2.353454 -2.357763
v -16.000000 -1.430222 -2.432359
v -16.000000 0.086323 -2.551082
v -16.000000 1.894837 -2.606767
v -16.000000 3.681446 -2.492246
v -16.000000 5.377535 -2.167595
v -16.000000 7.064079 -1.693753
v -16.000000 8.640046 -1.114845
v -16.000000 10.002761 -0.475000
v -16.000000 11.080221 0.253100
v -16.000000 11.845449 1.079960
v -16.000000 12.270657 1.936239
v -16.000000 12.338723 2.752594
v -16.000000 11.989431 3.560017
v -16.000000 11.222571 4.378998
v -16.000000 10.130886 5.124434
v -16.000000 8.820833 5.711221
v -16.000000 7.340408 6.125177
v -16.000000 5.691359 6.408852
v -16.000000 3.925879 6.562247
v -16.000000 2.101003 6.585361
v -16.000000 0.231145 6.467163
v -16.000000 -1.612359 6.211330
v -16.000000 -3.289855 5.839926
v -16.000000 -4.669923 5.375013
v -16.000000 -5.664469 4.771416
v -16.000000 -6.312299 4.034385
v -16.000000 -6.828168 3.261633
v -16.000000 -7.396569 2.550869
v -16.000000 -8.009097 1.890011
v -16.000000 -8.632132 1.239659
v -16.000000 -9.309800 0.656549
v -16.000000 -10.086230 0.197415
v -16.000000 -11.094853 -0.104646
v -16.000000 -12.271580 -0.285883
v -16.000000 -13.364255 -0.393575
v -16.000000 -14.120722 -0.475000
v -8.000000 -2.146528 -2.192222
v -8.000000 -1.318231 -2.260260
v -8.000000 0.024499 -2.368544
v -8.000000 1.609177 -2.419333
v -8.000000 3.153319 -2.314881
v -8.000000 4.599334 -2.018775
v -8.000000 6.026981 -1.586595
v -8.000000 7.350578 -1.058587
v -8.000000 8.483133 -0.475000
v -8.000000 9.365427 0.189082
v -8.000000 9.978726 0.943242
v -8.000000 10.302634 1.724233
v -8.000000 10.325274 2.468810
v -8.000000 9.994029 3.205242
v -8.000000 9.309449 3.952214
v -8.000000 8.355255 4.632108
v -8.000000 7.226114 5.167302
v -8.000000 5.961961 5.544861
v -8.000000 4.559354 5.803595
v -8.000000 3.059966 5.943502
v -8.000000 1.509334 5.964584
v -8.000000 -0.086050 5.856779
v -8.000000 -1.667556 5.623440
v -8.000000 -3.113654 5.284691
v -8.000000 -4.309384 4.860656
v -8.000000 -5.178080 4.310129
v -8.000000 -5.757295 3.637901
v -8.000000 -6.227806 2.933092
v -8.000000 -6.746231 2.284822
v -8.000000 -7.304903 1.682069
v -8.000000 -7.873158 1.088899
v -8.000000 -8.491244 0.557058
v -8.000000 -9.199406 0.138294
v -8.000000 -10.119347 -0.137209
v -8.000000 -11.192611 -0.302511
v -8.000000 -12.189213 -0.400734
v -8.000000 -12.879169 -0.475000
v 0.000000 -2.003726 -2.077981
v 0.000000 -1.245064 -2.141492
v 0.000000 -0.034405 -2.242573
v 0.000000 1.376394 -2.289982
v 0.000000 2.727644 -2.192480
v 0.000000 3.970858 -1.916073
v 0.000000 5.186722 -1.512644
v 0.000000 6.302084 -1.019763
v 0.000000 7.242766 -0.475000
v 0.000000 7.960304 0.144903
v 0.000000 8.443411 0.848891
v 0.000000 8.678277 1.577925
v 0.000000 8.657759 2.272967
v 0.000000 8.335178 2.960407
v 0.000000 7.711827 3.657685
v 0.000000 6.864942 4.292348
v 0.000000 5.880329 4.791938
v 0.000000 4.791208 5.144379
v 0.000000 3.589048 5.385899
v 0.000000 2.306485 5.516499
v 0.000000 0.979181 5.536179
v 0.000000 -0.393831 5.435545
v 0.000000 -1.764618 5.217729
v 0.000000 -3.025904 4.901516
v 0.000000 -4.075559 4.505691
v 0.000000 -4.845907 3.991789
v 0.000000 -5.374280 3.364283
v 0.000000 -5.813490 2.706363
v 0.000000 -6.297425 2.101220
v 0.000000 -6.818931 1.538566
v 0.000000 -7.349382 0.984858
v 0.000000 -7.926348 0.488399
v 0.000000 -8.587398 0.097493
v 0.000000 -9.446138 -0.159681
v 0.000000 -10.448001 -0.313986
v 0.000000 -11.378303 -0.405675
v 0.000000 -12.022358 -0.475000
v 8.000000 -1.929762 -2.018810
v 8.000000 -1.213258 -2.079976
v 8.000000 -0.088922 -2.177326
v 8.000000 1.203121 -2.222986
v 8.000000 2.416667 -2.129082
v 8.000000 3.510154 -1.862878
v 8.000000 4.567360 -1.474341
v 8.000000 5.524489 -0.999654
v 8.000000 6.316945 -0.475000
v 8.000000 6.904689 0.122020
v 8.000000 7.282893 0.800021
v 8.000000 7.443346 1.502145
v 8.000000 7.383014 2.171531
v 8.000000 7.059315 2.833595
v 8.000000 6.474254 3.505135
v 8.000000 5.701322 4.116370
v 8.000000 4.820664 4.597518
v 8.000000 3.860317 4.936949
v 8.000000 2.806888 5.169555
v 8.000000 1.685705 5.295334
v 8.000000 0.524447 5.314287
v 8.000000 -0.684663 5.217368
v 8.000000 -1.902082 5.007592
v 8.000000 -3.030502 4.703052
v 8.000000 -3.976609 4.321838
v 8.000000 -4.679017 3.826905
v 8.000000 -5.175898 3.222562
v 8.000000 -5.598895 2.588928
v 8.000000 -6.064967 2.006123
v 8.000000 -6.567222 1.464239
v 8.000000 -7.078092 0.930970
v 8.000000 -7.633760 0.452837
v 8.000000 -8.270410 0.076361
v 8.000000 -9.097450 -0.171321
v 8.000000 -10.062332 -0.319930
v 8.000000 -10.958293 -0.408234
v 8.000000 -11.578573 -0.475000
v 16.000000 -1.923266 -2.013613
v 16.000000 -1.222004 -2.074574
v 16.000000 -0.139193 -2.171596
v 16.000000 1.088058 -2.217101
v 16.000000 2.217907 -2.123514
v 16.000000 3.213588 -1.858206
v 16.000000 4.164100 -1.470977
v 16.000000 5.011894 -0.997888
v 16.000000 5.698794 -0.475000
v 16.000000 6.190914 0.120010
v 16.000000 6.488917 0.795729
v 16.000000 6.589235 1.495489
v 16.000000 6.492330 2.162622
v 16.000000 6.157912 2.822457
v 16.000000 5.588672 3.491737
v 16.000000 4.857042 4.100914
v 16.000000 4.040633 4.580443
v 16.000000 3.163807 4.918731
v 16.000000 2.208521 5.150554
v 16.000000 1.194484 5.275909
v 16.000000 0.143239 5.294799
v 16.000000 -0.959169 5.198206
v 16.000000 -2.079333 4.989137
v 16.000000 -3.125718 4.685621
v 16.000000 -4.009900 4.305690
v 16.000000 -4.674134 3.812424
v 16.000000 -5.158475 3.210115
v 16.000000 -5.580048 2.578614
v 16.000000 -6.044551 1.997771
v 16.000000 -6.545115 1.457711
v 16.000000 -7.054266 0.926237
v 16.000000 -7.608063 0.449713
v 16.000000 -8.242569 0.074505
v 16.000000 -9.066826 -0.172343
v 16.000000 -10.028460 -0.320452
v 16.000000 -10.921405 -0.408458
v 16.000000 -11.539597 -0.475000
v 24.000000 -1.977074 -2.056659
v 24.000000 -1.266827 -2.119326
v 24.000000 -0.185002 -2.219062
v 24.000000 1.026485 -2.265841
v 24.000000 2.121957 -2.169635
v 24.000000 3.067478 -1.896905
v 24.000000 3.959100 -1.498842
v 24.000000 4.742659 -1.012517
v 24.000000 5.363498 -0.475000
v 24.000000 5.791767 0.136657
v 24.000000 6.032687 0.831281
v 24.000000 6.086417 1.550618
v 24.000000 5.956318 2.236416
v 24.000000 5.602757 2.914711
v 24.000000 5.029071 3.602716
v 24.000000 4.309048 4.228936
v 24.000000 3.520596 4.721881
v 24.000000 2.685786 5.069634
v 24.000000 1.782180 5.307942
v 24.000000 0.825454 5.436805
v 24.000000 -0.167258 5.456223
v 24.000000 -1.215441 5.356928
v 24.000000 -2.289730 5.142009
v 24.000000 -3.300544 4.830002
v 24.000000 -4.160776 4.439442
v 24.000000 -4.813912 3.932375
v 24.000000 -5.302796 3.313216
v 24.000000 -5.736163 2.664047
v 24.000000 -6.213662 2.066953
v 24.000000 -6.728231 1.511783
v 24.000000 -7.251626 0.965440
v 24.000000 -7.820917 0.475584
v 24.000000 -8.473175 0.089878
v 24.000000 -9.320493 -0.163876
v 24.000000 -10.309030 -0.316128
v 24.000000 -11.226957 -0.406597
v 24.000000 -11.862446 -0.475000
v 32.000000 -2.079064 -2.138251
v 32.000000 -1.339787 -2.204150
v 32.000000 -0.224537 -2.309031
v 32.000000 1.013600 -2.358223
v 32.000000 2.118368 -2.257055
v 32.000000 3.056843 -1.970255
v 32.000000 3.933294 -1.551658
v 32.000000 4.694342 -1.040245
v 32.000000 5.286188 -0.475000
v 32.000000 5.681012 0.168210
v 32.000000 5.887552 0.898667
v 32.000000 5.908710 1.655112
v 32.000000 5.750089 2.376287
v 32.000000 5.371286 3.089573
v 32.000000 4.776220 3.813069
v 32.000000 4.042006 4.471594
v 32.000000 3.249227 4.989967
v 32.000000 2.418968 5.355660
v 32.000000 1.524850 5.606261
v 32.000000 0.580077 5.741772
v 32.000000 -0.400919 5.762191
v 32.000000 -1.442308 5.657774
v 32.000000 -2.516766 5.431768
v 32.000000 -3.533325 5.103666
v 32.000000 -4.403096 4.692958
v 32.000000 -5.068688 4.159734
v 32.000000 -5.576346 3.508635
v 32.000000 -6.032069 2.825978
v 32.000000 -6.534200 2.198082
v 32.000000 -7.075314 1.614273
v 32.000000 -7.625709 1.039746
v 32.000000 -8.224368 0.524621
v 32.000000 -8.910273 0.119018
v 32.000000 -9.801300 -0.147826
v 32.000000 -10.840832 -0.307932
v 32.000000 -11.806112 -0.403068
v 32.000000 -12.474382 -0.475000
v 40.000000 -2.213452 -2.245761
v 40.000000 -1.430302 -2.315920
v 40.000000 -0.254474 -2.427581
v 40.000000 1.045259 -2.479952
v 40.000000 2.197158 -2.372244
v 40.000000 3.167587 -2.066907
v 40.000000 4.069235 -1.621252
v 40.000000 4.847112 -1.076782
v 40.000000 5.445835 -0.475000
v 40.000000 5.837618 0.209787
v 40.000000 6.033436 0.987459
v 40.000000 6.037785 1.792800
v 40.000000 5.857695 2.560591
v 40.000000 5.450805 3.319983
v 40.000000 4.821499 4.090244
v 40.000000 4.051630 4.791335
v 40.000000 3.226298 5.343216
v 40.000000 2.366861 5.732546
v 40.000000 1.443798 5.999346
v 40.000000 0.469484 6.143616
v 40.000000 -0.542561 6.165355
v 40.000000 -1.619962 6.054188
v 40.000000 -2.735460 5.813574
v 40.000000 -3.793866 5.464264
v 40.000000 -4.701943 5.027008
v 40.000000 -5.399636 4.459317
v 40.000000 -5.936794 3.766131
v 40.000000 -6.421974 3.039349
v 40.000000 -6.956562 2.370866
v 40.000000 -7.532653 1.749321
v 40.000000 -8.118624 1.137658
v 40.000000 -8.755980 0.589235
v 40.000000 -9.486221 0.157415
v 40.000000 -10.434843 -0.126678
v 40.000000 -11.541569 -0.297133
v 40.000000 -12.569243 -0.398419
v 40.000000 -13.280710 -0.475000
v 48.000000 -2.362429 -2.364943
v 48.000000 -1.526493 -2.439823
v 48.000000 -0.271304 -2.558999
v 48.000000 1.116265 -2.614896
v 48.000000 2.346161 -2.499939
v 48.000000 3.382459 -2.174050
v 48.000000 4.345401 -1.698401
v 48.000000 5.176257 -1.117285
v 48.000000 5.815883 -0.475000
v 48.000000 6.234588 0.255876
v 48.000000 6.444049 1.085890
v 48.000000 6.449043 1.945435
v 48.000000 6.257048 2.764902
v 48.000000 5.822842 3.575405
v 48.000000 5.151099 4.397509
v 48.000000 4.329186 5.145787
v 48.000000 3.447944 5.734812
v 48.000000 2.530189 6.150347
v 48.000000 1.544442 6.435104
v 48.000000 0.503943 6.589083
v 48.000000 -0.576844 6.612286
v 48.000000 -1.727363 6.493637
v 48.000000 -2.918489 6.236828
v 48.000000 -4.048592 5.864008
v 48.000000 -5.018133 5.397322
v 48.000000 -5.762996 4.791423
v 48.000000 -6.336371 4.051582
v 48.000000 -6.854207 3.275883
v 48.000000 -7.424775 2.562408
v 48.000000 -8.039640 1.899030
v 48.000000 -8.665050 1.246198
v 48.000000 -9.345303 0.660864
v 48.000000 -10.124694 0.199980
v 48.000000 -11.137163 -0.103234
v 48.000000 -12.318377 -0.285162
v 48.000000 -13.415219 -0.393264
v 48.000000 -14.174571 -0.475000
v 56.000000 -2.507967 -2.481374
v 56.000000 -1.616759 -2.560867
v 56.000000 -0.273141 -2.687385
v 56.000000 1.217690 -2.746726
v 56.000000 2.546775 -2.624686
v 56.000000 3.674604 -2.278721
v 56.000000 4.727209 -1.773769
v 56.000000 5.640467 -1.156854
v 56.000000 6.349765 -0.475000
v 56.000000 6.821812 0.300902
v 56.000000 7.067397 1.182050
v 56.000000 7.090230 2.094547
v 56.000000 6.897226 2.964498
v 56.000000 6.439744 3.824932
v 56.000000 5.722543 4.697682
v 56.000000 4.838611 5.492058
v 56.000000 3.885051 6.117371
v 56.000000 2.887137 6.558504
v 56.000000 1.812836 6.860804
v 56.000000 0.677826 7.024270
v 56.000000 -0.500756 7.048901
v 56.000000 -1.752346 6.922943
v 56.000000 -3.044257 6.650314
v 56.000000 -4.266996 6.254525
v 56.000000 -5.313546 5.759090
v 56.000000 -6.114831 5.115863
v 56.000000 -6.726726 4.330444
v 56.000000 -7.276464 3.506958
v 56.000000 -7.882182 2.749529
v 56.000000 -8.534926 2.045283
v 56.000000 -9.198865 1.352233
v 56.000000 -9.921025 0.730840
v 56.000000 -10.748430 0.241562
v 56.000000 -11.823274 -0.080331
v 56.000000 -13.077257 -0.273467
v 56.000000 -14.241670 -0.388229
v 56.000000 -15.047803 -0.475000
v 64.000000 -2.633630 -2.581904
v 64.000000 -1.691229 -2.665381
v 64.000000 -0.261055 -2.798238
v 64.000000 1.335279 -2.860552
v 64.000000 2.771530 -2.732397
v 64.000000 4.003839 -2.369097
v 64.000000 5.161744 -1.838844
v 64.000000 6.174841 -1.191018
v 64.000000 6.972113 -0.475000
v 64.000000 7.515537 0.339779
v 64.000000 7.813650 1.265077
v 64.000000 7.867998 2.223295
v 64.000000 7.684066 3.136836
v 64.000000 7.209679 4.040382
v 64.000000 6.449484 4.956862
v 64.000000 5.501539 5.791041
v 64.000000 4.468967 6.447685
v 64.000000 3.380136 6.910922
v 64.000000 2.203797 7.228368
v 64.000000 0.959236 7.400025
v 64.000000 -0.332473 7.425891
v 64.000000 -1.699078 7.293621
v 64.000000 -3.103196 7.007331
v 64.000000 -4.427073 6.591712
v 64.000000 -5.555997 6.071452
v 64.000000 -6.415679 5.395997
v 64.000000 -7.063772 4.571224
v 64.000000 -7.641055 3.706476
v 64.000000 -8.277123 2.911096
v 64.000000 -8.962573 2.171563
v 64.000000 -9.659779 1.443788
v 64.000000 -10.418124 0.791259
v 64.000000 -11.286987 0.277466
v 64.000000 -12.415685 -0.060556
v 64.000000 -13.732500 -0.263369
v 64.000000 -14.955257 -0.383881
v 64.000000 -15.801781 -0.475000
vt 0.06054688 1.03295403
vt 0.06054688 1.02981731
vt 0.06054688 1.02467341
vt 0.06054688 1.01856220
vt 0.06054688 1.01252448
vt 0.06054688 1.00670780
vt 0.06054688 1.00080956
vt 0.06054688 0.99515883
vt 0.06054688 0.99009370
vt 0.06054688 0.98571712
vt 0.06054688 0.98191915
vt 0.06054688 0.97868751
vt 0.06054688 0.97590949
vt 0.06054688 0.97292254
vt 0.06054688 0.96912023
vt 0.06054688 0.96464984
vt 0.06054688 0.95980515
vt 0.06054688 0.95462506
vt 0.06054688 0.94899063
vt 0.06054688 0.94302526
vt 0.06054688 0.93688186
vt 0.06054688 0.93057200
vt 0.06054688 0.92429962
vt 0.06054688 0.91850532
vt 0.06054688 0.91358992
vt 0.06054688 0.90965678
vt 0.06054688 0.90633077
vt 0.06054688 0.90317841
vt 0.06054688 0.90009062
vt 0.06054688 0.89703345
vt 0.06054688 0.89397777
vt 0.06054688 0.89094455
vt 0.06054688 0.88788413
vt 0.06054688 0.88431188
vt 0.06054688 0.88027236
vt 0.06054688 0.87654714
vt 0.06054688 0.87396574
vt 0.07617188 1.03037910
vt 0.07617188 1.02739983
vt 0.07617188 1.02246967
vt 0.07617188 1.01657040
vt 0.07617188 1.01068930
vt 0.07617188 1.00498090
vt 0.07617188 0.99917744
vt 0.07617188 0.99360528
vt 0.07617188 0.98859989
vt 0.07617188 0.98428188
vt 0.07617188 0.98057055
vt 0.07617188 0.97746331
vt 0.07617188 0.97484560
vt 0.07617188 0.97205353
vt 0.07617188 0.96845814
vt 0.07617188 0.96417520
vt 0.07617188 0.95947675
vt 0.07617188 0.95440635
vt 0.07617188 0.94886700
vt 0.07617188 0.94299094
vt 0.07617188 0.93693945
vt 0.07617188 0.93074145
vt 0.07617188 0.92460571
vt 0.07617188 0.91896122
vt 0.07617188 0.91419723
vt 0.07617188 0.91042237
vt 0.07617188 0.90728032
vt 0.07617188 0.90432053
vt 0.07617188 0.90142137
vt 0.07617188 0.89855095
vt 0.07617188 0.89568193
vt 0.07617188 0.89283400
vt 0.07617188 0.88996054
vt 0.07617188 0.88660650
vt 0.07617188 0.88281375
vt 0.07617188 0.87931609
vt 0.07617188 0.87689238
vt 0.09179688 1.02491088
vt 0.09179688 1.02213603
vt 0.09179688 1.01751509
vt 0.09179688 1.01195869
vt 0.09179688 1.00638547
vt 0.09179688 1.00094860
vt 0.09179688 0.99541142
vt 0.09179688 0.99008679
vt 0.09179688 0.98529641
vt 0.09179688 0.98116710
vt 0.09179688 0.97763905
vt 0.09179688 0.97471674
vt 0.09179688 0.97229017
vt 0.09179688 0.96971885
vt 0.09179688 0.96638051
vt 0.09179688 0.96236687
vt 0.09179688 0.95792699
vt 0.09179688 0.95310599
vt 0.09179688 0.94782396
vt 0.09179688 0.94221384
vt 0.09179688 0.93643625
vt 0.09179688 0.93052974
vt 0.09179688 0.92469855
vt 0.09179688 0.91934906
vt 0.09179688 0.91484942
vt 0.09179688 0.91130764
vt 0.09179688 0.90839219
vt 0.09179688 0.90565789
vt 0.09179688 0.90297960
vt 0.09179688 0.90032786
vt 0.09179688 0.89767741
vt 0.09179688 0.89504645
vt 0.09179688 0.89239189
vt 0.09179688 0.88929338
vt 0.09179688 0.88578958
vt 0.09179688 0.88255838
vt 0.09179688 0.88031932
vt 0.10742188 1.01686297
vt 0.10742188 1.01432611
vt 0.10742188 1.01008995
vt 0.10742188 1.00498551
vt 0.10742188 0.99985230
vt 0.10742188 0.99483396
vt 0.10742188 0.98971916
vt 0.10742188 0.98479746
vt 0.10742188 0.98036661
vt 0.10742188 0.97654819
vt 0.10742188 0.97329362
vt 0.10742188 0.97060989
vt 0.10742188 0.96839554
vt 0.10742188 0.96605630
vt 0.10742188 0.96300837
vt 0.10742188 0.95932911
vt 0.10742188 0.95524455
vt 0.10742188 0.95079783
vt 0.10742188 0.94592003
vt 0.10742188 0.94073654
vt 0.10742188 0.93539833
vt 0.10742188 0.92994525
vt 0.10742188 0.92456790
vt 0.10742188 0.91964052
vt 0.10742188 0.91550190
vt 0.10742188 0.91225351
vt 0.10742188 0.90959246
vt 0.10742188 0.90710158
vt 0.10742188 0.90466171
vt 0.10742188 0.90224603
vt 0.10742188 0.89983153
vt 0.10742188 0.89743478
vt 0.10742188 0.89501654
vt 0.10742188 0.89219387
vt 0.10742188 0.88900198
vt 0.10742188 0.88605843
vt 0.10742188 0.88401870
vt 0.12304688 1.00701617
vt 0.12304688 1.00473287
vt 0.12304688 1.00092527
vt 0.12304688 0.99634201
vt 0.12304688 0.99173884
vt 0.12304688 0.98724342
vt 0.12304688 0.98266331
vt 0.12304688 0.97825756
vt 0.12304688 0.97429251
vt 0.12304688 0.97087510
vt 0.12304688 0.96795888
vt 0.12304688 0.96554883
vt 0.12304688 0.96355401
vt 0.12304688 0.96144342
vt 0.12304688 0.95869831
vt 0.12304688 0.95539121
vt 0.12304688 0.95172628
vt 0.12304688 0.94774153
vt 0.12304688 0.94337306
vt 0.12304688 0.93873202
vt 0.12304688 0.93395244
vt 0.12304688 0.92906813
vt 0.12304688 0.92424892
vt 0.12304688 0.91983044
vt 0.12304688 0.91611659
vt 0.12304688 0.91319752
vt 0.12304688 0.91080051
vt 0.12304688 0.90855461
vt 0.12304688 0.90635472
vt 0.12304688 0.90417663
vt 0.12304688 0.90199961
vt 0.12304688 0.89983859
vt 0.12304688 0.89765820
vt 0.12304688 0.89511315
vt 0.12304688 0.89223519
vt 0.12304688 0.88958115
vt 0.12304688 0.88774204
vt 0.13867188 0.99643897
vt 0.13867188 0.99440468
vt 0.13867188 0.99103127
vt 0.13867188 0.98698823
vt 0.13867188 0.98294945
vt 0.13867188 0.97902270
vt 0.13867188 0.97502822
vt 0.13867188 0.97119100
vt 0.13867188 0.96774236
vt 0.13867188 0.96476816
vt 0.13867188 0.96221701
vt 0.13867188 0.96008875
vt 0.13867188 0.95830426
vt 0.13867188 0.95640483
vt 0.13867188 0.95395235
vt 0.13867188 0.95102199
vt 0.13867188 0.94779846
vt 0.13867188 0.94431257
vt 0.13867188 0.94050062
vt 0.13867188 0.93645525
vt 0.13867188 0.93228911
vt 0.13867188 0.92802476
vt 0.13867188 0.92380710
vt 0.13867188 0.91993070
vt 0.13867188 0.91666271
vt 0.13867188 0.91407894
vt 0.13867188 0.91193616
vt 0.13867188 0.90992058
vt 0.13867188 0.90794628
vt 0.13867188 0.90599155
vt 0.13867188 0.90403777
vt 0.13867188 0.90209836
vt 0.13867188 0.90014156
vt 0.13867188 0.89785749
vt 0.13867188 0.89527466
vt 0.13867188 0.89289279
vt 0.13867188 0.89124227
vt 0.15429688 0.98623332
vt 0.15429688 0.98442426
vt 0.15429688 0.98145320
vt 0.15429688 0.97791927
vt 0.15429688 0.97442264
vt 0.15429688 0.97104982
vt 0.15429688 0.96762825
vt 0.15429688 0.96434909
vt 0.15429688 0.96140875
vt 0.15429688 0.95886890
vt 0.15429688 0.95666847
vt 0.15429688 0.95480120
vt 0.15429688 0.95320123
vt 0.15429688 0.95148299
vt 0.15429688 0.94929165
vt 0.15429688 0.94670980
vt 0.15429688 0.94390615
vt 0.15429688 0.94090379
vt 0.15429688 0.93763568
vt 0.15429688 0.93417449
vt 0.15429688 0.93060999
vt 0.15429688 0.92695064
vt 0.15429688 0.92331554
vt 0.15429688 0.91995983
vt 0.15429688 0.91711555
vt 0.15429688 0.91484332
vt 0.15429688 0.91292678
vt 0.15429688 0.91111209
vt 0.15429688 0.90933456
vt 0.15429688 0.90757466
vt 0.15429688 0.90581563
vt 0.15429688 0.90406952
vt 0.15429688 0.90230775
vt 0.15429688 0.90025134
vt 0.15429688 0.89792595
vt 0.15429688 0.89578147
vt 0.15429688 0.89429546
vt 0.16992188 0.97730030
vt 0.16992188 0.97567708
vt 0.16992188 0.97304605
vt 0.16992188 0.96994939
vt 0.16992188 0.96692659
vt 0.16992188 0.96404374
vt 0.16992188 0.96113040
vt 0.16992188 0.95834715
vt 0.16992188 0.95585873
vt 0.16992188 0.95370192
vt 0.16992188 0.95180337
vt 0.16992188 0.95015201
vt 0.16992188 0.94869709
vt 0.16992188 0.94711994
vt 0.16992188 0.94514099
vt 0.16992188 0.94285263
vt 0.16992188 0.94041209
vt 0.16992188 0.93783527
vt 0.16992188 0.93504959
vt 0.16992188 0.93210838
vt 0.16992188 0.92907952
vt 0.16992188 0.92595643
vt 0.16992188 0.92283411
vt 0.16992188 0.91993324
vt 0.16992188 0.91745533
vt 0.16992188 0.91544664
vt 0.16992188 0.91371354
vt 0.16992188 0.91205841
vt 0.16992188 0.91043717
vt 0.16992188 0.90883201
vt 0.16992188 0.90722763
vt 0.16992188 0.90563505
vt 0.16992188 0.90402819
vt 0.16992188 0.90215258
vt 0.16992188 0.90003165
vt 0.16992188 0.89807573
vt 0.16992188 0.89672037
vt 0.18554688 0.97020320
vt 0.18554688 0.96871626
vt 0.18554688 0.96634346
vt 0.18554688 0.96358644
vt 0.18554688 0.96094042
vt 0.18554688 0.95845298
vt 0.18554688 0.95595093
vt 0.18554688 0.95356927
vt 0.18554688 0.95144615
vt 0.18554688 0.94959414
vt 0.18554688 0.94792654
vt 0.18554688 0.94643058
vt 0.18554688 0.94507248
vt 0.18554688 0.94358935
vt 0.18554688 0.94176262
vt 0.18554688 0.93969562
vt 0.18554688 0.93753916
vt 0.18554688 0.93530336
vt 0.18554688 0.93290848
vt 0.18554688 0.93039052
vt 0.18554688 0.92779784
vt 0.18554688 0.92510899
vt 0.18554688 0.92239808
vt 0.18554688 0.91985839
vt 0.18554688 0.91766736
vt 0.18554688 0.91585871
vt 0.18554688 0.91425650
vt 0.18554688 0.91271147
vt 0.18554688 0.91119810
vt 0.18554688 0.90969972
vt 0.18554688 0.90820208
vt 0.18554688 0.90671544
vt 0.18554688 0.90521548
vt 0.18554688 0.90346465
vt 0.18554688 0.90148482
vt 0.18554688 0.89965902
vt 0.18554688 0.89839383
vt 0.20117188 0.96515690
vt 0.20117188 0.96375239
vt 0.20117188 0.96154821
vt 0.20117188 0.95902311
vt 0.20117188 0.95664582
vt 0.20117188 0.95444773
vt 0.20117188 0.95224784
vt 0.20117188 0.95016117
vt 0.20117188 0.94830493
vt 0.20117188 0.94666864
vt 0.20117188 0.94515233
vt 0.20117188 0.94374564
vt 0.20117188 0.94243295
vt 0.20117188 0.94099357
vt 0.20117188 0.93925402
vt 0.20117188 0.93732939
vt 0.20117188 0.93536938
vt 0.20117188 0.93337999
vt 0.20117188 0.93127295
vt 0.20117188 0.92906940
vt 0.20117188 0.92680102
vt 0.20117188 0.92443190
vt 0.20117188 0.92201909
vt 0.20117188 0.91973629
vt 0.20117188 0.91774406
vt 0.20117188 0.91606581
vt 0.20117188 0.91453772
vt 0.20117188 0.91304973
vt 0.20117188 0.91159221
vt 0.20117188 0.91014915
vt 0.20117188 0.90870679
vt 0.20117188 0.90727503
vt 0.20117188 0.90583044
vt 0.20117188 0.90414424
vt 0.20117188 0.90223749
vt 0.20117188 0.90047908
vt 0.20117188 0.89926060
vt 0.21679688 0.96211512
vt 0.21679688 0.96074030
vt 0.21679688 0.95861696
vt 0.21679688 0.95621834
vt 0.21679688 0.95400405
vt 0.21679688 0.95199151
vt 0.21679688 0.94998689
vt 0.21679688 0.94809068
vt 0.21679688 0.94640460
vt 0.21679688 0.94489649
vt 0.21679688 0.94345408
vt 0.21679688 0.94207339
vt 0.21679688 0.94075672
vt 0.21679688 0.93931191
vt 0.21679688 0.93759586
vt 0.21679688 0.93573641
vt 0.21679688 0.93388715
vt 0.21679688 0.93205156
vt 0.21679688 0.93013161
vt 0.21679688 0.92813600
vt 0.21679688 0.92608245
vt 0.21679688 0.92392106
vt 0.21679688 0.92169546
vt 0.21679688 0.91956750
vt 0.21679688 0.91768790
vt 0.21679688 0.91607197
vt 0.21679688 0.91456242
vt 0.21679688 0.91307944
vt 0.21679688 0.91162683
vt 0.21679688 0.91018862
vt 0.21679688 0.90875112
vt 0.21679688 0.90732418
vt 0.21679688 0.90588445
vt 0.21679688 0.90420393
vt 0.21679688 0.90230359
vt 0.21679688 0.90055111
vt 0.21679688 0.89933672
vt 0.23242188 0.96089195
vt 0.23242188 0.95949936
vt 0.23242188 0.95737746
vt 0.23242188 0.95500951
vt 0.23242188 0.95286168
vt 0.23242188 0.95093967
vt 0.23242188 0.94903255
vt 0.23242188 0.94723136
vt 0.23242188 0.94562745
vt 0.23242188 0.94416908
vt 0.23242188 0.94273311
vt 0.23242188 0.94132424
vt 0.23242188 0.93996091
vt 0.23242188 0.93846694
vt 0.23242188 0.93671732
vt 0.23242188 0.93485356
vt 0.23242188 0.93303741
vt 0.23242188 0.93127111
vt 0.23242188 0.92944591
vt 0.23242188 0.92756044
vt 0.23242188 0.92562117
vt 0.23242188 0.92356478
vt 0.23242188 0.92142498
vt 0.23242188 0.91935882
vt 0.23242188 0.91751362
vt 0.23242188 0.91589866
vt 0.23242188 0.91435783
vt 0.23242188 0.91283336
vt 0.23242188 0.91134011
vt 0.23242188 0.90986167
vt 0.23242188 0.90838394
vt 0.23242188 0.90691708
vt 0.23242188 0.90543707
vt 0.23242188 0.90370953
vt 0.23242188 0.90175603
vt 0.23242188 0.89995452
vt 0.23242188 0.89870616
vt 0.24804688 0.96125564
vt 0.24804688 0.95980601
vt 0.24804688 0.95761818
vt 0.24804688 0.95519803
vt 0.24804688 0.95303125
vt 0.24804688 0.95111461
vt 0.24804688 0.94921758
vt 0.24804688 0.94742672
vt 0.24804688 0.94582828
vt 0.24804688 0.94435421
vt 0.24804688 0.94287161
vt 0.24804688 0.94139360
vt 0.24804688 0.93995138
vt 0.24804688 0.93837398
vt 0.24804688 0.93654434
vt 0.24804688 0.93461803
vt 0.24804688 0.93276801
vt 0.24804688 0.93099608
vt 0.24804688 0.92918246
vt 0.24804688 0.92731832
vt 0.24804688 0.92540189
vt 0.24804688 0.92335773
vt 0.24804688 0.92121326
vt 0.24804688 0.91912694
vt 0.24804688 0.91724830
vt 0.24804688 0.91558259
vt 0.24804688 0.91397005
vt 0.24804688 0.91236694
vt 0.24804688 0.91079666
vt 0.24804688 0.90924195
vt 0.24804688 0.90768799
vt 0.24804688 0.90614546
vt 0.24804688 0.90458910
vt 0.24804688 0.90277245
vt 0.24804688 0.90071817
vt 0.24804688 0.89882373
vt 0.24804688 0.89751097
vt 0.26367188 0.96296388
vt 0.26367188 0.96142817
vt 0.26367188 0.95912130
vt 0.26367188 0.95658070
vt 0.26367188 0.95432108
vt 0.26367188 0.95233411
vt 0.26367188 0.95036971
vt 0.26367188 0.94851523
vt 0.26367188 0.94685724
vt 0.26367188 0.94531634
vt 0.26367188 0.94375004
vt 0.26367188 0.94217708
vt 0.26367188 0.94063679
vt 0.26367188 0.93895412
vt 0.26367188 0.93701144
vt 0.26367188 0.93497772
vt 0.26367188 0.93303857
vt 0.26367188 0.93119578
vt 0.26367188 0.92931912
vt 0.26367188 0.92739542
vt 0.26367188 0.92541831
vt 0.26367188 0.92330284
vt 0.26367188 0.92107403
vt 0.26367188 0.91889715
vt 0.26367188 0.91692866
vt 0.26367188 0.91517188
vt 0.26367188 0.91345909
vt 0.26367188 0.91175235
vt 0.26367188 0.91008057
vt 0.26367188 0.90842536
vt 0.26367188 0.90677097
vt 0.26367188 0.90512873
vt 0.26367188 0.90347177
vt 0.26367188 0.90153769
vt 0.26367188 0.89935062
vt 0.26367188 0.89733372
vt 0.26367188 0.89593611
vt 0.27929688 0.96574548
vt 0.27929688 0.96410626
vt 0.27929688 0.96164369
vt 0.27929688 0.95893140
vt 0.27929688 0.95651879
vt 0.27929688 0.95439704
vt 0.27929688 0.95229937
vt 0.27929688 0.95031907
vt 0.27929688 0.94854866
vt 0.27929688 0.94690351
vt 0.27929688 0.94523157
vt 0.27929688 0.94355274
vt 0.27929688 0.94190888
vt 0.27929688 0.94011301
vt 0.27929688 0.93803948
vt 0.27929688 0.93586856
vt 0.27929688 0.93379830
vt 0.27929688 0.93183064
vt 0.27929688 0.92982663
vt 0.27929688 0.92777227
vt 0.27929688 0.92566088
vt 0.27929688 0.92340185
vt 0.27929688 0.92102198
vt 0.27929688 0.91869773
vt 0.27929688 0.91659615
vt 0.27929688 0.91472081
vt 0.27929688 0.91289265
vt 0.27929688 0.91107104
vt 0.27929688 0.90928674
vt 0.27929688 0.90752013
vt 0.27929688 0.90575438
vt 0.27929688 0.90400161
vt 0.27929688 0.90223313
vt 0.27929688 0.90016888
vt 0.27929688 0.89783462
vt 0.27929688 0.89568197
vt 0.27929688 0.89419029
vt 0.29492188 0.96925533
vt 0.29492188 0.96750778
vt 0.29492188 0.96487191
vt 0.29492188 0.96195783
vt 0.29492188 0.95935104
vt 0.29492188 0.95704694
vt 0.29492188 0.95476675
vt 0.29492188 0.95261421
vt 0.29492188 0.95069256
vt 0.29492188 0.94891871
vt 0.29492188 0.94713212
vt 0.29492188 0.94534935
vt 0.29492188 0.94360891
vt 0.29492188 0.94170560
vt 0.29492188 0.93949929
vt 0.29492188 0.93717813
vt 0.29492188 0.93495098
vt 0.29492188 0.93281999
vt 0.29492188 0.93064025
vt 0.29492188 0.92840056
vt 0.29492188 0.92609814
vt 0.29492188 0.92364128
vt 0.29492188 0.92106245
vt 0.29492188 0.91855229
vt 0.29492188 0.91629077
vt 0.29492188 0.91428390
vt 0.29492188 0.91233929
vt 0.29492188 0.91040546
vt 0.29492188 0.90851124
vt 0.29492188 0.90663579
vt 0.29492188 0.90476127
vt 0.29492188 0.90290052
vt 0.29492188 0.90102308
vt 0.29492188 0.89883166
vt 0.29492188 0.89635360
vt 0.29492188 0.89406833
vt 0.29492188 0.89248476
vt 0.31054688 0.97304112
vt 0.31054688 0.97119328
vt 0.31054688 0.96838795
vt 0.31054688 0.96526773
vt 0.31054688 0.96245141
vt 0.31054688 0.95994214
vt 0.31054688 0.95745475
vt 0.31054688 0.95510609
vt 0.31054688 0.95301312
vt 0.31054688 0.95110028
vt 0.31054688 0.94920158
vt 0.31054688 0.94732705
vt 0.31054688 0.94550699
vt 0.31054688 0.94351380
vt 0.31054688 0.94118817
vt 0.31054688 0.93872192
vt 0.31054688 0.93633193
vt 0.31054688 0.93402084
vt 0.31054688 0.93164112
vt 0.31054688 0.92918732
vt 0.31054688 0.92666395
vt 0.31054688 0.92398232
vt 0.31054688 0.92118348
vt 0.31054688 0.91847336
vt 0.31054688 0.91604555
vt 0.31054688 0.91391021
vt 0.31054688 0.91186150
vt 0.31054688 0.90983077
vt 0.31054688 0.90784164
vt 0.31054688 0.90587222
vt 0.31054688 0.90390377
vt 0.31054688 0.90194979
vt 0.31054688 0.89997829
vt 0.31054688 0.89767706
vt 0.31054688 0.89507483
vt 0.31054688 0.89267506
vt 0.31054688 0.89101215
vn -0.000000 -0.080687 -0.996740
vn -0.000000 -0.079209 -0.996858
vn -0.000000 -0.052590 -0.998616
vn -0.000000 0.016450 -0.999865
vn -0.000000 0.125945 -0.992037
vn -0.000000 0.231468 -0.972842
vn -0.000000 0.309516 -0.950894
vn -0.000000 0.386251 -0.922394
vn -0.000000 0.493071 -0.869989
vn -0.000000 0.649703 -0.760188
vn -0.000000 0.820710 -0.571345
vn -0.000000 0.961164 -0.275979
vn 0.000000 0.984655 0.174512
vn 0.000000 0.824580 0.565745
vn 0.000000 0.645414 0.763833
vn 0.000000 0.487158 0.873314
vn 0.000000 0.339636 0.940557
vn 0.000000 0.219157 0.975690
vn 0.000000 0.127952 0.991780
vn 0.000000 0.049492 0.998775
vn 0.000000 -0.025924 0.999664
vn 0.000000 -0.100930 0.994894
vn 0.000000 -0.176505 0.984300
vn 0.000000 -0.265325 0.964159
vn 0.000000 -0.412185 0.911100
vn 0.000000 -0.633810 0.773489
vn 0.000000 -0.792406 0.609994
vn 0.000000 -0.807349 0.590074
vn 0.000000 -0.757821 0.652463
vn 0.000000 -0.727789 0.685801
vn 0.000000 -0.688102 0.725614
vn 0.000000 -0.582571 0.812780
vn 0.000000 -0.392252 0.919858
vn 0.000000 -0.215936 0.976407
vn 0.000000 -0.126295 0.991993
vn 0.000000 -0.101742 0.994811
vn 0.000000 0.000000 1.000000
vn -0.000000 -0.079762 -0.996814
vn -0.000000 -0.077861 -0.996964
vn -0.000000 -0.051317 -0.998682
vn -0.000000 0.015927 -0.999873
vn -0.000000 0.120932 -0.992661
vn -0.000000 0.221141 -0.975242
vn -0.000000 0.295010 -0.955494
vn -0.000000 0.367353 -0.930082
vn -0.000000 0.468663 -0.883377
vn -0.000000 0.620718 -0.784034
vn -0.000000 0.794183 -0.607679
vn -0.000000 0.948083 -0.318023
vn 0.000000 0.988623 0.150414
vn 0.000000 0.824175 0.566335
vn 0.000000 0.636533 0.771249
vn 0.000000 0.474406 0.880306
vn 0.000000 0.327209 0.944952
vn 0.000000 0.209721 0.977761
vn 0.000000 0.122067 0.992522
vn 0.000000 0.047171 0.998887
vn 0.000000 -0.024744 0.999694
vn 0.000000 -0.096669 0.995317
vn 0.000000 -0.169744 0.985488
vn 0.000000 -0.256310 0.966595
vn 0.000000 -0.400982 0.916086
vn 0.000000 -0.624826 0.780764
vn 0.000000 -0.790095 0.612984
vn 0.000000 -0.807349 0.590074
vn 0.000000 -0.757821 0.652463
vn 0.000000 -0.727789 0.685801
vn 0.000000 -0.688102 0.725614
vn 0.000000 -0.582571 0.812780
vn 0.000000 -0.392252 0.919858
vn 0.000000 -0.215936 0.976407
vn 0.000000 -0.126295 0.991993
vn 0.000000 -0.101742 0.994811
vn 0.000000 0.000000 1.000000
vn -0.000000 -0.079113 -0.996866
vn -0.000000 -0.076925 -0.997037
vn -0.000000 -0.050445 -0.998727
vn -0.000000 0.015573 -0.999879
vn -0.000000 0.117584 -0.993063
vn -0.000000 0.214293 -0.976769
vn -0.000000 0.285411 -0.958405
vn -0.000000 0.354858 -0.934920
vn -0.000000 0.452455 -0.891787
vn -0.000000 0.601070 -0.799197
vn -0.000000 0.775359 -0.631521
vn -0.000000 0.937871 -0.346984
vn 0.000000 0.991113 0.133020
vn 0.000000 0.823886 0.566756
vn 0.000000 0.630283 0.776366
vn 0.000000 0.465635 0.884977
vn 0.000000 0.318837 0.947810
vn 0.000000 0.203449 0.979086
vn 0.000000 0.118180 0.992992
vn 0.000000 0.045642 0.998958
vn 0.000000 -0.023964 0.999713
vn 0.000000 -0.093836 0.995588
vn 0.000000 -0.165216 0.986257
vn 0.000000 -0.250219 0.968189
vn 0.000000 -0.393306 0.919408
vn 0.000000 -0.618509 0.785778
vn 0.000000 -0.788445 0.615105
vn 0.000000 -0.807349 0.590074
vn 0.000000 -0.757821 0.652463
vn 0.000000 -0.727789 0.685801
vn 0.000000 -0.688102 0.725614
vn 0.000000 -0.582571 0.812780
vn 0.000000 -0.392252 0.919858
vn 0.000000 -0.215936 0.976407
vn 0.000000 -0.126295 0.991993
vn 0.000000 -0.101742 0.994811
vn 0.000000 0.000000 1.000000
vn -0.000000 -0.078832 -0.996888
vn -0.000000 -0.076520 -0.997068
vn -0.000000 -0.050071 -0.998746
vn -0.000000 0.015423 -0.999881
vn -0.000000 0.116170 -0.993229
vn -0.000000 0.211411 -0.977397
vn -0.000000 0.281377 -0.959597
vn -0.000000 0.349611 -0.936895
vn -0.000000 0.445635 -0.895215
vn -0.000000 0.592710 -0.805416
vn -0.000000 0.767148 -0.641470
vn -0.000000 0.933178 -0.359415
vn 0.000000 0.992115 0.125332
vn 0.000000 0.823758 0.566941
vn 0.000000 0.627561 0.778568
vn 0.000000 0.461867 0.886949
vn 0.000000 0.315283 0.948998
vn 0.000000 0.200806 0.979631
vn 0.000000 0.116547 0.993185
vn 0.000000 0.045000 0.998987
vn 0.000000 -0.023636 0.999721
vn 0.000000 -0.092642 0.995699
vn 0.000000 -0.163300 0.986576
vn 0.000000 -0.247629 0.968855
vn 0.000000 -0.390015 0.920808
vn 0.000000 -0.615760 0.787934
vn 0.000000 -0.787720 0.616034
vn 0.000000 -0.807349 0.590074
vn 0.000000 -0.757821 0.652463
vn 0.000000 -0.727789 0.685801
vn 0.000000 -0.688102 0.725614
vn 0.000000 -0.582571 0.812780
vn 0.000000 -0.392252 0.919858
vn 0.000000 -0.215936 0.976407
vn 0.000000 -0.126295 0.991993
vn 0.000000 -0.101742 0.994811
vn 0.000000 0.000000 1.000000
vn -0.000000 -0.078971 -0.996877
vn -0.000000 -0.076721 -0.997053
vn -0.000000 -0.050256 -0.998736
vn -0.000000 0.015497 -0.999880
vn -0.000000 0.116869 -0.993147
vn -0.000000 0.212834 -0.977088
vn -0.000000 0.283369 -0.959011
vn -0.000000 0.352201 -0.935924
vn -0.000000 0.449002 -0.893531
vn -0.000000 0.596844 -0.802357
vn -0.000000 0.771223 -0.636565
vn -0.000000 0.935526 -0.353259
vn 0.000000 0.991624 0.129156
vn 0.000000 0.823822 0.566849
vn 0.000000 0.628912 0.777477
vn 0.000000 0.463733 0.885975
vn 0.000000 0.317040 0.948412
vn 0.000000 0.202111 0.979363
vn 0.000000 0.117353 0.993090
vn 0.000000 0.045317 0.998973
vn 0.000000 -0.023798 0.999717
vn 0.000000 -0.093232 0.995644
vn 0.000000 -0.164247 0.986419
vn 0.000000 -0.248910 0.968527
vn 0.000000 -0.391645 0.920117
vn 0.000000 -0.617124 0.786866
vn 0.000000 -0.788080 0.615572
vn 0.000000 -0.807349 0.590074
vn 0.000000 -0.757821 0.652463
vn 0.000000 -0.727789 0.685801
vn 0.000000 -0.688102 0.725614
vn 0.000000 -0.582571 0.812780
vn 0.000000 -0.392252 0.919858
vn 0.000000 -0.215936 0.976407
vn 0.000000 -0.126295 0.991993
vn 0.000000 -0.101742 0.994811
vn 0.000000 0.000000 1.000000
vn -0.000000 -0.079548 -0.996831
vn -0.000000 -0.077552 -0.996988
vn -0.000000 -0.051029 -0.998697
vn -0.000000 0.015810 -0.999875
vn -0.000000 0.119816 -0.992796
vn -0.000000 0.218854 -0.975758
vn -0.000000 0.291802 -0.956479
vn -0.000000 0.363176 -0.931721
vn -0.000000 0.463251 -0.886227
vn -0.000000 0.614191 -0.789157
vn -0.000000 0.788004 -0.615670
vn -0.000000 0.944816 -0.327602
vn 0.000000 0.989470 0.144737
vn 0.000000 0.824081 0.566473
vn 0.000000 0.634479 0.772940
vn 0.000000 0.471505 0.881863
vn 0.000000 0.324424 0.945912
vn 0.000000 0.207628 0.978208
vn 0.000000 0.120768 0.992681
vn 0.000000 0.046660 0.998911
vn 0.000000 -0.024483 0.999700
vn 0.000000 -0.095723 0.995408
vn 0.000000 -0.168236 0.985747
vn 0.000000 -0.254286 0.967129
vn 0.000000 -0.398441 0.917194
vn 0.000000 -0.622749 0.782421
vn 0.000000 -0.789555 0.613680
vn 0.000000 -0.807349 0.590074
vn 0.000000 -0.757821 0.652463
vn 0.000000 -0.727789 0.685801
vn 0.000000 -0.688102 0.725614
vn 0.000000 -0.582571 0.812780
vn 0.000000 -0.392252 0.919858
vn 0.000000 -0.215936 0.976407
vn 0.000000 -0.126295 0.991993
vn 0.000000 -0.101742 0.994811
vn 0.000000 0.000000 1.000000
vn -0.000000 -0.080536 -0.996752
vn -0.000000 -0.078989 -0.996875
vn -0.000000 -0.052381 -0.998627
vn -0.000000 0.016363 -0.999866
vn -0.000000 0.125110 -0.992143
vn -0.000000 0.229743 -0.973251
vn -0.000000 0.307089 -0.951681
vn -0.000000 0.383089 -0.923712
vn -0.000000 0.488997 -0.872285
vn -0.000000 0.644917 -0.764252
vn -0.000000 0.816433 -0.577440
vn -0.000000 0.959160 -0.282864
vn 0.000000 0.985331 0.170652
vn 0.000000 0.824515 0.565840
vn 0.000000 0.643973 0.765048
vn 0.000000 0.485065 0.874478
vn 0.000000 0.337576 0.941298
vn 0.000000 0.217582 0.976042
vn 0.000000 0.126967 0.991907
vn 0.000000 0.049103 0.998794
vn 0.000000 -0.025726 0.999669
vn 0.000000 -0.100219 0.994965
vn 0.000000 -0.175381 0.984501
vn 0.000000 -0.263832 0.964569
vn 0.000000 -0.410344 0.911931
vn 0.000000 -0.632352 0.774681
vn 0.000000 -0.792034 0.610478
vn 0.000000 -0.807349 0.590074
vn 0.000000 -0.757821 0.652463
vn 0.000000 -0.727789 0.685801
vn 0.000000 -0.688102 0.725614
vn 0.000000 -0.582571 0.812780
vn 0.000000 -0.392252 0.919858
vn 0.000000 -0.215936 0.976407
vn 0.000000 -0.126295 0.991993
vn 0.000000 -0.101742 0.994811
vn 0.000000 0.000000 1.000000
vn -0.000000 -0.081865 -0.996643
vn -0.000000 -0.080949 -0.996718
vn -0.000000 -0.054259 -0.998527
vn -0.000000 0.017149 -0.999853
vn -0.000000 0.132773 -0.991147
vn -0.000000 0.245668 -0.969354
vn -0.000000 0.329510 -0.944152
vn -0.000000 0.412315 -0.911041
vn -0.000000 0.526471 -0.850193
vn -0.000000 0.688094 -0.725622
vn -0.000000 0.853514 -0.521069
vn -0.000000 0.975157 -0.221517
vn 0.000000 0.978972 0.203993
vn 0.000000 0.825083 0.565011
vn 0.000000 0.656662 0.754185
vn 0.000000 0.503812 0.863813
vn 0.000000 0.356344 0.934355
vn 0.000000 0.232086 0.972695
vn 0.000000 0.136090 0.990696
vn 0.000000 0.052710 0.998610
vn 0.000000 -0.027556 0.999620
vn 0.000000 -0.106769 0.994284
vn 0.000000 -0.185672 0.982612
vn 0.000000 -0.277402 0.960754
vn 0.000000 -0.426897 0.904300
vn 0.000000 -0.645204 0.764011
vn 0.000000 -0.795277 0.606246
vn 0.000000 -0.807349 0.590074
vn 0.000000 -0.757821 0.652463
vn 0.000000 -0.727789 0.685801
vn 0.000000 -0.688102 0.725614
vn 0.000000 -0.582571 0.812780
vn 0.000000 -0.392252 0.919858
vn 0.000000 -0.215936 0.976407
vn 0.000000 -0.126295 0.991993
vn 0.000000 -0.101742 0.994811
vn 0.000000 0.000000 1.000000
vn -0.000000 -0.083423 -0.996514
vn -0.000000 -0.083288 -0.996526
vn -0.000000 -0.056554 -0.998400
vn -0.000000 0.018133 -0.999836
vn -0.000000 0.142644 -0.989774
vn -0.000000 0.266464 -0.963845
vn -0.000000 0.358869 -0.933388
vn -0.000000 0.450553 -0.892750
vn -0.000000 0.574757 -0.818324
vn -0.000000 0.740745 -0.671786
vn -0.000000 0.894062 -0.447943
vn -0.000000 0.988861 -0.148840
vn 0.000000 0.970558 0.240869
vn 0.000000 0.825726 0.564072
vn 0.000000 0.671392 0.741102
vn 0.000000 0.526512 0.850168
vn 0.000000 0.380040 0.924970
vn 0.000000 0.250933 0.968005
vn 0.000000 0.148112 0.988971
vn 0.000000 0.057486 0.998346
vn 0.000000 -0.029966 0.999551
vn 0.000000 -0.115288 0.993332
vn 0.000000 -0.198841 0.980032
vn 0.000000 -0.294456 0.955665
vn 0.000000 -0.447106 0.894481
vn 0.000000 -0.660150 0.751134
vn 0.000000 -0.798951 0.601397
vn 0.000000 -0.807349 0.590074
vn 0.000000 -0.757821 0.652463
vn 0.000000 -0.727789 0.685801
vn 0.000000 -0.688102 0.725614
vn 0.000000 -0.582571 0.812780
vn 0.000000 -0.392252 0.919858
vn 0.000000 -0.215936 0.976407
vn 0.000000 -0.126295 0.991993
vn 0.000000 -0.101742 0.994811
vn 0.000000 0.000000 1.000000
vn -0.000000 -0.085059 -0.996376
vn -0.000000 -0.085793 -0.996313
vn -0.000000 -0.059080 -0.998253
vn -0.000000 0.019251 -0.999815
vn -0.000000 0.154224 -0.988036
vn -0.000000 0.291236 -0.956651
vn -0.000000 0.393895 -0.919155
vn -0.000000 0.495981 -0.868333
vn -0.000000 0.630681 -0.776042
vn -0.000000 0.797085 -0.603867
vn -0.000000 0.931561 -0.363584
vn -0.000000 0.997346 -0.072807
vn 0.000000 0.960831 0.277133
vn 0.000000 0.826376 0.563119
vn 0.000000 0.686688 0.726953
vn 0.000000 0.551198 0.834374
vn 0.000000 0.407114 0.913377
vn 0.000000 0.273251 0.961943
vn 0.000000 0.162610 0.986690
vn 0.000000 0.063284 0.997996
vn 0.000000 -0.032874 0.999460
vn 0.000000 -0.125395 0.992107
vn 0.000000 -0.214159 0.976799
vn 0.000000 -0.313856 0.949470
vn 0.000000 -0.469311 0.883033
vn 0.000000 -0.675700 0.737176
vn 0.000000 -0.802670 0.596423
vn 0.000000 -0.807349 0.590074
vn 0.000000 -0.757821 0.652463
vn 0.000000 -0.727789 0.685801
vn 0.000000 -0.688102 0.725614
vn 0.000000 -0.582571 0.812780
vn 0.000000 -0.392252 0.919858
vn 0.000000 -0.215936 0.976407
vn 0.000000 -0.126295 0.991993
vn 0.000000 -0.101742 0.994811
vn 0.000000 0.000000 1.000000
vn -0.000000 -0.086603 -0.996243
vn -0.000000 -0.088206 -0.996102
vn -0.000000 -0.061582 -0.998102
vn -0.000000 0.020394 -0.999792
vn -0.000000 0.166493 -0.986043
vn -0.000000 0.317896 -0.948126
vn -0.000000 0.431561 -0.902084
vn -0.000000 0.544383 -0.838836
vn -0.000000 0.688047 -0.725666
vn -0.000000 0.849223 -0.528035
vn -0.000000 0.960535 -0.278159
vn -0.000000 0.999997 -0.002497
vn 0.000000 0.951022 0.309124
vn 0.000000 0.826967 0.562251
vn 0.000000 0.700936 0.713224
vn 0.000000 0.575262 0.817969
vn 0.000000 0.434919 0.900470
vn 0.000000 0.297124 0.954839
vn 0.000000 0.178459 0.983947
vn 0.000000 0.069673 0.997570
vn 0.000000 -0.036056 0.999350
vn 0.000000 -0.136244 0.990675
vn 0.000000 -0.230235 0.973135
vn 0.000000 -0.333719 0.942673
vn 0.000000 -0.491207 0.871043
vn 0.000000 -0.690215 0.723605
vn 0.000000 -0.806056 0.591839
vn 0.000000 -0.807349 0.590074
vn 0.000000 -0.757821 0.652463
vn 0.000000 -0.727789 0.685801
vn 0.000000 -0.688102 0.725614
vn 0.000000 -0.582571 0.812780
vn 0.000000 -0.392252 0.919858
vn 0.000000 -0.215936 0.976407
vn 0.000000 -0.126295 0.991993
vn 0.000000 -0.101742 0.994811
vn 0.000000 0.000000 1.000000
vn -0.000000 -0.087890 -0.996130
vn -0.000000 -0.090253 -0.995919
vn -0.000000 -0.063758 -0.997965
vn -0.000000 0.021420 -0.999771
vn -0.000000 0.177880 -0.984052
vn -0.000000 0.342981 -0.939342
vn -0.000000 0.466868 -0.884327
vn -0.000000 0.589098 -0.808062
vn -0.000000 0.738530 -0.674221
vn -0.000000 0.890011 -0.455940
vn -0.000000 0.978970 -0.204004
vn 0.000000 0.998526 0.054270
vn 0.000000 0.942509 0.334181
vn 0.000000 0.827443 0.561549
vn 0.000000 0.712648 0.701522
vn 0.000000 0.595838 0.803105
vn 0.000000 0.459889 0.887977
vn 0.000000 0.319459 0.947600
vn 0.000000 0.193633 0.981074
vn 0.000000 0.075844 0.997120
vn 0.000000 -0.039108 0.999235
vn 0.000000 -0.146445 0.989219
vn 0.000000 -0.245007 0.969521
vn 0.000000 -0.351529 0.936177
vn 0.000000 -0.510146 0.860088
vn 0.000000 -0.702166 0.712013
vn 0.000000 -0.808788 0.588101
vn 0.000000 -0.807349 0.590074
vn 0.000000 -0.757821 0.652463
vn 0.000000 -0.727789 0.685801
vn 0.000000 -0.688102 0.725614
vn 0.000000 -0.582571 0.812780
vn 0.000000 -0.392252 0.919858
vn 0.000000 -0.215936 0.976407
vn 0.000000 -0.126295 0.991993
vn 0.000000 -0.101742 0.994811
vn 0.000000 0.000000 1.000000
vn -0.000000 -0.088788 -0.996051
vn -0.000000 -0.091700 -0.995787
vn -0.000000 -0.065329 -0.997864
vn -0.000000 0.022179 -0.999754
vn -0.000000 0.186546 -0.982446
vn -0.000000 0.362264 -0.932075
vn -0.000000 0.493854 -0.869545
vn -0.000000 0.622698 -0.782462
vn -0.000000 0.774606 -0.632444
vn -0.000000 0.916063 -0.401034
vn -0.000000 0.988477 -0.151371
vn 0.000000 0.995701 0.092630
vn 0.000000 0.936436 0.350838
vn 0.000000 0.827767 0.561071
vn 0.000000 0.720725 0.693221
vn 0.000000 0.610456 0.792050
vn 0.000000 0.478340 0.878174
vn 0.000000 0.336552 0.941665
vn 0.000000 0.205489 0.978659
vn 0.000000 0.080706 0.996738
vn 0.000000 -0.041498 0.999139
vn 0.000000 -0.154296 0.988025
vn 0.000000 -0.256153 0.966636
vn 0.000000 -0.364691 0.931129
vn 0.000000 -0.523732 0.851883
vn 0.000000 -0.710420 0.703778
vn 0.000000 -0.810647 0.585536
vn 0.000000 -0.807349 0.590074
vn 0.000000 -0.757821 0.652463
vn 0.000000 -0.727789 0.685801
vn 0.000000 -0.688102 0.725614
vn 0.000000 -0.582571 0.812780
vn 0.000000 -0.392252 0.919858
vn 0.000000 -0.215936 0.976407
vn 0.000000 -0.126295 0.991993
vn 0.000000 -0.101742 0.994811
vn 0.000000 0.000000 1.000000
vn -0.000000 -0.089228 -0.996011
vn -0.000000 -0.092416 -0.995720
vn -0.000000 -0.066116 -0.997812
vn -0.000000 0.022565 -0.999745
vn -0.000000 0.191035 -0.981583
vn -0.000000 0.372314 -0.928107
vn -0.000000 0.507846 -0.861448
vn -0.000000 0.639883 -0.768472
vn -0.000000 0.792374 -0.610035
vn -0.000000 0.927903 -0.372822
vn -0.000000 0.992100 -0.125448
vn 0.000000 0.993818 0.111023
vn 0.000000 0.933427 0.358767
vn 0.000000 0.827924 0.560840
vn 0.000000 0.724657 0.689109
vn 0.000000 0.617699 0.786414
vn 0.000000 0.487712 0.873005
vn 0.000000 0.345436 0.938442
vn 0.000000 0.211739 0.977326
vn 0.000000 0.083284 0.996526
vn 0.000000 -0.042760 0.999085
vn 0.000000 -0.158393 0.987376
vn 0.000000 -0.261895 0.965096
vn 0.000000 -0.371380 0.928481
vn 0.000000 -0.530508 0.847680
vn 0.000000 -0.714442 0.699695
vn 0.000000 -0.811545 0.584290
vn 0.000000 -0.807349 0.590074
vn 0.000000 -0.757821 0.652463
vn 0.000000 -0.727789 0.685801
vn 0.000000 -0.688102 0.725614
vn 0.000000 -0.582571 0.812780
vn 0.000000 -0.392252 0.919858
vn 0.000000 -0.215936 0.976407
vn 0.000000 -0.126295 0.991993
vn 0.000000 -0.101742 0.994811
vn 0.000000 0.000000 1.000000
vn -0.000000 -0.089220 -0.996012
vn -0.000000 -0.092403 -0.995722
vn -0.000000 -0.066101 -0.997813
vn -0.000000 0.022558 -0.999746
vn -0.000000 0.190952 -0.981599
vn -0.000000 0.372128 -0.928181
vn -0.000000 0.507587 -0.861600
vn -0.000000 0.639567 -0.768736
vn -0.000000 0.792052 -0.610454
vn -0.000000 0.927694 -0.373342
vn -0.000000 0.992040 -0.125920
vn 0.000000 0.993855 0.110691
vn 0.000000 0.933482 0.358625
vn 0.000000 0.827921 0.560845
vn 0.000000 0.724586 0.689184
vn 0.000000 0.617567 0.786518
vn 0.000000 0.487539 0.873101
vn 0.000000 0.345272 0.938503
vn 0.000000 0.211623 0.977351
vn 0.000000 0.083236 0.996530
vn 0.000000 -0.042737 0.999086
vn 0.000000 -0.158317 0.987388
vn 0.000000 -0.261789 0.965125
vn 0.000000 -0.371256 0.928530
vn 0.000000 -0.530384 0.847758
vn 0.000000 -0.714369 0.699769
vn 0.000000 -0.811529 0.584313
vn 0.000000 -0.807349 0.590074
vn 0.000000 -0.757821 0.652463
vn 0.000000 -0.727789 0.685801
vn 0.000000 -0.688102 0.725614
vn 0.000000 -0.582571 0.812780
vn 0.000000 -0.392252 0.919858
vn 0.000000 -0.215936 0.976407
vn 0.000000 -0.126295 0.991993
vn 0.000000 -0.101742 0.994811
vn 0.000000 0.000000 1.000000
vn -0.000000 -0.088845 -0.996045
vn -0.000000 -0.091793 -0.995778
vn -0.000000 -0.065431 -0.997857
vn -0.000000 0.022229 -0.999753
vn -0.000000 0.187120 -0.982337
vn -0.000000 0.363549 -0.931575
vn -0.000000 0.495645 -0.868525
vn -0.000000 0.624907 -0.780699
vn -0.000000 0.776917 -0.629603
vn -0.000000 0.917641 -0.397410
vn -0.000000 0.988987 -0.148001
vn 0.000000 0.995474 0.095038
vn 0.000000 0.936046 0.351878
vn 0.000000 0.827788 0.561041
vn 0.000000 0.721238 0.692688
vn 0.000000 0.611396 0.791325
vn 0.000000 0.479547 0.877516
vn 0.000000 0.337688 0.941258
vn 0.000000 0.206285 0.978492
vn 0.000000 0.081034 0.996711
vn 0.000000 -0.041659 0.999132
vn 0.000000 -0.154819 0.987943
vn 0.000000 -0.256889 0.966441
vn 0.000000 -0.365552 0.930791
vn 0.000000 -0.524610 0.851343
vn 0.000000 -0.710945 0.703248
vn 0.000000 -0.810764 0.585373
vn 0.000000 -0.807349 0.590074
vn 0.000000 -0.757821 0.652463
vn 0.000000 -0.727789 0.685801
vn 0.000000 -0.688102 0.725614
vn 0.000000 -0.582571 0.812780
vn 0.000000 -0.392252 0.919858
vn 0.000000 -0.215936 0.976407
vn 0.000000 -0.126295 0.991993
vn 0.000000 -0.101742 0.994811
vn 0.000000 0.000000 1.000000
vn -0.000000 -0.088233 -0.996100
vn -0.000000 -0.090804 -0.995869
vn -0.000000 -0.064353 -0.997927
vn -0.000000 0.021706 -0.999764
vn -0.000000 0.181119 -0.983461
vn -0.000000 0.350169 -0.936687
vn -0.000000 0.476947 -0.878932
vn -0.000000 0.601712 -0.798713
vn -0.000000 0.752273 -0.658852
vn -0.000000 0.900248 -0.435378
vn -0.000000 0.982938 -0.183937
vn 0.000000 0.997612 0.069066
vn 0.000000 0.940198 0.340628
vn 0.000000 0.827568 0.561366
vn 0.000000 0.715745 0.698362
vn 0.000000 0.601402 0.798946
vn 0.000000 0.466841 0.884341
vn 0.000000 0.325838 0.945426
vn 0.000000 0.198032 0.980196
vn 0.000000 0.077644 0.996981
vn 0.000000 -0.039995 0.999200
vn 0.000000 -0.149370 0.988781
vn 0.000000 -0.249183 0.968457
vn 0.000000 -0.356487 0.934300
vn 0.000000 -0.515304 0.857008
vn 0.000000 -0.705330 0.708879
vn 0.000000 -0.809503 0.587116
vn 0.000000 -0.807349 0.590074
vn 0.000000 -0.757821 0.652463
vn 0.000000 -0.727789 0.685801
vn 0.000000 -0.688102 0.725614
vn 0.000000 -0.582571 0.812780
vn 0.000000 -0.392252 0.919858
vn 0.000000 -0.215936 0.976407
vn 0.000000 -0.126295 0.991993
vn 0.000000 -0.101742 0.994811
vn 0.000000 0.000000 1.000000
f 1/1/1 38/38/38 39/39/39
f 1/1/1 39/39/39 2/2/2
f 2/2/2 39/39/39 40/40/40
f 2/2/2 40/40/40 3/3/3
f 3/3/3 40/40/40 41/41/41
f 3/3/3 41/41/41 4/4/4
f 4/4/4 41/41/41 42/42/42
f 4/4/4 42/42/42 5/5/5
f 5/5/5 42/42/42 43/43/43
f 5/5/5 43/43/43 6/6/6
f 6/6/6 43/43/43 44/44/44
f 6/6/6 44/44/44 7/7/7
f 7/7/7 44/44/44 45/45/45
f 7/7/7 45/45/45 8/8/8
f 8/8/8 45/45/45 46/46/46
f 8/8/8 46/46/46 9/9/9
f 9/9/9 46/46/46 47/47/47
f 9/9/9 47/47/47 10/10/10
f 10/10/10 47/47/47 48/48/48
f 10/10/10 48/48/48 11/11/11
f 11/11/11 48/48/48 49/49/49
f 11/11/11 49/49/49 12/12/12
f 12/12/12 49/49/49 50/50/50
f 12/12/12 50/50/50 13/13/13
f 13/13/13 50/50/50 51/51/51
f 13/13/13 51/51/51 14/14/14
f 14/14/14 51/51/51 52/52/52
f 14/14/14 52/52/52 15/15/15
f 15/15/15 52/52/52 53/53/53
f 15/15/15 53/53/53 16/16/16
f 16/16/16 53/53/53 54/54/54
f 16/16/16 54/54/54 17/17/17
f 17/17/17 54/54/54 55/55/55
f 17/17/17 55/55/55 18/18/18
f 18/18/18 55/55/55 56/56/56
f 18/18/18 56/56/56 19/19/19
f 19/19/19 56/56/56 57/57/57
f 19/19/19 57/57/57 20/20/20
f 20/20/20 57/57/57 58/58/58
f 20/20/20 58/58/58 21/21/21
f 21/21/21 58/58/58 59/59/59
f 21/21/21 59/59/59 22/22/22
f 22/22/22 59/59/59 60/60/60
f 22/22/22 60/60/60 23/23/23
f 23/23/23 60/60/60 61/61/61
f 23/23/23 61/61/61 24/24/24
f 24/24/24 61/61/61 62/62/62
f 24/24/24 62/62/62 25/25/25
f 25/25/25 62/62/62 63/63/63
f 25/25/25 63/63/63 26/26/26
f 26/26/26 63/63/63 64/64/64
f 26/26/26 64/64/64 27/27/27
f 27/27/27 64/64/64 65/65/65
f 27/27/27 65/65/65 28/28/28
f 28/28/28 65/65/65 66/66/66
f 28/28/28 66/66/66 29/29/29
f 29/29/29 66/66/66 67/67/67
f 29/29/29 67/67/67 30/30/30
f 30/30/30 67/67/67 68/68/68
f 30/30/30 68/68/68 31/31/31
f 31/31/31 68/68/68 69/69/69
f 31/31/31 69/69/69 32/32/32
f 32/32/32 69/69/69 70/70/70
f 32/32/32 70/70/70 33/33/33
f 33/33/33 70/70/70 71/71/71
f 33/33/33 71/71/71 34/34/34
f 34/34/34 71/71/71 72/72/72
f 34/34/34 72/72/72 35/35/35
f 35/35/35 72/72/72 73/73/73
f 35/35/35 73/73/73 36/36/36
f 36/36/36 73/73/73 74/74/74
f 36/36/36 74/74/74 37/37/37
f 38/38/38 75/75/75 76/76/76
f 38/38/38 76/76/76 39/39/39
f 39/39/39 76/76/76 77/77/77
f 39/39/39 77/77/77 40/40/40
f 40/40/40 77/77/77 78/78/78
f 40/40/40 78/78/78 41/41/41
f 41/41/41 78/78/78 79/79/79
f 41/41/41 79/79/79 42/42/42
f 42/42/42 79/79/79 80/80/80
f 42/42/42 80/80/80 43/43/43
f 43/43/43 80/80/80 81/81/81
f 43/43/43 81/81/81 44/44/44
f 44/44/44 81/81/81 82/82/82
f 44/44/44 82/82/82 45/45/45
f 45/45/45 82/82/82 83/83/83
f 45/45/45 83/83/83 46/46/46
f 46/46/46 83/83/83 84/84/84
f 46/46/46 84/84/84 47/47/47
f 47/47/47 84/84/84 85/85/85
f 47/47/47 85/85/85 48/48/48
f 48/48/48 85/85/85 86/86/86
f 48/48/48 86/86/86 49/49/49
f 49/49/49 86/86/86 87/87/87
f 49/49/49 87/87/87 50/50/50
f 50/50/50 87/87/87 88/88/88
f 50/50/50 88/88/88 51/51/51
f 51/51/51 88/88/88 89/89/89
f 51/51/51 89/89/89 52/52/52
f 52/52/52 89/89/89 90/90/90
f 52/52/52 90/90/90 53/53/53
f 53/53/53 90/90/90 91/91/91
f 53/53/53 91/91/91 54/54/54
f 54/54/54 91/91/91 92/92/92
f 54/54/54 92/92/92 55/55/55
f 55/55/55 92/92/92 93/93/93
f 55/55/55 93/93/93 56/56/56
f 56/56/56 93/93/93 94/94/94
f 56/56/56 94/94/94 57/57/57
f 57/57/57 94/94/94 95/95/95
f 57/57/57 95/95/95 58/58/58
f 58/58/58 95/95/95 96/96/96
f 58/58/58 96/96/96 59/59/59
f 59/59/59 96/96/96 97/97/97
f 59/59/59 97/97/97 60/60/60
f 60/60/60 97/97/97 98/98/98
f 60/60/60 98/98/98 61/61/61
f 61/61/61 98/98/98 99/99/99
f 61/61/61 99/99/99 62/62/62
f 62/62/62 99/99/99 100/100/100
f 62/62/62 100/100/100 63/63/63
f 63/63/63 100/100/100 101/101/101
f 63/63/63 101/101/101 64/64/64
f 64/64/64 101/101/101 102/102/102
f 64/64/64 102/102/102 65/65/65
f 65/65/65 102/102/102 103/103/103
f 65/65/65 103/103/103 66/66/66
f 66/66/66 103/103/103 104/104/104
f 66/66/66 104/104/104 67/67/67
f 67/67/67 104/104/104 105/105/105
f 67/67/67 105/105/105 68/68/68
f 68/68/68 105/105/105 106/106/106
f 68/68/68 106/106/106 69/69/69
f 69/69/69 106/106/106 107/107/107
f 69/69/69 107/107/107 70/70/70
f 70/70/70 107/107/107 108/108/108
f 70/70/70 108/108/108 71/71/71
f 71/71/71 108/108/108 109/109/109
f 71/71/71 109/109/109 72/72/72
f 72/72/72 109/109/109 110/110/110
f 72/72/72 110/110/110 73/73/73
f 73/73/73 110/110/110 111/111/111
f 73/73/73 111/111/111 74/74/74
f 75/75/75 112/112/112 113/113/113
f 75/75/75 113/113/113 76/76/76
f 76/76/76 113/113/113 114/114/114
f 76/76/76 114/114/114 77/77/77
f 77/77/77 114/114/114 115/115/115
f 77/77/77 115/115/115 78/78/78
f 78/78/78 115/115/115 116/116/116
f 78/78/78 116/116/116 79/79/79
f 79/79/79 116/116/116 117/117/117
f 79/79/79 117/117/117 80/80/80
f 80/80/80 117/117/117 118/118/118
f 80/80/80 118/118/118 81/81/81
f 81/81/81 118/118/118 119/119/119
f 81/81/81 119/119/119 82/82/82
f 82/82/82 119/119/119 120/120/120
f 82/82/82 120/120/120 83/83/83
f 83/83/83 120/120/120 121/121/121
f 83/83/83 121/121/121 84/84/84
f 84/84/84 121/121/121 122/122/122
f 84/84/84 122/122/122 85/85/85
f 85/85/85 122/122/122 123/123/123
f 85/85/85 123/123/123 86/86/86
f 86/86/86 123/123/123 124/124/124
f 86/86/86 124/124/124 87/87/87
f 87/87/87 124/124/124 125/125/125
f 87/87/87 125/125/125 88/88/88
f 88/88/88 125/125/125 126/126/126
f 88/88/88 126/126/126 89/89/89
f 89/89/89 126/126/126 127/127/127
f 89/89/89 127/127/127 90/90/90
f 90/90/90 127/127/127 128/128/128
f 90/90/90 128/128/128 91/91/91
f 91/91/91 128/128/128 129/129/129
f 91/91/91 129/129/129 92/92/92
f 92/92/92 129/129/129 130/130/130
f 92/92/92 130/130/130 93/93/93
f 93/93/93 130/130/130 131/131/131
f 93/93/93 131/131/131 94/94/94
f 94/94/94 131/131/131 132/132/132
f 94/94/94 132/132/132 95/95/95
f 95/95/95 132/132/132 133/133/133
f 95/95/95 133/133/133 96/96/96
f 96/96/96 133/133/133 134/134/134
f 96/96/96 134/134/134 97/97/97
f 97/97/97 134/134/134 135/135/135
f 97/97/97 135/135/135 98/98/98
f 98/98/98 135/135/135 136/136/136
f 98/98/98 136/136/136 99/99/99
f 99/99/99 136/136/136 137/137/137
f 99/99/99 137/137/137 100/100/100
f 100/100/100 137/137/137 138/138/138
f 100/100/100 138/138/138 101/101/101
f 101/101/101 138/138/138 139/139/139
f 101/101/101 139/139/139 102/102/102
f 102/102/102 139/139/139 140/140/140
f 102/102/102 140/140/140 103/103/103
f 103/103/103 140/140/140 141/141/141
f 103/103/103 141/141/141 104/104/104
f 104/104/104 141/141/141 142/142/142
f 104/104/104 142/142/142 105/105/105
f 105/105/105 142/142/142 143/143/143
f 105/105/105 143/143/143 106/106/106
f 106/106/106 143/143/143 144/144/144
f 106/106/106 144/144/144 107/107/107
f 107/107/107 144/144/144 145/145/145
f 107/107/107 145/145/145 108/108/108
f 108/108/108 145/145/145 146/146/146
f 108/108/108 146/146/146 109/109/109
f 109/109/109 146/146/146 147/147/147
f 109/109/109 147/147/147 110/110/110
f 110/110/110 147/147/147 148/148/148
f 110/110/110 148/148/148 111/111/111
f 112/112/112 149/149/149 150/150/150
f 112/112/112 150/150/150 113/113/113
f 113/113/113 150/150/150 151/151/151
f 113/113/113 151/151/151 114/114/114
f 114/114/114 151/151/151 152/152/152
f 114/114/114 152/152/152 115/115/115
f 115/115/115 152/152/152 153/153/153
f 115/115/115 153/153/153 116/116/116
f 116/116/116 153/153/153 154/154/154
f 116/116/116 154/154/154 117/117/117
f 117/117/117 154/154/154 155/155/155
f 117/117/117 155/155/155 118/118/118
f 118/118/118 155/155/155 156/156/156
f 118/118/118 156/156/156 119/119/119
f 119/119/119 156/156/156 157/157/157
f 119/119/119 157/157/157 120/120/120
f 120/120/120 157/157/157 158/158/158
f 120/120/120 158/158/158 121/121/121
f 121/121/121 158/158/158 159/159/159
f 121/121/121 159/159/159 122/122/122
f 122/122/122 159/159/159 160/160/160
f 122/122/122 160/160/160 123/123/123
f 123/123/123 160/160/160 161/161/161
f 123/123/123 161/161/161 124/124/124
f 124/124/124 161/161/161 162/162/162
f 124/124/124 162/162/162 125/125/125
f 125/125/125 162/162/162 163/163/163
f 125/125/125 163/163/163 126/126/126
f 126/126/126 163/163/163 164/164/164
f 126/126/126 164/164/164 127/127/127
f 127/127/127 164/164/164 165/165/165
f 127/127/127 165/165/165 128/128/128
f 128/128/128 165/165/165 166/166/166
f 128/128/128 166/166/166 129/129/129
f 129/129/129 166/166/166 167/167/167
f 129/129/129 167/167/167 130/130/130
f 130/130/130 167/167/167 168/168/168
f 130/130/130 168/168/168 131/131/131
f 131/131/131 168/168/168 169/169/169
f 131/131/131 169/169/169 132/132/132
f 132/132/132 169/169/169 170/170/170
f 132/132/132 170/170/170 133/133/133
f 133/133/133 170/170/170 171/171/171
f 133/133/133 171/171/171 134/134/134
f 134/134/134 171/171/171 172/172/172
f 134/134/134 172/172/172 135/135/135
f 135/135/135 172/172/172 173/173/173
f 135/135/135 173/173/173 136/136/136
f 136/136/136 173/173/173 174/174/174
f 136/136/136 174/174/174 137/137/137
f 137/137/137 174/174/174 175/175/175
f 137/137/137 175/175/175 138/138/138
f 138/138/138 175/175/175 176/176/176
f 138/138/138 176/176/176 139/139/139
f 139/139/139 176/176/176 177/177/177
f 139/139/139 177/177/177 140/140/140
f 140/140/140 177/177/177 178/178/178
f 140/140/140 178/178/178 141/141/141
f 141/141/141 178/178/178 179/179/179
f 141/141/141 179/179/179 142/142/142
f 142/142/142 179/179/179 180/180/180
f 142/142/142 180/180/180 143/143/143
f 143/143/143 180/180/180 181/181/181
f 143/143/143 181/181/181 144/144/144
f 144/144/144 181/181/181 182/182/182
f 144/144/144 182/182/182 145/145/145
f 145/145/145 182/182/182 183/183/183
f 145/145/145 183/183/183 146/146/146
f 146/146/146 183/183/183 184/184/184
f 146/146/146 184/184/184 147/147/147
f 147/147/147 184/184/184 185/185/185
f 147/147/147 185/185/185 148/148/148
f 149/149/149 186/186/186 187/187/187
f 149/149/149 187/187/187 150/150/150
f 150/150/150 187/187/187 188/188/188
f 150/150/150 188/188/188 151/151/151
f 151/151/151 188/188/188 189/189/189
f 151/151/151 189/189/189 152/152/152
f 152/152/152 189/189/189 190/190/190
f 152/152/152 190/190/190 153/153/153
f 153/153/153 190/190/190 191/191/191
f 153/153/153 191/191/191 154/154/154
f 154/154/154 191/191/191 192/192/192
f 154/154/154 192/192/192 155/155/155
f 155/155/155 192/192/192 193/193/193
f 155/155/155 193/193/193 156/156/156
f 156/156/156 193/193/193 194/194/194
f 156/156/156 194/194/194 157/157/157
f 157/157/157 194/194/194 195/195/195
f 157/157/157 195/195/195 158/158/158
f 158/158/158 195/195/195 196/196/196
f 158/158/158 196/196/196 159/159/159
f 159/159/159 196/196/196 197/197/197
f 159/159/159 197/197/197 160/160/160
f 160/160/160 197/197/197 198/198/198
f 160/160/160 198/198/198 161/161/161
f 161/161/161 198/198/198 199/199/199
f 161/161/161 199/199/199 162/162/162
f 162/162/162 199/199/199 200/200/200
f 162/162/162 200/200/200 163/163/163
f 163/163/163 200/200/200 201/201/201
f 163/163/163 201/201/201 164/164/164
f 164/164/164 201/201/201 202/202/202
f 164/164/164 202/202/202 165/165/165
f 165/165/165 202/202/202 203/203/203
f 165/165/165 203/203/203 166/166/166
f 166/166/166 203/203/203 204/204/204
f 166/166/166 204/204/204 167/167/167
f 167/167/167 204/204/204 205/205/205
f 167/167/167 205/205/205 168/168/168
f 168/168/168 205/205/205 206/206/206
f 168/168/168 206/206/206 169/169/169
f 169/169/169 206/206/206 207/207/207
f 169/169/169 207/207/207 170/170/170
f 170/170/170 207/207/207 208/208/208
f 170/170/170 208/208/208 171/171/171
f 171/171/171 208/208/208 209/209/209
f 171/171/171 209/209/209 172/172/172
f 172/172/172 209/209/209 210/210/210
f 172/172/172 210/210/210 173/173/173
f 173/173/173 210/210/210 211/211/211
f 173/173/173 211/211/211 174/174/174
f 174/174/174 211/211/211 212/212/212
f 174/174/174 212/212/212 175/175/175
f 175/175/175 212/212/212 213/213/213
f 175/175/175 213/213/213 176/176/176
f 176/176/176 213/213/213 214/214/214
f 176/176/176 214/214/214 177/177/177
f 177/177/177 214/214/214 215/215/215
f 177/177/177 215/215/215 178/178/178
f 178/178/178 215/215/215 216/216/216
f 178/178/178 216/216/216 179/179/179
f 179/179/179 216/216/216 217/217/217
f 179/179/179 217/217/217 180/180/180
f 180/180/180 217/217/217 218/218/218
f 180/180/180 218/218/218 181/181/181
f 181/181/181 218/218/218 219/219/219
f 181/181/181 219/219/219 182/182/182
f 182/182/182 219/219/219 220/220/220
f 182/182/182 220/220/220 183/183/183
f 183/183/183 220/220/220 221/221/221
f 183/183/183 221/221/221 184/184/184
f 184/184/184 221/221/221 222/222/222
f 184/184/184 222/222/222 185/185/185
f 186/186/186 223/223/223 224/224/224
f 186/186/186 224/224/224 187/187/187
f 187/187/187 224/224/224 225/225/225
f 187/187/187 225/225/225 188/188/188
f 188/188/188 225/225/225 226/226/226
f 188/188/188 226/226/226 189/189/189
f 189/189/189 226/226/226 227/227/227
f 189/189/189 227/227/227 190/190/190
f 190/190/190 227/227/227 228/228/228
f 190/190/190 228/228/228 191/191/191
f 191/191/191 228/228/228 229/229/229
f 191/191/191 229/229/229 192/192/192
f 192/192/192 229/229/229 230/230/230
f 192/192/192 230/230/230 193/193/193
f 193/193/193 230/230/230 231/231/231
f 193/193/193 231/231/231 194/194/194
f 194/194/194 231/231/231 232/232/232
f 194/194/194 232/232/232 195/195/195
f 195/195/195 232/232/232 233/233/233
f 195/195/195 233/233/233 196/196/196
f 196/196/196 233/233/233 234/234/234
f 196/196/196 234/234/234 197/197/197
f 197/197/197 234/234/234 235/235/235
f 197/197/197 235/235/235 198/198/198
f 198/198/198 235/235/235 236/236/236
f 198/198/198 236/236/236 199/199/199
f 199/199/199 236/236/236 237/237/237
f 199/199/199 237/237/237 200/200/200
f 200/200/200 237/237/237 238/238/238
f 200/200/200 238/238/238 201/201/201
f 201/201/201 238/238/238 239/239/239
f 201/201/201 239/239/239 202/202/202
f 202/202/202 239/239/239 240/240/240
f 202/202/202 240/240/240 203/203/203
f 203/203/203 240/240/240 241/241/241
f 203/203/203 241/241/241 204/204/204
f 204/204/204 241/241/241 242/242/242
f 204/204/204 242/242/242 205/205/205
f 205/205/205 242/242/242 243/243/243
f 205/205/205 243/243/243 206/206/206
f 206/206/206 243/243/243 244/244/244
f 206/206/206 244/244/244 207/207/207
f 207/207/207 244/244/244 245/245/245
f 207/207/207 245/245/245 208/208/208
f 208/208/208 245/245/245 246/246/246
f 208/208/208 246/246/246 209/209/209
f 209/209/209 246/246/246 247/247/247
f 209/209/209 247/247/247 210/210/210
f 210/210/210 247/247/247 248/248/248
f 210/210/210 248/248/248 211/211/211
f 211/211/211 248/248/248 249/249/249
f 211/211/211 249/249/249 212/212/212
f 212/212/212 249/249/249 250/250/250
f 212/212/212 250/250/250 213/213/213
f 213/213/213 250/250/250 251/251/251
f 213/213/213 251/251/251 214/214/214
f 214/214/214 251/251/251 252/252/252
f 214/214/214 252/252/252 215/215/215
f 215/215/215 252/252/252 253/253/253
f 215/215/215 253/253/253 216/216/216
f 216/216/216 253/253/253 254/254/254
f 216/216/216 254/254/254 217/217/217
f 217/217/217 254/254/254 255/255/255
f 217/217/217 255/255/255 218/218/218
f 218/218/218 255/255/255 256/256/256
f 218/218/218 256/256/256 219/219/219
f 219/219/219 256/256/256 257/257/257
f 219/219/219 257/257/257 220/220/220
f 220/220/220 257/257/257 258/258/258
f 220/220/220 258/258/258 221/221/221
f 221/221/221 258/258/258 259/259/259
f 221/221/221 259/259/259 222/222/222
f 223/223/223 260/260/260 261/261/261
f 223/223/223 261/261/261 224/224/224
f 224/224/224 261/261/261 262/262/262
f 224/224/224 262/262/262 225/225/225
f 225/225/225 262/262/262 263/263/263
f 225/225/225 263/263/263 226/226/226
f 226/226/226 263/263/263 264/264/264
f 226/226/226 264/264/264 227/227/227
f 227/227/227 264/264/264 265/265/265
f 227/227/227 265/265/265 228/228/228
f 228/228/228 265/265/265 266/266/266
f 228/228/228 266/266/266 229/229/229
f 229/229/229 266/266/266 267/267/267
f 229/229/229 267/267/267 230/230/230
f 230/230/230 267/267/267 268/268/268
f 230/230/230 268/268/268 231/231/231
f 231/231/231 268/268/268 269/269/269
f 231/231/231 269/269/269 232/232/232
f 232/232/232 269/269/269 270/270/270
f 232/232/232 270/270/270 233/233/233
f 233/233/233 270/270/270 271/271/271
f 233/233/233 271/271/271 234/234/234
f 234/234/234 271/271/271 272/272/272
f 234/234/234 272/272/272 235/235/235
f 235/235/235 272/272/272 273/273/273
f 235/235/235 273/273/273 236/236/236
f 236/236/236 273/273/273 274/274/274
f 236/236/236 274/274/274 237/237/237
f 237/237/237 274/274/274 275/275/275
f 237/237/237 275/275/275 238/238/238
f 238/238/238 275/275/275 276/276/276
f 238/238/238 276/276/276 239/239/239
f 239/239/239 276/276/276 277/277/277
f 239/239/239 277/277/277 240/240/240
f 240/240/240 277/277/277 278/278/278
f 240/240/240 278/278/278 241/241/241
f 241/241/241 278/278/278 279/279/279
f 241/241/241 279/279/279 242/242/242
f 242/242/242 279/279/279 280/280/280
f 242/242/242 280/280/280 243/243/243
f 243/243/243 280/280/280 281/281/281
f 243/243/243 281/281/281 244/244/244
f 244/244/244 281/281/281 282/282/282
f 244/244/244 282/282/282 245/245/245
f 245/245/245 282/282/282 283/283/283
f 245/245/245 283/283/283 246/246/246
f 246/246/246 283/283/283 284/284/284
f 246/246/246 284/284/284 247/247/247
f 247/247/247 284/284/284 285/285/285
f 247/247/247 285/285/285 248/248/248
f 248/248/248 285/285/285 286/286/286
f 248/248/248 286/286/286 249/249/249
f 249/249/249 286/286/286 287/287/287
f 249/249/249 287/287/287 250/250/250
f 250/250/250 287/287/287 288/288/288
f 250/250/250 288/288/288 251/251/251
f 251/251/251 288/288/288 289/289/289
f 251/251/251 289/289/289 252/252/252
f 252/252/252 289/289/289 290/290/290
f 252/252/252 290/290/290 253/253/253
f 253/253/253 290/290/290 291/291/291
f 253/253/253 291/291/291 254/254/254
f 254/254/254 291/291/291 292/292/292
f 254/254/254 292/292/292 255/255/255
f 255/255/255 292/292/292 293/293/293
f 255/255/255 293/293/293 256/256/256
f 256/256/256 293/293/293 294/294/294
f 256/256/256 294/294/294 257/257/257
f 257/257/257 294/294/294 295/295/295
f 257/257/257 295/295/295 258/258/258
f 258/258/258 295/295/295 296/296/296
f 258/258/258 296/296/296 259/259/259
f 260/260/260 297/297/297 298/298/298
f 260/260/260 298/298/298 261/261/261
f 261/261/261 298/298/298 299/299/299
f 261/261/261 299/299/299 262/262/262
f 262/262/262 299/299/299 300/300/300
f 262/262/262 300/300/300 263/263/263
f 263/263/263 300/300/300 301/301/301
f 263/263/263 301/301/301 264/264/264
f 264/264/264 301/301/301 302/302/302
f 264/264/264 302/302/302 265/265/265
f 265/265/265 302/302/302 303/303/303
f 265/265/265 303/303/303 266/266/266
f 266/266/266 303/303/303 304/304/304
f 266/266/266 304/304/304 267/267/267
f 267/267/267 304/304/304 305/305/305
f 267/267/267 305/305/305 268/268/268
f 268/268/268 305/305/305 306/306/306
f 268/268/268 306/306/306 269/269/269
f 269/269/269 306/306/306 307/307/307
f 269/269/269 307/307/307 270/270/270
f 270/270/270 307/307/307 308/308/308
f 270/270/270 308/308/308 271/271/271
f 271/271/271 308/308/308 309/309/309
f 271/271/271 309/309/309 272/272/272
f 272/272/272 309/309/309 310/310/310
f 272/272/272 310/310/310 273/273/273
f 273/273/273 310/310/310 311/311/311
f 273/273/273 311/311/311 274/274/274
f 274/274/274 311/311/311 312/312/312
f 274/274/274 312/312/312 275/275/275
f 275/275/275 312/312/312 313/313/313
f 275/275/275 313/313/313 276/276/276
f 276/276/276 313/313/313 314/314/314
f 276/276/276 314/314/314 277/277/277
f 277/277/277 314/314/314 315/315/315
f 277/277/277 315/315/315 278/278/278
f 278/278/278 315/315/315 316/316/316
f 278/278/278 316/316/316 279/279/279
f 279/279/279 316/316/316 317/317/317
f 279/279/279 317/317/317 280/280/280
f 280/280/280 317/317/317 318/318/318
f 280/280/280 318/318/318 281/281/281
f 281/281/281 318/318/318 319/319/319
f 281/281/281 319/319/319 282/282/282
f 282/282/282 319/319/319 320/320/320
f 282/282/282 320/320/320 283/283/283
f 283/283/283 320/320/320 321/321/321
f 283/283/283 321/321/321 284/284/284
f 284/284/284 321/321/321 322/322/322
f 284/284/284 322/322/322 285/285/285
f 285/285/285 322/322/322 323/323/323
f 285/285/285 323/323/323 286/286/286
f 286/286/286 323/323/323 324/324/324
f 286/286/286 324/324/324 287/287/287
f 287/287/287 324/324/324 325/325/325
f 287/287/287 325/325/325 288/288/288
f 288/288/288 325/325/325 326/326/326
f 288/288/288 326/326/326 289/289/289
f 289/289/289 326/326/326 327/327/327
f 289/289/289 327/327/327 290/290/290
f 290/290/290 327/327/327 328/328/328
f 290/290/290 328/328/328 291/291/291
f 291/291/291 328/328/328 329/329/329
f 291/291/291 329/329/329 292/292/292
f 292/292/292 329/329/329 330/330/330
f 292/292/292 330/330/330 293/293/293
f 293/293/293 330/330/330 331/331/331
f 293/293/293 331/331/331 294/294/294
f 294/294/294 331/331/331 332/332/332
f 294/294/294 332/332/332 295/295/295
f 295/295/295 332/332/332 333/333/333
f 295/295/295 333/333/333 296/296/296
f 297/297/297 334/334/334 335/335/335
f 297/297/297 335/335/335 298/298/298
f 298/298/298 335/335/335 336/336/336
f 298/298/298 336/336/336 299/299/299
f 299/299/299 336/336/336 337/337/337
f 299/299/299 337/337/337 300/300/300
f 300/300/300 337/337/337 338/338/338
f 300/300/300 338/338/338 301/301/301
f 301/301/301 338/338/338 339/339/339
f 301/301/301 339/339/339 302/302/302
f 302/302/302 339/339/339 340/340/340
f 302/302/302 340/340/340 303/303/303
f 303/303/303 340/340/340 341/341/341
f 303/303/303 341/341/341 304/304/304
f 304/304/304 341/341/341 342/342/342
f 304/304/304 342/342/342 305/305/305
f 305/305/305 342/342/342 343/343/343
f 305/305/305 343/343/343 306/306/306
f 306/306/306 343/343/343 344/344/344
f 306/306/306 344/344/344 307/307/307
f 307/307/307 344/344/344 345/345/345
f 307/307/307 345/345/345 308/308/308
f 308/308/308 345/345/345 346/346/346
f 308/308/308 346/346/346 309/309/309
f 309/309/309 346/346/346 347/347/347
f 309/309/309 347/347/347 310/310/310
f 310/310/310 347/347/347 348/348/348
f 310/310/310 348/348/348 311/311/311
f 311/311/311 348/348/348 349/349/349
f 311/311/311 349/349/349 312/312/312
f 312/312/312 349/349/349 350/350/350
f 312/312/312 350/350/350 313/313/313
f 313/313/313 350/350/350 351/351/351
f 313/313/313 351/351/351 314/314/314
f 314/314/314 351/351/351 352/352/352
f 314/314/314 352/352/352 315/315/315
f 315/315/315 352/352/352 353/353/353
f 315/315/315 353/353/353 316/316/316
f 316/316/316 353/353/353 354/354/354
f 316/316/316 354/354/354 317/317/317
f 317/317/317 354/354/354 355/355/355
f 317/317/317 355/355/355 318/318/318
f 318/318/318 355/355/355 356/356/356
f 318/318/318 356/356/356 319/319/319
f 319/319/319 356/356/356 357/357/357
f 319/319/319 357/357/357 320/320/320
f 320/320/320 357/357/357 358/358/358
f 320/320/320 358/358/358 321/321/321
f 321/321/321 358/358/358 359/359/359
f 321/321/321 359/359/359 322/322/322
f 322/322/322 359/359/359 360/360/360
f 322/322/322 360/360/360 323/323/323
f 323/323/323 360/360/360 361/361/361
f 323/323/323 361/361/361 324/324/324
f 324/324/324 361/361/361 362/362/362
f 324/324/324 362/362/362 325/325/325
f 325/325/325 362/362/362 363/363/363
f 325/325/325 363/363/363 326/326/326
f 326/326/326 363/363/363 364/364/364
f 326/326/326 364/364/364 327/327/327
f 327/327/327 364/364/364 365/365/365
f 327/327/327 365/365/365 328/328/328
f 328/328/328 365/365/365 366/366/366
f 328/328/328 366/366/366 329/329/329
f 329/329/329 366/366/366 367/367/367
f 329/329/329 367/367/367 330/330/330
f 330/330/330 367/367/367 368/368/368
f 330/330/330 368/368/368 331/331/331
f 331/331/331 368/368/368 369/369/369
f 331/331/331 369/369/369 332/332/332
f 332/332/332 369/369/369 370/370/370
f 332/332/332 370/370/370 333/333/333
f 334/334/334 371/371/371 372/372/372
f 334/334/334 372/372/372 335/335/335
f 335/335/335 372/372/372 373/373/373
f 335/335/335 373/373/373 336/336/336
f 336/336/336 373/373/373 374/374/374
f 336/336/336 374/374/374 337/337/337
f 337/337/337 374/374/374 375/375/375
f 337/337/337 375/375/375 338/338/338
f 338/338/338 375/375/375 376/376/376
f 338/338/338 376/376/376 339/339/339
f 339/339/339 376/376/376 377/377/377
f 339/339/339 377/377/377 340/340/340
f 340/340/340 377/377/377 378/378/378
f 340/340/340 378/378/378 341/341/341
f 341/341/341 378/378/378 379/379/379
f 341/341/341 379/379/379 342/342/342
f 342/342/342 379/379/379 380/380/380
f 342/342/342 380/380/380 343/343/343
f 343/343/343 380/380/380 381/381/381
f 343/343/343 381/381/381 344/344/344
f 344/344/344 381/381/381 382/382/382
f 344/344/344 382/382/382 345/345/345
f 345/345/345 382/382/382 383/383/383
f 345/345/345 383/383/383 346/346/346
f 346/346/346 383/383/383 384/384/384
f 346/346/346 384/384/384 347/347/347
f 347/347/347 384/384/384 385/385/385
f 347/347/347 385/385/385 348/348/348
f 348/348/348 385/385/385 386/386/386
f 348/348/348 386/386/386 349/349/349
f 349/349/349 386/386/386 387/387/387
f 349/349/349 387/387/387 350/350/350
f 350/350/350 387/387/387 388/388/388
f 350/350/350 388/388/388 351/351/351
f 351/351/351 388/388/388 389/389/389
f 351/351/351 389/389/389 352/352/352
f 352/352/352 389/389/389 390/390/390
f 352/352/352 390/390/390 353/353/353
f 353/353/353 390/390/390 391/391/391
f 353/353/353 391/391/391 354/354/354
f 354/354/354 391/391/391 392/392/392
f 354/354/354 392/392/392 355/355/355
f 355/355/355 392/392/392 393/393/393
f 355/355/355 393/393/393 356/356/356
f 356/356/356 393/393/393 394/394/394
f 356/356/356 394/394/394 357/357/357
f 357/357/357 394/394/394 395/395/395
f 357/357/357 395/395/395 358/358/358
f 358/358/358 395/395/395 396/396/396
f 358/358/358 396/396/396 359/359/359
f 359/359/359 396/396/396 397/397/397
f 359/359/359 397/397/397 360/360/360
f 360/360/360 397/397/397 398/398/398
f 360/360/360 398/398/398 361/361/361
f 361/361/361 398/398/398 399/399/399
f 361/361/361 399/399/399 362/362/362
f 362/362/362 399/399/399 400/400/400
f 362/362/362 400/400/400 363/363/363
f 363/363/363 400/400/400 401/401/401
f 363/363/363 401/401/401 364/364/364
f 364/364/364 401/401/401 402/402/402
f 364/364/364 402/402/402 365/365/365
f 365/365/365 402/402/402 403/403/403
f 365/365/365 403/403/403 366/366/366
f 366/366/366 403/403/403 404/404/404
f 366/366/366 404/404/404 367/367/367
f 367/367/367 404/404/404 405/405/405
f 367/367/367 405/405/405 368/368/368
f 368/368/368 405/405/405 406/406/406
f 368/368/368 406/406/406 369/369/369
f 369/369/369 406/406/406 407/407/407
f 369/369/369 407/407/407 370/370/370
f 371/371/371 408/408/408 409/409/409
f 371/371/371 409/409/409 372/372/372
f 372/372/372 409/409/409 410/410/410
f 372/372/372 410/410/410 373/373/373
f 373/373/373 410/410/410 411/411/411
f 373/373/373 411/411/411 374/374/374
f 374/374/374 411/411/411 412/412/412
f 374/374/374 412/412/412 375/375/375
f 375/375/375 412/412/412 413/413/413
f 375/375/375 413/413/413 376/376/376
f 376/376/376 413/413/413 414/414/414
f 376/376/376 414/414/414 377/377/377
f 377/377/377 414/414/414 415/415/415
f 377/377/377 415/415/415 378/378/378
f 378/378/378 415/415/415 416/416/416
f 378/378/378 416/416/416 379/379/379
f 379/379/379 416/416/416 417/417/417
f 379/379/379 417/417/417 380/380/380
f 380/380/380 417/417/417 418/418/418
f 380/380/380 418/418/418 381/381/381
f 381/381/381 418/418/418 419/419/419
f 381/381/381 419/419/419 382/382/382
f 382/382/382 419/419/419 420/420/420
f 382/382/382 420/420/420 383/383/383
f 383/383/383 420/420/420 421/421/421
f 383/383/383 421/421/421 384/384/384
f 384/384/384 421/421/421 422/422/422
f 384/384/384 422/422/422 385/385/385
f 385/385/385 422/422/422 423/423/423
f 385/385/385 423/423/423 386/386/386
f 386/386/386 423/423/423 424/424/424
f 386/386/386 424/424/424 387/387/387
f 387/387/387 424/424/424 425/425/425
f 387/387/387 425/425/425 388/388/388
f 388/388/388 425/425/425 426/426/426
f 388/388/388 426/426/426 389/389/389
f 389/389/389 426/426/426 427/427/427
f 389/389/389 427/427/427 390/390/390
f 390/390/390 427/427/427 428/428/428
f 390/390/390 428/428/428 391/391/391
f 391/391/391 428/428/428 429/429/429
f 391/391/391 429/429/429 392/392/392
f 392/392/392 429/429/429 430/430/430
f 392/392/392 430/430/430 393/393/393
f 393/393/393 430/430/430 431/431/431
f 393/393/393 431/431/431 394/394/394
f 394/394/394 431/431/431 432/432/432
f 394/394/394 432/432/432 395/395/395
f 395/395/395 432/432/432 433/433/433
f 395/395/395 433/433/433 396/396/396
f 396/396/396 433/433/433 434/434/434
f 396/396/396 434/434/434 397/397/397
f 397/397/397 434/434/434 435/435/435
f 397/397/397 435/435/435 398/398/398
f 398/398/398 435/435/435 436/436/436
f 398/398/398 436/436/436 399/399/399
f 399/399/399 436/436/436 437/437/437
f 399/399/399 437/437/437 400/400/400
f 400/400/400 437/437/437 438/438/438
f 400/400/400 438/438/438 401/401/401
f 401/401/401 438/438/438 439/439/439
f 401/401/401 439/439/439 402/402/402
f 402/402/402 439/439/439 440/440/440
f 402/402/402 440/440/440 403/403/403
f 403/403/403 440/440/440 441/441/441
f 403/403/403 441/441/441 404/404/404
f 404/404/404 441/441/441 442/442/442
f 404/404/404 442/442/442 405/405/405
f 405/405/405 442/442/442 443/443/443
f 405/405/405 443/443/443 406/406/406
f 406/406/406 443/443/443 444/444/444
f 406/406/406 444/444/444 407/407/407
f 408/408/408 445/445/445 446/446/446
f 408/408/408 446/446/446 409/409/409
f 409/409/409 446/446/446 447/447/447
f 409/409/409 447/447/447 410/410/410
f 410/410/410 447/447/447 448/448/448
f 410/410/410 448/448/448 411/411/411
f 411/411/411 448/448/448 449/449/449
f 411/411/411 449/449/449 412/412/412
f 412/412/412 449/449/449 450/450/450
f 412/412/412 450/450/450 413/413/413
f 413/413/413 450/450/450 451/451/451
f 413/413/413 451/451/451 414/414/414
f 414/414/414 451/451/451 452/452/452
f 414/414/414 452/452/452 415/415/415
f 415/415/415 452/452/452 453/453/453
f 415/415/415 453/453/453 416/416/416
f 416/416/416 453/453/453 454/454/454
f 416/416/416 454/454/454 417/417/417
f 417/417/417 454/454/454 455/455/455
f 417/417/417 455/455/455 418/418/418
f 418/418/418 455/455/455 456/456/456
f 418/418/418 456/456/456 419/419/419
f 419/419/419 456/456/456 457/457/457
f 419/419/419 457/457/457 420/420/420
f 420/420/420 457/457/457 458/458/458
f 420/420/420 458/458/458 421/421/421
f 421/421/421 458/458/458 459/459/459
f 421/421/421 459/459/459 422/422/422
f 422/422/422 459/459/459 460/460/460
f 422/422/422 460/460/460 423/423/423
f 423/423/423 460/460/460 461/461/461
f 423/423/423 461/461/461 424/424/424
f 424/424/424 461/461/461 462/462/462
f 424/424/424 462/462/462 425/425/425
f 425/425/425 462/462/462 463/463/463
f 425/425/425 463/463/463 426/426/426
f 426/426/426 463/463/463 464/464/464
f 426/426/426 464/464/464 427/427/427
f 427/427/427 464/464/464 465/465/465
f 427/427/427 465/465/465 428/428/428
f 428/428/428 465/465/465 466/466/466
f 428/428/428 466/466/466 429/429/429
f 429/429/429 466/466/466 467/467/467
f 429/429/429 467/467/467 430/430/430
f 430/430/430 467/467/467 468/468/468
f 430/430/430 468/468/468 431/431/431
f 431/431/431 468/468/468 469/469/469
f 431/431/431 469/469/469 432/432/432
f 432/432/432 469/469/469 470/470/470
f 432/432/432 470/470/470 433/433/433
f 433/433/433 470/470/470 471/471/471
f 433/433/433 471/471/471 434/434/434
f 434/434/434 471/471/471 472/472/472
f 434/434/434 472/472/472 435/435/435
f 435/435/435 472/472/472 473/473/473
f 435/435/435 473/473/473 436/436/436
f 436/436/436 473/473/473 474/474/474
f 436/436/436 474/474/474 437/437/437
f 437/437/437 474/474/474 475/475/475
f 437/437/437 475/475/475 438/438/438
f 438/438/438 475/475/475 476/476/476
f 438/438/438 476/476/476 439/439/439
f 439/439/439 476/476/476 477/477/477
f 439/439/439 477/477/477 440/440/440
f 440/440/440 477/477/477 478/478/478
f 440/440/440 478/478/478 441/441/441
f 441/441/441 478/478/478 479/479/479
f 441/441/441 479/479/479 442/442/442
f 442/442/442 479/479/479 480/480/480
f 442/442/442 480/480/480 443/443/443
f 443/443/443 480/480/480 481/481/481
f 443/443/443 481/481/481 444/444/444
f 445/445/445 482/482/482 483/483/483
f 445/445/445 483/483/483 446/446/446
f 446/446/446 483/483/483 484/484/484
f 446/446/446 484/484/484 447/447/447
f 447/447/447 484/484/484 485/485/485
f 447/447/447 485/485/485 448/448/448
f 448/448/448 485/485/485 486/486/486
f 448/448/448 486/486/486 449/449/449
f 449/449/449 486/486/486 487/487/487
f 449/449/449 487/487/487 450/450/450
f 450/450/450 487/487/487 488/488/488
f 450/450/450 488/488/488 451/451/451
f 451/451/451 488/488/488 489/489/489
f 451/451/451 489/489/489 452/452/452
f 452/452/452 489/489/489 490/490/490
f 452/452/452 490/490/490 453/453/453
f 453/453/453 490/490/490 491/491/491
f 453/453/453 491/491/491 454/454/454
f 454/454/454 491/491/491 492/492/492
f 454/454/454 492/492/492 455/455/455
f 455/455/455 492/492/492 493/493/493
f 455/455/455 493/493/493 456/456/456
f 456/456/456 493/493/493 494/494/494
f 456/456/456 494/494/494 457/457/457
f 457/457/457 494/494/494 495/495/495
f 457/457/457 495/495/495 458/458/458
f 458/458/458 495/495/495 496/496/496
f 458/458/458 496/496/496 459/459/459
f 459/459/459 496/496/496 497/497/497
f 459/459/459 497/497/497 460/460/460
f 460/460/460 497/497/497 498/498/498
f 460/460/460 498/498/498 461/461/461
f 461/461/461 498/498/498 499/499/499
f 461/461/461 499/499/499 462/462/462
f 462/462/462 499/499/499 500/500/500
f 462/462/462 500/500/500 463/463/463
f 463/463/463 500/500/500 501/501/501
f 463/463/463 501/501/501 464/464/464
f 464/464/464 501/501/501 502/502/502
f 464/464/464 502/502/502 465/465/465
f 465/465/465 502/502/502 503/503/503
f 465/465/465 503/503/503 466/466/466
f 466/466/466 503/503/503 504/504/504
f 466/466/466 504/504/504 467/467/467
f 467/467/467 504/504/504 505/505/505
f 467/467/467 505/505/505 468/468/468
f 468/468/468 505/505/505 506/506/506
f 468/468/468 506/506/506 469/469/469
f 469/469/469 506/506/506 507/507/507
f 469/469/469 507/507/507 470/470/470
f 470/470/470 507/507/507 508/508/508
f 470/470/470 508/508/508 471/471/471
f 471/471/471 508/508/508 509/509/509
f 471/471/471 509/509/509 472/472/472
f 472/472/472 509/509/509 510/510/510
f 472/472/472 510/510/510 473/473/473
f 473/473/473 510/510/510 511/511/511
f 473/473/473 511/511/511 474/474/474
f 474/474/474 511/511/511 512/512/512
f 474/474/474 512/512/512 475/475/475
f 475/475/475 512/512/512 513/513/513
f 475/475/475 513/513/513 476/476/476
f 476/476/476 513/513/513 514/514/514
f 476/476/476 514/514/514 477/477/477
f 477/477/477 514/514/514 515/515/515
f 477/477/477 515/515/515 478/478/478
f 478/478/478 515/515/515 516/516/516
f 478/478/478 516/516/516 479/479/479
f 479/479/479 516/516/516 517/517/517
f 479/479/479 517/517/517 480/480/480
f 480/480/480 517/517/517 518/518/518
f 480/480/480 518/518/518 481/481/481
f 482/482/482 519/519/519 520/520/520
f 482/482/482 520/520/520 483/483/483
f 483/483/483 520/520/520 521/521/521
f 483/483/483 521/521/521 484/484/484
f 484/484/484 521/521/521 522/522/522
f 484/484/484 522/522/522 485/485/485
f 485/485/485 522/522/522 523/523/523
f 485/485/485 523/523/523 486/486/486
f 486/486/486 523/523/523 524/524/524
f 486/486/486 524/524/524 487/487/487
f 487/487/487 524/524/524 525/525/525
f 487/487/487 525/525/525 488/488/488
f 488/488/488 525/525/525 526/526/526
f 488/488/488 526/526/526 489/489/489
f 489/489/489 526/526/526 527/527/527
f 489/489/489 527/527/527 490/490/490
f 490/490/490 527/527/527 528/528/528
f 490/490/490 528/528/528 491/491/491
f 491/491/491 528/528/528 529/529/529
f 491/491/491 529/529/529 492/492/492
f 492/492/492 529/529/529 530/530/530
f 492/492/492 530/530/530 493/493/493
f 493/493/493 530/530/530 531/531/531
f 493/493/493 531/531/531 494/494/494
f 494/494/494 531/531/531 532/532/532
f 494/494/494 532/532/532 495/495/495
f 495/495/495 532/532/532 533/533/533
f 495/495/495 533/533/533 496/496/496
f 496/496/496 533/533/533 534/534/534
f 496/496/496 534/534/534 497/497/497
f 497/497/497 534/534/534 535/535/535
f 497/497/497 535/535/535 498/498/498
f 498/498/498 535/535/535 536/536/536
f 498/498/498 536/536/536 499/499/499
f 499/499/499 536/536/536 537/537/537
f 499/499/499 537/537/537 500/500/500
f 500/500/500 537/537/537 538/538/538
f 500/500/500 538/538/538 501/501/501
f 501/501/501 538/538/538 539/539/539
f 501/501/501 539/539/539 502/502/502
f 502/502/502 539/539/539 540/540/540
f 502/502/502 540/540/540 503/503/503
f 503/503/503 540/540/540 541/541/541
f 503/503/503 541/541/541 504/504/504
f 504/504/504 541/541/541 542/542/542
f 504/504/504 542/542/542 505/505/505
f 505/505/505 542/542/542 543/543/543
f 505/505/505 543/543/543 506/506/506
f 506/506/506 543/543/543 544/544/544
f 506/506/506 544/544/544 507/507/507
f 507/507/507 544/544/544 545/545/545
f 507/507/507 545/545/545 508/508/508
f 508/508/508 545/545/545 546/546/546
f 508/508/508 546/546/546 509/509/509
f 509/509/509 546/546/546 547/547/547
f 509/509/509 547/547/547 510/510/510
f 510/510/510 547/547/547 548/548/548
f 510/510/510 548/548/548 511/511/511
f 511/511/511 548/548/548 549/549/549
f 511/511/511 549/549/549 512/512/512
f 512/512/512 549/549/549 550/550/550
f 512/512/512 550/550/550 513/513/513
f 513/513/513 550/550/550 551/551/551
f 513/513/513 551/551/551 514/514/514
f 514/514/514 551/551/551 552/552/552
f 514/514/514 552/552/552 515/515/515
f 515/515/515 552/552/552 553/553/553
f 515/515/515 553/553/553 516/516/516
f 516/516/516 553/553/553 554/554/554
f 516/516/516 554/554/554 517/517/517
f 517/517/517 554/554/554 555/555/555
f 517/517/517 555/555/555 518/518/518
f 519/519/519 556/556/556 557/557/557
f 519/519/519 557/557/557 520/520/520
f 520/520/520 557/557/557 558/558/558
f 520/520/520 558/558/558 521/521/521
f 521/521/521 558/558/558 559/559/559
f 521/521/521 559/559/559 522/522/522
f 522/522/522 559/559/559 560/560/560
f 522/522/522 560/560/560 523/523/523
f 523/523/523 560/560/560 561/561/561
f 523/523/523 561/561/561 524/524/524
f 524/524/524 561/561/561 562/562/562
f 524/524/524 562/562/562 525/525/525
f 525/525/525 562/562/562 563/563/563
f 525/525/525 563/563/563 526/526/526
f 526/526/526 563/563/563 564/564/564
f 526/526/526 564/564/564 527/527/527
f 527/527/527 564/564/564 565/565/565
f 527/527/527 565/565/565 528/528/528
f 528/528/528 565/565/565 566/566/566
f 528/528/528 566/566/566 529/529/529
f 529/529/529 566/566/566 567/567/567
f 529/529/529 567/567/567 530/530/530
f 530/530/530 567/567/567 568/568/568
f 530/530/530 568/568/568 531/531/531
f 531/531/531 568/568/568 569/569/569
f 531/531/531 569/569/569 532/532/532
f 532/532/532 569/569/569 570/570/570
f 532/532/532 570/570/570 533/533/533
f 533/533/533 570/570/570 571/571/571
f 533/533/533 571/571/571 534/534/534
f 534/534/534 571/571/571 572/572/572
f 534/534/534 572/572/572 535/535/535
f 535/535/535 572/572/572 573/573/573
f 535/535/535 573/573/573 536/536/536
f 536/536/536 573/573/573 574/574/574
f 536/536/536 574/574/574 537/537/537
f 537/537/537 574/574/574 575/575/575
f 537/537/537 575/575/575 538/538/538
f 538/538/538 575/575/575 576/576/576
f 538/538/538 576/576/576 539/539/539
f 539/539/539 576/576/576 577/577/577
f 539/539/539 577/577/577 540/540/540
f 540/540/540 577/577/577 578/578/578
f 540/540/540 578/578/578 541/541/541
f 541/541/541 578/578/578 579/579/579
f 541/541/541 579/579/579 542/542/542
f 542/542/542 579/579/579 580/580/580
f 542/542/542 580/580/580 543/543/543
f 543/543/543 580/580/580 581/581/581
f 543/543/543 581/581/581 544/544/544
f 544/544/544 581/581/581 582/582/582
f 544/544/544 582/582/582 545/545/545
f 545/545/545 582/582/582 583/583/583
f 545/545/545 583/583/583 546/546/546
f 546/546/546 583/583/583 584/584/584
f 546/546/546 584/584/584 547/547/547
f 547/547/547 584/584/584 585/585/585
f 547/547/547 585/585/585 548/548/548
f 548/548/548 585/585/585 586/586/586
f 548/548/548 586/586/586 549/549/549
f 549/549/549 586/586/586 587/587/587
f 549/549/549 587/587/587 550/550/550
f 550/550/550 587/587/587 588/588/588
f 550/550/550 588/588/588 551/551/551
f 551/551/551 588/588/588 589/589/589
f 551/551/551 589/589/589 552/552/552
f 552/552/552 589/589/589 590/590/590
f 552/552/552 590/590/590 553/553/553
f 553/553/553 590/590/590 591/591/591
f 553/553/553 591/591/591 554/554/554
f 554/554/554 591/591/591 592/592/592
f 554/554/554 592/592/592 555/555/555
f 556/556/556 593/593/593 594/594/594
f 556/556/556 594/594/594 557/557/557
f 557/557/557 594/594/594 595/595/595
f 557/557/557 595/595/595 558/558/558
f 558/558/558 595/595/595 596/596/596
f 558/558/558 596/596/596 559/559/559
f 559/559/559 596/596/596 597/597/597
f 559/559/559 597/597/597 560/560/560
f 560/560/560 597/597/597 598/598/598
f 560/560/560 598/598/598 561/561/561
f 561/561/561 598/598/598 599/599/599
f 561/561/561 599/599/599 562/562/562
f 562/562/562 599/599/599 600/600/600
f 562/562/562 600/600/600 563/563/563
f 563/563/563 600/600/600 601/601/601
f 563/563/563 601/601/601 564/564/564
f 564/564/564 601/601/601 602/602/602
f 564/564/564 602/602/602 565/565/565
f 565/565/565 602/602/602 603/603/603
f 565/565/565 603/603/603 566/566/566
f 566/566/566 603/603/603 604/604/604
f 566/566/566 604/604/604 567/567/567
f 567/567/567 604/604/604 605/605/605
f 567/567/567 605/605/605 568/568/568
f 568/568/568 605/605/605 606/606/606
f 568/568/568 606/606/606 569/569/569
f 569/569/569 606/606/606 607/607/607
f 569/569/569 607/607/607 570/570/570
f 570/570/570 607/607/607 608/608/608
f 570/570/570 608/608/608 571/571/571
f 571/571/571 608/608/608 609/609/609
f 571/571/571 609/609/609 572/572/572
f 572/572/572 609/609/609 610/610/610
f 572/572/572 610/610/610 573/573/573
f 573/573/573 610/610/610 611/611/611
f 573/573/573 611/611/611 574/574/574
f 574/574/574 611/611/611 612/612/612
f 574/574/574 612/612/612 575/575/575
f 575/575/575 612/612/612 613/613/613
f 575/575/575 613/613/613 576/576/576
f 576/576/576 613/613/613 614/614/614
f 576/576/576 614/614/614 577/577/577
f 577/577/577 614/614/614 615/615/615
f 577/577/577 615/615/615 578/578/578
f 578/578/578 615/615/615 616/616/616
f 578/578/578 616/616/616 579/579/579
f 579/579/579 616/616/616 617/617/617
f 579/579/579 617/617/617 580/580/580
f 580/580/580 617/617/617 618/618/618
f 580/580/580 618/618/618 581/581/581
f 581/581/581 618/618/618 619/619/619
f 581/581/581 619/619/619 582/582/582
f 582/582/582 619/619/619 620/620/620
f 582/582/582 620/620/620 583/583/583
f 583/583/583 620/620/620 621/621/621
f 583/583/583 621/621/621 584/584/584
f 584/584/584 621/621/621 622/622/622
f 584/584/584 622/622/622 585/585/585
f 585/585/585 622/622/622 623/623/623
f 585/585/585 623/623/623 586/586/586
f 586/586/586 623/623/623 624/624/624
f 586/586/586 624/624/624 587/587/587
f 587/587/587 624/624/624 625/625/625
f 587/587/587 625/625/625 588/588/588
f 588/588/588 625/625/625 626/626/626
f 588/588/588 626/626/626 589/589/589
f 589/589/589 626/626/626 627/627/627
f 589/589/589 627/627/627 590/590/590
f 590/590/590 627/627/627 628/628/628
f 590/590/590 628/628/628 591/591/591
f 591/591/591 628/628/628 629/629/629
f 591/591/591 629/629/629 592/592/592
