# Generated sky cornice; visual geometry only.
s 1
v -10.943057 -2.10058 30.487044
v -11.041338 -0.902435 30.431398
v -11.197758 0.872246 30.342835
v -11.271122 2.809387 30.301297
v -11.12024 4.492048 30.386725
v -10.69251 5.874151 30.628902
v -10.068217 7.137738 30.98237
v -9.3055 8.205401 31.414213
v -8.462497 8.999357 31.891513
v -7.503218 9.484389 32.434648
v -6.41382 9.684698 33.051455
v -5.285664 9.613314 33.690206
v -4.210109 9.285708 34.299175
v -3.146319 8.638984 34.901482
v -2.067303 7.680849 35.512411
v -1.085184 6.537224 36.068477
v -0.312086 5.337167 36.506198
v 0.233305 4.109112 36.814993
v 0.607051 2.80111 37.026604
v 0.80915 1.425102 37.141031
v 0.839603 -0.00586 37.158273
v 0.683876 -1.542766 37.070102
v 0.346813 -3.151196 36.87926
v -0.142516 -4.690618 36.602207
v -0.755043 -6.022382 36.2554
v -1.550289 -7.057823 35.805139
v -2.521334 -7.876912 35.255343
v -3.539444 -8.629614 34.678899
v -4.475883 -9.458965 34.148696
v -5.34657 -10.352702 33.655721
v -6.203416 -11.26177 33.170584
v -6.971669 -12.250553 32.735606
v -7.576583 -13.383437 32.39311
v -7.974552 -14.855115 32.167783
v -8.213334 -16.572071 32.032587
v -8.355218 -18.166388 31.952254
v -8.462497 -19.270146 31.891513
v -9.333389 -2.573305 23.466424
v -9.438345 -1.313507 23.414419
v -9.605387 0.552631 23.331652
v -9.683734 2.589743 23.292832
v -9.522605 4.35944 23.372669
v -9.065825 5.813245 23.598998
v -8.399135 7.14251 23.929335
v -7.584619 8.265806 24.332917
v -6.684364 9.10131 24.778982
v -5.659937 9.611949 25.286573
v -4.496554 9.823129 25.863015
v -3.29178 9.748515 26.459965
v -2.14318 9.404348 27.029083
v -1.007144 8.724483 27.591974
v 0.145152 7.717019 28.162922
v 1.19397 6.514352 28.682599
v 2.019573 5.252189 29.091675
v 2.602004 3.960449 29.380262
v 3.001131 2.584549 29.578025
v 3.216956 1.137085 29.684963
v 3.249477 -0.368176 29.701077
v 3.083174 -1.984799 29.618676
v 2.72322 -3.676552 29.440323
v 2.200659 -5.295641 29.1814
v 1.546533 -6.696259 28.857289
v 0.697278 -7.785162 28.436494
v -0.339714 -8.646415 27.922677
v -1.426967 -9.437789 27.383957
v -2.427004 -10.309751 26.888451
v -3.356823 -11.249407 26.427737
v -4.27186 -12.205181 25.974348
v -5.092289 -13.244766 25.567836
v -5.738284 -14.435856 25.247753
v -6.163281 -15.983146 25.037172
v -6.418279 -17.788316 24.910824
v -6.5698 -19.464546 24.835747
v -6.684364 -20.625013 24.778982
v -7.746107 -3.070694 16.453992
v -7.858624 -1.737879 16.405954
v -8.037701 0.240578 16.329499
v -8.121693 2.404571 16.293639
v -7.948955 4.29051 16.367388
v -7.459267 5.846182 16.576456
v -6.744544 7.272378 16.8816
v -5.871345 8.481795 17.254404
v -4.906232 9.386672 17.666451
v -3.807999 9.946539 18.135331
v -2.560799 10.187 18.667812
v -1.269226 10.121458 19.219237
v -0.037874 9.766283 19.744952
v 1.180008 9.051172 20.264915
v 2.415322 7.984518 20.792321
v 3.539703 6.706274 21.272366
v 4.424787 5.360206 21.650244
v 5.049179 3.978697 21.916823
v 5.477062 2.505163 22.099503
v 5.708436 0.954133 22.198286
v 5.7433 -0.658521 22.213171
v 5.565016 -2.387969 22.137054
v 5.179129 -4.194628 21.972303
v 4.618919 -5.921264 21.733127
v 3.917666 -7.412934 21.433733
v 3.007226 -8.570436 21.04503
v 1.895523 -9.482073 20.570398
v 0.729938 -10.317526 20.072762
v -0.342146 -11.238055 19.615045
v -1.338955 -12.230049 19.189467
v -2.319917 -13.239059 18.770654
v -3.199454 -14.336548 18.395144
v -3.89199 -15.593981 18.099472
v -4.347607 -17.227453 17.904951
v -4.620976 -19.133171 17.788238
v -4.783413 -20.902766 17.718887
v -4.906232 -22.12787 17.666451
v -6.179832 -3.589815 9.453913
v -6.300744 -2.173288 9.41033
v -6.49318 -0.062127 9.340966
v -6.583438 2.255668 9.308432
v -6.397813 4.287806 9.375341
v -5.871594 5.976923 9.565018
v -5.103551 7.533062 9.841862
v -4.165211 8.861093 10.180089
v -3.128099 9.865325 10.55392
v -1.947936 10.500203 10.979313
v -0.607694 10.790358 11.462408
v 0.780232 10.74789 11.96269
v 2.103444 10.388556 12.439646
v 3.412182 9.636969 12.911384
v 4.739652 8.501703 13.389875
v 5.947913 7.131257 13.825397
v 6.899026 5.678825 14.168228
v 7.569998 4.180301 14.410083
v 8.029802 2.577912 14.57582
v 8.278436 0.889533 14.665441
v 8.315902 -0.865305 14.678946
v 8.124317 -2.742197 14.609889
v 7.709642 -4.696537 14.460418
v 7.10764 -6.559439 14.243424
v 6.354073 -8.164836 13.971799
v 5.375713 -9.406176 13.619146
v 4.181076 -10.376015 13.188535
v 2.928536 -11.26031 12.737053
v 1.776473 -12.234655 12.321788
v 0.705301 -13.284643 11.935681
v -0.348841 -14.352641 11.555712
v -1.293993 -15.514292 11.215029
v -2.038194 -16.845237 10.946779
v -2.5278 -18.574205 10.770299
v -2.821563 -20.591335 10.664411
v -2.996118 -22.464384 10.601493
v -3.128099 -23.76111 10.55392
v -4.632852 -4.12747 2.469874
v -4.762922 -2.617337 2.431382
v -4.969934 -0.353811 2.37012
v -5.067029 2.144388 2.341387
v -4.867344 4.353077 2.40048
v -4.301266 6.208245 2.568001
v -3.475049 7.928699 2.812506
v -2.465634 9.409457 3.111225
v -1.349966 10.544815 3.441388
v -0.080412 11.28234 3.817091
v 1.361347 11.644354 4.243755
v 2.8544 11.640497 4.685599
v 4.277839 11.28506 5.106842
v 5.685707 10.49666 5.523476
v 7.113726 9.28391 5.946074
v 8.413507 7.804751 6.330723
v 9.436661 6.223106 6.633508
v 10.158456 4.579488 6.847111
v 10.653088 2.815913 6.993489
v 10.920555 0.955142 7.072641
v 10.960858 -0.977949 7.084568
v 10.754762 -3.037999 7.023577
v 10.308678 -5.173589 6.891566
v 9.661077 -7.201966 6.69992
v 8.850431 -8.943971 6.460023
v 7.797966 -10.284304 6.148564
v 6.51284 -11.319671 5.768253
v 5.165428 -12.256871 5.369509
v 3.926102 -13.289509 5.002751
v 2.773794 -14.402315 4.661745
v 1.639806 -15.534208 4.326161
v 0.623063 -16.765357 4.025273
v -0.177506 -18.17593 3.788358
v -0.704197 -20.008337 3.632493
v -1.020212 -22.146147 3.538974
v -1.207988 -24.131255 3.483404
v -1.349966 -25.505561 3.441388
v -3.103141 -4.68025 -4.494978
v -3.243054 -3.067575 -4.527618
v -3.465731 -0.633106 -4.579568
v -3.570173 2.071263 -4.603933
v -3.355378 4.486614 -4.553823
v -2.746464 6.540758 -4.411767
v -1.857725 8.460501 -4.204429
v -0.771926 10.128943 -3.951118
v 0.428167 11.428261 -3.671143
v 1.79379 12.297271 -3.35255
v 3.344649 12.754532 -2.990744
v 4.950685 12.805963 -2.616064
v 6.481838 12.463466 -2.258855
v 7.996242 11.638773 -1.905553
v 9.532321 10.340369 -1.547194
v 10.930459 8.736426 -1.221016
v 12.031037 7.002806 -0.964257
v 12.807452 5.185793 -0.783124
v 13.339513 3.228298 -0.658997
v 13.62722 1.159601 -0.591877
v 13.670573 -0.988301 -0.581763
v 13.448881 -3.267541 -0.633482
v 12.969041 -5.618027 -0.745426
v 12.272435 -7.840969 -0.907941
v 11.400446 -9.742196 -1.111371
v 10.268339 -11.196293 -1.375485
v 8.885966 -12.303893 -1.697985
v 7.436592 -13.297314 -2.036116
v 6.103484 -14.391897 -2.347123
v 4.863979 -15.571458 -2.636292
v 3.64418 -16.771251 -2.920865
v 2.550499 -18.076253 -3.176014
v 1.689348 -19.571442 -3.376916
v 1.122802 -21.513772 -3.509088
v 0.782874 -23.779823 -3.588392
v 0.580888 -25.884013 -3.635514
v 0.428167 -27.34076 -3.671143
v -1.588388 -5.244579 -11.438092
v -1.738736 -3.521573 -11.46402
v -1.978021 -0.899134 -11.505287
v -2.090253 2.035633 -11.524642
v -1.859437 4.686634 -11.484836
v -1.205108 6.971983 -11.371993
v -0.250083 9.125486 -11.207293
v 0.916699 11.016298 -11.006074
v 2.2063 12.512396 -10.783674
v 3.673777 13.541962 -10.530598
v 5.340305 14.118272 -10.243195
v 7.066126 14.242214 -9.945566
v 8.711479 13.922332 -9.661815
v 10.338833 13.062631 -9.381168
v 11.98948 11.671292 -9.096503
v 13.491897 9.927378 -8.837402
v 14.67456 8.019789 -8.633444
v 15.508883 6.001725 -8.48956
v 16.080628 3.818191 -8.390959
v 16.389793 1.506648 -8.337642
v 16.43638 -0.891968 -8.329607
v 16.198153 -3.425642 -8.370691
v 15.682524 -6.023732 -8.459615
v 14.933963 -8.46934 -8.588709
v 13.996937 -10.551481 -8.750305
v 12.780393 -12.133319 -8.960105
v 11.294916 -13.319091 -9.216285
v 9.737442 -14.371264 -9.484881
v 8.304905 -15.530582 -9.731931
v 6.972953 -16.779903 -9.961635
v 5.662176 -18.050653 -10.187686
v 4.486924 -19.432834 -10.390366
v 3.561545 -21.01645 -10.549953
v 2.952744 -23.073651 -10.654945
v 2.587463 -25.473718 -10.71794
v 2.370412 -27.702352 -10.755372
v 2.2063 -29.245252 -10.783674
v -0.086027 -5.816767 -18.357559
v -0.247301 -3.976993 -18.375838
v -0.503976 -1.151657 -18.40493
v -0.624364 2.035344 -18.418575
v -0.376774 4.948767 -18.390513
v 0.325107 7.495586 -18.31096
v 1.349537 9.915435 -18.19485
v 2.601112 12.061614 -18.052994
v 3.984433 13.785932 -17.896205
v 5.558556 15.004128 -17.717791
v 7.346196 15.722671 -17.515176
v 9.197438 15.936119 -17.305353
v 10.962364 15.64869 -17.105313
v 12.707982 14.755901 -16.907461
v 14.478587 13.265447 -16.706777
v 16.090189 11.367802 -16.524115
v 17.3588 9.265852 -16.380328
v 18.253756 7.020808 -16.278892
v 18.867051 4.581006 -16.20938
v 19.198685 1.993705 -16.171792
v 19.248657 -0.68945 -16.166128
v 18.993117 -3.510625 -16.195091
v 18.440016 -6.386821 -16.257781
v 17.637055 -9.081146 -16.34879
v 16.631933 -11.364161 -16.462713
v 15.326978 -13.086419 -16.610619
v 13.733547 -14.355368 -16.791221
v 12.062887 -15.468014 -16.980577
v 10.526243 -16.693965 -17.154744
v 9.097493 -18.015092 -17.316681
v 7.691458 -19.358879 -17.476044
v 6.430797 -20.820503 -17.61893
v 5.438168 -22.495138 -17.731436
v 4.785123 -24.670578 -17.805453
v 4.393296 -27.208591 -17.849864
v 4.160471 -29.565317 -17.876253
v 3.984433 -31.196897 -17.896205
v 1.406725 -6.393061 -25.252138
v 1.234144 -4.431652 -25.261782
v 0.959473 -1.391191 -25.27713
v 0.830646 2.066543 -25.284329
v 1.095593 5.265717 -25.269524
v 1.846684 8.10086 -25.227553
v 2.942937 10.816181 -25.166295
v 4.28226 13.247414 -25.091455
v 5.762565 15.228449 -25.008737
v 7.447051 16.660928 -24.914609
v 9.360023 17.543075 -24.807713
v 11.341055 17.8619 -24.697014
v 13.22972 17.616381 -24.591477
v 15.097724 16.69289 -24.487094
v 16.992466 15.098467 -24.381218
v 18.717058 13.035361 -24.284849
v 20.074612 10.721207 -24.208989
v 21.032314 8.226218 -24.155474
v 21.688607 5.503256 -24.1188
v 22.043491 2.610874 -24.09897
v 22.096967 -0.38694 -24.095982
v 21.823512 -3.524933 -24.111262
v 21.231633 -6.706102 -24.144336
v 20.372375 -9.671931 -24.192351
v 19.296784 -12.173141 -24.252454
v 17.900338 -14.046645 -24.330486
v 16.195192 -15.402659 -24.425769
v 14.407402 -16.576681 -24.525669
v 12.763023 -17.870256 -24.617556
v 11.234104 -19.264257 -24.702991
v 9.729491 -20.682169 -24.787067
v 8.380445 -22.224417 -24.862451
v 7.318223 -23.991427 -24.921808
v 6.619392 -26.286866 -24.960858
v 6.200094 -28.964878 -24.984288
v 5.950946 -31.451603 -24.99821
v 5.762565 -33.173183 -25.008737
v 2.89283 -6.969702 -32.121268
v 2.708679 -4.883567 -32.121268
v 2.415593 -1.619064 -32.121268
v 2.278128 2.123593 -32.121268
v 2.560839 5.627118 -32.121268
v 3.362285 8.772516 -32.121268
v 4.532033 11.807313 -32.121268
v 5.961149 14.548275 -32.121268
v 7.540698 16.809928 -32.121268
v 9.338116 18.47842 -32.121268
v 11.37934 19.542465 -32.121268
v 13.493186 19.980457 -32.121268
v 15.508473 19.785327 -32.121268
v 17.501713 18.833805 -32.121268
v 19.523484 17.132108 -32.121268
v 21.363698 14.894468 -32.121268
v 22.812266 12.353798 -32.121268
v 23.834175 9.590154 -32.121268
v 24.534468 6.561998 -32.121268
v 24.913144 3.340465 -32.121268
v 24.970205 0.003283 -32.121268
v 24.678417 -3.475444 -32.121268
v 24.046856 -6.983315 -32.121268
v 23.129992 -10.238917 -32.121268
v 21.98229 -12.972055 -32.121268
v 20.492223 -15.0052 -32.121268
v 18.672758 -16.450879 -32.121268
v 16.765109 -17.686351 -32.121268
v 15.010487 -19.047634 -32.121268
v 13.379064 -20.5146 -32.121268
v 11.773578 -22.006728 -32.121268
v 10.334088 -23.6297 -32.121268
v 9.200651 -25.489199 -32.121268
v 8.454969 -27.904785 -32.121268
v 8.00756 -30.722969 -32.121268
v 7.741708 -33.339855 -32.121268
v 7.540698 -35.151545 -32.121268
vt 0.88652125 0.86229142
vt 0.88652125 0.85994166
vt 0.88652125 0.85645901
vt 0.88652125 0.85267221
vt 0.88652125 0.8493696
vt 0.88652125 0.84651603
vt 0.88652125 0.84370281
vt 0.88652125 0.84104384
vt 0.88652125 0.83865019
vt 0.88652125 0.83636923
vt 0.88652125 0.83398059
vt 0.88652125 0.83153639
vt 0.88652125 0.82912356
vt 0.88652125 0.82649867
vt 0.88652125 0.82350715
vt 0.88652125 0.82042462
vt 0.88652125 0.81754538
vt 0.88652125 0.81487243
vt 0.88652125 0.81219287
vt 0.88652125 0.80947004
vt 0.88652125 0.80667442
vt 0.88652125 0.80365381
vt 0.88652125 0.80042885
vt 0.88652125 0.79724131
vt 0.88652125 0.79432222
vt 0.88652125 0.79166727
vt 0.88652125 0.78902702
vt 0.88652125 0.78637922
vt 0.88652125 0.78378564
vt 0.88652125 0.78121778
vt 0.88652125 0.77865118
vt 0.88652125 0.77610343
vt 0.88652125 0.77353285
vt 0.88652125 0.77053235
vt 0.88652125 0.76713938
vt 0.88652125 0.76401039
vt 0.88652125 0.76184216
vt 0.90083759 0.86482564
vt 0.90083759 0.86235497
vt 0.90083759 0.85869285
vt 0.90083759 0.85471062
vt 0.90083759 0.85123719
vt 0.90083759 0.84823573
vt 0.90083759 0.84527668
vt 0.90083759 0.8424799
vt 0.90083759 0.83996232
vt 0.90083759 0.83756361
vt 0.90083759 0.83505205
vt 0.90083759 0.83248233
vt 0.90083759 0.82994567
vt 0.90083759 0.82718599
vt 0.90083759 0.82404065
vt 0.90083759 0.82079934
vt 0.90083759 0.81777146
vt 0.90083759 0.81496014
vt 0.90083759 0.81214162
vt 0.90083759 0.80927743
vt 0.90083759 0.80633665
vt 0.90083759 0.80315939
vt 0.90083759 0.79976744
vt 0.90083759 0.79641507
vt 0.90083759 0.79334525
vt 0.90083759 0.7905535
vt 0.90083759 0.78777751
vt 0.90083759 0.78499366
vt 0.90083759 0.78226683
vt 0.90083759 0.77956704
vt 0.90083759 0.77686857
vt 0.90083759 0.77418993
vt 0.90083759 0.77148727
vt 0.90083759 0.76833261
vt 0.90083759 0.76476532
vt 0.90083759 0.76147557
vt 0.90083759 0.75919594
vt 0.91515393 0.86836572
vt 0.91515393 0.86575189
vt 0.91515393 0.86186951
vt 0.91515393 0.85763929
vt 0.91515393 0.85393805
vt 0.91515393 0.85073079
vt 0.91515393 0.84756762
vt 0.91515393 0.84457884
vt 0.91515393 0.8418919
vt 0.91515393 0.83934243
vt 0.91515393 0.83668516
vt 0.91515393 0.83397364
vt 0.91515393 0.83129987
vt 0.91515393 0.82838895
vt 0.91515393 0.82506465
vt 0.91515393 0.82163063
vt 0.91515393 0.81841242
vt 0.91515393 0.81541324
vt 0.91515393 0.81239861
vt 0.91515393 0.80933065
vt 0.91515393 0.80618008
vt 0.91515393 0.80278163
vt 0.91515393 0.7991614
vt 0.91515393 0.79559029
vt 0.91515393 0.79232677
vt 0.91515393 0.78936769
vt 0.91515393 0.78643421
vt 0.91515393 0.78349531
vt 0.91515393 0.7806166
vt 0.91515393 0.77776643
vt 0.91515393 0.77491766
vt 0.91515393 0.77208982
vt 0.91515393 0.76923663
vt 0.91515393 0.76590625
vt 0.91515393 0.76214026
vt 0.91515393 0.75866727
vt 0.91515393 0.75626067
vt 0.92947026 0.87294121
vt 0.92947026 0.87016331
vt 0.92947026 0.86602083
vt 0.92947026 0.86149006
vt 0.92947026 0.85750256
vt 0.92947026 0.85402906
vt 0.92947026 0.8506006
vt 0.92947026 0.84736263
vt 0.92947026 0.84445813
vt 0.92947026 0.84172318
vt 0.92947026 0.83889742
vt 0.92947026 0.83602938
vt 0.92947026 0.83320754
vt 0.92947026 0.83013142
vt 0.92947026 0.82660511
vt 0.92947026 0.82294544
vt 0.92947026 0.81949481
vt 0.92947026 0.81625644
vt 0.92947026 0.81298584
vt 0.92947026 0.80964847
vt 0.92947026 0.80622018
vt 0.92947026 0.80253308
vt 0.92947026 0.79862109
vt 0.92947026 0.79477599
vt 0.92947026 0.79127536
vt 0.92947026 0.78811909
vt 0.92947026 0.78500829
vt 0.92947026 0.78189758
vt 0.92947026 0.77885057
vt 0.92947026 0.77583378
vt 0.92947026 0.77281846
vt 0.92947026 0.7698253
vt 0.92947026 0.7668053
vt 0.92947026 0.76328023
vt 0.92947026 0.75929407
vt 0.92947026 0.75561805
vt 0.92947026 0.75307075
vt 0.9437866 0.87857658
vt 0.9437866 0.87561525
vt 0.9437866 0.87117427
vt 0.9437866 0.86629098
vt 0.9437866 0.86195803
vt 0.9437866 0.85815595
vt 0.9437866 0.85439852
vt 0.9437866 0.85085115
vt 0.9437866 0.84767752
vt 0.9437866 0.84471955
vt 0.9437866 0.84170158
vt 0.9437866 0.83866322
vt 0.9437866 0.8356845
vt 0.9437866 0.83243191
vt 0.9437866 0.82868286
vt 0.9437866 0.82476591
vt 0.9437866 0.82104058
vt 0.9437866 0.81751031
vt 0.9437866 0.81392176
vt 0.9437866 0.81024691
vt 0.9437866 0.80647045
vt 0.9437866 0.80242512
vt 0.9437866 0.79815641
vt 0.9437866 0.79398129
vt 0.9437866 0.7902001
vt 0.9437866 0.78681776
vt 0.9437866 0.7835119
vt 0.9437866 0.78021508
vt 0.9437866 0.77698578
vt 0.9437866 0.7737885
vt 0.9437866 0.77059278
vt 0.9437866 0.76742055
vt 0.9437866 0.76421987
vt 0.9437866 0.76048391
vt 0.9437866 0.75625926
vt 0.9437866 0.75236331
vt 0.9437866 0.74966362
vt 0.95810294 0.88528049
vt 0.95810294 0.88211827
vt 0.95810294 0.87734252
vt 0.95810294 0.8720564
vt 0.95810294 0.86731929
vt 0.95810294 0.86312559
vt 0.95810294 0.85897409
vt 0.95810294 0.85505491
vt 0.95810294 0.85155753
vt 0.95810294 0.84833569
vt 0.95810294 0.84510003
vt 0.95810294 0.84187784
vt 0.95810294 0.83873536
vt 0.95810294 0.83529778
vt 0.95810294 0.83130786
vt 0.95810294 0.82710373
vt 0.95810294 0.82306198
vt 0.95810294 0.81918662
vt 0.95810294 0.8152173
vt 0.95810294 0.81113589
vt 0.95810294 0.80693987
vt 0.95810294 0.80246608
vt 0.95810294 0.79777553
vt 0.95810294 0.79321465
vt 0.95810294 0.7891102
vt 0.95810294 0.7854743
vt 0.95810294 0.78195801
vt 0.95810294 0.77846341
vt 0.95810294 0.7750404
vt 0.95810294 0.77165132
vt 0.95810294 0.7682639
vt 0.95810294 0.76490137
vt 0.95810294 0.76150869
vt 0.95810294 0.75754861
vt 0.95810294 0.75307055
vt 0.95810294 0.74894089
vt 0.95810294 0.74607924
vt 0.97241928 0.89303433
vt 0.97241928 0.88965599
vt 0.97241928 0.88451225
vt 0.97241928 0.878776
vt 0.97241928 0.8735782
vt 0.97241928 0.86893104
vt 0.97241928 0.86432084
vt 0.97241928 0.85996693
vt 0.97241928 0.85608938
vt 0.97241928 0.85256003
vt 0.97241928 0.84907912
vt 0.97241928 0.84565945
vt 0.97241928 0.84234793
vt 0.97241928 0.83871957
vt 0.97241928 0.83447356
vt 0.97241928 0.82995477
vt 0.97241928 0.82555643
vt 0.97241928 0.82128384
vt 0.97241928 0.81687195
vt 0.97241928 0.81231605
vt 0.97241928 0.80763035
vt 0.97241928 0.80265942
vt 0.97241928 0.79748369
vt 0.97241928 0.79248322
vt 0.97241928 0.78801467
vt 0.97241928 0.78409972
vt 0.97241928 0.7803602
vt 0.97241928 0.77665893
vt 0.97241928 0.77303348
vt 0.97241928 0.76944396
vt 0.97241928 0.76585621
vt 0.97241928 0.76229481
vt 0.97241928 0.7587015
vt 0.97241928 0.75450721
vt 0.97241928 0.74976431
vt 0.97241928 0.74539042
vt 0.97241928 0.74235953
vt 0.98673562 0.90178128
vt 0.98673562 0.89817426
vt 0.98673562 0.89263341
vt 0.98673562 0.88640438
vt 0.98673562 0.88069369
vt 0.98673562 0.87553485
vt 0.98673562 0.87040435
vt 0.98673562 0.86555481
vt 0.98673562 0.86124119
vt 0.98673562 0.85735936
vt 0.98673562 0.85360405
vt 0.98673562 0.8499729
vt 0.98673562 0.84648842
vt 0.98673562 0.84266616
vt 0.98673562 0.83815209
vt 0.98673562 0.83329433
vt 0.98673562 0.82850222
vt 0.98673562 0.82378334
vt 0.98673562 0.81887054
vt 0.98673562 0.81377607
vt 0.98673562 0.80853463
vt 0.98673562 0.80300207
vt 0.98673562 0.79728206
vt 0.98673562 0.79179204
vt 0.98673562 0.78692188
vt 0.98673562 0.7827052
vt 0.98673562 0.77873251
vt 0.98673562 0.77481851
vt 0.98673562 0.77098468
vt 0.98673562 0.76718885
vt 0.98673562 0.76339489
vt 0.98673562 0.7596288
vt 0.98673562 0.75582896
vt 0.98673562 0.7513936
vt 0.98673562 0.7463781
vt 0.98673562 0.74175281
vt 0.98673562 0.73854773
vt 1.00105196 0.9114177
vt 1.00105196 0.9075725
vt 1.00105196 0.9016107
vt 1.00105196 0.89485278
vt 1.00105196 0.88858369
vt 1.00105196 0.88286136
vt 1.00105196 0.87715507
vt 1.00105196 0.87175417
vt 1.00105196 0.86695213
vt 1.00105196 0.86267407
vt 1.00105196 0.85861491
vt 1.00105196 0.85475819
vt 1.00105196 0.85109799
vt 1.00105196 0.84708128
vt 1.00105196 0.8422907
vt 1.00105196 0.83707384
vt 1.00105196 0.83185543
vt 1.00105196 0.82664659
vt 1.00105196 0.82118087
vt 1.00105196 0.81549069
vt 1.00105196 0.80963468
vt 1.00105196 0.80348331
vt 1.00105196 0.79716688
vt 1.00105196 0.79114359
vt 1.00105196 0.78583931
vt 1.00105196 0.78130192
vt 1.00105196 0.7770892
vt 1.00105196 0.77295931
vt 1.00105196 0.768914
vt 1.00105196 0.76490879
vt 1.00105196 0.76090555
vt 1.00105196 0.75693172
vt 1.00105196 0.75292227
vt 1.00105196 0.74824226
vt 1.00105196 0.74295009
vt 1.00105196 0.73806968
vt 1.00105196 0.73468779
vt 1.0153683 0.92178813
vt 1.0153683 0.91769873
vt 1.0153683 0.91129861
vt 1.0153683 0.90398409
vt 1.0153683 0.89712034
vt 1.0153683 0.89079207
vt 1.0153683 0.88446388
vt 1.0153683 0.87846454
vt 1.0153683 0.8731288
vt 1.0153683 0.86841511
vt 1.0153683 0.8640244
vt 1.0153683 0.85992873
vt 1.0153683 0.85609118
vt 1.0153683 0.85188189
vt 1.0153683 0.8468102
vt 1.0153683 0.84121927
vt 1.0153683 0.8355485
vt 1.0153683 0.82981396
vt 1.0153683 0.82375257
vt 1.0153683 0.81741973
vt 1.0153683 0.8109009
vt 1.0153683 0.80408406
vt 1.0153683 0.79712902
vt 1.0153683 0.79053737
vt 1.0153683 0.78477324
vt 1.0153683 0.77990084
vt 1.0153683 0.77544458
vt 1.0153683 0.77109852
vt 1.0153683 0.76684147
vt 1.0153683 0.76262663
vt 1.0153683 0.75841385
vt 1.0153683 0.75423202
vt 1.0153683 0.75001271
vt 1.0153683 0.74508774
vt 1.0153683 0.73951857
vt 1.0153683 0.7343827
vt 1.0153683 0.73082381
vn -0.866631 -0.09047 -0.490678
vn -0.866309 -0.094459 -0.490496
vn -0.868162 -0.068398 -0.491545
vn -0.869955 0.02371 -0.49256
vn -0.851781 0.204658 -0.48227
vn -0.796399 0.403021 -0.450913
vn -0.726644 0.550203 -0.411419
vn -0.629248 0.690735 -0.356274
vn -0.469494 0.84197 -0.265823
vn -0.251629 0.95728 -0.14247
vn -0.04562 0.998625 -0.02583
vn 0.1404 0.986898 0.079493
vn 0.330967 0.924849 0.187391
vn 0.487485 0.828358 0.27601
vn 0.589439 0.735652 0.333734
vn 0.669801 0.638394 0.379235
vn 0.745741 0.515355 0.422231
vn 0.807577 0.37249 0.457242
vn 0.84663 0.231167 0.479354
vn 0.86656 0.091368 0.490638
vn 0.869251 -0.046695 0.492161
vn 0.857389 -0.170956 0.485446
vn 0.8356 -0.279178 0.473109
vn 0.800871 -0.391144 0.453445
vn 0.726742 -0.550032 0.411474
vn 0.59871 -0.725697 0.338984
vn 0.505427 -0.814034 0.286168
vn 0.513482 -0.807349 0.290729
vn 0.567773 -0.757821 0.321468
vn 0.596784 -0.727789 0.337893
vn 0.631429 -0.688102 0.357509
vn 0.707281 -0.582571 0.400456
vn 0.80046 -0.392252 0.453213
vn 0.84967 -0.215936 0.481075
vn 0.863232 -0.126295 0.488754
vn 0.865684 -0.101742 0.490142
vn 0.8702 0 0.492699
vn -0.892365 -0.090464 -0.442156
vn -0.892033 -0.094448 -0.441991
vn -0.893941 -0.068386 -0.442937
vn -0.895787 0.023703 -0.443851
vn -0.877087 0.204581 -0.434586
vn -0.820116 0.402845 -0.406357
vn -0.748362 0.549962 -0.370804
vn -0.648175 0.690452 -0.321163
vn -0.483802 0.841707 -0.239718
vn -0.259518 0.957139 -0.128588
vn -0.047326 0.998604 -0.023449
vn 0.144332 0.986942 0.071515
vn 0.340693 0.924895 0.168809
vn 0.501963 0.828355 0.248717
vn 0.606998 0.735593 0.30076
vn 0.689773 0.638281 0.341774
vn 0.767967 0.515201 0.380518
vn 0.831612 0.372336 0.412053
vn 0.871793 0.231054 0.431962
vn 0.892295 0.09132 0.442121
vn 0.895062 -0.046672 0.443492
vn 0.882859 -0.170883 0.437446
vn 0.860437 -0.27908 0.426336
vn 0.824693 -0.391034 0.408625
vn 0.748384 -0.549925 0.370815
vn 0.616544 -0.725637 0.30549
vn 0.520451 -0.814021 0.257877
vn 0.528729 -0.807349 0.261979
vn 0.584632 -0.757821 0.289678
vn 0.614504 -0.727789 0.304479
vn 0.650178 -0.688102 0.322155
vn 0.728282 -0.582571 0.360855
vn 0.824228 -0.392252 0.408395
vn 0.874899 -0.215936 0.433501
vn 0.888864 -0.126295 0.440421
vn 0.891389 -0.101742 0.441672
vn 0.896039 0 0.443976
vn -0.915932 -0.090272 -0.391049
vn -0.915604 -0.094131 -0.390909
vn -0.917557 -0.068027 -0.391742
vn -0.919433 0.023521 -0.392543
vn -0.900656 0.202383 -0.384527
vn -0.843758 0.397872 -0.360235
vn -0.772203 0.543148 -0.329685
vn -0.672273 0.682399 -0.287021
vn -0.507225 0.834162 -0.216555
vn -0.278555 0.953029 -0.118927
vn -0.058895 0.997947 -0.025145
vn 0.141147 0.988153 0.060261
vn 0.346695 0.926225 0.148018
vn 0.515301 0.828289 0.220003
vn 0.624698 0.733907 0.266709
vn 0.710419 0.635066 0.303307
vn 0.790643 0.510821 0.337558
vn 0.855162 0.367963 0.365104
vn 0.895491 0.227873 0.382322
vn 0.915956 0.089989 0.391059
vn 0.918712 -0.046027 0.392236
vn 0.906483 -0.168844 0.387015
vn 0.883884 -0.276306 0.377366
vn 0.847678 -0.387898 0.361908
vn 0.769975 -0.546875 0.328734
vn 0.634487 -0.72391 0.270889
vn 0.534676 -0.813641 0.228275
vn 0.542683 -0.807349 0.231694
vn 0.600062 -0.757821 0.256191
vn 0.630722 -0.727789 0.269281
vn 0.667338 -0.688102 0.284914
vn 0.747503 -0.582571 0.31914
vn 0.845981 -0.392252 0.361184
vn 0.897989 -0.215936 0.383388
vn 0.912323 -0.126295 0.389508
vn 0.914915 -0.101742 0.390614
vn 0.919687 0 0.392652
vn -0.936942 -0.089906 -0.337724
vn -0.936628 -0.093527 -0.337611
vn -0.938615 -0.06735 -0.338327
vn -0.940499 0.02318 -0.339006
vn -0.922072 0.198286 -0.332364
vn -0.866806 0.388622 -0.312443
vn -0.797506 0.530423 -0.287464
vn -0.700727 0.667222 -0.252579
vn -0.538971 0.819614 -0.194274
vn -0.308433 0.944727 -0.111176
vn -0.080465 0.996335 -0.029004
vn 0.130558 0.990323 0.04706
vn 0.34872 0.92876 0.125697
vn 0.52728 0.828162 0.19006
vn 0.642274 0.730676 0.23151
vn 0.731385 0.628947 0.26363
vn 0.813312 0.502574 0.293161
vn 0.877741 0.359821 0.316385
vn 0.917278 0.221992 0.330636
vn 0.93714 0.087537 0.337795
vn 0.939805 -0.044835 0.338756
vn 0.927848 -0.165055 0.334446
vn 0.905516 -0.27112 0.326396
vn 0.869408 -0.381998 0.313381
vn 0.79114 -0.541088 0.285169
vn 0.65227 -0.720601 0.235113
vn 0.547882 -0.812911 0.197486
vn 0.555113 -0.807349 0.200092
vn 0.613805 -0.757821 0.221248
vn 0.645168 -0.727789 0.232553
vn 0.682622 -0.688102 0.246053
vn 0.764624 -0.582571 0.275611
vn 0.865357 -0.392252 0.311921
vn 0.918557 -0.215936 0.331097
vn 0.933219 -0.126295 0.336382
vn 0.93587 -0.101742 0.337337
vn 0.940751 0 0.339097
vn -0.955055 -0.089382 -0.282632
vn -0.954767 -0.092669 -0.282547
vn -0.956777 -0.066395 -0.283142
vn -0.958646 0.022704 -0.283695
vn -0.94093 0.192653 -0.278452
vn -0.88855 0.375945 -0.262951
vn -0.823167 0.512888 -0.243602
vn -0.731934 0.646031 -0.216603
vn -0.577105 0.798613 -0.170785
vn -0.347806 0.9319 -0.102927
vn -0.11155 0.99321 -0.033011
vn 0.112593 0.993082 0.03332
vn 0.346657 0.932365 0.102587
vn 0.537708 0.827979 0.159126
vn 0.65939 0.726035 0.195135
vn 0.752155 0.620257 0.222587
vn 0.835318 0.491057 0.247198
vn 0.898728 0.348643 0.265963
vn 0.936677 0.21401 0.277194
vn 0.955486 0.084223 0.28276
vn 0.957997 -0.043219 0.283503
vn 0.946559 -0.159875 0.280118
vn 0.924885 -0.263958 0.273704
vn 0.889394 -0.373769 0.263201
vn 0.81139 -0.532907 0.240117
vn 0.66955 -0.715851 0.198142
vn 0.559854 -0.811859 0.165679
vn 0.565818 -0.807349 0.167444
vn 0.625642 -0.757821 0.185148
vn 0.65761 -0.727789 0.194608
vn 0.695786 -0.688102 0.205906
vn 0.779369 -0.582571 0.230641
vn 0.882045 -0.392252 0.261026
vn 0.93627 -0.215936 0.277073
vn 0.951215 -0.126295 0.281496
vn 0.953917 -0.101742 0.282296
vn 0.958893 0 0.283768
vn -0.970009 -0.088725 -0.226298
vn -0.969755 -0.091599 -0.226239
vn -0.971776 -0.065218 -0.22671
vn -0.973611 0.022125 -0.227138
vn -0.95687 0.185922 -0.223232
vn -0.908227 0.360871 -0.211884
vn -0.847878 0.49191 -0.197805
vn -0.763855 0.620297 -0.178203
vn -0.618899 0.772086 -0.144386
vn -0.394379 0.91433 -0.092006
vn -0.15099 0.987907 -0.035225
vn 0.087644 0.995942 0.020447
vn 0.340556 0.936862 0.07945
vn 0.546431 0.827745 0.127479
vn 0.675659 0.720166 0.157627
vn 0.772105 0.609433 0.180128
vn 0.855905 0.477029 0.199678
vn 0.917468 0.335319 0.21404
vn 0.953243 0.204627 0.222386
vn 0.970701 0.080351 0.226459
vn 0.973018 -0.041324 0.227
vn 0.962274 -0.153728 0.224493
vn 0.941564 -0.255354 0.219662
vn 0.907136 -0.363755 0.21163
vn 0.830177 -0.522777 0.193676
vn 0.685935 -0.709849 0.160025
vn 0.570396 -0.810519 0.13307
vn 0.574643 -0.807349 0.134061
vn 0.635401 -0.757821 0.148235
vn 0.667867 -0.727789 0.15581
vn 0.706639 -0.688102 0.164855
vn 0.791526 -0.582571 0.184659
vn 0.895803 -0.392252 0.208986
vn 0.950874 -0.215936 0.221834
vn 0.966052 -0.126295 0.225375
vn 0.968796 -0.101742 0.226015
vn 0.97385 0 0.227194
vn -0.981633 -0.087961 -0.169289
vn -0.981421 -0.090367 -0.169252
vn -0.98344 -0.063881 -0.1696
vn -0.985226 0.021479 -0.169908
vn -0.969619 0.178542 -0.167217
vn -0.925149 0.344448 -0.159548
vn -0.870389 0.468927 -0.150104
vn -0.794445 0.591681 -0.137007
vn -0.661342 0.741363 -0.114053
vn -0.445164 0.892152 -0.076771
vn -0.196956 0.979824 -0.033966
vn 0.056506 0.998355 0.009745
vn 0.330641 0.942033 0.057021
vn 0.553343 0.827469 0.095427
vn 0.690675 0.713289 0.119111
vn 0.790582 0.596986 0.136341
vn 0.87433 0.461315 0.150784
vn 0.933382 0.320762 0.160968
vn 0.966628 0.194529 0.166701
vn 0.982587 0.07621 0.169453
vn 0.984692 -0.039289 0.169816
vn 0.974741 -0.147042 0.1681
vn 0.955205 -0.245862 0.164731
vn 0.922181 -0.352547 0.159036
vn 0.846955 -0.511208 0.146063
vn 0.701019 -0.702821 0.120895
vn 0.579345 -0.808936 0.099912
vn 0.58149 -0.807349 0.100282
vn 0.642972 -0.757821 0.110884
vn 0.675825 -0.727789 0.11655
vn 0.715058 -0.688102 0.123316
vn 0.800957 -0.582571 0.13813
vn 0.906477 -0.392252 0.156328
vn 0.962204 -0.215936 0.165938
vn 0.977562 -0.126295 0.168587
vn 0.980339 -0.101742 0.169066
vn 0.985453 0 0.169948
vn -0.98986 -0.08712 -0.112193
vn -0.989693 -0.089023 -0.112174
vn -0.991699 -0.062444 -0.112401
vn -0.993423 0.020797 -0.112597
vn -0.979016 0.170923 -0.110964
vn -0.938799 0.327619 -0.106405
vn -0.889701 0.445267 -0.10084
vn -0.82199 0.56183 -0.093166
vn -0.701663 0.708057 -0.079528
vn -0.4969 0.865978 -0.05632
vn -0.247082 0.96859 -0.028005
vn 0.020372 0.99979 0.002309
vn 0.317313 0.947639 0.035965
vn 0.558392 0.82716 0.063289
vn 0.704051 0.705652 0.079799
vn 0.806975 0.58346 0.091464
vn 0.889966 0.444731 0.100871
vn 0.94604 0.305795 0.107226
vn 0.976615 0.184309 0.110692
vn 0.991056 0.072046 0.112328
vn 0.992949 -0.037232 0.112543
vn 0.983824 -0.140198 0.111509
vn 0.965571 -0.235999 0.10944
vn 0.934184 -0.340719 0.105882
vn 0.861245 -0.498727 0.097615
vn 0.714411 -0.695025 0.080973
vn 0.586575 -0.807161 0.066484
vn 0.58632 -0.807349 0.066455
vn 0.648312 -0.757821 0.073481
vn 0.681438 -0.727789 0.077236
vn 0.720997 -0.688102 0.081719
vn 0.807609 -0.582571 0.091536
vn 0.914006 -0.392252 0.103595
vn 0.970196 -0.215936 0.109964
vn 0.985682 -0.126295 0.111719
vn 0.988482 -0.101742 0.112036
vn 0.993638 0 0.112621
vn -0.994723 -0.086231 -0.055584
vn -0.994602 -0.087621 -0.055578
vn -0.996585 -0.060968 -0.055688
vn -0.99824 0.02011 -0.055781
vn -0.985022 0.163405 -0.055042
vn -0.948881 0.311148 -0.053023
vn -0.905166 0.422038 -0.05058
vn -0.845298 0.532203 -0.047235
vn -0.737712 0.673856 -0.041223
vn -0.546528 0.836884 -0.03054
vn -0.298702 0.9542 -0.016691
vn -0.019224 0.999815 -0.001074
vn 0.301139 0.953432 0.016827
vn 0.561581 0.826826 0.031381
vn 0.715449 0.69752 0.039979
vn 0.820782 0.569398 0.045865
vn 0.902367 0.428008 0.050424
vn 0.955204 0.291096 0.053376
vn 0.983137 0.174423 0.054937
vn 0.996129 0.06804 0.055663
vn 0.997822 -0.035245 0.055758
vn 0.989505 -0.1335 0.055293
vn 0.972563 -0.226204 0.054346
vn 0.942933 -0.328786 0.05269
vn 0.872683 -0.485847 0.048765
vn 0.725777 -0.686733 0.040556
vn 0.592011 -0.805251 0.033081
vn 0.589155 -0.807349 0.032922
vn 0.651447 -0.757821 0.036402
vn 0.684733 -0.727789 0.038262
vn 0.724484 -0.688102 0.040484
vn 0.811514 -0.582571 0.045347
vn 0.918425 -0.392252 0.051321
vn 0.974887 -0.215936 0.054476
vn 0.990448 -0.126295 0.055346
vn 0.993261 -0.101742 0.055503
vn 0.998442 0 0.055792
vn -0.996353 -0.085326 0
vn -0.996277 -0.086207 0
vn -0.998228 -0.059504 0
vn -0.999811 0.019442 0
vn -0.987718 0.156246 0
vn -0.955311 0.295602 0
vn -0.916485 0.400069 0
vn -0.863731 0.503954 0
vn -0.768123 0.640302 0
vn -0.591586 0.806242 0
vn -0.349168 0.93706 0
vn -0.060516 0.998167 0
vn 0.282819 0.959173 -0
vn 0.562967 0.826479 -0
vn 0.724604 0.689166 -0
vn 0.831645 0.555308 -0
vn 0.911292 0.411761 -0
vn 0.960821 0.277171 -0
vn 0.986262 0.165188 -0
vn 0.997929 0.064319 -0
vn 0.999442 -0.033391 -0
vn 0.991881 -0.127173 -0
vn 0.976212 -0.21682 -0
vn 0.948366 -0.317179 -0
vn 0.881045 -0.473032 -0
vn 0.734857 -0.678223 -0
vn 0.595623 -0.803264 -0
vn 0.590074 -0.807349 -0
vn 0.652463 -0.757821 -0
vn 0.685801 -0.727789 -0
vn 0.725614 -0.688102 -0
vn 0.81278 -0.582571 -0
vn 0.919858 -0.392252 -0
vn 0.976407 -0.215936 -0
vn 0.991993 -0.126295 -0
vn 0.994811 -0.101742 -0
vn 1 0 -0
f 1/1/1 38/38/38 39/39/39
f 1/1/1 39/39/39 2/2/2
f 2/2/2 39/39/39 40/40/40
f 2/2/2 40/40/40 3/3/3
f 3/3/3 40/40/40 41/41/41
f 3/3/3 41/41/41 4/4/4
f 4/4/4 41/41/41 42/42/42
f 4/4/4 42/42/42 5/5/5
f 5/5/5 42/42/42 43/43/43
f 5/5/5 43/43/43 6/6/6
f 6/6/6 43/43/43 44/44/44
f 6/6/6 44/44/44 7/7/7
f 7/7/7 44/44/44 45/45/45
f 7/7/7 45/45/45 8/8/8
f 8/8/8 45/45/45 46/46/46
f 8/8/8 46/46/46 9/9/9
f 9/9/9 46/46/46 47/47/47
f 9/9/9 47/47/47 10/10/10
f 10/10/10 47/47/47 48/48/48
f 10/10/10 48/48/48 11/11/11
f 11/11/11 48/48/48 49/49/49
f 11/11/11 49/49/49 12/12/12
f 12/12/12 49/49/49 50/50/50
f 12/12/12 50/50/50 13/13/13
f 13/13/13 50/50/50 51/51/51
f 13/13/13 51/51/51 14/14/14
f 14/14/14 51/51/51 52/52/52
f 14/14/14 52/52/52 15/15/15
f 15/15/15 52/52/52 53/53/53
f 15/15/15 53/53/53 16/16/16
f 16/16/16 53/53/53 54/54/54
f 16/16/16 54/54/54 17/17/17
f 17/17/17 54/54/54 55/55/55
f 17/17/17 55/55/55 18/18/18
f 18/18/18 55/55/55 56/56/56
f 18/18/18 56/56/56 19/19/19
f 19/19/19 56/56/56 57/57/57
f 19/19/19 57/57/57 20/20/20
f 20/20/20 57/57/57 58/58/58
f 20/20/20 58/58/58 21/21/21
f 21/21/21 58/58/58 59/59/59
f 21/21/21 59/59/59 22/22/22
f 22/22/22 59/59/59 60/60/60
f 22/22/22 60/60/60 23/23/23
f 23/23/23 60/60/60 61/61/61
f 23/23/23 61/61/61 24/24/24
f 24/24/24 61/61/61 62/62/62
f 24/24/24 62/62/62 25/25/25
f 25/25/25 62/62/62 63/63/63
f 25/25/25 63/63/63 26/26/26
f 26/26/26 63/63/63 64/64/64
f 26/26/26 64/64/64 27/27/27
f 27/27/27 64/64/64 65/65/65
f 27/27/27 65/65/65 28/28/28
f 28/28/28 65/65/65 66/66/66
f 28/28/28 66/66/66 29/29/29
f 29/29/29 66/66/66 67/67/67
f 29/29/29 67/67/67 30/30/30
f 30/30/30 67/67/67 68/68/68
f 30/30/30 68/68/68 31/31/31
f 31/31/31 68/68/68 69/69/69
f 31/31/31 69/69/69 32/32/32
f 32/32/32 69/69/69 70/70/70
f 32/32/32 70/70/70 33/33/33
f 33/33/33 70/70/70 71/71/71
f 33/33/33 71/71/71 34/34/34
f 34/34/34 71/71/71 72/72/72
f 34/34/34 72/72/72 35/35/35
f 35/35/35 72/72/72 73/73/73
f 35/35/35 73/73/73 36/36/36
f 36/36/36 73/73/73 74/74/74
f 36/36/36 74/74/74 37/37/37
f 38/38/38 75/75/75 76/76/76
f 38/38/38 76/76/76 39/39/39
f 39/39/39 76/76/76 77/77/77
f 39/39/39 77/77/77 40/40/40
f 40/40/40 77/77/77 78/78/78
f 40/40/40 78/78/78 41/41/41
f 41/41/41 78/78/78 79/79/79
f 41/41/41 79/79/79 42/42/42
f 42/42/42 79/79/79 80/80/80
f 42/42/42 80/80/80 43/43/43
f 43/43/43 80/80/80 81/81/81
f 43/43/43 81/81/81 44/44/44
f 44/44/44 81/81/81 82/82/82
f 44/44/44 82/82/82 45/45/45
f 45/45/45 82/82/82 83/83/83
f 45/45/45 83/83/83 46/46/46
f 46/46/46 83/83/83 84/84/84
f 46/46/46 84/84/84 47/47/47
f 47/47/47 84/84/84 85/85/85
f 47/47/47 85/85/85 48/48/48
f 48/48/48 85/85/85 86/86/86
f 48/48/48 86/86/86 49/49/49
f 49/49/49 86/86/86 87/87/87
f 49/49/49 87/87/87 50/50/50
f 50/50/50 87/87/87 88/88/88
f 50/50/50 88/88/88 51/51/51
f 51/51/51 88/88/88 89/89/89
f 51/51/51 89/89/89 52/52/52
f 52/52/52 89/89/89 90/90/90
f 52/52/52 90/90/90 53/53/53
f 53/53/53 90/90/90 91/91/91
f 53/53/53 91/91/91 54/54/54
f 54/54/54 91/91/91 92/92/92
f 54/54/54 92/92/92 55/55/55
f 55/55/55 92/92/92 93/93/93
f 55/55/55 93/93/93 56/56/56
f 56/56/56 93/93/93 94/94/94
f 56/56/56 94/94/94 57/57/57
f 57/57/57 94/94/94 95/95/95
f 57/57/57 95/95/95 58/58/58
f 58/58/58 95/95/95 96/96/96
f 58/58/58 96/96/96 59/59/59
f 59/59/59 96/96/96 97/97/97
f 59/59/59 97/97/97 60/60/60
f 60/60/60 97/97/97 98/98/98
f 60/60/60 98/98/98 61/61/61
f 61/61/61 98/98/98 99/99/99
f 61/61/61 99/99/99 62/62/62
f 62/62/62 99/99/99 100/100/100
f 62/62/62 100/100/100 63/63/63
f 63/63/63 100/100/100 101/101/101
f 63/63/63 101/101/101 64/64/64
f 64/64/64 101/101/101 102/102/102
f 64/64/64 102/102/102 65/65/65
f 65/65/65 102/102/102 103/103/103
f 65/65/65 103/103/103 66/66/66
f 66/66/66 103/103/103 104/104/104
f 66/66/66 104/104/104 67/67/67
f 67/67/67 104/104/104 105/105/105
f 67/67/67 105/105/105 68/68/68
f 68/68/68 105/105/105 106/106/106
f 68/68/68 106/106/106 69/69/69
f 69/69/69 106/106/106 107/107/107
f 69/69/69 107/107/107 70/70/70
f 70/70/70 107/107/107 108/108/108
f 70/70/70 108/108/108 71/71/71
f 71/71/71 108/108/108 109/109/109
f 71/71/71 109/109/109 72/72/72
f 72/72/72 109/109/109 110/110/110
f 72/72/72 110/110/110 73/73/73
f 73/73/73 110/110/110 111/111/111
f 73/73/73 111/111/111 74/74/74
f 75/75/75 112/112/112 113/113/113
f 75/75/75 113/113/113 76/76/76
f 76/76/76 113/113/113 114/114/114
f 76/76/76 114/114/114 77/77/77
f 77/77/77 114/114/114 115/115/115
f 77/77/77 115/115/115 78/78/78
f 78/78/78 115/115/115 116/116/116
f 78/78/78 116/116/116 79/79/79
f 79/79/79 116/116/116 117/117/117
f 79/79/79 117/117/117 80/80/80
f 80/80/80 117/117/117 118/118/118
f 80/80/80 118/118/118 81/81/81
f 81/81/81 118/118/118 119/119/119
f 81/81/81 119/119/119 82/82/82
f 82/82/82 119/119/119 120/120/120
f 82/82/82 120/120/120 83/83/83
f 83/83/83 120/120/120 121/121/121
f 83/83/83 121/121/121 84/84/84
f 84/84/84 121/121/121 122/122/122
f 84/84/84 122/122/122 85/85/85
f 85/85/85 122/122/122 123/123/123
f 85/85/85 123/123/123 86/86/86
f 86/86/86 123/123/123 124/124/124
f 86/86/86 124/124/124 87/87/87
f 87/87/87 124/124/124 125/125/125
f 87/87/87 125/125/125 88/88/88
f 88/88/88 125/125/125 126/126/126
f 88/88/88 126/126/126 89/89/89
f 89/89/89 126/126/126 127/127/127
f 89/89/89 127/127/127 90/90/90
f 90/90/90 127/127/127 128/128/128
f 90/90/90 128/128/128 91/91/91
f 91/91/91 128/128/128 129/129/129
f 91/91/91 129/129/129 92/92/92
f 92/92/92 129/129/129 130/130/130
f 92/92/92 130/130/130 93/93/93
f 93/93/93 130/130/130 131/131/131
f 93/93/93 131/131/131 94/94/94
f 94/94/94 131/131/131 132/132/132
f 94/94/94 132/132/132 95/95/95
f 95/95/95 132/132/132 133/133/133
f 95/95/95 133/133/133 96/96/96
f 96/96/96 133/133/133 134/134/134
f 96/96/96 134/134/134 97/97/97
f 97/97/97 134/134/134 135/135/135
f 97/97/97 135/135/135 98/98/98
f 98/98/98 135/135/135 136/136/136
f 98/98/98 136/136/136 99/99/99
f 99/99/99 136/136/136 137/137/137
f 99/99/99 137/137/137 100/100/100
f 100/100/100 137/137/137 138/138/138
f 100/100/100 138/138/138 101/101/101
f 101/101/101 138/138/138 139/139/139
f 101/101/101 139/139/139 102/102/102
f 102/102/102 139/139/139 140/140/140
f 102/102/102 140/140/140 103/103/103
f 103/103/103 140/140/140 141/141/141
f 103/103/103 141/141/141 104/104/104
f 104/104/104 141/141/141 142/142/142
f 104/104/104 142/142/142 105/105/105
f 105/105/105 142/142/142 143/143/143
f 105/105/105 143/143/143 106/106/106
f 106/106/106 143/143/143 144/144/144
f 106/106/106 144/144/144 107/107/107
f 107/107/107 144/144/144 145/145/145
f 107/107/107 145/145/145 108/108/108
f 108/108/108 145/145/145 146/146/146
f 108/108/108 146/146/146 109/109/109
f 109/109/109 146/146/146 147/147/147
f 109/109/109 147/147/147 110/110/110
f 110/110/110 147/147/147 148/148/148
f 110/110/110 148/148/148 111/111/111
f 112/112/112 149/149/149 150/150/150
f 112/112/112 150/150/150 113/113/113
f 113/113/113 150/150/150 151/151/151
f 113/113/113 151/151/151 114/114/114
f 114/114/114 151/151/151 152/152/152
f 114/114/114 152/152/152 115/115/115
f 115/115/115 152/152/152 153/153/153
f 115/115/115 153/153/153 116/116/116
f 116/116/116 153/153/153 154/154/154
f 116/116/116 154/154/154 117/117/117
f 117/117/117 154/154/154 155/155/155
f 117/117/117 155/155/155 118/118/118
f 118/118/118 155/155/155 156/156/156
f 118/118/118 156/156/156 119/119/119
f 119/119/119 156/156/156 157/157/157
f 119/119/119 157/157/157 120/120/120
f 120/120/120 157/157/157 158/158/158
f 120/120/120 158/158/158 121/121/121
f 121/121/121 158/158/158 159/159/159
f 121/121/121 159/159/159 122/122/122
f 122/122/122 159/159/159 160/160/160
f 122/122/122 160/160/160 123/123/123
f 123/123/123 160/160/160 161/161/161
f 123/123/123 161/161/161 124/124/124
f 124/124/124 161/161/161 162/162/162
f 124/124/124 162/162/162 125/125/125
f 125/125/125 162/162/162 163/163/163
f 125/125/125 163/163/163 126/126/126
f 126/126/126 163/163/163 164/164/164
f 126/126/126 164/164/164 127/127/127
f 127/127/127 164/164/164 165/165/165
f 127/127/127 165/165/165 128/128/128
f 128/128/128 165/165/165 166/166/166
f 128/128/128 166/166/166 129/129/129
f 129/129/129 166/166/166 167/167/167
f 129/129/129 167/167/167 130/130/130
f 130/130/130 167/167/167 168/168/168
f 130/130/130 168/168/168 131/131/131
f 131/131/131 168/168/168 169/169/169
f 131/131/131 169/169/169 132/132/132
f 132/132/132 169/169/169 170/170/170
f 132/132/132 170/170/170 133/133/133
f 133/133/133 170/170/170 171/171/171
f 133/133/133 171/171/171 134/134/134
f 134/134/134 171/171/171 172/172/172
f 134/134/134 172/172/172 135/135/135
f 135/135/135 172/172/172 173/173/173
f 135/135/135 173/173/173 136/136/136
f 136/136/136 173/173/173 174/174/174
f 136/136/136 174/174/174 137/137/137
f 137/137/137 174/174/174 175/175/175
f 137/137/137 175/175/175 138/138/138
f 138/138/138 175/175/175 176/176/176
f 138/138/138 176/176/176 139/139/139
f 139/139/139 176/176/176 177/177/177
f 139/139/139 177/177/177 140/140/140
f 140/140/140 177/177/177 178/178/178
f 140/140/140 178/178/178 141/141/141
f 141/141/141 178/178/178 179/179/179
f 141/141/141 179/179/179 142/142/142
f 142/142/142 179/179/179 180/180/180
f 142/142/142 180/180/180 143/143/143
f 143/143/143 180/180/180 181/181/181
f 143/143/143 181/181/181 144/144/144
f 144/144/144 181/181/181 182/182/182
f 144/144/144 182/182/182 145/145/145
f 145/145/145 182/182/182 183/183/183
f 145/145/145 183/183/183 146/146/146
f 146/146/146 183/183/183 184/184/184
f 146/146/146 184/184/184 147/147/147
f 147/147/147 184/184/184 185/185/185
f 147/147/147 185/185/185 148/148/148
f 149/149/149 186/186/186 187/187/187
f 149/149/149 187/187/187 150/150/150
f 150/150/150 187/187/187 188/188/188
f 150/150/150 188/188/188 151/151/151
f 151/151/151 188/188/188 189/189/189
f 151/151/151 189/189/189 152/152/152
f 152/152/152 189/189/189 190/190/190
f 152/152/152 190/190/190 153/153/153
f 153/153/153 190/190/190 191/191/191
f 153/153/153 191/191/191 154/154/154
f 154/154/154 191/191/191 192/192/192
f 154/154/154 192/192/192 155/155/155
f 155/155/155 192/192/192 193/193/193
f 155/155/155 193/193/193 156/156/156
f 156/156/156 193/193/193 194/194/194
f 156/156/156 194/194/194 157/157/157
f 157/157/157 194/194/194 195/195/195
f 157/157/157 195/195/195 158/158/158
f 158/158/158 195/195/195 196/196/196
f 158/158/158 196/196/196 159/159/159
f 159/159/159 196/196/196 197/197/197
f 159/159/159 197/197/197 160/160/160
f 160/160/160 197/197/197 198/198/198
f 160/160/160 198/198/198 161/161/161
f 161/161/161 198/198/198 199/199/199
f 161/161/161 199/199/199 162/162/162
f 162/162/162 199/199/199 200/200/200
f 162/162/162 200/200/200 163/163/163
f 163/163/163 200/200/200 201/201/201
f 163/163/163 201/201/201 164/164/164
f 164/164/164 201/201/201 202/202/202
f 164/164/164 202/202/202 165/165/165
f 165/165/165 202/202/202 203/203/203
f 165/165/165 203/203/203 166/166/166
f 166/166/166 203/203/203 204/204/204
f 166/166/166 204/204/204 167/167/167
f 167/167/167 204/204/204 205/205/205
f 167/167/167 205/205/205 168/168/168
f 168/168/168 205/205/205 206/206/206
f 168/168/168 206/206/206 169/169/169
f 169/169/169 206/206/206 207/207/207
f 169/169/169 207/207/207 170/170/170
f 170/170/170 207/207/207 208/208/208
f 170/170/170 208/208/208 171/171/171
f 171/171/171 208/208/208 209/209/209
f 171/171/171 209/209/209 172/172/172
f 172/172/172 209/209/209 210/210/210
f 172/172/172 210/210/210 173/173/173
f 173/173/173 210/210/210 211/211/211
f 173/173/173 211/211/211 174/174/174
f 174/174/174 211/211/211 212/212/212
f 174/174/174 212/212/212 175/175/175
f 175/175/175 212/212/212 213/213/213
f 175/175/175 213/213/213 176/176/176
f 176/176/176 213/213/213 214/214/214
f 176/176/176 214/214/214 177/177/177
f 177/177/177 214/214/214 215/215/215
f 177/177/177 215/215/215 178/178/178
f 178/178/178 215/215/215 216/216/216
f 178/178/178 216/216/216 179/179/179
f 179/179/179 216/216/216 217/217/217
f 179/179/179 217/217/217 180/180/180
f 180/180/180 217/217/217 218/218/218
f 180/180/180 218/218/218 181/181/181
f 181/181/181 218/218/218 219/219/219
f 181/181/181 219/219/219 182/182/182
f 182/182/182 219/219/219 220/220/220
f 182/182/182 220/220/220 183/183/183
f 183/183/183 220/220/220 221/221/221
f 183/183/183 221/221/221 184/184/184
f 184/184/184 221/221/221 222/222/222
f 184/184/184 222/222/222 185/185/185
f 186/186/186 223/223/223 224/224/224
f 186/186/186 224/224/224 187/187/187
f 187/187/187 224/224/224 225/225/225
f 187/187/187 225/225/225 188/188/188
f 188/188/188 225/225/225 226/226/226
f 188/188/188 226/226/226 189/189/189
f 189/189/189 226/226/226 227/227/227
f 189/189/189 227/227/227 190/190/190
f 190/190/190 227/227/227 228/228/228
f 190/190/190 228/228/228 191/191/191
f 191/191/191 228/228/228 229/229/229
f 191/191/191 229/229/229 192/192/192
f 192/192/192 229/229/229 230/230/230
f 192/192/192 230/230/230 193/193/193
f 193/193/193 230/230/230 231/231/231
f 193/193/193 231/231/231 194/194/194
f 194/194/194 231/231/231 232/232/232
f 194/194/194 232/232/232 195/195/195
f 195/195/195 232/232/232 233/233/233
f 195/195/195 233/233/233 196/196/196
f 196/196/196 233/233/233 234/234/234
f 196/196/196 234/234/234 197/197/197
f 197/197/197 234/234/234 235/235/235
f 197/197/197 235/235/235 198/198/198
f 198/198/198 235/235/235 236/236/236
f 198/198/198 236/236/236 199/199/199
f 199/199/199 236/236/236 237/237/237
f 199/199/199 237/237/237 200/200/200
f 200/200/200 237/237/237 238/238/238
f 200/200/200 238/238/238 201/201/201
f 201/201/201 238/238/238 239/239/239
f 201/201/201 239/239/239 202/202/202
f 202/202/202 239/239/239 240/240/240
f 202/202/202 240/240/240 203/203/203
f 203/203/203 240/240/240 241/241/241
f 203/203/203 241/241/241 204/204/204
f 204/204/204 241/241/241 242/242/242
f 204/204/204 242/242/242 205/205/205
f 205/205/205 242/242/242 243/243/243
f 205/205/205 243/243/243 206/206/206
f 206/206/206 243/243/243 244/244/244
f 206/206/206 244/244/244 207/207/207
f 207/207/207 244/244/244 245/245/245
f 207/207/207 245/245/245 208/208/208
f 208/208/208 245/245/245 246/246/246
f 208/208/208 246/246/246 209/209/209
f 209/209/209 246/246/246 247/247/247
f 209/209/209 247/247/247 210/210/210
f 210/210/210 247/247/247 248/248/248
f 210/210/210 248/248/248 211/211/211
f 211/211/211 248/248/248 249/249/249
f 211/211/211 249/249/249 212/212/212
f 212/212/212 249/249/249 250/250/250
f 212/212/212 250/250/250 213/213/213
f 213/213/213 250/250/250 251/251/251
f 213/213/213 251/251/251 214/214/214
f 214/214/214 251/251/251 252/252/252
f 214/214/214 252/252/252 215/215/215
f 215/215/215 252/252/252 253/253/253
f 215/215/215 253/253/253 216/216/216
f 216/216/216 253/253/253 254/254/254
f 216/216/216 254/254/254 217/217/217
f 217/217/217 254/254/254 255/255/255
f 217/217/217 255/255/255 218/218/218
f 218/218/218 255/255/255 256/256/256
f 218/218/218 256/256/256 219/219/219
f 219/219/219 256/256/256 257/257/257
f 219/219/219 257/257/257 220/220/220
f 220/220/220 257/257/257 258/258/258
f 220/220/220 258/258/258 221/221/221
f 221/221/221 258/258/258 259/259/259
f 221/221/221 259/259/259 222/222/222
f 223/223/223 260/260/260 261/261/261
f 223/223/223 261/261/261 224/224/224
f 224/224/224 261/261/261 262/262/262
f 224/224/224 262/262/262 225/225/225
f 225/225/225 262/262/262 263/263/263
f 225/225/225 263/263/263 226/226/226
f 226/226/226 263/263/263 264/264/264
f 226/226/226 264/264/264 227/227/227
f 227/227/227 264/264/264 265/265/265
f 227/227/227 265/265/265 228/228/228
f 228/228/228 265/265/265 266/266/266
f 228/228/228 266/266/266 229/229/229
f 229/229/229 266/266/266 267/267/267
f 229/229/229 267/267/267 230/230/230
f 230/230/230 267/267/267 268/268/268
f 230/230/230 268/268/268 231/231/231
f 231/231/231 268/268/268 269/269/269
f 231/231/231 269/269/269 232/232/232
f 232/232/232 269/269/269 270/270/270
f 232/232/232 270/270/270 233/233/233
f 233/233/233 270/270/270 271/271/271
f 233/233/233 271/271/271 234/234/234
f 234/234/234 271/271/271 272/272/272
f 234/234/234 272/272/272 235/235/235
f 235/235/235 272/272/272 273/273/273
f 235/235/235 273/273/273 236/236/236
f 236/236/236 273/273/273 274/274/274
f 236/236/236 274/274/274 237/237/237
f 237/237/237 274/274/274 275/275/275
f 237/237/237 275/275/275 238/238/238
f 238/238/238 275/275/275 276/276/276
f 238/238/238 276/276/276 239/239/239
f 239/239/239 276/276/276 277/277/277
f 239/239/239 277/277/277 240/240/240
f 240/240/240 277/277/277 278/278/278
f 240/240/240 278/278/278 241/241/241
f 241/241/241 278/278/278 279/279/279
f 241/241/241 279/279/279 242/242/242
f 242/242/242 279/279/279 280/280/280
f 242/242/242 280/280/280 243/243/243
f 243/243/243 280/280/280 281/281/281
f 243/243/243 281/281/281 244/244/244
f 244/244/244 281/281/281 282/282/282
f 244/244/244 282/282/282 245/245/245
f 245/245/245 282/282/282 283/283/283
f 245/245/245 283/283/283 246/246/246
f 246/246/246 283/283/283 284/284/284
f 246/246/246 284/284/284 247/247/247
f 247/247/247 284/284/284 285/285/285
f 247/247/247 285/285/285 248/248/248
f 248/248/248 285/285/285 286/286/286
f 248/248/248 286/286/286 249/249/249
f 249/249/249 286/286/286 287/287/287
f 249/249/249 287/287/287 250/250/250
f 250/250/250 287/287/287 288/288/288
f 250/250/250 288/288/288 251/251/251
f 251/251/251 288/288/288 289/289/289
f 251/251/251 289/289/289 252/252/252
f 252/252/252 289/289/289 290/290/290
f 252/252/252 290/290/290 253/253/253
f 253/253/253 290/290/290 291/291/291
f 253/253/253 291/291/291 254/254/254
f 254/254/254 291/291/291 292/292/292
f 254/254/254 292/292/292 255/255/255
f 255/255/255 292/292/292 293/293/293
f 255/255/255 293/293/293 256/256/256
f 256/256/256 293/293/293 294/294/294
f 256/256/256 294/294/294 257/257/257
f 257/257/257 294/294/294 295/295/295
f 257/257/257 295/295/295 258/258/258
f 258/258/258 295/295/295 296/296/296
f 258/258/258 296/296/296 259/259/259
f 260/260/260 297/297/297 298/298/298
f 260/260/260 298/298/298 261/261/261
f 261/261/261 298/298/298 299/299/299
f 261/261/261 299/299/299 262/262/262
f 262/262/262 299/299/299 300/300/300
f 262/262/262 300/300/300 263/263/263
f 263/263/263 300/300/300 301/301/301
f 263/263/263 301/301/301 264/264/264
f 264/264/264 301/301/301 302/302/302
f 264/264/264 302/302/302 265/265/265
f 265/265/265 302/302/302 303/303/303
f 265/265/265 303/303/303 266/266/266
f 266/266/266 303/303/303 304/304/304
f 266/266/266 304/304/304 267/267/267
f 267/267/267 304/304/304 305/305/305
f 267/267/267 305/305/305 268/268/268
f 268/268/268 305/305/305 306/306/306
f 268/268/268 306/306/306 269/269/269
f 269/269/269 306/306/306 307/307/307
f 269/269/269 307/307/307 270/270/270
f 270/270/270 307/307/307 308/308/308
f 270/270/270 308/308/308 271/271/271
f 271/271/271 308/308/308 309/309/309
f 271/271/271 309/309/309 272/272/272
f 272/272/272 309/309/309 310/310/310
f 272/272/272 310/310/310 273/273/273
f 273/273/273 310/310/310 311/311/311
f 273/273/273 311/311/311 274/274/274
f 274/274/274 311/311/311 312/312/312
f 274/274/274 312/312/312 275/275/275
f 275/275/275 312/312/312 313/313/313
f 275/275/275 313/313/313 276/276/276
f 276/276/276 313/313/313 314/314/314
f 276/276/276 314/314/314 277/277/277
f 277/277/277 314/314/314 315/315/315
f 277/277/277 315/315/315 278/278/278
f 278/278/278 315/315/315 316/316/316
f 278/278/278 316/316/316 279/279/279
f 279/279/279 316/316/316 317/317/317
f 279/279/279 317/317/317 280/280/280
f 280/280/280 317/317/317 318/318/318
f 280/280/280 318/318/318 281/281/281
f 281/281/281 318/318/318 319/319/319
f 281/281/281 319/319/319 282/282/282
f 282/282/282 319/319/319 320/320/320
f 282/282/282 320/320/320 283/283/283
f 283/283/283 320/320/320 321/321/321
f 283/283/283 321/321/321 284/284/284
f 284/284/284 321/321/321 322/322/322
f 284/284/284 322/322/322 285/285/285
f 285/285/285 322/322/322 323/323/323
f 285/285/285 323/323/323 286/286/286
f 286/286/286 323/323/323 324/324/324
f 286/286/286 324/324/324 287/287/287
f 287/287/287 324/324/324 325/325/325
f 287/287/287 325/325/325 288/288/288
f 288/288/288 325/325/325 326/326/326
f 288/288/288 326/326/326 289/289/289
f 289/289/289 326/326/326 327/327/327
f 289/289/289 327/327/327 290/290/290
f 290/290/290 327/327/327 328/328/328
f 290/290/290 328/328/328 291/291/291
f 291/291/291 328/328/328 329/329/329
f 291/291/291 329/329/329 292/292/292
f 292/292/292 329/329/329 330/330/330
f 292/292/292 330/330/330 293/293/293
f 293/293/293 330/330/330 331/331/331
f 293/293/293 331/331/331 294/294/294
f 294/294/294 331/331/331 332/332/332
f 294/294/294 332/332/332 295/295/295
f 295/295/295 332/332/332 333/333/333
f 295/295/295 333/333/333 296/296/296
f 297/297/297 334/334/334 335/335/335
f 297/297/297 335/335/335 298/298/298
f 298/298/298 335/335/335 336/336/336
f 298/298/298 336/336/336 299/299/299
f 299/299/299 336/336/336 337/337/337
f 299/299/299 337/337/337 300/300/300
f 300/300/300 337/337/337 338/338/338
f 300/300/300 338/338/338 301/301/301
f 301/301/301 338/338/338 339/339/339
f 301/301/301 339/339/339 302/302/302
f 302/302/302 339/339/339 340/340/340
f 302/302/302 340/340/340 303/303/303
f 303/303/303 340/340/340 341/341/341
f 303/303/303 341/341/341 304/304/304
f 304/304/304 341/341/341 342/342/342
f 304/304/304 342/342/342 305/305/305
f 305/305/305 342/342/342 343/343/343
f 305/305/305 343/343/343 306/306/306
f 306/306/306 343/343/343 344/344/344
f 306/306/306 344/344/344 307/307/307
f 307/307/307 344/344/344 345/345/345
f 307/307/307 345/345/345 308/308/308
f 308/308/308 345/345/345 346/346/346
f 308/308/308 346/346/346 309/309/309
f 309/309/309 346/346/346 347/347/347
f 309/309/309 347/347/347 310/310/310
f 310/310/310 347/347/347 348/348/348
f 310/310/310 348/348/348 311/311/311
f 311/311/311 348/348/348 349/349/349
f 311/311/311 349/349/349 312/312/312
f 312/312/312 349/349/349 350/350/350
f 312/312/312 350/350/350 313/313/313
f 313/313/313 350/350/350 351/351/351
f 313/313/313 351/351/351 314/314/314
f 314/314/314 351/351/351 352/352/352
f 314/314/314 352/352/352 315/315/315
f 315/315/315 352/352/352 353/353/353
f 315/315/315 353/353/353 316/316/316
f 316/316/316 353/353/353 354/354/354
f 316/316/316 354/354/354 317/317/317
f 317/317/317 354/354/354 355/355/355
f 317/317/317 355/355/355 318/318/318
f 318/318/318 355/355/355 356/356/356
f 318/318/318 356/356/356 319/319/319
f 319/319/319 356/356/356 357/357/357
f 319/319/319 357/357/357 320/320/320
f 320/320/320 357/357/357 358/358/358
f 320/320/320 358/358/358 321/321/321
f 321/321/321 358/358/358 359/359/359
f 321/321/321 359/359/359 322/322/322
f 322/322/322 359/359/359 360/360/360
f 322/322/322 360/360/360 323/323/323
f 323/323/323 360/360/360 361/361/361
f 323/323/323 361/361/361 324/324/324
f 324/324/324 361/361/361 362/362/362
f 324/324/324 362/362/362 325/325/325
f 325/325/325 362/362/362 363/363/363
f 325/325/325 363/363/363 326/326/326
f 326/326/326 363/363/363 364/364/364
f 326/326/326 364/364/364 327/327/327
f 327/327/327 364/364/364 365/365/365
f 327/327/327 365/365/365 328/328/328
f 328/328/328 365/365/365 366/366/366
f 328/328/328 366/366/366 329/329/329
f 329/329/329 366/366/366 367/367/367
f 329/329/329 367/367/367 330/330/330
f 330/330/330 367/367/367 368/368/368
f 330/330/330 368/368/368 331/331/331
f 331/331/331 368/368/368 369/369/369
f 331/331/331 369/369/369 332/332/332
f 332/332/332 369/369/369 370/370/370
f 332/332/332 370/370/370 333/333/333
