# Generated sky cornice; visual geometry only.
s 1
v 21.773250 -2.051123 40.401317
v 21.700910 -1.276198 40.407114
v 21.585778 -0.041852 40.416339
v 21.531777 1.394390 40.420666
v 21.642834 2.767159 40.411767
v 21.957666 4.027434 40.386540
v 22.417178 5.258529 40.349721
v 22.978577 6.386355 40.304737
v 23.599071 7.335793 40.255019
v 24.305150 8.058020 40.198443
v 25.107003 8.542201 40.134192
v 25.937385 8.774805 40.067656
v 26.729049 8.748977 40.004222
v 27.512053 8.417217 39.941482
v 28.306265 7.780939 39.877844
v 29.029155 6.919098 39.819920
v 29.598196 5.919234 39.774325
v 29.999632 4.814882 39.742159
v 30.274728 3.596694 39.720116
v 30.423483 2.297353 39.708197
v 30.445899 0.952570 39.706401
v 30.331275 -0.439456 39.715585
v 30.083180 -1.830449 39.735464
v 29.723008 -3.111307 39.764324
v 29.272157 -4.178085 39.800449
v 28.686814 -4.961958 39.847351
v 27.972075 -5.501404 39.904622
v 27.222693 -5.951003 39.964668
v 26.533426 -6.446386 40.019897
v 25.892554 -6.980227 40.071248
v 25.261872 -7.523225 40.121783
v 24.696397 -8.113839 40.167093
v 24.251150 -8.790526 40.202770
v 23.958224 -9.669578 40.226241
v 23.782468 -10.695140 40.240324
v 23.678034 -11.647447 40.248692
v 23.599071 -12.306736 40.255019
v 17.694579 -2.138261 33.739025
v 17.619121 -1.323776 33.744993
v 17.499027 -0.017464 33.754493
v 17.442699 1.511069 33.758948
v 17.558543 2.983352 33.749785
v 17.886943 4.345870 33.723809
v 18.366258 5.682631 33.685895
v 18.951852 6.913277 33.639575
v 19.599087 7.956287 33.588380
v 20.335596 8.757651 33.530122
v 21.172007 9.303242 33.463963
v 22.038176 9.576563 33.395450
v 22.863959 9.568667 33.330131
v 23.680708 9.228923 33.265527
v 24.509148 8.558446 33.199998
v 25.263193 7.639967 33.140354
v 25.856758 6.565915 33.093403
v 26.275494 5.373103 33.060282
v 26.562446 4.054217 33.037584
v 26.717613 2.646187 33.025310
v 26.740994 1.189372 33.023461
v 26.621431 -0.314896 33.032918
v 26.362643 -1.813184 33.053388
v 25.986949 -3.188939 33.083105
v 25.516667 -4.331431 33.120304
v 24.906098 -5.167134 33.168600
v 24.160555 -5.735121 33.227571
v 23.378878 -6.203820 33.289401
v 22.659904 -6.720248 33.346272
v 21.991413 -7.276769 33.399149
v 21.333550 -7.842835 33.451185
v 20.743705 -8.458540 33.497841
v 20.279269 -9.163975 33.534578
v 19.973719 -10.080372 33.558747
v 19.790388 -11.149503 33.573248
v 19.681453 -12.142267 33.581865
v 19.599087 -12.829565 33.588380
v 13.551825 -2.297202 27.081576
v 13.470711 -1.418383 27.087908
v 13.341613 -0.003814 27.097987
v 13.281063 1.656204 27.102714
v 13.405591 3.261456 27.092992
v 13.758609 4.753075 27.065431
v 14.273856 6.219685 27.025205
v 14.903349 7.573173 26.976059
v 15.599104 8.724124 26.921740
v 16.390825 9.612736 26.859929
v 17.289936 10.222211 26.789733
v 18.221037 10.533464 26.717040
v 19.108724 10.535852 26.647737
v 19.986701 10.174344 26.579191
v 20.877244 9.449936 26.509665
v 21.687815 8.451745 26.446382
v 22.325876 7.279741 26.396567
v 22.776003 5.974533 26.361425
v 23.084466 4.529650 26.337342
v 23.251265 2.986404 26.324320
v 23.276399 1.389939 26.322358
v 23.147872 -0.256481 26.332392
v 22.869685 -1.893677 26.354111
v 22.465827 -3.394820 26.385641
v 21.960291 -4.639598 26.425109
v 21.303951 -5.548005 26.476351
v 20.502519 -6.161424 26.538920
v 19.662243 -6.664962 26.604522
v 18.889373 -7.219777 26.664862
v 18.170769 -7.817665 26.720965
v 17.463590 -8.425808 26.776176
v 16.829527 -9.087280 26.825678
v 16.330275 -9.845151 26.864656
v 16.001819 -10.829666 26.890299
v 15.804746 -11.978267 26.905685
v 15.687644 -13.044825 26.914828
v 15.599104 -13.783211 26.921740
v 9.357528 -2.513758 20.427807
v 9.268714 -1.552111 20.434650
v 9.127364 -0.004244 20.445540
v 9.061067 1.812180 20.450648
v 9.197414 3.568648 20.440143
v 9.583938 5.200751 20.410363
v 10.148089 6.805475 20.366897
v 10.837329 8.286408 20.313794
v 11.599120 9.545717 20.255101
v 12.465986 10.517968 20.188312
v 13.450435 11.184789 20.112464
v 14.469910 11.525301 20.033917
v 15.441850 11.527863 19.959033
v 16.403158 11.132260 19.884968
v 17.378226 10.339581 19.809842
v 18.265731 9.247345 19.741463
v 18.964353 7.964942 19.687637
v 19.457203 6.536803 19.649665
v 19.794943 4.955843 19.623643
v 19.977573 3.267259 19.609572
v 20.005092 1.520442 19.607452
v 19.864367 -0.281043 19.618294
v 19.559776 -2.072447 19.641762
v 19.117587 -3.714994 19.675831
v 18.564068 -5.077035 19.718478
v 17.845433 -6.071028 19.773846
v 16.967934 -6.742258 19.841454
v 16.047906 -7.293265 19.912339
v 15.201680 -7.900382 19.977537
v 14.414871 -8.554633 20.038158
v 13.640570 -9.220105 20.097815
v 12.946327 -9.943933 20.151304
v 12.399689 -10.773249 20.193420
v 12.040058 -11.850574 20.221128
v 11.824280 -13.107453 20.237753
v 11.696064 -14.274555 20.247632
v 11.599120 -15.082548 20.255101
v 5.129103 -2.768308 13.776238
v 5.031239 -1.713643 13.783677
v 4.875483 -0.021863 13.795518
v 4.802430 1.957950 13.801072
v 4.952672 3.865222 13.789650
v 5.378587 5.630601 13.757271
v 6.000231 7.362766 13.710013
v 6.759711 8.957593 13.652276
v 7.599136 10.309449 13.588462
v 8.554345 11.348321 13.515845
v 9.639120 12.055837 13.433379
v 10.762489 12.410573 13.347978
v 11.833480 12.400894 13.266560
v 12.892755 11.961217 13.186032
v 13.967192 11.092977 13.104351
v 14.945144 9.903293 13.030006
v 15.714962 8.511862 12.971483
v 16.258038 6.966399 12.930198
v 16.630197 5.257501 12.901905
v 16.831439 3.433064 12.886607
v 16.861763 1.545427 12.884301
v 16.706697 -0.403595 12.896090
v 16.371064 -2.344736 12.921605
v 15.883812 -4.127017 12.958647
v 15.273884 -5.607016 13.005015
v 14.482012 -6.689491 13.065214
v 13.515088 -7.424998 13.138721
v 12.501299 -8.031801 13.215791
v 11.568834 -8.700397 13.286679
v 10.701841 -9.420898 13.352589
v 9.848631 -10.153758 13.417451
v 9.083638 -10.950883 13.475607
v 8.481291 -11.864177 13.521399
v 8.085011 -13.050595 13.551525
v 7.847243 -14.434749 13.569600
v 7.705960 -15.720035 13.580341
v 7.599136 -16.609848 13.588462
v 0.887196 -3.037660 7.125214
v 0.779747 -1.888811 7.133273
v 0.608737 -0.057231 7.146098
v 0.528528 2.075484 7.152114
v 0.693485 4.115999 7.139742
v 1.161116 5.991276 7.104671
v 1.843645 7.824185 7.053482
v 2.677511 9.504434 6.990944
v 3.599153 10.920192 6.921822
v 4.647917 11.998589 6.843167
v 5.838938 12.723064 6.753842
v 7.072334 13.073142 6.661340
v 8.248221 13.038347 6.573150
v 9.411245 12.548128 6.485926
v 10.590916 11.604515 6.397452
v 11.664650 10.324515 6.316924
v 12.509867 8.837985 6.253535
v 13.106134 7.194926 6.208816
v 13.514744 5.381936 6.178171
v 13.735695 3.447933 6.161600
v 13.768989 1.446377 6.159103
v 13.598735 -0.624819 6.171871
v 13.230230 -2.693595 6.199509
v 12.695254 -4.597863 6.239631
v 12.025589 -6.183251 6.289854
v 11.156159 -7.347511 6.355060
v 10.094531 -8.147437 6.434680
v 8.981448 -8.813281 6.518160
v 7.957654 -9.546930 6.594942
v 7.005745 -10.337535 6.666334
v 6.068970 -11.141702 6.736590
v 5.229051 -12.016385 6.799583
v 4.567709 -13.018541 6.849182
v 4.132615 -14.320395 6.881813
v 3.871559 -15.839225 6.901392
v 3.716439 -17.249567 6.913026
v 3.599153 -18.225958 6.921822
v -3.346273 -3.297251 0.473075
v -3.462973 -2.061425 0.481708
v -3.648707 -0.106272 0.495448
v -3.735821 2.155930 0.501892
v -3.556662 4.301317 0.488639
v -3.048770 6.254674 0.451067
v -2.307479 8.154176 0.396229
v -1.401821 9.885372 0.329232
v -0.400831 11.332291 0.255183
v 0.738227 12.421087 0.170920
v 2.031789 13.138565 0.075227
v 3.371374 13.466532 -0.023870
v 4.648499 13.396655 -0.118346
v 5.911654 12.854234 -0.211790
v 7.192888 11.842075 -0.306570
v 8.359067 10.486476 -0.392839
v 9.277052 8.926417 -0.460748
v 9.924655 7.213041 -0.508655
v 10.368443 5.327705 -0.541485
v 10.608418 3.318677 -0.559237
v 10.644579 1.238707 -0.561912
v 10.459667 -0.919886 -0.548233
v 10.059435 -3.084123 -0.518626
v 9.478400 -5.082820 -0.475643
v 8.751080 -6.752409 -0.421839
v 7.806796 -7.984899 -0.351985
v 6.653767 -8.843698 -0.266688
v 5.444854 -9.566443 -0.177258
v 4.332916 -10.362788 -0.095001
v 3.299053 -11.220957 -0.018520
v 2.281626 -12.093845 0.056745
v 1.369393 -13.043277 0.124229
v 0.651113 -14.131075 0.177364
v 0.178560 -15.544182 0.212322
v -0.104972 -17.192808 0.233296
v -0.273447 -18.723674 0.245759
v -0.400831 -19.783505 0.255183
v -7.550196 -3.523481 -6.181694
v -7.674976 -2.214590 -6.172590
v -7.873570 -0.159784 -6.158102
v -7.966716 2.202387 -6.151306
v -7.775152 4.422210 -6.165282
v -7.232095 6.423560 -6.204901
v -6.439477 8.359127 -6.262726
v -5.471112 10.112117 -6.333373
v -4.400814 11.564273 -6.411457
v -3.182889 12.642182 -6.500310
v -1.799762 13.336750 -6.601216
v -0.367426 13.632750 -6.705712
v 0.998126 13.524466 -6.805336
v 2.348740 12.934036 -6.903870
v 3.718686 11.865090 -7.003814
v 4.965609 10.451852 -7.094784
v 5.947154 8.840769 -7.166392
v 6.639597 7.083218 -7.216909
v 7.114113 5.154985 -7.251528
v 7.370703 3.102595 -7.270247
v 7.409367 0.976892 -7.273068
v 7.211652 -1.236002 -7.258644
v 6.783709 -3.463587 -7.227423
v 6.162444 -5.527912 -7.182099
v 5.384765 -7.258366 -7.125363
v 4.375100 -8.542690 -7.051703
v 3.142236 -9.450479 -6.961760
v 1.849619 -10.222814 -6.867457
v 0.660692 -11.073797 -6.780719
v -0.444755 -11.990846 -6.700071
v -1.532627 -12.923625 -6.620705
v -2.508022 -13.938198 -6.549545
v -3.276035 -15.100633 -6.493515
v -3.781307 -16.610696 -6.456653
v -4.084470 -18.372436 -6.434535
v -4.264611 -20.008338 -6.421393
v -4.400814 -21.140886 -6.411457
v -11.706276 -3.695951 -12.840316
v -11.837241 -2.332532 -12.830895
v -12.045677 -0.205211 -12.815901
v -12.143440 2.227638 -12.808868
v -11.942381 4.496915 -12.823332
v -11.372408 6.526234 -12.864333
v -10.540505 8.479849 -12.924176
v -9.524144 10.239735 -12.997288
v -8.400798 11.686461 -13.078096
v -7.122508 12.747494 -13.170050
v -5.670828 13.417366 -13.274477
v -4.167499 13.683538 -13.382619
v -2.734265 13.542605 -13.485719
v -1.316709 12.914494 -13.587691
v 0.121137 11.803524 -13.691123
v 1.429863 10.349889 -13.785266
v 2.460058 8.705520 -13.859373
v 3.186820 6.921645 -13.911653
v 3.684855 4.969372 -13.947479
v 3.954163 2.893391 -13.966852
v 3.994744 0.742541 -13.969771
v 3.787229 -1.502351 -13.954843
v 3.338075 -3.769697 -13.922533
v 2.686018 -5.876888 -13.875628
v 1.869794 -7.648364 -13.816912
v 0.810085 -8.968925 -13.740682
v -0.483884 -9.913068 -13.647600
v -1.840568 -10.723207 -13.550007
v -3.088423 -11.615845 -13.460242
v -4.248660 -12.577782 -13.376781
v -5.390452 -13.556219 -13.294646
v -6.414191 -14.620455 -13.221003
v -7.220270 -15.839789 -13.163017
v -7.750585 -17.423768 -13.124869
v -8.068775 -19.271743 -13.101980
v -8.257843 -20.987720 -13.088379
v -8.400798 -22.175705 -13.078096
v -15.800770 -3.799398 -19.503620
v -15.935479 -2.402718 -19.494067
v -16.149876 -0.230268 -19.478863
v -16.250434 2.247590 -19.471731
v -16.043626 4.549978 -19.486397
v -15.457356 6.600149 -19.527974
v -14.601667 8.569056 -19.588656
v -13.556246 10.337673 -19.662794
v -12.400782 11.785598 -19.744735
v -11.085942 12.840563 -19.837979
v -9.592755 13.499041 -19.943871
v -8.046444 13.749903 -20.053530
v -6.572230 13.590979 -20.158076
v -5.114144 12.940777 -20.261478
v -3.635187 11.804002 -20.366361
v -2.289042 10.324461 -20.461825
v -1.229391 8.657473 -20.536971
v -0.481849 6.854332 -20.589984
v 0.030426 4.883543 -20.626313
v 0.307434 2.788937 -20.645958
v 0.349175 0.618408 -20.648918
v 0.135727 -1.650120 -20.633781
v -0.326269 -3.945350 -20.601018
v -0.996970 -6.081640 -20.553454
v -1.836532 -7.880265 -20.493915
v -2.926539 -9.224111 -20.416616
v -4.257506 -10.190530 -20.322228
v -5.652981 -11.023344 -20.223266
v -6.936515 -11.940967 -20.132242
v -8.129926 -12.929828 -20.047610
v -9.304364 -13.935651 -19.964322
v -10.357373 -15.029674 -19.889647
v -11.186500 -16.283136 -19.830848
v -11.731978 -17.911450 -19.792165
v -12.059265 -19.811149 -19.768954
v -12.253740 -21.575156 -19.755163
v -12.400782 -22.796391 -19.744735
v -19.825802 -3.825148 -26.171968
v -19.961504 -2.417785 -26.162482
v -20.177480 -0.227032 -26.147386
v -20.278778 2.273354 -26.140305
v -20.070447 4.598897 -26.154867
v -19.479858 6.671891 -26.196149
v -18.617865 8.663925 -26.256401
v -17.564743 10.454595 -26.330014
v -16.400765 11.922092 -26.411375
v -15.076239 12.993090 -26.503958
v -13.572052 13.663518 -26.609099
v -12.014348 13.921733 -26.717981
v -10.529274 13.765221 -26.821786
v -9.060445 13.111733 -26.924456
v -7.570593 11.965939 -27.028596
v -6.214530 10.472700 -27.123383
v -5.147073 8.788600 -27.197997
v -4.394024 6.965623 -27.250635
v -3.877975 4.972505 -27.286706
v -3.598926 2.853897 -27.306211
v -3.556878 0.658593 -27.309151
v -3.771898 -1.635045 -27.294121
v -4.237298 -3.954667 -27.261590
v -4.912940 -6.112857 -27.214363
v -5.758687 -7.929244 -27.155246
v -6.856725 -9.285595 -27.078494
v -8.197497 -10.259594 -26.984776
v -9.603253 -11.098053 -26.886515
v -10.896242 -12.021894 -26.796136
v -12.098445 -13.017457 -26.712103
v -13.281535 -14.030097 -26.629406
v -14.342303 -15.131535 -26.555259
v -15.177538 -16.393492 -26.496877
v -15.727035 -18.032841 -26.458468
v -16.056733 -19.945415 -26.435422
v -16.252640 -21.721377 -26.421728
v -16.400765 -22.950889 -26.411375
v -23.780114 -3.771933 -32.845234
v -23.914006 -2.376767 -32.836011
v -24.127102 -0.194778 -32.821332
v -24.227050 2.305598 -32.814448
v -24.021497 4.644593 -32.828607
v -23.438783 6.742903 -32.868746
v -22.588284 8.766562 -32.927330
v -21.549205 10.593373 -32.998905
v -20.400749 12.099651 -33.078014
v -19.093885 13.209629 -33.168034
v -17.609755 13.916140 -33.270266
v -16.072823 14.205050 -33.376134
v -14.607551 14.071875 -33.477066
v -13.158309 13.434272 -33.576894
v -11.688323 12.296450 -33.678151
v -10.350343 10.801718 -33.770314
v -9.297121 9.105787 -33.842863
v -8.554113 7.261977 -33.894044
v -8.044945 5.242162 -33.929117
v -7.769617 3.093553 -33.948082
v -7.728130 0.867743 -33.950940
v -7.940283 -1.453035 -33.936326
v -8.399477 -3.793985 -33.904696
v -9.066109 -5.967163 -33.858776
v -9.900579 -7.792077 -33.801295
v -10.983974 -9.150161 -33.726668
v -12.306868 -10.116862 -33.635543
v -13.693878 -10.943656 -33.540002
v -14.969626 -11.854646 -33.452125
v -16.155799 -12.836358 -33.370418
v -17.323113 -13.834910 -33.290010
v -18.369735 -14.921025 -33.217916
v -19.193833 -16.165426 -33.161150
v -19.736002 -17.781968 -33.123804
v -20.061304 -19.667935 -33.101396
v -20.254599 -21.419189 -33.088081
v -20.400749 -22.631596 -33.078014
v -27.669196 -3.646014 -39.522830
v -27.798694 -2.285259 -39.514041
v -28.004797 -0.140331 -39.500054
v -28.101464 2.333880 -39.493493
v -27.902657 4.670272 -39.506986
v -27.339066 6.787773 -39.545235
v -26.516479 8.841657 -39.601062
v -25.511499 10.708089 -39.669268
v -24.400732 12.261629 -39.744653
v -23.136756 13.423337 -39.830437
v -21.701332 14.181094 -39.927856
v -20.214838 14.516860 -40.028741
v -18.797653 14.422999 -40.124922
v -17.395971 13.817876 -40.220051
v -15.974226 12.704906 -40.316542
v -14.680155 11.223382 -40.404367
v -13.661496 9.525962 -40.473501
v -12.942872 7.667583 -40.522273
v -12.450414 5.625510 -40.555695
v -12.184122 3.450622 -40.573767
v -12.143996 1.198521 -40.576491
v -12.349187 -1.142087 -40.562565
v -12.793311 -3.493209 -40.532423
v -13.438066 -5.668016 -40.488665
v -14.245150 -7.487699 -40.433890
v -15.292992 -8.834397 -40.362775
v -16.572471 -9.779130 -40.275940
v -17.913964 -10.578324 -40.184896
v -19.147845 -11.458901 -40.101155
v -20.295090 -12.407841 -40.023294
v -21.424096 -13.373058 -39.946671
v -22.436372 -14.422915 -39.877970
v -23.233424 -15.625774 -39.823876
v -23.757801 -17.188352 -39.788288
v -24.072427 -19.011359 -39.766935
v -24.259379 -20.704151 -39.754247
v -24.400732 -21.876084 -39.744653
vt 0.16828640 1.00220512
vt 0.16828640 1.00068628
vt 0.16828640 0.99826699
vt 0.16828640 0.99546023
vt 0.16828640 0.99277196
vt 0.16828640 0.99024922
vt 0.16828640 0.98771305
vt 0.16828640 0.98529990
vt 0.16828640 0.98314932
vt 0.16828640 0.98127159
vt 0.16828640 0.97957591
vt 0.16828640 0.97804918
vt 0.16828640 0.97665864
vt 0.16828640 0.97513915
vt 0.16828640 0.97327156
vt 0.16828640 0.97116359
vt 0.16828640 0.96897012
vt 0.16828640 0.96670100
vt 0.16828640 0.96427322
vt 0.16828640 0.96172204
vt 0.16828640 0.95909522
vt 0.16828640 0.95636899
vt 0.16828640 0.95361752
vt 0.16828640 0.95103720
vt 0.16828640 0.94880841
vt 0.16828640 0.94696460
vt 0.16828640 0.94532629
vt 0.16828640 0.94374472
vt 0.16828640 0.94219554
vt 0.16828640 0.94066172
vt 0.16828640 0.93912866
vt 0.16828640 0.93760686
vt 0.16828640 0.93607141
vt 0.16828640 0.93427917
vt 0.16828640 0.93225250
vt 0.16828640 0.93038352
vt 0.16828640 0.92908841
vt 0.18347117 1.00583779
vt 0.18347117 1.00424151
vt 0.18347117 1.00168143
vt 0.18347117 0.99869438
vt 0.18347117 0.99581166
vt 0.18347117 0.99308884
vt 0.18347117 0.99034592
vt 0.18347117 0.98773199
vt 0.18347117 0.98539980
vt 0.18347117 0.98337024
vt 0.18347117 0.98155683
vt 0.18347117 0.97994628
vt 0.18347117 0.97849755
vt 0.18347117 0.97691855
vt 0.18347117 0.97496229
vt 0.18347117 0.97273341
vt 0.18347117 0.97039143
vt 0.18347117 0.96794866
vt 0.18347117 0.96532398
vt 0.18347117 0.96256048
vt 0.18347117 0.95971485
vt 0.18347117 0.95676935
vt 0.18347117 0.95380799
vt 0.18347117 0.95104133
vt 0.18347117 0.94866227
vt 0.18347117 0.94670997
vt 0.18347117 0.94499497
vt 0.18347117 0.94334621
vt 0.18347117 0.94173122
vt 0.18347117 0.94013225
vt 0.18347117 0.93853405
vt 0.18347117 0.93694760
vt 0.18347117 0.93534692
vt 0.18347117 0.93347854
vt 0.18347117 0.93136578
vt 0.18347117 0.92941739
vt 0.18347117 0.92806726
vt 0.19865594 1.01064503
vt 0.19865594 1.00892271
vt 0.19865594 1.00615062
vt 0.19865594 1.00290666
vt 0.19865594 0.99976381
vt 0.19865594 0.99678548
vt 0.19865594 0.99378194
vt 0.19865594 0.99091727
vt 0.19865594 0.98835968
vt 0.19865594 0.98613730
vt 0.19865594 0.98416197
vt 0.19865594 0.98242001
vt 0.19865594 0.98086367
vt 0.19865594 0.97917015
vt 0.19865594 0.97706311
vt 0.19865594 0.97465054
vt 0.19865594 0.97210274
vt 0.19865594 0.96943414
vt 0.19865594 0.96656075
vt 0.19865594 0.96353245
vt 0.19865594 0.96041404
vt 0.19865594 0.95719049
vt 0.19865594 0.95395586
vt 0.19865594 0.95093965
vt 0.19865594 0.94835192
vt 0.19865594 0.94623720
vt 0.19865594 0.94439065
vt 0.19865594 0.94261934
vt 0.19865594 0.94088430
vt 0.19865594 0.93916647
vt 0.19865594 0.93744947
vt 0.19865594 0.93574510
vt 0.19865594 0.93402544
vt 0.19865594 0.93201818
vt 0.19865594 0.92974837
vt 0.19865594 0.92765516
vt 0.19865594 0.92620467
vt 0.21384071 1.01606325
vt 0.21384071 1.01417859
vt 0.21384071 1.01114529
vt 0.21384071 1.00759569
vt 0.21384071 1.00415677
vt 0.21384071 1.00089792
vt 0.21384071 0.99761150
vt 0.21384071 0.99447705
vt 0.21384071 0.99167860
vt 0.21384071 0.98924692
vt 0.21384071 0.98708551
vt 0.21384071 0.98517938
vt 0.21384071 0.98347633
vt 0.21384071 0.98162315
vt 0.21384071 0.97931751
vt 0.21384071 0.97667759
vt 0.21384071 0.97388976
vt 0.21384071 0.97096980
vt 0.21384071 0.96782579
vt 0.21384071 0.96451229
vt 0.21384071 0.96110019
vt 0.21384071 0.95757304
vt 0.21384071 0.95403373
vt 0.21384071 0.95073339
vt 0.21384071 0.94790187
vt 0.21384071 0.94558787
vt 0.21384071 0.94356727
vt 0.21384071 0.94162897
vt 0.21384071 0.93973038
vt 0.21384071 0.93785060
vt 0.21384071 0.93597175
vt 0.21384071 0.93410670
vt 0.21384071 0.93222494
vt 0.21384071 0.93002845
vt 0.21384071 0.92754467
vt 0.21384071 0.92525413
vt 0.21384071 0.92366690
vt 0.22902548 1.02141415
vt 0.22902548 1.01934714
vt 0.22902548 1.01603164
vt 0.22902548 1.01216270
vt 0.22902548 1.00842828
vt 0.22902548 1.00490053
vt 0.22902548 1.00134656
vt 0.22902548 0.99795961
vt 0.22902548 0.99493764
vt 0.22902548 0.99230798
vt 0.22902548 0.98995890
vt 0.22902548 0.98787324
vt 0.22902548 0.98599764
vt 0.22902548 0.98395352
vt 0.22902548 0.98142057
vt 0.22902548 0.97853404
vt 0.22902548 0.97550041
vt 0.22902548 0.97233566
vt 0.22902548 0.96893493
vt 0.22902548 0.96535420
vt 0.22902548 0.96166702
vt 0.22902548 0.95785067
vt 0.22902548 0.95401409
vt 0.22902548 0.95043002
vt 0.22902548 0.94734837
vt 0.22902548 0.94481996
vt 0.22902548 0.94259943
vt 0.22902548 0.94046486
vt 0.22902548 0.93837400
vt 0.22902548 0.93630388
vt 0.22902548 0.93423477
vt 0.22902548 0.93218086
vt 0.22902548 0.93010854
vt 0.22902548 0.92768963
vt 0.22902548 0.92495433
vt 0.22902548 0.92243185
vt 0.22902548 0.92068389
vt 0.24421025 1.02609144
vt 0.24421025 1.02383973
vt 0.24421025 1.02024993
vt 0.24421025 1.01608210
vt 0.24421025 1.01208628
vt 0.24421025 1.00833330
vt 0.24421025 1.00455937
vt 0.24421025 1.00096776
vt 0.24421025 0.99776653
vt 0.24421025 0.99497273
vt 0.24421025 0.99245336
vt 0.24421025 0.99018903
vt 0.24421025 0.98812992
vt 0.24421025 0.98588051
vt 0.24421025 0.98311298
vt 0.24421025 0.97998545
vt 0.24421025 0.97672695
vt 0.24421025 0.97335244
vt 0.24421025 0.96973995
vt 0.24421025 0.96594286
vt 0.24421025 0.96203314
vt 0.24421025 0.95797687
vt 0.24421025 0.95388515
vt 0.24421025 0.95004983
vt 0.24421025 0.94673899
vt 0.24421025 0.94400290
vt 0.24421025 0.94157531
vt 0.24421025 0.93923305
vt 0.24421025 0.93693876
vt 0.24421025 0.93466721
vt 0.24421025 0.93239678
vt 0.24421025 0.93014303
vt 0.24421025 0.92786908
vt 0.24421025 0.92521482
vt 0.24421025 0.92221337
vt 0.24421025 0.91944545
vt 0.24421025 0.91752743
vt 0.25939502 1.02973426
vt 0.25939502 1.02731192
vt 0.25939502 1.02347947
vt 0.25939502 1.01905848
vt 0.25939502 1.01485657
vt 0.25939502 1.01093935
vt 0.25939502 1.00700933
vt 0.25939502 1.00327541
vt 0.25939502 0.99995097
vt 0.25939502 0.99703692
vt 0.25939502 0.99437551
vt 0.25939502 0.99194642
vt 0.25939502 0.98970840
vt 0.25939502 0.98725812
vt 0.25939502 0.98426976
vt 0.25939502 0.98092748
vt 0.25939502 0.97748330
vt 0.25939502 0.97395035
vt 0.25939502 0.97018713
vt 0.25939502 0.96624086
vt 0.25939502 0.96217792
vt 0.25939502 0.95794954
vt 0.25939502 0.95366493
vt 0.25939502 0.94963110
vt 0.25939502 0.94613082
vt 0.25939502 0.94321145
vt 0.25939502 0.94058830
vt 0.25939502 0.93804587
vt 0.25939502 0.93555552
vt 0.25939502 0.93308985
vt 0.25939502 0.93062539
vt 0.25939502 0.92817905
vt 0.25939502 0.92571077
vt 0.25939502 0.92282968
vt 0.25939502 0.91957174
vt 0.25939502 0.91656728
vt 0.25939502 0.91448534
vt 0.27457979 1.03230092
vt 0.27457979 1.02973521
vt 0.27457979 1.02570693
vt 0.27457979 1.02109044
vt 0.27457979 1.01674194
vt 0.27457979 1.01271942
vt 0.27457979 1.00869310
vt 0.27457979 1.00487367
vt 0.27457979 1.00147590
vt 0.27457979 0.99848171
vt 0.27457979 0.99570930
vt 0.27457979 0.99313955
vt 0.27457979 0.99074308
vt 0.27457979 0.98811550
vt 0.27457979 0.98493840
vt 0.27457979 0.98142127
vt 0.27457979 0.97783721
vt 0.27457979 0.97419733
vt 0.27457979 0.97034098
vt 0.27457979 0.96630739
vt 0.27457979 0.96215507
vt 0.27457979 0.95781922
vt 0.27457979 0.95340462
vt 0.27457979 0.94922903
vt 0.27457979 0.94558607
vt 0.27457979 0.94251890
vt 0.27457979 0.93972814
vt 0.27457979 0.93701127
vt 0.27457979 0.93435005
vt 0.27457979 0.93171521
vt 0.27457979 0.92908166
vt 0.27457979 0.92646746
vt 0.27457979 0.92382983
vt 0.27457979 0.92075107
vt 0.27457979 0.91726959
vt 0.27457979 0.91405899
vt 0.27457979 0.91183421
vt 0.28976456 1.03400718
vt 0.28976456 1.03133444
vt 0.28976456 1.02716359
vt 0.28976456 1.02240887
vt 0.28976456 1.01796279
vt 0.28976456 1.01387610
vt 0.28976456 1.00979301
vt 0.28976456 1.00592418
vt 0.28976456 1.00248384
vt 0.28976456 0.99943720
vt 0.28976456 0.99658342
vt 0.28976456 0.99390603
vt 0.28976456 0.99138698
vt 0.28976456 0.98862321
vt 0.28976456 0.98530378
vt 0.28976456 0.98165844
vt 0.28976456 0.97797685
vt 0.28976456 0.97426857
vt 0.28976456 0.97035752
vt 0.28976456 0.96627567
vt 0.28976456 0.96207419
vt 0.28976456 0.95767467
vt 0.28976456 0.95317727
vt 0.28976456 0.94890691
vt 0.28976456 0.94516465
vt 0.28976456 0.94198975
vt 0.28976456 0.93907238
vt 0.28976456 0.93622252
vt 0.28976456 0.93343104
vt 0.28976456 0.93066722
vt 0.28976456 0.92790477
vt 0.28976456 0.92516261
vt 0.28976456 0.92239587
vt 0.28976456 0.91916640
vt 0.28976456 0.91551452
vt 0.28976456 0.91214676
vt 0.28976456 0.90981308
vt 0.30494934 1.03516373
vt 0.30494934 1.03242572
vt 0.30494934 1.02816617
vt 0.30494934 1.02332342
vt 0.30494934 1.01881209
vt 0.30494934 1.01467907
vt 0.30494934 1.01055351
vt 0.30494934 1.00664655
vt 0.30494934 1.00317268
vt 0.30494934 1.00008785
vt 0.30494934 0.99718071
vt 0.30494934 0.99443667
vt 0.30494934 0.99184397
vt 0.30494934 0.98899892
vt 0.30494934 0.98559333
vt 0.30494934 0.98186840
vt 0.30494934 0.97812357
vt 0.30494934 0.97436772
vt 0.30494934 0.97041596
vt 0.30494934 0.96629644
vt 0.30494934 0.96205650
vt 0.30494934 0.95761014
vt 0.30494934 0.95305527
vt 0.30494934 0.94872159
vt 0.30494934 0.94491507
vt 0.30494934 0.94167296
vt 0.30494934 0.93867905
vt 0.30494934 0.93574943
vt 0.30494934 0.93287981
vt 0.30494934 0.93003864
vt 0.30494934 0.92719886
vt 0.30494934 0.92437996
vt 0.30494934 0.92153577
vt 0.30494934 0.91821592
vt 0.30494934 0.91446182
vt 0.30494934 0.91099980
vt 0.30494934 0.90860080
vt 0.32013411 1.03599432
vt 0.32013411 1.03323538
vt 0.32013411 1.02894000
vt 0.32013411 1.02405324
vt 0.32013411 1.01949663
vt 0.32013411 1.01531871
vt 0.32013411 1.01114737
vt 0.32013411 1.00719653
vt 0.32013411 1.00368358
vt 0.32013411 1.00056623
vt 0.32013411 0.99763290
vt 0.32013411 0.99486827
vt 0.32013411 0.99225880
vt 0.32013411 0.98939545
vt 0.32013411 0.98596510
vt 0.32013411 0.98220936
vt 0.32013411 0.97842928
vt 0.32013411 0.97463402
vt 0.32013411 0.97063841
vt 0.32013411 0.96647195
vt 0.32013411 0.96218362
vt 0.32013411 0.95768817
vt 0.32013411 0.95308544
vt 0.32013411 0.94870844
vt 0.32013411 0.94486607
vt 0.32013411 0.94159661
vt 0.32013411 0.93858115
vt 0.32013411 0.93563167
vt 0.32013411 0.93274260
vt 0.32013411 0.92988218
vt 0.32013411 0.92702316
vt 0.32013411 0.92418514
vt 0.32013411 0.92132169
vt 0.32013411 0.91797933
vt 0.32013411 0.91419979
vt 0.32013411 0.91071431
vt 0.32013411 0.90829905
vt 0.33531888 1.03651307
vt 0.33531888 1.03377815
vt 0.33531888 1.02950028
vt 0.33531888 1.02461363
vt 0.33531888 1.02003123
vt 0.33531888 1.01580885
vt 0.33531888 1.01158723
vt 0.33531888 1.00758542
vt 0.33531888 1.00402638
vt 0.33531888 1.00088082
vt 0.33531888 0.99794763
vt 0.33531888 0.99520845
vt 0.33531888 0.99263980
vt 0.33531888 0.98982217
vt 0.33531888 0.98642937
vt 0.33531888 0.98269201
vt 0.33531888 0.97890444
vt 0.33531888 0.97507721
vt 0.33531888 0.97103355
vt 0.33531888 0.96680966
vt 0.33531888 0.96246178
vt 0.33531888 0.95791393
vt 0.33531888 0.95327216
vt 0.33531888 0.94887132
vt 0.33531888 0.94502138
vt 0.33531888 0.94176472
vt 0.33531888 0.93878348
vt 0.33531888 0.93587504
vt 0.33531888 0.93302616
vt 0.33531888 0.93020553
vt 0.33531888 0.92738628
vt 0.33531888 0.92458775
vt 0.33531888 0.92176413
vt 0.33531888 0.91846828
vt 0.33531888 0.91474132
vt 0.33531888 0.91130432
vt 0.33531888 0.90892266
vt 0.35050365 1.03650644
vt 0.35050365 1.03383915
vt 0.35050365 1.02963446
vt 0.35050365 1.02479908
vt 0.35050365 1.02022268
vt 0.35050365 1.01597187
vt 0.35050365 1.01171185
vt 0.35050365 1.00766746
vt 0.35050365 1.00406815
vt 0.35050365 1.00090559
vt 0.35050365 0.99799869
vt 0.35050365 0.99532604
vt 0.35050365 0.99284911
vt 0.35050365 0.99013514
vt 0.35050365 0.98683875
vt 0.35050365 0.98316990
vt 0.35050365 0.97940912
vt 0.35050365 0.97556943
vt 0.35050365 0.97148968
vt 0.35050365 0.96721657
vt 0.35050365 0.96281738
vt 0.35050365 0.95823192
vt 0.35050365 0.95357509
vt 0.35050365 0.94918127
vt 0.35050365 0.94535893
vt 0.35050365 0.94215674
vt 0.35050365 0.93926225
vt 0.35050365 0.93645089
vt 0.35050365 0.93369712
vt 0.35050365 0.93097066
vt 0.35050365 0.92824552
vt 0.35050365 0.92554041
vt 0.35050365 0.92281105
vt 0.35050365 0.91962522
vt 0.35050365 0.91602268
vt 0.35050365 0.91270043
vt 0.35050365 0.91039827
vn -0.993316 -0.083603 0.079592
vn -0.993319 -0.083561 0.079592
vn -0.995194 -0.056825 0.079742
vn -0.996639 0.018252 0.079858
vn -0.986437 0.143854 0.079041
vn -0.960054 0.269032 0.076927
vn -0.929007 0.362499 0.074439
vn -0.887507 0.455273 0.071114
vn -0.811554 0.580648 0.065028
vn -0.662788 0.746922 0.053107
vn -0.437622 0.898475 0.035066
vn -0.139990 0.990089 0.011217
vn 0.244197 0.969528 -0.019567
vn 0.562163 0.825799 -0.045045
vn 0.737204 0.673084 -0.059070
vn 0.845796 0.529185 -0.067771
vn 0.920837 0.382905 -0.073784
vn 0.964309 0.253253 -0.077268
vn 0.985587 0.149605 -0.078973
vn 0.995122 0.058081 -0.079737
vn 0.996349 -0.030266 -0.079835
vn 0.990037 -0.116337 -0.079329
vn 0.976574 -0.200448 -0.078250
vn 0.951978 -0.296512 -0.076280
vn 0.890427 -0.449499 -0.071348
vn 0.747226 -0.661868 -0.059873
vn 0.598924 -0.799367 -0.047990
vn 0.588189 -0.807349 -0.047130
vn 0.650378 -0.757821 -0.052113
vn 0.683610 -0.727789 -0.054776
vn 0.723296 -0.688102 -0.057956
vn 0.810183 -0.582571 -0.064918
vn 0.916919 -0.392252 -0.073470
vn 0.973288 -0.215936 -0.077987
vn 0.988823 -0.126295 -0.079232
vn 0.991633 -0.101742 -0.079457
vn 0.996805 0.000000 -0.079871
vn -0.993453 -0.082926 0.078581
vn -0.993485 -0.082537 0.078584
vn -0.995333 -0.055810 0.078730
vn -0.996728 0.017811 0.078840
vn -0.987155 0.139382 0.078083
vn -0.962721 0.259557 0.076150
vn -0.934164 0.349111 0.073892
vn -0.896247 0.437853 0.070892
vn -0.826702 0.558828 0.065391
vn -0.687896 0.723767 0.054412
vn -0.470607 0.881557 0.037225
vn -0.171517 0.985088 0.013567
vn 0.228644 0.973342 -0.018086
vn 0.562610 0.825524 -0.044502
vn 0.742997 0.666710 -0.058770
vn 0.852001 0.519184 -0.067393
vn 0.925234 0.372270 -0.073185
vn 0.966584 0.244685 -0.076456
vn 0.986481 0.144104 -0.078030
vn 0.995328 0.055891 -0.078730
vn 0.996462 -0.029163 -0.078819
vn 0.990562 -0.112462 -0.078353
vn 0.977848 -0.194500 -0.077347
vn 0.954387 -0.288872 -0.075491
vn 0.894927 -0.440562 -0.070788
vn 0.752934 -0.655396 -0.059556
vn 0.601054 -0.797793 -0.047543
vn 0.588237 -0.807349 -0.046529
vn 0.650431 -0.757821 -0.051449
vn 0.683666 -0.727789 -0.054077
vn 0.723354 -0.688102 -0.057217
vn 0.810249 -0.582571 -0.064090
vn 0.916993 -0.392252 -0.072533
vn 0.973367 -0.215936 -0.076993
vn 0.988904 -0.126295 -0.078221
vn 0.991713 -0.101742 -0.078444
vn 0.996886 0.000000 -0.078853
vn -0.993562 -0.082570 0.077569
vn -0.993609 -0.082002 0.077573
vn -0.995441 -0.055285 0.077716
vn -0.996812 0.017585 0.077823
vn -0.987550 0.137114 0.077100
vn -0.964066 0.254777 0.075267
vn -0.936718 0.342360 0.073132
vn -0.900535 0.429061 0.070307
vn -0.834114 0.547734 0.065121
vn -0.700340 0.711712 0.054677
vn -0.487403 0.872348 0.038053
vn -0.188083 0.982043 0.014684
vn 0.220307 0.975279 -0.017200
vn 0.562869 0.825377 -0.043944
vn 0.746039 0.663350 -0.058245
vn 0.855193 0.513991 -0.066767
vn 0.927464 0.366834 -0.072409
vn 0.967741 0.240354 -0.075554
vn 0.986958 0.141339 -0.077054
vn 0.995469 0.054792 -0.077718
vn 0.996558 -0.028608 -0.077803
vn 0.990860 -0.110505 -0.077359
vn 0.978520 -0.191476 -0.076395
vn 0.955631 -0.284961 -0.074608
vn 0.897247 -0.435936 -0.070050
vn 0.755931 -0.651986 -0.059017
vn 0.602204 -0.796957 -0.047015
vn 0.588284 -0.807349 -0.045929
vn 0.650484 -0.757821 -0.050785
vn 0.683721 -0.727789 -0.053380
vn 0.723412 -0.688102 -0.056478
vn 0.810314 -0.582571 -0.063263
vn 0.917067 -0.392252 -0.071597
vn 0.973445 -0.215936 -0.075999
vn 0.988983 -0.126295 -0.077212
vn 0.991793 -0.101742 -0.077431
vn 0.996966 0.000000 -0.077835
vn -0.993640 -0.082572 0.076556
vn -0.993687 -0.082005 0.076560
vn -0.995520 -0.055287 0.076701
vn -0.996891 0.017586 0.076807
vn -0.987627 0.137124 0.076093
vn -0.964137 0.254797 0.074283
vn -0.936782 0.342389 0.072176
vn -0.900589 0.429098 0.069387
vn -0.834150 0.547781 0.064268
vn -0.700344 0.711763 0.053959
vn -0.487371 0.872387 0.037550
vn -0.188028 0.982057 0.014487
vn 0.220361 0.975271 -0.016978
vn 0.562912 0.825378 -0.043370
vn 0.746085 0.663364 -0.057483
vn 0.855248 0.514013 -0.065894
vn 0.927528 0.366857 -0.071463
vn 0.967813 0.240372 -0.074566
vn 0.987034 0.141351 -0.076047
vn 0.995547 0.054797 -0.076703
vn 0.996637 -0.028611 -0.076787
vn 0.990938 -0.110513 -0.076348
vn 0.978595 -0.191489 -0.075397
vn 0.955702 -0.284978 -0.073633
vn 0.897309 -0.435955 -0.069134
vn 0.755978 -0.652001 -0.058245
vn 0.602247 -0.796960 -0.046401
vn 0.588330 -0.807349 -0.045329
vn 0.650535 -0.757821 -0.050121
vn 0.683775 -0.727789 -0.052682
vn 0.723470 -0.688102 -0.055741
vn 0.810378 -0.582571 -0.062437
vn 0.917140 -0.392252 -0.070662
vn 0.973522 -0.215936 -0.075006
vn 0.989061 -0.126295 -0.076203
vn 0.991871 -0.101742 -0.076420
vn 0.997045 0.000000 -0.076819
vn -0.993690 -0.082911 0.075542
vn -0.993723 -0.082514 0.075544
vn -0.995570 -0.055788 0.075685
vn -0.996965 0.017802 0.075791
vn -0.987403 0.139286 0.075064
vn -0.963003 0.259356 0.073209
vn -0.934491 0.348826 0.071042
vn -0.896640 0.437482 0.068164
vn -0.827211 0.558361 0.062886
vn -0.688585 0.723263 0.052347
vn -0.471424 0.881178 0.035838
vn -0.172247 0.984967 0.013095
vn 0.228353 0.973424 -0.017360
vn 0.562753 0.825517 -0.042781
vn 0.743297 0.666570 -0.056507
vn 0.852335 0.518967 -0.064796
vn 0.925545 0.372042 -0.070361
vn 0.966859 0.244502 -0.073502
vn 0.986732 0.143988 -0.075013
vn 0.995567 0.055845 -0.075685
vn 0.996699 -0.029139 -0.075771
vn 0.990806 -0.112380 -0.075323
vn 0.978105 -0.194373 -0.074357
vn 0.954662 -0.288708 -0.072575
vn 0.895234 -0.440368 -0.068057
vn 0.753235 -0.655254 -0.057262
vn 0.601242 -0.797758 -0.045707
vn 0.588376 -0.807349 -0.044729
vn 0.650586 -0.757821 -0.049459
vn 0.683828 -0.727789 -0.051986
vn 0.723526 -0.688102 -0.055004
vn 0.810442 -0.582571 -0.061611
vn 0.917211 -0.392252 -0.069728
vn 0.973598 -0.215936 -0.074015
vn 0.989139 -0.126295 -0.075196
vn 0.991949 -0.101742 -0.075410
vn 0.997123 0.000000 -0.075803
vn -0.993716 -0.083515 0.074527
vn -0.993723 -0.083428 0.074527
vn -0.995596 -0.056694 0.074668
vn -0.997034 0.018194 0.074776
vn -0.986912 0.143266 0.074017
vn -0.960781 0.267785 0.072057
vn -0.930056 0.360735 0.069753
vn -0.889024 0.452980 0.066675
vn -0.813901 0.577788 0.061041
vn -0.666386 0.743930 0.049978
vn -0.442112 0.896347 0.033158
vn -0.144101 0.989504 0.010807
vn 0.242313 0.970028 -0.018173
vn 0.562437 0.825763 -0.042182
vn 0.738237 0.672265 -0.055366
vn 0.846935 0.527889 -0.063519
vn 0.921774 0.381515 -0.069131
vn 0.964984 0.252126 -0.072372
vn 0.986086 0.148879 -0.073955
vn 0.995533 0.057792 -0.074663
vn 0.996747 -0.030120 -0.074754
vn 0.990488 -0.115827 -0.074285
vn 0.977120 -0.199668 -0.073282
vn 0.952663 -0.295514 -0.071448
vn 0.891360 -0.448339 -0.066850
vn 0.748252 -0.661036 -0.056118
vn 0.599428 -0.799165 -0.044956
vn 0.588421 -0.807349 -0.044131
vn 0.650636 -0.757821 -0.048797
vn 0.683881 -0.727789 -0.051290
vn 0.723582 -0.688102 -0.054267
vn 0.810504 -0.582571 -0.060786
vn 0.917282 -0.392252 -0.068794
vn 0.973673 -0.215936 -0.073024
vn 0.989215 -0.126295 -0.074189
vn 0.992025 -0.101742 -0.074400
vn 0.997199 0.000000 -0.074788
vn -0.993728 -0.084267 0.073512
vn -0.993702 -0.084574 0.073510
vn -0.995605 -0.057842 0.073651
vn -0.997101 0.018699 0.073762
vn -0.986225 0.148453 0.072957
vn -0.957720 0.278842 0.070848
vn -0.923945 0.376368 0.068350
vn -0.878508 0.473286 0.064989
vn -0.795594 0.602964 0.058855
vn -0.636530 0.769814 0.047088
vn -0.404189 0.914187 0.029900
vn -0.109174 0.993990 0.008076
vn 0.259190 0.965636 -0.019174
vn 0.562040 0.826064 -0.041577
vn 0.731850 0.679311 -0.054139
vn 0.839916 0.539148 -0.062134
vn 0.916725 0.393722 -0.067816
vn 0.962410 0.262102 -0.071195
vn 0.985171 0.155331 -0.072879
vn 0.995456 0.060368 -0.073640
vn 0.996783 -0.031414 -0.073738
vn 0.990027 -0.120342 -0.073238
vn 0.975771 -0.206544 -0.072184
vn 0.949990 -0.304269 -0.070276
vn 0.886303 -0.458441 -0.065565
vn 0.741957 -0.668197 -0.054887
vn 0.597183 -0.800888 -0.044177
vn 0.588466 -0.807349 -0.043532
vn 0.650685 -0.757821 -0.048135
vn 0.683932 -0.727789 -0.050595
vn 0.723636 -0.688102 -0.053532
vn 0.810565 -0.582571 -0.059962
vn 0.917351 -0.392252 -0.067862
vn 0.973747 -0.215936 -0.072034
vn 0.989289 -0.126295 -0.073184
vn 0.992100 -0.101742 -0.073392
vn 0.997275 0.000000 -0.073774
vn -0.993738 -0.085017 0.072498
vn -0.993678 -0.085728 0.072494
vn -0.995611 -0.059013 0.072635
vn -0.997165 0.019221 0.072748
vn -0.985466 0.153908 0.071895
vn -0.954322 0.290555 0.069623
vn -0.917130 0.392933 0.066909
vn -0.866739 0.494738 0.063233
vn -0.775203 0.629175 0.056555
vn -0.604168 0.795637 0.044077
vn -0.364875 0.930676 0.026619
vn -0.074553 0.997202 0.005439
vn 0.275498 0.961091 -0.020099
vn 0.561651 0.826359 -0.040975
vn 0.725394 0.686296 -0.052921
vn 0.832588 0.550552 -0.060741
vn 0.911279 0.406387 -0.066482
vn 0.959566 0.272640 -0.070005
vn 0.984141 0.162209 -0.071798
vn 0.995360 0.063123 -0.072616
vn 0.996813 -0.032794 -0.072722
vn 0.989512 -0.125117 -0.072190
vn 0.974300 -0.213744 -0.071080
vn 0.947125 -0.313336 -0.069097
vn 0.881002 -0.468726 -0.064273
vn 0.735586 -0.675302 -0.053665
vn 0.594969 -0.802576 -0.043406
vn 0.588510 -0.807349 -0.042935
vn 0.650734 -0.757821 -0.047474
vn 0.683983 -0.727789 -0.049900
vn 0.723690 -0.688102 -0.052797
vn 0.810626 -0.582571 -0.059139
vn 0.917419 -0.392252 -0.066930
vn 0.973819 -0.215936 -0.071045
vn 0.989363 -0.126295 -0.072179
vn 0.992174 -0.101742 -0.072384
vn 0.997349 0.000000 -0.072762
vn -0.993761 -0.085607 0.071486
vn -0.993672 -0.086645 0.071480
vn -0.995628 -0.059955 0.071621
vn -0.997230 0.019647 0.071736
vn -0.984827 0.158419 0.070844
vn -0.951384 0.300307 0.068438
vn -0.911198 0.406720 0.065547
vn -0.856458 0.512527 0.061609
vn -0.757484 0.650576 0.054490
vn -0.576789 0.815839 0.041491
vn -0.332951 0.942640 0.023951
vn -0.047501 0.998865 0.003417
vn 0.287992 0.957409 -0.020717
vn 0.561357 0.826588 -0.040381
vn 0.720258 0.691769 -0.051812
vn 0.826586 0.559660 -0.059461
vn 0.906689 0.416726 -0.065223
vn 0.957120 0.281390 -0.068851
vn 0.983251 0.167973 -0.070730
vn 0.995285 0.065440 -0.071596
vn 0.996848 -0.033950 -0.071708
vn 0.989077 -0.129088 -0.071149
vn 0.973059 -0.219675 -0.069997
vn 0.944730 -0.320728 -0.067959
vn 0.876649 -0.476981 -0.063062
vn 0.730513 -0.680873 -0.052550
vn 0.593251 -0.803886 -0.042676
vn 0.588553 -0.807349 -0.042338
vn 0.650781 -0.757821 -0.046814
vn 0.684034 -0.727789 -0.049206
vn 0.723744 -0.688102 -0.052063
vn 0.810685 -0.582571 -0.058317
vn 0.917487 -0.392252 -0.066000
vn 0.973891 -0.215936 -0.070057
vn 0.989436 -0.126295 -0.071175
vn 0.992247 -0.101742 -0.071377
vn 0.997423 0.000000 -0.071750
vn -0.993807 -0.085905 0.070477
vn -0.993703 -0.087110 0.070470
vn -0.995671 -0.060436 0.070610
vn -0.997298 0.019866 0.070725
vn -0.984519 0.160773 0.069819
vn -0.949834 0.305415 0.067359
vn -0.908024 0.413940 0.064394
vn -0.850923 0.521813 0.060344
vn -0.747964 0.661616 0.053043
vn -0.562343 0.825942 0.039879
vn -0.316560 0.948307 0.022449
vn -0.033943 0.999421 0.002407
vn 0.294191 0.955519 -0.020863
vn 0.561230 0.826702 -0.039800
vn 0.717670 0.694521 -0.050895
vn 0.823503 0.564298 -0.058400
vn 0.904292 0.422070 -0.064129
vn 0.955839 0.285967 -0.067785
vn 0.982802 0.171007 -0.069697
vn 0.995276 0.066662 -0.070582
vn 0.996899 -0.034559 -0.070697
vn 0.988877 -0.131167 -0.070128
vn 0.972431 -0.222760 -0.068961
vn 0.943500 -0.324546 -0.066910
vn 0.874416 -0.481198 -0.062011
vn 0.727957 -0.683677 -0.051624
vn 0.592410 -0.804540 -0.042012
vn 0.588596 -0.807349 -0.041741
vn 0.650828 -0.757821 -0.046154
vn 0.684083 -0.727789 -0.048513
vn 0.723796 -0.688102 -0.051329
vn 0.810744 -0.582571 -0.057495
vn 0.917553 -0.392252 -0.065070
vn 0.973961 -0.215936 -0.069070
vn 0.989508 -0.126295 -0.070172
vn 0.992319 -0.101742 -0.070372
vn 0.997495 0.000000 -0.070739
vn -0.993885 -0.085832 0.069472
vn -0.993784 -0.086995 0.069465
vn -0.995750 -0.060317 0.069602
vn -0.997370 0.019812 0.069715
vn -0.984684 0.160186 0.068829
vn -0.950309 0.304140 0.066426
vn -0.908904 0.412137 0.063532
vn -0.852393 0.519497 0.059581
vn -0.750425 0.658871 0.052454
vn -0.566007 0.823450 0.039563
vn -0.320660 0.946929 0.022414
vn -0.037293 0.999301 0.002607
vn 0.292691 0.955988 -0.020459
vn 0.561311 0.826674 -0.039235
vn 0.718375 0.693841 -0.050214
vn 0.824344 0.563149 -0.057621
vn 0.904973 0.420740 -0.063257
vn 0.956246 0.284824 -0.066841
vn 0.983003 0.170248 -0.068711
vn 0.995367 0.066356 -0.069575
vn 0.996975 -0.034407 -0.069688
vn 0.989016 -0.130648 -0.069131
vn 0.972675 -0.221991 -0.067989
vn 0.943892 -0.323596 -0.065977
vn 0.875050 -0.480152 -0.061165
vn 0.728656 -0.682984 -0.050932
vn 0.592670 -0.804379 -0.041427
vn 0.588638 -0.807349 -0.041145
vn 0.650875 -0.757821 -0.045496
vn 0.684132 -0.727789 -0.047820
vn 0.723848 -0.688102 -0.050596
vn 0.810802 -0.582571 -0.056674
vn 0.917619 -0.392252 -0.064141
vn 0.974031 -0.215936 -0.068084
vn 0.989578 -0.126295 -0.069171
vn 0.992389 -0.101742 -0.069367
vn 0.997566 0.000000 -0.069729
vn -0.993993 -0.085381 0.068469
vn -0.993915 -0.086292 0.068464
vn -0.995863 -0.059592 0.068598
vn -0.997447 0.019482 0.068707
vn -0.985317 0.156667 0.067871
vn -0.952772 0.296511 0.065630
vn -0.913757 0.401355 0.062942
vn -0.860721 0.505612 0.059289
vn -0.764645 0.642295 0.052671
vn -0.587628 0.808118 0.040477
vn -0.345367 0.938166 0.023790
vn -0.057859 0.998317 0.003985
vn 0.283308 0.958830 -0.019515
vn 0.561605 0.826501 -0.038685
vn 0.722408 0.689674 -0.049762
vn 0.829114 0.556155 -0.057112
vn 0.908703 0.412724 -0.062594
vn 0.958314 0.277987 -0.066011
vn 0.983841 0.165726 -0.067770
vn 0.995556 0.064535 -0.068577
vn 0.997076 -0.033499 -0.068681
vn 0.989488 -0.127543 -0.068159
vn 0.973781 -0.217373 -0.067077
vn 0.945894 -0.317868 -0.065156
vn 0.878551 -0.473800 -0.060517
vn 0.732642 -0.678740 -0.050466
vn 0.594051 -0.803386 -0.040920
vn 0.588679 -0.807349 -0.040550
vn 0.650921 -0.757821 -0.044837
vn 0.684180 -0.727789 -0.047128
vn 0.723898 -0.688102 -0.049864
vn 0.810859 -0.582571 -0.055854
vn 0.917683 -0.392252 -0.063213
vn 0.974099 -0.215936 -0.067099
vn 0.989648 -0.126295 -0.068170
vn 0.992459 -0.101742 -0.068363
vn 0.997636 0.000000 -0.068720
vn -0.994126 -0.084623 0.067469
vn -0.994084 -0.085121 0.067466
vn -0.996002 -0.058395 0.067596
vn -0.997526 0.018944 0.067700
vn -0.986264 0.151007 0.066936
vn -0.956530 0.284315 0.064918
vn -0.921169 0.384109 0.062518
vn -0.873435 0.483319 0.059278
vn -0.786503 0.615276 0.053378
vn -0.621736 0.782089 0.042196
vn -0.385849 0.922190 0.026187
vn -0.092736 0.995671 0.006294
vn 0.267104 0.963497 -0.018128
vn 0.562076 0.826205 -0.038147
vn 0.729084 0.682634 -0.049481
vn 0.836809 0.544541 -0.056792
vn 0.914554 0.399673 -0.062069
vn 0.961476 0.267030 -0.065253
vn 0.985087 0.158539 -0.066856
vn 0.995807 0.061652 -0.067583
vn 0.997192 -0.032057 -0.067677
vn 0.990182 -0.122574 -0.067201
vn 0.975475 -0.209919 -0.066203
vn 0.949031 -0.308532 -0.064409
vn 0.884168 -0.463299 -0.060007
vn 0.739236 -0.671576 -0.050170
vn 0.596364 -0.801693 -0.040474
vn 0.588720 -0.807349 -0.039955
vn 0.650965 -0.757821 -0.044180
vn 0.684227 -0.727789 -0.046437
vn 0.723948 -0.688102 -0.049133
vn 0.810915 -0.582571 -0.055035
vn 0.917746 -0.392252 -0.062285
vn 0.974167 -0.215936 -0.066115
vn 0.989716 -0.126295 -0.067170
vn 0.992528 -0.101742 -0.067361
vn 0.997705 0.000000 -0.067712
f 1/1/1 38/38/38 39/39/39
f 1/1/1 39/39/39 2/2/2
f 2/2/2 39/39/39 40/40/40
f 2/2/2 40/40/40 3/3/3
f 3/3/3 40/40/40 41/41/41
f 3/3/3 41/41/41 4/4/4
f 4/4/4 41/41/41 42/42/42
f 4/4/4 42/42/42 5/5/5
f 5/5/5 42/42/42 43/43/43
f 5/5/5 43/43/43 6/6/6
f 6/6/6 43/43/43 44/44/44
f 6/6/6 44/44/44 7/7/7
f 7/7/7 44/44/44 45/45/45
f 7/7/7 45/45/45 8/8/8
f 8/8/8 45/45/45 46/46/46
f 8/8/8 46/46/46 9/9/9
f 9/9/9 46/46/46 47/47/47
f 9/9/9 47/47/47 10/10/10
f 10/10/10 47/47/47 48/48/48
f 10/10/10 48/48/48 11/11/11
f 11/11/11 48/48/48 49/49/49
f 11/11/11 49/49/49 12/12/12
f 12/12/12 49/49/49 50/50/50
f 12/12/12 50/50/50 13/13/13
f 13/13/13 50/50/50 51/51/51
f 13/13/13 51/51/51 14/14/14
f 14/14/14 51/51/51 52/52/52
f 14/14/14 52/52/52 15/15/15
f 15/15/15 52/52/52 53/53/53
f 15/15/15 53/53/53 16/16/16
f 16/16/16 53/53/53 54/54/54
f 16/16/16 54/54/54 17/17/17
f 17/17/17 54/54/54 55/55/55
f 17/17/17 55/55/55 18/18/18
f 18/18/18 55/55/55 56/56/56
f 18/18/18 56/56/56 19/19/19
f 19/19/19 56/56/56 57/57/57
f 19/19/19 57/57/57 20/20/20
f 20/20/20 57/57/57 58/58/58
f 20/20/20 58/58/58 21/21/21
f 21/21/21 58/58/58 59/59/59
f 21/21/21 59/59/59 22/22/22
f 22/22/22 59/59/59 60/60/60
f 22/22/22 60/60/60 23/23/23
f 23/23/23 60/60/60 61/61/61
f 23/23/23 61/61/61 24/24/24
f 24/24/24 61/61/61 62/62/62
f 24/24/24 62/62/62 25/25/25
f 25/25/25 62/62/62 63/63/63
f 25/25/25 63/63/63 26/26/26
f 26/26/26 63/63/63 64/64/64
f 26/26/26 64/64/64 27/27/27
f 27/27/27 64/64/64 65/65/65
f 27/27/27 65/65/65 28/28/28
f 28/28/28 65/65/65 66/66/66
f 28/28/28 66/66/66 29/29/29
f 29/29/29 66/66/66 67/67/67
f 29/29/29 67/67/67 30/30/30
f 30/30/30 67/67/67 68/68/68
f 30/30/30 68/68/68 31/31/31
f 31/31/31 68/68/68 69/69/69
f 31/31/31 69/69/69 32/32/32
f 32/32/32 69/69/69 70/70/70
f 32/32/32 70/70/70 33/33/33
f 33/33/33 70/70/70 71/71/71
f 33/33/33 71/71/71 34/34/34
f 34/34/34 71/71/71 72/72/72
f 34/34/34 72/72/72 35/35/35
f 35/35/35 72/72/72 73/73/73
f 35/35/35 73/73/73 36/36/36
f 36/36/36 73/73/73 74/74/74
f 36/36/36 74/74/74 37/37/37
f 38/38/38 75/75/75 76/76/76
f 38/38/38 76/76/76 39/39/39
f 39/39/39 76/76/76 77/77/77
f 39/39/39 77/77/77 40/40/40
f 40/40/40 77/77/77 78/78/78
f 40/40/40 78/78/78 41/41/41
f 41/41/41 78/78/78 79/79/79
f 41/41/41 79/79/79 42/42/42
f 42/42/42 79/79/79 80/80/80
f 42/42/42 80/80/80 43/43/43
f 43/43/43 80/80/80 81/81/81
f 43/43/43 81/81/81 44/44/44
f 44/44/44 81/81/81 82/82/82
f 44/44/44 82/82/82 45/45/45
f 45/45/45 82/82/82 83/83/83
f 45/45/45 83/83/83 46/46/46
f 46/46/46 83/83/83 84/84/84
f 46/46/46 84/84/84 47/47/47
f 47/47/47 84/84/84 85/85/85
f 47/47/47 85/85/85 48/48/48
f 48/48/48 85/85/85 86/86/86
f 48/48/48 86/86/86 49/49/49
f 49/49/49 86/86/86 87/87/87
f 49/49/49 87/87/87 50/50/50
f 50/50/50 87/87/87 88/88/88
f 50/50/50 88/88/88 51/51/51
f 51/51/51 88/88/88 89/89/89
f 51/51/51 89/89/89 52/52/52
f 52/52/52 89/89/89 90/90/90
f 52/52/52 90/90/90 53/53/53
f 53/53/53 90/90/90 91/91/91
f 53/53/53 91/91/91 54/54/54
f 54/54/54 91/91/91 92/92/92
f 54/54/54 92/92/92 55/55/55
f 55/55/55 92/92/92 93/93/93
f 55/55/55 93/93/93 56/56/56
f 56/56/56 93/93/93 94/94/94
f 56/56/56 94/94/94 57/57/57
f 57/57/57 94/94/94 95/95/95
f 57/57/57 95/95/95 58/58/58
f 58/58/58 95/95/95 96/96/96
f 58/58/58 96/96/96 59/59/59
f 59/59/59 96/96/96 97/97/97
f 59/59/59 97/97/97 60/60/60
f 60/60/60 97/97/97 98/98/98
f 60/60/60 98/98/98 61/61/61
f 61/61/61 98/98/98 99/99/99
f 61/61/61 99/99/99 62/62/62
f 62/62/62 99/99/99 100/100/100
f 62/62/62 100/100/100 63/63/63
f 63/63/63 100/100/100 101/101/101
f 63/63/63 101/101/101 64/64/64
f 64/64/64 101/101/101 102/102/102
f 64/64/64 102/102/102 65/65/65
f 65/65/65 102/102/102 103/103/103
f 65/65/65 103/103/103 66/66/66
f 66/66/66 103/103/103 104/104/104
f 66/66/66 104/104/104 67/67/67
f 67/67/67 104/104/104 105/105/105
f 67/67/67 105/105/105 68/68/68
f 68/68/68 105/105/105 106/106/106
f 68/68/68 106/106/106 69/69/69
f 69/69/69 106/106/106 107/107/107
f 69/69/69 107/107/107 70/70/70
f 70/70/70 107/107/107 108/108/108
f 70/70/70 108/108/108 71/71/71
f 71/71/71 108/108/108 109/109/109
f 71/71/71 109/109/109 72/72/72
f 72/72/72 109/109/109 110/110/110
f 72/72/72 110/110/110 73/73/73
f 73/73/73 110/110/110 111/111/111
f 73/73/73 111/111/111 74/74/74
f 75/75/75 112/112/112 113/113/113
f 75/75/75 113/113/113 76/76/76
f 76/76/76 113/113/113 114/114/114
f 76/76/76 114/114/114 77/77/77
f 77/77/77 114/114/114 115/115/115
f 77/77/77 115/115/115 78/78/78
f 78/78/78 115/115/115 116/116/116
f 78/78/78 116/116/116 79/79/79
f 79/79/79 116/116/116 117/117/117
f 79/79/79 117/117/117 80/80/80
f 80/80/80 117/117/117 118/118/118
f 80/80/80 118/118/118 81/81/81
f 81/81/81 118/118/118 119/119/119
f 81/81/81 119/119/119 82/82/82
f 82/82/82 119/119/119 120/120/120
f 82/82/82 120/120/120 83/83/83
f 83/83/83 120/120/120 121/121/121
f 83/83/83 121/121/121 84/84/84
f 84/84/84 121/121/121 122/122/122
f 84/84/84 122/122/122 85/85/85
f 85/85/85 122/122/122 123/123/123
f 85/85/85 123/123/123 86/86/86
f 86/86/86 123/123/123 124/124/124
f 86/86/86 124/124/124 87/87/87
f 87/87/87 124/124/124 125/125/125
f 87/87/87 125/125/125 88/88/88
f 88/88/88 125/125/125 126/126/126
f 88/88/88 126/126/126 89/89/89
f 89/89/89 126/126/126 127/127/127
f 89/89/89 127/127/127 90/90/90
f 90/90/90 127/127/127 128/128/128
f 90/90/90 128/128/128 91/91/91
f 91/91/91 128/128/128 129/129/129
f 91/91/91 129/129/129 92/92/92
f 92/92/92 129/129/129 130/130/130
f 92/92/92 130/130/130 93/93/93
f 93/93/93 130/130/130 131/131/131
f 93/93/93 131/131/131 94/94/94
f 94/94/94 131/131/131 132/132/132
f 94/94/94 132/132/132 95/95/95
f 95/95/95 132/132/132 133/133/133
f 95/95/95 133/133/133 96/96/96
f 96/96/96 133/133/133 134/134/134
f 96/96/96 134/134/134 97/97/97
f 97/97/97 134/134/134 135/135/135
f 97/97/97 135/135/135 98/98/98
f 98/98/98 135/135/135 136/136/136
f 98/98/98 136/136/136 99/99/99
f 99/99/99 136/136/136 137/137/137
f 99/99/99 137/137/137 100/100/100
f 100/100/100 137/137/137 138/138/138
f 100/100/100 138/138/138 101/101/101
f 101/101/101 138/138/138 139/139/139
f 101/101/101 139/139/139 102/102/102
f 102/102/102 139/139/139 140/140/140
f 102/102/102 140/140/140 103/103/103
f 103/103/103 140/140/140 141/141/141
f 103/103/103 141/141/141 104/104/104
f 104/104/104 141/141/141 142/142/142
f 104/104/104 142/142/142 105/105/105
f 105/105/105 142/142/142 143/143/143
f 105/105/105 143/143/143 106/106/106
f 106/106/106 143/143/143 144/144/144
f 106/106/106 144/144/144 107/107/107
f 107/107/107 144/144/144 145/145/145
f 107/107/107 145/145/145 108/108/108
f 108/108/108 145/145/145 146/146/146
f 108/108/108 146/146/146 109/109/109
f 109/109/109 146/146/146 147/147/147
f 109/109/109 147/147/147 110/110/110
f 110/110/110 147/147/147 148/148/148
f 110/110/110 148/148/148 111/111/111
f 112/112/112 149/149/149 150/150/150
f 112/112/112 150/150/150 113/113/113
f 113/113/113 150/150/150 151/151/151
f 113/113/113 151/151/151 114/114/114
f 114/114/114 151/151/151 152/152/152
f 114/114/114 152/152/152 115/115/115
f 115/115/115 152/152/152 153/153/153
f 115/115/115 153/153/153 116/116/116
f 116/116/116 153/153/153 154/154/154
f 116/116/116 154/154/154 117/117/117
f 117/117/117 154/154/154 155/155/155
f 117/117/117 155/155/155 118/118/118
f 118/118/118 155/155/155 156/156/156
f 118/118/118 156/156/156 119/119/119
f 119/119/119 156/156/156 157/157/157
f 119/119/119 157/157/157 120/120/120
f 120/120/120 157/157/157 158/158/158
f 120/120/120 158/158/158 121/121/121
f 121/121/121 158/158/158 159/159/159
f 121/121/121 159/159/159 122/122/122
f 122/122/122 159/159/159 160/160/160
f 122/122/122 160/160/160 123/123/123
f 123/123/123 160/160/160 161/161/161
f 123/123/123 161/161/161 124/124/124
f 124/124/124 161/161/161 162/162/162
f 124/124/124 162/162/162 125/125/125
f 125/125/125 162/162/162 163/163/163
f 125/125/125 163/163/163 126/126/126
f 126/126/126 163/163/163 164/164/164
f 126/126/126 164/164/164 127/127/127
f 127/127/127 164/164/164 165/165/165
f 127/127/127 165/165/165 128/128/128
f 128/128/128 165/165/165 166/166/166
f 128/128/128 166/166/166 129/129/129
f 129/129/129 166/166/166 167/167/167
f 129/129/129 167/167/167 130/130/130
f 130/130/130 167/167/167 168/168/168
f 130/130/130 168/168/168 131/131/131
f 131/131/131 168/168/168 169/169/169
f 131/131/131 169/169/169 132/132/132
f 132/132/132 169/169/169 170/170/170
f 132/132/132 170/170/170 133/133/133
f 133/133/133 170/170/170 171/171/171
f 133/133/133 171/171/171 134/134/134
f 134/134/134 171/171/171 172/172/172
f 134/134/134 172/172/172 135/135/135
f 135/135/135 172/172/172 173/173/173
f 135/135/135 173/173/173 136/136/136
f 136/136/136 173/173/173 174/174/174
f 136/136/136 174/174/174 137/137/137
f 137/137/137 174/174/174 175/175/175
f 137/137/137 175/175/175 138/138/138
f 138/138/138 175/175/175 176/176/176
f 138/138/138 176/176/176 139/139/139
f 139/139/139 176/176/176 177/177/177
f 139/139/139 177/177/177 140/140/140
f 140/140/140 177/177/177 178/178/178
f 140/140/140 178/178/178 141/141/141
f 141/141/141 178/178/178 179/179/179
f 141/141/141 179/179/179 142/142/142
f 142/142/142 179/179/179 180/180/180
f 142/142/142 180/180/180 143/143/143
f 143/143/143 180/180/180 181/181/181
f 143/143/143 181/181/181 144/144/144
f 144/144/144 181/181/181 182/182/182
f 144/144/144 182/182/182 145/145/145
f 145/145/145 182/182/182 183/183/183
f 145/145/145 183/183/183 146/146/146
f 146/146/146 183/183/183 184/184/184
f 146/146/146 184/184/184 147/147/147
f 147/147/147 184/184/184 185/185/185
f 147/147/147 185/185/185 148/148/148
f 149/149/149 186/186/186 187/187/187
f 149/149/149 187/187/187 150/150/150
f 150/150/150 187/187/187 188/188/188
f 150/150/150 188/188/188 151/151/151
f 151/151/151 188/188/188 189/189/189
f 151/151/151 189/189/189 152/152/152
f 152/152/152 189/189/189 190/190/190
f 152/152/152 190/190/190 153/153/153
f 153/153/153 190/190/190 191/191/191
f 153/153/153 191/191/191 154/154/154
f 154/154/154 191/191/191 192/192/192
f 154/154/154 192/192/192 155/155/155
f 155/155/155 192/192/192 193/193/193
f 155/155/155 193/193/193 156/156/156
f 156/156/156 193/193/193 194/194/194
f 156/156/156 194/194/194 157/157/157
f 157/157/157 194/194/194 195/195/195
f 157/157/157 195/195/195 158/158/158
f 158/158/158 195/195/195 196/196/196
f 158/158/158 196/196/196 159/159/159
f 159/159/159 196/196/196 197/197/197
f 159/159/159 197/197/197 160/160/160
f 160/160/160 197/197/197 198/198/198
f 160/160/160 198/198/198 161/161/161
f 161/161/161 198/198/198 199/199/199
f 161/161/161 199/199/199 162/162/162
f 162/162/162 199/199/199 200/200/200
f 162/162/162 200/200/200 163/163/163
f 163/163/163 200/200/200 201/201/201
f 163/163/163 201/201/201 164/164/164
f 164/164/164 201/201/201 202/202/202
f 164/164/164 202/202/202 165/165/165
f 165/165/165 202/202/202 203/203/203
f 165/165/165 203/203/203 166/166/166
f 166/166/166 203/203/203 204/204/204
f 166/166/166 204/204/204 167/167/167
f 167/167/167 204/204/204 205/205/205
f 167/167/167 205/205/205 168/168/168
f 168/168/168 205/205/205 206/206/206
f 168/168/168 206/206/206 169/169/169
f 169/169/169 206/206/206 207/207/207
f 169/169/169 207/207/207 170/170/170
f 170/170/170 207/207/207 208/208/208
f 170/170/170 208/208/208 171/171/171
f 171/171/171 208/208/208 209/209/209
f 171/171/171 209/209/209 172/172/172
f 172/172/172 209/209/209 210/210/210
f 172/172/172 210/210/210 173/173/173
f 173/173/173 210/210/210 211/211/211
f 173/173/173 211/211/211 174/174/174
f 174/174/174 211/211/211 212/212/212
f 174/174/174 212/212/212 175/175/175
f 175/175/175 212/212/212 213/213/213
f 175/175/175 213/213/213 176/176/176
f 176/176/176 213/213/213 214/214/214
f 176/176/176 214/214/214 177/177/177
f 177/177/177 214/214/214 215/215/215
f 177/177/177 215/215/215 178/178/178
f 178/178/178 215/215/215 216/216/216
f 178/178/178 216/216/216 179/179/179
f 179/179/179 216/216/216 217/217/217
f 179/179/179 217/217/217 180/180/180
f 180/180/180 217/217/217 218/218/218
f 180/180/180 218/218/218 181/181/181
f 181/181/181 218/218/218 219/219/219
f 181/181/181 219/219/219 182/182/182
f 182/182/182 219/219/219 220/220/220
f 182/182/182 220/220/220 183/183/183
f 183/183/183 220/220/220 221/221/221
f 183/183/183 221/221/221 184/184/184
f 184/184/184 221/221/221 222/222/222
f 184/184/184 222/222/222 185/185/185
f 186/186/186 223/223/223 224/224/224
f 186/186/186 224/224/224 187/187/187
f 187/187/187 224/224/224 225/225/225
f 187/187/187 225/225/225 188/188/188
f 188/188/188 225/225/225 226/226/226
f 188/188/188 226/226/226 189/189/189
f 189/189/189 226/226/226 227/227/227
f 189/189/189 227/227/227 190/190/190
f 190/190/190 227/227/227 228/228/228
f 190/190/190 228/228/228 191/191/191
f 191/191/191 228/228/228 229/229/229
f 191/191/191 229/229/229 192/192/192
f 192/192/192 229/229/229 230/230/230
f 192/192/192 230/230/230 193/193/193
f 193/193/193 230/230/230 231/231/231
f 193/193/193 231/231/231 194/194/194
f 194/194/194 231/231/231 232/232/232
f 194/194/194 232/232/232 195/195/195
f 195/195/195 232/232/232 233/233/233
f 195/195/195 233/233/233 196/196/196
f 196/196/196 233/233/233 234/234/234
f 196/196/196 234/234/234 197/197/197
f 197/197/197 234/234/234 235/235/235
f 197/197/197 235/235/235 198/198/198
f 198/198/198 235/235/235 236/236/236
f 198/198/198 236/236/236 199/199/199
f 199/199/199 236/236/236 237/237/237
f 199/199/199 237/237/237 200/200/200
f 200/200/200 237/237/237 238/238/238
f 200/200/200 238/238/238 201/201/201
f 201/201/201 238/238/238 239/239/239
f 201/201/201 239/239/239 202/202/202
f 202/202/202 239/239/239 240/240/240
f 202/202/202 240/240/240 203/203/203
f 203/203/203 240/240/240 241/241/241
f 203/203/203 241/241/241 204/204/204
f 204/204/204 241/241/241 242/242/242
f 204/204/204 242/242/242 205/205/205
f 205/205/205 242/242/242 243/243/243
f 205/205/205 243/243/243 206/206/206
f 206/206/206 243/243/243 244/244/244
f 206/206/206 244/244/244 207/207/207
f 207/207/207 244/244/244 245/245/245
f 207/207/207 245/245/245 208/208/208
f 208/208/208 245/245/245 246/246/246
f 208/208/208 246/246/246 209/209/209
f 209/209/209 246/246/246 247/247/247
f 209/209/209 247/247/247 210/210/210
f 210/210/210 247/247/247 248/248/248
f 210/210/210 248/248/248 211/211/211
f 211/211/211 248/248/248 249/249/249
f 211/211/211 249/249/249 212/212/212
f 212/212/212 249/249/249 250/250/250
f 212/212/212 250/250/250 213/213/213
f 213/213/213 250/250/250 251/251/251
f 213/213/213 251/251/251 214/214/214
f 214/214/214 251/251/251 252/252/252
f 214/214/214 252/252/252 215/215/215
f 215/215/215 252/252/252 253/253/253
f 215/215/215 253/253/253 216/216/216
f 216/216/216 253/253/253 254/254/254
f 216/216/216 254/254/254 217/217/217
f 217/217/217 254/254/254 255/255/255
f 217/217/217 255/255/255 218/218/218
f 218/218/218 255/255/255 256/256/256
f 218/218/218 256/256/256 219/219/219
f 219/219/219 256/256/256 257/257/257
f 219/219/219 257/257/257 220/220/220
f 220/220/220 257/257/257 258/258/258
f 220/220/220 258/258/258 221/221/221
f 221/221/221 258/258/258 259/259/259
f 221/221/221 259/259/259 222/222/222
f 223/223/223 260/260/260 261/261/261
f 223/223/223 261/261/261 224/224/224
f 224/224/224 261/261/261 262/262/262
f 224/224/224 262/262/262 225/225/225
f 225/225/225 262/262/262 263/263/263
f 225/225/225 263/263/263 226/226/226
f 226/226/226 263/263/263 264/264/264
f 226/226/226 264/264/264 227/227/227
f 227/227/227 264/264/264 265/265/265
f 227/227/227 265/265/265 228/228/228
f 228/228/228 265/265/265 266/266/266
f 228/228/228 266/266/266 229/229/229
f 229/229/229 266/266/266 267/267/267
f 229/229/229 267/267/267 230/230/230
f 230/230/230 267/267/267 268/268/268
f 230/230/230 268/268/268 231/231/231
f 231/231/231 268/268/268 269/269/269
f 231/231/231 269/269/269 232/232/232
f 232/232/232 269/269/269 270/270/270
f 232/232/232 270/270/270 233/233/233
f 233/233/233 270/270/270 271/271/271
f 233/233/233 271/271/271 234/234/234
f 234/234/234 271/271/271 272/272/272
f 234/234/234 272/272/272 235/235/235
f 235/235/235 272/272/272 273/273/273
f 235/235/235 273/273/273 236/236/236
f 236/236/236 273/273/273 274/274/274
f 236/236/236 274/274/274 237/237/237
f 237/237/237 274/274/274 275/275/275
f 237/237/237 275/275/275 238/238/238
f 238/238/238 275/275/275 276/276/276
f 238/238/238 276/276/276 239/239/239
f 239/239/239 276/276/276 277/277/277
f 239/239/239 277/277/277 240/240/240
f 240/240/240 277/277/277 278/278/278
f 240/240/240 278/278/278 241/241/241
f 241/241/241 278/278/278 279/279/279
f 241/241/241 279/279/279 242/242/242
f 242/242/242 279/279/279 280/280/280
f 242/242/242 280/280/280 243/243/243
f 243/243/243 280/280/280 281/281/281
f 243/243/243 281/281/281 244/244/244
f 244/244/244 281/281/281 282/282/282
f 244/244/244 282/282/282 245/245/245
f 245/245/245 282/282/282 283/283/283
f 245/245/245 283/283/283 246/246/246
f 246/246/246 283/283/283 284/284/284
f 246/246/246 284/284/284 247/247/247
f 247/247/247 284/284/284 285/285/285
f 247/247/247 285/285/285 248/248/248
f 248/248/248 285/285/285 286/286/286
f 248/248/248 286/286/286 249/249/249
f 249/249/249 286/286/286 287/287/287
f 249/249/249 287/287/287 250/250/250
f 250/250/250 287/287/287 288/288/288
f 250/250/250 288/288/288 251/251/251
f 251/251/251 288/288/288 289/289/289
f 251/251/251 289/289/289 252/252/252
f 252/252/252 289/289/289 290/290/290
f 252/252/252 290/290/290 253/253/253
f 253/253/253 290/290/290 291/291/291
f 253/253/253 291/291/291 254/254/254
f 254/254/254 291/291/291 292/292/292
f 254/254/254 292/292/292 255/255/255
f 255/255/255 292/292/292 293/293/293
f 255/255/255 293/293/293 256/256/256
f 256/256/256 293/293/293 294/294/294
f 256/256/256 294/294/294 257/257/257
f 257/257/257 294/294/294 295/295/295
f 257/257/257 295/295/295 258/258/258
f 258/258/258 295/295/295 296/296/296
f 258/258/258 296/296/296 259/259/259
f 260/260/260 297/297/297 298/298/298
f 260/260/260 298/298/298 261/261/261
f 261/261/261 298/298/298 299/299/299
f 261/261/261 299/299/299 262/262/262
f 262/262/262 299/299/299 300/300/300
f 262/262/262 300/300/300 263/263/263
f 263/263/263 300/300/300 301/301/301
f 263/263/263 301/301/301 264/264/264
f 264/264/264 301/301/301 302/302/302
f 264/264/264 302/302/302 265/265/265
f 265/265/265 302/302/302 303/303/303
f 265/265/265 303/303/303 266/266/266
f 266/266/266 303/303/303 304/304/304
f 266/266/266 304/304/304 267/267/267
f 267/267/267 304/304/304 305/305/305
f 267/267/267 305/305/305 268/268/268
f 268/268/268 305/305/305 306/306/306
f 268/268/268 306/306/306 269/269/269
f 269/269/269 306/306/306 307/307/307
f 269/269/269 307/307/307 270/270/270
f 270/270/270 307/307/307 308/308/308
f 270/270/270 308/308/308 271/271/271
f 271/271/271 308/308/308 309/309/309
f 271/271/271 309/309/309 272/272/272
f 272/272/272 309/309/309 310/310/310
f 272/272/272 310/310/310 273/273/273
f 273/273/273 310/310/310 311/311/311
f 273/273/273 311/311/311 274/274/274
f 274/274/274 311/311/311 312/312/312
f 274/274/274 312/312/312 275/275/275
f 275/275/275 312/312/312 313/313/313
f 275/275/275 313/313/313 276/276/276
f 276/276/276 313/313/313 314/314/314
f 276/276/276 314/314/314 277/277/277
f 277/277/277 314/314/314 315/315/315
f 277/277/277 315/315/315 278/278/278
f 278/278/278 315/315/315 316/316/316
f 278/278/278 316/316/316 279/279/279
f 279/279/279 316/316/316 317/317/317
f 279/279/279 317/317/317 280/280/280
f 280/280/280 317/317/317 318/318/318
f 280/280/280 318/318/318 281/281/281
f 281/281/281 318/318/318 319/319/319
f 281/281/281 319/319/319 282/282/282
f 282/282/282 319/319/319 320/320/320
f 282/282/282 320/320/320 283/283/283
f 283/283/283 320/320/320 321/321/321
f 283/283/283 321/321/321 284/284/284
f 284/284/284 321/321/321 322/322/322
f 284/284/284 322/322/322 285/285/285
f 285/285/285 322/322/322 323/323/323
f 285/285/285 323/323/323 286/286/286
f 286/286/286 323/323/323 324/324/324
f 286/286/286 324/324/324 287/287/287
f 287/287/287 324/324/324 325/325/325
f 287/287/287 325/325/325 288/288/288
f 288/288/288 325/325/325 326/326/326
f 288/288/288 326/326/326 289/289/289
f 289/289/289 326/326/326 327/327/327
f 289/289/289 327/327/327 290/290/290
f 290/290/290 327/327/327 328/328/328
f 290/290/290 328/328/328 291/291/291
f 291/291/291 328/328/328 329/329/329
f 291/291/291 329/329/329 292/292/292
f 292/292/292 329/329/329 330/330/330
f 292/292/292 330/330/330 293/293/293
f 293/293/293 330/330/330 331/331/331
f 293/293/293 331/331/331 294/294/294
f 294/294/294 331/331/331 332/332/332
f 294/294/294 332/332/332 295/295/295
f 295/295/295 332/332/332 333/333/333
f 295/295/295 333/333/333 296/296/296
f 297/297/297 334/334/334 335/335/335
f 297/297/297 335/335/335 298/298/298
f 298/298/298 335/335/335 336/336/336
f 298/298/298 336/336/336 299/299/299
f 299/299/299 336/336/336 337/337/337
f 299/299/299 337/337/337 300/300/300
f 300/300/300 337/337/337 338/338/338
f 300/300/300 338/338/338 301/301/301
f 301/301/301 338/338/338 339/339/339
f 301/301/301 339/339/339 302/302/302
f 302/302/302 339/339/339 340/340/340
f 302/302/302 340/340/340 303/303/303
f 303/303/303 340/340/340 341/341/341
f 303/303/303 341/341/341 304/304/304
f 304/304/304 341/341/341 342/342/342
f 304/304/304 342/342/342 305/305/305
f 305/305/305 342/342/342 343/343/343
f 305/305/305 343/343/343 306/306/306
f 306/306/306 343/343/343 344/344/344
f 306/306/306 344/344/344 307/307/307
f 307/307/307 344/344/344 345/345/345
f 307/307/307 345/345/345 308/308/308
f 308/308/308 345/345/345 346/346/346
f 308/308/308 346/346/346 309/309/309
f 309/309/309 346/346/346 347/347/347
f 309/309/309 347/347/347 310/310/310
f 310/310/310 347/347/347 348/348/348
f 310/310/310 348/348/348 311/311/311
f 311/311/311 348/348/348 349/349/349
f 311/311/311 349/349/349 312/312/312
f 312/312/312 349/349/349 350/350/350
f 312/312/312 350/350/350 313/313/313
f 313/313/313 350/350/350 351/351/351
f 313/313/313 351/351/351 314/314/314
f 314/314/314 351/351/351 352/352/352
f 314/314/314 352/352/352 315/315/315
f 315/315/315 352/352/352 353/353/353
f 315/315/315 353/353/353 316/316/316
f 316/316/316 353/353/353 354/354/354
f 316/316/316 354/354/354 317/317/317
f 317/317/317 354/354/354 355/355/355
f 317/317/317 355/355/355 318/318/318
f 318/318/318 355/355/355 356/356/356
f 318/318/318 356/356/356 319/319/319
f 319/319/319 356/356/356 357/357/357
f 319/319/319 357/357/357 320/320/320
f 320/320/320 357/357/357 358/358/358
f 320/320/320 358/358/358 321/321/321
f 321/321/321 358/358/358 359/359/359
f 321/321/321 359/359/359 322/322/322
f 322/322/322 359/359/359 360/360/360
f 322/322/322 360/360/360 323/323/323
f 323/323/323 360/360/360 361/361/361
f 323/323/323 361/361/361 324/324/324
f 324/324/324 361/361/361 362/362/362
f 324/324/324 362/362/362 325/325/325
f 325/325/325 362/362/362 363/363/363
f 325/325/325 363/363/363 326/326/326
f 326/326/326 363/363/363 364/364/364
f 326/326/326 364/364/364 327/327/327
f 327/327/327 364/364/364 365/365/365
f 327/327/327 365/365/365 328/328/328
f 328/328/328 365/365/365 366/366/366
f 328/328/328 366/366/366 329/329/329
f 329/329/329 366/366/366 367/367/367
f 329/329/329 367/367/367 330/330/330
f 330/330/330 367/367/367 368/368/368
f 330/330/330 368/368/368 331/331/331
f 331/331/331 368/368/368 369/369/369
f 331/331/331 369/369/369 332/332/332
f 332/332/332 369/369/369 370/370/370
f 332/332/332 370/370/370 333/333/333
f 334/334/334 371/371/371 372/372/372
f 334/334/334 372/372/372 335/335/335
f 335/335/335 372/372/372 373/373/373
f 335/335/335 373/373/373 336/336/336
f 336/336/336 373/373/373 374/374/374
f 336/336/336 374/374/374 337/337/337
f 337/337/337 374/374/374 375/375/375
f 337/337/337 375/375/375 338/338/338
f 338/338/338 375/375/375 376/376/376
f 338/338/338 376/376/376 339/339/339
f 339/339/339 376/376/376 377/377/377
f 339/339/339 377/377/377 340/340/340
f 340/340/340 377/377/377 378/378/378
f 340/340/340 378/378/378 341/341/341
f 341/341/341 378/378/378 379/379/379
f 341/341/341 379/379/379 342/342/342
f 342/342/342 379/379/379 380/380/380
f 342/342/342 380/380/380 343/343/343
f 343/343/343 380/380/380 381/381/381
f 343/343/343 381/381/381 344/344/344
f 344/344/344 381/381/381 382/382/382
f 344/344/344 382/382/382 345/345/345
f 345/345/345 382/382/382 383/383/383
f 345/345/345 383/383/383 346/346/346
f 346/346/346 383/383/383 384/384/384
f 346/346/346 384/384/384 347/347/347
f 347/347/347 384/384/384 385/385/385
f 347/347/347 385/385/385 348/348/348
f 348/348/348 385/385/385 386/386/386
f 348/348/348 386/386/386 349/349/349
f 349/349/349 386/386/386 387/387/387
f 349/349/349 387/387/387 350/350/350
f 350/350/350 387/387/387 388/388/388
f 350/350/350 388/388/388 351/351/351
f 351/351/351 388/388/388 389/389/389
f 351/351/351 389/389/389 352/352/352
f 352/352/352 389/389/389 390/390/390
f 352/352/352 390/390/390 353/353/353
f 353/353/353 390/390/390 391/391/391
f 353/353/353 391/391/391 354/354/354
f 354/354/354 391/391/391 392/392/392
f 354/354/354 392/392/392 355/355/355
f 355/355/355 392/392/392 393/393/393
f 355/355/355 393/393/393 356/356/356
f 356/356/356 393/393/393 394/394/394
f 356/356/356 394/394/394 357/357/357
f 357/357/357 394/394/394 395/395/395
f 357/357/357 395/395/395 358/358/358
f 358/358/358 395/395/395 396/396/396
f 358/358/358 396/396/396 359/359/359
f 359/359/359 396/396/396 397/397/397
f 359/359/359 397/397/397 360/360/360
f 360/360/360 397/397/397 398/398/398
f 360/360/360 398/398/398 361/361/361
f 361/361/361 398/398/398 399/399/399
f 361/361/361 399/399/399 362/362/362
f 362/362/362 399/399/399 400/400/400
f 362/362/362 400/400/400 363/363/363
f 363/363/363 400/400/400 401/401/401
f 363/363/363 401/401/401 364/364/364
f 364/364/364 401/401/401 402/402/402
f 364/364/364 402/402/402 365/365/365
f 365/365/365 402/402/402 403/403/403
f 365/365/365 403/403/403 366/366/366
f 366/366/366 403/403/403 404/404/404
f 366/366/366 404/404/404 367/367/367
f 367/367/367 404/404/404 405/405/405
f 367/367/367 405/405/405 368/368/368
f 368/368/368 405/405/405 406/406/406
f 368/368/368 406/406/406 369/369/369
f 369/369/369 406/406/406 407/407/407
f 369/369/369 407/407/407 370/370/370
f 371/371/371 408/408/408 409/409/409
f 371/371/371 409/409/409 372/372/372
f 372/372/372 409/409/409 410/410/410
f 372/372/372 410/410/410 373/373/373
f 373/373/373 410/410/410 411/411/411
f 373/373/373 411/411/411 374/374/374
f 374/374/374 411/411/411 412/412/412
f 374/374/374 412/412/412 375/375/375
f 375/375/375 412/412/412 413/413/413
f 375/375/375 413/413/413 376/376/376
f 376/376/376 413/413/413 414/414/414
f 376/376/376 414/414/414 377/377/377
f 377/377/377 414/414/414 415/415/415
f 377/377/377 415/415/415 378/378/378
f 378/378/378 415/415/415 416/416/416
f 378/378/378 416/416/416 379/379/379
f 379/379/379 416/416/416 417/417/417
f 379/379/379 417/417/417 380/380/380
f 380/380/380 417/417/417 418/418/418
f 380/380/380 418/418/418 381/381/381
f 381/381/381 418/418/418 419/419/419
f 381/381/381 419/419/419 382/382/382
f 382/382/382 419/419/419 420/420/420
f 382/382/382 420/420/420 383/383/383
f 383/383/383 420/420/420 421/421/421
f 383/383/383 421/421/421 384/384/384
f 384/384/384 421/421/421 422/422/422
f 384/384/384 422/422/422 385/385/385
f 385/385/385 422/422/422 423/423/423
f 385/385/385 423/423/423 386/386/386
f 386/386/386 423/423/423 424/424/424
f 386/386/386 424/424/424 387/387/387
f 387/387/387 424/424/424 425/425/425
f 387/387/387 425/425/425 388/388/388
f 388/388/388 425/425/425 426/426/426
f 388/388/388 426/426/426 389/389/389
f 389/389/389 426/426/426 427/427/427
f 389/389/389 427/427/427 390/390/390
f 390/390/390 427/427/427 428/428/428
f 390/390/390 428/428/428 391/391/391
f 391/391/391 428/428/428 429/429/429
f 391/391/391 429/429/429 392/392/392
f 392/392/392 429/429/429 430/430/430
f 392/392/392 430/430/430 393/393/393
f 393/393/393 430/430/430 431/431/431
f 393/393/393 431/431/431 394/394/394
f 394/394/394 431/431/431 432/432/432
f 394/394/394 432/432/432 395/395/395
f 395/395/395 432/432/432 433/433/433
f 395/395/395 433/433/433 396/396/396
f 396/396/396 433/433/433 434/434/434
f 396/396/396 434/434/434 397/397/397
f 397/397/397 434/434/434 435/435/435
f 397/397/397 435/435/435 398/398/398
f 398/398/398 435/435/435 436/436/436
f 398/398/398 436/436/436 399/399/399
f 399/399/399 436/436/436 437/437/437
f 399/399/399 437/437/437 400/400/400
f 400/400/400 437/437/437 438/438/438
f 400/400/400 438/438/438 401/401/401
f 401/401/401 438/438/438 439/439/439
f 401/401/401 439/439/439 402/402/402
f 402/402/402 439/439/439 440/440/440
f 402/402/402 440/440/440 403/403/403
f 403/403/403 440/440/440 441/441/441
f 403/403/403 441/441/441 404/404/404
f 404/404/404 441/441/441 442/442/442
f 404/404/404 442/442/442 405/405/405
f 405/405/405 442/442/442 443/443/443
f 405/405/405 443/443/443 406/406/406
f 406/406/406 443/443/443 444/444/444
f 406/406/406 444/444/444 407/407/407
f 408/408/408 445/445/445 446/446/446
f 408/408/408 446/446/446 409/409/409
f 409/409/409 446/446/446 447/447/447
f 409/409/409 447/447/447 410/410/410
f 410/410/410 447/447/447 448/448/448
f 410/410/410 448/448/448 411/411/411
f 411/411/411 448/448/448 449/449/449
f 411/411/411 449/449/449 412/412/412
f 412/412/412 449/449/449 450/450/450
f 412/412/412 450/450/450 413/413/413
f 413/413/413 450/450/450 451/451/451
f 413/413/413 451/451/451 414/414/414
f 414/414/414 451/451/451 452/452/452
f 414/414/414 452/452/452 415/415/415
f 415/415/415 452/452/452 453/453/453
f 415/415/415 453/453/453 416/416/416
f 416/416/416 453/453/453 454/454/454
f 416/416/416 454/454/454 417/417/417
f 417/417/417 454/454/454 455/455/455
f 417/417/417 455/455/455 418/418/418
f 418/418/418 455/455/455 456/456/456
f 418/418/418 456/456/456 419/419/419
f 419/419/419 456/456/456 457/457/457
f 419/419/419 457/457/457 420/420/420
f 420/420/420 457/457/457 458/458/458
f 420/420/420 458/458/458 421/421/421
f 421/421/421 458/458/458 459/459/459
f 421/421/421 459/459/459 422/422/422
f 422/422/422 459/459/459 460/460/460
f 422/422/422 460/460/460 423/423/423
f 423/423/423 460/460/460 461/461/461
f 423/423/423 461/461/461 424/424/424
f 424/424/424 461/461/461 462/462/462
f 424/424/424 462/462/462 425/425/425
f 425/425/425 462/462/462 463/463/463
f 425/425/425 463/463/463 426/426/426
f 426/426/426 463/463/463 464/464/464
f 426/426/426 464/464/464 427/427/427
f 427/427/427 464/464/464 465/465/465
f 427/427/427 465/465/465 428/428/428
f 428/428/428 465/465/465 466/466/466
f 428/428/428 466/466/466 429/429/429
f 429/429/429 466/466/466 467/467/467
f 429/429/429 467/467/467 430/430/430
f 430/430/430 467/467/467 468/468/468
f 430/430/430 468/468/468 431/431/431
f 431/431/431 468/468/468 469/469/469
f 431/431/431 469/469/469 432/432/432
f 432/432/432 469/469/469 470/470/470
f 432/432/432 470/470/470 433/433/433
f 433/433/433 470/470/470 471/471/471
f 433/433/433 471/471/471 434/434/434
f 434/434/434 471/471/471 472/472/472
f 434/434/434 472/472/472 435/435/435
f 435/435/435 472/472/472 473/473/473
f 435/435/435 473/473/473 436/436/436
f 436/436/436 473/473/473 474/474/474
f 436/436/436 474/474/474 437/437/437
f 437/437/437 474/474/474 475/475/475
f 437/437/437 475/475/475 438/438/438
f 438/438/438 475/475/475 476/476/476
f 438/438/438 476/476/476 439/439/439
f 439/439/439 476/476/476 477/477/477
f 439/439/439 477/477/477 440/440/440
f 440/440/440 477/477/477 478/478/478
f 440/440/440 478/478/478 441/441/441
f 441/441/441 478/478/478 479/479/479
f 441/441/441 479/479/479 442/442/442
f 442/442/442 479/479/479 480/480/480
f 442/442/442 480/480/480 443/443/443
f 443/443/443 480/480/480 481/481/481
f 443/443/443 481/481/481 444/444/444
