# Generated sky cornice; visual geometry only.
s 1
v -3.514877 -0.014 -60.032342
v -3.514434 -0.008949 -60.032371
v -3.513729 -0.001225 -60.032418
v -3.513399 0.007454 -60.03244
v -3.514079 0.015345 -60.032395
v -3.516006 0.022198 -60.032266
v -3.518818 0.028684 -60.032079
v -3.522254 0.03441 -60.03185
v -3.526052 0.038978 -60.031597
v -3.530374 0.042168 -60.031308
v -3.535282 0.044006 -60.030981
v -3.540364 0.044486 -60.030642
v -3.54521 0.043626 -60.030319
v -3.550002 0.041142 -60.03
v -3.554863 0.037057 -60.029676
v -3.559288 0.031894 -60.029381
v -3.562771 0.026208 -60.029149
v -3.565228 0.020162 -60.028985
v -3.566911 0.013605 -60.028873
v -3.567822 0.006658 -60.028812
v -3.567959 -0.00055 -60.028803
v -3.567257 -0.008144 -60.02885
v -3.565739 -0.015907 -60.028951
v -3.563534 -0.023195 -60.029098
v -3.560775 -0.029385 -60.029282
v -3.557192 -0.03407 -60.029521
v -3.552818 -0.03755 -60.029812
v -3.548231 -0.040619 -60.030118
v -3.544012 -0.044 -60.030399
v -3.54009 -0.047644 -60.030661
v -3.536229 -0.05135 -60.030918
v -3.532768 -0.055381 -60.031149
v -3.530043 -0.06 -60.03133
v -3.52825 -0.066 -60.03145
v -3.527175 -0.073 -60.031522
v -3.526535 -0.0795 -60.031564
v -3.526052 -0.084 -60.031597
v 0.381607 -4.265836 -52.720376
v 0.516621 -2.724057 -52.727845
v 0.731502 -0.362459 -52.739731
v 0.832287 2.295387 -52.745306
v 0.625012 4.716829 -52.733841
v 0.037416 6.825264 -52.701337
v -0.820208 8.823943 -52.653897
v -1.867993 10.591624 -52.595938
v -3.026071 12.00587 -52.531879
v -4.343884 12.997908 -52.458983
v -5.840447 13.575028 -52.3762
v -7.390256 13.73422 -52.290471
v -8.867804 13.480211 -52.20874
v -10.329188 12.725921 -52.127902
v -11.811489 11.478052 -52.045908
v -13.160679 9.896401 -51.971277
v -14.222726 8.150705 -51.912529
v -14.971958 6.291191 -51.871084
v -15.485392 4.272851 -51.842684
v -15.763026 2.133528 -51.827326
v -15.804862 -0.085425 -51.825012
v -15.590931 -2.421545 -51.836846
v -15.12789 -4.807113 -51.862459
v -14.455672 -7.044892 -51.899643
v -13.614212 -8.943616 -51.946189
v -12.521739 -10.378852 -52.00662
v -11.187763 -11.441581 -52.08041
v -9.789132 -12.376637 -52.157776
v -8.502695 -13.406913 -52.228936
v -7.306585 -14.517173 -52.295099
v -6.129491 -15.646477 -52.360211
v -5.0741 -16.874809 -52.418591
v -4.243099 -18.282154 -52.464558
v -3.696387 -20.110369 -52.4948
v -3.36836 -22.243287 -52.512945
v -3.173445 -24.223854 -52.523727
v -3.026071 -25.595016 -52.531879
v 4.152946 -8.354729 -45.325916
v 4.417573 -5.328 -45.337555
v 4.83874 -0.681813 -45.356078
v 5.036278 4.557184 -45.364766
v 4.63002 9.343817 -45.346898
v 3.478334 13.525478 -45.296245
v 1.797393 17.49718 -45.222315
v -0.256261 21.01812 -45.131992
v -2.52609 23.845061 -45.032161
v -5.108998 25.839968 -44.91856
v -8.042258 27.01408 -44.789551
v -11.079877 27.358941 -44.655951
v -13.975865 26.881872 -44.528581
v -16.840173 25.411133 -44.402604
v -19.745479 22.959467 -44.274823
v -22.389885 19.840289 -44.158518
v -24.471493 16.38729 -44.066965
v -25.939987 12.700828 -44.002379
v -26.946314 8.69536 -43.958119
v -27.490477 4.448071 -43.934186
v -27.572474 0.04331 -43.930579
v -27.153171 -4.588997 -43.949021
v -26.245612 -9.31289 -43.988937
v -24.928068 -13.739055 -44.046885
v -23.278808 -17.49035 -44.119422
v -21.137566 -20.321167 -44.213597
v -18.522977 -22.408576 -44.328591
v -15.781665 -24.239903 -44.449159
v -13.260254 -26.257719 -44.560054
v -10.915883 -28.432187 -44.663164
v -8.608783 -30.643952 -44.764634
v -6.54022 -33.049666 -44.855613
v -4.91146 -35.805981 -44.927248
v -3.839907 -39.386579 -44.974377
v -3.196975 -43.563944 -45.002654
v -2.814943 -47.442925 -45.019456
v -2.52609 -50.128374 -45.032161
v 4.772328 -8.497689 -37.754512
v 5.041686 -5.411557 -37.763311
v 5.470382 -0.663476 -37.777314
v 5.671452 4.701029 -37.783882
v 5.257931 9.616803 -37.770374
v 4.085656 13.925863 -37.732082
v 2.374665 18.026719 -37.676193
v 0.284298 21.670866 -37.607912
v -2.026108 24.607224 -37.532443
v -4.655191 26.691828 -37.446565
v -7.640889 27.93286 -37.349037
v -10.732812 28.318981 -37.248041
v -13.680572 27.855569 -37.151753
v -16.596084 26.36667 -37.056518
v -19.553328 23.864835 -36.959921
v -22.245009 20.669323 -36.871997
v -24.36383 17.120876 -36.802787
v -25.858575 13.323697 -36.753961
v -26.882893 9.193565 -36.720502
v -27.436784 4.812267 -36.702409
v -27.520247 0.269182 -36.699683
v -27.093447 -4.503283 -36.713624
v -26.169664 -9.36328 -36.7438
v -24.828566 -13.911601 -36.787606
v -23.149823 -17.761938 -36.842442
v -20.970302 -20.66244 -36.913635
v -18.308972 -22.792016 -37.000567
v -15.518653 -24.654679 -37.091712
v -12.952168 -26.707023 -37.175546
v -10.565886 -28.918698 -37.253493
v -8.217542 -31.168309 -37.330201
v -6.111999 -33.615189 -37.398978
v -4.454122 -36.418667 -37.453132
v -3.363413 -40.060534 -37.48876
v -2.708987 -44.309378 -37.510137
v -2.320126 -48.254734 -37.522839
v -2.026108 -50.986134 -37.532443
v 5.365014 -8.60709 -30.179953
v 5.638044 -5.474417 -30.185786
v 6.072586 -0.645179 -30.19507
v 6.276398 4.820469 -30.199425
v 5.857238 9.841782 -30.19047
v 4.668978 14.256272 -30.165083
v 2.934656 18.46466 -30.128029
v 0.815784 22.212039 -30.08276
v -1.526127 25.240807 -30.032725
v -4.191061 27.401949 -29.975789
v -7.217471 28.700847 -29.91113
v -10.351556 29.123568 -29.844171
v -13.339512 28.673708 -29.780334
v -16.294781 27.171907 -29.717195
v -19.29235 24.630512 -29.653152
v -22.020734 21.373321 -29.594861
v -24.168448 17.746665 -29.548975
v -25.683576 13.85799 -29.516604
v -26.721861 9.62448 -29.494422
v -27.283305 5.131915 -29.482426
v -27.367906 0.474029 -29.480619
v -26.935287 -4.414347 -29.489862
v -25.998907 -9.386354 -29.509867
v -24.639522 -14.034753 -29.53891
v -22.937887 -17.965834 -29.575266
v -20.728645 -20.922684 -29.622466
v -18.031025 -23.085444 -29.6801
v -15.202658 -24.972087 -29.740528
v -12.601175 -27.050853 -29.796108
v -10.182354 -29.291002 -29.847786
v -7.801988 -31.569575 -29.898642
v -5.667734 -34.047956 -29.94424
v -3.987249 -36.887527 -29.980143
v -2.881667 -40.576279 -30.003764
v -2.218318 -44.879824 -30.017936
v -1.824154 -48.875973 -30.026358
v -1.526127 -51.642537 -30.032725
v 5.925158 -8.675712 -22.60309
v 6.200572 -5.513192 -22.605866
v 6.638908 -0.631123 -22.610286
v 6.844499 4.901049 -22.612358
v 6.42168 9.992622 -22.608096
v 5.223045 14.478045 -22.596011
v 3.473582 18.759141 -22.578373
v 1.336211 22.576686 -22.556824
v -1.026146 25.668664 -22.533007
v -3.714346 27.882591 -22.505905
v -6.767178 29.221811 -22.475126
v -9.928625 29.670528 -22.443253
v -12.942667 29.231045 -22.412865
v -15.923737 27.721754 -22.38281
v -18.947477 25.154838 -22.352325
v -21.699681 21.856985 -22.324578
v -23.866145 18.178146 -22.302735
v -25.394501 14.227984 -22.287327
v -26.441851 9.924807 -22.276767
v -27.008196 5.357176 -22.271057
v -27.093536 0.621869 -22.270197
v -26.65714 -4.344446 -22.274597
v -25.712585 -9.391463 -22.28412
v -24.341332 -14.106626 -22.297945
v -22.62484 -18.091351 -22.31525
v -20.396311 -21.08537 -22.337718
v -17.67514 -23.269499 -22.365153
v -14.822079 -25.171185 -22.393917
v -12.197885 -27.266524 -22.420374
v -9.757946 -29.524533 -22.444974
v -7.356798 -31.821273 -22.469182
v -5.203911 -34.319413 -22.490887
v -3.508755 -37.181624 -22.507978
v -2.39352 -40.899786 -22.519221
v -1.72438 -45.237642 -22.525968
v -1.326774 -49.265651 -22.529976
v -1.026146 -52.054273 -22.533007
v 6.447841 -8.697513 -15.025032
v 6.724155 -5.524956 -15.024705
v 7.163922 -0.62447 -15.024184
v 7.370185 4.931451 -15.02394
v 6.945984 10.048789 -15.024442
v 5.743435 14.560818 -15.025866
v 3.988259 18.869476 -15.027944
v 1.843907 22.713902 -15.030483
v -0.526165 25.830413 -15.033289
v -3.223144 28.06516 -15.036482
v -6.285947 29.420605 -15.040109
v -9.457718 29.880159 -15.043864
v -12.481604 29.445563 -15.047445
v -15.47241 27.934403 -15.050986
v -18.506024 25.35878 -15.054578
v -21.267217 22.046335 -15.057847
v -23.440756 18.348267 -15.060421
v -24.974104 14.375098 -15.062236
v -26.024875 10.045695 -15.063481
v -26.593069 5.449745 -15.064153
v -26.678688 0.685252 -15.064255
v -26.240866 -4.310264 -15.063736
v -25.293227 -9.385141 -15.062614
v -23.917495 -14.124899 -15.060985
v -22.195398 -18.129207 -15.058946
v -19.959591 -21.136584 -15.056299
v -17.229532 -23.327973 -15.053067
v -14.367154 -25.234436 -15.049677
v -11.734389 -27.335041 -15.04656
v -9.286482 -29.598724 -15.043662
v -6.877492 -31.901236 -15.040809
v -4.717574 -34.405653 -15.038252
v -3.016881 -37.275056 -15.036238
v -1.898005 -41.002562 -15.034913
v -1.226679 -45.351318 -15.034119
v -0.827775 -49.389449 -15.033646
v -0.526165 -52.185079 -15.033289
v 6.929273 -8.667873 -7.447093
v 7.204852 -5.507264 -7.443667
v 7.643449 -0.626823 -7.438214
v 7.849163 4.904809 -7.435656
v 7.426091 9.997653 -7.440916
v 6.22674 14.485965 -7.455828
v 4.476232 18.770801 -7.477592
v 2.337585 22.592723 -7.504182
v -0.026184 25.689496 -7.533571
v -2.715989 27.908329 -7.567014
v -5.770645 29.252161 -7.604993
v -8.933981 29.704868 -7.644323
v -11.949823 29.268494 -7.681819
v -14.932674 27.761438 -7.718905
v -17.95822 25.19582 -7.756522
v -20.712068 21.898092 -7.790761
v -22.879826 18.218057 -7.817713
v -24.409095 14.265543 -7.836727
v -25.457071 9.959276 -7.849756
v -26.023754 5.388148 -7.856802
v -26.109145 0.649294 -7.857864
v -25.672488 -4.320104 -7.852435
v -24.727369 -9.369431 -7.840684
v -23.355297 -14.086105 -7.823625
v -21.63778 -18.071562 -7.802271
v -19.40792 -21.065517 -7.774547
v -16.685123 -23.248475 -7.740694
v -13.830358 -25.148441 -7.7052
v -11.204596 -27.241888 -7.672554
v -8.763199 -29.497856 -7.6422
v -6.360617 -31.792521 -7.612328
v -4.206444 -34.288404 -7.585545
v -2.510275 -37.148029 -7.564456
v -1.394375 -40.862831 -7.550582
v -0.724834 -45.196768 -7.542258
v -0.326992 -49.221138 -7.537311
v -0.026184 -52.00724 -7.533571
v 7.366955 -8.583798 0.129276
v 7.640065 -5.458203 0.135739
v 8.074734 -0.637917 0.146025
v 8.278606 4.819532 0.15085
v 7.859323 9.835939 0.140928
v 6.670715 14.24875 0.112799
v 4.935886 18.456997 0.071743
v 2.816394 22.20581 0.021585
v 0.473797 25.237603 -0.033853
v -2.191916 27.40311 -0.096938
v -5.219212 28.707101 -0.16858
v -8.354214 29.135178 -0.242771
v -11.343043 28.690547 -0.313503
v -14.299177 27.194098 -0.383461
v -17.297623 24.658069 -0.45442
v -20.026806 21.405471 -0.519007
v -22.175148 17.781945 -0.569848
v -23.690719 13.895036 -0.605715
v -24.729309 9.662666 -0.630293
v -25.290916 5.170983 -0.643584
v -25.375542 0.514129 -0.645587
v -24.942796 -4.372212 -0.635346
v -24.006142 -9.340925 -0.613179
v -22.64636 -13.985277 -0.581
v -20.944227 -17.912128 -0.540718
v -18.734339 -20.864881 -0.48842
v -16.035929 -23.022974 -0.424562
v -13.206735 -24.904512 -0.357608
v -10.604491 -26.977652 -0.296025
v -8.184962 -29.211739 -0.238766
v -5.803899 -31.484147 -0.182417
v -3.669021 -33.955821 -0.131895
v -1.988044 -36.787708 -0.092114
v -0.882139 -40.466479 -0.065942
v -0.218596 -44.758378 -0.050239
v 0.175684 -48.743713 -0.040908
v 0.473797 -51.502791 -0.033853
v 7.759803 -8.444061 7.702566
v 8.028669 -5.376467 7.711944
v 8.456582 -0.655591 7.72687
v 8.657285 4.679478 7.733871
v 8.244519 9.57005 7.719473
v 7.074384 13.858798 7.678658
v 5.366517 17.941314 7.619086
v 3.279967 21.570221 7.546306
v 0.973779 24.495571 7.465865
v -1.650504 26.573866 7.374328
v -4.63075 27.812836 7.270374
v -7.717028 28.200878 7.162723
v -10.659405 27.74308 7.06009
v -13.569595 26.26444 6.958581
v -16.52144 23.777381 6.855618
v -19.208205 20.599205 6.761902
v -21.323157 17.068672 6.688131
v -22.815174 13.289587 6.636088
v -23.837622 9.178603 6.600425
v -24.390501 4.817397 6.58114
v -24.473812 0.295225 6.578234
v -24.047792 -4.454625 6.593094
v -23.125695 -9.290763 6.625257
v -21.787046 -13.816099 6.67195
v -20.111367 -17.646431 6.730399
v -17.935826 -20.531247 6.806284
v -15.279355 -22.648178 6.898943
v -12.494131 -24.499086 6.996094
v -9.932331 -26.538478 7.085451
v -7.550407 -28.736196 7.168535
v -5.20635 -30.97161 7.250297
v -3.104652 -33.403047 7.323606
v -1.449801 -36.188834 7.381328
v -0.361084 -39.807717 7.419304
v 0.292147 -44.029747 7.442089
v 0.680298 -47.950204 7.455628
v 0.973779 -50.664367 7.465865
v 8.108214 -8.24928 15.271294
v 8.371075 -5.261476 15.283406
v 8.78943 -0.676057 15.302684
v 8.98565 4.493411 15.311725
v 8.582104 9.215145 15.29313
v 7.438105 13.338724 15.240416
v 5.768384 17.254487 15.163476
v 3.728438 20.725009 15.069476
v 1.47376 23.510473 14.965582
v -1.091908 25.474925 14.847358
v -4.005588 26.629771 14.713098
v -7.022932 26.966923 14.57406
v -9.89959 26.493803 14.441506
v -12.744779 25.040962 14.310401
v -15.630692 22.62102 14.17742
v -18.257447 19.543391 14.056381
v -20.325161 16.137426 13.961102
v -21.783852 12.502016 13.893887
v -22.783463 8.552432 13.847825
v -23.323993 4.364574 13.822918
v -23.405443 0.021386 13.819165
v -22.988939 -4.546673 13.838357
v -22.087438 -9.205696 13.879898
v -20.778688 -13.571587 13.940204
v -19.140437 -17.272226 14.015694
v -17.013487 -20.065297 14.113702
v -14.41635 -22.125748 14.233376
v -11.693336 -23.933961 14.358851
v -9.188756 -25.92631 14.474261
v -6.860033 -28.073332 14.581567
v -4.568332 -30.257182 14.687167
v -2.513577 -32.632533 14.781849
v -0.895688 -35.354059 14.8564
v 0.168712 -38.889465 14.905447
v 0.807353 -43.014105 14.934875
v 1.186835 -46.844128 14.952361
v 1.47376 -49.495682 14.965582
v 8.414084 -8.001934 22.834082
v 8.669254 -5.113524 22.848693
v 9.075369 -0.694445 22.871948
v 9.265848 4.273815 22.882855
v 8.874108 8.793113 22.860424
v 7.76358 12.721096 22.796834
v 6.142713 16.440606 22.704021
v 4.162451 19.725948 22.590628
v 1.973741 22.349239 22.4653
v -0.51686 24.183201 22.322685
v -3.345292 25.243083 22.160726
v -6.274354 25.524567 21.993004
v -9.066847 25.037519 21.833103
v -11.82879 23.619213 21.674951
v -14.630268 21.282419 21.514535
v -17.180169 18.326654 21.368524
v -19.187385 15.069664 21.253589
v -20.603398 11.604635 21.172506
v -21.573762 7.84579 21.116942
v -22.098478 3.862525 21.086896
v -22.177544 -0.269325 21.082368
v -21.773226 -4.621957 21.10552
v -20.898101 -9.070069 21.155631
v -19.627643 -13.245245 21.228379
v -18.037324 -16.79002 21.319442
v -15.972605 -19.471968 21.437671
v -13.451455 -21.462331 21.582035
v -10.808111 -23.216326 21.733396
v -8.37681 -25.148936 21.872615
v -6.116221 -27.231583 22.002059
v -3.891571 -29.349952 22.129445
v -1.896934 -31.65408 22.243661
v -0.326381 -34.294004 22.333592
v 0.706877 -37.723405 22.392758
v 1.326832 -41.724372 22.428257
v 1.695211 -45.439556 22.449351
v 1.973741 -48.011606 22.4653
v 8.680767 -7.706307 30.389744
v 8.926694 -4.933931 30.406572
v 9.318098 -0.705538 30.433354
v 9.501677 4.035249 30.445916
v 9.124128 8.329729 30.420081
v 8.053828 12.044194 30.346845
v 6.491676 15.551341 30.239952
v 4.583148 18.638195 30.109359
v 2.473722 21.089801 29.965018
v 0.073341 22.787955 29.800769
v -2.652632 23.751324 29.61424
v -5.475591 23.979102 29.421076
v -8.166927 23.483323 29.236917
v -10.828821 22.108834 29.054773
v -13.528816 19.868437 28.870023
v -15.986349 17.049994 28.701863
v -17.920855 13.957869 28.569491
v -19.285574 10.679199 28.476109
v -20.220787 7.127965 28.412115
v -20.726495 3.366981 28.377512
v -20.802697 -0.535115 28.372297
v -20.413025 -4.652359 28.398961
v -19.569601 -8.86844 28.456674
v -18.345165 -12.832513 28.540457
v -16.812454 -16.203641 28.645335
v -14.822528 -18.760483 28.781499
v -12.392705 -20.669415 28.947763
v -9.845115 -22.35861 29.122085
v -7.501886 -24.219821 29.282424
v -5.323186 -26.225525 29.431504
v -3.179122 -28.265632 29.578215
v -1.25674 -30.484635 29.709756
v 0.25692 -33.027028 29.81333
v 1.252749 -36.329731 29.881471
v 1.850247 -40.182884 29.922356
v 2.205281 -43.760812 29.94665
v 2.473722 -46.23784 29.965018
v 8.912989 -7.368367 37.937354
v 9.148307 -4.725171 37.956079
v 9.522827 -0.704572 37.985882
v 9.698487 3.792495 37.99986
v 9.337224 7.851466 37.971112
v 8.313095 11.347253 37.889617
v 6.818331 14.639474 37.770672
v 4.992133 17.528067 37.625352
v 2.973703 19.811182 37.464736
v 0.67687 21.379363 37.281966
v -1.93151 22.253705 37.074404
v -4.632692 22.436172 36.859458
v -7.20793 21.940336 36.654534
v -9.754995 20.619123 36.451852
v -12.338518 18.485182 36.246268
v -14.690038 15.813273 36.059147
v -16.541093 12.893069 35.911849
v -17.846941 9.805764 35.807936
v -18.741811 6.466329 35.736727
v -19.225704 2.931542 35.698222
v -19.298619 -0.736548 35.692419
v -18.925756 -4.612411 35.72209
v -18.118716 -8.588391 35.78631
v -16.947099 -12.332258 35.879541
v -15.480507 -15.520738 35.996245
v -13.576422 -17.944232 36.147762
v -11.251417 -19.763012 36.332774
v -8.813724 -21.378132 36.526753
v -6.571578 -23.157724 36.705172
v -4.486862 -25.075473 36.871063
v -2.435289 -27.026116 37.034316
v -0.595834 -29.147811 37.180691
v 0.85253 -31.578714 37.295944
v 1.805401 -34.736586 37.371769
v 2.377123 -38.420769 37.417263
v 2.716843 -41.841796 37.444296
v 2.973703 -44.2102 37.464736
v 9.116703 -6.995589 45.476313
v 9.340282 -4.490948 45.496594
v 9.69612 -0.687968 45.52887
v 9.863017 3.558826 45.544009
v 9.519776 7.382471 45.512875
v 8.546733 10.665959 45.424613
v 7.126531 13.752788 45.295792
v 5.391429 16.455287 45.138406
v 3.473685 18.584155 44.964454
v 1.291424 20.037739 44.766508
v -1.186844 20.838127 44.541713
v -3.753283 20.988923 44.30892
v -6.200061 20.504325 44.086981
v -8.620072 19.245508 43.867469
v -11.074722 17.224742 43.644816
v -13.308941 14.702581 43.442157
v -15.067661 11.953191 43.28263
v -16.308369 9.052309 43.170089
v -17.1586 5.91744 43.092968
v -17.618355 2.600406 43.051265
v -17.687633 -0.842158 43.044981
v -17.33337 -4.48329 43.077115
v -16.566587 -8.223043 43.146667
v -15.453414 -11.748043 43.247639
v -14.059979 -14.753095 43.374033
v -12.250875 -17.040497 43.538131
v -10.041848 -18.76317 43.738505
v -7.725754 -20.296578 43.94859
v -5.595452 -21.986138 44.141823
v -3.614727 -23.806865 44.321488
v -1.665493 -25.658822 44.498296
v 0.082206 -27.673177 44.656824
v 1.458321 -29.981097 44.781647
v 2.36366 -32.979206 44.863767
v 2.906864 -36.477001 44.91304
v 3.229637 -39.724953 44.942317
v 3.473685 -41.973535 44.964454
v 8.321223 -5.385602 52.906849
v 8.493476 -3.45845 52.924388
v 8.767624 -0.533825 52.952302
v 8.896207 2.730592 52.965395
v 8.631763 5.667657 52.938468
v 7.882101 8.187677 52.862136
v 6.787933 10.555551 52.750726
v 5.451156 12.627299 52.614613
v 3.973666 14.2577 52.464172
v 2.292384 15.368996 52.29298
v 0.383049 15.978643 52.098568
v -1.594216 16.089798 51.897239
v -3.47929 15.713681 51.705297
v -5.343742 14.743594 51.515455
v -7.234881 13.189041 51.322896
v -8.956193 11.250543 51.147628
v -10.311166 9.138982 51.009663
v -11.267046 6.912369 50.912333
v -11.922091 4.506803 50.845635
v -12.276301 1.961724 50.809569
v -12.329675 -0.679769 50.804134
v -12.056739 -3.47442 50.831925
v -11.465986 -6.345777 50.892077
v -10.608362 -9.053043 50.979401
v -9.534816 -11.361637 51.088712
v -8.141026 -13.119643 51.23063
v -6.439122 -14.444955 51.403922
v -4.654732 -15.62546 51.585612
v -3.01348 -16.926179 51.752727
v -1.487468 -18.327878 51.908109
v 0.014283 -19.75362 52.06102
v 1.360764 -21.304385 52.198121
v 2.420967 -23.081153 52.306073
v 3.118468 -25.389268 52.377094
v 3.536969 -28.08207 52.419707
v 3.785644 -30.582528 52.445027
v 3.973666 -32.313614 52.464172
v 7.844435 -4.172504 60.344521
v 7.977988 -2.677675 60.359602
v 8.190543 -0.406627 60.383604
v 8.290237 2.130797 60.394861
v 8.085206 4.417241 60.371709
v 7.50397 6.382575 60.306076
v 6.65563 8.231273 60.210281
v 5.619188 9.850956 60.093245
v 4.473647 11.128262 59.96389
v 3.1701 12.002118 59.816692
v 1.689737 12.485297 59.649529
v 0.156706 12.579611 59.476418
v -1.304847 12.293271 59.311379
v -2.750411 11.543319 59.148145
v -4.216666 10.337021 58.982574
v -5.55125 8.829845 58.831872
v -6.601799 7.185482 58.713243
v -7.342921 5.449368 58.629555
v -7.850797 3.572643 58.572206
v -8.125426 1.586623 58.541195
v -8.166808 -0.47447 58.536522
v -7.955193 -2.653744 58.560417
v -7.497165 -4.891144 58.612138
v -6.832224 -6.999362 58.687224
v -5.999873 -8.796027 58.781213
v -4.919227 -10.16297 58.903241
v -3.599691 -11.191251 59.052243
v -2.216201 -12.105849 59.208468
v -0.943691 -13.113583 59.352161
v 0.239471 -14.199552 59.485764
v 1.403822 -15.304148 59.617243
v 2.447788 -16.505605 59.735129
v 3.269794 -17.882159 59.82795
v 3.810587 -19.670375 59.889017
v 4.135063 -21.756627 59.925657
v 4.327868 -23.693861 59.947428
v 4.473647 -25.035023 59.96389
vt 0.10351562 0.92215599
vt 0.10351562 0.92214609
vt 0.10351562 0.92213094
vt 0.10351562 0.92211397
vt 0.10351562 0.92209851
vt 0.10351562 0.9220846
vt 0.10351562 0.92207079
vt 0.10351562 0.92205774
vt 0.10351562 0.92204612
vt 0.10351562 0.92203562
vt 0.10351562 0.92202536
vt 0.10351562 0.92201537
vt 0.10351562 0.92200574
vt 0.10351562 0.92199518
vt 0.10351562 0.92198276
vt 0.10351562 0.92196946
vt 0.10351562 0.92195643
vt 0.10351562 0.92194368
vt 0.10351562 0.92193046
vt 0.10351562 0.92191677
vt 0.10351562 0.92190269
vt 0.10351562 0.9218878
vt 0.10351562 0.92187235
vt 0.10351562 0.92185747
vt 0.10351562 0.92184423
vt 0.10351562 0.9218327
vt 0.10351562 0.92182177
vt 0.10351562 0.92181097
vt 0.10351562 0.9218004
vt 0.10351562 0.92178993
vt 0.10351562 0.92177947
vt 0.10351562 0.92176908
vt 0.10351562 0.9217586
vt 0.10351562 0.92174637
vt 0.10351562 0.92173253
vt 0.10351562 0.92171978
vt 0.10351562 0.92171094
vt 0.11819658 1.00810431
vt 0.11819658 1.00508146
vt 0.11819658 1.00044986
vt 0.11819658 0.99525501
vt 0.11819658 0.99050829
vt 0.11819658 0.98623287
vt 0.11819658 0.98198403
vt 0.11819658 0.97796905
vt 0.11819658 0.97439683
vt 0.11819658 0.97117218
vt 0.11819658 0.9680354
vt 0.11819658 0.96498809
vt 0.11819658 0.96205576
vt 0.11819658 0.95884
vt 0.11819658 0.95505233
vt 0.11819658 0.95098942
vt 0.11819658 0.94699687
vt 0.11819658 0.94308048
vt 0.11819658 0.9390125
vt 0.11819658 0.93479899
vt 0.11819658 0.93046433
vt 0.11819658 0.92588245
vt 0.11819658 0.92113592
vt 0.11819658 0.91657177
vt 0.11819658 0.91251449
vt 0.11819658 0.90898971
vt 0.11819658 0.90565558
vt 0.11819658 0.9023663
vt 0.11819658 0.89914439
vt 0.11819658 0.89595442
vt 0.11819658 0.89276601
vt 0.11819658 0.88960104
vt 0.11819658 0.88640769
vt 0.11819658 0.88268027
vt 0.11819658 0.87846529
vt 0.11819658 0.87457825
vt 0.11819658 0.87188474
vt 0.13287753 1.09232967
vt 0.13287753 1.08639551
vt 0.13287753 1.07728366
vt 0.13287753 1.06704397
vt 0.13287753 1.05766141
vt 0.13287753 1.04918959
vt 0.13287753 1.0407653
vt 0.13287753 1.03280275
vt 0.13287753 1.02571987
vt 0.13287753 1.01934281
vt 0.13287753 1.0131681
vt 0.13287753 1.00719295
vt 0.13287753 1.00145652
vt 0.13287753 0.99516424
vt 0.13287753 0.98773634
vt 0.13287753 0.9797471
vt 0.13287753 0.97187079
vt 0.13287753 0.96411968
vt 0.13287753 0.95605303
vt 0.13287753 0.94768964
vt 0.13287753 0.9390851
vt 0.13287753 0.93000058
vt 0.13287753 0.92060526
vt 0.13287753 0.91158501
vt 0.13287753 0.9035805
vt 0.13287753 0.89664623
vt 0.13287753 0.89010892
vt 0.13287753 0.8836668
vt 0.13287753 0.87735662
vt 0.13287753 0.871109
vt 0.13287753 0.86486444
vt 0.13287753 0.85866577
vt 0.13287753 0.85241153
vt 0.13287753 0.8451113
vt 0.13287753 0.83685618
vt 0.13287753 0.82924333
vt 0.13287753 0.82396802
vt 0.14755849 1.09693325
vt 0.14755849 1.09088273
vt 0.14755849 1.08157142
vt 0.14755849 1.07108651
vt 0.14755849 1.06145148
vt 0.14755849 1.05272949
vt 0.14755849 1.04405087
vt 0.14755849 1.03584564
vt 0.14755849 1.02854823
vt 0.14755849 1.02199519
vt 0.14755849 1.01568028
vt 0.14755849 1.00959472
vt 0.14755849 1.0037669
vt 0.14755849 0.99737319
vt 0.14755849 0.98980783
vt 0.14755849 0.98164764
vt 0.14755849 0.97357566
vt 0.14755849 0.96560541
vt 0.14755849 0.95729438
vt 0.14755849 0.94866905
vt 0.14755849 0.93979434
vt 0.14755849 0.93043593
vt 0.14755849 0.9207738
vt 0.14755849 0.91151228
vt 0.14755849 0.90330845
vt 0.14755849 0.89622239
vt 0.14755849 0.88956537
vt 0.14755849 0.88301301
vt 0.14755849 0.87659486
vt 0.14755849 0.87024033
vt 0.14755849 0.86388892
vt 0.14755849 0.85758418
vt 0.14755849 0.85122292
vt 0.14755849 0.84379777
vt 0.14755849 0.8354014
vt 0.14755849 0.82765829
vt 0.14755849 0.82229271
vt 0.16223944 1.10070074
vt 0.16223944 1.09455908
vt 0.16223944 1.08508893
vt 0.16223944 1.07440643
vt 0.16223944 1.06456512
vt 0.16223944 1.05563666
vt 0.16223944 1.04674755
vt 0.16223944 1.03834109
vt 0.16223944 1.03086563
vt 0.16223944 1.02416748
vt 0.16223944 1.01773942
vt 0.16223944 1.01156755
vt 0.16223944 1.00567051
vt 0.16223944 0.99920004
vt 0.16223944 0.991528
vt 0.16223944 0.98323203
vt 0.16223944 0.97500152
vt 0.16223944 0.96685117
vt 0.16223944 0.95833793
vt 0.16223944 0.94949524
vt 0.16223944 0.94039631
vt 0.16223944 0.93081144
vt 0.16223944 0.92093005
vt 0.16223944 0.91147147
vt 0.16223944 0.90310618
vt 0.16223944 0.89589918
vt 0.16223944 0.88914941
vt 0.16223944 0.88251269
vt 0.16223944 0.87601191
vt 0.16223944 0.86957558
vt 0.16223944 0.8631424
vt 0.16223944 0.85675649
vt 0.16223944 0.85031333
vt 0.16223944 0.84279259
vt 0.16223944 0.83428812
vt 0.16223944 0.82644533
vt 0.16223944 0.82101067
vt 0.17692039 1.1032121
vt 0.17692039 1.097012
vt 0.17692039 1.08743847
vt 0.17692039 1.07662601
vt 0.17692039 1.06664741
vt 0.17692039 1.05758034
vt 0.17692039 1.0485496
vt 0.17692039 1.04000752
vt 0.17692039 1.03241194
vt 0.17692039 1.02561641
vt 0.17692039 1.01911378
vt 0.17692039 1.01288664
vt 0.17692039 1.00694658
vt 0.17692039 1.00042849
vt 0.17692039 0.99268864
vt 0.17692039 0.9843045
vt 0.17692039 0.97596922
vt 0.17692039 0.96769838
vt 0.17692039 0.95904912
vt 0.17692039 0.95005986
vt 0.17692039 0.94080972
vt 0.17692039 0.93107263
vt 0.17692039 0.92104455
vt 0.17692039 0.91145487
vt 0.17692039 0.90298288
vt 0.17692039 0.89569713
vt 0.17692039 0.88888849
vt 0.17692039 0.88219886
vt 0.17692039 0.87564625
vt 0.17692039 0.86915861
vt 0.17692039 0.86267413
vt 0.17692039 0.85623731
vt 0.17692039 0.84974279
vt 0.17692039 0.84216208
vt 0.17692039 0.83358981
vt 0.17692039 0.82568449
vt 0.17692039 0.8202065
vt 0.19160135 1.10413433
vt 0.19160135 1.09791458
vt 0.19160135 1.08830503
vt 0.19160135 1.07744618
vt 0.19160135 1.06741725
vt 0.19160135 1.05829846
vt 0.19160135 1.04921463
vt 0.19160135 1.04062159
vt 0.19160135 1.03298087
vt 0.19160135 1.02614927
vt 0.19160135 1.01962016
vt 0.19160135 1.01337467
vt 0.19160135 1.00742136
vt 0.19160135 1.00088859
vt 0.19160135 0.99312643
vt 0.19160135 0.98471176
vt 0.19160135 0.97633872
vt 0.19160135 0.96802326
vt 0.19160135 0.95932302
vt 0.19160135 0.95027852
vt 0.19160135 0.94097138
vt 0.19160135 0.93117728
vt 0.19160135 0.92109486
vt 0.19160135 0.91145717
vt 0.19160135 0.90294672
vt 0.19160135 0.89563351
vt 0.19160135 0.8888056
vt 0.19160135 0.88209916
vt 0.19160135 0.87553009
vt 0.19160135 0.86902614
vt 0.19160135 0.86252537
vt 0.19160135 0.85607237
vt 0.19160135 0.84956153
vt 0.19160135 0.84196178
vt 0.19160135 0.83336796
vt 0.19160135 0.82544277
vt 0.19160135 0.81995102
vt 0.2062823 1.10325942
vt 0.2062823 1.09706307
vt 0.2062823 1.08749278
vt 0.2062823 1.07668139
vt 0.2062823 1.06670037
vt 0.2062823 1.0576284
vt 0.2062823 1.04859206
vt 0.2062823 1.04004435
vt 0.2062823 1.03244384
vt 0.2062823 1.02564586
vt 0.2062823 1.01914453
vt 0.2062823 1.0129218
vt 0.2062823 1.00698787
vt 0.2062823 1.00047644
vt 0.2062823 0.99274228
vt 0.2062823 0.98436144
vt 0.2062823 0.97602608
vt 0.2062823 0.96775192
vt 0.2062823 0.95909724
vt 0.2062823 0.95010132
vt 0.2062823 0.94084425
vt 0.2062823 0.93110123
vt 0.2062823 0.92106902
vt 0.2062823 0.91147718
vt 0.2062823 0.90300507
vt 0.2062823 0.89572176
vt 0.2062823 0.8889183
vt 0.2062823 0.88223471
vt 0.2062823 0.87568802
vt 0.2062823 0.86920624
vt 0.2062823 0.86272762
vt 0.2062823 0.85629662
vt 0.2062823 0.84980796
vt 0.2062823 0.84223411
vt 0.2062823 0.83366958
vt 0.2062823 0.8257714
vt 0.2062823 0.82029836
vt 0.22096325 1.10052846
vt 0.22096325 1.0944007
vt 0.22096325 1.08494816
vt 0.22096325 1.07428171
vt 0.22096325 1.06445013
vt 0.22096325 1.05552646
vt 0.22096325 1.04664109
vt 0.22096325 1.03823769
vt 0.22096325 1.0307651
vt 0.22096325 1.02407249
vt 0.22096325 1.01765518
vt 0.22096325 1.01149829
vt 0.22096325 1.00561837
vt 0.22096325 0.99916655
vt 0.22096325 0.99151336
vt 0.22096325 0.98323352
vt 0.22096325 0.97501404
vt 0.22096325 0.96686981
vt 0.22096325 0.95836004
vt 0.22096325 0.94951942
vt 0.22096325 0.94042252
vt 0.22096325 0.93084181
vt 0.22096325 0.92096765
vt 0.22096325 0.91151867
vt 0.22096325 0.90316453
vt 0.22096325 0.89597092
vt 0.22096325 0.88923796
vt 0.22096325 0.88261921
vt 0.22096325 0.87613602
vt 0.22096325 0.8697171
vt 0.22096325 0.86330133
vt 0.22096325 0.8569327
vt 0.22096325 0.85050698
vt 0.22096325 0.84300659
vt 0.22096325 0.83452513
vt 0.22096325 0.82670356
vt 0.22096325 0.82128361
vt 0.23564421 1.09603674
vt 0.23564421 1.09002259
vt 0.23564421 1.08076467
vt 0.23564421 1.07033731
vt 0.23564421 1.06075175
vt 0.23564421 1.05207184
vt 0.23564421 1.0434344
vt 0.23564421 1.0352678
vt 0.23564421 1.02800489
vt 0.23564421 1.02148489
vt 0.23564421 1.0152055
vt 0.23564421 1.00915728
vt 0.23564421 1.00336705
vt 0.23564421 0.99701446
vt 0.23564421 0.98949556
vt 0.23564421 0.98138264
vt 0.23564421 0.97335409
vt 0.23564421 0.96542347
vt 0.23564421 0.95715178
vt 0.23564421 0.94856624
vt 0.23564421 0.93973239
vt 0.23564421 0.93041843
vt 0.23564421 0.92080422
vt 0.23564421 0.91159043
vt 0.23564421 0.90343068
vt 0.23564421 0.89638525
vt 0.23564421 0.88976927
vt 0.23564421 0.88325826
vt 0.23564421 0.87688061
vt 0.23564421 0.87056619
vt 0.23564421 0.86425486
vt 0.23564421 0.85798991
vt 0.23564421 0.85166879
vt 0.23564421 0.84429051
vt 0.23564421 0.83594712
vt 0.23564421 0.82825288
vt 0.23564421 0.82292116
vt 0.25032516 1.09001841
vt 0.25032516 1.08416055
vt 0.25032516 1.07516785
vt 0.25032516 1.06506404
vt 0.25032516 1.05580863
vt 0.25032516 1.04745372
vt 0.25032516 1.03914621
vt 0.25032516 1.03129424
vt 0.25032516 1.02430957
vt 0.25032516 1.0180193
vt 0.25032516 1.01192574
vt 0.25032516 1.00602674
vt 0.25032516 1.00036205
vt 0.25032516 0.9941486
vt 0.25032516 0.98681543
vt 0.25032516 0.97893028
vt 0.25032516 0.97115914
vt 0.25032516 0.96351407
vt 0.25032516 0.95555933
vt 0.25032516 0.94731278
vt 0.25032516 0.93882852
vt 0.25032516 0.92986991
vt 0.25032516 0.92060323
vt 0.25032516 0.91170508
vt 0.25032516 0.90380751
vt 0.25032516 0.8969639
vt 0.25032516 0.89050986
vt 0.25032516 0.88414904
vt 0.25032516 0.87791851
vt 0.25032516 0.87174974
vt 0.25032516 0.865584
vt 0.25032516 0.85946356
vt 0.25032516 0.85328826
vt 0.25032516 0.84608016
vt 0.25032516 0.83792924
vt 0.25032516 0.83041248
vt 0.25032516 0.82520375
vt 0.26500611 1.08281309
vt 0.26500611 1.07714996
vt 0.26500611 1.06848301
vt 0.26500611 1.05877233
vt 0.26500611 1.04991288
vt 0.26500611 1.04194386
vt 0.26500611 1.03402698
vt 0.26500611 1.02654679
vt 0.26500611 1.01989051
vt 0.26500611 1.01387311
vt 0.26500611 1.00800486
vt 0.26500611 1.00229198
vt 0.26500611 0.99678792
vt 0.26500611 0.9907527
vt 0.26500611 0.98365272
vt 0.26500611 0.97604795
vt 0.26500611 0.96858801
vt 0.26500611 0.96128336
vt 0.26500611 0.95370403
vt 0.26500611 0.94585781
vt 0.26500611 0.93778633
vt 0.26500611 0.92924893
vt 0.26500611 0.92039666
vt 0.26500611 0.91187719
vt 0.26500611 0.9042966
vt 0.26500611 0.89770073
vt 0.26500611 0.89145031
vt 0.26500611 0.88528021
vt 0.26500611 0.8792365
vt 0.26500611 0.87325269
vt 0.26500611 0.86727182
vt 0.26500611 0.8613349
vt 0.26500611 0.85534476
vt 0.26500611 0.84835279
vt 0.26500611 0.84044626
vt 0.26500611 0.83315489
vt 0.26500611 0.82810233
vt 0.27968707 1.07482062
vt 0.27968707 1.06938485
vt 0.27968707 1.06109144
vt 0.27968707 1.05182524
vt 0.27968707 1.04340567
vt 0.27968707 1.03585959
vt 0.27968707 1.02836929
vt 0.27968707 1.02129423
vt 0.27968707 1.01499558
vt 0.27968707 1.00927861
vt 0.27968707 1.0036657
vt 0.27968707 0.99817137
vt 0.27968707 0.99286139
vt 0.27968707 0.98704143
vt 0.27968707 0.98021637
vt 0.27968707 0.97293417
vt 0.27968707 0.96582386
vt 0.27968707 0.95889452
vt 0.27968707 0.95172518
vt 0.27968707 0.94431428
vt 0.27968707 0.93669157
vt 0.27968707 0.92861462
vt 0.27968707 0.92021912
vt 0.27968707 0.91212062
vt 0.27968707 0.90489616
vt 0.27968707 0.89858426
vt 0.27968707 0.89257433
vt 0.27968707 0.88663219
vt 0.27968707 0.88081176
vt 0.27968707 0.87504902
vt 0.27968707 0.86928911
vt 0.27968707 0.86357153
vt 0.27968707 0.85780269
vt 0.27968707 0.85106903
vt 0.27968707 0.84345461
vt 0.27968707 0.83643261
vt 0.27968707 0.83156672
vt 0.29436802 1.06645211
vt 0.29436802 1.06126951
vt 0.29436802 1.05338329
vt 0.29436802 1.04459336
vt 0.29436802 1.03663481
vt 0.29436802 1.02952434
vt 0.29436802 1.02247153
vt 0.29436802 1.01581109
vt 0.29436802 1.00987869
vt 0.29436802 1.0044746
vt 0.29436802 0.99913776
vt 0.29436802 0.99388951
vt 0.29436802 0.98880445
vt 0.29436802 0.98323338
vt 0.29436802 0.97671789
vt 0.29436802 0.96978883
vt 0.29436802 0.96305048
vt 0.29436802 0.95651082
vt 0.29436802 0.94976175
vt 0.29436802 0.94279444
vt 0.29436802 0.9356288
vt 0.29436802 0.92802433
vt 0.29436802 0.92010273
vt 0.29436802 0.91244591
vt 0.29436802 0.90560018
vt 0.29436802 0.89959782
vt 0.29436802 0.89385924
vt 0.29436802 0.88817767
vt 0.29436802 0.88261248
vt 0.29436802 0.87710245
vt 0.29436802 0.87159513
vt 0.29436802 0.86612827
vt 0.29436802 0.86061241
vt 0.29436802 0.85417405
vt 0.29436802 0.84689353
vt 0.29436802 0.84017946
vt 0.29436802 0.83552695
vt 0.30904897 1.05808617
vt 0.30904897 1.05317516
vt 0.30904897 1.04571555
vt 0.30904897 1.03741473
vt 0.30904897 1.02991714
vt 0.30904897 1.02323284
vt 0.30904897 1.01660592
vt 0.30904897 1.01034841
vt 0.30904897 1.00477279
vt 0.30904897 0.99968081
vt 0.30904897 0.99463225
vt 0.30904897 0.9896523
vt 0.30904897 0.98481928
vt 0.30904897 0.97952603
vt 0.30904897 0.97334668
vt 0.30904897 0.96678958
vt 0.30904897 0.96043024
vt 0.30904897 0.95427583
vt 0.30904897 0.94793541
vt 0.30904897 0.94139591
vt 0.30904897 0.93467081
vt 0.30904897 0.92752619
vt 0.30904897 0.92007251
vt 0.30904897 0.91285798
vt 0.30904897 0.90639786
vt 0.30904897 0.90071991
vt 0.30904897 0.8952766
vt 0.30904897 0.88988247
vt 0.30904897 0.88459883
vt 0.30904897 0.87936757
vt 0.30904897 0.87413887
vt 0.30904897 0.86894859
vt 0.30904897 0.86371178
vt 0.30904897 0.85759915
vt 0.30904897 0.85068696
vt 0.30904897 0.84431257
vt 0.30904897 0.83989544
vt 0.32372993 1.02650724
vt 0.32372993 1.02272853
vt 0.32372993 1.01699178
vt 0.32372993 1.01061111
vt 0.32372993 1.00485186
vt 0.32372993 0.99972052
vt 0.32372993 0.99463391
vt 0.32372993 0.989831
vt 0.32372993 0.98555097
vt 0.32372993 0.9816393
vt 0.32372993 0.97775656
vt 0.32372993 0.97392327
vt 0.32372993 0.97020137
vt 0.32372993 0.96612544
vt 0.32372993 0.96136965
vt 0.32372993 0.95632633
vt 0.32372993 0.95143891
vt 0.32372993 0.94671285
vt 0.32372993 0.94184641
vt 0.32372993 0.9368285
vt 0.32372993 0.9316683
vt 0.32372993 0.92618449
vt 0.32372993 0.92046099
vt 0.32372993 0.91491891
vt 0.32372993 0.90995418
vt 0.32372993 0.90558752
vt 0.32372993 0.90139804
vt 0.32372993 0.89724533
vt 0.32372993 0.89317769
vt 0.32372993 0.88915036
vt 0.32372993 0.88512501
vt 0.32372993 0.88112924
vt 0.32372993 0.87709765
vt 0.32372993 0.87239179
vt 0.32372993 0.8670704
vt 0.32372993 0.86216303
vt 0.32372993 0.85876247
vt 0.33841088 1.0033225
vt 0.33841088 1.00039151
vt 0.33841088 0.99593685
vt 0.33841088 0.9909772
vt 0.33841088 0.98649391
vt 0.33841088 0.98249414
vt 0.33841088 0.97852808
vt 0.33841088 0.97478297
vt 0.33841088 0.9714464
vt 0.33841088 0.9684018
vt 0.33841088 0.96538707
vt 0.33841088 0.96241628
vt 0.33841088 0.95953465
vt 0.33841088 0.9563783
vt 0.33841088 0.95269137
vt 0.33841088 0.94877623
vt 0.33841088 0.9449758
vt 0.33841088 0.94129442
vt 0.33841088 0.93749961
vt 0.33841088 0.93358446
vt 0.33841088 0.92955809
vt 0.33841088 0.92528207
vt 0.33841088 0.92082325
vt 0.33841088 0.91650947
vt 0.33841088 0.9126487
vt 0.33841088 0.90925806
vt 0.33841088 0.90601044
vt 0.33841088 0.90279313
vt 0.33841088 0.89964171
vt 0.33841088 0.89652154
vt 0.33841088 0.89340289
vt 0.33841088 0.89030716
vt 0.33841088 0.88718368
vt 0.33841088 0.88353781
vt 0.33841088 0.87941505
vt 0.33841088 0.87561306
vt 0.33841088 0.87297847
vn 0.993956 -0.087519 -0.066264
vn 0.993767 -0.08966 -0.066251
vn 0.995795 -0.063122 -0.066386
vn 0.997563 0.021117 -0.066504
vn 0.98248 0.174481 -0.065499
vn 0.939968 0.33546 -0.062665
vn 0.887854 0.456303 -0.05919
vn 0.815781 0.575799 -0.054385
vn 0.688488 0.723794 -0.045899
vn 0.476471 0.878616 -0.031765
vn 0.225067 0.974228 -0.015004
vn -0.038033 0.999273 0.002536
vn -0.326383 0.944987 0.021759
vn -0.560505 0.827307 0.037367
vn -0.703356 0.709289 0.04689
vn -0.805714 0.589864 0.053714
vn -0.889779 0.45252 0.059319
vn -0.947724 0.312775 0.063182
vn -0.979791 0.189056 0.065319
vn -0.995051 0.073977 0.066337
vn -0.997057 -0.038187 0.06647
vn -0.987475 -0.143386 0.065832
vn -0.968472 -0.240612 0.064565
vn -0.936056 -0.346274 0.062404
vn -0.861427 -0.504625 0.057428
vn -0.713794 -0.698737 0.047586
vn -0.587866 -0.808009 0.039191
vn -0.588767 -0.807349 0.039251
vn -0.651018 -0.757821 0.043401
vn -0.684282 -0.727789 0.045619
vn -0.724007 -0.688102 0.048267
vn -0.81098 -0.582571 0.054065
vn -0.91782 -0.392252 0.061188
vn -0.974245 -0.215936 0.06495
vn -0.989796 -0.126295 0.065986
vn -0.992607 -0.101742 0.066174
vn -0.997785 0 0.066519
vn 0.994656 -0.087363 -0.05502
vn 0.994475 -0.089411 -0.05501
vn 0.996499 -0.062856 -0.055122
vn 0.998254 0.020992 -0.055219
vn 0.983405 0.173078 -0.054398
vn 0.941712 0.332364 -0.052091
vn 0.890683 0.451948 -0.049269
vn 0.820186 0.570295 -0.045369
vn 0.695367 0.717625 -0.038465
vn 0.485688 0.873719 -0.026866
vn 0.234254 0.972089 -0.012958
vn -0.031211 0.999511 0.001726
vn -0.323597 0.946026 0.0179
vn -0.560977 0.82725 0.031031
vn -0.705265 0.70787 0.039012
vn -0.808093 0.587357 0.0447
vn -0.891938 0.449458 0.049338
vn -0.949279 0.31002 0.05251
vn -0.980827 0.187178 0.054255
vn -0.995794 0.073212 0.055083
vn -0.99776 -0.037809 0.055192
vn -0.988337 -0.142127 0.05467
vn -0.969588 -0.238795 0.053633
vn -0.937503 -0.34409 0.051859
vn -0.863366 -0.502314 0.047758
vn -0.715696 -0.697289 0.039589
vn -0.588723 -0.807679 0.032566
vn -0.589173 -0.807349 0.03259
vn -0.651467 -0.757821 0.036036
vn -0.684754 -0.727789 0.037878
vn -0.724506 -0.688102 0.040077
vn -0.811539 -0.582571 0.044891
vn -0.918454 -0.392252 0.050805
vn -0.974917 -0.215936 0.053928
vn -0.990478 -0.126295 0.054789
vn -0.993292 -0.101742 0.054945
vn -0.998474 0 0.055231
vn 0.995232 -0.087159 -0.043772
vn 0.995062 -0.089086 -0.043764
vn 0.99708 -0.062511 -0.043853
vn 0.998817 0.020829 -0.04393
vn 0.984272 0.171272 -0.04329
vn 0.943632 0.328385 -0.041502
vn 0.893996 0.446347 -0.039319
vn 0.825523 0.5632 -0.036308
vn 0.703913 0.709611 -0.030959
vn 0.497396 0.867248 -0.021876
vn 0.246142 0.969173 -0.010826
vn -0.022238 0.999752 0.000978
vn -0.319813 0.947376 0.014066
vn -0.561403 0.827174 0.024691
vn -0.707514 0.706013 0.031118
vn -0.810902 0.584094 0.035665
vn -0.894419 0.445497 0.039338
vn -0.950959 0.306477 0.041825
vn -0.981832 0.184772 0.043183
vn -0.996424 0.072234 0.043824
vn -0.998338 -0.037325 0.043909
vn -0.989123 -0.140509 0.043503
vn -0.970705 -0.236451 0.042693
vn -0.939059 -0.341265 0.041301
vn -0.865587 -0.49931 0.03807
vn -0.717935 -0.695394 0.031576
vn -0.589646 -0.807246 0.025934
vn -0.589504 -0.807349 0.025927
vn -0.651833 -0.757821 0.028669
vn -0.685139 -0.727789 0.030134
vn -0.724913 -0.688102 0.031883
vn -0.811995 -0.582571 0.035713
vn -0.918969 -0.392252 0.040418
vn -0.975464 -0.215936 0.042903
vn -0.991035 -0.126295 0.043587
vn -0.99385 -0.101742 0.043711
vn -0.999034 0 0.043939
vn 0.995682 -0.086946 -0.032524
vn 0.995523 -0.088748 -0.032519
vn 0.997535 -0.062152 -0.032584
vn 0.999254 0.020661 -0.03264
vn 0.98502 0.169413 -0.032175
vn 0.94545 0.324299 -0.030883
vn 0.89723 0.44059 -0.029308
vn 0.830814 0.555888 -0.027138
vn 0.712502 0.701284 -0.023274
vn 0.50936 0.860392 -0.016638
vn 0.258492 0.965976 -0.008444
vn -0.01279 0.999918 0.000418
vn -0.315764 0.948782 0.010314
vn -0.561763 0.827095 0.01835
vn -0.709754 0.704068 0.023184
vn -0.813688 0.580693 0.026579
vn -0.896832 0.4414 0.029295
vn -0.952535 0.302836 0.031114
vn -0.982717 0.182307 0.0321
vn -0.996928 0.071233 0.032564
vn -0.998789 -0.03683 0.032625
vn -0.989786 -0.138848 0.032331
vn -0.97171 -0.234036 0.031741
vn -0.940521 -0.338342 0.030722
vn -0.867754 -0.496186 0.028345
vn -0.72016 -0.693409 0.023524
vn -0.590522 -0.806791 0.019289
vn -0.589759 -0.807349 0.019264
vn -0.652115 -0.757821 0.021301
vn -0.685436 -0.727789 0.02239
vn -0.725227 -0.688102 0.023689
vn -0.812347 -0.582571 0.026535
vn -0.919367 -0.392252 0.030031
vn -0.975887 -0.215936 0.031877
vn -0.991464 -0.126295 0.032386
vn -0.994281 -0.101742 0.032478
vn -0.999467 0 0.032647
vn 0.996002 -0.086758 -0.021279
vn 0.995853 -0.088451 -0.021276
vn 0.997858 -0.061839 -0.021319
vn 0.999561 0.020514 -0.021355
vn 0.985595 0.167804 -0.021057
vn 0.946941 0.320769 -0.020231
vn 0.899929 0.435613 -0.019227
vn 0.835269 0.549552 -0.017845
vn 0.719797 0.694014 -0.015378
vn 0.519663 0.854299 -0.011103
vn 0.269285 0.963043 -0.005753
vn -0.004435 0.99999 0.000095
vn -0.312145 0.950011 0.006669
vn -0.562037 0.827025 0.012008
vn -0.711666 0.702354 0.015205
vn -0.816052 0.577715 0.017435
vn -0.89885 0.437836 0.019204
vn -0.95382 0.299688 0.020378
vn -0.983409 0.180184 0.02101
vn -0.997293 0.070372 0.021307
vn -0.999109 -0.036403 0.021346
vn -0.990288 -0.137412 0.021157
vn -0.972507 -0.231943 0.020777
vn -0.941718 -0.3358 0.02012
vn -0.869574 -0.493453 0.018578
vn -0.722058 -0.691661 0.015427
vn -0.59125 -0.806389 0.012632
vn -0.589939 -0.807349 0.012604
vn -0.652314 -0.757821 0.013937
vn -0.685645 -0.727789 0.014649
vn -0.725448 -0.688102 0.015499
vn -0.812595 -0.582571 0.017361
vn -0.919648 -0.392252 0.019648
vn -0.976185 -0.215936 0.020856
vn -0.991766 -0.126295 0.021189
vn -0.994584 -0.101742 0.021249
vn -0.999772 0 0.02136
vn 0.99619 -0.086626 -0.010044
vn 0.996048 -0.088242 -0.010042
vn 0.998049 -0.061619 -0.010062
vn 0.999741 0.020412 -0.010079
vn 0.985961 0.166681 -0.00994
vn 0.94794 0.318307 -0.009557
vn 0.90176 0.432141 -0.009091
vn 0.838313 0.545124 -0.008452
vn 0.724816 0.688904 -0.007308
vn 0.526828 0.849956 -0.005311
vn 0.276878 0.960901 -0.002791
vn 0.001497 0.999999 -0.000015
vn -0.309555 0.950876 0.003121
vn -0.56221 0.826975 0.005668
vn -0.712987 0.70114 0.007188
vn -0.817679 0.575615 0.008244
vn -0.900222 0.435337 0.009076
vn -0.954676 0.297491 0.009625
vn -0.983853 0.178706 0.009919
vn -0.997512 0.069773 0.010057
vn -0.999297 -0.036106 0.010075
vn -0.990602 -0.136411 0.009987
vn -0.973028 -0.230479 0.00981
vn -0.942519 -0.334017 0.009502
vn -0.870817 -0.49153 0.00878
vn -0.723369 -0.690423 0.007293
vn -0.591744 -0.806104 0.005966
vn -0.590044 -0.807349 0.005949
vn -0.65243 -0.757821 0.006578
vn -0.685766 -0.727789 0.006914
vn -0.725577 -0.688102 0.007315
vn -0.812739 -0.582571 0.008194
vn -0.919811 -0.392252 0.009273
vn -0.976358 -0.215936 0.009844
vn -0.991942 -0.126295 0.010001
vn -0.99476 -0.101742 0.010029
vn -0.999949 0 0.010081
vn 0.996245 -0.086569 0.00118
vn 0.996106 -0.088152 0.001179
vn 0.998105 -0.061525 0.001182
vn 0.999792 0.020368 0.001184
vn 0.986091 0.166204 0.001168
vn 0.948337 0.317264 0.001123
vn 0.902509 0.43067 0.001069
vn 0.839573 0.543246 0.000994
vn 0.726913 0.686729 0.000861
vn 0.529848 0.848092 0.000627
vn 0.280107 0.959969 0.000332
vn 0.004038 0.999992 0.000005
vn -0.308436 0.951245 -0.000365
vn -0.562269 0.826954 -0.000666
vn -0.713533 0.700621 -0.000845
vn -0.81835 0.574719 -0.000969
vn -0.900779 0.434276 -0.001067
vn -0.955014 0.29656 -0.001131
vn -0.984015 0.178081 -0.001165
vn -0.99758 0.06952 -0.001181
vn -0.999352 -0.03598 -0.001183
vn -0.99071 -0.135987 -0.001173
vn -0.973223 -0.229858 -0.001152
vn -0.942835 -0.333259 -0.001116
vn -0.871322 -0.49071 -0.001032
vn -0.72391 -0.689894 -0.000857
vn -0.59194 -0.805982 -0.000701
vn -0.590074 -0.807349 -0.000699
vn -0.652462 -0.757821 -0.000773
vn -0.685801 -0.727789 -0.000812
vn -0.725613 -0.688102 -0.000859
vn -0.812779 -0.582571 -0.000962
vn -0.919857 -0.392252 -0.001089
vn -0.976407 -0.215936 -0.001156
vn -0.991992 -0.126295 -0.001175
vn -0.99481 -0.101742 -0.001178
vn -0.999999 0 -0.001184
vn 0.996166 -0.0866 0.012385
vn 0.996026 -0.088201 0.012384
vn 0.998025 -0.061576 0.012409
vn 0.999715 0.020392 0.01243
vn 0.985971 0.166464 0.012259
vn 0.948074 0.317832 0.011788
vn 0.902057 0.431472 0.011215
vn 0.838846 0.544269 0.010429
vn 0.725735 0.687915 0.009023
vn 0.528176 0.849109 0.006567
vn 0.278332 0.960479 0.003461
vn 0.002651 0.999996 0.000033
vn -0.309031 0.951044 -0.003842
vn -0.562209 0.826965 -0.00699
vn -0.7132 0.700904 -0.008867
vn -0.817944 0.575208 -0.01017
vn -0.900431 0.434854 -0.011195
vn -0.954783 0.297067 -0.011871
vn -0.983878 0.178422 -0.012233
vn -0.997494 0.069658 -0.012402
vn -0.999273 -0.036049 -0.012424
vn -0.990602 -0.136218 -0.012316
vn -0.973069 -0.230197 -0.012098
vn -0.942616 -0.333673 -0.01172
vn -0.871004 -0.491157 -0.010829
vn -0.723579 -0.690183 -0.008996
vn -0.591804 -0.806049 -0.007358
vn -0.590028 -0.807349 -0.007336
vn -0.652413 -0.757821 -0.008112
vn -0.685748 -0.727789 -0.008526
vn -0.725558 -0.688102 -0.009021
vn -0.812717 -0.582571 -0.010105
vn -0.919787 -0.392252 -0.011436
vn -0.976332 -0.215936 -0.012139
vn -0.991916 -0.126295 -0.012333
vn -0.994734 -0.101742 -0.012368
vn -0.999923 0 -0.012432
vn 0.995954 -0.08672 0.02357
vn 0.995807 -0.08839 0.023566
vn 0.997811 -0.061775 0.023614
vn 0.99951 0.020484 0.023654
vn 0.9856 0.167477 0.023325
vn 0.947135 0.32005 0.022414
vn 0.900371 0.4346 0.021308
vn 0.836073 0.548261 0.019786
vn 0.721191 0.692526 0.017067
vn 0.5217 0.853039 0.012346
vn 0.271467 0.962426 0.006424
vn -0.002713 0.999996 -0.000064
vn -0.311362 0.950263 -0.007368
vn -0.562029 0.82701 -0.013301
vn -0.711976 0.702001 -0.016849
vn -0.816442 0.577104 -0.019321
vn -0.899157 0.437108 -0.021279
vn -0.953971 0.299047 -0.022576
vn -0.983437 0.179752 -0.023273
vn -0.997254 0.070197 -0.0236
vn -0.999061 -0.036316 -0.023643
vn -0.990277 -0.13712 -0.023435
vn -0.972559 -0.231516 -0.023016
vn -0.941855 -0.33528 -0.022289
vn -0.869846 -0.492893 -0.020585
vn -0.722364 -0.691301 -0.017095
vn -0.591333 -0.806306 -0.013994
vn -0.589909 -0.807349 -0.01396
vn -0.65228 -0.757821 -0.015436
vn -0.685609 -0.727789 -0.016225
vn -0.725411 -0.688102 -0.017167
vn -0.812553 -0.582571 -0.019229
vn -0.9196 -0.392252 -0.021763
vn -0.976134 -0.215936 -0.023101
vn -0.991715 -0.126295 -0.023469
vn -0.994532 -0.101742 -0.023536
vn -0.99972 0 -0.023659
vn 0.99561 -0.086919 0.034728
vn 0.995452 -0.088706 0.034722
vn 0.997463 -0.062108 0.034792
vn 0.999179 0.02064 0.034852
vn 0.984985 0.169185 0.034357
vn 0.945551 0.323799 0.032982
vn 0.897508 0.439885 0.031306
vn 0.831351 0.554991 0.028998
vn 0.713455 0.700259 0.024886
vn 0.51076 0.859539 0.017816
vn 0.259983 0.965571 0.009068
vn -0.011616 0.999932 -0.000405
vn -0.315219 0.948955 -0.010995
vn -0.561735 0.827085 -0.019594
vn -0.70994 0.703827 -0.024763
vn -0.813927 0.580274 -0.02839
vn -0.897013 0.440896 -0.031288
vn -0.952605 0.30239 -0.033228
vn -0.9827 0.182006 -0.034277
vn -0.996862 0.07111 -0.034771
vn -0.998716 -0.036769 -0.034836
vn -0.98974 -0.138644 -0.034523
vn -0.971708 -0.23374 -0.033894
vn -0.94058 -0.337983 -0.032808
vn -0.867909 -0.4958 -0.030273
vn -0.720343 -0.693163 -0.025126
vn -0.590555 -0.806734 -0.020599
vn -0.589715 -0.807349 -0.02057
vn -0.652066 -0.757821 -0.022745
vn -0.685384 -0.727789 -0.023907
vn -0.725173 -0.688102 -0.025295
vn -0.812286 -0.582571 -0.028333
vn -0.919299 -0.392252 -0.032066
vn -0.975814 -0.215936 -0.034037
vn -0.99139 -0.126295 -0.03458
vn -0.994206 -0.101742 -0.034679
vn -0.999392 0 -0.03486
vn 0.995137 -0.08718 0.045855
vn 0.994965 -0.08912 0.045847
vn 0.996984 -0.062546 0.04594
vn 0.998723 0.020846 0.046021
vn 0.984148 0.171456 0.045349
vn 0.943402 0.32879 0.043471
vn 0.893627 0.446917 0.041178
vn 0.824952 0.563923 0.038013
vn 0.703021 0.710431 0.032395
vn 0.496185 0.867915 0.022864
vn 0.244915 0.969479 0.011286
vn -0.023161 0.999731 -0.001067
vn -0.320191 0.947238 -0.014754
vn -0.561338 0.827182 -0.025866
vn -0.707258 0.706204 -0.03259
vn -0.810586 0.584428 -0.037351
vn -0.894133 0.445901 -0.041201
vn -0.950753 0.306838 -0.04381
vn -0.981694 0.185016 -0.045236
vn -0.996323 0.072333 -0.04591
vn -0.998242 -0.037374 -0.045998
vn -0.989007 -0.140674 -0.045573
vn -0.970555 -0.23669 -0.044723
vn -0.938866 -0.341553 -0.043262
vn -0.865328 -0.499617 -0.039874
vn -0.717679 -0.695589 -0.03307
vn -0.589529 -0.80729 -0.027165
vn -0.589448 -0.807349 -0.027161
vn -0.651771 -0.757821 -0.030033
vn -0.685074 -0.727789 -0.031568
vn -0.724845 -0.688102 -0.0334
vn -0.811919 -0.582571 -0.037413
vn -0.918883 -0.392252 -0.042342
vn -0.975373 -0.215936 -0.044945
vn -0.990941 -0.126295 -0.045662
vn -0.993756 -0.101742 -0.045792
vn -0.99894 0 -0.046031
vn 0.994538 -0.087474 0.056948
vn 0.99435 -0.089587 0.056938
vn 0.996379 -0.063045 0.057054
vn 0.998143 0.021081 0.057155
vn 0.983123 0.17407 0.056295
vn 0.940835 0.334554 0.053873
vn 0.889021 0.455028 0.050906
vn 0.817384 0.574189 0.046804
vn 0.690768 0.721994 0.039554
vn 0.479349 0.877195 0.027448
vn 0.227831 0.973613 0.013046
vn -0.036063 0.999347 -0.002065
vn -0.325697 0.94529 -0.01865
vn -0.560855 0.827291 -0.032115
vn -0.70418 0.708876 -0.040322
vn -0.806715 0.589132 -0.046193
vn -0.890749 0.451625 -0.051005
vn -0.948539 0.311969 -0.054314
vn -0.980466 0.188506 -0.056143
vn -0.995646 0.073753 -0.057012
vn -0.997641 -0.038076 -0.057126
vn -0.988102 -0.143018 -0.05658
vn -0.969165 -0.240081 -0.055496
vn -0.936834 -0.345636 -0.053644
vn -0.86232 -0.50395 -0.049377
vn -0.71462 -0.698315 -0.04092
vn -0.588338 -0.807913 -0.033689
vn -0.589109 -0.807349 -0.033733
vn -0.651396 -0.757821 -0.0373
vn -0.68468 -0.727789 -0.039206
vn -0.724427 -0.688102 -0.041482
vn -0.811451 -0.582571 -0.046465
vn -0.918353 -0.392252 -0.052586
vn -0.974811 -0.215936 -0.055819
vn -0.99037 -0.126295 -0.05671
vn -0.993184 -0.101742 -0.056871
vn -0.998365 0 -0.057168
vn 0.993817 -0.087766 0.068003
vn 0.993613 -0.090054 0.067989
vn 0.995651 -0.063544 0.068129
vn 0.99744 0.021318 0.068251
vn 0.981963 0.176729 0.067192
vn 0.938076 0.340432 0.064189
vn 0.88414 0.463289 0.060498
vn 0.809428 0.584601 0.055386
vn 0.678023 0.733575 0.046395
vn 0.462169 0.886228 0.031625
vn 0.210755 0.977433 0.014421
vn -0.04876 0.998805 -0.003336
vn -0.331048 0.943342 -0.022652
vn -0.560306 0.827398 -0.03834
vn -0.701024 0.711523 -0.047968
vn -0.802713 0.593831 -0.054927
vn -0.887185 0.457402 -0.060707
vn -0.946148 0.317194 -0.064741
vn -0.97909 0.192079 -0.066996
vn -0.994841 0.075209 -0.068073
vn -0.996916 -0.038795 -0.068215
vn -0.987064 -0.145408 -0.067541
vn -0.967633 -0.243521 -0.066212
vn -0.934655 -0.349756 -0.063955
vn -0.859178 -0.508289 -0.05879
vn -0.71148 -0.701018 -0.048684
vn -0.587086 -0.808527 -0.040172
vn -0.588697 -0.807349 -0.040282
vn -0.650941 -0.757821 -0.044542
vn -0.684201 -0.727789 -0.046817
vn -0.723921 -0.688102 -0.049535
vn -0.810884 -0.582571 -0.055486
vn -0.917712 -0.392252 -0.062796
vn -0.97413 -0.215936 -0.066656
vn -0.989678 -0.126295 -0.06772
vn -0.99249 -0.101742 -0.067912
vn -0.997667 0 -0.068267
vn 0.99298 -0.088016 0.079016
vn 0.992762 -0.090456 0.078999
vn 0.994807 -0.063976 0.079162
vn 0.996618 0.021525 0.079306
vn 0.980738 0.179062 0.078042
vn 0.935425 0.3456 0.074436
vn 0.879597 0.470543 0.069994
vn 0.802146 0.593706 0.063831
vn 0.666543 0.743577 0.05304
vn 0.447024 0.893815 0.035572
vn 0.19601 0.980478 0.015597
vn -0.059545 0.998214 -0.004738
vn -0.335504 0.94166 -0.026698
vn -0.559712 0.827489 -0.044539
vn -0.698154 0.713789 -0.055556
vn -0.799058 0.597882 -0.063585
vn -0.883861 0.462432 -0.070333
vn -0.943829 0.321784 -0.075105
vn -0.977666 0.195233 -0.077798
vn -0.993928 0.076498 -0.079092
vn -0.996074 -0.039431 -0.079262
vn -0.985944 -0.147511 -0.078456
vn -0.966081 -0.246532 -0.076876
vn -0.932546 -0.353343 -0.074207
vn -0.856256 -0.512039 -0.068136
vn -0.708622 -0.703332 -0.056388
vn -0.585886 -0.809051 -0.046622
vn -0.588215 -0.807349 -0.046807
vn -0.650407 -0.757821 -0.051756
vn -0.68364 -0.727789 -0.054401
vn -0.723327 -0.688102 -0.057559
vn -0.810219 -0.582571 -0.064473
vn -0.916959 -0.392252 -0.072967
vn -0.973331 -0.215936 -0.077453
vn -0.988867 -0.126295 -0.078689
vn -0.991676 -0.101742 -0.078912
vn -0.996849 0 -0.079324
vn 0.992031 -0.088185 0.089984
vn 0.991804 -0.090726 0.089963
vn 0.993852 -0.064269 0.090149
vn 0.995678 0.021665 0.090315
vn 0.979525 0.180656 0.088849
vn 0.933239 0.349141 0.084651
vn 0.876115 0.475507 0.07947
vn 0.796793 0.599914 0.072274
vn 0.658363 0.750328 0.059718
vn 0.436521 0.898822 0.039595
vn 0.18601 0.982403 0.016872
vn -0.066713 0.997754 -0.006051
vn -0.338335 0.940525 -0.030689
vn -0.559096 0.82755 -0.050714
vn -0.695952 0.715309 -0.063127
vn -0.796269 0.600615 -0.072227
vn -0.881245 0.465852 -0.079935
vn -0.941873 0.324926 -0.085434
vn -0.976315 0.197402 -0.088558
vn -0.992925 0.077386 -0.090065
vn -0.99512 -0.039868 -0.090264
vn -0.984801 -0.148952 -0.089328
vn -0.964649 -0.248587 -0.0875
vn -0.930748 -0.355782 -0.084425
vn -0.853941 -0.514573 -0.077458
vn -0.706422 -0.704885 -0.064077
vn -0.584854 -0.809402 -0.05305
vn -0.587661 -0.807349 -0.053305
vn -0.649795 -0.757821 -0.058941
vn -0.682997 -0.727789 -0.061952
vn -0.722647 -0.688102 -0.065549
vn -0.809457 -0.582571 -0.073423
vn -0.916097 -0.392252 -0.083096
vn -0.972415 -0.215936 -0.088205
vn -0.987937 -0.126295 -0.089612
vn -0.990743 -0.101742 -0.089867
vn -0.995911 0 -0.090336
vn 0.990976 -0.088233 0.100903
vn 0.990746 -0.090804 0.10088
vn 0.992794 -0.064353 0.101088
vn 0.994622 0.021706 0.101274
vn 0.978403 0.181117 0.099623
vn 0.93187 0.350165 0.094885
vn 0.874414 0.476941 0.089035
vn 0.79461 0.601705 0.080909
vn 0.655471 0.752265 0.066741
vn 0.43315 0.900242 0.044104
vn 0.183001 0.982936 0.018634
vn -0.068703 0.997613 -0.006995
vn -0.338872 0.940199 -0.034505
vn -0.558478 0.827568 -0.056865
vn -0.694771 0.715743 -0.070743
vn -0.794839 0.601399 -0.080932
vn -0.879794 0.466837 -0.089582
vn -0.940564 0.325834 -0.09577
vn -0.975154 0.19803 -0.099292
vn -0.991853 0.077643 -0.100992
vn -0.99406 -0.039994 -0.101217
vn -0.983695 -0.149369 -0.100162
vn -0.963475 -0.24918 -0.098103
vn -0.929495 -0.356485 -0.094643
vn -0.852601 -0.515301 -0.086813
vn -0.705234 -0.705329 -0.071808
vn -0.584097 -0.809502 -0.059474
vn -0.587039 -0.807349 -0.059773
vn -0.649107 -0.757821 -0.066093
vn -0.682273 -0.727789 -0.06947
vn -0.721881 -0.688102 -0.073503
vn -0.808599 -0.582571 -0.082333
vn -0.915126 -0.392252 -0.09318
vn -0.971385 -0.215936 -0.098908
vn -0.98689 -0.126295 -0.100487
vn -0.989694 -0.101742 -0.100773
vn -0.994856 0 -0.101298
vn 0.989818 -0.08813 0.111771
vn 0.989595 -0.090638 0.111746
vn 0.991637 -0.064173 0.111976
vn 0.993453 0.021619 0.112181
vn 0.97743 0.180132 0.110372
vn 0.931582 0.347977 0.105195
vn 0.875031 0.473876 0.098809
vn 0.796526 0.597876 0.089944
vn 0.659375 0.748118 0.074457
vn 0.438849 0.897193 0.049555
vn 0.188799 0.981784 0.021319
vn -0.064211 0.99791 -0.007251
vn -0.336554 0.940897 -0.038004
vn -0.557875 0.82753 -0.062996
vn -0.6949 0.714812 -0.078469
vn -0.795156 0.599721 -0.08979
vn -0.879861 0.46473 -0.099354
vn -0.940119 0.323894 -0.106159
vn -0.974274 0.196688 -0.110016
vn -0.990727 0.077094 -0.111874
vn -0.9929 -0.039724 -0.112119
vn -0.98267 -0.148478 -0.110964
vn -0.962664 -0.247912 -0.108705
vn -0.928969 -0.354982 -0.1049
vn -0.852526 -0.513743 -0.096268
vn -0.705343 -0.704377 -0.079648
vn -0.583703 -0.809288 -0.065912
vn -0.586347 -0.807349 -0.066211
vn -0.648343 -0.757821 -0.073211
vn -0.68147 -0.727789 -0.076952
vn -0.721031 -0.688102 -0.081419
vn -0.807647 -0.582571 -0.0912
vn -0.914049 -0.392252 -0.103215
vn -0.970241 -0.215936 -0.10956
vn -0.985728 -0.126295 -0.111309
vn -0.988528 -0.101742 -0.111625
vn -0.993685 0 -0.112208
f 1/1/1 38/38/38 39/39/39
f 1/1/1 39/39/39 2/2/2
f 2/2/2 39/39/39 40/40/40
f 2/2/2 40/40/40 3/3/3
f 3/3/3 40/40/40 41/41/41
f 3/3/3 41/41/41 4/4/4
f 4/4/4 41/41/41 42/42/42
f 4/4/4 42/42/42 5/5/5
f 5/5/5 42/42/42 43/43/43
f 5/5/5 43/43/43 6/6/6
f 6/6/6 43/43/43 44/44/44
f 6/6/6 44/44/44 7/7/7
f 7/7/7 44/44/44 45/45/45
f 7/7/7 45/45/45 8/8/8
f 8/8/8 45/45/45 46/46/46
f 8/8/8 46/46/46 9/9/9
f 9/9/9 46/46/46 47/47/47
f 9/9/9 47/47/47 10/10/10
f 10/10/10 47/47/47 48/48/48
f 10/10/10 48/48/48 11/11/11
f 11/11/11 48/48/48 49/49/49
f 11/11/11 49/49/49 12/12/12
f 12/12/12 49/49/49 50/50/50
f 12/12/12 50/50/50 13/13/13
f 13/13/13 50/50/50 51/51/51
f 13/13/13 51/51/51 14/14/14
f 14/14/14 51/51/51 52/52/52
f 14/14/14 52/52/52 15/15/15
f 15/15/15 52/52/52 53/53/53
f 15/15/15 53/53/53 16/16/16
f 16/16/16 53/53/53 54/54/54
f 16/16/16 54/54/54 17/17/17
f 17/17/17 54/54/54 55/55/55
f 17/17/17 55/55/55 18/18/18
f 18/18/18 55/55/55 56/56/56
f 18/18/18 56/56/56 19/19/19
f 19/19/19 56/56/56 57/57/57
f 19/19/19 57/57/57 20/20/20
f 20/20/20 57/57/57 58/58/58
f 20/20/20 58/58/58 21/21/21
f 21/21/21 58/58/58 59/59/59
f 21/21/21 59/59/59 22/22/22
f 22/22/22 59/59/59 60/60/60
f 22/22/22 60/60/60 23/23/23
f 23/23/23 60/60/60 61/61/61
f 23/23/23 61/61/61 24/24/24
f 24/24/24 61/61/61 62/62/62
f 24/24/24 62/62/62 25/25/25
f 25/25/25 62/62/62 63/63/63
f 25/25/25 63/63/63 26/26/26
f 26/26/26 63/63/63 64/64/64
f 26/26/26 64/64/64 27/27/27
f 27/27/27 64/64/64 65/65/65
f 27/27/27 65/65/65 28/28/28
f 28/28/28 65/65/65 66/66/66
f 28/28/28 66/66/66 29/29/29
f 29/29/29 66/66/66 67/67/67
f 29/29/29 67/67/67 30/30/30
f 30/30/30 67/67/67 68/68/68
f 30/30/30 68/68/68 31/31/31
f 31/31/31 68/68/68 69/69/69
f 31/31/31 69/69/69 32/32/32
f 32/32/32 69/69/69 70/70/70
f 32/32/32 70/70/70 33/33/33
f 33/33/33 70/70/70 71/71/71
f 33/33/33 71/71/71 34/34/34
f 34/34/34 71/71/71 72/72/72
f 34/34/34 72/72/72 35/35/35
f 35/35/35 72/72/72 73/73/73
f 35/35/35 73/73/73 36/36/36
f 36/36/36 73/73/73 74/74/74
f 36/36/36 74/74/74 37/37/37
f 38/38/38 75/75/75 76/76/76
f 38/38/38 76/76/76 39/39/39
f 39/39/39 76/76/76 77/77/77
f 39/39/39 77/77/77 40/40/40
f 40/40/40 77/77/77 78/78/78
f 40/40/40 78/78/78 41/41/41
f 41/41/41 78/78/78 79/79/79
f 41/41/41 79/79/79 42/42/42
f 42/42/42 79/79/79 80/80/80
f 42/42/42 80/80/80 43/43/43
f 43/43/43 80/80/80 81/81/81
f 43/43/43 81/81/81 44/44/44
f 44/44/44 81/81/81 82/82/82
f 44/44/44 82/82/82 45/45/45
f 45/45/45 82/82/82 83/83/83
f 45/45/45 83/83/83 46/46/46
f 46/46/46 83/83/83 84/84/84
f 46/46/46 84/84/84 47/47/47
f 47/47/47 84/84/84 85/85/85
f 47/47/47 85/85/85 48/48/48
f 48/48/48 85/85/85 86/86/86
f 48/48/48 86/86/86 49/49/49
f 49/49/49 86/86/86 87/87/87
f 49/49/49 87/87/87 50/50/50
f 50/50/50 87/87/87 88/88/88
f 50/50/50 88/88/88 51/51/51
f 51/51/51 88/88/88 89/89/89
f 51/51/51 89/89/89 52/52/52
f 52/52/52 89/89/89 90/90/90
f 52/52/52 90/90/90 53/53/53
f 53/53/53 90/90/90 91/91/91
f 53/53/53 91/91/91 54/54/54
f 54/54/54 91/91/91 92/92/92
f 54/54/54 92/92/92 55/55/55
f 55/55/55 92/92/92 93/93/93
f 55/55/55 93/93/93 56/56/56
f 56/56/56 93/93/93 94/94/94
f 56/56/56 94/94/94 57/57/57
f 57/57/57 94/94/94 95/95/95
f 57/57/57 95/95/95 58/58/58
f 58/58/58 95/95/95 96/96/96
f 58/58/58 96/96/96 59/59/59
f 59/59/59 96/96/96 97/97/97
f 59/59/59 97/97/97 60/60/60
f 60/60/60 97/97/97 98/98/98
f 60/60/60 98/98/98 61/61/61
f 61/61/61 98/98/98 99/99/99
f 61/61/61 99/99/99 62/62/62
f 62/62/62 99/99/99 100/100/100
f 62/62/62 100/100/100 63/63/63
f 63/63/63 100/100/100 101/101/101
f 63/63/63 101/101/101 64/64/64
f 64/64/64 101/101/101 102/102/102
f 64/64/64 102/102/102 65/65/65
f 65/65/65 102/102/102 103/103/103
f 65/65/65 103/103/103 66/66/66
f 66/66/66 103/103/103 104/104/104
f 66/66/66 104/104/104 67/67/67
f 67/67/67 104/104/104 105/105/105
f 67/67/67 105/105/105 68/68/68
f 68/68/68 105/105/105 106/106/106
f 68/68/68 106/106/106 69/69/69
f 69/69/69 106/106/106 107/107/107
f 69/69/69 107/107/107 70/70/70
f 70/70/70 107/107/107 108/108/108
f 70/70/70 108/108/108 71/71/71
f 71/71/71 108/108/108 109/109/109
f 71/71/71 109/109/109 72/72/72
f 72/72/72 109/109/109 110/110/110
f 72/72/72 110/110/110 73/73/73
f 73/73/73 110/110/110 111/111/111
f 73/73/73 111/111/111 74/74/74
f 75/75/75 112/112/112 113/113/113
f 75/75/75 113/113/113 76/76/76
f 76/76/76 113/113/113 114/114/114
f 76/76/76 114/114/114 77/77/77
f 77/77/77 114/114/114 115/115/115
f 77/77/77 115/115/115 78/78/78
f 78/78/78 115/115/115 116/116/116
f 78/78/78 116/116/116 79/79/79
f 79/79/79 116/116/116 117/117/117
f 79/79/79 117/117/117 80/80/80
f 80/80/80 117/117/117 118/118/118
f 80/80/80 118/118/118 81/81/81
f 81/81/81 118/118/118 119/119/119
f 81/81/81 119/119/119 82/82/82
f 82/82/82 119/119/119 120/120/120
f 82/82/82 120/120/120 83/83/83
f 83/83/83 120/120/120 121/121/121
f 83/83/83 121/121/121 84/84/84
f 84/84/84 121/121/121 122/122/122
f 84/84/84 122/122/122 85/85/85
f 85/85/85 122/122/122 123/123/123
f 85/85/85 123/123/123 86/86/86
f 86/86/86 123/123/123 124/124/124
f 86/86/86 124/124/124 87/87/87
f 87/87/87 124/124/124 125/125/125
f 87/87/87 125/125/125 88/88/88
f 88/88/88 125/125/125 126/126/126
f 88/88/88 126/126/126 89/89/89
f 89/89/89 126/126/126 127/127/127
f 89/89/89 127/127/127 90/90/90
f 90/90/90 127/127/127 128/128/128
f 90/90/90 128/128/128 91/91/91
f 91/91/91 128/128/128 129/129/129
f 91/91/91 129/129/129 92/92/92
f 92/92/92 129/129/129 130/130/130
f 92/92/92 130/130/130 93/93/93
f 93/93/93 130/130/130 131/131/131
f 93/93/93 131/131/131 94/94/94
f 94/94/94 131/131/131 132/132/132
f 94/94/94 132/132/132 95/95/95
f 95/95/95 132/132/132 133/133/133
f 95/95/95 133/133/133 96/96/96
f 96/96/96 133/133/133 134/134/134
f 96/96/96 134/134/134 97/97/97
f 97/97/97 134/134/134 135/135/135
f 97/97/97 135/135/135 98/98/98
f 98/98/98 135/135/135 136/136/136
f 98/98/98 136/136/136 99/99/99
f 99/99/99 136/136/136 137/137/137
f 99/99/99 137/137/137 100/100/100
f 100/100/100 137/137/137 138/138/138
f 100/100/100 138/138/138 101/101/101
f 101/101/101 138/138/138 139/139/139
f 101/101/101 139/139/139 102/102/102
f 102/102/102 139/139/139 140/140/140
f 102/102/102 140/140/140 103/103/103
f 103/103/103 140/140/140 141/141/141
f 103/103/103 141/141/141 104/104/104
f 104/104/104 141/141/141 142/142/142
f 104/104/104 142/142/142 105/105/105
f 105/105/105 142/142/142 143/143/143
f 105/105/105 143/143/143 106/106/106
f 106/106/106 143/143/143 144/144/144
f 106/106/106 144/144/144 107/107/107
f 107/107/107 144/144/144 145/145/145
f 107/107/107 145/145/145 108/108/108
f 108/108/108 145/145/145 146/146/146
f 108/108/108 146/146/146 109/109/109
f 109/109/109 146/146/146 147/147/147
f 109/109/109 147/147/147 110/110/110
f 110/110/110 147/147/147 148/148/148
f 110/110/110 148/148/148 111/111/111
f 112/112/112 149/149/149 150/150/150
f 112/112/112 150/150/150 113/113/113
f 113/113/113 150/150/150 151/151/151
f 113/113/113 151/151/151 114/114/114
f 114/114/114 151/151/151 152/152/152
f 114/114/114 152/152/152 115/115/115
f 115/115/115 152/152/152 153/153/153
f 115/115/115 153/153/153 116/116/116
f 116/116/116 153/153/153 154/154/154
f 116/116/116 154/154/154 117/117/117
f 117/117/117 154/154/154 155/155/155
f 117/117/117 155/155/155 118/118/118
f 118/118/118 155/155/155 156/156/156
f 118/118/118 156/156/156 119/119/119
f 119/119/119 156/156/156 157/157/157
f 119/119/119 157/157/157 120/120/120
f 120/120/120 157/157/157 158/158/158
f 120/120/120 158/158/158 121/121/121
f 121/121/121 158/158/158 159/159/159
f 121/121/121 159/159/159 122/122/122
f 122/122/122 159/159/159 160/160/160
f 122/122/122 160/160/160 123/123/123
f 123/123/123 160/160/160 161/161/161
f 123/123/123 161/161/161 124/124/124
f 124/124/124 161/161/161 162/162/162
f 124/124/124 162/162/162 125/125/125
f 125/125/125 162/162/162 163/163/163
f 125/125/125 163/163/163 126/126/126
f 126/126/126 163/163/163 164/164/164
f 126/126/126 164/164/164 127/127/127
f 127/127/127 164/164/164 165/165/165
f 127/127/127 165/165/165 128/128/128
f 128/128/128 165/165/165 166/166/166
f 128/128/128 166/166/166 129/129/129
f 129/129/129 166/166/166 167/167/167
f 129/129/129 167/167/167 130/130/130
f 130/130/130 167/167/167 168/168/168
f 130/130/130 168/168/168 131/131/131
f 131/131/131 168/168/168 169/169/169
f 131/131/131 169/169/169 132/132/132
f 132/132/132 169/169/169 170/170/170
f 132/132/132 170/170/170 133/133/133
f 133/133/133 170/170/170 171/171/171
f 133/133/133 171/171/171 134/134/134
f 134/134/134 171/171/171 172/172/172
f 134/134/134 172/172/172 135/135/135
f 135/135/135 172/172/172 173/173/173
f 135/135/135 173/173/173 136/136/136
f 136/136/136 173/173/173 174/174/174
f 136/136/136 174/174/174 137/137/137
f 137/137/137 174/174/174 175/175/175
f 137/137/137 175/175/175 138/138/138
f 138/138/138 175/175/175 176/176/176
f 138/138/138 176/176/176 139/139/139
f 139/139/139 176/176/176 177/177/177
f 139/139/139 177/177/177 140/140/140
f 140/140/140 177/177/177 178/178/178
f 140/140/140 178/178/178 141/141/141
f 141/141/141 178/178/178 179/179/179
f 141/141/141 179/179/179 142/142/142
f 142/142/142 179/179/179 180/180/180
f 142/142/142 180/180/180 143/143/143
f 143/143/143 180/180/180 181/181/181
f 143/143/143 181/181/181 144/144/144
f 144/144/144 181/181/181 182/182/182
f 144/144/144 182/182/182 145/145/145
f 145/145/145 182/182/182 183/183/183
f 145/145/145 183/183/183 146/146/146
f 146/146/146 183/183/183 184/184/184
f 146/146/146 184/184/184 147/147/147
f 147/147/147 184/184/184 185/185/185
f 147/147/147 185/185/185 148/148/148
f 149/149/149 186/186/186 187/187/187
f 149/149/149 187/187/187 150/150/150
f 150/150/150 187/187/187 188/188/188
f 150/150/150 188/188/188 151/151/151
f 151/151/151 188/188/188 189/189/189
f 151/151/151 189/189/189 152/152/152
f 152/152/152 189/189/189 190/190/190
f 152/152/152 190/190/190 153/153/153
f 153/153/153 190/190/190 191/191/191
f 153/153/153 191/191/191 154/154/154
f 154/154/154 191/191/191 192/192/192
f 154/154/154 192/192/192 155/155/155
f 155/155/155 192/192/192 193/193/193
f 155/155/155 193/193/193 156/156/156
f 156/156/156 193/193/193 194/194/194
f 156/156/156 194/194/194 157/157/157
f 157/157/157 194/194/194 195/195/195
f 157/157/157 195/195/195 158/158/158
f 158/158/158 195/195/195 196/196/196
f 158/158/158 196/196/196 159/159/159
f 159/159/159 196/196/196 197/197/197
f 159/159/159 197/197/197 160/160/160
f 160/160/160 197/197/197 198/198/198
f 160/160/160 198/198/198 161/161/161
f 161/161/161 198/198/198 199/199/199
f 161/161/161 199/199/199 162/162/162
f 162/162/162 199/199/199 200/200/200
f 162/162/162 200/200/200 163/163/163
f 163/163/163 200/200/200 201/201/201
f 163/163/163 201/201/201 164/164/164
f 164/164/164 201/201/201 202/202/202
f 164/164/164 202/202/202 165/165/165
f 165/165/165 202/202/202 203/203/203
f 165/165/165 203/203/203 166/166/166
f 166/166/166 203/203/203 204/204/204
f 166/166/166 204/204/204 167/167/167
f 167/167/167 204/204/204 205/205/205
f 167/167/167 205/205/205 168/168/168
f 168/168/168 205/205/205 206/206/206
f 168/168/168 206/206/206 169/169/169
f 169/169/169 206/206/206 207/207/207
f 169/169/169 207/207/207 170/170/170
f 170/170/170 207/207/207 208/208/208
f 170/170/170 208/208/208 171/171/171
f 171/171/171 208/208/208 209/209/209
f 171/171/171 209/209/209 172/172/172
f 172/172/172 209/209/209 210/210/210
f 172/172/172 210/210/210 173/173/173
f 173/173/173 210/210/210 211/211/211
f 173/173/173 211/211/211 174/174/174
f 174/174/174 211/211/211 212/212/212
f 174/174/174 212/212/212 175/175/175
f 175/175/175 212/212/212 213/213/213
f 175/175/175 213/213/213 176/176/176
f 176/176/176 213/213/213 214/214/214
f 176/176/176 214/214/214 177/177/177
f 177/177/177 214/214/214 215/215/215
f 177/177/177 215/215/215 178/178/178
f 178/178/178 215/215/215 216/216/216
f 178/178/178 216/216/216 179/179/179
f 179/179/179 216/216/216 217/217/217
f 179/179/179 217/217/217 180/180/180
f 180/180/180 217/217/217 218/218/218
f 180/180/180 218/218/218 181/181/181
f 181/181/181 218/218/218 219/219/219
f 181/181/181 219/219/219 182/182/182
f 182/182/182 219/219/219 220/220/220
f 182/182/182 220/220/220 183/183/183
f 183/183/183 220/220/220 221/221/221
f 183/183/183 221/221/221 184/184/184
f 184/184/184 221/221/221 222/222/222
f 184/184/184 222/222/222 185/185/185
f 186/186/186 223/223/223 224/224/224
f 186/186/186 224/224/224 187/187/187
f 187/187/187 224/224/224 225/225/225
f 187/187/187 225/225/225 188/188/188
f 188/188/188 225/225/225 226/226/226
f 188/188/188 226/226/226 189/189/189
f 189/189/189 226/226/226 227/227/227
f 189/189/189 227/227/227 190/190/190
f 190/190/190 227/227/227 228/228/228
f 190/190/190 228/228/228 191/191/191
f 191/191/191 228/228/228 229/229/229
f 191/191/191 229/229/229 192/192/192
f 192/192/192 229/229/229 230/230/230
f 192/192/192 230/230/230 193/193/193
f 193/193/193 230/230/230 231/231/231
f 193/193/193 231/231/231 194/194/194
f 194/194/194 231/231/231 232/232/232
f 194/194/194 232/232/232 195/195/195
f 195/195/195 232/232/232 233/233/233
f 195/195/195 233/233/233 196/196/196
f 196/196/196 233/233/233 234/234/234
f 196/196/196 234/234/234 197/197/197
f 197/197/197 234/234/234 235/235/235
f 197/197/197 235/235/235 198/198/198
f 198/198/198 235/235/235 236/236/236
f 198/198/198 236/236/236 199/199/199
f 199/199/199 236/236/236 237/237/237
f 199/199/199 237/237/237 200/200/200
f 200/200/200 237/237/237 238/238/238
f 200/200/200 238/238/238 201/201/201
f 201/201/201 238/238/238 239/239/239
f 201/201/201 239/239/239 202/202/202
f 202/202/202 239/239/239 240/240/240
f 202/202/202 240/240/240 203/203/203
f 203/203/203 240/240/240 241/241/241
f 203/203/203 241/241/241 204/204/204
f 204/204/204 241/241/241 242/242/242
f 204/204/204 242/242/242 205/205/205
f 205/205/205 242/242/242 243/243/243
f 205/205/205 243/243/243 206/206/206
f 206/206/206 243/243/243 244/244/244
f 206/206/206 244/244/244 207/207/207
f 207/207/207 244/244/244 245/245/245
f 207/207/207 245/245/245 208/208/208
f 208/208/208 245/245/245 246/246/246
f 208/208/208 246/246/246 209/209/209
f 209/209/209 246/246/246 247/247/247
f 209/209/209 247/247/247 210/210/210
f 210/210/210 247/247/247 248/248/248
f 210/210/210 248/248/248 211/211/211
f 211/211/211 248/248/248 249/249/249
f 211/211/211 249/249/249 212/212/212
f 212/212/212 249/249/249 250/250/250
f 212/212/212 250/250/250 213/213/213
f 213/213/213 250/250/250 251/251/251
f 213/213/213 251/251/251 214/214/214
f 214/214/214 251/251/251 252/252/252
f 214/214/214 252/252/252 215/215/215
f 215/215/215 252/252/252 253/253/253
f 215/215/215 253/253/253 216/216/216
f 216/216/216 253/253/253 254/254/254
f 216/216/216 254/254/254 217/217/217
f 217/217/217 254/254/254 255/255/255
f 217/217/217 255/255/255 218/218/218
f 218/218/218 255/255/255 256/256/256
f 218/218/218 256/256/256 219/219/219
f 219/219/219 256/256/256 257/257/257
f 219/219/219 257/257/257 220/220/220
f 220/220/220 257/257/257 258/258/258
f 220/220/220 258/258/258 221/221/221
f 221/221/221 258/258/258 259/259/259
f 221/221/221 259/259/259 222/222/222
f 223/223/223 260/260/260 261/261/261
f 223/223/223 261/261/261 224/224/224
f 224/224/224 261/261/261 262/262/262
f 224/224/224 262/262/262 225/225/225
f 225/225/225 262/262/262 263/263/263
f 225/225/225 263/263/263 226/226/226
f 226/226/226 263/263/263 264/264/264
f 226/226/226 264/264/264 227/227/227
f 227/227/227 264/264/264 265/265/265
f 227/227/227 265/265/265 228/228/228
f 228/228/228 265/265/265 266/266/266
f 228/228/228 266/266/266 229/229/229
f 229/229/229 266/266/266 267/267/267
f 229/229/229 267/267/267 230/230/230
f 230/230/230 267/267/267 268/268/268
f 230/230/230 268/268/268 231/231/231
f 231/231/231 268/268/268 269/269/269
f 231/231/231 269/269/269 232/232/232
f 232/232/232 269/269/269 270/270/270
f 232/232/232 270/270/270 233/233/233
f 233/233/233 270/270/270 271/271/271
f 233/233/233 271/271/271 234/234/234
f 234/234/234 271/271/271 272/272/272
f 234/234/234 272/272/272 235/235/235
f 235/235/235 272/272/272 273/273/273
f 235/235/235 273/273/273 236/236/236
f 236/236/236 273/273/273 274/274/274
f 236/236/236 274/274/274 237/237/237
f 237/237/237 274/274/274 275/275/275
f 237/237/237 275/275/275 238/238/238
f 238/238/238 275/275/275 276/276/276
f 238/238/238 276/276/276 239/239/239
f 239/239/239 276/276/276 277/277/277
f 239/239/239 277/277/277 240/240/240
f 240/240/240 277/277/277 278/278/278
f 240/240/240 278/278/278 241/241/241
f 241/241/241 278/278/278 279/279/279
f 241/241/241 279/279/279 242/242/242
f 242/242/242 279/279/279 280/280/280
f 242/242/242 280/280/280 243/243/243
f 243/243/243 280/280/280 281/281/281
f 243/243/243 281/281/281 244/244/244
f 244/244/244 281/281/281 282/282/282
f 244/244/244 282/282/282 245/245/245
f 245/245/245 282/282/282 283/283/283
f 245/245/245 283/283/283 246/246/246
f 246/246/246 283/283/283 284/284/284
f 246/246/246 284/284/284 247/247/247
f 247/247/247 284/284/284 285/285/285
f 247/247/247 285/285/285 248/248/248
f 248/248/248 285/285/285 286/286/286
f 248/248/248 286/286/286 249/249/249
f 249/249/249 286/286/286 287/287/287
f 249/249/249 287/287/287 250/250/250
f 250/250/250 287/287/287 288/288/288
f 250/250/250 288/288/288 251/251/251
f 251/251/251 288/288/288 289/289/289
f 251/251/251 289/289/289 252/252/252
f 252/252/252 289/289/289 290/290/290
f 252/252/252 290/290/290 253/253/253
f 253/253/253 290/290/290 291/291/291
f 253/253/253 291/291/291 254/254/254
f 254/254/254 291/291/291 292/292/292
f 254/254/254 292/292/292 255/255/255
f 255/255/255 292/292/292 293/293/293
f 255/255/255 293/293/293 256/256/256
f 256/256/256 293/293/293 294/294/294
f 256/256/256 294/294/294 257/257/257
f 257/257/257 294/294/294 295/295/295
f 257/257/257 295/295/295 258/258/258
f 258/258/258 295/295/295 296/296/296
f 258/258/258 296/296/296 259/259/259
f 260/260/260 297/297/297 298/298/298
f 260/260/260 298/298/298 261/261/261
f 261/261/261 298/298/298 299/299/299
f 261/261/261 299/299/299 262/262/262
f 262/262/262 299/299/299 300/300/300
f 262/262/262 300/300/300 263/263/263
f 263/263/263 300/300/300 301/301/301
f 263/263/263 301/301/301 264/264/264
f 264/264/264 301/301/301 302/302/302
f 264/264/264 302/302/302 265/265/265
f 265/265/265 302/302/302 303/303/303
f 265/265/265 303/303/303 266/266/266
f 266/266/266 303/303/303 304/304/304
f 266/266/266 304/304/304 267/267/267
f 267/267/267 304/304/304 305/305/305
f 267/267/267 305/305/305 268/268/268
f 268/268/268 305/305/305 306/306/306
f 268/268/268 306/306/306 269/269/269
f 269/269/269 306/306/306 307/307/307
f 269/269/269 307/307/307 270/270/270
f 270/270/270 307/307/307 308/308/308
f 270/270/270 308/308/308 271/271/271
f 271/271/271 308/308/308 309/309/309
f 271/271/271 309/309/309 272/272/272
f 272/272/272 309/309/309 310/310/310
f 272/272/272 310/310/310 273/273/273
f 273/273/273 310/310/310 311/311/311
f 273/273/273 311/311/311 274/274/274
f 274/274/274 311/311/311 312/312/312
f 274/274/274 312/312/312 275/275/275
f 275/275/275 312/312/312 313/313/313
f 275/275/275 313/313/313 276/276/276
f 276/276/276 313/313/313 314/314/314
f 276/276/276 314/314/314 277/277/277
f 277/277/277 314/314/314 315/315/315
f 277/277/277 315/315/315 278/278/278
f 278/278/278 315/315/315 316/316/316
f 278/278/278 316/316/316 279/279/279
f 279/279/279 316/316/316 317/317/317
f 279/279/279 317/317/317 280/280/280
f 280/280/280 317/317/317 318/318/318
f 280/280/280 318/318/318 281/281/281
f 281/281/281 318/318/318 319/319/319
f 281/281/281 319/319/319 282/282/282
f 282/282/282 319/319/319 320/320/320
f 282/282/282 320/320/320 283/283/283
f 283/283/283 320/320/320 321/321/321
f 283/283/283 321/321/321 284/284/284
f 284/284/284 321/321/321 322/322/322
f 284/284/284 322/322/322 285/285/285
f 285/285/285 322/322/322 323/323/323
f 285/285/285 323/323/323 286/286/286
f 286/286/286 323/323/323 324/324/324
f 286/286/286 324/324/324 287/287/287
f 287/287/287 324/324/324 325/325/325
f 287/287/287 325/325/325 288/288/288
f 288/288/288 325/325/325 326/326/326
f 288/288/288 326/326/326 289/289/289
f 289/289/289 326/326/326 327/327/327
f 289/289/289 327/327/327 290/290/290
f 290/290/290 327/327/327 328/328/328
f 290/290/290 328/328/328 291/291/291
f 291/291/291 328/328/328 329/329/329
f 291/291/291 329/329/329 292/292/292
f 292/292/292 329/329/329 330/330/330
f 292/292/292 330/330/330 293/293/293
f 293/293/293 330/330/330 331/331/331
f 293/293/293 331/331/331 294/294/294
f 294/294/294 331/331/331 332/332/332
f 294/294/294 332/332/332 295/295/295
f 295/295/295 332/332/332 333/333/333
f 295/295/295 333/333/333 296/296/296
f 297/297/297 334/334/334 335/335/335
f 297/297/297 335/335/335 298/298/298
f 298/298/298 335/335/335 336/336/336
f 298/298/298 336/336/336 299/299/299
f 299/299/299 336/336/336 337/337/337
f 299/299/299 337/337/337 300/300/300
f 300/300/300 337/337/337 338/338/338
f 300/300/300 338/338/338 301/301/301
f 301/301/301 338/338/338 339/339/339
f 301/301/301 339/339/339 302/302/302
f 302/302/302 339/339/339 340/340/340
f 302/302/302 340/340/340 303/303/303
f 303/303/303 340/340/340 341/341/341
f 303/303/303 341/341/341 304/304/304
f 304/304/304 341/341/341 342/342/342
f 304/304/304 342/342/342 305/305/305
f 305/305/305 342/342/342 343/343/343
f 305/305/305 343/343/343 306/306/306
f 306/306/306 343/343/343 344/344/344
f 306/306/306 344/344/344 307/307/307
f 307/307/307 344/344/344 345/345/345
f 307/307/307 345/345/345 308/308/308
f 308/308/308 345/345/345 346/346/346
f 308/308/308 346/346/346 309/309/309
f 309/309/309 346/346/346 347/347/347
f 309/309/309 347/347/347 310/310/310
f 310/310/310 347/347/347 348/348/348
f 310/310/310 348/348/348 311/311/311
f 311/311/311 348/348/348 349/349/349
f 311/311/311 349/349/349 312/312/312
f 312/312/312 349/349/349 350/350/350
f 312/312/312 350/350/350 313/313/313
f 313/313/313 350/350/350 351/351/351
f 313/313/313 351/351/351 314/314/314
f 314/314/314 351/351/351 352/352/352
f 314/314/314 352/352/352 315/315/315
f 315/315/315 352/352/352 353/353/353
f 315/315/315 353/353/353 316/316/316
f 316/316/316 353/353/353 354/354/354
f 316/316/316 354/354/354 317/317/317
f 317/317/317 354/354/354 355/355/355
f 317/317/317 355/355/355 318/318/318
f 318/318/318 355/355/355 356/356/356
f 318/318/318 356/356/356 319/319/319
f 319/319/319 356/356/356 357/357/357
f 319/319/319 357/357/357 320/320/320
f 320/320/320 357/357/357 358/358/358
f 320/320/320 358/358/358 321/321/321
f 321/321/321 358/358/358 359/359/359
f 321/321/321 359/359/359 322/322/322
f 322/322/322 359/359/359 360/360/360
f 322/322/322 360/360/360 323/323/323
f 323/323/323 360/360/360 361/361/361
f 323/323/323 361/361/361 324/324/324
f 324/324/324 361/361/361 362/362/362
f 324/324/324 362/362/362 325/325/325
f 325/325/325 362/362/362 363/363/363
f 325/325/325 363/363/363 326/326/326
f 326/326/326 363/363/363 364/364/364
f 326/326/326 364/364/364 327/327/327
f 327/327/327 364/364/364 365/365/365
f 327/327/327 365/365/365 328/328/328
f 328/328/328 365/365/365 366/366/366
f 328/328/328 366/366/366 329/329/329
f 329/329/329 366/366/366 367/367/367
f 329/329/329 367/367/367 330/330/330
f 330/330/330 367/367/367 368/368/368
f 330/330/330 368/368/368 331/331/331
f 331/331/331 368/368/368 369/369/369
f 331/331/331 369/369/369 332/332/332
f 332/332/332 369/369/369 370/370/370
f 332/332/332 370/370/370 333/333/333
f 334/334/334 371/371/371 372/372/372
f 334/334/334 372/372/372 335/335/335
f 335/335/335 372/372/372 373/373/373
f 335/335/335 373/373/373 336/336/336
f 336/336/336 373/373/373 374/374/374
f 336/336/336 374/374/374 337/337/337
f 337/337/337 374/374/374 375/375/375
f 337/337/337 375/375/375 338/338/338
f 338/338/338 375/375/375 376/376/376
f 338/338/338 376/376/376 339/339/339
f 339/339/339 376/376/376 377/377/377
f 339/339/339 377/377/377 340/340/340
f 340/340/340 377/377/377 378/378/378
f 340/340/340 378/378/378 341/341/341
f 341/341/341 378/378/378 379/379/379
f 341/341/341 379/379/379 342/342/342
f 342/342/342 379/379/379 380/380/380
f 342/342/342 380/380/380 343/343/343
f 343/343/343 380/380/380 381/381/381
f 343/343/343 381/381/381 344/344/344
f 344/344/344 381/381/381 382/382/382
f 344/344/344 382/382/382 345/345/345
f 345/345/345 382/382/382 383/383/383
f 345/345/345 383/383/383 346/346/346
f 346/346/346 383/383/383 384/384/384
f 346/346/346 384/384/384 347/347/347
f 347/347/347 384/384/384 385/385/385
f 347/347/347 385/385/385 348/348/348
f 348/348/348 385/385/385 386/386/386
f 348/348/348 386/386/386 349/349/349
f 349/349/349 386/386/386 387/387/387
f 349/349/349 387/387/387 350/350/350
f 350/350/350 387/387/387 388/388/388
f 350/350/350 388/388/388 351/351/351
f 351/351/351 388/388/388 389/389/389
f 351/351/351 389/389/389 352/352/352
f 352/352/352 389/389/389 390/390/390
f 352/352/352 390/390/390 353/353/353
f 353/353/353 390/390/390 391/391/391
f 353/353/353 391/391/391 354/354/354
f 354/354/354 391/391/391 392/392/392
f 354/354/354 392/392/392 355/355/355
f 355/355/355 392/392/392 393/393/393
f 355/355/355 393/393/393 356/356/356
f 356/356/356 393/393/393 394/394/394
f 356/356/356 394/394/394 357/357/357
f 357/357/357 394/394/394 395/395/395
f 357/357/357 395/395/395 358/358/358
f 358/358/358 395/395/395 396/396/396
f 358/358/358 396/396/396 359/359/359
f 359/359/359 396/396/396 397/397/397
f 359/359/359 397/397/397 360/360/360
f 360/360/360 397/397/397 398/398/398
f 360/360/360 398/398/398 361/361/361
f 361/361/361 398/398/398 399/399/399
f 361/361/361 399/399/399 362/362/362
f 362/362/362 399/399/399 400/400/400
f 362/362/362 400/400/400 363/363/363
f 363/363/363 400/400/400 401/401/401
f 363/363/363 401/401/401 364/364/364
f 364/364/364 401/401/401 402/402/402
f 364/364/364 402/402/402 365/365/365
f 365/365/365 402/402/402 403/403/403
f 365/365/365 403/403/403 366/366/366
f 366/366/366 403/403/403 404/404/404
f 366/366/366 404/404/404 367/367/367
f 367/367/367 404/404/404 405/405/405
f 367/367/367 405/405/405 368/368/368
f 368/368/368 405/405/405 406/406/406
f 368/368/368 406/406/406 369/369/369
f 369/369/369 406/406/406 407/407/407
f 369/369/369 407/407/407 370/370/370
f 371/371/371 408/408/408 409/409/409
f 371/371/371 409/409/409 372/372/372
f 372/372/372 409/409/409 410/410/410
f 372/372/372 410/410/410 373/373/373
f 373/373/373 410/410/410 411/411/411
f 373/373/373 411/411/411 374/374/374
f 374/374/374 411/411/411 412/412/412
f 374/374/374 412/412/412 375/375/375
f 375/375/375 412/412/412 413/413/413
f 375/375/375 413/413/413 376/376/376
f 376/376/376 413/413/413 414/414/414
f 376/376/376 414/414/414 377/377/377
f 377/377/377 414/414/414 415/415/415
f 377/377/377 415/415/415 378/378/378
f 378/378/378 415/415/415 416/416/416
f 378/378/378 416/416/416 379/379/379
f 379/379/379 416/416/416 417/417/417
f 379/379/379 417/417/417 380/380/380
f 380/380/380 417/417/417 418/418/418
f 380/380/380 418/418/418 381/381/381
f 381/381/381 418/418/418 419/419/419
f 381/381/381 419/419/419 382/382/382
f 382/382/382 419/419/419 420/420/420
f 382/382/382 420/420/420 383/383/383
f 383/383/383 420/420/420 421/421/421
f 383/383/383 421/421/421 384/384/384
f 384/384/384 421/421/421 422/422/422
f 384/384/384 422/422/422 385/385/385
f 385/385/385 422/422/422 423/423/423
f 385/385/385 423/423/423 386/386/386
f 386/386/386 423/423/423 424/424/424
f 386/386/386 424/424/424 387/387/387
f 387/387/387 424/424/424 425/425/425
f 387/387/387 425/425/425 388/388/388
f 388/388/388 425/425/425 426/426/426
f 388/388/388 426/426/426 389/389/389
f 389/389/389 426/426/426 427/427/427
f 389/389/389 427/427/427 390/390/390
f 390/390/390 427/427/427 428/428/428
f 390/390/390 428/428/428 391/391/391
f 391/391/391 428/428/428 429/429/429
f 391/391/391 429/429/429 392/392/392
f 392/392/392 429/429/429 430/430/430
f 392/392/392 430/430/430 393/393/393
f 393/393/393 430/430/430 431/431/431
f 393/393/393 431/431/431 394/394/394
f 394/394/394 431/431/431 432/432/432
f 394/394/394 432/432/432 395/395/395
f 395/395/395 432/432/432 433/433/433
f 395/395/395 433/433/433 396/396/396
f 396/396/396 433/433/433 434/434/434
f 396/396/396 434/434/434 397/397/397
f 397/397/397 434/434/434 435/435/435
f 397/397/397 435/435/435 398/398/398
f 398/398/398 435/435/435 436/436/436
f 398/398/398 436/436/436 399/399/399
f 399/399/399 436/436/436 437/437/437
f 399/399/399 437/437/437 400/400/400
f 400/400/400 437/437/437 438/438/438
f 400/400/400 438/438/438 401/401/401
f 401/401/401 438/438/438 439/439/439
f 401/401/401 439/439/439 402/402/402
f 402/402/402 439/439/439 440/440/440
f 402/402/402 440/440/440 403/403/403
f 403/403/403 440/440/440 441/441/441
f 403/403/403 441/441/441 404/404/404
f 404/404/404 441/441/441 442/442/442
f 404/404/404 442/442/442 405/405/405
f 405/405/405 442/442/442 443/443/443
f 405/405/405 443/443/443 406/406/406
f 406/406/406 443/443/443 444/444/444
f 406/406/406 444/444/444 407/407/407
f 408/408/408 445/445/445 446/446/446
f 408/408/408 446/446/446 409/409/409
f 409/409/409 446/446/446 447/447/447
f 409/409/409 447/447/447 410/410/410
f 410/410/410 447/447/447 448/448/448
f 410/410/410 448/448/448 411/411/411
f 411/411/411 448/448/448 449/449/449
f 411/411/411 449/449/449 412/412/412
f 412/412/412 449/449/449 450/450/450
f 412/412/412 450/450/450 413/413/413
f 413/413/413 450/450/450 451/451/451
f 413/413/413 451/451/451 414/414/414
f 414/414/414 451/451/451 452/452/452
f 414/414/414 452/452/452 415/415/415
f 415/415/415 452/452/452 453/453/453
f 415/415/415 453/453/453 416/416/416
f 416/416/416 453/453/453 454/454/454
f 416/416/416 454/454/454 417/417/417
f 417/417/417 454/454/454 455/455/455
f 417/417/417 455/455/455 418/418/418
f 418/418/418 455/455/455 456/456/456
f 418/418/418 456/456/456 419/419/419
f 419/419/419 456/456/456 457/457/457
f 419/419/419 457/457/457 420/420/420
f 420/420/420 457/457/457 458/458/458
f 420/420/420 458/458/458 421/421/421
f 421/421/421 458/458/458 459/459/459
f 421/421/421 459/459/459 422/422/422
f 422/422/422 459/459/459 460/460/460
f 422/422/422 460/460/460 423/423/423
f 423/423/423 460/460/460 461/461/461
f 423/423/423 461/461/461 424/424/424
f 424/424/424 461/461/461 462/462/462
f 424/424/424 462/462/462 425/425/425
f 425/425/425 462/462/462 463/463/463
f 425/425/425 463/463/463 426/426/426
f 426/426/426 463/463/463 464/464/464
f 426/426/426 464/464/464 427/427/427
f 427/427/427 464/464/464 465/465/465
f 427/427/427 465/465/465 428/428/428
f 428/428/428 465/465/465 466/466/466
f 428/428/428 466/466/466 429/429/429
f 429/429/429 466/466/466 467/467/467
f 429/429/429 467/467/467 430/430/430
f 430/430/430 467/467/467 468/468/468
f 430/430/430 468/468/468 431/431/431
f 431/431/431 468/468/468 469/469/469
f 431/431/431 469/469/469 432/432/432
f 432/432/432 469/469/469 470/470/470
f 432/432/432 470/470/470 433/433/433
f 433/433/433 470/470/470 471/471/471
f 433/433/433 471/471/471 434/434/434
f 434/434/434 471/471/471 472/472/472
f 434/434/434 472/472/472 435/435/435
f 435/435/435 472/472/472 473/473/473
f 435/435/435 473/473/473 436/436/436
f 436/436/436 473/473/473 474/474/474
f 436/436/436 474/474/474 437/437/437
f 437/437/437 474/474/474 475/475/475
f 437/437/437 475/475/475 438/438/438
f 438/438/438 475/475/475 476/476/476
f 438/438/438 476/476/476 439/439/439
f 439/439/439 476/476/476 477/477/477
f 439/439/439 477/477/477 440/440/440
f 440/440/440 477/477/477 478/478/478
f 440/440/440 478/478/478 441/441/441
f 441/441/441 478/478/478 479/479/479
f 441/441/441 479/479/479 442/442/442
f 442/442/442 479/479/479 480/480/480
f 442/442/442 480/480/480 443/443/443
f 443/443/443 480/480/480 481/481/481
f 443/443/443 481/481/481 444/444/444
f 445/445/445 482/482/482 483/483/483
f 445/445/445 483/483/483 446/446/446
f 446/446/446 483/483/483 484/484/484
f 446/446/446 484/484/484 447/447/447
f 447/447/447 484/484/484 485/485/485
f 447/447/447 485/485/485 448/448/448
f 448/448/448 485/485/485 486/486/486
f 448/448/448 486/486/486 449/449/449
f 449/449/449 486/486/486 487/487/487
f 449/449/449 487/487/487 450/450/450
f 450/450/450 487/487/487 488/488/488
f 450/450/450 488/488/488 451/451/451
f 451/451/451 488/488/488 489/489/489
f 451/451/451 489/489/489 452/452/452
f 452/452/452 489/489/489 490/490/490
f 452/452/452 490/490/490 453/453/453
f 453/453/453 490/490/490 491/491/491
f 453/453/453 491/491/491 454/454/454
f 454/454/454 491/491/491 492/492/492
f 454/454/454 492/492/492 455/455/455
f 455/455/455 492/492/492 493/493/493
f 455/455/455 493/493/493 456/456/456
f 456/456/456 493/493/493 494/494/494
f 456/456/456 494/494/494 457/457/457
f 457/457/457 494/494/494 495/495/495
f 457/457/457 495/495/495 458/458/458
f 458/458/458 495/495/495 496/496/496
f 458/458/458 496/496/496 459/459/459
f 459/459/459 496/496/496 497/497/497
f 459/459/459 497/497/497 460/460/460
f 460/460/460 497/497/497 498/498/498
f 460/460/460 498/498/498 461/461/461
f 461/461/461 498/498/498 499/499/499
f 461/461/461 499/499/499 462/462/462
f 462/462/462 499/499/499 500/500/500
f 462/462/462 500/500/500 463/463/463
f 463/463/463 500/500/500 501/501/501
f 463/463/463 501/501/501 464/464/464
f 464/464/464 501/501/501 502/502/502
f 464/464/464 502/502/502 465/465/465
f 465/465/465 502/502/502 503/503/503
f 465/465/465 503/503/503 466/466/466
f 466/466/466 503/503/503 504/504/504
f 466/466/466 504/504/504 467/467/467
f 467/467/467 504/504/504 505/505/505
f 467/467/467 505/505/505 468/468/468
f 468/468/468 505/505/505 506/506/506
f 468/468/468 506/506/506 469/469/469
f 469/469/469 506/506/506 507/507/507
f 469/469/469 507/507/507 470/470/470
f 470/470/470 507/507/507 508/508/508
f 470/470/470 508/508/508 471/471/471
f 471/471/471 508/508/508 509/509/509
f 471/471/471 509/509/509 472/472/472
f 472/472/472 509/509/509 510/510/510
f 472/472/472 510/510/510 473/473/473
f 473/473/473 510/510/510 511/511/511
f 473/473/473 511/511/511 474/474/474
f 474/474/474 511/511/511 512/512/512
f 474/474/474 512/512/512 475/475/475
f 475/475/475 512/512/512 513/513/513
f 475/475/475 513/513/513 476/476/476
f 476/476/476 513/513/513 514/514/514
f 476/476/476 514/514/514 477/477/477
f 477/477/477 514/514/514 515/515/515
f 477/477/477 515/515/515 478/478/478
f 478/478/478 515/515/515 516/516/516
f 478/478/478 516/516/516 479/479/479
f 479/479/479 516/516/516 517/517/517
f 479/479/479 517/517/517 480/480/480
f 480/480/480 517/517/517 518/518/518
f 480/480/480 518/518/518 481/481/481
f 482/482/482 519/519/519 520/520/520
f 482/482/482 520/520/520 483/483/483
f 483/483/483 520/520/520 521/521/521
f 483/483/483 521/521/521 484/484/484
f 484/484/484 521/521/521 522/522/522
f 484/484/484 522/522/522 485/485/485
f 485/485/485 522/522/522 523/523/523
f 485/485/485 523/523/523 486/486/486
f 486/486/486 523/523/523 524/524/524
f 486/486/486 524/524/524 487/487/487
f 487/487/487 524/524/524 525/525/525
f 487/487/487 525/525/525 488/488/488
f 488/488/488 525/525/525 526/526/526
f 488/488/488 526/526/526 489/489/489
f 489/489/489 526/526/526 527/527/527
f 489/489/489 527/527/527 490/490/490
f 490/490/490 527/527/527 528/528/528
f 490/490/490 528/528/528 491/491/491
f 491/491/491 528/528/528 529/529/529
f 491/491/491 529/529/529 492/492/492
f 492/492/492 529/529/529 530/530/530
f 492/492/492 530/530/530 493/493/493
f 493/493/493 530/530/530 531/531/531
f 493/493/493 531/531/531 494/494/494
f 494/494/494 531/531/531 532/532/532
f 494/494/494 532/532/532 495/495/495
f 495/495/495 532/532/532 533/533/533
f 495/495/495 533/533/533 496/496/496
f 496/496/496 533/533/533 534/534/534
f 496/496/496 534/534/534 497/497/497
f 497/497/497 534/534/534 535/535/535
f 497/497/497 535/535/535 498/498/498
f 498/498/498 535/535/535 536/536/536
f 498/498/498 536/536/536 499/499/499
f 499/499/499 536/536/536 537/537/537
f 499/499/499 537/537/537 500/500/500
f 500/500/500 537/537/537 538/538/538
f 500/500/500 538/538/538 501/501/501
f 501/501/501 538/538/538 539/539/539
f 501/501/501 539/539/539 502/502/502
f 502/502/502 539/539/539 540/540/540
f 502/502/502 540/540/540 503/503/503
f 503/503/503 540/540/540 541/541/541
f 503/503/503 541/541/541 504/504/504
f 504/504/504 541/541/541 542/542/542
f 504/504/504 542/542/542 505/505/505
f 505/505/505 542/542/542 543/543/543
f 505/505/505 543/543/543 506/506/506
f 506/506/506 543/543/543 544/544/544
f 506/506/506 544/544/544 507/507/507
f 507/507/507 544/544/544 545/545/545
f 507/507/507 545/545/545 508/508/508
f 508/508/508 545/545/545 546/546/546
f 508/508/508 546/546/546 509/509/509
f 509/509/509 546/546/546 547/547/547
f 509/509/509 547/547/547 510/510/510
f 510/510/510 547/547/547 548/548/548
f 510/510/510 548/548/548 511/511/511
f 511/511/511 548/548/548 549/549/549
f 511/511/511 549/549/549 512/512/512
f 512/512/512 549/549/549 550/550/550
f 512/512/512 550/550/550 513/513/513
f 513/513/513 550/550/550 551/551/551
f 513/513/513 551/551/551 514/514/514
f 514/514/514 551/551/551 552/552/552
f 514/514/514 552/552/552 515/515/515
f 515/515/515 552/552/552 553/553/553
f 515/515/515 553/553/553 516/516/516
f 516/516/516 553/553/553 554/554/554
f 516/516/516 554/554/554 517/517/517
f 517/517/517 554/554/554 555/555/555
f 517/517/517 555/555/555 518/518/518
f 519/519/519 556/556/556 557/557/557
f 519/519/519 557/557/557 520/520/520
f 520/520/520 557/557/557 558/558/558
f 520/520/520 558/558/558 521/521/521
f 521/521/521 558/558/558 559/559/559
f 521/521/521 559/559/559 522/522/522
f 522/522/522 559/559/559 560/560/560
f 522/522/522 560/560/560 523/523/523
f 523/523/523 560/560/560 561/561/561
f 523/523/523 561/561/561 524/524/524
f 524/524/524 561/561/561 562/562/562
f 524/524/524 562/562/562 525/525/525
f 525/525/525 562/562/562 563/563/563
f 525/525/525 563/563/563 526/526/526
f 526/526/526 563/563/563 564/564/564
f 526/526/526 564/564/564 527/527/527
f 527/527/527 564/564/564 565/565/565
f 527/527/527 565/565/565 528/528/528
f 528/528/528 565/565/565 566/566/566
f 528/528/528 566/566/566 529/529/529
f 529/529/529 566/566/566 567/567/567
f 529/529/529 567/567/567 530/530/530
f 530/530/530 567/567/567 568/568/568
f 530/530/530 568/568/568 531/531/531
f 531/531/531 568/568/568 569/569/569
f 531/531/531 569/569/569 532/532/532
f 532/532/532 569/569/569 570/570/570
f 532/532/532 570/570/570 533/533/533
f 533/533/533 570/570/570 571/571/571
f 533/533/533 571/571/571 534/534/534
f 534/534/534 571/571/571 572/572/572
f 534/534/534 572/572/572 535/535/535
f 535/535/535 572/572/572 573/573/573
f 535/535/535 573/573/573 536/536/536
f 536/536/536 573/573/573 574/574/574
f 536/536/536 574/574/574 537/537/537
f 537/537/537 574/574/574 575/575/575
f 537/537/537 575/575/575 538/538/538
f 538/538/538 575/575/575 576/576/576
f 538/538/538 576/576/576 539/539/539
f 539/539/539 576/576/576 577/577/577
f 539/539/539 577/577/577 540/540/540
f 540/540/540 577/577/577 578/578/578
f 540/540/540 578/578/578 541/541/541
f 541/541/541 578/578/578 579/579/579
f 541/541/541 579/579/579 542/542/542
f 542/542/542 579/579/579 580/580/580
f 542/542/542 580/580/580 543/543/543
f 543/543/543 580/580/580 581/581/581
f 543/543/543 581/581/581 544/544/544
f 544/544/544 581/581/581 582/582/582
f 544/544/544 582/582/582 545/545/545
f 545/545/545 582/582/582 583/583/583
f 545/545/545 583/583/583 546/546/546
f 546/546/546 583/583/583 584/584/584
f 546/546/546 584/584/584 547/547/547
f 547/547/547 584/584/584 585/585/585
f 547/547/547 585/585/585 548/548/548
f 548/548/548 585/585/585 586/586/586
f 548/548/548 586/586/586 549/549/549
f 549/549/549 586/586/586 587/587/587
f 549/549/549 587/587/587 550/550/550
f 550/550/550 587/587/587 588/588/588
f 550/550/550 588/588/588 551/551/551
f 551/551/551 588/588/588 589/589/589
f 551/551/551 589/589/589 552/552/552
f 552/552/552 589/589/589 590/590/590
f 552/552/552 590/590/590 553/553/553
f 553/553/553 590/590/590 591/591/591
f 553/553/553 591/591/591 554/554/554
f 554/554/554 591/591/591 592/592/592
f 554/554/554 592/592/592 555/555/555
f 556/556/556 593/593/593 594/594/594
f 556/556/556 594/594/594 557/557/557
f 557/557/557 594/594/594 595/595/595
f 557/557/557 595/595/595 558/558/558
f 558/558/558 595/595/595 596/596/596
f 558/558/558 596/596/596 559/559/559
f 559/559/559 596/596/596 597/597/597
f 559/559/559 597/597/597 560/560/560
f 560/560/560 597/597/597 598/598/598
f 560/560/560 598/598/598 561/561/561
f 561/561/561 598/598/598 599/599/599
f 561/561/561 599/599/599 562/562/562
f 562/562/562 599/599/599 600/600/600
f 562/562/562 600/600/600 563/563/563
f 563/563/563 600/600/600 601/601/601
f 563/563/563 601/601/601 564/564/564
f 564/564/564 601/601/601 602/602/602
f 564/564/564 602/602/602 565/565/565
f 565/565/565 602/602/602 603/603/603
f 565/565/565 603/603/603 566/566/566
f 566/566/566 603/603/603 604/604/604
f 566/566/566 604/604/604 567/567/567
f 567/567/567 604/604/604 605/605/605
f 567/567/567 605/605/605 568/568/568
f 568/568/568 605/605/605 606/606/606
f 568/568/568 606/606/606 569/569/569
f 569/569/569 606/606/606 607/607/607
f 569/569/569 607/607/607 570/570/570
f 570/570/570 607/607/607 608/608/608
f 570/570/570 608/608/608 571/571/571
f 571/571/571 608/608/608 609/609/609
f 571/571/571 609/609/609 572/572/572
f 572/572/572 609/609/609 610/610/610
f 572/572/572 610/610/610 573/573/573
f 573/573/573 610/610/610 611/611/611
f 573/573/573 611/611/611 574/574/574
f 574/574/574 611/611/611 612/612/612
f 574/574/574 612/612/612 575/575/575
f 575/575/575 612/612/612 613/613/613
f 575/575/575 613/613/613 576/576/576
f 576/576/576 613/613/613 614/614/614
f 576/576/576 614/614/614 577/577/577
f 577/577/577 614/614/614 615/615/615
f 577/577/577 615/615/615 578/578/578
f 578/578/578 615/615/615 616/616/616
f 578/578/578 616/616/616 579/579/579
f 579/579/579 616/616/616 617/617/617
f 579/579/579 617/617/617 580/580/580
f 580/580/580 617/617/617 618/618/618
f 580/580/580 618/618/618 581/581/581
f 581/581/581 618/618/618 619/619/619
f 581/581/581 619/619/619 582/582/582
f 582/582/582 619/619/619 620/620/620
f 582/582/582 620/620/620 583/583/583
f 583/583/583 620/620/620 621/621/621
f 583/583/583 621/621/621 584/584/584
f 584/584/584 621/621/621 622/622/622
f 584/584/584 622/622/622 585/585/585
f 585/585/585 622/622/622 623/623/623
f 585/585/585 623/623/623 586/586/586
f 586/586/586 623/623/623 624/624/624
f 586/586/586 624/624/624 587/587/587
f 587/587/587 624/624/624 625/625/625
f 587/587/587 625/625/625 588/588/588
f 588/588/588 625/625/625 626/626/626
f 588/588/588 626/626/626 589/589/589
f 589/589/589 626/626/626 627/627/627
f 589/589/589 627/627/627 590/590/590
f 590/590/590 627/627/627 628/628/628
f 590/590/590 628/628/628 591/591/591
f 591/591/591 628/628/628 629/629/629
f 591/591/591 629/629/629 592/592/592
