# Generated sky cornice; visual geometry only.
s 1
v 40.609086 -7.693678 12.228903
v 40.476875 -4.855989 12.456993
v 40.266456 -0.429041 12.820010
v 40.167764 4.633073 12.990275
v 40.370735 9.353981 12.640108
v 40.946129 13.574846 11.647433
v 41.785943 17.637789 10.198578
v 42.811969 21.297346 8.428469
v 43.945997 24.305133 6.472032
v 45.236443 26.510381 4.245742
v 46.701929 27.901912 1.717473
v 48.219553 28.453793 -0.900747
v 49.666417 28.159065 -3.396890
v 51.097453 26.851121 -5.865727
v 52.548972 24.538981 -8.369901
v 53.870143 21.514447 -10.649198
v 54.910135 18.093703 -12.443402
v 55.643809 14.383258 -13.709142
v 56.146580 10.322793 -14.576528
v 56.418449 6.005137 -15.045559
v 56.459415 1.531728 -15.116235
v 56.249927 -3.137570 -14.754824
v 55.796502 -7.853960 -13.972571
v 55.138244 -12.237512 -12.836938
v 54.314258 -15.922942 -11.415389
v 53.244472 -18.670568 -9.569785
v 51.938198 -20.635543 -7.316188
v 50.568612 -22.321970 -4.953365
v 49.308891 -24.180131 -2.780082
v 48.137620 -26.182548 -0.759395
v 46.984970 -28.219312 1.229167
v 45.951496 -30.434679 3.012127
v 45.137751 -32.972906 4.416007
v 44.602393 -36.270196 5.339612
v 44.281178 -40.117035 5.893775
v 44.090311 -43.689100 6.223060
v 43.945997 -46.162068 6.472032
v 33.404308 -8.076019 11.555137
v 33.277237 -5.134671 11.796159
v 33.074996 -0.597623 12.179758
v 32.980140 4.540044 12.359676
v 33.175222 9.263730 11.989656
v 33.728251 13.420259 10.940701
v 34.535423 17.384781 9.409701
v 35.521569 20.917198 7.539234
v 36.611520 23.774847 5.471876
v 37.851809 25.816988 3.119365
v 39.260334 27.047833 0.447754
v 40.718971 27.453601 -2.318908
v 42.109598 27.037132 -4.956571
v 43.485013 25.629803 -7.565381
v 44.880114 23.243095 -10.211531
v 46.149934 20.180949 -12.620055
v 47.149503 16.768675 -14.515982
v 47.854660 13.107637 -15.853484
v 48.337890 9.120851 -16.770047
v 48.599191 4.889648 -17.265670
v 48.638566 0.502906 -17.340353
v 48.437220 -4.099571 -16.958452
v 48.001419 -8.779068 -16.131848
v 47.368746 -13.152639 -14.931830
v 46.576787 -16.850165 -13.429685
v 45.548582 -19.630058 -11.479443
v 44.293080 -21.661037 -9.098077
v 42.976727 -23.431271 -6.601292
v 41.765968 -25.381774 -4.304794
v 40.640223 -27.483702 -2.169542
v 39.532374 -29.621684 -0.068237
v 38.539069 -31.947145 1.815809
v 37.756953 -34.611510 3.299283
v 37.242403 -38.072661 4.275252
v 36.933673 -42.110671 4.860834
v 36.750225 -45.860251 5.208789
v 36.611520 -48.456115 5.471876
v 26.228277 -8.456240 10.883579
v 26.107484 -5.419482 11.137621
v 25.915234 -0.795515 11.541940
v 25.825064 4.381137 11.731576
v 26.010508 9.059971 11.341569
v 26.536216 13.096226 10.235953
v 27.303512 16.901191 8.622254
v 28.240939 20.243706 6.650750
v 29.277043 22.890515 4.471720
v 30.456058 24.714447 1.992134
v 31.794998 25.738292 -0.823789
v 33.181574 25.963113 -3.739896
v 34.503499 25.403584 -6.520039
v 35.810964 23.890360 -9.269767
v 37.137143 21.437780 -12.058854
v 38.344230 18.361377 -14.597478
v 39.294418 14.994179 -16.595817
v 39.964738 11.430294 -18.005568
v 40.424094 7.573353 -18.971640
v 40.672487 3.489948 -19.494035
v 40.709916 -0.747147 -19.572752
v 40.518518 -5.221793 -19.170222
v 40.104246 -9.808887 -18.298967
v 39.502829 -14.125739 -17.034128
v 38.749995 -17.800163 -15.450842
v 37.772586 -20.590726 -13.395255
v 36.579110 -22.680844 -10.885255
v 35.327789 -24.534422 -8.253602
v 34.176846 -26.576755 -5.833054
v 33.106715 -28.777642 -3.582462
v 32.053598 -31.016281 -1.367652
v 31.109365 -33.451225 0.618164
v 30.365888 -36.241029 2.181770
v 29.876759 -39.865132 3.210459
v 29.583281 -44.093252 3.827672
v 29.408896 -48.019363 4.194421
v 29.277043 -50.737440 4.471720
v 19.093317 -8.795581 10.184615
v 18.980428 -5.680466 10.450590
v 18.800760 -0.998918 10.873901
v 18.716491 4.180510 11.072446
v 18.889799 8.777142 10.664119
v 19.381104 12.656195 9.506567
v 20.098186 16.264126 7.817066
v 20.974267 19.380947 5.752952
v 21.942567 21.785083 3.471564
v 23.044425 23.364661 0.875502
v 24.295742 24.161953 -2.072697
v 25.591578 24.193716 -5.125786
v 26.826995 23.487026 -8.036523
v 28.048897 21.873037 -10.915418
v 29.288289 19.369004 -13.835520
v 30.416382 16.300377 -16.493393
v 31.304388 13.005873 -18.585603
v 31.930841 9.571226 -20.061575
v 32.360137 5.880278 -21.073028
v 32.592274 1.983539 -21.619961
v 32.627254 -2.063795 -21.702376
v 32.448381 -6.369988 -21.280937
v 32.061220 -10.825266 -20.368757
v 31.499161 -15.050055 -19.044502
v 30.795593 -18.672745 -17.386843
v 29.882148 -21.453863 -15.234696
v 28.766775 -23.591004 -12.606792
v 27.597342 -25.518964 -9.851519
v 26.521718 -27.643253 -7.317267
v 25.521619 -29.932460 -4.960957
v 24.537419 -32.260933 -2.642107
v 23.654978 -34.793589 -0.563009
v 22.960156 -37.695345 1.074046
v 22.503036 -41.464880 2.151056
v 22.228764 -45.862670 2.797262
v 22.065790 -49.946333 3.181240
v 21.942567 -52.773484 3.471564
v 12.005519 -9.057217 9.429343
v 11.902404 -5.887009 9.705020
v 11.738291 -1.176715 10.143774
v 11.661318 3.979788 10.349561
v 11.819621 8.480028 9.926338
v 12.268390 12.198845 8.726561
v 12.923390 15.612091 6.975429
v 13.723622 18.510896 4.836019
v 14.608090 20.685262 2.471408
v 15.614552 22.037606 -0.219356
v 16.757534 22.627492 -3.275101
v 17.941181 22.485690 -6.439563
v 19.069639 21.650288 -9.456480
v 20.185753 19.953712 -12.440394
v 21.317842 17.415752 -15.467018
v 22.348268 14.369167 -18.221847
v 23.159393 11.156126 -20.390378
v 23.731610 7.854417 -21.920192
v 24.123738 4.330680 -22.968541
v 24.335778 0.620729 -23.535427
v 24.367729 -3.236297 -23.620848
v 24.204342 -7.370051 -23.184035
v 23.850700 -11.685067 -22.238579
v 23.337303 -15.806430 -20.866018
v 22.694648 -19.364874 -19.147890
v 21.860286 -22.123860 -16.917235
v 20.841478 -24.292749 -14.193467
v 19.773292 -26.278059 -11.337685
v 18.790792 -28.465539 -8.710987
v 17.877278 -30.822841 -6.268721
v 16.978288 -33.220577 -3.865283
v 16.172246 -35.828571 -1.710342
v 15.537579 -38.816643 -0.013569
v 15.120035 -42.698308 1.102730
v 14.869509 -47.226916 1.772508
v 14.720645 -51.432053 2.170493
v 14.608090 -54.343301 2.471408
v 4.964214 -9.209808 8.592368
v 4.872714 -6.011634 8.874510
v 4.727088 -1.296827 9.323554
v 4.658785 3.826683 9.534167
v 4.799257 8.244860 9.101019
v 5.197473 11.839666 7.873103
v 5.778689 15.105886 6.080903
v 6.488778 17.843090 3.891319
v 7.273613 19.850048 1.471252
v 8.166701 21.039463 -1.282617
v 9.180929 21.482763 -4.410026
v 10.231242 21.220388 -7.648703
v 11.232583 20.297978 -10.736374
v 12.222970 18.549402 -13.790268
v 13.227532 15.996152 -16.887873
v 14.141884 12.974987 -19.707310
v 14.861638 9.829353 -21.926698
v 15.369397 6.631241 -23.492390
v 15.717353 3.235734 -24.565326
v 15.905507 -0.331718 -25.145506
v 15.933859 -4.043307 -25.232930
v 15.788878 -8.043172 -24.785874
v 15.475073 -12.246141 -23.818244
v 15.019508 -16.281786 -22.413493
v 14.449246 -19.783690 -20.655070
v 13.708872 -22.518142 -18.372101
v 12.804830 -24.702020 -15.584455
v 11.856971 -26.720777 -12.661698
v 10.985147 -28.945110 -9.973397
v 10.174538 -31.342127 -7.473854
v 9.376816 -33.780259 -5.014049
v 8.661572 -36.432191 -2.808570
v 8.098398 -39.470605 -1.072003
v 7.727889 -43.417665 0.070475
v 7.505584 -48.022569 0.755962
v 7.373489 -52.298551 1.163280
v 7.273613 -55.258847 1.471252
v -2.037686 -9.230546 7.654307
v -2.116009 -6.033921 7.938910
v -2.240664 -1.334240 8.391869
v -2.299130 3.759581 8.604319
v -2.178888 8.133405 8.167394
v -1.838019 11.672104 6.928771
v -1.340504 14.875333 5.120943
v -0.732675 17.546323 2.912266
v -0.060864 19.487622 0.471096
v 0.703610 20.615842 -2.306786
v 1.571779 21.006306 -5.461466
v 2.470836 20.702692 -8.728384
v 3.327974 19.753121 -11.842979
v 4.175735 17.992553 -14.923502
v 5.035631 15.443001 -18.048119
v 5.818307 12.441430 -20.892141
v 6.434409 9.330514 -23.130882
v 6.869046 6.179963 -24.710226
v 7.166893 2.841333 -25.792518
v 7.327951 -0.663645 -26.377757
v 7.352220 -4.311220 -26.465944
v 7.228117 -8.250089 -26.014989
v 6.959503 -12.398982 -25.038922
v 6.569544 -16.390351 -23.621922
v 6.081405 -19.860076 -21.848166
v 5.447653 -22.576259 -19.545289
v 4.673802 -24.757643 -16.733335
v 3.862444 -26.780945 -13.785092
v 3.116172 -29.010287 -11.073350
v 2.422298 -31.412702 -8.552010
v 1.739456 -33.856324 -6.070756
v 1.127215 -36.514226 -3.846045
v 0.645144 -39.559482 -2.094336
v 0.327992 -43.515431 -0.941896
v 0.137701 -48.130704 -0.250432
v 0.024629 -52.416314 0.160439
v -0.060864 -55.383275 0.471096
v -9.012523 -9.107421 6.603782
v -9.076597 -5.943705 6.886389
v -9.178573 -1.278090 7.336172
v -9.226403 3.793626 7.547132
v -9.128037 8.169486 7.113270
v -8.849181 11.732369 5.883333
v -8.442178 14.971089 4.088181
v -7.944930 17.686928 1.894992
v -7.395341 19.680364 -0.529060
v -6.769946 20.864557 -3.287463
v -6.059721 21.309671 -6.420022
v -5.324228 21.055304 -9.664032
v -4.623028 20.146291 -12.756787
v -3.929499 18.418163 -15.815710
v -3.226042 15.892114 -18.918416
v -2.585757 12.901230 -21.742496
v -2.081741 9.785330 -23.965538
v -1.726178 6.615913 -25.533808
v -1.482517 3.250074 -26.608510
v -1.350760 -0.286550 -27.189646
v -1.330906 -3.965941 -27.277214
v -1.432432 -7.930107 -26.829421
v -1.652177 -12.094310 -25.860199
v -1.971192 -16.091773 -24.453134
v -2.370524 -19.559765 -22.691816
v -2.888979 -22.266877 -20.405088
v -3.522044 -24.427405 -17.612851
v -4.185793 -26.423719 -14.685282
v -4.796298 -28.623324 -11.992554
v -5.363936 -30.993693 -9.488895
v -5.922550 -33.404720 -7.025040
v -6.423407 -36.027169 -4.815929
v -6.817776 -39.031805 -3.076503
v -7.077229 -42.934986 -1.932144
v -7.232901 -47.488696 -1.245528
v -7.325401 -51.717142 -0.837539
v -7.395341 -54.644527 -0.529060
v -15.976098 -8.840484 5.438678
v -16.025476 -5.742754 5.714749
v -16.104064 -1.135221 6.154131
v -16.140924 3.913831 6.360213
v -16.065118 8.327379 5.936384
v -15.850218 11.982030 4.734889
v -15.536562 15.340798 2.981251
v -15.153358 18.198221 0.838779
v -14.729818 20.347690 -1.529216
v -14.247858 21.692370 -4.223830
v -13.700524 22.288956 -7.283949
v -13.133717 22.166264 -10.452940
v -12.593338 21.360550 -13.474175
v -12.058870 19.707686 -16.462359
v -11.516752 17.226805 -19.493315
v -11.023317 14.242917 -22.252087
v -10.634898 11.090599 -24.423721
v -10.360883 7.846723 -25.955725
v -10.173107 4.382360 -27.005575
v -10.071568 0.733924 -27.573271
v -10.056268 -3.058788 -27.658815
v -10.134508 -7.120690 -27.221377
v -10.303855 -11.357019 -26.274568
v -10.549703 -15.400394 -24.900042
v -10.857448 -18.889178 -23.179455
v -11.256995 -21.591586 -20.945607
v -11.744866 -23.711442 -18.217942
v -12.256383 -25.649245 -15.358073
v -12.726868 -27.784380 -12.727615
v -13.164318 -30.085274 -10.281854
v -13.594813 -32.425634 -7.874975
v -13.980798 -34.971220 -5.716950
v -14.284718 -37.887791 -4.017749
v -14.484665 -41.676570 -2.899853
v -14.604633 -46.096812 -2.229116
v -14.675919 -50.201322 -1.830561
v -14.729818 -53.042907 -1.529216
v -22.945476 -8.441987 4.166559
v -22.980389 -5.444492 4.431855
v -23.035954 -0.928759 4.854088
v -23.062016 4.078307 5.052126
v -23.008417 8.537379 4.644840
v -22.856473 12.316329 3.490240
v -22.634702 15.840401 1.805048
v -22.363759 18.894875 -0.253801
v -22.064295 21.263401 -2.529371
v -21.723525 22.835033 -5.118813
v -21.336533 23.647098 -8.059493
v -20.935773 23.712938 -11.104796
v -20.553698 23.056476 -14.008110
v -20.175803 21.514377 -16.879663
v -19.792499 19.102792 -19.792318
v -19.443616 16.134569 -22.443413
v -19.168985 12.936150 -24.530286
v -18.975243 9.591949 -26.002494
v -18.842476 5.993263 -27.011368
v -18.770683 2.191852 -27.556907
v -18.759865 -1.755721 -27.639111
v -18.815185 -5.949686 -27.218747
v -18.934921 -10.281122 -26.308893
v -19.108748 -14.382483 -24.988016
v -19.326339 -17.894385 -23.334584
v -19.608838 -20.584942 -21.187926
v -19.953787 -22.642614 -18.566723
v -20.315455 -24.493067 -15.818477
v -20.648111 -26.531958 -13.290689
v -20.957409 -28.729136 -10.940387
v -21.261790 -30.964001 -8.627451
v -21.534701 -33.394841 -6.553656
v -21.749587 -36.179943 -4.920775
v -21.890960 -39.797937 -3.846512
v -21.975783 -44.018930 -3.201954
v -22.026186 -47.938424 -2.818956
v -22.064295 -50.651920 -2.529371
v -29.936690 -7.935381 2.804176
v -29.958003 -5.071855 3.055121
v -29.991923 -0.692062 3.454512
v -30.007833 4.230822 3.641837
v -29.975113 8.707191 3.256584
v -29.882358 12.596188 2.164444
v -29.746978 16.277844 0.570415
v -29.581580 19.528742 -1.377058
v -29.398772 22.123312 -3.529527
v -29.190748 23.935737 -5.978889
v -28.954508 24.981509 -8.760488
v -28.709863 25.256654 -11.641051
v -28.476625 24.771190 -14.387305
v -28.245938 23.363887 -17.103517
v -28.011949 21.047458 -19.858608
v -27.798973 18.118873 -22.366288
v -27.631324 14.893083 -24.340269
v -27.513054 11.462261 -25.732835
v -27.432006 7.741025 -26.687132
v -27.388180 3.797825 -27.203159
v -27.381576 -0.292542 -27.280917
v -27.415346 -4.602087 -26.883293
v -27.488439 -9.006953 -26.022659
v -27.594552 -13.142155 -24.773237
v -27.727381 -16.653506 -23.209250
v -27.899833 -19.310746 -21.178718
v -28.110408 -21.283825 -18.699314
v -28.331189 -23.023232 -16.099738
v -28.534259 -24.939769 -13.708694
v -28.723071 -27.005093 -11.485536
v -28.908881 -29.105844 -9.297722
v -29.075480 -31.390808 -7.336112
v -29.206658 -34.008775 -5.791564
v -29.292959 -37.409653 -4.775415
v -29.344740 -41.377344 -4.165725
v -29.375508 -45.061628 -3.803446
v -29.398772 -47.612286 -3.529527
v -36.962627 -7.353280 1.376103
v -36.971715 -4.653836 1.610094
v -36.986179 -0.460094 1.982501
v -36.992963 4.318249 2.157170
v -36.979011 8.751516 1.797945
v -36.939459 12.692503 0.779593
v -36.881730 16.473642 -0.706741
v -36.811201 19.866295 -2.522639
v -36.733248 22.639205 -4.529683
v -36.644544 24.654230 -6.813562
v -36.543806 25.906101 -9.407230
v -36.439485 26.374601 -12.093177
v -36.340028 26.056525 -14.653889
v -36.241659 24.794766 -17.186588
v -36.141882 22.598628 -19.755540
v -36.051065 19.746202 -22.093796
v -35.979577 16.537443 -23.934411
v -35.929144 13.070601 -25.232893
v -35.894584 9.283383 -26.122716
v -35.875896 5.259035 -26.603879
v -35.873080 1.088529 -26.676383
v -35.887480 -3.272635 -26.305624
v -35.918648 -7.688181 -25.503136
v -35.963896 -11.800380 -24.338127
v -36.020537 -15.264632 -22.879806
v -36.094074 -17.855262 -20.986461
v -36.183867 -19.722546 -18.674570
v -36.278012 -21.334359 -16.250627
v -36.364605 -23.110307 -14.021126
v -36.445117 -25.024130 -11.948169
v -36.524350 -26.970779 -9.908168
v -36.595391 -29.088130 -8.079088
v -36.651328 -31.514055 -6.638893
v -36.688128 -34.665461 -5.691396
v -36.710208 -38.342101 -5.122899
v -36.723328 -41.756123 -4.785095
v -36.733248 -44.119677 -4.529683
v -44.031363 -6.734556 -0.087375
v -44.029922 -4.221606 0.128258
v -44.027629 -0.261183 0.471449
v -44.026554 4.306571 0.632415
v -44.028766 8.619010 0.301372
v -44.035036 12.526566 -0.637088
v -44.044187 16.316265 -2.006816
v -44.055368 19.759603 -3.680252
v -44.067725 22.625127 -5.529839
v -44.081787 24.767257 -7.634542
v -44.097757 26.163822 -10.024731
v -44.114294 26.781687 -12.499959
v -44.130061 26.606877 -14.859778
v -44.145655 25.488692 -17.193781
v -44.161472 23.433466 -19.561192
v -44.175869 20.698455 -21.716007
v -44.187201 17.565546 -23.412221
v -44.195196 14.136073 -24.608834
v -44.200675 10.367856 -25.428848
v -44.203637 6.354661 -25.872263
v -44.204084 2.198951 -25.939079
v -44.201801 -2.120373 -25.597407
v -44.196860 -6.459492 -24.857876
v -44.189687 -10.473519 -23.784264
v -44.180708 -13.832361 -22.440352
v -44.169051 -16.318447 -20.695545
v -44.154816 -18.063040 -18.565027
v -44.139892 -19.539231 -16.331247
v -44.126165 -21.165746 -14.276656
v -44.113401 -22.918535 -12.366327
v -44.100841 -24.701388 -10.486369
v -44.089579 -26.640579 -8.800784
v -44.080712 -28.862381 -7.473576
v -44.074878 -31.748619 -6.600413
v -44.071378 -35.115897 -6.076515
v -44.069298 -38.242655 -5.765214
v -44.067725 -40.407334 -5.529839
vt 0.15938453 1.16826138
vt 0.15938453 1.16269859
vt 0.15938453 1.15401905
vt 0.15938453 1.14412571
vt 0.15938453 1.13487624
vt 0.15938453 1.12637575
vt 0.15938453 1.11788313
vt 0.15938453 1.10983636
vt 0.15938453 1.10268087
vt 0.15938453 1.09634340
vt 0.15938453 1.09040543
vt 0.15938453 1.08483288
vt 0.15938453 1.07958880
vt 0.15938453 1.07383521
vt 0.15938453 1.06692598
vt 0.15938453 1.05933983
vt 0.15938453 1.05167989
vt 0.15938453 1.04396598
vt 0.15938453 1.03583117
vt 0.15938453 1.02734157
vt 0.15938453 1.01860319
vt 0.15938453 1.00945230
vt 0.15938453 1.00009689
vt 0.15938453 0.99121292
vt 0.15938453 0.98342675
vt 0.15938453 0.97681980
vt 0.15938453 0.97074735
vt 0.15938453 0.96481494
vt 0.15938453 0.95900405
vt 0.15938453 0.95325076
vt 0.15938453 0.94750029
vt 0.15938453 0.94179207
vt 0.15938453 0.93603268
vt 0.15938453 0.92931007
vt 0.15938453 0.92170812
vt 0.15938453 0.91469763
vt 0.15938453 0.90983971
vt 0.17384000 1.16822969
vt 0.17384000 1.16246316
vt 0.17384000 1.15356608
vt 0.17384000 1.14352464
vt 0.17384000 1.13426682
vt 0.17384000 1.12586205
vt 0.17384000 1.11749288
vt 0.17384000 1.10957745
vt 0.17384000 1.10253885
vt 0.17384000 1.09623629
vt 0.17384000 1.09019550
vt 0.17384000 1.08440203
vt 0.17384000 1.07887047
vt 0.17384000 1.07280084
vt 0.17384000 1.06559950
vt 0.17384000 1.05780652
vt 0.17384000 1.05006805
vt 0.17384000 1.04239820
vt 0.17384000 1.03438275
vt 0.17384000 1.02605498
vt 0.17384000 1.01748573
vt 0.17384000 1.00846167
vt 0.17384000 0.99916258
vt 0.17384000 0.99026514
vt 0.17384000 0.98239986
vt 0.17384000 0.97562896
vt 0.17384000 0.96929362
vt 0.17384000 0.96306641
vt 0.17384000 0.95696673
vt 0.17384000 0.95092753
vt 0.17384000 0.94489129
vt 0.17384000 0.93889940
vt 0.17384000 0.93285380
vt 0.17384000 0.92579710
vt 0.17384000 0.91781736
vt 0.17384000 0.91045848
vt 0.17384000 0.90535915
vt 0.18829547 1.16664670
vt 0.18829547 1.16069248
vt 0.18829547 1.15162294
vt 0.18829547 1.14150474
vt 0.18829547 1.13233112
vt 0.18829547 1.12412519
vt 0.18829547 1.11598356
vt 0.18829547 1.10829430
vt 0.18829547 1.10144689
vt 0.18829547 1.09521799
vt 0.18829547 1.08908034
vt 0.18829547 1.08305512
vt 0.18829547 1.07722280
vt 0.18829547 1.07083198
vt 0.18829547 1.06335005
vt 0.18829547 1.05538324
vt 0.18829547 1.04762381
vt 0.18829547 1.04008121
vt 0.18829547 1.03228951
vt 0.18829547 1.02424178
vt 0.18829547 1.01596462
vt 0.18829547 1.00718580
vt 0.18829547 0.99804851
vt 0.18829547 0.98922347
vt 0.18829547 0.98134003
vt 0.18829547 0.97443719
vt 0.18829547 0.96784796
vt 0.18829547 0.96132756
vt 0.18829547 0.95494072
vt 0.18829547 0.94861719
vt 0.18829547 0.94229675
vt 0.18829547 0.93602277
vt 0.18829547 0.92969254
vt 0.18829547 0.92230361
vt 0.18829547 0.91394819
vt 0.18829547 0.90624285
vt 0.18829547 0.90090344
vt 0.20275094 1.16393922
vt 0.20275094 1.15783069
vt 0.20275094 1.14864607
vt 0.20275094 1.13852183
vt 0.20275094 1.12950520
vt 0.20275094 1.12156696
vt 0.20275094 1.11371714
vt 0.20275094 1.10630669
vt 0.20275094 1.09968385
vt 0.20275094 1.09353860
vt 0.20275094 1.08730534
vt 0.20275094 1.08105469
vt 0.20275094 1.07493800
vt 0.20275094 1.06825420
vt 0.20275094 1.06053044
vt 0.20275094 1.05243549
vt 0.20275094 1.04470570
vt 0.20275094 1.03734828
vt 0.20275094 1.02984791
vt 0.20275094 1.02215516
vt 0.20275094 1.01424841
vt 0.20275094 1.00579374
vt 0.20275094 0.99689390
vt 0.20275094 0.98820842
vt 0.20275094 0.98036112
vt 0.20275094 0.97336702
vt 0.20275094 0.96655773
vt 0.20275094 0.95977568
vt 0.20275094 0.95313253
vt 0.20275094 0.94655525
vt 0.20275094 0.93998118
vt 0.20275094 0.93345542
vt 0.20275094 0.92687117
vt 0.20275094 0.91918573
vt 0.20275094 0.91049501
vt 0.20275094 0.90248046
vt 0.20275094 0.89692679
vt 0.21720641 1.16088507
vt 0.21720641 1.15466792
vt 0.21720641 1.14542495
vt 0.21720641 1.13534496
vt 0.21720641 1.12651338
vt 0.21720641 1.11885110
vt 0.21720641 1.11129281
vt 0.21720641 1.10415210
vt 0.21720641 1.09773602
vt 0.21720641 1.09165918
vt 0.21720641 1.08533814
vt 0.21720641 1.07889592
vt 0.21720641 1.07254651
vt 0.21720641 1.06563178
vt 0.21720641 1.05772819
vt 0.21720641 1.04955497
vt 0.21720641 1.04188456
vt 0.21720641 1.03472449
vt 0.21720641 1.02751945
vt 0.21720641 1.02018229
vt 0.21720641 1.01264703
vt 0.21720641 1.00452456
vt 0.21720641 0.99588019
vt 0.21720641 0.98736030
vt 0.21720641 0.97958113
vt 0.21720641 0.97253686
vt 0.21720641 0.96556295
vt 0.21720641 0.95857915
vt 0.21720641 0.95173840
vt 0.21720641 0.94496546
vt 0.21720641 0.93819584
vt 0.21720641 0.93147597
vt 0.21720641 0.92469585
vt 0.21720641 0.91678180
vt 0.21720641 0.90783257
vt 0.21720641 0.89957962
vt 0.21720641 0.89386074
vt 0.23166188 1.15832916
vt 0.23166188 1.15205676
vt 0.23166188 1.14280356
vt 0.23166188 1.13278765
vt 0.23166188 1.12411412
vt 0.23166188 1.11666744
vt 0.23166188 1.10933174
vt 0.23166188 1.10239209
vt 0.23166188 1.09612457
vt 0.23166188 1.09009415
vt 0.23166188 1.08371526
vt 0.23166188 1.07715052
vt 0.23166188 1.07065608
vt 0.23166188 1.06360282
vt 0.23166188 1.05559962
vt 0.23166188 1.04739718
vt 0.23166188 1.03979053
vt 0.23166188 1.03278860
vt 0.23166188 1.02581132
vt 0.23166188 1.01874569
vt 0.23166188 1.01149434
vt 0.23166188 1.00363005
vt 0.23166188 0.99519145
vt 0.23166188 0.98681373
vt 0.23166188 0.97910609
vt 0.23166188 0.97204869
vt 0.23166188 0.96498277
vt 0.23166188 0.95788131
vt 0.23166188 0.95092531
vt 0.23166188 0.94403827
vt 0.23166188 0.93715460
vt 0.23166188 0.93032151
vt 0.23166188 0.92342717
vt 0.23166188 0.91537978
vt 0.23166188 0.90627978
vt 0.23166188 0.89788779
vt 0.23166188 0.89207256
vt 0.24611735 1.15689513
vt 0.24611735 1.15062563
vt 0.24611735 1.14140162
vt 0.24611735 1.13144361
vt 0.24611735 1.12285606
vt 0.24611735 1.11551071
vt 0.24611735 1.10827766
vt 0.24611735 1.10143069
vt 0.24611735 1.09523386
vt 0.24611735 1.08923681
vt 0.24611735 1.08285698
vt 0.24611735 1.07627078
vt 0.24611735 1.06974796
vt 0.24611735 1.06267119
vt 0.24611735 1.05466145
vt 0.24611735 1.04647755
vt 0.24611735 1.03891956
vt 0.24611735 1.03199712
vt 0.24611735 1.02512380
vt 0.24611735 1.01817802
vt 0.24611735 1.01105165
vt 0.24611735 1.00330544
vt 0.24611735 0.99496852
vt 0.24611735 0.98666992
vt 0.24611735 0.97901428
vt 0.24611735 0.97197702
vt 0.24611735 0.96490392
vt 0.24611735 0.95778647
vt 0.24611735 0.95081481
vt 0.24611735 0.94391226
vt 0.24611735 0.93701309
vt 0.24611735 0.93016461
vt 0.24611735 0.92325475
vt 0.24611735 0.91518924
vt 0.24611735 0.90606875
vt 0.24611735 0.89765786
vt 0.24611735 0.89182954
vt 0.26057282 1.15679403
vt 0.26057282 1.15058923
vt 0.26057282 1.14143263
vt 0.26057282 1.13151800
vt 0.26057282 1.12292767
vt 0.26057282 1.11554897
vt 0.26057282 1.10827985
vt 0.26057282 1.10140370
vt 0.26057282 1.09519511
vt 0.26057282 1.08922569
vt 0.26057282 1.08291591
vt 0.26057282 1.07642492
vt 0.26057282 1.07000438
vt 0.26057282 1.06303049
vt 0.26057282 1.05511482
vt 0.26057282 1.04699892
vt 0.26057282 1.03946857
vt 0.26057282 1.03253253
vt 0.26057282 1.02561782
vt 0.26057282 1.01861373
vt 0.26057282 1.01142529
vt 0.26057282 1.00363141
vt 0.26057282 0.99527150
vt 0.26057282 0.98697464
vt 0.26057282 0.97934399
vt 0.26057282 0.97236052
vt 0.26057282 0.96537206
vt 0.26057282 0.95834955
vt 0.26057282 0.95147088
vt 0.26057282 0.94466040
vt 0.26057282 0.93785326
vt 0.26057282 0.93109614
vt 0.26057282 0.92427844
vt 0.26057282 0.91632052
vt 0.26057282 0.90732168
vt 0.26057282 0.89902298
vt 0.26057282 0.89327241
vt 0.27502829 1.15774210
vt 0.27502829 1.15166714
vt 0.27502829 1.14262600
vt 0.27502829 1.13275611
vt 0.27502829 1.12409505
vt 0.27502829 1.11657014
vt 0.27502829 1.10914583
vt 0.27502829 1.10213257
vt 0.27502829 1.09583482
vt 0.27502829 1.08988227
vt 0.27502829 1.08370495
vt 0.27502829 1.07741813
vt 0.27502829 1.07122550
vt 0.27502829 1.06447915
vt 0.27502829 1.05676021
vt 0.27502829 1.04876804
vt 0.27502829 1.04125533
vt 0.27502829 1.03422932
vt 0.27502829 1.02715014
vt 0.27502829 1.01993597
vt 0.27502829 1.01252638
vt 0.27502829 1.00454573
vt 0.27502829 0.99606142
vt 0.27502829 0.98770732
vt 0.27502829 0.98008726
vt 0.27502829 0.97319744
vt 0.27502829 0.96638700
vt 0.27502829 0.95957032
vt 0.27502829 0.95289326
vt 0.27502829 0.94628240
vt 0.27502829 0.93967477
vt 0.27502829 0.93311570
vt 0.27502829 0.92649782
vt 0.27502829 0.91877315
vt 0.27502829 0.91003806
vt 0.27502829 0.90198260
vt 0.27502829 0.89640057
vt 0.28948377 1.15897664
vt 0.28948377 1.15309887
vt 0.28948377 1.14423995
vt 0.28948377 1.13445274
vt 0.28948377 1.12570674
vt 0.28948377 1.11798346
vt 0.28948377 1.11034176
vt 0.28948377 1.10312788
vt 0.28948377 1.09668621
vt 0.28948377 1.09073279
vt 0.28948377 1.08472662
vt 0.28948377 1.07872617
vt 0.28948377 1.07286485
vt 0.28948377 1.06645619
vt 0.28948377 1.05903276
vt 0.28948377 1.05122998
vt 0.28948377 1.04375172
vt 0.28948377 1.03660516
vt 0.28948377 1.02930089
vt 0.28948377 1.02179889
vt 0.28948377 1.01408708
vt 0.28948377 1.00585400
vt 0.28948377 0.99720637
vt 0.28948377 0.98878388
vt 0.28948377 0.98119063
vt 0.28948377 0.97444543
vt 0.28948377 0.96790216
vt 0.28948377 0.96139275
vt 0.28948377 0.95501667
vt 0.28948377 0.94870380
vt 0.28948377 0.94239402
vt 0.28948377 0.93613060
vt 0.28948377 0.92981104
vt 0.28948377 0.92243457
vt 0.28948377 0.91409323
vt 0.28948377 0.90640088
vt 0.28948377 0.90107047
vt 0.30393924 1.15941016
vt 0.30393924 1.15379581
vt 0.30393924 1.14520587
vt 0.30393924 1.13558387
vt 0.30393924 1.12680849
vt 0.30393924 1.11891763
vt 0.30393924 1.11107899
vt 0.30393924 1.10367294
vt 0.30393924 1.09708239
vt 0.30393924 1.09112234
vt 0.30393924 1.08530653
vt 0.30393924 1.07964192
vt 0.30393924 1.07418280
vt 0.30393924 1.06819707
vt 0.30393924 1.06115730
vt 0.30393924 1.05361963
vt 0.30393924 1.04622858
vt 0.30393924 1.03899444
vt 0.30393924 1.03149015
vt 0.30393924 1.02372261
vt 0.30393924 1.01573217
vt 0.30393924 1.00727917
vt 0.30393924 0.99851250
vt 0.30393924 0.99007370
vt 0.30393924 0.98256319
vt 0.30393924 0.97602591
vt 0.30393924 0.96982835
vt 0.30393924 0.96370958
vt 0.30393924 0.95771613
vt 0.30393924 0.95178209
vt 0.30393924 0.94585097
vt 0.30393924 0.93996342
vt 0.30393924 0.93402310
vt 0.30393924 0.92708929
vt 0.30393924 0.91924852
vt 0.30393924 0.91201779
vt 0.30393924 0.90700725
vt 0.31839471 1.15795082
vt 0.31839471 1.15265886
vt 0.31839471 1.14443598
vt 0.31839471 1.13509709
vt 0.31839471 1.12641021
vt 0.31839471 1.11846209
vt 0.31839471 1.11053113
vt 0.31839471 1.10302194
vt 0.31839471 1.09634530
vt 0.31839471 1.09040973
vt 0.31839471 1.08480265
vt 0.31839471 1.07949773
vt 0.31839471 1.07447737
vt 0.31839471 1.06896817
vt 0.31839471 1.06238210
vt 0.31839471 1.05518967
vt 0.31839471 1.04797170
vt 0.31839471 1.04074465
vt 0.31839471 1.03314787
vt 0.31839471 1.02523227
vt 0.31839471 1.01708553
vt 0.31839471 1.00853714
vt 0.31839471 0.99977286
vt 0.31839471 0.99142755
vt 0.31839471 0.98409069
vt 0.31839471 0.97783213
vt 0.31839471 0.97204160
vt 0.31839471 0.96637167
vt 0.31839471 0.96081787
vt 0.31839471 0.95531913
vt 0.31839471 0.94982308
vt 0.31839471 0.94436742
vt 0.31839471 0.93886285
vt 0.31839471 0.93243767
vt 0.31839471 0.92517206
vt 0.31839471 0.91847174
vt 0.31839471 0.91382876
vt 0.33285018 1.15389884
vt 0.33285018 1.14897306
vt 0.33285018 1.14120945
vt 0.33285018 1.13228263
vt 0.33285018 1.12383561
vt 0.33285018 1.11599094
vt 0.33285018 1.10812968
vt 0.33285018 1.10066658
vt 0.33285018 1.09402491
vt 0.33285018 1.08818847
vt 0.33285018 1.08282221
vt 0.33285018 1.07788667
vt 0.33285018 1.07331132
vt 0.33285018 1.06829794
vt 0.33285018 1.06220987
vt 0.33285018 1.05543547
vt 0.33285018 1.04849305
vt 0.33285018 1.04140655
vt 0.33285018 1.03387792
vt 0.33285018 1.02599290
vt 0.33285018 1.01787525
vt 0.33285018 1.00941325
vt 0.33285018 1.00081864
vt 0.33285018 0.99270859
vt 0.33285018 0.98565250
vt 0.33285018 0.97974000
vt 0.33285018 0.97439409
vt 0.33285018 0.96920124
vt 0.33285018 0.96411475
vt 0.33285018 0.95907869
vt 0.33285018 0.95404509
vt 0.33285018 0.94904849
vt 0.33285018 0.94400709
vt 0.33285018 0.93812254
vt 0.33285018 0.93146827
vt 0.33285018 0.92533174
vt 0.33285018 0.92107943
vn -0.499643 -0.085621 0.861989
vn -0.499598 -0.086667 0.861911
vn -0.500582 -0.059977 0.863609
vn -0.501388 0.019657 0.864999
vn -0.495143 0.158530 0.854226
vn -0.478300 0.300547 0.825167
vn -0.458057 0.407059 0.790245
vn -0.430480 0.512963 0.742668
vn -0.380625 0.651096 0.656657
vn -0.289657 0.816320 0.499720
vn -0.167012 0.942915 0.288130
vn -0.023558 0.998896 0.040643
vn 0.144945 0.957319 -0.250061
vn 0.282235 0.826593 -0.486915
vn 0.362069 0.691900 -0.624644
vn 0.415517 0.559880 -0.716854
vn 0.455808 0.416978 -0.786364
vn 0.481190 0.281605 -0.830153
vn 0.494347 0.168115 -0.852853
vn 0.500408 0.065497 -0.863309
vn 0.501195 -0.033979 -0.864667
vn 0.497283 -0.129186 -0.857917
vn 0.489219 -0.219820 -0.844005
vn 0.474961 -0.320908 -0.819408
vn 0.440708 -0.477180 -0.760313
vn 0.367226 -0.681007 -0.633542
vn 0.298254 -0.803917 -0.514550
vn 0.295913 -0.807349 -0.510512
vn 0.327200 -0.757821 -0.564489
vn 0.343919 -0.727789 -0.593332
vn 0.363884 -0.688102 -0.627777
vn 0.407597 -0.582571 -0.703190
vn 0.461295 -0.392252 -0.795830
vn 0.489654 -0.215936 -0.844755
vn 0.497469 -0.126295 -0.858239
vn 0.498883 -0.101742 -0.860677
vn 0.501485 0.000000 -0.865166
vn -0.464616 -0.086701 0.881258
vn -0.464548 -0.088360 0.881129
vn -0.465482 -0.061743 0.882901
vn -0.466274 0.020470 0.884403
vn -0.459798 0.167316 0.872119
vn -0.441897 0.319697 0.838165
vn -0.420138 0.434102 0.796894
vn -0.390224 0.547626 0.740156
vn -0.336765 0.691794 0.638757
vn -0.243848 0.852418 0.462517
vn -0.127144 0.962121 0.241160
vn 0.000870 0.999998 -0.001649
vn 0.145075 0.950387 -0.275169
vn 0.262193 0.827003 -0.497313
vn 0.332219 0.701827 -0.630134
vn 0.380972 0.576803 -0.722606
vn 0.419540 0.436750 -0.795761
vn 0.445076 0.298732 -0.844196
vn 0.458794 0.179540 -0.870215
vn 0.465224 0.070111 -0.882412
vn 0.466065 -0.036274 -0.884006
vn 0.461976 -0.136976 -0.876251
vn 0.453725 -0.231306 -0.860599
vn 0.439420 -0.335025 -0.833468
vn 0.405858 -0.492618 -0.769809
vn 0.337064 -0.691124 -0.639324
vn 0.275884 -0.806265 -0.523282
vn 0.275194 -0.807349 -0.521973
vn 0.304291 -0.757821 -0.577161
vn 0.319839 -0.727789 -0.606652
vn 0.338406 -0.688102 -0.641870
vn 0.379058 -0.582571 -0.718976
vn 0.428996 -0.392252 -0.813696
vn 0.455369 -0.215936 -0.863719
vn 0.462638 -0.126295 -0.877505
vn 0.463952 -0.101742 -0.879998
vn 0.466372 0.000000 -0.884589
vn -0.427754 -0.087921 0.899609
vn -0.427662 -0.090302 0.899417
vn -0.428542 -0.063811 0.901266
vn -0.429318 0.021446 0.902899
vn -0.422546 0.178168 0.888657
vn -0.403269 0.343618 0.848116
vn -0.379542 0.467762 0.798215
vn -0.346644 0.590220 0.729026
vn -0.288941 0.739761 0.607673
vn -0.195004 0.890943 0.410113
vn -0.086830 0.979343 0.182612
vn 0.023878 0.998453 -0.050218
vn 0.143753 0.942302 -0.302328
vn 0.241132 0.827454 -0.507124
vn 0.301124 0.712926 -0.633293
vn 0.344708 0.596337 -0.724954
vn 0.381174 0.460508 -0.801647
vn 0.406834 0.320024 -0.855611
vn 0.421257 0.194022 -0.885945
vn 0.428175 0.076003 -0.900494
vn 0.429087 -0.039187 -0.902413
vn 0.424771 -0.146704 -0.893335
vn 0.416288 -0.245378 -0.875496
vn 0.401939 -0.351971 -0.845317
vn 0.369219 -0.510607 -0.776504
vn 0.305630 -0.702451 -0.642770
vn 0.252502 -0.808852 -0.531038
vn 0.253388 -0.807349 -0.532900
vn 0.280179 -0.757821 -0.589243
vn 0.294495 -0.727789 -0.619351
vn 0.311591 -0.688102 -0.655306
vn 0.349021 -0.582571 -0.734027
vn 0.395002 -0.392252 -0.830729
vn 0.419286 -0.215936 -0.881800
vn 0.425978 -0.126295 -0.895875
vn 0.427188 -0.101742 -0.898420
vn 0.429417 0.000000 -0.903106
vn -0.389144 -0.089139 0.916854
vn -0.389033 -0.092272 0.916591
vn -0.389849 -0.065957 0.918514
vn -0.390601 0.022487 0.920285
vn -0.383574 0.190118 0.903729
vn -0.362932 0.370259 0.855096
vn -0.337223 0.504989 0.794523
vn -0.301374 0.636388 0.710059
vn -0.240143 0.788800 0.565796
vn -0.147905 0.925575 0.348475
vn -0.051051 0.991426 0.120281
vn 0.041940 0.994222 -0.098813
vn 0.139552 0.934034 -0.328794
vn 0.219138 0.827893 -0.516306
vn 0.269559 0.723868 -0.635101
vn 0.307699 0.616238 -0.724963
vn 0.341497 0.485808 -0.804593
vn 0.366909 0.343621 -0.864467
vn 0.381949 0.210457 -0.899902
vn 0.389360 0.082754 -0.917361
vn 0.390347 -0.042501 -0.919686
vn 0.385820 -0.157555 -0.909021
vn 0.377187 -0.260724 -0.888681
vn 0.362969 -0.370021 -0.855183
vn 0.331523 -0.529138 -0.781092
vn 0.273692 -0.713634 -0.644840
vn 0.228380 -0.811365 -0.538080
vn 0.230542 -0.807349 -0.543174
vn 0.254917 -0.757821 -0.600604
vn 0.267942 -0.727789 -0.631292
vn 0.283497 -0.688102 -0.667941
vn 0.317553 -0.582571 -0.748179
vn 0.359388 -0.392252 -0.846746
vn 0.381482 -0.215936 -0.898801
vn 0.387571 -0.126295 -0.913147
vn 0.388672 -0.101742 -0.915741
vn 0.390700 0.000000 -0.920518
vn -0.348910 -0.090187 0.932806
vn -0.348787 -0.093990 0.932477
vn -0.349530 -0.067870 0.934464
vn -0.350242 0.023441 0.936366
vn -0.343158 0.201422 0.917427
vn -0.321743 0.395701 0.860176
vn -0.294830 0.540167 0.788223
vn -0.257242 0.678860 0.687733
vn -0.194984 0.830807 0.521287
vn -0.108151 0.951158 0.289141
vn -0.024177 0.997616 0.064637
vn 0.052582 0.988673 -0.140577
vn 0.131560 0.926813 -0.351724
vn 0.196310 0.828260 -0.524831
vn 0.238250 0.733160 -0.636957
vn 0.271029 0.633646 -0.724593
vn 0.301580 0.508897 -0.806271
vn 0.326022 0.366053 -0.871616
vn 0.341234 0.226488 -0.912284
vn 0.348935 0.089411 -0.932872
vn 0.349971 -0.045746 -0.935643
vn 0.345361 -0.167954 -0.923319
vn 0.336821 -0.275092 -0.900487
vn 0.323110 -0.386521 -0.863830
vn 0.293615 -0.545530 -0.784976
vn 0.241977 -0.723145 -0.646923
vn 0.203758 -0.813473 -0.544743
vn 0.206725 -0.807349 -0.552677
vn 0.228583 -0.757821 -0.611112
vn 0.240262 -0.727789 -0.642337
vn 0.254210 -0.688102 -0.679627
vn 0.284748 -0.582571 -0.761269
vn 0.322261 -0.392252 -0.861560
vn 0.342073 -0.215936 -0.914526
vn 0.347533 -0.126295 -0.929124
vn 0.348520 -0.101742 -0.931763
vn 0.350338 0.000000 -0.936623
vn -0.307209 -0.090899 0.947291
vn -0.307086 -0.095171 0.946911
vn -0.307747 -0.069207 0.948948
vn -0.308397 0.024123 0.950952
vn -0.301627 0.209710 0.930077
vn -0.280741 0.414474 0.865676
vn -0.254356 0.565819 0.784316
vn -0.217554 0.708978 0.670836
vn -0.158149 0.858591 0.487658
vn -0.079944 0.965837 0.246510
vn -0.008470 0.999623 0.026119
vn 0.054945 0.984010 -0.169425
vn 0.119538 0.921870 -0.368600
vn 0.172747 0.828505 -0.532671
vn 0.207692 0.739404 -0.640426
vn 0.235582 0.645606 -0.726425
vn 0.262496 0.525301 -0.809416
vn 0.285021 0.382550 -0.878873
vn 0.299580 0.238550 -0.923767
vn 0.307107 0.094469 -0.946975
vn 0.308128 -0.048196 -0.950123
vn 0.303689 -0.175664 -0.936437
vn 0.295644 -0.285532 -0.911628
vn 0.282964 -0.398273 -0.872531
vn 0.256223 -0.556897 -0.790073
vn 0.210985 -0.729543 -0.650579
vn 0.178809 -0.814877 -0.551365
vn 0.182030 -0.807349 -0.561295
vn 0.201276 -0.757821 -0.620642
vn 0.211560 -0.727789 -0.652354
vn 0.223842 -0.688102 -0.690225
vn 0.250732 -0.582571 -0.773140
vn 0.283764 -0.392252 -0.874995
vn 0.301208 -0.215936 -0.928787
vn 0.306016 -0.126295 -0.943612
vn 0.306886 -0.101742 -0.946293
vn 0.308486 0.000000 -0.951229
vn -0.264232 -0.091145 0.960143
vn -0.264121 -0.095583 0.959742
vn -0.264691 -0.069678 0.961813
vn -0.265257 0.024367 0.963870
vn -0.259264 0.212709 0.942092
vn -0.240640 0.421290 0.874418
vn -0.217075 0.575057 0.788789
vn -0.184239 0.719626 0.669473
vn -0.131762 0.867988 0.478786
vn -0.064115 0.970367 0.232975
vn -0.003490 0.999913 0.012683
vn 0.049786 0.982239 -0.180908
vn 0.103896 0.920151 -0.377528
vn 0.148551 0.828589 -0.539790
vn 0.178011 0.741557 -0.646843
vn 0.201688 0.649778 -0.732878
vn 0.224817 0.531130 -0.816920
vn 0.244490 0.388529 -0.888409
vn 0.257384 0.242981 -0.935261
vn 0.264102 0.096339 -0.959671
vn 0.265016 -0.049098 -0.962993
vn 0.261076 -0.178473 -0.948676
vn 0.253991 -0.289292 -0.922930
vn 0.242899 -0.402457 -0.882626
vn 0.219670 -0.560883 -0.798220
vn 0.180846 -0.731750 -0.657143
vn 0.153618 -0.815358 -0.558204
vn 0.156568 -0.807349 -0.568923
vn 0.173122 -0.757821 -0.629076
vn 0.181968 -0.727789 -0.661219
vn 0.192532 -0.688102 -0.699605
vn 0.215660 -0.582571 -0.783647
vn 0.244071 -0.392252 -0.886886
vn 0.259076 -0.215936 -0.941409
vn 0.263211 -0.126295 -0.956436
vn 0.263959 -0.101742 -0.959153
vn 0.265336 0.000000 -0.964156
vn -0.220197 -0.090867 0.971214
vn -0.220109 -0.095119 0.970827
vn -0.220582 -0.069147 0.972914
vn -0.221048 0.024093 0.974965
vn -0.216213 0.209335 0.953641
vn -0.201311 0.413623 0.887913
vn -0.182488 0.564662 0.804894
vn -0.156232 0.707637 0.689088
vn -0.113798 0.857392 0.501926
vn -0.057789 0.965243 0.254886
vn -0.006473 0.999571 0.028548
vn 0.039115 0.984229 -0.172521
vn 0.085566 0.922088 -0.377402
vn 0.123822 0.828494 -0.546137
vn 0.148932 0.739131 -0.656890
vn 0.168955 0.645079 -0.745203
vn 0.188247 0.524569 -0.830295
vn 0.204361 0.381803 -0.901367
vn 0.214758 0.237999 -0.947225
vn 0.220128 0.094237 -0.970908
vn 0.220856 -0.048084 -0.974120
vn 0.217687 -0.175313 -0.960144
vn 0.211938 -0.285062 -0.934785
vn 0.202869 -0.397748 -0.894785
vn 0.183726 -0.556394 -0.810352
vn 0.151292 -0.729263 -0.667298
vn 0.128183 -0.814815 -0.565372
vn 0.130472 -0.807349 -0.575469
vn 0.144267 -0.757821 -0.636314
vn 0.151639 -0.727789 -0.668827
vn 0.160442 -0.688102 -0.707654
vn 0.179715 -0.582571 -0.792663
vn 0.203391 -0.392252 -0.897090
vn 0.215895 -0.215936 -0.952240
vn 0.219341 -0.126295 -0.967439
vn 0.219964 -0.101742 -0.970188
vn 0.221112 0.000000 -0.975248
vn -0.175350 -0.090089 0.980376
vn -0.175290 -0.093829 0.980036
vn -0.175662 -0.067689 0.982121
vn -0.176018 0.023350 0.984110
vn -0.172497 0.200324 0.964425
vn -0.161883 0.393221 0.905081
vn -0.148554 0.536758 0.830556
vn -0.129937 0.674800 0.726472
vn -0.099003 0.826930 0.553520
vn -0.055529 0.948963 0.310461
vn -0.013160 0.997203 0.073576
vn 0.025737 0.989259 -0.143893
vn 0.065822 0.927490 -0.368009
vn 0.098667 0.828226 -0.551640
vn 0.119898 0.732298 -0.670346
vn 0.136444 0.632012 -0.762852
vn 0.151792 0.506691 -0.848660
vn 0.163997 0.363871 -0.916899
vn 0.171555 0.224910 -0.959158
vn 0.175371 0.088752 -0.980494
vn 0.175885 -0.045426 -0.983362
vn 0.173596 -0.166938 -0.970565
vn 0.169343 -0.273703 -0.946789
vn 0.162499 -0.384942 -0.908523
vn 0.147736 -0.543984 -0.825988
vn 0.121771 -0.722262 -0.680815
vn 0.102449 -0.813278 -0.572785
vn 0.103892 -0.807349 -0.580856
vn 0.114877 -0.757821 -0.642270
vn 0.120746 -0.727789 -0.675088
vn 0.127756 -0.688102 -0.714278
vn 0.143103 -0.582571 -0.800083
vn 0.161956 -0.392252 -0.905488
vn 0.171912 -0.215936 -0.961154
vn 0.174656 -0.126295 -0.976496
vn 0.175153 -0.101742 -0.979270
vn 0.176066 0.000000 -0.984378
vn -0.129958 -0.088915 0.987525
vn -0.129922 -0.091906 0.987255
vn -0.130194 -0.065555 0.989319
vn -0.130442 0.022290 0.991205
vn -0.128152 0.187824 0.973806
vn -0.121467 0.365122 0.923001
vn -0.113157 0.497839 0.859856
vn -0.101578 0.627609 0.771873
vn -0.081692 0.779733 0.620760
vn -0.051274 0.919548 0.389618
vn -0.018775 0.989593 0.142665
vn 0.012782 0.995190 -0.097129
vn 0.046076 0.935570 -0.350123
vn 0.073197 0.827813 -0.556209
vn 0.090293 0.721862 -0.686122
vn 0.103132 0.612541 -0.783682
vn 0.114388 0.481022 -0.869214
vn 0.122745 0.339080 -0.932716
vn 0.127641 0.207261 -0.969923
vn 0.130041 0.081436 -0.988159
vn 0.130360 -0.041856 -0.990583
vn 0.128888 -0.155460 -0.979398
vn 0.126065 -0.257790 -0.957941
vn 0.121391 -0.366605 -0.922424
vn 0.110992 -0.525680 -0.843411
vn 0.091672 -0.711583 -0.696596
vn 0.076350 -0.810907 -0.580173
vn 0.076990 -0.807349 -0.585030
vn 0.085130 -0.757821 -0.646885
vn 0.089480 -0.727789 -0.679939
vn 0.094674 -0.688102 -0.719411
vn 0.106047 -0.582571 -0.805832
vn 0.120018 -0.392252 -0.911994
vn 0.127396 -0.215936 -0.968061
vn 0.129430 -0.126295 -0.983513
vn 0.129798 -0.101742 -0.986307
vn 0.130475 0.000000 -0.991452
vn -0.084300 -0.087500 0.992591
vn -0.084284 -0.089629 0.992403
vn -0.084456 -0.063089 0.994428
vn -0.084606 0.021102 0.996191
vn -0.083329 0.174306 0.981159
vn -0.079733 0.335073 0.938812
vn -0.075325 0.455758 0.886911
vn -0.069230 0.575111 0.815141
vn -0.058461 0.723026 0.688343
vn -0.040505 0.878010 0.476925
vn -0.019184 0.973966 0.225879
vn 0.003154 0.999305 -0.037132
vn 0.027650 0.945117 -0.325561
vn 0.047539 0.827300 -0.559745
vn 0.059669 0.709113 -0.702566
vn 0.068354 0.589551 -0.804833
vn 0.075481 0.452138 -0.888748
vn 0.080389 0.312430 -0.946533
vn 0.083103 0.188821 -0.978489
vn 0.084394 0.073881 -0.993690
vn 0.084563 -0.038140 -0.995688
vn 0.083752 -0.143229 -0.986139
vn 0.082144 -0.240385 -0.967196
vn 0.079398 -0.346002 -0.934868
vn 0.073074 -0.504337 -0.860410
vn 0.060554 -0.698557 -0.712987
vn 0.049863 -0.807968 -0.587113
vn 0.049935 -0.807349 -0.587957
vn 0.055215 -0.757821 -0.650122
vn 0.058036 -0.727789 -0.683341
vn 0.061405 -0.688102 -0.723011
vn 0.068781 -0.582571 -0.809865
vn 0.077843 -0.392252 -0.916558
vn 0.082628 -0.215936 -0.972905
vn 0.083947 -0.126295 -0.988434
vn 0.084186 -0.101742 -0.991242
vn 0.084625 0.000000 -0.996413
vn -0.038666 -0.086021 0.995543
vn -0.038662 -0.087291 0.995432
vn -0.038739 -0.060625 0.997409
vn -0.038803 0.019953 0.999048
vn -0.038300 0.161700 0.986096
vn -0.036931 0.307433 0.950853
vn -0.035279 0.416790 0.908318
vn -0.033020 0.525474 0.850169
vn -0.028953 0.665942 0.745441
vn -0.021656 0.829840 0.557581
vn -0.012067 0.950436 0.310686
vn -0.001117 0.999586 0.028750
vn 0.011539 0.954780 -0.297088
vn 0.021834 0.826746 -0.562151
vn 0.027883 0.695587 -0.717901
vn 0.031993 0.566105 -0.823712
vn 0.035146 0.424167 -0.904902
vn 0.037169 0.287772 -0.956977
vn 0.038231 0.172207 -0.984319
vn 0.038723 0.067146 -0.996991
vn 0.038787 -0.034800 -0.998641
vn 0.038471 -0.131988 -0.990504
vn 0.037824 -0.223974 -0.973861
vn 0.036690 -0.326043 -0.944643
vn 0.033986 -0.482844 -0.875047
vn 0.028284 -0.684763 -0.728217
vn 0.023036 -0.804793 -0.593108
vn 0.022901 -0.807349 -0.589629
vn 0.025322 -0.757821 -0.651971
vn 0.026616 -0.727789 -0.685284
vn 0.028161 -0.688102 -0.725067
vn 0.031544 -0.582571 -0.812168
vn 0.035700 -0.392252 -0.919165
vn 0.037895 -0.215936 -0.975672
vn 0.038500 -0.126295 -0.991245
vn 0.038609 -0.101742 -0.994061
vn 0.038810 0.000000 -0.999247
vn 0.006657 -0.084640 0.996389
vn 0.006657 -0.085147 0.996346
vn 0.006670 -0.058421 0.998270
vn 0.006680 0.018956 0.999798
vn 0.006604 0.151129 0.988492
vn 0.006405 0.284577 0.958632
vn 0.006168 0.384479 0.923113
vn 0.005847 0.483799 0.875160
vn 0.005264 0.615862 0.787836
vn 0.004159 0.782667 0.622426
vn 0.002578 0.922560 0.385846
vn 0.000616 0.995743 0.092170
vn -0.001791 0.963395 -0.268078
vn -0.003764 0.826212 -0.563347
vn -0.004881 0.682790 -0.730598
vn -0.005603 0.544797 -0.838550
vn -0.006123 0.399957 -0.916514
vn -0.006438 0.267266 -0.963601
vn -0.006596 0.158693 -0.987306
vn -0.006668 0.061713 -0.998072
vn -0.006678 -0.032088 -0.999463
vn -0.006631 -0.122681 -0.992424
vn -0.006532 -0.210080 -0.977662
vn -0.006355 -0.308735 -0.951127
vn -0.005920 -0.463529 -0.886062
vn -0.004949 -0.671735 -0.740775
vn -0.003993 -0.801731 -0.597672
vn -0.003942 -0.807349 -0.590061
vn -0.004359 -0.757821 -0.652448
vn -0.004582 -0.727789 -0.685786
vn -0.004848 -0.688102 -0.725598
vn -0.005430 -0.582571 -0.812762
vn -0.006146 -0.392252 -0.919837
vn -0.006523 -0.215936 -0.976386
vn -0.006628 -0.126295 -0.991971
vn -0.006646 -0.101742 -0.994789
vn -0.006681 0.000000 -0.999978
f 1/1/1 38/38/38 39/39/39
f 1/1/1 39/39/39 2/2/2
f 2/2/2 39/39/39 40/40/40
f 2/2/2 40/40/40 3/3/3
f 3/3/3 40/40/40 41/41/41
f 3/3/3 41/41/41 4/4/4
f 4/4/4 41/41/41 42/42/42
f 4/4/4 42/42/42 5/5/5
f 5/5/5 42/42/42 43/43/43
f 5/5/5 43/43/43 6/6/6
f 6/6/6 43/43/43 44/44/44
f 6/6/6 44/44/44 7/7/7
f 7/7/7 44/44/44 45/45/45
f 7/7/7 45/45/45 8/8/8
f 8/8/8 45/45/45 46/46/46
f 8/8/8 46/46/46 9/9/9
f 9/9/9 46/46/46 47/47/47
f 9/9/9 47/47/47 10/10/10
f 10/10/10 47/47/47 48/48/48
f 10/10/10 48/48/48 11/11/11
f 11/11/11 48/48/48 49/49/49
f 11/11/11 49/49/49 12/12/12
f 12/12/12 49/49/49 50/50/50
f 12/12/12 50/50/50 13/13/13
f 13/13/13 50/50/50 51/51/51
f 13/13/13 51/51/51 14/14/14
f 14/14/14 51/51/51 52/52/52
f 14/14/14 52/52/52 15/15/15
f 15/15/15 52/52/52 53/53/53
f 15/15/15 53/53/53 16/16/16
f 16/16/16 53/53/53 54/54/54
f 16/16/16 54/54/54 17/17/17
f 17/17/17 54/54/54 55/55/55
f 17/17/17 55/55/55 18/18/18
f 18/18/18 55/55/55 56/56/56
f 18/18/18 56/56/56 19/19/19
f 19/19/19 56/56/56 57/57/57
f 19/19/19 57/57/57 20/20/20
f 20/20/20 57/57/57 58/58/58
f 20/20/20 58/58/58 21/21/21
f 21/21/21 58/58/58 59/59/59
f 21/21/21 59/59/59 22/22/22
f 22/22/22 59/59/59 60/60/60
f 22/22/22 60/60/60 23/23/23
f 23/23/23 60/60/60 61/61/61
f 23/23/23 61/61/61 24/24/24
f 24/24/24 61/61/61 62/62/62
f 24/24/24 62/62/62 25/25/25
f 25/25/25 62/62/62 63/63/63
f 25/25/25 63/63/63 26/26/26
f 26/26/26 63/63/63 64/64/64
f 26/26/26 64/64/64 27/27/27
f 27/27/27 64/64/64 65/65/65
f 27/27/27 65/65/65 28/28/28
f 28/28/28 65/65/65 66/66/66
f 28/28/28 66/66/66 29/29/29
f 29/29/29 66/66/66 67/67/67
f 29/29/29 67/67/67 30/30/30
f 30/30/30 67/67/67 68/68/68
f 30/30/30 68/68/68 31/31/31
f 31/31/31 68/68/68 69/69/69
f 31/31/31 69/69/69 32/32/32
f 32/32/32 69/69/69 70/70/70
f 32/32/32 70/70/70 33/33/33
f 33/33/33 70/70/70 71/71/71
f 33/33/33 71/71/71 34/34/34
f 34/34/34 71/71/71 72/72/72
f 34/34/34 72/72/72 35/35/35
f 35/35/35 72/72/72 73/73/73
f 35/35/35 73/73/73 36/36/36
f 36/36/36 73/73/73 74/74/74
f 36/36/36 74/74/74 37/37/37
f 38/38/38 75/75/75 76/76/76
f 38/38/38 76/76/76 39/39/39
f 39/39/39 76/76/76 77/77/77
f 39/39/39 77/77/77 40/40/40
f 40/40/40 77/77/77 78/78/78
f 40/40/40 78/78/78 41/41/41
f 41/41/41 78/78/78 79/79/79
f 41/41/41 79/79/79 42/42/42
f 42/42/42 79/79/79 80/80/80
f 42/42/42 80/80/80 43/43/43
f 43/43/43 80/80/80 81/81/81
f 43/43/43 81/81/81 44/44/44
f 44/44/44 81/81/81 82/82/82
f 44/44/44 82/82/82 45/45/45
f 45/45/45 82/82/82 83/83/83
f 45/45/45 83/83/83 46/46/46
f 46/46/46 83/83/83 84/84/84
f 46/46/46 84/84/84 47/47/47
f 47/47/47 84/84/84 85/85/85
f 47/47/47 85/85/85 48/48/48
f 48/48/48 85/85/85 86/86/86
f 48/48/48 86/86/86 49/49/49
f 49/49/49 86/86/86 87/87/87
f 49/49/49 87/87/87 50/50/50
f 50/50/50 87/87/87 88/88/88
f 50/50/50 88/88/88 51/51/51
f 51/51/51 88/88/88 89/89/89
f 51/51/51 89/89/89 52/52/52
f 52/52/52 89/89/89 90/90/90
f 52/52/52 90/90/90 53/53/53
f 53/53/53 90/90/90 91/91/91
f 53/53/53 91/91/91 54/54/54
f 54/54/54 91/91/91 92/92/92
f 54/54/54 92/92/92 55/55/55
f 55/55/55 92/92/92 93/93/93
f 55/55/55 93/93/93 56/56/56
f 56/56/56 93/93/93 94/94/94
f 56/56/56 94/94/94 57/57/57
f 57/57/57 94/94/94 95/95/95
f 57/57/57 95/95/95 58/58/58
f 58/58/58 95/95/95 96/96/96
f 58/58/58 96/96/96 59/59/59
f 59/59/59 96/96/96 97/97/97
f 59/59/59 97/97/97 60/60/60
f 60/60/60 97/97/97 98/98/98
f 60/60/60 98/98/98 61/61/61
f 61/61/61 98/98/98 99/99/99
f 61/61/61 99/99/99 62/62/62
f 62/62/62 99/99/99 100/100/100
f 62/62/62 100/100/100 63/63/63
f 63/63/63 100/100/100 101/101/101
f 63/63/63 101/101/101 64/64/64
f 64/64/64 101/101/101 102/102/102
f 64/64/64 102/102/102 65/65/65
f 65/65/65 102/102/102 103/103/103
f 65/65/65 103/103/103 66/66/66
f 66/66/66 103/103/103 104/104/104
f 66/66/66 104/104/104 67/67/67
f 67/67/67 104/104/104 105/105/105
f 67/67/67 105/105/105 68/68/68
f 68/68/68 105/105/105 106/106/106
f 68/68/68 106/106/106 69/69/69
f 69/69/69 106/106/106 107/107/107
f 69/69/69 107/107/107 70/70/70
f 70/70/70 107/107/107 108/108/108
f 70/70/70 108/108/108 71/71/71
f 71/71/71 108/108/108 109/109/109
f 71/71/71 109/109/109 72/72/72
f 72/72/72 109/109/109 110/110/110
f 72/72/72 110/110/110 73/73/73
f 73/73/73 110/110/110 111/111/111
f 73/73/73 111/111/111 74/74/74
f 75/75/75 112/112/112 113/113/113
f 75/75/75 113/113/113 76/76/76
f 76/76/76 113/113/113 114/114/114
f 76/76/76 114/114/114 77/77/77
f 77/77/77 114/114/114 115/115/115
f 77/77/77 115/115/115 78/78/78
f 78/78/78 115/115/115 116/116/116
f 78/78/78 116/116/116 79/79/79
f 79/79/79 116/116/116 117/117/117
f 79/79/79 117/117/117 80/80/80
f 80/80/80 117/117/117 118/118/118
f 80/80/80 118/118/118 81/81/81
f 81/81/81 118/118/118 119/119/119
f 81/81/81 119/119/119 82/82/82
f 82/82/82 119/119/119 120/120/120
f 82/82/82 120/120/120 83/83/83
f 83/83/83 120/120/120 121/121/121
f 83/83/83 121/121/121 84/84/84
f 84/84/84 121/121/121 122/122/122
f 84/84/84 122/122/122 85/85/85
f 85/85/85 122/122/122 123/123/123
f 85/85/85 123/123/123 86/86/86
f 86/86/86 123/123/123 124/124/124
f 86/86/86 124/124/124 87/87/87
f 87/87/87 124/124/124 125/125/125
f 87/87/87 125/125/125 88/88/88
f 88/88/88 125/125/125 126/126/126
f 88/88/88 126/126/126 89/89/89
f 89/89/89 126/126/126 127/127/127
f 89/89/89 127/127/127 90/90/90
f 90/90/90 127/127/127 128/128/128
f 90/90/90 128/128/128 91/91/91
f 91/91/91 128/128/128 129/129/129
f 91/91/91 129/129/129 92/92/92
f 92/92/92 129/129/129 130/130/130
f 92/92/92 130/130/130 93/93/93
f 93/93/93 130/130/130 131/131/131
f 93/93/93 131/131/131 94/94/94
f 94/94/94 131/131/131 132/132/132
f 94/94/94 132/132/132 95/95/95
f 95/95/95 132/132/132 133/133/133
f 95/95/95 133/133/133 96/96/96
f 96/96/96 133/133/133 134/134/134
f 96/96/96 134/134/134 97/97/97
f 97/97/97 134/134/134 135/135/135
f 97/97/97 135/135/135 98/98/98
f 98/98/98 135/135/135 136/136/136
f 98/98/98 136/136/136 99/99/99
f 99/99/99 136/136/136 137/137/137
f 99/99/99 137/137/137 100/100/100
f 100/100/100 137/137/137 138/138/138
f 100/100/100 138/138/138 101/101/101
f 101/101/101 138/138/138 139/139/139
f 101/101/101 139/139/139 102/102/102
f 102/102/102 139/139/139 140/140/140
f 102/102/102 140/140/140 103/103/103
f 103/103/103 140/140/140 141/141/141
f 103/103/103 141/141/141 104/104/104
f 104/104/104 141/141/141 142/142/142
f 104/104/104 142/142/142 105/105/105
f 105/105/105 142/142/142 143/143/143
f 105/105/105 143/143/143 106/106/106
f 106/106/106 143/143/143 144/144/144
f 106/106/106 144/144/144 107/107/107
f 107/107/107 144/144/144 145/145/145
f 107/107/107 145/145/145 108/108/108
f 108/108/108 145/145/145 146/146/146
f 108/108/108 146/146/146 109/109/109
f 109/109/109 146/146/146 147/147/147
f 109/109/109 147/147/147 110/110/110
f 110/110/110 147/147/147 148/148/148
f 110/110/110 148/148/148 111/111/111
f 112/112/112 149/149/149 150/150/150
f 112/112/112 150/150/150 113/113/113
f 113/113/113 150/150/150 151/151/151
f 113/113/113 151/151/151 114/114/114
f 114/114/114 151/151/151 152/152/152
f 114/114/114 152/152/152 115/115/115
f 115/115/115 152/152/152 153/153/153
f 115/115/115 153/153/153 116/116/116
f 116/116/116 153/153/153 154/154/154
f 116/116/116 154/154/154 117/117/117
f 117/117/117 154/154/154 155/155/155
f 117/117/117 155/155/155 118/118/118
f 118/118/118 155/155/155 156/156/156
f 118/118/118 156/156/156 119/119/119
f 119/119/119 156/156/156 157/157/157
f 119/119/119 157/157/157 120/120/120
f 120/120/120 157/157/157 158/158/158
f 120/120/120 158/158/158 121/121/121
f 121/121/121 158/158/158 159/159/159
f 121/121/121 159/159/159 122/122/122
f 122/122/122 159/159/159 160/160/160
f 122/122/122 160/160/160 123/123/123
f 123/123/123 160/160/160 161/161/161
f 123/123/123 161/161/161 124/124/124
f 124/124/124 161/161/161 162/162/162
f 124/124/124 162/162/162 125/125/125
f 125/125/125 162/162/162 163/163/163
f 125/125/125 163/163/163 126/126/126
f 126/126/126 163/163/163 164/164/164
f 126/126/126 164/164/164 127/127/127
f 127/127/127 164/164/164 165/165/165
f 127/127/127 165/165/165 128/128/128
f 128/128/128 165/165/165 166/166/166
f 128/128/128 166/166/166 129/129/129
f 129/129/129 166/166/166 167/167/167
f 129/129/129 167/167/167 130/130/130
f 130/130/130 167/167/167 168/168/168
f 130/130/130 168/168/168 131/131/131
f 131/131/131 168/168/168 169/169/169
f 131/131/131 169/169/169 132/132/132
f 132/132/132 169/169/169 170/170/170
f 132/132/132 170/170/170 133/133/133
f 133/133/133 170/170/170 171/171/171
f 133/133/133 171/171/171 134/134/134
f 134/134/134 171/171/171 172/172/172
f 134/134/134 172/172/172 135/135/135
f 135/135/135 172/172/172 173/173/173
f 135/135/135 173/173/173 136/136/136
f 136/136/136 173/173/173 174/174/174
f 136/136/136 174/174/174 137/137/137
f 137/137/137 174/174/174 175/175/175
f 137/137/137 175/175/175 138/138/138
f 138/138/138 175/175/175 176/176/176
f 138/138/138 176/176/176 139/139/139
f 139/139/139 176/176/176 177/177/177
f 139/139/139 177/177/177 140/140/140
f 140/140/140 177/177/177 178/178/178
f 140/140/140 178/178/178 141/141/141
f 141/141/141 178/178/178 179/179/179
f 141/141/141 179/179/179 142/142/142
f 142/142/142 179/179/179 180/180/180
f 142/142/142 180/180/180 143/143/143
f 143/143/143 180/180/180 181/181/181
f 143/143/143 181/181/181 144/144/144
f 144/144/144 181/181/181 182/182/182
f 144/144/144 182/182/182 145/145/145
f 145/145/145 182/182/182 183/183/183
f 145/145/145 183/183/183 146/146/146
f 146/146/146 183/183/183 184/184/184
f 146/146/146 184/184/184 147/147/147
f 147/147/147 184/184/184 185/185/185
f 147/147/147 185/185/185 148/148/148
f 149/149/149 186/186/186 187/187/187
f 149/149/149 187/187/187 150/150/150
f 150/150/150 187/187/187 188/188/188
f 150/150/150 188/188/188 151/151/151
f 151/151/151 188/188/188 189/189/189
f 151/151/151 189/189/189 152/152/152
f 152/152/152 189/189/189 190/190/190
f 152/152/152 190/190/190 153/153/153
f 153/153/153 190/190/190 191/191/191
f 153/153/153 191/191/191 154/154/154
f 154/154/154 191/191/191 192/192/192
f 154/154/154 192/192/192 155/155/155
f 155/155/155 192/192/192 193/193/193
f 155/155/155 193/193/193 156/156/156
f 156/156/156 193/193/193 194/194/194
f 156/156/156 194/194/194 157/157/157
f 157/157/157 194/194/194 195/195/195
f 157/157/157 195/195/195 158/158/158
f 158/158/158 195/195/195 196/196/196
f 158/158/158 196/196/196 159/159/159
f 159/159/159 196/196/196 197/197/197
f 159/159/159 197/197/197 160/160/160
f 160/160/160 197/197/197 198/198/198
f 160/160/160 198/198/198 161/161/161
f 161/161/161 198/198/198 199/199/199
f 161/161/161 199/199/199 162/162/162
f 162/162/162 199/199/199 200/200/200
f 162/162/162 200/200/200 163/163/163
f 163/163/163 200/200/200 201/201/201
f 163/163/163 201/201/201 164/164/164
f 164/164/164 201/201/201 202/202/202
f 164/164/164 202/202/202 165/165/165
f 165/165/165 202/202/202 203/203/203
f 165/165/165 203/203/203 166/166/166
f 166/166/166 203/203/203 204/204/204
f 166/166/166 204/204/204 167/167/167
f 167/167/167 204/204/204 205/205/205
f 167/167/167 205/205/205 168/168/168
f 168/168/168 205/205/205 206/206/206
f 168/168/168 206/206/206 169/169/169
f 169/169/169 206/206/206 207/207/207
f 169/169/169 207/207/207 170/170/170
f 170/170/170 207/207/207 208/208/208
f 170/170/170 208/208/208 171/171/171
f 171/171/171 208/208/208 209/209/209
f 171/171/171 209/209/209 172/172/172
f 172/172/172 209/209/209 210/210/210
f 172/172/172 210/210/210 173/173/173
f 173/173/173 210/210/210 211/211/211
f 173/173/173 211/211/211 174/174/174
f 174/174/174 211/211/211 212/212/212
f 174/174/174 212/212/212 175/175/175
f 175/175/175 212/212/212 213/213/213
f 175/175/175 213/213/213 176/176/176
f 176/176/176 213/213/213 214/214/214
f 176/176/176 214/214/214 177/177/177
f 177/177/177 214/214/214 215/215/215
f 177/177/177 215/215/215 178/178/178
f 178/178/178 215/215/215 216/216/216
f 178/178/178 216/216/216 179/179/179
f 179/179/179 216/216/216 217/217/217
f 179/179/179 217/217/217 180/180/180
f 180/180/180 217/217/217 218/218/218
f 180/180/180 218/218/218 181/181/181
f 181/181/181 218/218/218 219/219/219
f 181/181/181 219/219/219 182/182/182
f 182/182/182 219/219/219 220/220/220
f 182/182/182 220/220/220 183/183/183
f 183/183/183 220/220/220 221/221/221
f 183/183/183 221/221/221 184/184/184
f 184/184/184 221/221/221 222/222/222
f 184/184/184 222/222/222 185/185/185
f 186/186/186 223/223/223 224/224/224
f 186/186/186 224/224/224 187/187/187
f 187/187/187 224/224/224 225/225/225
f 187/187/187 225/225/225 188/188/188
f 188/188/188 225/225/225 226/226/226
f 188/188/188 226/226/226 189/189/189
f 189/189/189 226/226/226 227/227/227
f 189/189/189 227/227/227 190/190/190
f 190/190/190 227/227/227 228/228/228
f 190/190/190 228/228/228 191/191/191
f 191/191/191 228/228/228 229/229/229
f 191/191/191 229/229/229 192/192/192
f 192/192/192 229/229/229 230/230/230
f 192/192/192 230/230/230 193/193/193
f 193/193/193 230/230/230 231/231/231
f 193/193/193 231/231/231 194/194/194
f 194/194/194 231/231/231 232/232/232
f 194/194/194 232/232/232 195/195/195
f 195/195/195 232/232/232 233/233/233
f 195/195/195 233/233/233 196/196/196
f 196/196/196 233/233/233 234/234/234
f 196/196/196 234/234/234 197/197/197
f 197/197/197 234/234/234 235/235/235
f 197/197/197 235/235/235 198/198/198
f 198/198/198 235/235/235 236/236/236
f 198/198/198 236/236/236 199/199/199
f 199/199/199 236/236/236 237/237/237
f 199/199/199 237/237/237 200/200/200
f 200/200/200 237/237/237 238/238/238
f 200/200/200 238/238/238 201/201/201
f 201/201/201 238/238/238 239/239/239
f 201/201/201 239/239/239 202/202/202
f 202/202/202 239/239/239 240/240/240
f 202/202/202 240/240/240 203/203/203
f 203/203/203 240/240/240 241/241/241
f 203/203/203 241/241/241 204/204/204
f 204/204/204 241/241/241 242/242/242
f 204/204/204 242/242/242 205/205/205
f 205/205/205 242/242/242 243/243/243
f 205/205/205 243/243/243 206/206/206
f 206/206/206 243/243/243 244/244/244
f 206/206/206 244/244/244 207/207/207
f 207/207/207 244/244/244 245/245/245
f 207/207/207 245/245/245 208/208/208
f 208/208/208 245/245/245 246/246/246
f 208/208/208 246/246/246 209/209/209
f 209/209/209 246/246/246 247/247/247
f 209/209/209 247/247/247 210/210/210
f 210/210/210 247/247/247 248/248/248
f 210/210/210 248/248/248 211/211/211
f 211/211/211 248/248/248 249/249/249
f 211/211/211 249/249/249 212/212/212
f 212/212/212 249/249/249 250/250/250
f 212/212/212 250/250/250 213/213/213
f 213/213/213 250/250/250 251/251/251
f 213/213/213 251/251/251 214/214/214
f 214/214/214 251/251/251 252/252/252
f 214/214/214 252/252/252 215/215/215
f 215/215/215 252/252/252 253/253/253
f 215/215/215 253/253/253 216/216/216
f 216/216/216 253/253/253 254/254/254
f 216/216/216 254/254/254 217/217/217
f 217/217/217 254/254/254 255/255/255
f 217/217/217 255/255/255 218/218/218
f 218/218/218 255/255/255 256/256/256
f 218/218/218 256/256/256 219/219/219
f 219/219/219 256/256/256 257/257/257
f 219/219/219 257/257/257 220/220/220
f 220/220/220 257/257/257 258/258/258
f 220/220/220 258/258/258 221/221/221
f 221/221/221 258/258/258 259/259/259
f 221/221/221 259/259/259 222/222/222
f 223/223/223 260/260/260 261/261/261
f 223/223/223 261/261/261 224/224/224
f 224/224/224 261/261/261 262/262/262
f 224/224/224 262/262/262 225/225/225
f 225/225/225 262/262/262 263/263/263
f 225/225/225 263/263/263 226/226/226
f 226/226/226 263/263/263 264/264/264
f 226/226/226 264/264/264 227/227/227
f 227/227/227 264/264/264 265/265/265
f 227/227/227 265/265/265 228/228/228
f 228/228/228 265/265/265 266/266/266
f 228/228/228 266/266/266 229/229/229
f 229/229/229 266/266/266 267/267/267
f 229/229/229 267/267/267 230/230/230
f 230/230/230 267/267/267 268/268/268
f 230/230/230 268/268/268 231/231/231
f 231/231/231 268/268/268 269/269/269
f 231/231/231 269/269/269 232/232/232
f 232/232/232 269/269/269 270/270/270
f 232/232/232 270/270/270 233/233/233
f 233/233/233 270/270/270 271/271/271
f 233/233/233 271/271/271 234/234/234
f 234/234/234 271/271/271 272/272/272
f 234/234/234 272/272/272 235/235/235
f 235/235/235 272/272/272 273/273/273
f 235/235/235 273/273/273 236/236/236
f 236/236/236 273/273/273 274/274/274
f 236/236/236 274/274/274 237/237/237
f 237/237/237 274/274/274 275/275/275
f 237/237/237 275/275/275 238/238/238
f 238/238/238 275/275/275 276/276/276
f 238/238/238 276/276/276 239/239/239
f 239/239/239 276/276/276 277/277/277
f 239/239/239 277/277/277 240/240/240
f 240/240/240 277/277/277 278/278/278
f 240/240/240 278/278/278 241/241/241
f 241/241/241 278/278/278 279/279/279
f 241/241/241 279/279/279 242/242/242
f 242/242/242 279/279/279 280/280/280
f 242/242/242 280/280/280 243/243/243
f 243/243/243 280/280/280 281/281/281
f 243/243/243 281/281/281 244/244/244
f 244/244/244 281/281/281 282/282/282
f 244/244/244 282/282/282 245/245/245
f 245/245/245 282/282/282 283/283/283
f 245/245/245 283/283/283 246/246/246
f 246/246/246 283/283/283 284/284/284
f 246/246/246 284/284/284 247/247/247
f 247/247/247 284/284/284 285/285/285
f 247/247/247 285/285/285 248/248/248
f 248/248/248 285/285/285 286/286/286
f 248/248/248 286/286/286 249/249/249
f 249/249/249 286/286/286 287/287/287
f 249/249/249 287/287/287 250/250/250
f 250/250/250 287/287/287 288/288/288
f 250/250/250 288/288/288 251/251/251
f 251/251/251 288/288/288 289/289/289
f 251/251/251 289/289/289 252/252/252
f 252/252/252 289/289/289 290/290/290
f 252/252/252 290/290/290 253/253/253
f 253/253/253 290/290/290 291/291/291
f 253/253/253 291/291/291 254/254/254
f 254/254/254 291/291/291 292/292/292
f 254/254/254 292/292/292 255/255/255
f 255/255/255 292/292/292 293/293/293
f 255/255/255 293/293/293 256/256/256
f 256/256/256 293/293/293 294/294/294
f 256/256/256 294/294/294 257/257/257
f 257/257/257 294/294/294 295/295/295
f 257/257/257 295/295/295 258/258/258
f 258/258/258 295/295/295 296/296/296
f 258/258/258 296/296/296 259/259/259
f 260/260/260 297/297/297 298/298/298
f 260/260/260 298/298/298 261/261/261
f 261/261/261 298/298/298 299/299/299
f 261/261/261 299/299/299 262/262/262
f 262/262/262 299/299/299 300/300/300
f 262/262/262 300/300/300 263/263/263
f 263/263/263 300/300/300 301/301/301
f 263/263/263 301/301/301 264/264/264
f 264/264/264 301/301/301 302/302/302
f 264/264/264 302/302/302 265/265/265
f 265/265/265 302/302/302 303/303/303
f 265/265/265 303/303/303 266/266/266
f 266/266/266 303/303/303 304/304/304
f 266/266/266 304/304/304 267/267/267
f 267/267/267 304/304/304 305/305/305
f 267/267/267 305/305/305 268/268/268
f 268/268/268 305/305/305 306/306/306
f 268/268/268 306/306/306 269/269/269
f 269/269/269 306/306/306 307/307/307
f 269/269/269 307/307/307 270/270/270
f 270/270/270 307/307/307 308/308/308
f 270/270/270 308/308/308 271/271/271
f 271/271/271 308/308/308 309/309/309
f 271/271/271 309/309/309 272/272/272
f 272/272/272 309/309/309 310/310/310
f 272/272/272 310/310/310 273/273/273
f 273/273/273 310/310/310 311/311/311
f 273/273/273 311/311/311 274/274/274
f 274/274/274 311/311/311 312/312/312
f 274/274/274 312/312/312 275/275/275
f 275/275/275 312/312/312 313/313/313
f 275/275/275 313/313/313 276/276/276
f 276/276/276 313/313/313 314/314/314
f 276/276/276 314/314/314 277/277/277
f 277/277/277 314/314/314 315/315/315
f 277/277/277 315/315/315 278/278/278
f 278/278/278 315/315/315 316/316/316
f 278/278/278 316/316/316 279/279/279
f 279/279/279 316/316/316 317/317/317
f 279/279/279 317/317/317 280/280/280
f 280/280/280 317/317/317 318/318/318
f 280/280/280 318/318/318 281/281/281
f 281/281/281 318/318/318 319/319/319
f 281/281/281 319/319/319 282/282/282
f 282/282/282 319/319/319 320/320/320
f 282/282/282 320/320/320 283/283/283
f 283/283/283 320/320/320 321/321/321
f 283/283/283 321/321/321 284/284/284
f 284/284/284 321/321/321 322/322/322
f 284/284/284 322/322/322 285/285/285
f 285/285/285 322/322/322 323/323/323
f 285/285/285 323/323/323 286/286/286
f 286/286/286 323/323/323 324/324/324
f 286/286/286 324/324/324 287/287/287
f 287/287/287 324/324/324 325/325/325
f 287/287/287 325/325/325 288/288/288
f 288/288/288 325/325/325 326/326/326
f 288/288/288 326/326/326 289/289/289
f 289/289/289 326/326/326 327/327/327
f 289/289/289 327/327/327 290/290/290
f 290/290/290 327/327/327 328/328/328
f 290/290/290 328/328/328 291/291/291
f 291/291/291 328/328/328 329/329/329
f 291/291/291 329/329/329 292/292/292
f 292/292/292 329/329/329 330/330/330
f 292/292/292 330/330/330 293/293/293
f 293/293/293 330/330/330 331/331/331
f 293/293/293 331/331/331 294/294/294
f 294/294/294 331/331/331 332/332/332
f 294/294/294 332/332/332 295/295/295
f 295/295/295 332/332/332 333/333/333
f 295/295/295 333/333/333 296/296/296
f 297/297/297 334/334/334 335/335/335
f 297/297/297 335/335/335 298/298/298
f 298/298/298 335/335/335 336/336/336
f 298/298/298 336/336/336 299/299/299
f 299/299/299 336/336/336 337/337/337
f 299/299/299 337/337/337 300/300/300
f 300/300/300 337/337/337 338/338/338
f 300/300/300 338/338/338 301/301/301
f 301/301/301 338/338/338 339/339/339
f 301/301/301 339/339/339 302/302/302
f 302/302/302 339/339/339 340/340/340
f 302/302/302 340/340/340 303/303/303
f 303/303/303 340/340/340 341/341/341
f 303/303/303 341/341/341 304/304/304
f 304/304/304 341/341/341 342/342/342
f 304/304/304 342/342/342 305/305/305
f 305/305/305 342/342/342 343/343/343
f 305/305/305 343/343/343 306/306/306
f 306/306/306 343/343/343 344/344/344
f 306/306/306 344/344/344 307/307/307
f 307/307/307 344/344/344 345/345/345
f 307/307/307 345/345/345 308/308/308
f 308/308/308 345/345/345 346/346/346
f 308/308/308 346/346/346 309/309/309
f 309/309/309 346/346/346 347/347/347
f 309/309/309 347/347/347 310/310/310
f 310/310/310 347/347/347 348/348/348
f 310/310/310 348/348/348 311/311/311
f 311/311/311 348/348/348 349/349/349
f 311/311/311 349/349/349 312/312/312
f 312/312/312 349/349/349 350/350/350
f 312/312/312 350/350/350 313/313/313
f 313/313/313 350/350/350 351/351/351
f 313/313/313 351/351/351 314/314/314
f 314/314/314 351/351/351 352/352/352
f 314/314/314 352/352/352 315/315/315
f 315/315/315 352/352/352 353/353/353
f 315/315/315 353/353/353 316/316/316
f 316/316/316 353/353/353 354/354/354
f 316/316/316 354/354/354 317/317/317
f 317/317/317 354/354/354 355/355/355
f 317/317/317 355/355/355 318/318/318
f 318/318/318 355/355/355 356/356/356
f 318/318/318 356/356/356 319/319/319
f 319/319/319 356/356/356 357/357/357
f 319/319/319 357/357/357 320/320/320
f 320/320/320 357/357/357 358/358/358
f 320/320/320 358/358/358 321/321/321
f 321/321/321 358/358/358 359/359/359
f 321/321/321 359/359/359 322/322/322
f 322/322/322 359/359/359 360/360/360
f 322/322/322 360/360/360 323/323/323
f 323/323/323 360/360/360 361/361/361
f 323/323/323 361/361/361 324/324/324
f 324/324/324 361/361/361 362/362/362
f 324/324/324 362/362/362 325/325/325
f 325/325/325 362/362/362 363/363/363
f 325/325/325 363/363/363 326/326/326
f 326/326/326 363/363/363 364/364/364
f 326/326/326 364/364/364 327/327/327
f 327/327/327 364/364/364 365/365/365
f 327/327/327 365/365/365 328/328/328
f 328/328/328 365/365/365 366/366/366
f 328/328/328 366/366/366 329/329/329
f 329/329/329 366/366/366 367/367/367
f 329/329/329 367/367/367 330/330/330
f 330/330/330 367/367/367 368/368/368
f 330/330/330 368/368/368 331/331/331
f 331/331/331 368/368/368 369/369/369
f 331/331/331 369/369/369 332/332/332
f 332/332/332 369/369/369 370/370/370
f 332/332/332 370/370/370 333/333/333
f 334/334/334 371/371/371 372/372/372
f 334/334/334 372/372/372 335/335/335
f 335/335/335 372/372/372 373/373/373
f 335/335/335 373/373/373 336/336/336
f 336/336/336 373/373/373 374/374/374
f 336/336/336 374/374/374 337/337/337
f 337/337/337 374/374/374 375/375/375
f 337/337/337 375/375/375 338/338/338
f 338/338/338 375/375/375 376/376/376
f 338/338/338 376/376/376 339/339/339
f 339/339/339 376/376/376 377/377/377
f 339/339/339 377/377/377 340/340/340
f 340/340/340 377/377/377 378/378/378
f 340/340/340 378/378/378 341/341/341
f 341/341/341 378/378/378 379/379/379
f 341/341/341 379/379/379 342/342/342
f 342/342/342 379/379/379 380/380/380
f 342/342/342 380/380/380 343/343/343
f 343/343/343 380/380/380 381/381/381
f 343/343/343 381/381/381 344/344/344
f 344/344/344 381/381/381 382/382/382
f 344/344/344 382/382/382 345/345/345
f 345/345/345 382/382/382 383/383/383
f 345/345/345 383/383/383 346/346/346
f 346/346/346 383/383/383 384/384/384
f 346/346/346 384/384/384 347/347/347
f 347/347/347 384/384/384 385/385/385
f 347/347/347 385/385/385 348/348/348
f 348/348/348 385/385/385 386/386/386
f 348/348/348 386/386/386 349/349/349
f 349/349/349 386/386/386 387/387/387
f 349/349/349 387/387/387 350/350/350
f 350/350/350 387/387/387 388/388/388
f 350/350/350 388/388/388 351/351/351
f 351/351/351 388/388/388 389/389/389
f 351/351/351 389/389/389 352/352/352
f 352/352/352 389/389/389 390/390/390
f 352/352/352 390/390/390 353/353/353
f 353/353/353 390/390/390 391/391/391
f 353/353/353 391/391/391 354/354/354
f 354/354/354 391/391/391 392/392/392
f 354/354/354 392/392/392 355/355/355
f 355/355/355 392/392/392 393/393/393
f 355/355/355 393/393/393 356/356/356
f 356/356/356 393/393/393 394/394/394
f 356/356/356 394/394/394 357/357/357
f 357/357/357 394/394/394 395/395/395
f 357/357/357 395/395/395 358/358/358
f 358/358/358 395/395/395 396/396/396
f 358/358/358 396/396/396 359/359/359
f 359/359/359 396/396/396 397/397/397
f 359/359/359 397/397/397 360/360/360
f 360/360/360 397/397/397 398/398/398
f 360/360/360 398/398/398 361/361/361
f 361/361/361 398/398/398 399/399/399
f 361/361/361 399/399/399 362/362/362
f 362/362/362 399/399/399 400/400/400
f 362/362/362 400/400/400 363/363/363
f 363/363/363 400/400/400 401/401/401
f 363/363/363 401/401/401 364/364/364
f 364/364/364 401/401/401 402/402/402
f 364/364/364 402/402/402 365/365/365
f 365/365/365 402/402/402 403/403/403
f 365/365/365 403/403/403 366/366/366
f 366/366/366 403/403/403 404/404/404
f 366/366/366 404/404/404 367/367/367
f 367/367/367 404/404/404 405/405/405
f 367/367/367 405/405/405 368/368/368
f 368/368/368 405/405/405 406/406/406
f 368/368/368 406/406/406 369/369/369
f 369/369/369 406/406/406 407/407/407
f 369/369/369 407/407/407 370/370/370
f 371/371/371 408/408/408 409/409/409
f 371/371/371 409/409/409 372/372/372
f 372/372/372 409/409/409 410/410/410
f 372/372/372 410/410/410 373/373/373
f 373/373/373 410/410/410 411/411/411
f 373/373/373 411/411/411 374/374/374
f 374/374/374 411/411/411 412/412/412
f 374/374/374 412/412/412 375/375/375
f 375/375/375 412/412/412 413/413/413
f 375/375/375 413/413/413 376/376/376
f 376/376/376 413/413/413 414/414/414
f 376/376/376 414/414/414 377/377/377
f 377/377/377 414/414/414 415/415/415
f 377/377/377 415/415/415 378/378/378
f 378/378/378 415/415/415 416/416/416
f 378/378/378 416/416/416 379/379/379
f 379/379/379 416/416/416 417/417/417
f 379/379/379 417/417/417 380/380/380
f 380/380/380 417/417/417 418/418/418
f 380/380/380 418/418/418 381/381/381
f 381/381/381 418/418/418 419/419/419
f 381/381/381 419/419/419 382/382/382
f 382/382/382 419/419/419 420/420/420
f 382/382/382 420/420/420 383/383/383
f 383/383/383 420/420/420 421/421/421
f 383/383/383 421/421/421 384/384/384
f 384/384/384 421/421/421 422/422/422
f 384/384/384 422/422/422 385/385/385
f 385/385/385 422/422/422 423/423/423
f 385/385/385 423/423/423 386/386/386
f 386/386/386 423/423/423 424/424/424
f 386/386/386 424/424/424 387/387/387
f 387/387/387 424/424/424 425/425/425
f 387/387/387 425/425/425 388/388/388
f 388/388/388 425/425/425 426/426/426
f 388/388/388 426/426/426 389/389/389
f 389/389/389 426/426/426 427/427/427
f 389/389/389 427/427/427 390/390/390
f 390/390/390 427/427/427 428/428/428
f 390/390/390 428/428/428 391/391/391
f 391/391/391 428/428/428 429/429/429
f 391/391/391 429/429/429 392/392/392
f 392/392/392 429/429/429 430/430/430
f 392/392/392 430/430/430 393/393/393
f 393/393/393 430/430/430 431/431/431
f 393/393/393 431/431/431 394/394/394
f 394/394/394 431/431/431 432/432/432
f 394/394/394 432/432/432 395/395/395
f 395/395/395 432/432/432 433/433/433
f 395/395/395 433/433/433 396/396/396
f 396/396/396 433/433/433 434/434/434
f 396/396/396 434/434/434 397/397/397
f 397/397/397 434/434/434 435/435/435
f 397/397/397 435/435/435 398/398/398
f 398/398/398 435/435/435 436/436/436
f 398/398/398 436/436/436 399/399/399
f 399/399/399 436/436/436 437/437/437
f 399/399/399 437/437/437 400/400/400
f 400/400/400 437/437/437 438/438/438
f 400/400/400 438/438/438 401/401/401
f 401/401/401 438/438/438 439/439/439
f 401/401/401 439/439/439 402/402/402
f 402/402/402 439/439/439 440/440/440
f 402/402/402 440/440/440 403/403/403
f 403/403/403 440/440/440 441/441/441
f 403/403/403 441/441/441 404/404/404
f 404/404/404 441/441/441 442/442/442
f 404/404/404 442/442/442 405/405/405
f 405/405/405 442/442/442 443/443/443
f 405/405/405 443/443/443 406/406/406
f 406/406/406 443/443/443 444/444/444
f 406/406/406 444/444/444 407/407/407
f 408/408/408 445/445/445 446/446/446
f 408/408/408 446/446/446 409/409/409
f 409/409/409 446/446/446 447/447/447
f 409/409/409 447/447/447 410/410/410
f 410/410/410 447/447/447 448/448/448
f 410/410/410 448/448/448 411/411/411
f 411/411/411 448/448/448 449/449/449
f 411/411/411 449/449/449 412/412/412
f 412/412/412 449/449/449 450/450/450
f 412/412/412 450/450/450 413/413/413
f 413/413/413 450/450/450 451/451/451
f 413/413/413 451/451/451 414/414/414
f 414/414/414 451/451/451 452/452/452
f 414/414/414 452/452/452 415/415/415
f 415/415/415 452/452/452 453/453/453
f 415/415/415 453/453/453 416/416/416
f 416/416/416 453/453/453 454/454/454
f 416/416/416 454/454/454 417/417/417
f 417/417/417 454/454/454 455/455/455
f 417/417/417 455/455/455 418/418/418
f 418/418/418 455/455/455 456/456/456
f 418/418/418 456/456/456 419/419/419
f 419/419/419 456/456/456 457/457/457
f 419/419/419 457/457/457 420/420/420
f 420/420/420 457/457/457 458/458/458
f 420/420/420 458/458/458 421/421/421
f 421/421/421 458/458/458 459/459/459
f 421/421/421 459/459/459 422/422/422
f 422/422/422 459/459/459 460/460/460
f 422/422/422 460/460/460 423/423/423
f 423/423/423 460/460/460 461/461/461
f 423/423/423 461/461/461 424/424/424
f 424/424/424 461/461/461 462/462/462
f 424/424/424 462/462/462 425/425/425
f 425/425/425 462/462/462 463/463/463
f 425/425/425 463/463/463 426/426/426
f 426/426/426 463/463/463 464/464/464
f 426/426/426 464/464/464 427/427/427
f 427/427/427 464/464/464 465/465/465
f 427/427/427 465/465/465 428/428/428
f 428/428/428 465/465/465 466/466/466
f 428/428/428 466/466/466 429/429/429
f 429/429/429 466/466/466 467/467/467
f 429/429/429 467/467/467 430/430/430
f 430/430/430 467/467/467 468/468/468
f 430/430/430 468/468/468 431/431/431
f 431/431/431 468/468/468 469/469/469
f 431/431/431 469/469/469 432/432/432
f 432/432/432 469/469/469 470/470/470
f 432/432/432 470/470/470 433/433/433
f 433/433/433 470/470/470 471/471/471
f 433/433/433 471/471/471 434/434/434
f 434/434/434 471/471/471 472/472/472
f 434/434/434 472/472/472 435/435/435
f 435/435/435 472/472/472 473/473/473
f 435/435/435 473/473/473 436/436/436
f 436/436/436 473/473/473 474/474/474
f 436/436/436 474/474/474 437/437/437
f 437/437/437 474/474/474 475/475/475
f 437/437/437 475/475/475 438/438/438
f 438/438/438 475/475/475 476/476/476
f 438/438/438 476/476/476 439/439/439
f 439/439/439 476/476/476 477/477/477
f 439/439/439 477/477/477 440/440/440
f 440/440/440 477/477/477 478/478/478
f 440/440/440 478/478/478 441/441/441
f 441/441/441 478/478/478 479/479/479
f 441/441/441 479/479/479 442/442/442
f 442/442/442 479/479/479 480/480/480
f 442/442/442 480/480/480 443/443/443
f 443/443/443 480/480/480 481/481/481
f 443/443/443 481/481/481 444/444/444
