# Generated sky cornice; visual geometry only.
s 1
v 331.934691 -6.906592 292.418276
v 332.471392 10.683583 291.838704
v 334.886550 32.022218 289.230630
v 339.448516 33.393679 284.304267
v 347.767393 17.100364 275.320900
v 349.377498 1.212935 273.582184
v 344.413007 -14.313918 278.943226
v 339.448516 -21.706432 284.304267
v 336.630831 -29.994342 287.347021
v 335.691603 -41.439552 288.361272
v 318.336487 -7.263379 281.138606
v 318.895767 9.905745 280.524682
v 321.412528 29.512750 277.762025
v 326.166409 29.078985 272.543672
v 334.835252 12.655694 263.027851
v 336.513092 -1.371282 261.186079
v 331.339751 -15.378965 266.864875
v 326.166409 -22.827763 272.543672
v 323.230188 -31.543818 275.766772
v 322.251448 -43.580275 276.841139
v 305.653723 -5.912614 268.844416
v 306.104805 8.061422 268.341072
v 308.134671 24.017523 266.076022
v 311.968863 23.661377 261.797596
v 318.960625 10.293468 253.995760
v 320.313869 -1.120566 252.485727
v 316.141366 -12.519481 257.141661
v 311.968863 -18.582502 261.797596
v 309.600686 -25.677640 264.440153
v 308.811293 -35.475686 265.321006
v 292.404602 -5.606980 257.165991
v 292.828393 8.474797 256.685260
v 294.735452 25.375188 254.521970
v 298.337674 26.208585 250.435755
v 304.906432 13.087402 242.984423
v 306.177805 0.589662 241.542230
v 302.257739 -11.669066 245.988993
v 298.337674 -17.621937 250.435755
v 296.112772 -24.350312 252.959594
v 295.371138 -33.641879 253.800873
v 278.627406 -6.303109 246.090451
v 279.099345 10.680917 245.546206
v 281.223074 32.138850 243.097107
v 285.234560 34.703763 238.471030
v 292.549624 19.335906 230.035243
v 293.965443 2.959811 228.402510
v 289.600002 -12.835269 233.436770
v 285.234560 -19.809772 238.471030
v 282.756877 -27.373502 241.328313
v 281.930983 -37.818655 242.280740
v 265.766119 -5.248320 233.955099
v 266.155363 9.847899 233.498743
v 267.906962 29.748942 231.445141
v 271.215537 33.231116 227.566115
v 277.248820 19.924171 220.492598
v 278.416553 4.364202 219.123530
v 274.816045 -10.453669 223.344823
v 271.215537 -16.494720 227.566115
v 269.172005 -22.792704 229.961984
v 268.490828 -31.489920 230.760607
v 252.835834 -4.307368 221.880552
v 253.152239 8.026604 221.503398
v 254.576065 24.240951 219.806205
v 257.265512 27.020232 216.600398
v 262.169799 16.128855 210.754513
v 263.119016 3.470887 209.623051
v 260.192264 -8.593107 213.111724
v 257.265512 -13.537441 216.600398
v 255.604383 -18.706282 218.580455
v 255.050673 -25.844206 219.240475
v 238.829466 -5.461210 211.090853
v 239.226759 10.106120 210.609351
v 241.014578 30.513397 208.442594
v 244.391570 33.937544 204.349831
v 250.549615 20.166424 196.886556
v 251.741494 4.260081 195.442051
v 248.066532 -10.912290 199.895941
v 244.391570 -17.163802 204.349831
v 242.305781 -23.717253 206.877714
v 241.610518 -32.767258 207.720342
v 225.297813 -5.696374 199.740077
v 225.708177 10.467635 199.234381
v 227.554816 31.596675 196.958752
v 231.042913 35.064342 192.660341
v 237.403560 20.739651 184.822062
v 238.634653 4.296897 183.304976
v 234.838783 -11.400220 187.982658
v 231.042913 -17.902889 192.660341
v 228.888501 -24.738537 195.315242
v 228.170363 -34.178243 196.200209
v 212.233503 -5.000244 187.808612
v 212.590175 9.202570 187.361678
v 214.195200 27.779656 185.350476
v 217.226913 30.843502 181.551540
v 222.755331 18.261803 174.624068
v 223.825348 3.799936 173.283267
v 220.526130 -10.003586 177.417403
v 217.226913 -15.715054 181.551540
v 215.354384 -21.715347 183.897942
v 214.730208 -30.001467 184.680076
v 198.261872 -6.125504 177.018572
v 198.694470 12.254454 176.467339
v 200.641157 37.102716 173.986792
v 204.318234 42.240007 169.301314
v 211.023491 26.301886 160.757208
v 212.321282 6.607639 159.103510
v 208.319758 -12.014607 164.202412
v 204.318234 -19.251584 169.301314
v 202.047098 -26.602189 172.195286
v 201.290053 -36.753024 173.159943
v 184.426092 -6.995986 166.076526
v 184.915207 14.086377 165.442709
v 187.116225 42.658578 162.590535
v 191.273704 48.653556 157.203095
v 198.854988 30.402082 147.378939
v 200.322333 7.726716 145.477489
v 195.798018 -13.699824 151.340292
v 191.273704 -21.987384 157.203095
v 188.705849 -30.382567 160.530631
v 187.849898 -41.975916 161.639810
v 171.357870 -6.299857 154.141707
v 171.793852 12.766191 153.567131
v 173.755770 38.668964 150.981541
v 177.461616 44.182356 146.097648
v 184.219335 27.703375 137.191724
v 185.527280 7.120038 135.467997
v 181.494448 -12.316687 140.782822
v 177.461616 -19.799549 146.097648
v 175.172711 -27.359377 149.114170
v 174.409743 -37.799140 150.119677
v 157.714050 -6.789798 142.963237
v 158.179127 13.641179 142.339853
v 160.271973 41.307270 139.534622
v 164.225126 47.083180 134.235851
v 171.433817 29.385697 124.573388
v 172.829047 7.439196 122.703234
v 168.527086 -13.303415 128.469543
v 164.225126 -21.339366 134.235851
v 161.783472 -29.487124 137.508621
v 160.969588 -40.738790 138.599544
v 143.666618 -8.140563 132.345831
v 144.218449 14.864629 131.593486
v 146.701687 44.858409 128.207930
v 151.392248 49.680736 121.812992
v 159.945624 29.260181 110.151634
v 161.601116 5.952618 107.894597
v 156.496682 -16.314930 114.853795
v 151.392248 -25.584627 121.812992
v 148.495137 -35.353303 125.762807
v 147.529433 -48.843379 127.079412
v 130.520917 -7.599469 120.507956
v 131.030682 12.485324 119.801003
v 133.324629 37.520356 116.619710
v 137.657639 40.059263 110.610601
v 145.559011 21.740692 99.652814
v 147.088308 2.787602 97.531953
v 142.372974 -15.571166 104.071277
v 137.657639 -23.884045 110.610601
v 134.981368 -33.003407 114.322109
v 134.089278 -45.596813 115.559279
v 117.185999 -7.454093 108.924850
v 117.680731 10.881827 108.226892
v 119.907025 32.529574 105.086082
v 124.112247 33.094578 99.153442
v 131.780593 15.856842 88.335097
v 133.264789 0.017901 86.241224
v 128.688518 -15.607449 92.697333
v 124.112247 -23.427149 99.153442
v 121.514904 -32.372060 102.817720
v 120.649123 -44.724557 104.039146
v 103.161963 -8.804858 98.327497
v 103.740107 11.636384 97.497714
v 106.341753 34.612506 93.763688
v 111.255973 33.562384 86.710528
v 120.217198 13.852544 73.848884
v 121.951629 -2.402020 71.359534
v 116.603801 -18.733779 79.035031
v 111.255973 -27.672410 86.710528
v 108.220719 -38.238239 91.066892
v 107.208968 -52.829146 92.519013
v 89.722643 -8.899081 86.907360
v 90.300667 12.595935 86.063291
v 92.901776 37.597551 82.264983
v 97.814983 37.714295 75.090400
v 106.774359 17.346602 62.007338
v 108.508432 -0.765587 59.475132
v 103.161707 -18.729787 67.282766
v 97.814983 -27.968540 75.090400
v 94.780355 -38.647437 79.521760
v 93.768813 -53.394486 80.998880
v 76.639689 -8.202952 74.959914
v 77.166685 13.112372 74.176890
v 79.538165 39.358796 70.653283
v 84.017627 41.585166 63.997580
v 92.186057 22.006948 51.860710
v 93.767044 2.283571 49.511638
v 88.892335 -16.896926 56.754609
v 84.017627 -25.780705 63.997580
v 81.250900 -35.624247 68.108455
v 80.328658 -49.217710 69.478747
v 62.967046 -8.817178 63.887693
v 63.527254 15.708410 63.040681
v 66.048191 47.360338 59.229131
v 70.809960 52.030826 52.029536
v 79.493185 30.122646 38.900863
v 81.173810 5.667663 36.359829
v 75.991885 -17.766885 44.194683
v 70.809960 -27.711130 52.029536
v 67.868867 -38.291743 56.476345
v 66.888503 -52.903066 57.958614
v 49.537685 -8.892083 52.455737
v 50.096351 16.942086 51.596129
v 52.610349 51.207729 47.727893
v 57.359011 57.470159 40.421226
v 66.018335 34.786984 27.097303
v 67.694333 7.905837 24.518479
v 62.526672 -17.648416 32.469853
v 57.359011 -27.946547 40.421226
v 54.426013 -38.617047 44.934168
v 53.448348 -53.352499 46.438481
v 36.728993 -7.541318 40.053608
v 37.197450 14.270953 39.320000
v 39.305507 43.123587 36.018761
v 43.287392 48.297125 29.783089
v 50.548478 29.111867 18.412157
v 51.953849 6.510773 16.211331
v 47.620621 -14.991387 22.997210
v 43.287392 -23.701286 29.783089
v 40.827993 -32.750868 33.634534
v 40.008193 -45.247910 34.918349
v 23.336457 -7.517565 28.549264
v 23.798111 14.128790 27.813400
v 25.875556 42.683364 24.502012
v 29.799619 47.703453 18.247167
v 36.955262 28.630654 6.841275
v 38.340225 6.296760 4.633683
v 34.069922 -14.967973 11.440425
v 29.799619 -23.626634 18.247167
v 27.375933 -32.647713 22.110454
v 26.568038 -45.105393 23.398216
v 9.637800 -8.213695 17.541043
v 10.136383 15.330906 16.732049
v 12.380008 46.303276 13.091574
v 16.617966 51.638371 6.215123
v 24.346007 30.856274 -6.324289
v 25.841757 6.668418 -8.751272
v 21.229861 -16.380021 -1.268074
v 16.617966 -25.814469 6.215123
v 14.000404 -35.670903 10.462343
v 13.127883 -49.282168 11.878083
v -3.200277 -6.877024 5.128578
v -2.787705 13.255090 4.447059
v -0.931130 40.080277 1.380227
v 2.575733 45.138429 -4.412678
v 8.970601 27.514036 -14.976210
v 10.208317 6.417422 -17.020765
v 6.392025 -13.611768 -10.716721
v 2.575733 -21.613504 -4.412678
v 0.409729 -29.865933 -0.834707
v -0.312272 -41.262144 0.357950
v -16.332812 -6.217953 -6.822319
v -15.964186 12.259649 -7.442299
v -14.305367 37.099834 -10.232212
v -11.172043 42.061049 -15.502047
v -5.458334 25.978593 -25.111746
v -4.352454 6.349557 -26.971688
v -7.762249 -12.239954 -21.236868
v -11.172043 -19.542139 -15.502047
v -13.107331 -27.003683 -12.247149
v -13.752427 -37.307720 -11.162183
v -30.027556 -6.914083 -17.827186
v -29.622560 13.721584 -18.520776
v -27.800077 41.533296 -21.641931
v -24.357608 47.176087 -27.537445
v -18.080165 29.245269 -38.288090
v -16.865176 7.238391 -40.368860
v -20.611392 -13.588381 -33.953153
v -24.357608 -21.729974 -27.537445
v -26.483839 -30.026873 -23.896098
v -27.192582 -41.484495 -22.682316
v -43.149319 -6.212730 -29.813400
v -42.789807 12.410029 -30.440407
v -41.172005 37.571790 -33.261938
v -38.116156 42.755533 -38.591497
v -32.543726 26.600587 -48.310105
v -31.465191 6.664059 -50.191126
v -34.790673 -12.190326 -44.391312
v -38.116156 -19.525722 -38.591497
v -40.003592 -26.980997 -35.299711
v -40.632737 -37.276378 -34.202449
v -56.040761 -4.918341 -42.227055
v -55.759637 9.453289 -42.726416
v -54.494578 28.581672 -44.973540
v -52.105024 32.161731 -49.218107
v -47.747601 19.571246 -56.958201
v -46.904229 4.536800 -58.456283
v -49.504627 -9.741426 -53.837195
v -52.105024 -15.457644 -49.218107
v -53.580925 -21.359653 -46.596463
v -54.072892 -29.510047 -45.722581
v -69.731592 -5.614470 -53.228569
v -69.414657 9.763416 -53.802018
v -67.988450 29.408577 -56.382540
v -65.294502 32.045173 -61.256860
v -60.382009 18.222810 -70.145324
v -59.431204 3.132936 -71.865672
v -62.362853 -11.371891 -66.561266
v -65.294502 -17.645478 -61.256860
v -66.958411 -24.382843 -58.246251
v -67.513047 -33.686822 -57.242714
v -83.118131 -5.548435 -64.772324
v -82.808856 8.632805 -65.342399
v -81.417116 25.882068 -67.907735
v -78.788273 27.054535 -72.753370
v -73.994502 13.938422 -81.589529
v -73.066676 1.074161 -83.299753
v -75.927475 -11.486866 -78.026562
v -78.788273 -17.437939 -72.753370
v -80.411970 -24.096061 -69.760478
v -80.953202 -33.290611 -68.762847
v -96.084222 -4.389271 -77.107484
v -95.842670 6.025698 -77.561126
v -94.755686 17.958725 -79.602517
v -92.702492 17.752528 -83.458476
v -88.958434 7.806691 -90.489932
v -88.233777 -0.749761 -91.850859
v -90.468135 -9.283825 -87.654667
v -92.702492 -13.794852 -83.458476
v -93.970641 -19.061977 -81.076854
v -94.393357 -26.335626 -80.282980
v -109.796103 -5.161094 -88.047284
v -109.515733 6.809376 -88.583831
v -108.254068 20.252742 -90.998292
v -105.870921 19.621031 -95.558942
v -101.525184 8.073957 -103.875422
v -100.684074 -1.430786 -105.485063
v -103.277498 -10.983881 -100.522002
v -105.870921 -16.220582 -95.558942
v -107.342865 -22.413896 -92.742070
v -107.833512 -30.966566 -91.803113
v -123.670001 -6.385012 -98.649600
v -123.327668 9.593107 -99.317263
v -121.787167 28.715722 -102.321750
v -118.877334 29.583405 -107.996892
v -113.571166 14.672371 -118.345680
v -112.544166 0.556700 -120.348671
v -115.710750 -13.302403 -114.172782
v -118.877334 -20.067182 -107.996892
v -120.674584 -27.729197 -104.491657
v -121.273667 -38.310075 -103.323246
v -136.820675 -5.688883 -110.655091
v -136.519696 9.588703 -111.253418
v -135.165291 28.846104 -113.945889
v -132.606970 31.088582 -119.031666
v -127.941795 17.245793 -128.305731
v -127.038858 2.569113 -130.100712
v -129.822914 -11.597078 -124.566189
v -132.606970 -17.879347 -119.031666
v -134.187109 -24.706007 -115.890451
v -134.713822 -34.133299 -114.843379
v -150.282488 -5.825389 -122.049957
v -149.978415 10.885266 -122.666179
v -148.610087 32.877649 -125.439178
v -146.025467 36.678590 -130.677066
v -141.312336 21.932827 -140.228508
v -140.400117 4.753612 -142.077174
v -143.212792 -11.614208 -136.377120
v -146.025467 -18.308365 -130.677066
v -147.621850 -25.298831 -127.441900
v -148.153977 -34.952333 -126.363512
v -164.180596 -7.176154 -132.539371
v -163.811101 13.880182 -133.302839
v -162.148375 41.975626 -136.738443
v -159.007669 47.322270 -143.227918
v -153.280500 28.905292 -155.061666
v -152.172016 6.793174 -157.352069
v -155.589842 -14.191954 -150.289993
v -159.007669 -22.553626 -143.227918
v -160.947517 -31.165010 -139.219713
v -161.594132 -43.056922 -137.883644
v -177.518448 -6.988495 -144.169544
v -177.163568 13.426840 -144.917292
v -175.566608 40.594980 -148.282156
v -172.550127 45.674306 -154.638010
v -167.049485 27.787306 -166.228097
v -165.984844 6.435644 -168.471340
v -169.267486 -13.842960 -161.554675
v -172.550127 -21.963843 -154.638010
v -174.413247 -30.350037 -150.712335
v -175.034287 -41.930972 -149.403777
v -190.749102 -6.489683 -156.035684
v -190.424150 12.384562 -156.734002
v -188.961869 37.434689 -159.876433
v -186.199783 42.033071 -165.812136
v -181.163037 25.467694 -176.636065
v -180.188183 5.809245 -178.731019
v -183.193983 -12.875451 -172.271578
v -186.199783 -20.396147 -165.812136
v -187.905778 -28.183767 -162.145967
v -188.474442 -38.938099 -160.923910
v -204.623813 -7.840448 -166.505044
v -204.236782 14.860900 -167.353472
v -202.495144 44.908887 -171.171400
v -199.205382 50.321333 -178.383042
v -193.206404 30.362299 -191.533683
v -192.045312 6.816566 -194.078968
v -195.625347 -15.580178 -186.231005
v -199.205382 -24.641408 -178.383042
v -201.237294 -34.049946 -173.928793
v -201.914597 -47.042688 -172.444043
v -218.177542 -8.288108 -177.650844
v -217.774286 15.994495 -178.552748
v -215.959636 48.365703 -182.611319
v -212.531963 54.489406 -190.277508
v -206.281502 33.238197 -204.257030
v -205.071735 7.773252 -206.962744
v -208.801849 -16.399938 -198.620126
v -212.531963 -26.048338 -190.277508
v -214.649055 -35.994067 -185.542509
v -215.354752 -49.728645 -183.964176
v -231.342947 -7.591978 -189.668962
v -230.978942 14.749271 -190.499726
v -229.340916 44.610812 -194.238163
v -226.246868 50.358689 -201.299655
v -220.604780 30.839851 -214.176494
v -219.512763 7.315787 -216.668786
v -222.879815 -14.998445 -208.984220
v -226.246868 -23.860503 -201.299655
v -228.157898 -32.970877 -196.938145
v -228.794907 -45.551869 -195.484309
v -245.047259 -8.504742 -200.453770
v -244.645517 16.632518 -201.389581
v -242.837676 50.318625 -205.600726
v -239.422866 56.912719 -213.555113
v -233.195858 34.988316 -228.060171
v -231.990631 8.414261 -230.867601
v -235.706748 -16.774740 -222.211357
v -239.422866 -26.729190 -213.555113
v -241.532013 -36.934881 -208.642109
v -242.235062 -51.028454 -207.004442
v -258.797955 -9.587720 -211.098989
v -258.351850 18.874454 -212.159787
v -256.344376 57.114319 -216.933378
v -252.552480 64.723016 -225.950160
v -245.637847 39.940443 -242.392529
v -244.299531 9.732509 -245.574923
v -248.426005 -18.880443 -235.762542
v -252.552480 -30.132833 -225.950160
v -254.894533 -41.638097 -220.380971
v -255.675218 -57.526318 -218.524574
v -271.843511 -8.505728 -223.420948
v -271.453777 15.608237 -224.367199
v -269.699974 47.111178 -228.625330
v -266.387234 52.258202 -236.668467
v -260.346355 30.880518 -251.335363
v -259.177152 6.372547 -254.174117
v -262.782193 -17.027966 -245.421292
v -266.387234 -26.732288 -236.668467
v -268.433338 -36.939162 -231.700647
v -269.115373 -51.034368 -230.044707
v -285.122365 -8.128539 -235.200253
v -284.755674 13.427956 -236.109479
v -283.105564 40.362368 -240.201000
v -279.988690 43.181607 -247.929428
v -274.304978 23.548416 -262.022444
v -273.204904 3.127802 -264.750124
v -276.596797 -16.637245 -256.339776
v -279.988690 -25.546836 -247.929428
v -281.913818 -35.301083 -243.155987
v -282.555528 -48.771233 -241.564840
v -298.738571 -8.824668 -246.137800
v -298.346729 12.962355 -247.130254
v -296.583444 38.760304 -251.596293
v -293.252795 39.541638 -260.032146
v -287.179257 19.091763 -275.415171
v -286.003733 0.179836 -278.392530
v -289.628264 -18.457657 -269.212338
v -293.252795 -27.734671 -260.032146
v -295.309961 -38.324273 -254.821766
v -295.995683 -52.948009 -253.084973
v -311.834219 -7.841434 -258.398639
v -311.491593 10.082537 -259.285277
v -309.949776 29.946606 -263.275149
v -307.037456 28.615503 -270.811573
v -301.726753 11.212491 -284.554463
v -300.698876 -2.697729 -287.214377
v -303.868166 -16.752645 -279.012975
v -307.037456 -24.644506 -270.811573
v -308.836242 -34.054226 -266.156723
v -309.435838 -47.048602 -264.605106
v -324.930814 -6.828927 -270.691133
v -324.637268 9.604123 -271.467434
v -323.316312 28.658281 -274.960787
v -320.821171 28.660852 -281.559345
v -316.271208 13.064216 -293.592009
v -315.390570 -0.710257 -295.920911
v -318.105870 -14.387860 -288.740128
v -320.821171 -21.462341 -281.559345
v -322.362287 -29.657053 -277.483765
v -322.875993 -40.973560 -276.125239
v -338.543107 -7.525056 -281.625327
v -338.224970 11.960797 -282.485333
v -336.793353 35.893364 -286.355362
v -334.089188 37.839862 -293.665416
v -329.158063 19.915971 -306.995516
v -328.203652 1.959576 -309.575535
v -331.146420 -15.517198 -301.620476
v -334.089188 -23.650176 -293.665416
v -335.759408 -32.680243 -289.150383
v -336.316148 -45.150336 -287.645372
vt 0.00195312 1.08733340
vt 0.00195312 1.07013821
vt 0.00195312 1.04901297
vt 0.00195312 1.04232548
vt 0.00195312 1.02242765
vt 0.00195312 1.00674119
vt 0.00195312 0.98998549
vt 0.00195312 0.97983875
vt 0.00195312 0.97078976
vt 0.00195312 0.95953169
vt 0.01923977 1.08231236
vt 0.01923977 1.06552605
vt 0.01923977 1.04603419
vt 0.01923977 1.03913070
vt 0.01923977 1.01875648
vt 0.01923977 1.00484406
vt 0.01923977 0.98924431
vt 0.01923977 0.97879724
vt 0.01923977 0.96928079
vt 0.01923977 0.95744114
vt 0.03652642 1.06698979
vt 0.03652642 1.05332732
vt 0.03652642 1.03746476
vt 0.03652642 1.03184493
vt 0.03652642 1.01526058
vt 0.03652642 1.00393963
vt 0.03652642 0.99124417
vt 0.03652642 0.98274030
vt 0.03652642 0.97499361
vt 0.03652642 0.96535577
vt 0.05381306 1.06944261
vt 0.05381306 1.05567665
vt 0.05381306 1.03893384
vt 0.05381306 1.03355282
vt 0.05381306 1.01748199
vt 0.05381306 1.00513363
vt 0.05381306 0.99183622
vt 0.05381306 0.98363249
vt 0.05381306 0.97628624
vt 0.05381306 0.96714660
vt 0.07109971 1.08671954
vt 0.07109971 1.07011867
vt 0.07109971 1.04892589
vt 0.07109971 1.04244295
vt 0.07109971 1.02389238
vt 0.07109971 1.00776146
vt 0.07109971 0.99102020
vt 0.07109971 0.98160039
vt 0.07109971 0.97334208
vt 0.07109971 0.96306772
vt 0.08838635 1.07968615
vt 0.08838635 1.06493212
vt 0.08838635 1.04531957
vt 0.08838635 1.03929023
vt 0.08838635 1.02343771
vt 0.08838635 1.00814116
vt 0.08838635 0.99268948
vt 0.08838635 0.98467946
vt 0.08838635 0.97780313
vt 0.08838635 0.96924812
vt 0.10567300 1.06495593
vt 0.10567300 1.05290144
vt 0.10567300 1.03692003
vt 0.10567300 1.03201454
vt 0.10567300 1.01902802
vt 0.10567300 1.00658288
vt 0.10567300 0.99399036
vt 0.10567300 0.98742623
vt 0.10567300 0.98178273
vt 0.10567300 0.97476152
vt 0.12295965 1.08179493
vt 0.12295965 1.06658024
vt 0.12295965 1.04646340
vt 0.12295965 1.04029715
vt 0.12295965 1.02386207
vt 0.12295965 1.00822128
vt 0.12295965 0.99236810
vt 0.12295965 0.98405801
vt 0.12295965 0.97690275
vt 0.12295965 0.96800073
vt 0.14024629 1.08473309
vt 0.14024629 1.06893513
vt 0.14024629 1.04810391
vt 0.14024629 1.04172661
vt 0.14024629 1.02461531
vt 0.14024629 1.00844506
vt 0.14024629 0.99202653
vt 0.14024629 0.98337153
vt 0.14024629 0.97590817
vt 0.14024629 0.96662281
vt 0.15753294 1.07449022
vt 0.15753294 1.06060907
vt 0.15753294 1.04229439
vt 0.15753294 1.03668606
vt 0.15753294 1.02165981
vt 0.15753294 1.00743801
vt 0.15753294 0.99300342
vt 0.15753294 0.98540363
vt 0.15753294 0.97885233
vt 0.15753294 0.97070169
vt 0.17481958 1.09912668
vt 0.17481958 1.08116449
vt 0.17481958 1.05670437
vt 0.17481958 1.04902732
vt 0.17481958 1.03019800
vt 0.17481958 1.01085629
vt 0.17481958 0.99160239
vt 0.17481958 0.98211885
vt 0.17481958 0.97409323
vt 0.17481958 0.96410837
vt 0.19210623 1.11394851
vt 0.19210623 1.09334547
vt 0.19210623 1.06522257
vt 0.19210623 1.05637259
vt 0.19210623 1.03482837
vt 0.19210623 1.01256092
vt 0.19210623 0.99042515
vt 0.19210623 0.97957779
vt 0.19210623 0.97041168
vt 0.19210623 0.95900789
vt 0.20939288 1.10327324
vt 0.20939288 1.08464078
vt 0.20939288 1.05914800
vt 0.20939288 1.05110393
vt 0.20939288 1.03166821
vt 0.20939288 1.01145693
vt 0.20939288 0.99139243
vt 0.20939288 0.98160989
vt 0.20939288 0.97335584
vt 0.20939288 0.96308678
vt 0.22667952 1.11034595
vt 0.22667952 1.09037944
vt 0.22667952 1.06314742
vt 0.22667952 1.05458559
vt 0.22667952 1.03368932
vt 0.22667952 1.01213696
vt 0.22667952 0.99070199
vt 0.22667952 0.98017968
vt 0.22667952 0.97128372
vt 0.22667952 0.96021603
vt 0.24396617 1.12034318
vt 0.24396617 1.09785881
vt 0.24396617 1.06828405
vt 0.24396617 1.05923879
vt 0.24396617 1.03482575
vt 0.24396617 1.01190184
vt 0.24396617 0.98858873
vt 0.24396617 0.97623662
vt 0.24396617 0.96557089
vt 0.24396617 0.95230139
vt 0.26125281 1.10155937
vt 0.26125281 1.08192698
vt 0.26125281 1.05718258
vt 0.26125281 1.04955883
vt 0.26125281 1.02735854
vt 0.26125281 1.00867559
vt 0.26125281 0.98910568
vt 0.26125281 0.97781615
vt 0.26125281 0.96785935
vt 0.26125281 0.95547186
vt 0.27853946 1.08953204
vt 0.27853946 1.07160655
vt 0.27853946 1.05013725
vt 0.27853946 1.04304436
vt 0.27853946 1.02183933
vt 0.27853946 1.00617155
vt 0.27853946 0.98908180
vt 0.27853946 0.97824052
vt 0.27853946 0.96847420
vt 0.27853946 0.95632368
vt 0.29582610 1.09721905
vt 0.29582610 1.07723272
vt 0.29582610 1.05436350
vt 0.29582610 1.04594796
vt 0.29582610 1.02140242
vt 0.29582610 1.00525738
vt 0.29582610 0.98689995
vt 0.29582610 0.97429746
vt 0.29582610 0.96276137
vt 0.29582610 0.94840904
vt 0.31311275 1.10406990
vt 0.31311275 1.08305519
vt 0.31311275 1.05823384
vt 0.31311275 1.04979087
vt 0.31311275 1.02463894
vt 0.31311275 1.00670205
vt 0.31311275 0.98689888
vt 0.31311275 0.97402241
vt 0.31311275 0.96236287
vt 0.31311275 0.94785695
vt 0.33039940 1.10687629
vt 0.33039940 1.08604042
vt 0.33039940 1.06008017
vt 0.33039940 1.05200033
vt 0.33039940 1.02819032
vt 0.33039940 1.00873438
vt 0.33039940 0.98817804
vt 0.33039940 0.97605450
vt 0.33039940 0.96530703
vt 0.33039940 0.95193583
vt 0.34768604 1.12726355
vt 0.34768604 1.10329257
vt 0.34768604 1.07206689
vt 0.34768604 1.06253967
vt 0.34768604 1.03626449
vt 0.34768604 1.01220089
vt 0.34768604 0.98757177
vt 0.34768604 0.97426150
vt 0.34768604 0.96270926
vt 0.34768604 0.94833685
vt 0.36497269 1.13706431
vt 0.36497269 1.11181612
vt 0.36497269 1.07805688
vt 0.36497269 1.06763767
vt 0.36497269 1.04066894
vt 0.36497269 1.01424953
vt 0.36497269 0.98765933
vt 0.36497269 0.97404284
vt 0.36497269 0.96239246
vt 0.36497269 0.94789795
vt 0.38225933 1.11546303
vt 0.38225933 1.09414536
vt 0.38225933 1.06571554
vt 0.38225933 1.05695726
vt 0.38225933 1.03412711
vt 0.38225933 1.01191177
vt 0.38225933 0.98951674
vt 0.38225933 0.97798590
vt 0.38225933 0.96810529
vt 0.38225933 0.95581259
vt 0.39954598 1.11432311
vt 0.39954598 1.09316745
vt 0.39954598 1.06502769
vt 0.39954598 1.05637357
vt 0.39954598 1.03365700
vt 0.39954598 1.01170180
vt 0.39954598 0.98953263
vt 0.39954598 0.97805524
vt 0.39954598 0.96820575
vt 0.39954598 0.95595177
vt 0.41683263 1.12406318
vt 0.41683263 1.10105213
vt 0.41683263 1.07052567
vt 0.41683263 1.06115230
vt 0.41683263 1.03637767
vt 0.41683263 1.01259716
vt 0.41683263 0.98854464
vt 0.41683263 0.97602314
vt 0.41683263 0.96526159
vt 0.41683263 0.95187288
vt 0.43411927 1.10722576
vt 0.43411927 1.08755052
vt 0.43411927 1.06112734
vt 0.43411927 1.05294432
vt 0.43411927 1.03202162
vt 0.43411927 1.01129118
vt 0.43411927 0.99048281
vt 0.43411927 0.97992506
vt 0.43411927 0.97091481
vt 0.43411927 0.95970494
vt 0.45140592 1.09916601
vt 0.45140592 1.08110814
vt 0.45140592 1.05664996
vt 0.45140592 1.04901659
vt 0.45140592 1.02998068
vt 0.45140592 1.01069898
vt 0.45140592 0.99144366
vt 0.45140592 0.98184897
vt 0.45140592 0.97370224
vt 0.45140592 0.96356668
vt 0.46869256 1.11099192
vt 0.46869256 1.09082514
vt 0.46869256 1.06344418
vt 0.46869256 1.05487749
vt 0.46869256 1.03367185
vt 0.46869256 1.01205644
vt 0.46869256 0.99050163
vt 0.46869256 0.97981688
vt 0.46869256 0.97075808
vt 0.46869256 0.95948780
vt 0.48597921 1.10038459
vt 0.48597921 1.08218509
vt 0.48597921 1.05741574
vt 0.48597921 1.04964638
vt 0.48597921 1.03055712
vt 0.48597921 1.01097704
vt 0.48597921 0.99147944
vt 0.48597921 0.98186422
vt 0.48597921 0.97372433
vt 0.48597921 0.96359729
vt 0.50326585 1.07647293
vt 0.50326585 1.06242741
vt 0.50326585 1.04358473
vt 0.50326585 1.03775437
vt 0.50326585 1.02280219
vt 0.50326585 1.00802805
vt 0.50326585 0.99318875
vt 0.50326585 0.98564271
vt 0.50326585 0.97919872
vt 0.50326585 0.97118160
vt 0.52055250 1.07917182
vt 0.52055250 1.06414129
vt 0.52055250 1.04475044
vt 0.52055250 1.03883451
vt 0.52055250 1.02220501
vt 0.52055250 1.00734939
vt 0.52055250 0.99204451
vt 0.52055250 0.98361062
vt 0.52055250 0.97625456
vt 0.52055250 0.96710271
vt 0.53783915 1.07053006
vt 0.53783915 1.05666735
vt 0.53783915 1.03959343
vt 0.53783915 1.03420676
vt 0.53783915 1.01820081
vt 0.53783915 1.00550144
vt 0.53783915 0.99196334
vt 0.53783915 0.98380339
vt 0.53783915 0.97653385
vt 0.53783915 0.96748964
vt 0.55512579 1.05001731
vt 0.55512579 1.03983465
vt 0.55512579 1.02797464
vt 0.55512579 1.02380584
vt 0.55512579 1.01147736
vt 0.55512579 1.00299319
vt 0.55512579 0.99350692
vt 0.55512579 0.98718714
vt 0.55512579 0.98143633
vt 0.55512579 0.97428161
vt 0.57241244 1.05690798
vt 0.57241244 1.04520389
vt 0.57241244 1.03182215
vt 0.57241244 1.02688732
vt 0.57241244 1.01250429
vt 0.57241244 1.00306283
vt 0.57241244 0.99231932
vt 0.57241244 0.98493408
vt 0.57241244 0.97817204
vt 0.57241244 0.96975921
vt 0.58969908 1.07865806
vt 0.58969908 1.06303816
vt 0.58969908 1.04409040
vt 0.58969908 1.03797421
vt 0.58969908 1.01969739
vt 0.58969908 1.00574777
vt 0.58969908 0.99069364
vt 0.58969908 0.98136131
vt 0.58969908 0.97299569
vt 0.58969908 0.96258782
vt 0.60698573 1.07787450
vt 0.60698573 1.06294148
vt 0.60698573 1.04391962
vt 0.60698573 1.03809541
vt 0.60698573 1.02137428
vt 0.60698573 1.00691558
vt 0.60698573 0.99188639
vt 0.60698573 0.98339340
vt 0.60698573 0.97593985
vt 0.60698573 0.96666670
vt 0.62427238 1.08808587
vt 0.62427238 1.07175392
vt 0.62427238 1.05007862
vt 0.62427238 1.04342144
vt 0.62427238 1.02584536
vt 0.62427238 1.00895578
vt 0.62427238 0.99187767
vt 0.62427238 0.98299492
vt 0.62427238 0.97536252
vt 0.62427238 0.96586686
vt 0.64155902 1.11228005
vt 0.64155902 1.09170163
vt 0.64155902 1.06402897
vt 0.64155902 1.05544949
vt 0.64155902 1.03359583
vt 0.64155902 1.01186870
vt 0.64155902 0.99007743
vt 0.64155902 0.97905186
vt 0.64155902 0.96964969
vt 0.64155902 0.95795222
vt 0.65884567 1.10861753
vt 0.65884567 1.08866543
vt 0.65884567 1.06190289
vt 0.65884567 1.05362295
vt 0.65884567 1.03237963
vt 0.65884567 1.01139752
vt 0.65884567 0.99032092
vt 0.65884567 0.97959966
vt 0.65884567 0.97044336
vt 0.65884567 0.95905178
vt 0.67613231 1.10019163
vt 0.67613231 1.08174553
vt 0.67613231 1.05706634
vt 0.67613231 1.04944609
vt 0.67613231 1.02975510
vt 0.67613231 1.01043481
vt 0.67613231 0.99099694
vt 0.67613231 0.98105576
vt 0.67613231 0.97255300
vt 0.67613231 0.96197451
vt 0.69341896 1.12023388
vt 0.69341896 1.09804733
vt 0.69341896 1.06844056
vt 0.69341896 1.05931586
vt 0.69341896 1.03556989
vt 0.69341896 1.01242665
vt 0.69341896 0.98910514
vt 0.69341896 0.97711270
vt 0.69341896 0.96684017
vt 0.69341896 0.95405988
vt 0.71070561 1.12938492
vt 0.71070561 1.10565340
vt 0.71070561 1.07376802
vt 0.71070561 1.06388961
vt 0.71070561 1.03866538
vt 0.71070561 1.01364291
vt 0.71070561 0.98853347
vt 0.71070561 0.97580592
vt 0.71070561 0.96494688
vt 0.71070561 0.95143687
vt 0.72799225 1.11930780
vt 0.72799225 1.09747372
vt 0.72799225 1.06806385
vt 0.72799225 1.05893261
vt 0.72799225 1.03578476
vt 0.72799225 1.01267183
vt 0.72799225 0.98951395
vt 0.72799225 0.97783801
vt 0.72799225 0.96789103
vt 0.72799225 0.95551575
vt 0.74527890 1.13453862
vt 0.74527890 1.10997217
vt 0.74527890 1.07679944
vt 0.74527890 1.06647654
vt 0.74527890 1.04049833
vt 0.74527890 1.01439134
vt 0.74527890 0.98827274
vt 0.74527890 0.97517354
vt 0.74527890 0.96403066
vt 0.74527890 0.95016753
vt 0.76256554 1.15267200
vt 0.76256554 1.12485632
vt 0.76256554 1.08720353
vt 0.76256554 1.07545882
vt 0.76256554 1.04611915
vt 0.76256554 1.01644507
vt 0.76256554 0.98680143
vt 0.76256554 0.97201218
vt 0.76256554 0.95945039
vt 0.76256554 0.94382195
vt 0.77985219 1.12634898
vt 0.77985219 1.10278106
vt 0.77985219 1.07172129
vt 0.77985219 1.06221476
vt 0.77985219 1.03667380
vt 0.77985219 1.01257140
vt 0.77985219 0.98809032
vt 0.77985219 0.97517066
vt 0.77985219 0.96402649
vt 0.77985219 0.95016175
vt 0.79713883 1.10918740
vt 0.79713883 1.08811660
vt 0.79713883 1.06149854
vt 0.79713883 1.05331057
vt 0.79713883 1.02953379
vt 0.79713883 1.00940692
vt 0.79713883 0.98835985
vt 0.79713883 0.97627172
vt 0.79713883 0.96562174
vt 0.79713883 0.95237184
vt 0.81442548 1.10656741
vt 0.81442548 1.08526824
vt 0.81442548 1.05968805
vt 0.81442548 1.05128174
vt 0.81442548 1.02614468
vt 0.81442548 1.00744115
vt 0.81442548 0.98708772
vt 0.81442548 0.97423963
vt 0.81442548 0.96267758
vt 0.81442548 0.94829296
vt 0.83171213 1.08467402
vt 0.83171213 1.06714828
vt 0.83171213 1.04735405
vt 0.83171213 1.03980247
vt 0.83171213 1.01805751
vt 0.83171213 1.00422192
vt 0.83171213 0.98828698
vt 0.83171213 0.97710982
vt 0.83171213 0.96683601
vt 0.83171213 0.95405410
vt 0.84899877 1.07942496
vt 0.84899877 1.06335897
vt 0.84899877 1.04443796
vt 0.84899877 1.03795962
vt 0.84899877 1.01868416
vt 0.84899877 1.00503959
vt 0.84899877 0.98993621
vt 0.84899877 0.98006546
vt 0.84899877 0.97111823
vt 0.84899877 0.95998676
vt 0.86628542 1.09753527
vt 0.86628542 1.07848760
vt 0.86628542 1.05481235
vt 0.86628542 1.04742488
vt 0.86628542 1.02561106
vt 0.86628542 1.00789543
vt 0.86628542 0.98914338
vt 0.86628542 0.97803337
vt 0.86628542 0.96817407
vt 0.86628542 0.95590788
vn -0.678767 0.044828 0.732985
vn -0.675264 0.110832 0.729202
vn -0.619179 0.411755 0.668637
vn 0.420431 0.785563 -0.454013
vn 0.618730 0.413214 -0.668152
vn 0.671223 -0.155138 -0.724839
vn 0.573028 -0.537333 -0.618800
vn 0.548808 -0.589561 -0.592645
vn 0.654286 -0.269630 -0.706548
vn 0.679450 0.000000 -0.733722
vn -0.672656 0.048292 0.738377
vn -0.668312 0.123199 0.733608
vn -0.586873 0.490481 0.644212
vn 0.434999 0.763393 -0.477500
vn 0.601301 0.450301 -0.660050
vn 0.662198 -0.181971 -0.726897
vn 0.547630 -0.582011 -0.601136
vn 0.540149 -0.597228 -0.592923
vn 0.648501 -0.269630 -0.711861
vn 0.673442 0.000000 -0.739240
vn -0.666608 0.048299 0.743842
vn -0.662300 0.123226 0.739035
vn -0.581527 0.490663 0.648903
vn 0.431123 0.763349 -0.481073
vn 0.595867 0.450381 -0.664905
vn 0.656236 -0.182034 -0.732269
vn 0.542661 -0.582106 -0.605534
vn 0.535284 -0.597243 -0.597303
vn 0.642670 -0.269630 -0.717130
vn 0.667387 0.000000 -0.744711
vn -0.660601 0.045458 0.749359
vn -0.657047 0.113026 0.745328
vn -0.598537 0.425173 0.678956
vn 0.412783 0.781253 -0.468245
vn 0.600147 0.419953 -0.680782
vn 0.652798 -0.159699 -0.740507
vn 0.554211 -0.545545 -0.628674
vn 0.533424 -0.591032 -0.605095
vn 0.636794 -0.269630 -0.722353
vn 0.661285 0.000000 -0.750135
vn -0.654549 0.042376 0.754831
vn -0.651686 0.102520 0.751529
vn -0.610399 0.363201 0.703917
vn 0.389890 0.803632 -0.449624
vn 0.604065 0.387087 -0.696612
vn 0.648815 -0.138595 -0.748218
vn 0.565414 -0.505124 -0.652040
vn 0.532055 -0.583481 -0.613569
vn 0.630874 -0.269630 -0.727529
vn 0.655138 0.000000 -0.755510
vn -0.648434 0.039701 0.760235
vn -0.646082 0.093847 0.757477
vn -0.615620 0.316341 0.721762
vn 0.365822 0.825967 -0.428896
vn 0.605734 0.358804 -0.710173
vn 0.644060 -0.122477 -0.755107
vn 0.572922 -0.469655 -0.671703
vn 0.530425 -0.576122 -0.621879
vn 0.624912 -0.269630 -0.732656
vn 0.648946 0.000000 -0.760835
vn -0.642200 0.039880 0.765499
vn -0.639840 0.094415 0.762686
vn -0.609069 0.319293 0.726007
vn 0.363799 0.824380 -0.433646
vn 0.599448 0.360689 -0.714539
vn 0.637791 -0.123499 -0.760244
vn 0.566601 -0.472036 -0.675385
vn 0.525094 -0.576641 -0.625909
vn 0.618908 -0.269630 -0.737735
vn 0.642711 0.000000 -0.766109
vn -0.635924 0.040061 0.770711
vn -0.633557 0.094990 0.767843
vn -0.602473 0.322298 0.730171
vn 0.361714 0.822791 -0.438381
vn 0.593124 0.362591 -0.718840
vn 0.631480 -0.124538 -0.765326
vn 0.560246 -0.474438 -0.678994
vn 0.519732 -0.577160 -0.629892
vn 0.612864 -0.269630 -0.742764
vn 0.636435 0.000000 -0.771331
vn -0.629607 0.040243 0.775870
vn -0.627233 0.095572 0.772945
vn -0.595834 0.325357 0.734251
vn 0.359568 0.821203 -0.443099
vn 0.586765 0.364513 -0.723075
vn 0.625128 -0.125595 -0.770351
vn 0.553860 -0.476861 -0.682527
vn 0.514342 -0.577680 -0.633828
vn 0.606781 -0.269630 -0.747741
vn 0.630118 0.000000 -0.776500
vn -0.623257 0.040203 0.780983
vn -0.620914 0.095445 0.778046
vn -0.589968 0.324684 0.739269
vn 0.355629 0.821550 -0.445627
vn 0.580949 0.364091 -0.727967
vn 0.618841 -0.125363 -0.775448
vn 0.548453 -0.476329 -0.687248
vn 0.509204 -0.577566 -0.638066
vn 0.600660 -0.269630 -0.752667
vn 0.623762 0.000000 -0.781615
vn -0.616920 0.038060 0.786105
vn -0.614933 0.088718 0.783573
vn -0.590758 0.290423 0.752768
vn 0.333845 0.841180 -0.425399
vn 0.580230 0.341600 -0.739353
vn 0.613382 -0.113453 -0.781595
vn 0.552007 -0.447807 -0.703390
vn 0.506752 -0.571176 -0.645724
vn 0.594503 -0.269630 -0.757539
vn 0.617368 0.000000 -0.786675
vn -0.610498 0.037897 0.791110
vn -0.608555 0.088216 0.788593
vn -0.585060 0.287955 0.758147
vn 0.328862 0.842759 -0.426154
vn 0.574564 0.339896 -0.744545
vn 0.607053 -0.112588 -0.786645
vn 0.546921 -0.445633 -0.708723
vn 0.501691 -0.570665 -0.650113
vn 0.588311 -0.269630 -0.762358
vn 0.610937 0.000000 -0.791679
vn -0.604041 0.037736 0.796059
vn -0.602142 0.087720 0.793556
vn -0.579308 0.285526 0.763464
vn 0.323884 0.844336 -0.426843
vn 0.568851 0.338208 -0.749682
vn 0.600686 -0.111737 -0.791638
vn 0.541779 -0.443478 -0.714005
vn 0.496596 -0.570154 -0.654459
vn 0.582085 -0.269630 -0.767123
vn 0.604472 0.000000 -0.796627
vn -0.597542 0.037953 0.800939
vn -0.595632 0.088387 0.798380
vn -0.572493 0.288795 0.767365
vn 0.322388 0.842219 -0.432127
vn 0.562245 0.340477 -0.753628
vn 0.594150 -0.112883 -0.796394
vn 0.535093 -0.446375 -0.717234
vn 0.490972 -0.570840 -0.658094
vn 0.575826 -0.269630 -0.771832
vn 0.597972 0.000000 -0.801517
vn -0.590958 0.040408 0.805690
vn -0.588703 0.096101 0.802616
vn -0.558690 0.328148 0.761698
vn 0.338708 0.819778 -0.461781
vn 0.550345 0.366253 -0.750320
vn 0.586685 -0.126559 -0.799865
vn 0.519159 -0.479053 -0.707802
vn 0.482576 -0.578148 -0.657926
vn 0.569536 -0.269630 -0.776485
vn 0.591441 0.000000 -0.806348
vn -0.584332 0.043202 0.810364
vn -0.581628 0.105281 0.806613
vn -0.541261 0.378932 0.750632
vn 0.353021 0.797303 -0.489576
vn 0.537097 0.395873 -0.744857
vn 0.578785 -0.143966 -0.802671
vn 0.500994 -0.516017 -0.694789
vn 0.474104 -0.585596 -0.657497
vn 0.563217 -0.269630 -0.781081
vn 0.584878 0.000000 -0.811121
vn -0.577663 0.046410 0.814955
vn -0.574356 0.116387 0.810290
vn -0.517530 0.446191 0.730121
vn 0.365465 0.774986 -0.515590
vn 0.522055 0.430140 -0.736504
vn 0.570180 -0.166847 -0.804398
vn 0.479931 -0.557883 -0.677077
vn 0.465558 -0.593187 -0.656799
vn 0.556869 -0.269630 -0.785619
vn 0.578286 0.000000 -0.815834
vn -0.570975 0.049168 0.819494
vn -0.567077 0.126448 0.813901
vn -0.490930 0.512360 0.704610
vn 0.372651 0.758332 -0.534850
vn 0.507685 0.459690 -0.728657
vn 0.561307 -0.189504 -0.805619
vn 0.460260 -0.593110 -0.660591
vn 0.457754 -0.599016 -0.656994
vn 0.550494 -0.269630 -0.790099
vn 0.571666 0.000000 -0.820486
vn -0.564388 0.047262 0.824156
vn -0.560974 0.119442 0.819171
vn -0.499985 0.465782 0.730111
vn 0.360771 0.769612 -0.526822
vn 0.507590 0.439263 -0.741216
vn 0.556448 -0.173522 -0.812561
vn 0.464695 -0.568850 -0.678578
vn 0.454099 -0.595051 -0.663105
vn 0.544093 -0.269630 -0.794520
vn 0.565019 0.000000 -0.825078
vn -0.557808 0.043939 0.828806
vn -0.555095 0.107778 0.824775
vn -0.513303 0.393500 0.762679
vn 0.340980 0.791866 -0.506637
vn 0.510821 0.403727 -0.758991
vn 0.552121 -0.148929 -0.820355
vn 0.474968 -0.525703 -0.705721
vn 0.451859 -0.587425 -0.671383
vn 0.537668 -0.269630 -0.798882
vn 0.558347 0.000000 -0.829607
vn -0.551187 0.041052 0.833371
vn -0.548987 0.098179 0.830045
vn -0.518934 0.339264 0.784607
vn 0.320189 0.814319 -0.484112
vn 0.511827 0.373059 -0.773861
vn 0.546942 -0.130388 -0.826954
vn 0.481627 -0.487606 -0.728200
vn 0.449407 -0.579942 -0.679485
vn 0.531221 -0.269630 -0.803184
vn 0.551652 0.000000 -0.834074
vn -0.544513 0.039307 0.837831
vn -0.542593 0.092601 0.834876
vn -0.518102 0.309923 0.797193
vn 0.304337 0.829515 -0.468277
vn 0.509512 0.354657 -0.783975
vn 0.540980 -0.120251 -0.832394
vn 0.482606 -0.464406 -0.742576
vn 0.445853 -0.574965 -0.686025
vn 0.524752 -0.269630 -0.807425
vn 0.544934 0.000000 -0.838479
vn -0.537776 0.039482 0.842163
vn -0.535855 0.093154 0.839155
vn -0.511195 0.312763 0.800537
vn 0.301838 0.827929 -0.472682
vn 0.502834 0.356501 -0.787442
vn 0.534226 -0.121236 -0.836603
vn 0.475977 -0.466741 -0.745385
vn 0.440144 -0.575482 -0.689270
vn 0.518263 -0.269630 -0.811605
vn 0.538196 0.000000 -0.842820
vn -0.531020 0.039659 0.846431
vn -0.529099 0.093714 0.843369
vn -0.504268 0.315653 0.803789
vn 0.299290 0.826341 -0.477059
vn 0.496141 0.358363 -0.790835
vn 0.527453 -0.122238 -0.840745
vn 0.469338 -0.469097 -0.748111
vn 0.434424 -0.576000 -0.692459
vn 0.511756 -0.269630 -0.815724
vn 0.531438 0.000000 -0.847097
vn -0.524246 0.039838 0.850634
vn -0.522326 0.094281 0.847518
vn -0.497323 0.318593 0.806950
vn 0.296693 0.824754 -0.481409
vn 0.489436 0.360243 -0.794152
vn 0.520662 -0.123257 -0.844819
vn 0.462690 -0.471473 -0.750754
vn 0.428694 -0.576518 -0.695592
vn 0.505231 -0.269630 -0.819781
vn 0.524663 0.000000 -0.851310
vn -0.517477 0.039010 0.854808
vn -0.515690 0.091668 0.851857
vn -0.493167 0.305172 0.814651
vn 0.287122 0.832231 -0.474291
vn 0.484817 0.351539 -0.800858
vn 0.514216 -0.118599 -0.849421
vn 0.459706 -0.460453 -0.759377
vn 0.424032 -0.574081 -0.700449
vn 0.498691 -0.269630 -0.823776
vn 0.517871 0.000000 -0.855459
vn -0.510687 0.038430 0.858907
vn -0.508997 0.089862 0.856065
vn -0.488148 0.296089 0.821001
vn 0.279151 0.837646 -0.469494
vn 0.479599 0.345466 -0.806621
vn 0.507648 -0.115434 -0.853797
vn 0.455688 -0.452734 -0.766407
vn 0.419088 -0.572322 -0.704850
vn 0.492137 -0.269630 -0.827708
vn 0.511064 0.000000 -0.859542
vn -0.503875 0.038264 0.862928
vn -0.502228 0.089347 0.860107
vn -0.482033 0.293529 0.825521
vn 0.274199 0.839227 -0.469588
vn 0.473521 0.343727 -0.810944
vn 0.500926 -0.114539 -0.857878
vn 0.450173 -0.450518 -0.770959
vn 0.413676 -0.571809 -0.708454
vn 0.485569 -0.269630 -0.831578
vn 0.504245 0.000000 -0.863561
vn -0.497052 0.038099 0.866884
vn -0.495446 0.088837 0.864084
vn -0.475885 0.291010 0.829968
vn 0.269266 0.840808 -0.469615
vn 0.467418 0.342003 -0.815202
vn 0.494190 -0.113658 -0.861892
vn 0.444624 -0.448322 -0.775447
vn 0.408248 -0.571297 -0.712006
vn 0.478991 -0.269630 -0.835385
vn 0.497413 0.000000 -0.867514
vn -0.490196 0.039082 0.870736
vn -0.488495 0.091894 0.867714
vn -0.466989 0.306317 0.829513
vn 0.272473 0.831570 -0.483994
vn 0.459120 0.352294 -0.815535
vn 0.487085 -0.118998 -0.865210
vn 0.435228 -0.461411 -0.773096
vn 0.401605 -0.574296 -0.713371
vn 0.472402 -0.269630 -0.839128
vn 0.490571 0.000000 -0.871401
vn -0.483299 0.041689 0.874462
vn -0.481283 0.100257 0.870813
vn -0.453016 0.350602 0.819668
vn 0.284277 0.809086 -0.514360
vn 0.447473 0.379807 -0.809639
vn 0.479339 -0.134281 -0.867296
vn 0.420011 -0.496051 -0.759950
vn 0.393470 -0.581670 -0.711928
vn 0.465805 -0.269630 -0.842808
vn 0.483720 0.000000 -0.875223
vn -0.476385 0.044670 0.878101
vn -0.473952 0.110285 0.873617
vn -0.435269 0.408452 0.802314
vn 0.294405 0.786665 -0.542664
vn 0.434611 0.411526 -0.801099
vn 0.471172 -0.154015 -0.868491
vn 0.402796 -0.535269 -0.742457
vn 0.385302 -0.589187 -0.710212
vn 0.459200 -0.269630 -0.846425
vn 0.476861 0.000000 -0.878979
vn -0.469453 0.048109 0.881646
vn -0.466456 0.122525 0.876018
vn -0.410757 0.486002 0.771415
vn 0.302983 0.764479 -0.569011
vn 0.420114 0.448335 -0.788987
vn 0.462283 -0.180435 -0.868181
vn 0.382976 -0.579676 -0.719240
vn 0.377105 -0.596846 -0.708214
vn 0.452590 -0.269630 -0.849978
vn 0.469997 0.000000 -0.882668
vn -0.462566 0.049215 0.885218
vn -0.459400 0.126624 0.879158
vn -0.397389 0.513556 0.760488
vn 0.302042 0.758066 -0.578020
vn 0.411173 0.460193 -0.786866
vn 0.454699 -0.189917 -0.870161
vn 0.372672 -0.593703 -0.713185
vn 0.370811 -0.599110 -0.709624
vn 0.445975 -0.269630 -0.853467
vn 0.463128 0.000000 -0.886292
vn -0.455780 0.045622 0.888922
vn -0.453302 0.113600 0.884089
vn -0.412198 0.428722 0.803922
vn 0.285427 0.780155 -0.556677
vn 0.413702 0.421704 -0.806856
vn 0.450310 -0.160906 -0.878254
vn 0.381745 -0.547673 -0.744530
vn 0.367911 -0.591408 -0.717550
vn 0.439357 -0.269630 -0.856893
vn 0.456255 0.000000 -0.889849
vn -0.448975 0.042518 0.892532
vn -0.446991 0.102993 0.888590
vn -0.418224 0.365865 0.831403
vn 0.268109 0.802524 -0.532984
vn 0.414063 0.388598 -0.823130
vn 0.444987 -0.139506 -0.884604
vn 0.387342 -0.507002 -0.770010
vn 0.364835 -0.583850 -0.725268
vn 0.432738 -0.269630 -0.860255
vn 0.449381 0.000000 -0.893340
vn -0.442155 0.039809 0.896055
vn -0.440539 0.094189 0.892779
vn -0.419519 0.318116 0.850180
vn 0.250069 0.825010 -0.506779
vn 0.412848 0.359939 -0.836661
vn 0.439141 -0.123091 -0.889946
vn 0.390328 -0.471089 -0.791024
vn 0.361591 -0.576435 -0.732786
vn 0.426118 -0.269630 -0.863553
vn 0.442506 0.000000 -0.896765
vn -0.435302 0.038920 0.899443
vn -0.433810 0.091387 0.896358
vn -0.415050 0.303748 0.857596
vn 0.240984 0.833060 -0.497933
vn 0.407981 0.350597 -0.842990
vn 0.432584 -0.118104 -0.893825
vn 0.386974 -0.459257 -0.799584
vn 0.356778 -0.573811 -0.737191
vn 0.419498 -0.269630 -0.866788
vn 0.435633 0.000000 -0.900125
vn -0.428433 0.039092 0.902727
vn -0.426946 0.091926 0.899593
vn -0.408128 0.306481 0.859942
vn 0.238203 0.831475 -0.501905
vn 0.401255 0.352402 -0.845462
vn 0.425712 -0.119055 -0.896993
vn 0.380360 -0.461548 -0.801436
vn 0.350995 -0.574327 -0.739562
vn 0.412882 -0.269630 -0.869959
vn 0.428761 0.000000 -0.903418
vn -0.421568 0.039265 0.905946
vn -0.420086 0.092471 0.902761
vn -0.401211 0.309262 0.862199
vn 0.235386 0.829889 -0.505843
vn 0.394538 0.354225 -0.847859
vn 0.418844 -0.120021 -0.900092
vn 0.373759 -0.463859 -0.803206
vn 0.345220 -0.574843 -0.741875
vn 0.406268 -0.269630 -0.873067
vn 0.421893 0.000000 -0.906646
vn -0.414707 0.039441 0.909100
vn -0.413231 0.093023 0.905863
vn -0.394301 0.312090 0.864365
vn 0.232534 0.828302 -0.509748
vn 0.387830 0.356065 -0.850180
vn 0.411981 -0.121003 -0.903122
vn 0.367171 -0.466189 -0.804893
vn 0.339453 -0.575360 -0.744132
vn 0.399659 -0.269630 -0.876112
vn 0.415030 0.000000 -0.909808
vn -0.407864 0.038978 0.912211
vn -0.406459 0.091570 0.909069
vn -0.388768 0.304672 0.869502
vn 0.226125 0.832521 -0.505742
vn 0.382172 0.351209 -0.854750
vn 0.405301 -0.118425 -0.906480
vn 0.362418 -0.460034 -0.810569
vn 0.334239 -0.573986 -0.747545
vn 0.393057 -0.269630 -0.879094
vn 0.408174 0.000000 -0.912904
vn -0.401022 0.038807 0.915246
vn -0.399658 0.091035 0.912133
vn -0.382590 0.301969 0.873178
vn 0.221372 0.834106 -0.505234
vn 0.376028 0.349415 -0.858203
vn 0.398545 -0.117484 -0.909593
vn 0.356809 -0.457756 -0.814338
vn 0.328775 -0.573471 -0.750358
vn 0.386461 -0.269630 -0.882013
vn 0.401325 0.000000 -0.915936
vn -0.394190 0.038638 0.918217
vn -0.392865 0.090507 0.915131
vn -0.376399 0.299312 0.876776
vn 0.216651 0.835690 -0.504663
vn 0.369880 0.347638 -0.861590
vn 0.391795 -0.116558 -0.912639
vn 0.351184 -0.455498 -0.818041
vn 0.323313 -0.572957 -0.753119
vn 0.379874 -0.269630 -0.884870
vn 0.394484 0.000000 -0.918903
vn -0.387367 0.038470 0.921123
vn -0.386081 0.089984 0.918066
vn -0.370198 0.296698 0.880297
vn 0.211963 0.837273 -0.504029
vn 0.363727 0.345878 -0.864911
vn 0.385053 -0.115646 -0.915620
vn 0.345546 -0.453259 -0.821678
vn 0.317854 -0.572443 -0.755829
vn 0.373297 -0.269630 -0.887665
vn 0.387654 0.000000 -0.921805
vn -0.380525 0.040279 0.923893
vn -0.379087 0.095689 0.920400
vn -0.360033 0.325971 0.874139
vn 0.217491 0.820887 -0.528055
vn 0.354575 0.364897 -0.860887
vn 0.377809 -0.125808 -0.917297
vn 0.334645 -0.477345 -0.812499
vn 0.310833 -0.577784 -0.754685
vn 0.366730 -0.269630 -0.890398
vn 0.380834 0.000000 -0.924643
vn -0.373681 0.043055 0.926558
vn -0.371968 0.104787 0.922312
vn -0.346568 0.376090 0.859330
vn 0.225208 0.798409 -0.558412
vn 0.343723 0.394310 -0.852276
vn 0.370184 -0.142997 -0.917887
vn 0.320818 -0.514084 -0.795483
vn 0.303288 -0.585225 -0.752016
vn 0.360175 -0.269630 -0.893070
vn 0.374027 0.000000 -0.927418
vn -0.366841 0.046241 0.929134
vn -0.364764 0.115785 0.923873
vn -0.329345 0.442383 0.834164
vn 0.231590 0.776080 -0.586571
vn 0.331842 0.428326 -0.840487
vn 0.362167 -0.165551 -0.917294
vn 0.305314 -0.555694 -0.773297
vn 0.295749 -0.592810 -0.749072
vn 0.353633 -0.269630 -0.895680
vn 0.367234 0.000000 -0.930129
vn -0.360006 0.049936 0.931613
vn -0.357428 0.129340 0.924941
vn -0.305168 0.532199 0.789707
vn 0.236750 0.754057 -0.612656
vn 0.318560 0.467919 -0.824361
vn 0.353436 -0.196386 -0.914612
vn 0.287614 -0.602764 -0.744280
vn 0.288219 -0.600538 -0.745845
vn 0.347106 -0.269630 -0.898230
vn 0.360455 0.000000 -0.932776
vn -0.353294 0.047439 0.934309
vn -0.351133 0.120083 0.928593
vn -0.312202 0.469948 0.825638
vn 0.226301 0.768522 -0.598466
vn 0.317414 0.441160 -0.839420
vn 0.348238 -0.174944 -0.920937
vn 0.290334 -0.571120 -0.767807
vn 0.284159 -0.595431 -0.751476
vn 0.340593 -0.269630 -0.900720
vn 0.353692 0.000000 -0.935362
vn -0.346609 0.044092 0.936973
vn -0.344906 0.108300 0.932369
vn -0.318496 0.396586 0.860976
vn 0.212374 0.790762 -0.574101
vn 0.317164 0.405358 -0.857375
vn 0.343022 -0.149979 -0.927277
vn 0.294705 -0.527708 -0.796664
vn 0.280682 -0.587798 -0.758756
vn 0.334097 -0.269630 -0.903150
vn 0.346946 0.000000 -0.937885
vn -0.638495 0.044797 0.768321
vn -0.637067 0.164154 0.753127
vn -0.229920 0.971507 0.057547
vn 0.417301 0.592823 -0.688782
vn 0.654339 0.147483 -0.741680
vn 0.671039 -0.424450 -0.607905
vn -0.692553 0.048296 0.719748
vn -0.691539 0.187072 0.697694
vn -0.180215 0.953038 -0.243394
vn 0.326757 0.596998 -0.732682
vn 0.468122 0.169858 -0.867185
vn 0.412268 -0.468928 -0.781116
vn -0.659841 0.048309 0.749851
vn -0.644787 0.187227 0.741077
vn 0.097183 0.995257 0.004245
vn 0.569217 0.615716 -0.544872
vn 0.628541 0.174785 -0.757883
vn 0.500785 -0.478045 -0.721587
vn -0.627295 0.045420 0.777456
vn -0.604702 0.167892 0.778555
vn 0.173647 0.923711 0.341474
vn 0.722092 0.577660 -0.380647
vn 0.750493 0.150603 -0.643489
vn 0.619023 -0.435119 -0.653821
vn -0.683827 0.042343 0.728414
vn -0.678802 0.149245 0.718995
vn -0.345802 0.915076 0.207500
vn 0.458616 0.585327 -0.668628
vn 0.528317 0.129340 -0.839138
vn 0.448035 -0.381522 -0.808521
vn -0.680427 0.039665 0.731741
vn -0.682006 0.134213 0.718926
vn -0.547814 0.798510 0.249564
vn 0.345081 0.557730 -0.754888
vn 0.518689 0.113486 -0.847398
vn 0.509190 -0.347974 -0.787172
vn -0.611837 0.039852 0.789979
vn -0.597901 0.135203 0.790085
vn -0.123803 0.798828 0.588683
vn 0.710725 0.553247 -0.434498
vn 0.777562 0.113592 -0.618461
vn 0.721654 -0.348109 -0.598361
vn -0.642560 0.040066 0.765187
vn -0.635683 0.136364 0.759811
vn -0.312014 0.839477 0.444888
vn 0.566418 0.573848 -0.591498
vn 0.674284 0.116744 -0.729186
vn 0.634599 -0.355198 -0.686381
vn -0.672654 0.040193 0.738865
vn -0.671937 0.137112 0.727805
vn -0.480801 0.830877 0.280132
vn 0.401764 0.570401 -0.716400
vn 0.553938 0.117521 -0.824222
vn 0.531632 -0.357385 -0.767882
vn -0.612759 0.040224 0.789245
vn -0.592335 0.137130 0.793936
vn 0.005430 0.776261 0.630388
vn 0.781704 0.527052 -0.333400
vn 0.790120 0.114292 -0.602202
vn 0.690779 -0.353943 -0.630514
vn -0.621333 0.038095 0.782620
vn -0.609509 0.125888 0.782720
vn -0.228632 0.740276 0.632234
vn 0.698720 0.543397 -0.465306
vn 0.751426 0.104225 -0.651533
vn 0.696398 -0.324856 -0.639921
vn -0.672779 0.037822 0.738876
vn -0.672666 0.124627 0.729376
vn -0.556532 0.734651 0.388022
vn 0.402815 0.557889 -0.725603
vn 0.554994 0.105110 -0.825187
vn 0.538825 -0.326288 -0.776662
vn -0.634118 0.037775 0.772313
vn -0.626523 0.124258 0.769435
vn -0.343967 0.741501 0.576076
vn 0.619518 0.554396 -0.555737
vn 0.705531 0.103543 -0.701074
vn 0.667132 -0.322093 -0.671708
vn -0.604859 0.038038 0.795424
vn -0.598222 0.125502 0.791442
vn -0.298801 0.748084 0.592527
vn 0.634520 0.553176 -0.539796
vn 0.777631 0.102299 -0.620342
vn 0.771491 -0.313858 -0.553439
vn -0.667714 0.040326 0.743325
vn -0.673912 0.137726 0.725861
vn -0.583470 0.793979 0.170764
vn 0.253924 0.557656 -0.790280
vn 0.543933 0.119071 -0.830637
vn 0.592789 -0.360896 -0.719969
vn -0.654897 0.043178 0.754484
vn -0.657747 0.153965 0.737336
vn -0.411725 0.907202 0.086418
vn 0.326981 0.585003 -0.742196
vn 0.593283 0.136643 -0.793312
vn 0.626627 -0.399325 -0.669237
vn -0.605082 0.046580 0.794800
vn -0.594533 0.175007 0.784795
vn 0.046103 0.990825 0.127042
vn 0.565503 0.604015 -0.561581
vn 0.761612 0.154563 -0.629330
vn 0.751786 -0.427589 -0.501982
vn -0.646957 0.049187 0.760939
vn -0.627690 0.193614 0.754002
vn 0.213892 0.976851 0.003587
vn 0.618748 0.606858 -0.498873
vn 0.676164 0.181504 -0.714044
vn 0.540319 -0.496286 -0.679526
vn -0.672220 0.047090 0.738853
vn -0.656211 0.179613 0.732889
vn 0.073401 0.995086 0.066457
vn 0.595763 0.602911 -0.530628
vn 0.598362 0.166849 -0.783661
vn 0.427999 -0.464372 -0.775355
vn -0.629915 0.044059 0.775413
vn -0.605981 0.159381 0.779349
vn 0.176018 0.891804 0.416778
vn 0.757886 0.541636 -0.363647
vn 0.749265 0.137225 -0.647897
vn 0.603149 -0.411348 -0.683377
vn -0.647794 0.041068 0.760708
vn -0.634413 0.142028 0.759834
vn -0.149691 0.871754 0.466516
vn 0.659042 0.561241 -0.500672
vn 0.677548 0.121927 -0.725302
vn 0.577400 -0.370859 -0.727374
vn -0.692963 0.038940 0.719921
vn -0.697558 0.130710 0.704505
vn -0.639209 0.737802 0.216931
vn 0.237573 0.557811 -0.795239
vn 0.454538 0.113099 -0.883518
vn 0.461579 -0.347331 -0.816276
vn -0.651060 0.039476 0.757999
vn -0.646500 0.133185 0.751199
vn -0.392092 0.815313 0.426063
vn 0.518154 0.572640 -0.635295
vn 0.641644 0.113761 -0.758520
vn 0.610609 -0.347615 -0.711562
vn -0.627136 0.039819 0.777891
vn -0.617017 0.134801 0.775318
vn -0.220827 0.823575 0.522456
vn 0.644852 0.555726 -0.524722
vn 0.727046 0.112041 -0.677385
vn 0.681602 -0.343659 -0.646001
vn -0.692425 0.039416 0.720412
vn -0.693973 0.133434 0.707529
vn -0.579482 0.777053 0.245742
vn 0.309236 0.572959 -0.759007
vn 0.467633 0.116832 -0.876167
vn 0.441441 -0.355777 -0.823743
vn -0.671476 0.038812 0.740009
vn -0.669628 0.129945 0.731241
vn -0.500942 0.779060 0.376990
vn 0.432544 0.573787 -0.695467
vn 0.563128 0.112381 -0.818693
vn 0.530724 -0.344807 -0.774235
vn -0.627121 0.038614 0.777964
vn -0.616400 0.128419 0.776891
vn -0.240782 0.774048 0.585554
vn 0.671751 0.541015 -0.506016
vn 0.731025 0.105070 -0.674212
vn 0.679665 -0.327198 -0.656503
vn -0.672840 0.038037 0.738809
vn -0.672634 0.125910 0.729184
vn -0.553073 0.739111 0.384480
vn 0.395375 0.570177 -0.720123
vn 0.552679 0.108639 -0.826283
vn 0.534953 -0.335139 -0.775569
vn -0.691177 0.037642 0.721705
vn -0.697155 0.124005 0.706115
vn -0.687914 0.676318 0.263380
vn 0.195099 0.554128 -0.809245
vn 0.453333 0.108003 -0.884774
vn 0.480208 -0.334172 -0.811005
vn -0.627119 0.039297 0.777932
vn -0.622636 0.131791 0.771333
vn -0.354862 0.803517 0.477947
vn 0.552642 0.566852 -0.610955
vn 0.712177 0.109051 -0.693478
vn 0.706585 -0.331017 -0.625433
vn -0.652373 0.041665 0.756752
vn -0.652829 0.145056 0.743487
vn -0.429900 0.872004 0.234083
vn 0.384450 0.592082 -0.708263
vn 0.614448 0.127481 -0.778590
vn 0.628055 -0.376076 -0.681259
vn -0.686513 0.044148 0.725776
vn -0.691958 0.160510 0.703869
vn -0.478882 0.876582 -0.047701
vn 0.199292 0.596576 -0.777419
vn 0.459473 0.149533 -0.875514
vn 0.482050 -0.430205 -0.763251
vn -0.624594 0.048436 0.779446
vn -0.609983 0.187282 0.769965
vn 0.146734 0.988854 0.025253
vn 0.584233 0.603536 -0.542601
vn 0.720357 0.168041 -0.672940
vn 0.666206 -0.462200 -0.585270
vn -0.609207 0.049744 0.791449
vn -0.576641 0.196544 0.793004
vn 0.455303 0.882795 0.115638
vn 0.759008 0.543665 -0.358240
vn 0.794030 0.169146 -0.583872
vn 0.652712 -0.481200 -0.585161
vn -0.672219 0.045281 0.738966
vn -0.661410 0.168125 0.730939
vn -0.084355 0.990544 0.108194
vn 0.539643 0.601124 -0.589436
vn 0.581375 0.155621 -0.798615
vn 0.455754 -0.447110 -0.769663
vn -0.645743 0.042579 0.762366
vn -0.630870 0.150783 0.761096
vn -0.049738 0.922864 0.381900
vn 0.664335 0.557457 -0.497896
vn 0.684875 0.129825 -0.717002
vn 0.577273 -0.393071 -0.715717
vn -0.604421 0.040338 0.795643
vn -0.584972 0.137187 0.799367
vn 0.037601 0.799872 0.598992
vn 0.778325 0.497158 -0.383463
vn 0.797670 0.106241 -0.593662
vn 0.724350 -0.334428 -0.602889
vn -0.656403 0.038836 0.753410
vn -0.653243 0.129874 0.745926
vn -0.449268 0.783951 0.428461
vn 0.485406 0.574442 -0.659088
vn 0.620477 0.111510 -0.776256
vn 0.594662 -0.341751 -0.727725
vn -0.666359 0.038856 0.744618
vn -0.665315 0.130156 0.735129
vn -0.508872 0.773914 0.376969
vn 0.417086 0.581085 -0.698842
vn 0.577487 0.113731 -0.808439
vn 0.559125 -0.347290 -0.752841
vn -0.604320 0.039846 0.795745
vn -0.588730 0.134358 0.797085
vn -0.054428 0.801462 0.595564
vn 0.743494 0.509268 -0.433432
vn 0.789850 0.103587 -0.604488
vn 0.738452 -0.323356 -0.591717
vn -0.635442 0.039653 0.771130
vn -0.625000 0.133942 0.769048
vn -0.226708 0.825814 0.516367
vn 0.646536 0.545628 -0.533180
vn 0.705506 0.110464 -0.700042
vn 0.647971 -0.342043 -0.680544
vn -0.672576 0.038618 0.739019
vn -0.671963 0.129098 0.729246
vn -0.534014 0.760745 0.368912
vn 0.394901 0.583151 -0.709921
vn 0.552661 0.113975 -0.825576
vn 0.530428 -0.348544 -0.772763
vn -0.619565 0.039246 0.783963
vn -0.606632 0.131432 0.784042
vn -0.152981 0.798181 0.582669
vn 0.705764 0.520830 -0.480243
vn 0.751989 0.103873 -0.650940
vn 0.697742 -0.325110 -0.638325
vn -0.613613 0.039166 0.788635
vn -0.599214 0.130894 0.789816
vn -0.111481 0.788053 0.605429
vn 0.731445 0.508402 -0.454441
vn 0.768356 0.101606 -0.631906
vn 0.712291 -0.319796 -0.624797
vn -0.684504 0.037862 0.728025
vn -0.692846 0.125024 0.710164
vn -0.712090 0.654865 0.253139
vn 0.114930 0.571255 -0.812686
vn 0.464386 0.113111 -0.878380
vn 0.526932 -0.342710 -0.777748
vn -0.662435 0.040060 0.748048
vn -0.668076 0.136073 0.731545
vn -0.595934 0.765030 0.244115
vn 0.239079 0.594361 -0.767839
vn 0.562357 0.121567 -0.817910
vn 0.613511 -0.357829 -0.703962
vn -0.627008 0.043472 0.777799
vn -0.625462 0.154498 0.764806
vn -0.296185 0.929535 0.219632
vn 0.440222 0.604204 -0.664185
vn 0.692289 0.132057 -0.709434
vn 0.715339 -0.373943 -0.590302
vn -0.680923 0.045542 0.730938
vn -0.688861 0.169112 0.704891
vn -0.479360 0.870873 -0.108600
vn 0.116779 0.618944 -0.776705
vn 0.458583 0.165947 -0.873019
vn 0.521956 -0.456438 -0.720574
vn -0.681519 0.049146 0.730148
vn -0.670384 0.195792 0.715717
vn 0.042791 0.986557 -0.157713
vn 0.479138 0.629362 -0.611825
vn 0.535418 0.196628 -0.821380
vn 0.378676 -0.528678 -0.759674
vn -0.627012 0.047931 0.777534
vn -0.599548 0.184351 0.778818
vn 0.372829 0.917073 0.141337
vn 0.741353 0.531949 -0.409177
vn 0.750737 0.156507 -0.641794
vn 0.599855 -0.462029 -0.653225
f 1/1/511 11/11/511 12/12/511
f 1/1/511 12/12/511 2/2/511
f 2/2/512 12/12/512 13/13/512
f 2/2/512 13/13/512 3/3/512
f 3/3/513 13/13/513 14/14/513
f 3/3/513 14/14/513 4/4/513
f 4/4/514 14/14/514 15/15/514
f 4/4/514 15/15/514 5/5/514
f 5/5/515 15/15/515 16/16/515
f 5/5/515 16/16/515 6/6/515
f 6/6/516 16/16/516 17/17/516
f 6/6/516 17/17/516 7/7/516
f 7/7/7 17/17/17 18/18/18
f 7/7/7 18/18/18 8/8/8
f 8/8/8 18/18/18 19/19/19
f 8/8/8 19/19/19 9/9/9
f 9/9/9 19/19/19 20/20/20
f 9/9/9 20/20/20 10/10/10
f 11/11/517 21/21/517 22/22/517
f 11/11/517 22/22/517 12/12/517
f 12/12/518 22/22/518 23/23/518
f 12/12/518 23/23/518 13/13/518
f 13/13/519 23/23/519 24/24/519
f 13/13/519 24/24/519 14/14/519
f 14/14/520 24/24/520 25/25/520
f 14/14/520 25/25/520 15/15/520
f 15/15/521 25/25/521 26/26/521
f 15/15/521 26/26/521 16/16/521
f 16/16/522 26/26/522 27/27/522
f 16/16/522 27/27/522 17/17/522
f 17/17/17 27/27/27 28/28/28
f 17/17/17 28/28/28 18/18/18
f 18/18/18 28/28/28 29/29/29
f 18/18/18 29/29/29 19/19/19
f 19/19/19 29/29/29 30/30/30
f 19/19/19 30/30/30 20/20/20
f 21/21/523 31/31/523 32/32/523
f 21/21/523 32/32/523 22/22/523
f 22/22/524 32/32/524 33/33/524
f 22/22/524 33/33/524 23/23/524
f 23/23/525 33/33/525 34/34/525
f 23/23/525 34/34/525 24/24/525
f 24/24/526 34/34/526 35/35/526
f 24/24/526 35/35/526 25/25/526
f 25/25/527 35/35/527 36/36/527
f 25/25/527 36/36/527 26/26/527
f 26/26/528 36/36/528 37/37/528
f 26/26/528 37/37/528 27/27/528
f 27/27/27 37/37/37 38/38/38
f 27/27/27 38/38/38 28/28/28
f 28/28/28 38/38/38 39/39/39
f 28/28/28 39/39/39 29/29/29
f 29/29/29 39/39/39 40/40/40
f 29/29/29 40/40/40 30/30/30
f 31/31/529 41/41/529 42/42/529
f 31/31/529 42/42/529 32/32/529
f 32/32/530 42/42/530 43/43/530
f 32/32/530 43/43/530 33/33/530
f 33/33/531 43/43/531 44/44/531
f 33/33/531 44/44/531 34/34/531
f 34/34/532 44/44/532 45/45/532
f 34/34/532 45/45/532 35/35/532
f 35/35/533 45/45/533 46/46/533
f 35/35/533 46/46/533 36/36/533
f 36/36/534 46/46/534 47/47/534
f 36/36/534 47/47/534 37/37/534
f 37/37/37 47/47/47 48/48/48
f 37/37/37 48/48/48 38/38/38
f 38/38/38 48/48/48 49/49/49
f 38/38/38 49/49/49 39/39/39
f 39/39/39 49/49/49 50/50/50
f 39/39/39 50/50/50 40/40/40
f 41/41/535 51/51/535 52/52/535
f 41/41/535 52/52/535 42/42/535
f 42/42/536 52/52/536 53/53/536
f 42/42/536 53/53/536 43/43/536
f 43/43/537 53/53/537 54/54/537
f 43/43/537 54/54/537 44/44/537
f 44/44/538 54/54/538 55/55/538
f 44/44/538 55/55/538 45/45/538
f 45/45/539 55/55/539 56/56/539
f 45/45/539 56/56/539 46/46/539
f 46/46/540 56/56/540 57/57/540
f 46/46/540 57/57/540 47/47/540
f 47/47/47 57/57/57 58/58/58
f 47/47/47 58/58/58 48/48/48
f 48/48/48 58/58/58 59/59/59
f 48/48/48 59/59/59 49/49/49
f 49/49/49 59/59/59 60/60/60
f 49/49/49 60/60/60 50/50/50
f 51/51/541 61/61/541 62/62/541
f 51/51/541 62/62/541 52/52/541
f 52/52/542 62/62/542 63/63/542
f 52/52/542 63/63/542 53/53/542
f 53/53/543 63/63/543 64/64/543
f 53/53/543 64/64/543 54/54/543
f 54/54/544 64/64/544 65/65/544
f 54/54/544 65/65/544 55/55/544
f 55/55/545 65/65/545 66/66/545
f 55/55/545 66/66/545 56/56/545
f 56/56/546 66/66/546 67/67/546
f 56/56/546 67/67/546 57/57/546
f 57/57/57 67/67/67 68/68/68
f 57/57/57 68/68/68 58/58/58
f 58/58/58 68/68/68 69/69/69
f 58/58/58 69/69/69 59/59/59
f 59/59/59 69/69/69 70/70/70
f 59/59/59 70/70/70 60/60/60
f 61/61/547 71/71/547 72/72/547
f 61/61/547 72/72/547 62/62/547
f 62/62/548 72/72/548 73/73/548
f 62/62/548 73/73/548 63/63/548
f 63/63/549 73/73/549 74/74/549
f 63/63/549 74/74/549 64/64/549
f 64/64/550 74/74/550 75/75/550
f 64/64/550 75/75/550 65/65/550
f 65/65/551 75/75/551 76/76/551
f 65/65/551 76/76/551 66/66/551
f 66/66/552 76/76/552 77/77/552
f 66/66/552 77/77/552 67/67/552
f 67/67/67 77/77/77 78/78/78
f 67/67/67 78/78/78 68/68/68
f 68/68/68 78/78/78 79/79/79
f 68/68/68 79/79/79 69/69/69
f 69/69/69 79/79/79 80/80/80
f 69/69/69 80/80/80 70/70/70
f 71/71/553 81/81/553 82/82/553
f 71/71/553 82/82/553 72/72/553
f 72/72/554 82/82/554 83/83/554
f 72/72/554 83/83/554 73/73/554
f 73/73/555 83/83/555 84/84/555
f 73/73/555 84/84/555 74/74/555
f 74/74/556 84/84/556 85/85/556
f 74/74/556 85/85/556 75/75/556
f 75/75/557 85/85/557 86/86/557
f 75/75/557 86/86/557 76/76/557
f 76/76/558 86/86/558 87/87/558
f 76/76/558 87/87/558 77/77/558
f 77/77/77 87/87/87 88/88/88
f 77/77/77 88/88/88 78/78/78
f 78/78/78 88/88/88 89/89/89
f 78/78/78 89/89/89 79/79/79
f 79/79/79 89/89/89 90/90/90
f 79/79/79 90/90/90 80/80/80
f 81/81/559 91/91/559 92/92/559
f 81/81/559 92/92/559 82/82/559
f 82/82/560 92/92/560 93/93/560
f 82/82/560 93/93/560 83/83/560
f 83/83/561 93/93/561 94/94/561
f 83/83/561 94/94/561 84/84/561
f 84/84/562 94/94/562 95/95/562
f 84/84/562 95/95/562 85/85/562
f 85/85/563 95/95/563 96/96/563
f 85/85/563 96/96/563 86/86/563
f 86/86/564 96/96/564 97/97/564
f 86/86/564 97/97/564 87/87/564
f 87/87/87 97/97/97 98/98/98
f 87/87/87 98/98/98 88/88/88
f 88/88/88 98/98/98 99/99/99
f 88/88/88 99/99/99 89/89/89
f 89/89/89 99/99/99 100/100/100
f 89/89/89 100/100/100 90/90/90
f 91/91/565 101/101/565 102/102/565
f 91/91/565 102/102/565 92/92/565
f 92/92/566 102/102/566 103/103/566
f 92/92/566 103/103/566 93/93/566
f 93/93/567 103/103/567 104/104/567
f 93/93/567 104/104/567 94/94/567
f 94/94/568 104/104/568 105/105/568
f 94/94/568 105/105/568 95/95/568
f 95/95/569 105/105/569 106/106/569
f 95/95/569 106/106/569 96/96/569
f 96/96/570 106/106/570 107/107/570
f 96/96/570 107/107/570 97/97/570
f 97/97/97 107/107/107 108/108/108
f 97/97/97 108/108/108 98/98/98
f 98/98/98 108/108/108 109/109/109
f 98/98/98 109/109/109 99/99/99
f 99/99/99 109/109/109 110/110/110
f 99/99/99 110/110/110 100/100/100
f 101/101/571 111/111/571 112/112/571
f 101/101/571 112/112/571 102/102/571
f 102/102/572 112/112/572 113/113/572
f 102/102/572 113/113/572 103/103/572
f 103/103/573 113/113/573 114/114/573
f 103/103/573 114/114/573 104/104/573
f 104/104/574 114/114/574 115/115/574
f 104/104/574 115/115/574 105/105/574
f 105/105/575 115/115/575 116/116/575
f 105/105/575 116/116/575 106/106/575
f 106/106/576 116/116/576 117/117/576
f 106/106/576 117/117/576 107/107/576
f 107/107/107 117/117/117 118/118/118
f 107/107/107 118/118/118 108/108/108
f 108/108/108 118/118/118 119/119/119
f 108/108/108 119/119/119 109/109/109
f 109/109/109 119/119/119 120/120/120
f 109/109/109 120/120/120 110/110/110
f 111/111/577 121/121/577 122/122/577
f 111/111/577 122/122/577 112/112/577
f 112/112/578 122/122/578 123/123/578
f 112/112/578 123/123/578 113/113/578
f 113/113/579 123/123/579 124/124/579
f 113/113/579 124/124/579 114/114/579
f 114/114/580 124/124/580 125/125/580
f 114/114/580 125/125/580 115/115/580
f 115/115/581 125/125/581 126/126/581
f 115/115/581 126/126/581 116/116/581
f 116/116/582 126/126/582 127/127/582
f 116/116/582 127/127/582 117/117/582
f 117/117/117 127/127/127 128/128/128
f 117/117/117 128/128/128 118/118/118
f 118/118/118 128/128/128 129/129/129
f 118/118/118 129/129/129 119/119/119
f 119/119/119 129/129/129 130/130/130
f 119/119/119 130/130/130 120/120/120
f 121/121/583 131/131/583 132/132/583
f 121/121/583 132/132/583 122/122/583
f 122/122/584 132/132/584 133/133/584
f 122/122/584 133/133/584 123/123/584
f 123/123/585 133/133/585 134/134/585
f 123/123/585 134/134/585 124/124/585
f 124/124/586 134/134/586 135/135/586
f 124/124/586 135/135/586 125/125/586
f 125/125/587 135/135/587 136/136/587
f 125/125/587 136/136/587 126/126/587
f 126/126/588 136/136/588 137/137/588
f 126/126/588 137/137/588 127/127/588
f 127/127/127 137/137/137 138/138/138
f 127/127/127 138/138/138 128/128/128
f 128/128/128 138/138/138 139/139/139
f 128/128/128 139/139/139 129/129/129
f 129/129/129 139/139/139 140/140/140
f 129/129/129 140/140/140 130/130/130
f 131/131/589 141/141/589 142/142/589
f 131/131/589 142/142/589 132/132/589
f 132/132/590 142/142/590 143/143/590
f 132/132/590 143/143/590 133/133/590
f 133/133/591 143/143/591 144/144/591
f 133/133/591 144/144/591 134/134/591
f 134/134/592 144/144/592 145/145/592
f 134/134/592 145/145/592 135/135/592
f 135/135/593 145/145/593 146/146/593
f 135/135/593 146/146/593 136/136/593
f 136/136/594 146/146/594 147/147/594
f 136/136/594 147/147/594 137/137/594
f 137/137/137 147/147/147 148/148/148
f 137/137/137 148/148/148 138/138/138
f 138/138/138 148/148/148 149/149/149
f 138/138/138 149/149/149 139/139/139
f 139/139/139 149/149/149 150/150/150
f 139/139/139 150/150/150 140/140/140
f 141/141/595 151/151/595 152/152/595
f 141/141/595 152/152/595 142/142/595
f 142/142/596 152/152/596 153/153/596
f 142/142/596 153/153/596 143/143/596
f 143/143/597 153/153/597 154/154/597
f 143/143/597 154/154/597 144/144/597
f 144/144/598 154/154/598 155/155/598
f 144/144/598 155/155/598 145/145/598
f 145/145/599 155/155/599 156/156/599
f 145/145/599 156/156/599 146/146/599
f 146/146/600 156/156/600 157/157/600
f 146/146/600 157/157/600 147/147/600
f 147/147/147 157/157/157 158/158/158
f 147/147/147 158/158/158 148/148/148
f 148/148/148 158/158/158 159/159/159
f 148/148/148 159/159/159 149/149/149
f 149/149/149 159/159/159 160/160/160
f 149/149/149 160/160/160 150/150/150
f 151/151/601 161/161/601 162/162/601
f 151/151/601 162/162/601 152/152/601
f 152/152/602 162/162/602 163/163/602
f 152/152/602 163/163/602 153/153/602
f 153/153/603 163/163/603 164/164/603
f 153/153/603 164/164/603 154/154/603
f 154/154/604 164/164/604 165/165/604
f 154/154/604 165/165/604 155/155/604
f 155/155/605 165/165/605 166/166/605
f 155/155/605 166/166/605 156/156/605
f 156/156/606 166/166/606 167/167/606
f 156/156/606 167/167/606 157/157/606
f 157/157/157 167/167/167 168/168/168
f 157/157/157 168/168/168 158/158/158
f 158/158/158 168/168/168 169/169/169
f 158/158/158 169/169/169 159/159/159
f 159/159/159 169/169/169 170/170/170
f 159/159/159 170/170/170 160/160/160
f 161/161/607 171/171/607 172/172/607
f 161/161/607 172/172/607 162/162/607
f 162/162/608 172/172/608 173/173/608
f 162/162/608 173/173/608 163/163/608
f 163/163/609 173/173/609 174/174/609
f 163/163/609 174/174/609 164/164/609
f 164/164/610 174/174/610 175/175/610
f 164/164/610 175/175/610 165/165/610
f 165/165/611 175/175/611 176/176/611
f 165/165/611 176/176/611 166/166/611
f 166/166/612 176/176/612 177/177/612
f 166/166/612 177/177/612 167/167/612
f 167/167/167 177/177/177 178/178/178
f 167/167/167 178/178/178 168/168/168
f 168/168/168 178/178/178 179/179/179
f 168/168/168 179/179/179 169/169/169
f 169/169/169 179/179/179 180/180/180
f 169/169/169 180/180/180 170/170/170
f 171/171/613 181/181/613 182/182/613
f 171/171/613 182/182/613 172/172/613
f 172/172/614 182/182/614 183/183/614
f 172/172/614 183/183/614 173/173/614
f 173/173/615 183/183/615 184/184/615
f 173/173/615 184/184/615 174/174/615
f 174/174/616 184/184/616 185/185/616
f 174/174/616 185/185/616 175/175/616
f 175/175/617 185/185/617 186/186/617
f 175/175/617 186/186/617 176/176/617
f 176/176/618 186/186/618 187/187/618
f 176/176/618 187/187/618 177/177/618
f 177/177/177 187/187/187 188/188/188
f 177/177/177 188/188/188 178/178/178
f 178/178/178 188/188/188 189/189/189
f 178/178/178 189/189/189 179/179/179
f 179/179/179 189/189/189 190/190/190
f 179/179/179 190/190/190 180/180/180
f 181/181/619 191/191/619 192/192/619
f 181/181/619 192/192/619 182/182/619
f 182/182/620 192/192/620 193/193/620
f 182/182/620 193/193/620 183/183/620
f 183/183/621 193/193/621 194/194/621
f 183/183/621 194/194/621 184/184/621
f 184/184/622 194/194/622 195/195/622
f 184/184/622 195/195/622 185/185/622
f 185/185/623 195/195/623 196/196/623
f 185/185/623 196/196/623 186/186/623
f 186/186/624 196/196/624 197/197/624
f 186/186/624 197/197/624 187/187/624
f 187/187/187 197/197/197 198/198/198
f 187/187/187 198/198/198 188/188/188
f 188/188/188 198/198/198 199/199/199
f 188/188/188 199/199/199 189/189/189
f 189/189/189 199/199/199 200/200/200
f 189/189/189 200/200/200 190/190/190
f 191/191/625 201/201/625 202/202/625
f 191/191/625 202/202/625 192/192/625
f 192/192/626 202/202/626 203/203/626
f 192/192/626 203/203/626 193/193/626
f 193/193/627 203/203/627 204/204/627
f 193/193/627 204/204/627 194/194/627
f 194/194/628 204/204/628 205/205/628
f 194/194/628 205/205/628 195/195/628
f 195/195/629 205/205/629 206/206/629
f 195/195/629 206/206/629 196/196/629
f 196/196/630 206/206/630 207/207/630
f 196/196/630 207/207/630 197/197/630
f 197/197/197 207/207/207 208/208/208
f 197/197/197 208/208/208 198/198/198
f 198/198/198 208/208/208 209/209/209
f 198/198/198 209/209/209 199/199/199
f 199/199/199 209/209/209 210/210/210
f 199/199/199 210/210/210 200/200/200
f 201/201/631 211/211/631 212/212/631
f 201/201/631 212/212/631 202/202/631
f 202/202/632 212/212/632 213/213/632
f 202/202/632 213/213/632 203/203/632
f 203/203/633 213/213/633 214/214/633
f 203/203/633 214/214/633 204/204/633
f 204/204/634 214/214/634 215/215/634
f 204/204/634 215/215/634 205/205/634
f 205/205/635 215/215/635 216/216/635
f 205/205/635 216/216/635 206/206/635
f 206/206/636 216/216/636 217/217/636
f 206/206/636 217/217/636 207/207/636
f 207/207/207 217/217/217 218/218/218
f 207/207/207 218/218/218 208/208/208
f 208/208/208 218/218/218 219/219/219
f 208/208/208 219/219/219 209/209/209
f 209/209/209 219/219/219 220/220/220
f 209/209/209 220/220/220 210/210/210
f 211/211/637 221/221/637 222/222/637
f 211/211/637 222/222/637 212/212/637
f 212/212/638 222/222/638 223/223/638
f 212/212/638 223/223/638 213/213/638
f 213/213/639 223/223/639 224/224/639
f 213/213/639 224/224/639 214/214/639
f 214/214/640 224/224/640 225/225/640
f 214/214/640 225/225/640 215/215/640
f 215/215/641 225/225/641 226/226/641
f 215/215/641 226/226/641 216/216/641
f 216/216/642 226/226/642 227/227/642
f 216/216/642 227/227/642 217/217/642
f 217/217/217 227/227/227 228/228/228
f 217/217/217 228/228/228 218/218/218
f 218/218/218 228/228/228 229/229/229
f 218/218/218 229/229/229 219/219/219
f 219/219/219 229/229/229 230/230/230
f 219/219/219 230/230/230 220/220/220
f 221/221/643 231/231/643 232/232/643
f 221/221/643 232/232/643 222/222/643
f 222/222/644 232/232/644 233/233/644
f 222/222/644 233/233/644 223/223/644
f 223/223/645 233/233/645 234/234/645
f 223/223/645 234/234/645 224/224/645
f 224/224/646 234/234/646 235/235/646
f 224/224/646 235/235/646 225/225/646
f 225/225/647 235/235/647 236/236/647
f 225/225/647 236/236/647 226/226/647
f 226/226/648 236/236/648 237/237/648
f 226/226/648 237/237/648 227/227/648
f 227/227/227 237/237/237 238/238/238
f 227/227/227 238/238/238 228/228/228
f 228/228/228 238/238/238 239/239/239
f 228/228/228 239/239/239 229/229/229
f 229/229/229 239/239/239 240/240/240
f 229/229/229 240/240/240 230/230/230
f 231/231/649 241/241/649 242/242/649
f 231/231/649 242/242/649 232/232/649
f 232/232/650 242/242/650 243/243/650
f 232/232/650 243/243/650 233/233/650
f 233/233/651 243/243/651 244/244/651
f 233/233/651 244/244/651 234/234/651
f 234/234/652 244/244/652 245/245/652
f 234/234/652 245/245/652 235/235/652
f 235/235/653 245/245/653 246/246/653
f 235/235/653 246/246/653 236/236/653
f 236/236/654 246/246/654 247/247/654
f 236/236/654 247/247/654 237/237/654
f 237/237/237 247/247/247 248/248/248
f 237/237/237 248/248/248 238/238/238
f 238/238/238 248/248/248 249/249/249
f 238/238/238 249/249/249 239/239/239
f 239/239/239 249/249/249 250/250/250
f 239/239/239 250/250/250 240/240/240
f 241/241/655 251/251/655 252/252/655
f 241/241/655 252/252/655 242/242/655
f 242/242/656 252/252/656 253/253/656
f 242/242/656 253/253/656 243/243/656
f 243/243/657 253/253/657 254/254/657
f 243/243/657 254/254/657 244/244/657
f 244/244/658 254/254/658 255/255/658
f 244/244/658 255/255/658 245/245/658
f 245/245/659 255/255/659 256/256/659
f 245/245/659 256/256/659 246/246/659
f 246/246/660 256/256/660 257/257/660
f 246/246/660 257/257/660 247/247/660
f 247/247/247 257/257/257 258/258/258
f 247/247/247 258/258/258 248/248/248
f 248/248/248 258/258/258 259/259/259
f 248/248/248 259/259/259 249/249/249
f 249/249/249 259/259/259 260/260/260
f 249/249/249 260/260/260 250/250/250
f 251/251/661 261/261/661 262/262/661
f 251/251/661 262/262/661 252/252/661
f 252/252/662 262/262/662 263/263/662
f 252/252/662 263/263/662 253/253/662
f 253/253/663 263/263/663 264/264/663
f 253/253/663 264/264/663 254/254/663
f 254/254/664 264/264/664 265/265/664
f 254/254/664 265/265/664 255/255/664
f 255/255/665 265/265/665 266/266/665
f 255/255/665 266/266/665 256/256/665
f 256/256/666 266/266/666 267/267/666
f 256/256/666 267/267/666 257/257/666
f 257/257/257 267/267/267 268/268/268
f 257/257/257 268/268/268 258/258/258
f 258/258/258 268/268/268 269/269/269
f 258/258/258 269/269/269 259/259/259
f 259/259/259 269/269/269 270/270/270
f 259/259/259 270/270/270 260/260/260
f 261/261/667 271/271/667 272/272/667
f 261/261/667 272/272/667 262/262/667
f 262/262/668 272/272/668 273/273/668
f 262/262/668 273/273/668 263/263/668
f 263/263/669 273/273/669 274/274/669
f 263/263/669 274/274/669 264/264/669
f 264/264/670 274/274/670 275/275/670
f 264/264/670 275/275/670 265/265/670
f 265/265/671 275/275/671 276/276/671
f 265/265/671 276/276/671 266/266/671
f 266/266/672 276/276/672 277/277/672
f 266/266/672 277/277/672 267/267/672
f 267/267/267 277/277/277 278/278/278
f 267/267/267 278/278/278 268/268/268
f 268/268/268 278/278/278 279/279/279
f 268/268/268 279/279/279 269/269/269
f 269/269/269 279/279/279 280/280/280
f 269/269/269 280/280/280 270/270/270
f 271/271/673 281/281/673 282/282/673
f 271/271/673 282/282/673 272/272/673
f 272/272/674 282/282/674 283/283/674
f 272/272/674 283/283/674 273/273/674
f 273/273/675 283/283/675 284/284/675
f 273/273/675 284/284/675 274/274/675
f 274/274/676 284/284/676 285/285/676
f 274/274/676 285/285/676 275/275/676
f 275/275/677 285/285/677 286/286/677
f 275/275/677 286/286/677 276/276/677
f 276/276/678 286/286/678 287/287/678
f 276/276/678 287/287/678 277/277/678
f 277/277/277 287/287/287 288/288/288
f 277/277/277 288/288/288 278/278/278
f 278/278/278 288/288/288 289/289/289
f 278/278/278 289/289/289 279/279/279
f 279/279/279 289/289/289 290/290/290
f 279/279/279 290/290/290 280/280/280
f 281/281/679 291/291/679 292/292/679
f 281/281/679 292/292/679 282/282/679
f 282/282/680 292/292/680 293/293/680
f 282/282/680 293/293/680 283/283/680
f 283/283/681 293/293/681 294/294/681
f 283/283/681 294/294/681 284/284/681
f 284/284/682 294/294/682 295/295/682
f 284/284/682 295/295/682 285/285/682
f 285/285/683 295/295/683 296/296/683
f 285/285/683 296/296/683 286/286/683
f 286/286/684 296/296/684 297/297/684
f 286/286/684 297/297/684 287/287/684
f 287/287/287 297/297/297 298/298/298
f 287/287/287 298/298/298 288/288/288
f 288/288/288 298/298/298 299/299/299
f 288/288/288 299/299/299 289/289/289
f 289/289/289 299/299/299 300/300/300
f 289/289/289 300/300/300 290/290/290
f 291/291/685 301/301/685 302/302/685
f 291/291/685 302/302/685 292/292/685
f 292/292/686 302/302/686 303/303/686
f 292/292/686 303/303/686 293/293/686
f 293/293/687 303/303/687 304/304/687
f 293/293/687 304/304/687 294/294/687
f 294/294/688 304/304/688 305/305/688
f 294/294/688 305/305/688 295/295/688
f 295/295/689 305/305/689 306/306/689
f 295/295/689 306/306/689 296/296/689
f 296/296/690 306/306/690 307/307/690
f 296/296/690 307/307/690 297/297/690
f 297/297/297 307/307/307 308/308/308
f 297/297/297 308/308/308 298/298/298
f 298/298/298 308/308/308 309/309/309
f 298/298/298 309/309/309 299/299/299
f 299/299/299 309/309/309 310/310/310
f 299/299/299 310/310/310 300/300/300
f 301/301/691 311/311/691 312/312/691
f 301/301/691 312/312/691 302/302/691
f 302/302/692 312/312/692 313/313/692
f 302/302/692 313/313/692 303/303/692
f 303/303/693 313/313/693 314/314/693
f 303/303/693 314/314/693 304/304/693
f 304/304/694 314/314/694 315/315/694
f 304/304/694 315/315/694 305/305/694
f 305/305/695 315/315/695 316/316/695
f 305/305/695 316/316/695 306/306/695
f 306/306/696 316/316/696 317/317/696
f 306/306/696 317/317/696 307/307/696
f 307/307/307 317/317/317 318/318/318
f 307/307/307 318/318/318 308/308/308
f 308/308/308 318/318/318 319/319/319
f 308/308/308 319/319/319 309/309/309
f 309/309/309 319/319/319 320/320/320
f 309/309/309 320/320/320 310/310/310
f 311/311/697 321/321/697 322/322/697
f 311/311/697 322/322/697 312/312/697
f 312/312/698 322/322/698 323/323/698
f 312/312/698 323/323/698 313/313/698
f 313/313/699 323/323/699 324/324/699
f 313/313/699 324/324/699 314/314/699
f 314/314/700 324/324/700 325/325/700
f 314/314/700 325/325/700 315/315/700
f 315/315/701 325/325/701 326/326/701
f 315/315/701 326/326/701 316/316/701
f 316/316/702 326/326/702 327/327/702
f 316/316/702 327/327/702 317/317/702
f 317/317/317 327/327/327 328/328/328
f 317/317/317 328/328/328 318/318/318
f 318/318/318 328/328/328 329/329/329
f 318/318/318 329/329/329 319/319/319
f 319/319/319 329/329/329 330/330/330
f 319/319/319 330/330/330 320/320/320
f 321/321/703 331/331/703 332/332/703
f 321/321/703 332/332/703 322/322/703
f 322/322/704 332/332/704 333/333/704
f 322/322/704 333/333/704 323/323/704
f 323/323/705 333/333/705 334/334/705
f 323/323/705 334/334/705 324/324/705
f 324/324/706 334/334/706 335/335/706
f 324/324/706 335/335/706 325/325/706
f 325/325/707 335/335/707 336/336/707
f 325/325/707 336/336/707 326/326/707
f 326/326/708 336/336/708 337/337/708
f 326/326/708 337/337/708 327/327/708
f 327/327/327 337/337/337 338/338/338
f 327/327/327 338/338/338 328/328/328
f 328/328/328 338/338/338 339/339/339
f 328/328/328 339/339/339 329/329/329
f 329/329/329 339/339/339 340/340/340
f 329/329/329 340/340/340 330/330/330
f 331/331/709 341/341/709 342/342/709
f 331/331/709 342/342/709 332/332/709
f 332/332/710 342/342/710 343/343/710
f 332/332/710 343/343/710 333/333/710
f 333/333/711 343/343/711 344/344/711
f 333/333/711 344/344/711 334/334/711
f 334/334/712 344/344/712 345/345/712
f 334/334/712 345/345/712 335/335/712
f 335/335/713 345/345/713 346/346/713
f 335/335/713 346/346/713 336/336/713
f 336/336/714 346/346/714 347/347/714
f 336/336/714 347/347/714 337/337/714
f 337/337/337 347/347/347 348/348/348
f 337/337/337 348/348/348 338/338/338
f 338/338/338 348/348/348 349/349/349
f 338/338/338 349/349/349 339/339/339
f 339/339/339 349/349/349 350/350/350
f 339/339/339 350/350/350 340/340/340
f 341/341/715 351/351/715 352/352/715
f 341/341/715 352/352/715 342/342/715
f 342/342/716 352/352/716 353/353/716
f 342/342/716 353/353/716 343/343/716
f 343/343/717 353/353/717 354/354/717
f 343/343/717 354/354/717 344/344/717
f 344/344/718 354/354/718 355/355/718
f 344/344/718 355/355/718 345/345/718
f 345/345/719 355/355/719 356/356/719
f 345/345/719 356/356/719 346/346/719
f 346/346/720 356/356/720 357/357/720
f 346/346/720 357/357/720 347/347/720
f 347/347/347 357/357/357 358/358/358
f 347/347/347 358/358/358 348/348/348
f 348/348/348 358/358/358 359/359/359
f 348/348/348 359/359/359 349/349/349
f 349/349/349 359/359/359 360/360/360
f 349/349/349 360/360/360 350/350/350
f 351/351/721 361/361/721 362/362/721
f 351/351/721 362/362/721 352/352/721
f 352/352/722 362/362/722 363/363/722
f 352/352/722 363/363/722 353/353/722
f 353/353/723 363/363/723 364/364/723
f 353/353/723 364/364/723 354/354/723
f 354/354/724 364/364/724 365/365/724
f 354/354/724 365/365/724 355/355/724
f 355/355/725 365/365/725 366/366/725
f 355/355/725 366/366/725 356/356/725
f 356/356/726 366/366/726 367/367/726
f 356/356/726 367/367/726 357/357/726
f 357/357/357 367/367/367 368/368/368
f 357/357/357 368/368/368 358/358/358
f 358/358/358 368/368/368 369/369/369
f 358/358/358 369/369/369 359/359/359
f 359/359/359 369/369/369 370/370/370
f 359/359/359 370/370/370 360/360/360
f 361/361/727 371/371/727 372/372/727
f 361/361/727 372/372/727 362/362/727
f 362/362/728 372/372/728 373/373/728
f 362/362/728 373/373/728 363/363/728
f 363/363/729 373/373/729 374/374/729
f 363/363/729 374/374/729 364/364/729
f 364/364/730 374/374/730 375/375/730
f 364/364/730 375/375/730 365/365/730
f 365/365/731 375/375/731 376/376/731
f 365/365/731 376/376/731 366/366/731
f 366/366/732 376/376/732 377/377/732
f 366/366/732 377/377/732 367/367/732
f 367/367/367 377/377/377 378/378/378
f 367/367/367 378/378/378 368/368/368
f 368/368/368 378/378/378 379/379/379
f 368/368/368 379/379/379 369/369/369
f 369/369/369 379/379/379 380/380/380
f 369/369/369 380/380/380 370/370/370
f 371/371/733 381/381/733 382/382/733
f 371/371/733 382/382/733 372/372/733
f 372/372/734 382/382/734 383/383/734
f 372/372/734 383/383/734 373/373/734
f 373/373/735 383/383/735 384/384/735
f 373/373/735 384/384/735 374/374/735
f 374/374/736 384/384/736 385/385/736
f 374/374/736 385/385/736 375/375/736
f 375/375/737 385/385/737 386/386/737
f 375/375/737 386/386/737 376/376/737
f 376/376/738 386/386/738 387/387/738
f 376/376/738 387/387/738 377/377/738
f 377/377/377 387/387/387 388/388/388
f 377/377/377 388/388/388 378/378/378
f 378/378/378 388/388/388 389/389/389
f 378/378/378 389/389/389 379/379/379
f 379/379/379 389/389/389 390/390/390
f 379/379/379 390/390/390 380/380/380
f 381/381/739 391/391/739 392/392/739
f 381/381/739 392/392/739 382/382/739
f 382/382/740 392/392/740 393/393/740
f 382/382/740 393/393/740 383/383/740
f 383/383/741 393/393/741 394/394/741
f 383/383/741 394/394/741 384/384/741
f 384/384/742 394/394/742 395/395/742
f 384/384/742 395/395/742 385/385/742
f 385/385/743 395/395/743 396/396/743
f 385/385/743 396/396/743 386/386/743
f 386/386/744 396/396/744 397/397/744
f 386/386/744 397/397/744 387/387/744
f 387/387/387 397/397/397 398/398/398
f 387/387/387 398/398/398 388/388/388
f 388/388/388 398/398/398 399/399/399
f 388/388/388 399/399/399 389/389/389
f 389/389/389 399/399/399 400/400/400
f 389/389/389 400/400/400 390/390/390
f 391/391/745 401/401/745 402/402/745
f 391/391/745 402/402/745 392/392/745
f 392/392/746 402/402/746 403/403/746
f 392/392/746 403/403/746 393/393/746
f 393/393/747 403/403/747 404/404/747
f 393/393/747 404/404/747 394/394/747
f 394/394/748 404/404/748 405/405/748
f 394/394/748 405/405/748 395/395/748
f 395/395/749 405/405/749 406/406/749
f 395/395/749 406/406/749 396/396/749
f 396/396/750 406/406/750 407/407/750
f 396/396/750 407/407/750 397/397/750
f 397/397/397 407/407/407 408/408/408
f 397/397/397 408/408/408 398/398/398
f 398/398/398 408/408/408 409/409/409
f 398/398/398 409/409/409 399/399/399
f 399/399/399 409/409/409 410/410/410
f 399/399/399 410/410/410 400/400/400
f 401/401/751 411/411/751 412/412/751
f 401/401/751 412/412/751 402/402/751
f 402/402/752 412/412/752 413/413/752
f 402/402/752 413/413/752 403/403/752
f 403/403/753 413/413/753 414/414/753
f 403/403/753 414/414/753 404/404/753
f 404/404/754 414/414/754 415/415/754
f 404/404/754 415/415/754 405/405/754
f 405/405/755 415/415/755 416/416/755
f 405/405/755 416/416/755 406/406/755
f 406/406/756 416/416/756 417/417/756
f 406/406/756 417/417/756 407/407/756
f 407/407/407 417/417/417 418/418/418
f 407/407/407 418/418/418 408/408/408
f 408/408/408 418/418/418 419/419/419
f 408/408/408 419/419/419 409/409/409
f 409/409/409 419/419/419 420/420/420
f 409/409/409 420/420/420 410/410/410
f 411/411/757 421/421/757 422/422/757
f 411/411/757 422/422/757 412/412/757
f 412/412/758 422/422/758 423/423/758
f 412/412/758 423/423/758 413/413/758
f 413/413/759 423/423/759 424/424/759
f 413/413/759 424/424/759 414/414/759
f 414/414/760 424/424/760 425/425/760
f 414/414/760 425/425/760 415/415/760
f 415/415/761 425/425/761 426/426/761
f 415/415/761 426/426/761 416/416/761
f 416/416/762 426/426/762 427/427/762
f 416/416/762 427/427/762 417/417/762
f 417/417/417 427/427/427 428/428/428
f 417/417/417 428/428/428 418/418/418
f 418/418/418 428/428/428 429/429/429
f 418/418/418 429/429/429 419/419/419
f 419/419/419 429/429/429 430/430/430
f 419/419/419 430/430/430 420/420/420
f 421/421/763 431/431/763 432/432/763
f 421/421/763 432/432/763 422/422/763
f 422/422/764 432/432/764 433/433/764
f 422/422/764 433/433/764 423/423/764
f 423/423/765 433/433/765 434/434/765
f 423/423/765 434/434/765 424/424/765
f 424/424/766 434/434/766 435/435/766
f 424/424/766 435/435/766 425/425/766
f 425/425/767 435/435/767 436/436/767
f 425/425/767 436/436/767 426/426/767
f 426/426/768 436/436/768 437/437/768
f 426/426/768 437/437/768 427/427/768
f 427/427/427 437/437/437 438/438/438
f 427/427/427 438/438/438 428/428/428
f 428/428/428 438/438/438 439/439/439
f 428/428/428 439/439/439 429/429/429
f 429/429/429 439/439/439 440/440/440
f 429/429/429 440/440/440 430/430/430
f 431/431/769 441/441/769 442/442/769
f 431/431/769 442/442/769 432/432/769
f 432/432/770 442/442/770 443/443/770
f 432/432/770 443/443/770 433/433/770
f 433/433/771 443/443/771 444/444/771
f 433/433/771 444/444/771 434/434/771
f 434/434/772 444/444/772 445/445/772
f 434/434/772 445/445/772 435/435/772
f 435/435/773 445/445/773 446/446/773
f 435/435/773 446/446/773 436/436/773
f 436/436/774 446/446/774 447/447/774
f 436/436/774 447/447/774 437/437/774
f 437/437/437 447/447/447 448/448/448
f 437/437/437 448/448/448 438/438/438
f 438/438/438 448/448/448 449/449/449
f 438/438/438 449/449/449 439/439/439
f 439/439/439 449/449/449 450/450/450
f 439/439/439 450/450/450 440/440/440
f 441/441/775 451/451/775 452/452/775
f 441/441/775 452/452/775 442/442/775
f 442/442/776 452/452/776 453/453/776
f 442/442/776 453/453/776 443/443/776
f 443/443/777 453/453/777 454/454/777
f 443/443/777 454/454/777 444/444/777
f 444/444/778 454/454/778 455/455/778
f 444/444/778 455/455/778 445/445/778
f 445/445/779 455/455/779 456/456/779
f 445/445/779 456/456/779 446/446/779
f 446/446/780 456/456/780 457/457/780
f 446/446/780 457/457/780 447/447/780
f 447/447/447 457/457/457 458/458/458
f 447/447/447 458/458/458 448/448/448
f 448/448/448 458/458/458 459/459/459
f 448/448/448 459/459/459 449/449/449
f 449/449/449 459/459/459 460/460/460
f 449/449/449 460/460/460 450/450/450
f 451/451/781 461/461/781 462/462/781
f 451/451/781 462/462/781 452/452/781
f 452/452/782 462/462/782 463/463/782
f 452/452/782 463/463/782 453/453/782
f 453/453/783 463/463/783 464/464/783
f 453/453/783 464/464/783 454/454/783
f 454/454/784 464/464/784 465/465/784
f 454/454/784 465/465/784 455/455/784
f 455/455/785 465/465/785 466/466/785
f 455/455/785 466/466/785 456/456/785
f 456/456/786 466/466/786 467/467/786
f 456/456/786 467/467/786 457/457/786
f 457/457/457 467/467/467 468/468/468
f 457/457/457 468/468/468 458/458/458
f 458/458/458 468/468/468 469/469/469
f 458/458/458 469/469/469 459/459/459
f 459/459/459 469/469/469 470/470/470
f 459/459/459 470/470/470 460/460/460
f 461/461/787 471/471/787 472/472/787
f 461/461/787 472/472/787 462/462/787
f 462/462/788 472/472/788 473/473/788
f 462/462/788 473/473/788 463/463/788
f 463/463/789 473/473/789 474/474/789
f 463/463/789 474/474/789 464/464/789
f 464/464/790 474/474/790 475/475/790
f 464/464/790 475/475/790 465/465/790
f 465/465/791 475/475/791 476/476/791
f 465/465/791 476/476/791 466/466/791
f 466/466/792 476/476/792 477/477/792
f 466/466/792 477/477/792 467/467/792
f 467/467/467 477/477/477 478/478/478
f 467/467/467 478/478/478 468/468/468
f 468/468/468 478/478/478 479/479/479
f 468/468/468 479/479/479 469/469/469
f 469/469/469 479/479/479 480/480/480
f 469/469/469 480/480/480 470/470/470
f 471/471/793 481/481/793 482/482/793
f 471/471/793 482/482/793 472/472/793
f 472/472/794 482/482/794 483/483/794
f 472/472/794 483/483/794 473/473/794
f 473/473/795 483/483/795 484/484/795
f 473/473/795 484/484/795 474/474/795
f 474/474/796 484/484/796 485/485/796
f 474/474/796 485/485/796 475/475/796
f 475/475/797 485/485/797 486/486/797
f 475/475/797 486/486/797 476/476/797
f 476/476/798 486/486/798 487/487/798
f 476/476/798 487/487/798 477/477/798
f 477/477/477 487/487/487 488/488/488
f 477/477/477 488/488/488 478/478/478
f 478/478/478 488/488/488 489/489/489
f 478/478/478 489/489/489 479/479/479
f 479/479/479 489/489/489 490/490/490
f 479/479/479 490/490/490 480/480/480
f 481/481/799 491/491/799 492/492/799
f 481/481/799 492/492/799 482/482/799
f 482/482/800 492/492/800 493/493/800
f 482/482/800 493/493/800 483/483/800
f 483/483/801 493/493/801 494/494/801
f 483/483/801 494/494/801 484/484/801
f 484/484/802 494/494/802 495/495/802
f 484/484/802 495/495/802 485/485/802
f 485/485/803 495/495/803 496/496/803
f 485/485/803 496/496/803 486/486/803
f 486/486/804 496/496/804 497/497/804
f 486/486/804 497/497/804 487/487/804
f 487/487/487 497/497/497 498/498/498
f 487/487/487 498/498/498 488/488/488
f 488/488/488 498/498/498 499/499/499
f 488/488/488 499/499/499 489/489/489
f 489/489/489 499/499/499 500/500/500
f 489/489/489 500/500/500 490/490/490
f 491/491/805 501/501/805 502/502/805
f 491/491/805 502/502/805 492/492/805
f 492/492/806 502/502/806 503/503/806
f 492/492/806 503/503/806 493/493/806
f 493/493/807 503/503/807 504/504/807
f 493/493/807 504/504/807 494/494/807
f 494/494/808 504/504/808 505/505/808
f 494/494/808 505/505/808 495/495/808
f 495/495/809 505/505/809 506/506/809
f 495/495/809 506/506/809 496/496/809
f 496/496/810 506/506/810 507/507/810
f 496/496/810 507/507/810 497/497/810
f 497/497/497 507/507/507 508/508/508
f 497/497/497 508/508/508 498/498/498
f 498/498/498 508/508/508 509/509/509
f 498/498/498 509/509/509 499/499/499
f 499/499/499 509/509/509 510/510/510
f 499/499/499 510/510/510 500/500/500
