# Generated outdoor terrain edge; cosmetic only.
s 1
v -231.752951 0.048424 -140.409395
v -231.754584 0.048424 -140.406689
v -231.756625 0.048216 -140.403307
v -231.759347 0.047459 -140.398797
v -231.762068 0.046456 -140.394287
v -231.764789 0.045535 -140.389778
v -231.768191 0.045 -140.384141
v -223.068537 0.556845 -135.716942
v -223.318532 0.556845 -135.315968
v -223.631025 0.52575 -134.814751
v -224.047683 0.412633 -134.146461
v -224.46434 0.262662 -133.478171
v -224.880998 0.124976 -132.809882
v -225.40182 0.045 -131.97452
v -214.439323 0.931463 -130.913542
v -214.88248 0.931463 -130.225247
v -215.436425 0.87761 -129.364878
v -216.175019 0.681702 -128.217719
v -216.913613 0.421968 -127.070561
v -217.652207 0.18351 -125.923402
v -218.57545 0.045 -124.489454
v -205.88567 1.141488 -125.978288
v -206.446427 1.141488 -125.134526
v -207.147374 1.074876 -124.079823
v -208.08197 0.832552 -122.673553
v -209.016566 0.511281 -121.267283
v -209.951162 0.216326 -119.861013
v -211.119407 0.045 -118.103175
v -197.332561 1.341236 -121.032282
v -198.010375 1.341236 -120.043804
v -198.857643 1.262489 -118.808207
v -199.987333 0.976021 -117.160744
v -201.117023 0.596224 -115.513281
v -202.246713 0.247537 -113.865818
v -203.658825 0.045 -111.806489
v -188.849544 1.401232 -115.977903
v -189.574323 1.401232 -114.953083
v -190.480297 1.318841 -113.672058
v -191.688262 1.019114 -111.964025
v -192.896228 0.621738 -110.255991
v -194.104193 0.256911 -108.547957
v -195.61415 0.045 -106.412916
v -180.408009 1.382712 -110.863907
v -181.138271 1.382712 -109.862362
v -182.051097 1.301446 -108.610431
v -183.2682 1.005811 -106.94119
v -184.485303 0.613862 -105.271949
v -185.702405 0.254017 -103.602708
v -187.223783 0.045 -101.516157
v -171.975643 1.348507 -105.738533
v -172.702218 1.348507 -104.771641
v -173.610438 1.269319 -103.563026
v -174.821396 0.981244 -101.951539
v -176.032355 0.599316 -100.340053
v -177.243314 0.248673 -98.728567
v -178.757013 0.045 -96.714208
v -163.513203 1.368548 -100.653495
v -164.266166 1.368548 -99.68092
v -165.20737 1.288142 -98.465201
v -166.462308 0.995638 -96.844242
v -167.717247 0.607839 -95.223284
v -168.972186 0.251804 -93.602326
v -170.540859 0.045 -91.576128
v -155.132153 1.247562 -95.465527
v -155.830114 1.247562 -94.590198
v -156.702564 1.174506 -93.496038
v -157.865831 0.90874 -92.037157
v -159.029099 0.556389 -90.578277
v -160.192366 0.2329 -89.119396
v -161.64645 0.045 -87.295795
v -146.739387 1.151072 -90.296898
v -147.394062 1.151072 -89.499477
v -148.212405 1.083878 -88.502701
v -149.30353 0.839436 -87.173665
v -150.394655 0.515357 -85.84463
v -151.48578 0.217824 -84.515594
v -152.849686 0.045 -82.8543
v -138.305274 1.126783 -85.181161
v -138.958009 1.126783 -84.408756
v -139.773929 1.061065 -83.44325
v -140.861821 0.821991 -82.155909
v -141.949713 0.505028 -80.868569
v -143.037606 0.214029 -79.581228
v -144.397471 0.045 -77.972052
v -129.699719 1.382222 -80.263548
v -130.521957 1.382222 -79.318035
v -131.549755 1.300986 -78.136143
v -132.920152 1.00546 -76.560288
v -134.29055 0.613654 -74.984432
v -135.660947 0.253941 -73.408577
v -137.373944 0.045 -71.438758
v -121.140969 1.495 -75.28351
v -122.085905 1.495 -74.227314
v -123.267075 1.406912 -72.907069
v -124.841968 1.086463 -71.146742
v -126.416862 0.661612 -69.386415
v -127.991755 0.271562 -67.626088
v -129.960372 0.045 -65.42568
v -112.667617 1.495 -70.204009
v -113.649853 1.495 -69.136592
v -114.877647 1.406912 -67.802322
v -116.514707 1.086463 -66.023295
v -118.151767 0.661612 -64.244268
v -119.788827 0.271562 -62.46524
v -121.835151 0.045 -60.241456
v -104.387913 1.316815 -64.918666
v -105.2138 1.316815 -64.045871
v -106.246159 1.239552 -62.954878
v -107.622637 0.958481 -61.500219
v -108.999115 0.585839 -60.045561
v -110.375594 0.243721 -58.590903
v -112.096191 0.045 -56.77258
v -95.935072 1.320094 -59.821348
v -96.777748 1.320094 -58.95515
v -97.831093 1.242632 -57.872402
v -99.235552 0.960836 -56.428738
v -100.640012 0.587234 -54.985074
v -102.044471 0.244233 -53.54141
v -103.800045 0.045 -51.73683
v -87.437316 1.390061 -54.768826
v -88.341696 1.390061 -53.864429
v -89.47217 1.308349 -52.733933
v -90.979469 1.01109 -51.226604
v -92.486769 0.616987 -49.719276
v -93.994068 0.255166 -48.211948
v -95.878192 0.045 -46.327787
v -78.915335 1.493099 -49.737339
v -79.905643 1.493099 -48.773708
v -81.143529 1.405127 -47.569168
v -82.794043 1.085097 -45.963116
v -84.444556 0.660804 -44.357063
v -86.09507 0.271266 -42.75101
v -88.158212 0.045 -40.743445
v -70.569499 1.339418 -44.535371
v -71.469591 1.339418 -43.682987
v -72.594707 1.260782 -42.617506
v -74.094861 0.974716 -41.196866
v -75.595014 0.595451 -39.776225
v -77.095168 0.247253 -38.355584
v -78.970361 0.045 -36.579784
v -62.041941 1.447817 -39.506299
v -63.033539 1.447817 -38.592265
v -64.273036 1.362596 -37.449723
v -65.925698 1.052573 -35.926334
v -67.578361 0.641548 -34.402945
v -69.231023 0.26419 -32.879556
v -71.296851 0.045 -30.975319
v -53.41338 1.495 -34.564124
v -54.597487 1.495 -33.501544
v -56.07762 1.406912 -32.17332
v -58.051131 1.086463 -30.402354
v -60.024641 0.661612 -28.631388
v -61.998152 0.271562 -26.860422
v -64.465041 0.045 -24.646715
v -44.940031 1.495 -29.477996
v -46.161434 1.495 -28.410823
v -47.688189 1.406912 -27.076857
v -49.723861 1.086463 -25.298236
v -51.759533 0.661612 -23.519615
v -53.795205 0.271562 -21.740994
v -56.339796 0.045 -19.517717
v -36.6222 1.495 -24.25871
v -37.725382 1.495 -23.320102
v -39.10436 1.406912 -22.146842
v -40.942998 1.086463 -20.582495
v -42.781636 0.661612 -19.018148
v -44.620274 0.271562 -17.453801
v -46.918571 0.045 -15.498368
v -28.344836 1.299558 -19.011997
v -29.28933 1.299558 -18.229381
v -30.469947 1.223344 -17.25111
v -32.044103 0.946086 -15.946749
v -33.618259 0.578501 -14.642388
v -35.192415 0.241025 -13.338026
v -37.160109 0.045 -11.707575
v -19.89627 1.297059 -13.911031
v -20.853278 1.297059 -13.138659
v -22.049537 1.220997 -12.173195
v -23.64455 0.944292 -10.885909
v -25.239562 0.577438 -9.598623
v -26.834575 0.240634 -8.311338
v -28.828341 0.045 -6.70223
v -11.304897 1.478701 -8.922414
v -12.417225 1.478701 -8.047938
v -13.807636 1.391604 -6.954843
v -15.661516 1.074756 -5.497383
v -17.515396 0.654681 -4.039923
v -19.369277 0.269016 -2.582463
v -21.686627 0.045 -0.760638
v -2.632823 1.495 -3.989885
v -3.981173 1.495 -2.957217
v -5.66661 1.406912 -1.666382
v -7.91386 1.086463 0.054732
v -10.16111 0.661612 1.775846
v -12.408359 0.271562 3.49696
v -15.217421 0.045 5.648353
v 5.72813 1.495 1.183445
v 4.454879 1.495 2.133504
v 2.863316 1.406912 3.321078
v 0.741232 1.086463 4.90451
v -1.380853 0.661612 6.487941
v -3.502937 0.271562 8.071373
v -6.155542 0.045 10.050663
v 14.255956 1.495 6.231826
v 12.890931 1.495 7.224225
v 11.184651 1.406912 8.464725
v 8.909611 1.086463 10.118724
v 6.634571 0.661612 11.772724
v 4.35953 0.271562 13.426723
v 1.51573 0.045 15.494222
v 22.783168 1.495 11.283375
v 21.326984 1.495 12.314947
v 19.506753 1.406912 13.604411
v 17.07978 1.086463 15.323697
v 14.652806 0.661612 17.042982
v 12.225833 0.271562 18.762268
v 9.192116 0.045 20.911375
v 31.112721 1.495 16.473969
v 29.763036 1.495 17.405668
v 28.075929 1.406912 18.570291
v 25.826454 1.086463 20.123123
v 23.576978 0.661612 21.675955
v 21.327502 0.271562 23.228786
v 18.515658 0.045 25.169826
v 39.51722 1.495 21.609679
v 38.199088 1.495 22.496389
v 36.551423 1.406912 23.604776
v 34.354537 1.086463 25.082626
v 32.157651 0.661612 26.560475
v 29.960764 0.271562 28.038325
v 27.214656 0.045 29.885637
v 47.776308 1.377638 26.838997
v 46.63514 1.377638 27.58711
v 45.20868 1.29668 28.522252
v 43.306734 1.002167 29.769108
v 41.404787 0.611704 31.015964
v 39.50284 0.253225 32.26282
v 37.125407 0.045 33.82139
v 56.423811 1.495 31.813659
v 55.071193 1.495 32.677831
v 53.380419 1.406912 33.758047
v 51.126055 1.086463 35.198335
v 48.87169 0.661612 36.638623
v 46.617326 0.271562 38.078911
v 43.79937 0.045 39.879271
v 65.084239 1.495 36.786645
v 63.507245 1.495 37.768553
v 61.536003 1.406912 38.995937
v 58.907679 1.086463 40.63245
v 56.279356 0.661612 42.268962
v 53.651033 0.271562 43.905475
v 50.365629 0.045 45.951116
v 73.681085 1.495 41.804748
v 71.943297 1.495 42.859274
v 69.771063 1.406912 44.177431
v 66.874751 1.086463 45.934974
v 63.978438 0.661612 47.692517
v 61.082126 0.271562 49.45006
v 57.461736 0.045 51.646989
v 82.03336 1.495 46.971813
v 80.379349 1.495 47.949995
v 78.311837 1.406912 49.172722
v 75.555153 1.086463 50.803025
v 72.798469 0.661612 52.433328
v 70.041786 0.271562 54.06363
v 66.595931 0.045 56.101509
v 90.283551 1.495 52.194523
v 88.815402 1.495 53.040716
v 86.980215 1.406912 54.098457
v 84.5333 1.086463 55.508779
v 82.086385 0.661612 56.9191
v 79.639469 0.271562 58.329422
v 76.580825 0.045 60.092324
v 98.631878 1.495 57.356043
v 97.251454 1.495 58.131437
v 95.525924 1.406912 59.100681
v 93.225218 1.086463 60.393005
v 90.924512 0.661612 61.68533
v 88.623805 0.271562 62.977655
v 85.747922 0.045 64.593061
v 107.114092 1.495 62.441234
v 105.687506 1.495 63.222158
v 103.904274 1.406912 64.198315
v 101.526631 1.086463 65.499856
v 99.148988 0.661612 66.801398
v 96.771345 0.271562 68.102939
v 93.799291 0.045 69.729866
v 115.624391 1.495 67.512253
v 114.123558 1.495 68.31288
v 112.247518 1.406912 69.313664
v 109.746131 1.086463 70.648042
v 107.244745 0.661612 71.982421
v 104.743358 0.271562 73.316799
v 101.616624 0.045 74.984773
v 124.058166 1.495 72.624596
v 122.559611 1.495 73.403601
v 120.686416 1.406912 74.377357
v 118.188824 1.086463 75.675698
v 115.691231 0.661612 76.974039
v 113.193638 0.271562 78.27238
v 110.071647 0.045 79.895306
v 132.61906 1.495 77.672005
v 130.995663 1.495 78.494322
v 128.966416 1.406912 79.522218
v 126.260754 1.086463 80.892747
v 123.555092 0.661612 82.263275
v 120.84943 0.271562 83.633804
v 117.467352 0.045 85.346965
v 141.306906 1.495 82.659532
v 139.431715 1.495 83.585043
v 137.087727 1.406912 84.741932
v 133.962409 1.086463 86.284451
v 130.837092 0.661612 87.82697
v 127.711774 0.271562 89.369489
v 123.805127 0.045 91.297637
v 149.720226 1.495 87.78497
v 147.867768 1.495 88.675764
v 145.552194 1.406912 89.789257
v 142.464762 1.086463 91.273913
v 139.377331 0.661612 92.75857
v 136.2899 0.271562 94.243227
v 132.43061 0.045 96.099047
v 157.935585 1.495 93.002042
v 156.30382 1.495 93.766486
v 154.264113 1.406912 94.72204
v 151.544503 1.086463 95.996113
v 148.824894 0.661612 97.270186
v 146.105284 0.271562 98.544259
v 142.705772 0.045 100.136849
v 166.034324 1.317463 98.266468
v 164.739872 1.317463 98.857207
v 163.121807 1.240161 99.59563
v 160.964387 0.958946 100.580194
v 158.806967 0.586115 101.564758
v 156.649546 0.243822 102.549322
v 153.952771 0.045 103.780028
v 174.528932 1.36016 103.346492
v 173.175924 1.36016 103.947928
v 171.484665 1.280264 104.699723
v 169.229653 0.989614 105.702117
v 166.97464 0.604272 106.70451
v 164.719628 0.250494 107.706904
v 161.900862 0.045 108.959896
v 183.147137 1.495 108.374023
v 181.611977 1.495 109.038649
v 179.693025 1.406912 109.869432
v 177.134424 1.086463 110.977143
v 174.575822 0.661612 112.084854
v 172.017221 0.271562 113.192564
v 168.818969 0.045 114.577203
v 191.697598 1.495 113.4339
v 190.048029 1.495 114.12937
v 187.986067 1.406912 114.998708
v 185.236785 1.086463 116.157825
v 182.487503 0.661612 117.316942
v 179.738221 0.271562 118.476059
v 176.301618 0.045 119.924956
v 200.057383 1.495 118.574214
v 198.484081 1.495 119.220092
v 196.517453 1.406912 120.027438
v 193.895282 1.086463 121.103901
v 191.273112 0.661612 122.180363
v 188.650941 0.271562 123.256825
v 185.373228 0.045 124.602403
v 208.659624 1.495 123.615579
v 206.920133 1.495 124.310813
v 204.74577 1.406912 125.179855
v 201.846618 1.086463 126.338578
v 198.947467 0.661612 127.497302
v 196.048316 0.271562 128.656025
v 192.424376 0.045 130.104429
v 216.980211 1.495 128.769691
v 215.356186 1.495 129.401534
v 213.326154 1.406912 130.191337
v 210.619445 1.086463 131.244408
v 207.912737 0.661612 132.297479
v 205.206028 0.271562 133.35055
v 201.822642 0.045 134.666889
v 225.476857 1.495 133.854349
v 223.792238 1.495 134.492255
v 221.686463 1.406912 135.289638
v 218.878764 1.086463 136.352815
v 216.071065 0.661612 137.415992
v 213.263366 0.271562 138.47917
v 209.753742 0.045 139.808141
v 233.686306 1.359408 139.045718
v 232.22829 1.359408 139.582976
v 230.40577 1.279558 140.254549
v 227.975743 0.989074 141.149979
v 225.545716 0.603952 142.045409
v 223.115689 0.250376 142.94084
v 220.078155 0.045 144.060127
vt 140.74982369 -10.62529217
vt 140.74979818 -10.62533445
vt 140.74976629 -10.6253873
vt 140.74972377 -10.62545776
vt 140.74968124 -10.62552822
vt 140.74963872 -10.62559869
vt 140.74958557 -10.62568677
vt 140.88551766 -10.69861175
vt 140.88161149 -10.70487697
vt 140.87672879 -10.71270849
vt 140.87021851 -10.72315051
vt 140.86370824 -10.73359254
vt 140.85719797 -10.74403456
vt 140.84906012 -10.7570871
vt 141.02034913 -10.77366487
vt 141.01342481 -10.78441949
vt 141.00476941 -10.79786275
vt 140.99322888 -10.8157871
vt 140.98168835 -10.83371145
vt 140.97014782 -10.8516358
vt 140.95572215 -10.87404124
vt 141.15399996 -10.85077822
vt 141.14523813 -10.863962
vt 141.13428583 -10.88044173
vt 141.11968277 -10.9024147
vt 141.10507971 -10.92438767
vt 141.09047665 -10.94636064
vt 141.07222283 -10.97382685
vt 141.28764229 -10.92805956
vt 141.27705144 -10.94350452
vt 141.26381289 -10.96281073
vt 141.24616148 -10.98855234
vt 141.22851008 -11.01429395
vt 141.21085867 -11.04003556
vt 141.18879441 -11.07221257
vt 141.42018944 -11.00703423
vt 141.40886476 -11.02304704
vt 141.39470892 -11.04306306
vt 141.37583446 -11.06975108
vt 141.35696 -11.09643911
vt 141.33808554 -11.12312713
vt 141.31449247 -11.15648716
vt 141.55208841 -11.08694042
vt 141.54067808 -11.10258956
vt 141.52641516 -11.12215098
vt 141.50739793 -11.14823287
vt 141.4883807 -11.17431476
vt 141.46936347 -11.20039665
vt 141.44559194 -11.23299902
vt 141.68384413 -11.16702439
vt 141.67249139 -11.18213208
vt 141.65830047 -11.20101669
vt 141.63937924 -11.22619616
vt 141.620458 -11.25137564
vt 141.60153677 -11.27655511
vt 141.57788523 -11.30802946
vt 141.81606976 -11.24647811
vt 141.80430471 -11.2616746
vt 141.7895984 -11.2806702
vt 141.76998998 -11.30599768
vt 141.75038157 -11.33132515
vt 141.73077316 -11.35665263
vt 141.70626264 -11.38831197
vt 141.94702366 -11.32754011
vt 141.93611803 -11.34121712
vt 141.92248599 -11.35831337
vt 141.90430994 -11.38110838
vt 141.88613389 -11.40390339
vt 141.86795784 -11.4266984
vt 141.84523778 -11.45519216
vt 142.07816064 -11.40829993
vt 142.06793134 -11.42075963
vt 142.05514472 -11.43633427
vt 142.0380959 -11.45710045
vt 142.02104707 -11.47786662
vt 142.00399825 -11.4986328
vt 141.98268722 -11.52459053
vt 142.20994365 -11.48823333
vt 142.19974466 -11.50030215
vt 142.18699592 -11.51538818
vt 142.1699976 -11.53550288
vt 142.15299928 -11.55561758
vt 142.13600097 -11.57573228
vt 142.11475307 -11.60087566
vt 142.34440545 -11.56507103
vt 142.33155798 -11.57984467
vt 142.31549863 -11.59831173
vt 142.29408617 -11.62293447
vt 142.27267371 -11.64755721
vt 142.25126126 -11.67217995
vt 142.22449568 -11.70295838
vt 142.47813592 -11.64288413
vt 142.46337129 -11.65938719
vt 142.44491551 -11.68001602
vt 142.4203078 -11.70752113
vt 142.39570009 -11.73502623
vt 142.37109238 -11.76253134
vt 142.34033274 -11.79691272
vt 142.61053204 -11.72225133
vt 142.59518461 -11.73892971
vt 142.57600032 -11.75977768
vt 142.55042126 -11.78757498
vt 142.5248422 -11.81537228
vt 142.49926314 -11.84316958
vt 142.46728931 -11.87791621
vt 142.73990241 -11.80483481
vt 142.72699793 -11.81847223
vt 142.71086732 -11.835519
vt 142.68935985 -11.85824804
vt 142.66785238 -11.88097707
vt 142.6463449 -11.9037061
vt 142.61946056 -11.9321174
vt 142.87197805 -11.8844804
vt 142.85881124 -11.89801475
vt 142.84235273 -11.91493268
vt 142.82040805 -11.93748993
vt 142.79846337 -11.96004718
vt 142.77651869 -11.98260443
vt 142.74908785 -12.010801
vt 143.00475549 -11.96342606
vt 142.99062456 -11.97755726
vt 142.9729609 -11.99522127
vt 142.94940935 -12.01877327
vt 142.92585779 -12.04232528
vt 142.90230624 -12.06587728
vt 142.87286681 -12.09531729
vt 143.13791144 -12.04204304
vt 143.12243788 -12.05709978
vt 143.10309592 -12.07592071
vt 143.07730664 -12.10101528
vt 143.05151736 -12.12610986
vt 143.02572808 -12.15120443
vt 142.99349148 -12.18257264
vt 143.26831514 -12.1233238
vt 143.25425119 -12.1366423
vt 143.23667126 -12.15329043
vt 143.21323136 -12.17548794
vt 143.18979145 -12.19768545
vt 143.16635155 -12.21988296
vt 143.13705167 -12.24762985
vt 143.40155822 -12.20190305
vt 143.38606451 -12.21618482
vt 143.36669737 -12.23403704
vt 143.34087452 -12.25783999
vt 143.31505167 -12.28164295
vt 143.28922882 -12.30544591
vt 143.25695025 -12.3351996
vt 143.53637949 -12.27912453
vt 143.51787783 -12.29572734
vt 143.49475075 -12.31648084
vt 143.46391464 -12.34415219
vt 143.43307853 -12.37182353
vt 143.40224243 -12.39949487
vt 143.36369729 -12.43408404
vt 143.66877557 -12.35859528
vt 143.64969114 -12.37526986
vt 143.62583561 -12.39611307
vt 143.59402823 -12.42390403
vt 143.56222085 -12.45169498
vt 143.53041347 -12.47948594
vt 143.49065425 -12.51422463
vt 143.79874169 -12.44014662
vt 143.78150446 -12.45481238
vt 143.75995792 -12.47314457
vt 143.73122921 -12.49758748
vt 143.70250049 -12.5220304
vt 143.67377178 -12.54647332
vt 143.63786089 -12.57702697
vt 143.92807549 -12.52212651
vt 143.91331777 -12.53435489
vt 143.89487064 -12.54964038
vt 143.87027445 -12.57002102
vt 143.84567826 -12.59040166
vt 143.82108208 -12.6107823
vt 143.79033684 -12.6362581
vt 144.06008433 -12.60182911
vt 144.04513109 -12.61389741
vt 144.02643954 -12.62898279
vt 144.00151747 -12.64909664
vt 143.97659539 -12.66921048
vt 143.95167332 -12.68932432
vt 143.92052073 -12.71446662
vt 144.19432454 -12.67977624
vt 144.17694441 -12.69343993
vt 144.15521925 -12.71051954
vt 144.12625237 -12.73329236
vt 144.09728549 -12.75606517
vt 144.06831861 -12.77883798
vt 144.03211001 -12.807304
vt 144.32982569 -12.75684701
vt 144.30875772 -12.77298245
vt 144.28242277 -12.79315175
vt 144.24730949 -12.82004416
vt 144.21219622 -12.84693656
vt 144.17708294 -12.87382897
vt 144.13319134 -12.90744447
vt 144.46046558 -12.8376803
vt 144.44057104 -12.85252497
vt 144.41570287 -12.87108081
vt 144.3825453 -12.89582193
vt 144.34938773 -12.92056305
vt 144.31623017 -12.94530417
vt 144.27478321 -12.97623057
vt 144.59371286 -12.91656124
vt 144.57238436 -12.93206749
vt 144.54572373 -12.95145029
vt 144.51017622 -12.97729403
vt 144.47462872 -13.00313778
vt 144.43908121 -13.02898152
vt 144.39464683 -13.06128619
vt 144.72695055 -12.9954917
vt 144.70419767 -13.01161001
vt 144.67575658 -13.03175789
vt 144.63783511 -13.05862173
vt 144.59991365 -13.08548557
vt 144.56199219 -13.1123494
vt 144.51459036 -13.1459292
vt 144.85709982 -13.07659473
vt 144.83601099 -13.09115253
vt 144.80964995 -13.10934977
vt 144.77450189 -13.13361276
vt 144.73935384 -13.15787576
vt 144.70420578 -13.18213875
vt 144.66027071 -13.21246749
vt 144.98842012 -13.1568402
vt 144.96782431 -13.17069504
vt 144.94207955 -13.18801359
vt 144.9077532 -13.21110499
vt 144.87342685 -13.23419639
vt 144.8391005 -13.25728779
vt 144.79619256 -13.28615204
vt 145.11746837 -13.23854829
vt 145.09963762 -13.25023756
vt 145.07734919 -13.26484916
vt 145.04763127 -13.28433128
vt 145.01791335 -13.3038134
vt 144.98819543 -13.32329553
vt 144.95104803 -13.34764818
vt 145.25258561 -13.31627738
vt 145.23145094 -13.32978008
vt 145.20503261 -13.34665845
vt 145.16980816 -13.36916295
vt 145.13458371 -13.39166745
vt 145.09935927 -13.41417195
vt 145.05532871 -13.44230257
vt 145.38790479 -13.39398029
vt 145.36326426 -13.4093226
vt 145.33246359 -13.42850048
vt 145.29139604 -13.45407099
vt 145.25032849 -13.4796415
vt 145.20926094 -13.50521201
vt 145.15792651 -13.53717515
vt 145.5222305 -13.47238815
vt 145.49507757 -13.48886512
vt 145.46113641 -13.50946133
vt 145.41588153 -13.53692293
vt 145.37062665 -13.56438454
vt 145.32537177 -13.59184615
vt 145.26880317 -13.62617316
vt 145.6527348 -13.55312355
vt 145.62689089 -13.56840764
vt 145.594586 -13.58751275
vt 145.55151282 -13.61298623
vt 145.50843964 -13.63845971
vt 145.46536645 -13.66393319
vt 145.41152498 -13.69577504
vt 145.78164404 -13.63472839
vt 145.75870421 -13.64795016
vt 145.73002942 -13.66447736
vt 145.69179637 -13.68651363
vt 145.65356332 -13.70854991
vt 145.61533027 -13.73058618
vt 145.56753895 -13.75813152
vt 145.91208664 -13.71537713
vt 145.89051752 -13.72749267
vt 145.86355612 -13.7426371
vt 145.82760758 -13.76282968
vt 145.79165905 -13.78302225
vt 145.75571051 -13.80321482
vt 145.71077484 -13.82845554
vt 146.04462124 -13.79483324
vt 146.02233084 -13.80703519
vt 145.99446783 -13.82228763
vt 145.95731716 -13.84262422
vt 145.92016649 -13.8629608
vt 145.88301582 -13.88329739
vt 145.83657747 -13.90871812
vt 146.17759466 -13.87406791
vt 146.15414416 -13.88657771
vt 146.12483103 -13.90221496
vt 146.08574686 -13.92306463
vt 146.04666269 -13.94391429
vt 146.00757852 -13.96476396
vt 145.95872331 -13.99082604
vt 146.3093724 -13.95394828
vt 146.28595747 -13.96612023
vt 146.25668881 -13.98133516
vt 146.21766392 -14.00162174
vt 146.17863904 -14.02190832
vt 146.13961415 -14.0421949
vt 146.09083305 -14.06755312
vt 146.44313637 -14.03281404
vt 146.41777079 -14.04566275
vt 146.38606381 -14.06172363
vt 146.34378784 -14.08313814
vt 146.30151187 -14.10455265
vt 146.25923589 -14.12596715
vt 146.20639093 -14.15273529
vt 146.57888396 -14.11074415
vt 146.54958411 -14.12520527
vt 146.51295929 -14.14328166
vt 146.4641262 -14.16738352
vt 146.41529311 -14.19148537
vt 146.36646002 -14.21558723
vt 146.30541866 -14.24571455
vt 146.71034209 -14.19082913
vt 146.68139742 -14.20474779
vt 146.64521658 -14.22214611
vt 146.59697547 -14.24534386
vt 146.54873435 -14.26854162
vt 146.50049323 -14.29173938
vt 146.44019184 -14.32073658
vt 146.83870708 -14.27234587
vt 146.81321074 -14.2842903
vt 146.78134032 -14.29922084
vt 146.73884642 -14.31912823
vt 146.69635252 -14.33903562
vt 146.65385862 -14.35894301
vt 146.60074125 -14.38382724
vt 146.96524987 -14.35460253
vt 146.94502406 -14.36383282
vt 146.91974179 -14.37537068
vt 146.8860321 -14.3907545
vt 146.85232241 -14.40613831
vt 146.81861272 -14.42152213
vt 146.7764756 -14.4407519
vt 147.09797811 -14.4339779
vt 147.07683737 -14.44337534
vt 147.05041145 -14.45512214
vt 147.01517688 -14.47078454
vt 146.97994231 -14.48644694
vt 146.94470774 -14.50210934
vt 146.90066453 -14.52168734
vt 147.23263758 -14.51253307
vt 147.20865069 -14.52291786
vt 147.17866708 -14.53589884
vt 147.13868893 -14.55320682
vt 147.09871078 -14.5705148
vt 147.05873263 -14.58782278
vt 147.00875994 -14.60945776
vt 147.36623853 -14.59159366
vt 147.34046401 -14.60246038
vt 147.30824585 -14.61604378
vt 147.26528832 -14.63415499
vt 147.22233079 -14.65226619
vt 147.17937325 -14.6703774
vt 147.12567634 -14.6930164
vt 147.49686017 -14.67191106
vt 147.47227732 -14.6820029
vt 147.44154876 -14.69461769
vt 147.40057734 -14.71143741
vt 147.35960593 -14.72825714
vt 147.31863451 -14.74507686
vt 147.26742024 -14.76610152
vt 147.63127018 -14.75068239
vt 147.60409064 -14.76154542
vt 147.57011621 -14.7751242
vt 147.52481697 -14.79322925
vt 147.47951773 -14.8113343
vt 147.43421848 -14.82943936
vt 147.37759443 -14.85207067
vt 147.76127935 -14.83121539
vt 147.73590395 -14.84108793
vt 147.70418471 -14.85342861
vt 147.66189239 -14.86988285
vt 147.61960006 -14.88633708
vt 147.57730774 -14.90279132
vt 147.52444234 -14.92335911
vt 147.89403945 -14.91066317
vt 147.86771727 -14.92063045
vt 147.83481455 -14.93308956
vt 147.79094425 -14.9497017
vt 147.74707395 -14.96631385
vt 147.70320365 -14.98292599
vt 147.64836577 -15.00369117
vt 148.02231209 -14.99177831
vt 147.99953059 -15.00017297
vt 147.97105371 -15.01066629
vt 147.93308454 -15.02465739
vt 147.89511537 -15.03864849
vt 147.8571462 -15.05263959
vt 147.80968473 -15.07012846
vn -0.043736 0.998671 -0.027262
vn -0.070667 0.997346 0.017498
vn -0.120945 0.988443 0.091389
vn -0.149177 0.980657 0.126719
vn -0.139098 0.983458 0.116029
vn -0.06947 0.996194 0.052649
vn -0.069487 0.996195 0.052604
vn -0.035181 0.999134 -0.022236
vn -0.055016 0.998447 0.008795
vn -0.098647 0.992245 0.075624
vn -0.130822 0.98411 0.120058
vn -0.134052 0.983052 0.125056
vn -0.084839 0.993562 0.075078
vn -0.065641 0.996356 0.054466
vn -0.022187 0.99965 -0.014426
vn -0.040497 0.999107 0.012087
vn -0.081464 0.993699 0.076985
vn -0.11434 0.985524 0.125172
vn -0.120957 0.983485 0.134639
vn -0.080929 0.992929 0.086852
vn -0.058545 0.99656 0.05866
vn -0.017097 0.999788 -0.011494
vn -0.033197 0.999338 0.014882
vn -0.073438 0.99415 0.079197
vn -0.105901 0.98599 0.128871
vn -0.113088 0.983703 0.139785
vn -0.076317 0.992809 0.092231
vn -0.052871 0.99667 0.062069
vn -0.008851 0.999942 -0.006106
vn -0.026041 0.999488 0.018602
vn -0.065468 0.994408 0.082866
vn -0.097811 0.986236 0.133312
vn -0.105476 0.983805 0.14492
vn -0.071755 0.99273 0.096641
vn -0.049842 0.99671 0.063917
vn -0.00065 1 -0.000448
vn -0.016762 0.999571 0.024025
vn -0.05547 0.99456 0.088166
vn -0.0871 0.986338 0.139821
vn -0.094894 0.983756 0.152376
vn -0.064578 0.992574 0.103084
vn -0.043606 0.996724 0.068112
vn 0.00237 0.999996 0.001749
vn -0.012822 0.999567 0.026471
vn -0.051276 0.994572 0.090536
vn -0.082519 0.986311 0.142761
vn -0.090292 0.983661 0.155753
vn -0.06133 0.992468 0.106043
vn -0.040604 0.996704 0.070231
vn -0.000162 1 -0.000134
vn -0.014568 0.999573 0.025341
vn -0.053244 0.994576 0.089349
vn -0.084461 0.986332 0.141474
vn -0.092119 0.983708 0.154377
vn -0.062427 0.992513 0.104976
vn -0.040997 0.996707 0.069957
vn 0.005822 0.999973 0.004577
vn -0.010735 0.99955 0.028016
vn -0.048878 0.994542 0.092181
vn -0.080229 0.986248 0.144493
vn -0.088195 0.983561 0.157573
vn -0.060159 0.992393 0.107414
vn -0.040456 0.996697 0.070415
vn 0.00836 0.999942 0.006723
vn -0.005998 0.999493 0.031273
vn -0.043916 0.994487 0.095222
vn -0.074667 0.986098 0.148446
vn -0.082525 0.983294 0.16224
vn -0.056004 0.992162 0.111706
vn -0.036107 0.996616 0.073848
vn 0.003837 0.999988 0.003165
vn -0.010119 0.999543 0.028486
vn -0.048426 0.994542 0.092416
vn -0.079351 0.986214 0.145206
vn -0.087097 0.983487 0.158645
vn -0.05904 0.99232 0.108702
vn -0.03817 0.996652 0.072304
vn -0.013177 0.999849 -0.011322
vn -0.025391 0.999527 0.017349
vn -0.065279 0.994561 0.081167
vn -0.096695 0.986495 0.1322
vn -0.103769 0.984088 0.144231
vn -0.069646 0.992864 0.096798
vn -0.045219 0.996763 0.066477
vn -0.012267 0.999867 -0.010746
vn -0.029461 0.999471 0.013789
vn -0.069374 0.994612 0.077032
vn -0.102555 0.98674 0.125801
vn -0.110692 0.984462 0.136317
vn -0.075369 0.993107 0.089769
vn -0.052954 0.996806 0.059772
vn -0.00287 0.999993 -0.002568
vn -0.018826 0.999608 0.020702
vn -0.056688 0.99501 0.082104
vn -0.088499 0.987453 0.130785
vn -0.097033 0.985139 0.141722
vn -0.06658 0.993281 0.094652
vn -0.046381 0.996967 0.062492
vn 0.008723 0.999929 0.008129
vn -0.007243 0.999529 0.029809
vn -0.042884 0.994869 0.091636
vn -0.071972 0.98717 0.142531
vn -0.079203 0.984624 0.155698
vn -0.053933 0.992834 0.106639
vn -0.036433 0.996968 0.06875
vn 0.004308 0.999982 0.004074
vn -0.008066 0.999504 0.03043
vn -0.045718 0.99453 0.093919
vn -0.07495 0.98624 0.147356
vn -0.081373 0.983431 0.161992
vn -0.054163 0.992188 0.112381
vn -0.032737 0.996614 0.075426
vn -0.003573 0.999987 -0.003524
vn -0.018067 0.999585 0.022438
vn -0.057052 0.994624 0.086422
vn -0.088481 0.986461 0.138078
vn -0.096057 0.983912 0.150632
vn -0.065047 0.992667 0.101889
vn -0.043047 0.996745 0.068168
vn -0.006787 0.999953 -0.00686
vn -0.02184 0.999581 0.019013
vn -0.061115 0.994674 0.083002
vn -0.092863 0.986617 0.134026
vn -0.100405 0.984155 0.146144
vn -0.068014 0.992843 0.098163
vn -0.045649 0.996803 0.065568
vn 0.004711 0.999977 0.004939
vn -0.012924 0.999549 0.027116
vn -0.051153 0.994494 0.091462
vn -0.082807 0.986209 0.1433
vn -0.090843 0.983568 0.156014
vn -0.062129 0.992445 0.105801
vn -0.042569 0.996733 0.068633
vn -0.001664 0.999997 -0.001836
vn -0.013668 0.999563 0.026225
vn -0.052482 0.994561 0.089972
vn -0.083253 0.986257 0.142708
vn -0.090681 0.983581 0.15603
vn -0.061069 0.992407 0.106765
vn -0.038623 0.996609 0.07265
vn -0.004742 0.999975 -0.005181
vn -0.020511 0.999614 0.018757
vn -0.06001 0.995019 0.079596
vn -0.09372 0.987448 0.127134
vn -0.103203 0.985202 0.13684
vn -0.070797 0.993374 0.090536
vn -0.048905 0.996893 0.061739
vn -0.001108 0.999999 -0.001234
vn -0.01513 0.999672 0.020681
vn -0.050406 0.995742 0.077189
vn -0.080937 0.989259 0.121719
vn -0.090205 0.987327 0.130569
vn -0.062587 0.994309 0.086208
vn -0.044747 0.997401 0.056472
vn 0 1 0
vn -0.013255 0.999663 0.022329
vn -0.04649 0.995667 0.08054
vn -0.072567 0.989038 0.1286
vn -0.078091 0.98684 0.141591
vn -0.05243 0.99392 0.096815
vn -0.034641 0.997443 0.062517
vn 0.008729 0.999908 0.010385
vn -0.007494 0.999476 0.031474
vn -0.043151 0.994613 0.094245
vn -0.070839 0.986597 0.147
vn -0.076155 0.983748 0.162605
vn -0.050518 0.992255 0.113485
vn -0.031488 0.996776 0.073804
vn 0.004579 0.999974 0.005528
vn -0.007933 0.999443 0.032412
vn -0.0459 0.994311 0.096119
vn -0.075939 0.985791 0.149833
vn -0.083125 0.982915 0.164222
vn -0.055878 0.99193 0.113809
vn -0.034643 0.99645 0.076734
vn -0.008288 0.999911 -0.010415
vn -0.021841 0.999609 0.017482
vn -0.06129 0.994809 0.081227
vn -0.092761 0.986844 0.132421
vn -0.100099 0.984403 0.144676
vn -0.067477 0.99296 0.097355
vn -0.044366 0.996818 0.06622
vn -0.004554 0.999973 -0.005806
vn -0.021243 0.999636 0.016658
vn -0.060788 0.995225 0.076372
vn -0.095143 0.987963 0.12197
vn -0.105129 0.985884 0.130307
vn -0.072354 0.993744 0.085079
vn -0.051026 0.997025 0.05777
vn -0.000368 1 -0.000481
vn -0.01371 0.999676 0.02143
vn -0.047612 0.995827 0.07786
vn -0.076432 0.989493 0.122726
vn -0.084848 0.987604 0.132058
vn -0.058734 0.99443 0.087519
vn -0.042038 0.997552 0.055877
vn 0 1 0
vn -0.013503 0.999662 0.022197
vn -0.048245 0.995708 0.078979
vn -0.076251 0.989154 0.125541
vn -0.082784 0.987029 0.137554
vn -0.055661 0.994029 0.09385
vn -0.03571 0.997343 0.063491
vn 0 1 0
vn -0.013028 0.999686 0.021423
vn -0.046988 0.996033 0.075573
vn -0.075836 0.990021 0.118772
vn -0.084109 0.988221 0.127846
vn -0.05778 0.99469 0.085168
vn -0.039672 0.997598 0.056783
vn 0 1 0
vn -0.012556 0.999699 0.021089
vn -0.044374 0.996135 0.075808
vn -0.070067 0.990218 0.120663
vn -0.07624 0.988305 0.132065
vn -0.051671 0.994645 0.08951
vn -0.034865 0.997722 0.057754
vn 0 1 0
vn -0.013382 0.999662 0.022292
vn -0.04714 0.99565 0.080368
vn -0.073224 0.988943 0.128956
vn -0.078227 0.986613 0.143093
vn -0.051917 0.993734 0.098983
vn -0.032541 0.997311 0.06567
vn 0.00473 0.999963 0.007116
vn -0.010213 0.999536 0.028712
vn -0.045236 0.994905 0.090099
vn -0.072909 0.987286 0.141246
vn -0.078895 0.984655 0.15566
vn -0.053012 0.992783 0.107568
vn -0.034389 0.996982 0.069597
vn -0.002636 0.999988 -0.004127
vn -0.015039 0.999605 0.023754
vn -0.053344 0.994934 0.085209
vn -0.083748 0.987139 0.136169
vn -0.090853 0.984612 0.149282
vn -0.060916 0.992878 0.102389
vn -0.037981 0.996708 0.071629
vn -0.002268 0.999991 -0.003549
vn -0.017385 0.999691 0.017793
vn -0.054486 0.995779 0.073857
vn -0.087092 0.989373 0.11643
vn -0.097096 0.987614 0.123255
vn -0.067178 0.994545 0.079798
vn -0.04796 0.997422 0.053369
vn 0 1 0
vn -0.01233 0.999721 0.020151
vn -0.044961 0.996523 0.070151
vn -0.073895 0.991329 0.108653
vn -0.083329 0.989927 0.114461
vn -0.058038 0.995555 0.07417
vn -0.041571 0.997938 0.048899
vn 0 1 0
vn -0.011427 0.999752 0.019134
vn -0.040667 0.996825 0.068449
vn -0.064919 0.991985 0.108404
vn -0.071348 0.990488 0.117653
vn -0.04873 0.9957 0.078787
vn -0.03354 0.998157 0.050565
vn 0 1 0
vn -0.011983 0.999723 0.020259
vn -0.041781 0.996379 0.074048
vn -0.064319 0.990696 0.119935
vn -0.068134 0.988586 0.134367
vn -0.044921 0.994596 0.093599
vn -0.028262 0.997752 0.060768
vn 0 1 0
vn -0.013454 0.999656 0.022522
vn -0.047093 0.995524 0.081942
vn -0.072359 0.988524 0.132607
vn -0.076488 0.985899 0.14884
vn -0.050276 0.993268 0.104359
vn -0.030662 0.997138 0.0691
vn 0 1 0
vn -0.014471 0.999609 0.023915
vn -0.051436 0.995015 0.085442
vn -0.080852 0.987384 0.136144
vn -0.08745 0.98484 0.14981
vn -0.058768 0.992961 0.102836
vn -0.037699 0.996894 0.069148
vn 0 1 0
vn -0.014349 0.999617 0.023653
vn -0.051407 0.995165 0.083691
vn -0.082109 0.987857 0.131896
vn -0.09021 0.985633 0.142794
vn -0.061527 0.993478 0.096002
vn -0.041432 0.997081 0.064126
vn 0 1 0
vn -0.013932 0.999635 0.02313
vn -0.049682 0.995366 0.082333
vn -0.07905 0.988335 0.130174
vn -0.086594 0.986154 0.14143
vn -0.058977 0.993698 0.095323
vn -0.039761 0.997241 0.06268
vn 0 1 0
vn -0.013873 0.999645 0.022768
vn -0.049791 0.995517 0.080416
vn -0.079509 0.988732 0.126836
vn -0.087247 0.986653 0.137492
vn -0.059326 0.993932 0.092631
vn -0.039479 0.997256 0.062632
vn 0 1 0
vn -0.013007 0.999693 0.021108
vn -0.047342 0.996193 0.073198
vn -0.077234 0.990541 0.113418
vn -0.086374 0.98903 0.11983
vn -0.059599 0.995154 0.078207
vn -0.041526 0.997732 0.052984
vn 0 1 0
vn -0.011718 0.999741 0.019496
vn -0.042049 0.99673 0.069008
vn -0.067907 0.991823 0.108059
vn -0.07543 0.990441 0.115483
vn -0.051971 0.995759 0.075917
vn -0.036551 0.99816 0.048385
vn 0 1 0
vn -0.01188 0.999727 0.02011
vn -0.041599 0.996427 0.073499
vn -0.064564 0.99081 0.118853
vn -0.069022 0.988747 0.132721
vn -0.045964 0.9947 0.091978
vn -0.029589 0.997802 0.059292
vn 0.005847 0.999903 0.012624
vn -0.008636 0.999463 0.031601
vn -0.041364 0.994921 0.091762
vn -0.06617 0.987355 0.144054
vn -0.070394 0.984289 0.161928
vn -0.04644 0.992274 0.115046
vn -0.028424 0.996828 0.074341
vn 0.001535 0.999993 0.003322
vn -0.011122 0.999438 0.031616
vn -0.048548 0.994294 0.094989
vn -0.07742 0.985692 0.149727
vn -0.083485 0.982538 0.166279
vn -0.055624 0.991559 0.11712
vn -0.033504 0.99618 0.080637
vn -0.005252 0.999915 -0.01196
vn -0.019949 0.999689 0.014994
vn -0.059171 0.995184 0.078156
vn -0.090855 0.987546 0.128442
vn -0.098466 0.985222 0.140151
vn -0.066536 0.993366 0.09379
vn -0.044479 0.996992 0.063475
vn -0.002177 0.999985 -0.005029
vn -0.018087 0.999685 0.01739
vn -0.056477 0.995304 0.078615
vn -0.0885 0.988064 0.126083
vn -0.096871 0.985978 0.135883
vn -0.066065 0.993776 0.089698
vn -0.045567 0.997223 0.058906
vn 0 1 0
vn -0.014185 0.999619 0.023691
vn -0.050408 0.99513 0.084711
vn -0.079961 0.987734 0.134119
vn -0.087411 0.985422 0.145953
vn -0.059516 0.993358 0.098474
vn -0.040203 0.997156 0.06375
vn 0 1 0
vn -0.014486 0.999614 0.023712
vn -0.051901 0.995137 0.083716
vn -0.082509 0.987769 0.132307
vn -0.090145 0.985459 0.144029
vn -0.061054 0.993337 0.097741
vn -0.040035 0.99695 0.066998
vn 0 1 0
vn -0.013838 0.999635 0.023182
vn -0.049156 0.995337 0.082989
vn -0.078087 0.988265 0.131278
vn -0.085496 0.986086 0.142566
vn -0.058313 0.993691 0.095803
vn -0.039729 0.99733 0.061267
vn 0 1 0
vn -0.014414 0.999613 0.023803
vn -0.051271 0.995057 0.08505
vn -0.080691 0.987458 0.135702
vn -0.087398 0.98488 0.149578
vn -0.058827 0.99295 0.102908
vn -0.037848 0.996855 0.069625
vn 0.003991 0.999935 0.010673
vn -0.011086 0.999425 0.032044
vn -0.047426 0.994387 0.094581
vn -0.077084 0.986292 0.145901
vn -0.084518 0.983644 0.159063
vn -0.057642 0.992393 0.108779
vn -0.0385 0.996821 0.06976
vn 0.00608 0.999845 0.0165
vn -0.003816 0.99945 0.032928
vn -0.037717 0.995095 0.091448
vn -0.070956 0.985627 0.153313
vn -0.082231 0.980443 0.178798
vn -0.061601 0.988347 0.139193
vn -0.03473 0.995958 0.082839
f 1/1/1 8/8/8 9/9/9
f 1/1/1 9/9/9 2/2/2
f 2/2/2 9/9/9 10/10/10
f 2/2/2 10/10/10 3/3/3
f 3/3/3 10/10/10 11/11/11
f 3/3/3 11/11/11 4/4/4
f 4/4/4 11/11/11 12/12/12
f 4/4/4 12/12/12 5/5/5
f 5/5/5 12/12/12 13/13/13
f 5/5/5 13/13/13 6/6/6
f 6/6/6 13/13/13 14/14/14
f 6/6/6 14/14/14 7/7/7
f 8/8/8 15/15/15 16/16/16
f 8/8/8 16/16/16 9/9/9
f 9/9/9 16/16/16 17/17/17
f 9/9/9 17/17/17 10/10/10
f 10/10/10 17/17/17 18/18/18
f 10/10/10 18/18/18 11/11/11
f 11/11/11 18/18/18 19/19/19
f 11/11/11 19/19/19 12/12/12
f 12/12/12 19/19/19 20/20/20
f 12/12/12 20/20/20 13/13/13
f 13/13/13 20/20/20 21/21/21
f 13/13/13 21/21/21 14/14/14
f 15/15/15 22/22/22 23/23/23
f 15/15/15 23/23/23 16/16/16
f 16/16/16 23/23/23 24/24/24
f 16/16/16 24/24/24 17/17/17
f 17/17/17 24/24/24 25/25/25
f 17/17/17 25/25/25 18/18/18
f 18/18/18 25/25/25 26/26/26
f 18/18/18 26/26/26 19/19/19
f 19/19/19 26/26/26 27/27/27
f 19/19/19 27/27/27 20/20/20
f 20/20/20 27/27/27 28/28/28
f 20/20/20 28/28/28 21/21/21
f 22/22/22 29/29/29 30/30/30
f 22/22/22 30/30/30 23/23/23
f 23/23/23 30/30/30 31/31/31
f 23/23/23 31/31/31 24/24/24
f 24/24/24 31/31/31 32/32/32
f 24/24/24 32/32/32 25/25/25
f 25/25/25 32/32/32 33/33/33
f 25/25/25 33/33/33 26/26/26
f 26/26/26 33/33/33 34/34/34
f 26/26/26 34/34/34 27/27/27
f 27/27/27 34/34/34 35/35/35
f 27/27/27 35/35/35 28/28/28
f 29/29/29 36/36/36 37/37/37
f 29/29/29 37/37/37 30/30/30
f 30/30/30 37/37/37 38/38/38
f 30/30/30 38/38/38 31/31/31
f 31/31/31 38/38/38 39/39/39
f 31/31/31 39/39/39 32/32/32
f 32/32/32 39/39/39 40/40/40
f 32/32/32 40/40/40 33/33/33
f 33/33/33 40/40/40 41/41/41
f 33/33/33 41/41/41 34/34/34
f 34/34/34 41/41/41 42/42/42
f 34/34/34 42/42/42 35/35/35
f 36/36/36 43/43/43 44/44/44
f 36/36/36 44/44/44 37/37/37
f 37/37/37 44/44/44 45/45/45
f 37/37/37 45/45/45 38/38/38
f 38/38/38 45/45/45 46/46/46
f 38/38/38 46/46/46 39/39/39
f 39/39/39 46/46/46 47/47/47
f 39/39/39 47/47/47 40/40/40
f 40/40/40 47/47/47 48/48/48
f 40/40/40 48/48/48 41/41/41
f 41/41/41 48/48/48 49/49/49
f 41/41/41 49/49/49 42/42/42
f 43/43/43 50/50/50 51/51/51
f 43/43/43 51/51/51 44/44/44
f 44/44/44 51/51/51 52/52/52
f 44/44/44 52/52/52 45/45/45
f 45/45/45 52/52/52 53/53/53
f 45/45/45 53/53/53 46/46/46
f 46/46/46 53/53/53 54/54/54
f 46/46/46 54/54/54 47/47/47
f 47/47/47 54/54/54 55/55/55
f 47/47/47 55/55/55 48/48/48
f 48/48/48 55/55/55 56/56/56
f 48/48/48 56/56/56 49/49/49
f 50/50/50 57/57/57 58/58/58
f 50/50/50 58/58/58 51/51/51
f 51/51/51 58/58/58 59/59/59
f 51/51/51 59/59/59 52/52/52
f 52/52/52 59/59/59 60/60/60
f 52/52/52 60/60/60 53/53/53
f 53/53/53 60/60/60 61/61/61
f 53/53/53 61/61/61 54/54/54
f 54/54/54 61/61/61 62/62/62
f 54/54/54 62/62/62 55/55/55
f 55/55/55 62/62/62 63/63/63
f 55/55/55 63/63/63 56/56/56
f 57/57/57 64/64/64 65/65/65
f 57/57/57 65/65/65 58/58/58
f 58/58/58 65/65/65 66/66/66
f 58/58/58 66/66/66 59/59/59
f 59/59/59 66/66/66 67/67/67
f 59/59/59 67/67/67 60/60/60
f 60/60/60 67/67/67 68/68/68
f 60/60/60 68/68/68 61/61/61
f 61/61/61 68/68/68 69/69/69
f 61/61/61 69/69/69 62/62/62
f 62/62/62 69/69/69 70/70/70
f 62/62/62 70/70/70 63/63/63
f 64/64/64 71/71/71 72/72/72
f 64/64/64 72/72/72 65/65/65
f 65/65/65 72/72/72 73/73/73
f 65/65/65 73/73/73 66/66/66
f 66/66/66 73/73/73 74/74/74
f 66/66/66 74/74/74 67/67/67
f 67/67/67 74/74/74 75/75/75
f 67/67/67 75/75/75 68/68/68
f 68/68/68 75/75/75 76/76/76
f 68/68/68 76/76/76 69/69/69
f 69/69/69 76/76/76 77/77/77
f 69/69/69 77/77/77 70/70/70
f 71/71/71 78/78/78 79/79/79
f 71/71/71 79/79/79 72/72/72
f 72/72/72 79/79/79 80/80/80
f 72/72/72 80/80/80 73/73/73
f 73/73/73 80/80/80 81/81/81
f 73/73/73 81/81/81 74/74/74
f 74/74/74 81/81/81 82/82/82
f 74/74/74 82/82/82 75/75/75
f 75/75/75 82/82/82 83/83/83
f 75/75/75 83/83/83 76/76/76
f 76/76/76 83/83/83 84/84/84
f 76/76/76 84/84/84 77/77/77
f 78/78/78 85/85/85 86/86/86
f 78/78/78 86/86/86 79/79/79
f 79/79/79 86/86/86 87/87/87
f 79/79/79 87/87/87 80/80/80
f 80/80/80 87/87/87 88/88/88
f 80/80/80 88/88/88 81/81/81
f 81/81/81 88/88/88 89/89/89
f 81/81/81 89/89/89 82/82/82
f 82/82/82 89/89/89 90/90/90
f 82/82/82 90/90/90 83/83/83
f 83/83/83 90/90/90 91/91/91
f 83/83/83 91/91/91 84/84/84
f 85/85/85 92/92/92 93/93/93
f 85/85/85 93/93/93 86/86/86
f 86/86/86 93/93/93 94/94/94
f 86/86/86 94/94/94 87/87/87
f 87/87/87 94/94/94 95/95/95
f 87/87/87 95/95/95 88/88/88
f 88/88/88 95/95/95 96/96/96
f 88/88/88 96/96/96 89/89/89
f 89/89/89 96/96/96 97/97/97
f 89/89/89 97/97/97 90/90/90
f 90/90/90 97/97/97 98/98/98
f 90/90/90 98/98/98 91/91/91
f 92/92/92 99/99/99 100/100/100
f 92/92/92 100/100/100 93/93/93
f 93/93/93 100/100/100 101/101/101
f 93/93/93 101/101/101 94/94/94
f 94/94/94 101/101/101 102/102/102
f 94/94/94 102/102/102 95/95/95
f 95/95/95 102/102/102 103/103/103
f 95/95/95 103/103/103 96/96/96
f 96/96/96 103/103/103 104/104/104
f 96/96/96 104/104/104 97/97/97
f 97/97/97 104/104/104 105/105/105
f 97/97/97 105/105/105 98/98/98
f 99/99/99 106/106/106 107/107/107
f 99/99/99 107/107/107 100/100/100
f 100/100/100 107/107/107 108/108/108
f 100/100/100 108/108/108 101/101/101
f 101/101/101 108/108/108 109/109/109
f 101/101/101 109/109/109 102/102/102
f 102/102/102 109/109/109 110/110/110
f 102/102/102 110/110/110 103/103/103
f 103/103/103 110/110/110 111/111/111
f 103/103/103 111/111/111 104/104/104
f 104/104/104 111/111/111 112/112/112
f 104/104/104 112/112/112 105/105/105
f 106/106/106 113/113/113 114/114/114
f 106/106/106 114/114/114 107/107/107
f 107/107/107 114/114/114 115/115/115
f 107/107/107 115/115/115 108/108/108
f 108/108/108 115/115/115 116/116/116
f 108/108/108 116/116/116 109/109/109
f 109/109/109 116/116/116 117/117/117
f 109/109/109 117/117/117 110/110/110
f 110/110/110 117/117/117 118/118/118
f 110/110/110 118/118/118 111/111/111
f 111/111/111 118/118/118 119/119/119
f 111/111/111 119/119/119 112/112/112
f 113/113/113 120/120/120 121/121/121
f 113/113/113 121/121/121 114/114/114
f 114/114/114 121/121/121 122/122/122
f 114/114/114 122/122/122 115/115/115
f 115/115/115 122/122/122 123/123/123
f 115/115/115 123/123/123 116/116/116
f 116/116/116 123/123/123 124/124/124
f 116/116/116 124/124/124 117/117/117
f 117/117/117 124/124/124 125/125/125
f 117/117/117 125/125/125 118/118/118
f 118/118/118 125/125/125 126/126/126
f 118/118/118 126/126/126 119/119/119
f 120/120/120 127/127/127 128/128/128
f 120/120/120 128/128/128 121/121/121
f 121/121/121 128/128/128 129/129/129
f 121/121/121 129/129/129 122/122/122
f 122/122/122 129/129/129 130/130/130
f 122/122/122 130/130/130 123/123/123
f 123/123/123 130/130/130 131/131/131
f 123/123/123 131/131/131 124/124/124
f 124/124/124 131/131/131 132/132/132
f 124/124/124 132/132/132 125/125/125
f 125/125/125 132/132/132 133/133/133
f 125/125/125 133/133/133 126/126/126
f 127/127/127 134/134/134 135/135/135
f 127/127/127 135/135/135 128/128/128
f 128/128/128 135/135/135 136/136/136
f 128/128/128 136/136/136 129/129/129
f 129/129/129 136/136/136 137/137/137
f 129/129/129 137/137/137 130/130/130
f 130/130/130 137/137/137 138/138/138
f 130/130/130 138/138/138 131/131/131
f 131/131/131 138/138/138 139/139/139
f 131/131/131 139/139/139 132/132/132
f 132/132/132 139/139/139 140/140/140
f 132/132/132 140/140/140 133/133/133
f 134/134/134 141/141/141 142/142/142
f 134/134/134 142/142/142 135/135/135
f 135/135/135 142/142/142 143/143/143
f 135/135/135 143/143/143 136/136/136
f 136/136/136 143/143/143 144/144/144
f 136/136/136 144/144/144 137/137/137
f 137/137/137 144/144/144 145/145/145
f 137/137/137 145/145/145 138/138/138
f 138/138/138 145/145/145 146/146/146
f 138/138/138 146/146/146 139/139/139
f 139/139/139 146/146/146 147/147/147
f 139/139/139 147/147/147 140/140/140
f 141/141/141 148/148/148 149/149/149
f 141/141/141 149/149/149 142/142/142
f 142/142/142 149/149/149 150/150/150
f 142/142/142 150/150/150 143/143/143
f 143/143/143 150/150/150 151/151/151
f 143/143/143 151/151/151 144/144/144
f 144/144/144 151/151/151 152/152/152
f 144/144/144 152/152/152 145/145/145
f 145/145/145 152/152/152 153/153/153
f 145/145/145 153/153/153 146/146/146
f 146/146/146 153/153/153 154/154/154
f 146/146/146 154/154/154 147/147/147
f 148/148/148 155/155/155 156/156/156
f 148/148/148 156/156/156 149/149/149
f 149/149/149 156/156/156 157/157/157
f 149/149/149 157/157/157 150/150/150
f 150/150/150 157/157/157 158/158/158
f 150/150/150 158/158/158 151/151/151
f 151/151/151 158/158/158 159/159/159
f 151/151/151 159/159/159 152/152/152
f 152/152/152 159/159/159 160/160/160
f 152/152/152 160/160/160 153/153/153
f 153/153/153 160/160/160 161/161/161
f 153/153/153 161/161/161 154/154/154
f 155/155/155 162/162/162 163/163/163
f 155/155/155 163/163/163 156/156/156
f 156/156/156 163/163/163 164/164/164
f 156/156/156 164/164/164 157/157/157
f 157/157/157 164/164/164 165/165/165
f 157/157/157 165/165/165 158/158/158
f 158/158/158 165/165/165 166/166/166
f 158/158/158 166/166/166 159/159/159
f 159/159/159 166/166/166 167/167/167
f 159/159/159 167/167/167 160/160/160
f 160/160/160 167/167/167 168/168/168
f 160/160/160 168/168/168 161/161/161
f 162/162/162 169/169/169 170/170/170
f 162/162/162 170/170/170 163/163/163
f 163/163/163 170/170/170 171/171/171
f 163/163/163 171/171/171 164/164/164
f 164/164/164 171/171/171 172/172/172
f 164/164/164 172/172/172 165/165/165
f 165/165/165 172/172/172 173/173/173
f 165/165/165 173/173/173 166/166/166
f 166/166/166 173/173/173 174/174/174
f 166/166/166 174/174/174 167/167/167
f 167/167/167 174/174/174 175/175/175
f 167/167/167 175/175/175 168/168/168
f 169/169/169 176/176/176 177/177/177
f 169/169/169 177/177/177 170/170/170
f 170/170/170 177/177/177 178/178/178
f 170/170/170 178/178/178 171/171/171
f 171/171/171 178/178/178 179/179/179
f 171/171/171 179/179/179 172/172/172
f 172/172/172 179/179/179 180/180/180
f 172/172/172 180/180/180 173/173/173
f 173/173/173 180/180/180 181/181/181
f 173/173/173 181/181/181 174/174/174
f 174/174/174 181/181/181 182/182/182
f 174/174/174 182/182/182 175/175/175
f 176/176/176 183/183/183 184/184/184
f 176/176/176 184/184/184 177/177/177
f 177/177/177 184/184/184 185/185/185
f 177/177/177 185/185/185 178/178/178
f 178/178/178 185/185/185 186/186/186
f 178/178/178 186/186/186 179/179/179
f 179/179/179 186/186/186 187/187/187
f 179/179/179 187/187/187 180/180/180
f 180/180/180 187/187/187 188/188/188
f 180/180/180 188/188/188 181/181/181
f 181/181/181 188/188/188 189/189/189
f 181/181/181 189/189/189 182/182/182
f 183/183/183 190/190/190 191/191/191
f 183/183/183 191/191/191 184/184/184
f 184/184/184 191/191/191 192/192/192
f 184/184/184 192/192/192 185/185/185
f 185/185/185 192/192/192 193/193/193
f 185/185/185 193/193/193 186/186/186
f 186/186/186 193/193/193 194/194/194
f 186/186/186 194/194/194 187/187/187
f 187/187/187 194/194/194 195/195/195
f 187/187/187 195/195/195 188/188/188
f 188/188/188 195/195/195 196/196/196
f 188/188/188 196/196/196 189/189/189
f 190/190/190 197/197/197 198/198/198
f 190/190/190 198/198/198 191/191/191
f 191/191/191 198/198/198 199/199/199
f 191/191/191 199/199/199 192/192/192
f 192/192/192 199/199/199 200/200/200
f 192/192/192 200/200/200 193/193/193
f 193/193/193 200/200/200 201/201/201
f 193/193/193 201/201/201 194/194/194
f 194/194/194 201/201/201 202/202/202
f 194/194/194 202/202/202 195/195/195
f 195/195/195 202/202/202 203/203/203
f 195/195/195 203/203/203 196/196/196
f 197/197/197 204/204/204 205/205/205
f 197/197/197 205/205/205 198/198/198
f 198/198/198 205/205/205 206/206/206
f 198/198/198 206/206/206 199/199/199
f 199/199/199 206/206/206 207/207/207
f 199/199/199 207/207/207 200/200/200
f 200/200/200 207/207/207 208/208/208
f 200/200/200 208/208/208 201/201/201
f 201/201/201 208/208/208 209/209/209
f 201/201/201 209/209/209 202/202/202
f 202/202/202 209/209/209 210/210/210
f 202/202/202 210/210/210 203/203/203
f 204/204/204 211/211/211 212/212/212
f 204/204/204 212/212/212 205/205/205
f 205/205/205 212/212/212 213/213/213
f 205/205/205 213/213/213 206/206/206
f 206/206/206 213/213/213 214/214/214
f 206/206/206 214/214/214 207/207/207
f 207/207/207 214/214/214 215/215/215
f 207/207/207 215/215/215 208/208/208
f 208/208/208 215/215/215 216/216/216
f 208/208/208 216/216/216 209/209/209
f 209/209/209 216/216/216 217/217/217
f 209/209/209 217/217/217 210/210/210
f 211/211/211 218/218/218 219/219/219
f 211/211/211 219/219/219 212/212/212
f 212/212/212 219/219/219 220/220/220
f 212/212/212 220/220/220 213/213/213
f 213/213/213 220/220/220 221/221/221
f 213/213/213 221/221/221 214/214/214
f 214/214/214 221/221/221 222/222/222
f 214/214/214 222/222/222 215/215/215
f 215/215/215 222/222/222 223/223/223
f 215/215/215 223/223/223 216/216/216
f 216/216/216 223/223/223 224/224/224
f 216/216/216 224/224/224 217/217/217
f 218/218/218 225/225/225 226/226/226
f 218/218/218 226/226/226 219/219/219
f 219/219/219 226/226/226 227/227/227
f 219/219/219 227/227/227 220/220/220
f 220/220/220 227/227/227 228/228/228
f 220/220/220 228/228/228 221/221/221
f 221/221/221 228/228/228 229/229/229
f 221/221/221 229/229/229 222/222/222
f 222/222/222 229/229/229 230/230/230
f 222/222/222 230/230/230 223/223/223
f 223/223/223 230/230/230 231/231/231
f 223/223/223 231/231/231 224/224/224
f 225/225/225 232/232/232 233/233/233
f 225/225/225 233/233/233 226/226/226
f 226/226/226 233/233/233 234/234/234
f 226/226/226 234/234/234 227/227/227
f 227/227/227 234/234/234 235/235/235
f 227/227/227 235/235/235 228/228/228
f 228/228/228 235/235/235 236/236/236
f 228/228/228 236/236/236 229/229/229
f 229/229/229 236/236/236 237/237/237
f 229/229/229 237/237/237 230/230/230
f 230/230/230 237/237/237 238/238/238
f 230/230/230 238/238/238 231/231/231
f 232/232/232 239/239/239 240/240/240
f 232/232/232 240/240/240 233/233/233
f 233/233/233 240/240/240 241/241/241
f 233/233/233 241/241/241 234/234/234
f 234/234/234 241/241/241 242/242/242
f 234/234/234 242/242/242 235/235/235
f 235/235/235 242/242/242 243/243/243
f 235/235/235 243/243/243 236/236/236
f 236/236/236 243/243/243 244/244/244
f 236/236/236 244/244/244 237/237/237
f 237/237/237 244/244/244 245/245/245
f 237/237/237 245/245/245 238/238/238
f 239/239/239 246/246/246 247/247/247
f 239/239/239 247/247/247 240/240/240
f 240/240/240 247/247/247 248/248/248
f 240/240/240 248/248/248 241/241/241
f 241/241/241 248/248/248 249/249/249
f 241/241/241 249/249/249 242/242/242
f 242/242/242 249/249/249 250/250/250
f 242/242/242 250/250/250 243/243/243
f 243/243/243 250/250/250 251/251/251
f 243/243/243 251/251/251 244/244/244
f 244/244/244 251/251/251 252/252/252
f 244/244/244 252/252/252 245/245/245
f 246/246/246 253/253/253 254/254/254
f 246/246/246 254/254/254 247/247/247
f 247/247/247 254/254/254 255/255/255
f 247/247/247 255/255/255 248/248/248
f 248/248/248 255/255/255 256/256/256
f 248/248/248 256/256/256 249/249/249
f 249/249/249 256/256/256 257/257/257
f 249/249/249 257/257/257 250/250/250
f 250/250/250 257/257/257 258/258/258
f 250/250/250 258/258/258 251/251/251
f 251/251/251 258/258/258 259/259/259
f 251/251/251 259/259/259 252/252/252
f 253/253/253 260/260/260 261/261/261
f 253/253/253 261/261/261 254/254/254
f 254/254/254 261/261/261 262/262/262
f 254/254/254 262/262/262 255/255/255
f 255/255/255 262/262/262 263/263/263
f 255/255/255 263/263/263 256/256/256
f 256/256/256 263/263/263 264/264/264
f 256/256/256 264/264/264 257/257/257
f 257/257/257 264/264/264 265/265/265
f 257/257/257 265/265/265 258/258/258
f 258/258/258 265/265/265 266/266/266
f 258/258/258 266/266/266 259/259/259
f 260/260/260 267/267/267 268/268/268
f 260/260/260 268/268/268 261/261/261
f 261/261/261 268/268/268 269/269/269
f 261/261/261 269/269/269 262/262/262
f 262/262/262 269/269/269 270/270/270
f 262/262/262 270/270/270 263/263/263
f 263/263/263 270/270/270 271/271/271
f 263/263/263 271/271/271 264/264/264
f 264/264/264 271/271/271 272/272/272
f 264/264/264 272/272/272 265/265/265
f 265/265/265 272/272/272 273/273/273
f 265/265/265 273/273/273 266/266/266
f 267/267/267 274/274/274 275/275/275
f 267/267/267 275/275/275 268/268/268
f 268/268/268 275/275/275 276/276/276
f 268/268/268 276/276/276 269/269/269
f 269/269/269 276/276/276 277/277/277
f 269/269/269 277/277/277 270/270/270
f 270/270/270 277/277/277 278/278/278
f 270/270/270 278/278/278 271/271/271
f 271/271/271 278/278/278 279/279/279
f 271/271/271 279/279/279 272/272/272
f 272/272/272 279/279/279 280/280/280
f 272/272/272 280/280/280 273/273/273
f 274/274/274 281/281/281 282/282/282
f 274/274/274 282/282/282 275/275/275
f 275/275/275 282/282/282 283/283/283
f 275/275/275 283/283/283 276/276/276
f 276/276/276 283/283/283 284/284/284
f 276/276/276 284/284/284 277/277/277
f 277/277/277 284/284/284 285/285/285
f 277/277/277 285/285/285 278/278/278
f 278/278/278 285/285/285 286/286/286
f 278/278/278 286/286/286 279/279/279
f 279/279/279 286/286/286 287/287/287
f 279/279/279 287/287/287 280/280/280
f 281/281/281 288/288/288 289/289/289
f 281/281/281 289/289/289 282/282/282
f 282/282/282 289/289/289 290/290/290
f 282/282/282 290/290/290 283/283/283
f 283/283/283 290/290/290 291/291/291
f 283/283/283 291/291/291 284/284/284
f 284/284/284 291/291/291 292/292/292
f 284/284/284 292/292/292 285/285/285
f 285/285/285 292/292/292 293/293/293
f 285/285/285 293/293/293 286/286/286
f 286/286/286 293/293/293 294/294/294
f 286/286/286 294/294/294 287/287/287
f 288/288/288 295/295/295 296/296/296
f 288/288/288 296/296/296 289/289/289
f 289/289/289 296/296/296 297/297/297
f 289/289/289 297/297/297 290/290/290
f 290/290/290 297/297/297 298/298/298
f 290/290/290 298/298/298 291/291/291
f 291/291/291 298/298/298 299/299/299
f 291/291/291 299/299/299 292/292/292
f 292/292/292 299/299/299 300/300/300
f 292/292/292 300/300/300 293/293/293
f 293/293/293 300/300/300 301/301/301
f 293/293/293 301/301/301 294/294/294
f 295/295/295 302/302/302 303/303/303
f 295/295/295 303/303/303 296/296/296
f 296/296/296 303/303/303 304/304/304
f 296/296/296 304/304/304 297/297/297
f 297/297/297 304/304/304 305/305/305
f 297/297/297 305/305/305 298/298/298
f 298/298/298 305/305/305 306/306/306
f 298/298/298 306/306/306 299/299/299
f 299/299/299 306/306/306 307/307/307
f 299/299/299 307/307/307 300/300/300
f 300/300/300 307/307/307 308/308/308
f 300/300/300 308/308/308 301/301/301
f 302/302/302 309/309/309 310/310/310
f 302/302/302 310/310/310 303/303/303
f 303/303/303 310/310/310 311/311/311
f 303/303/303 311/311/311 304/304/304
f 304/304/304 311/311/311 312/312/312
f 304/304/304 312/312/312 305/305/305
f 305/305/305 312/312/312 313/313/313
f 305/305/305 313/313/313 306/306/306
f 306/306/306 313/313/313 314/314/314
f 306/306/306 314/314/314 307/307/307
f 307/307/307 314/314/314 315/315/315
f 307/307/307 315/315/315 308/308/308
f 309/309/309 316/316/316 317/317/317
f 309/309/309 317/317/317 310/310/310
f 310/310/310 317/317/317 318/318/318
f 310/310/310 318/318/318 311/311/311
f 311/311/311 318/318/318 319/319/319
f 311/311/311 319/319/319 312/312/312
f 312/312/312 319/319/319 320/320/320
f 312/312/312 320/320/320 313/313/313
f 313/313/313 320/320/320 321/321/321
f 313/313/313 321/321/321 314/314/314
f 314/314/314 321/321/321 322/322/322
f 314/314/314 322/322/322 315/315/315
f 316/316/316 323/323/323 324/324/324
f 316/316/316 324/324/324 317/317/317
f 317/317/317 324/324/324 325/325/325
f 317/317/317 325/325/325 318/318/318
f 318/318/318 325/325/325 326/326/326
f 318/318/318 326/326/326 319/319/319
f 319/319/319 326/326/326 327/327/327
f 319/319/319 327/327/327 320/320/320
f 320/320/320 327/327/327 328/328/328
f 320/320/320 328/328/328 321/321/321
f 321/321/321 328/328/328 329/329/329
f 321/321/321 329/329/329 322/322/322
f 323/323/323 330/330/330 331/331/331
f 323/323/323 331/331/331 324/324/324
f 324/324/324 331/331/331 332/332/332
f 324/324/324 332/332/332 325/325/325
f 325/325/325 332/332/332 333/333/333
f 325/325/325 333/333/333 326/326/326
f 326/326/326 333/333/333 334/334/334
f 326/326/326 334/334/334 327/327/327
f 327/327/327 334/334/334 335/335/335
f 327/327/327 335/335/335 328/328/328
f 328/328/328 335/335/335 336/336/336
f 328/328/328 336/336/336 329/329/329
f 330/330/330 337/337/337 338/338/338
f 330/330/330 338/338/338 331/331/331
f 331/331/331 338/338/338 339/339/339
f 331/331/331 339/339/339 332/332/332
f 332/332/332 339/339/339 340/340/340
f 332/332/332 340/340/340 333/333/333
f 333/333/333 340/340/340 341/341/341
f 333/333/333 341/341/341 334/334/334
f 334/334/334 341/341/341 342/342/342
f 334/334/334 342/342/342 335/335/335
f 335/335/335 342/342/342 343/343/343
f 335/335/335 343/343/343 336/336/336
f 337/337/337 344/344/344 345/345/345
f 337/337/337 345/345/345 338/338/338
f 338/338/338 345/345/345 346/346/346
f 338/338/338 346/346/346 339/339/339
f 339/339/339 346/346/346 347/347/347
f 339/339/339 347/347/347 340/340/340
f 340/340/340 347/347/347 348/348/348
f 340/340/340 348/348/348 341/341/341
f 341/341/341 348/348/348 349/349/349
f 341/341/341 349/349/349 342/342/342
f 342/342/342 349/349/349 350/350/350
f 342/342/342 350/350/350 343/343/343
f 344/344/344 351/351/351 352/352/352
f 344/344/344 352/352/352 345/345/345
f 345/345/345 352/352/352 353/353/353
f 345/345/345 353/353/353 346/346/346
f 346/346/346 353/353/353 354/354/354
f 346/346/346 354/354/354 347/347/347
f 347/347/347 354/354/354 355/355/355
f 347/347/347 355/355/355 348/348/348
f 348/348/348 355/355/355 356/356/356
f 348/348/348 356/356/356 349/349/349
f 349/349/349 356/356/356 357/357/357
f 349/349/349 357/357/357 350/350/350
f 351/351/351 358/358/358 359/359/359
f 351/351/351 359/359/359 352/352/352
f 352/352/352 359/359/359 360/360/360
f 352/352/352 360/360/360 353/353/353
f 353/353/353 360/360/360 361/361/361
f 353/353/353 361/361/361 354/354/354
f 354/354/354 361/361/361 362/362/362
f 354/354/354 362/362/362 355/355/355
f 355/355/355 362/362/362 363/363/363
f 355/355/355 363/363/363 356/356/356
f 356/356/356 363/363/363 364/364/364
f 356/356/356 364/364/364 357/357/357
f 358/358/358 365/365/365 366/366/366
f 358/358/358 366/366/366 359/359/359
f 359/359/359 366/366/366 367/367/367
f 359/359/359 367/367/367 360/360/360
f 360/360/360 367/367/367 368/368/368
f 360/360/360 368/368/368 361/361/361
f 361/361/361 368/368/368 369/369/369
f 361/361/361 369/369/369 362/362/362
f 362/362/362 369/369/369 370/370/370
f 362/362/362 370/370/370 363/363/363
f 363/363/363 370/370/370 371/371/371
f 363/363/363 371/371/371 364/364/364
f 365/365/365 372/372/372 373/373/373
f 365/365/365 373/373/373 366/366/366
f 366/366/366 373/373/373 374/374/374
f 366/366/366 374/374/374 367/367/367
f 367/367/367 374/374/374 375/375/375
f 367/367/367 375/375/375 368/368/368
f 368/368/368 375/375/375 376/376/376
f 368/368/368 376/376/376 369/369/369
f 369/369/369 376/376/376 377/377/377
f 369/369/369 377/377/377 370/370/370
f 370/370/370 377/377/377 378/378/378
f 370/370/370 378/378/378 371/371/371
f 372/372/372 379/379/379 380/380/380
f 372/372/372 380/380/380 373/373/373
f 373/373/373 380/380/380 381/381/381
f 373/373/373 381/381/381 374/374/374
f 374/374/374 381/381/381 382/382/382
f 374/374/374 382/382/382 375/375/375
f 375/375/375 382/382/382 383/383/383
f 375/375/375 383/383/383 376/376/376
f 376/376/376 383/383/383 384/384/384
f 376/376/376 384/384/384 377/377/377
f 377/377/377 384/384/384 385/385/385
f 377/377/377 385/385/385 378/378/378
f 379/379/379 386/386/386 387/387/387
f 379/379/379 387/387/387 380/380/380
f 380/380/380 387/387/387 388/388/388
f 380/380/380 388/388/388 381/381/381
f 381/381/381 388/388/388 389/389/389
f 381/381/381 389/389/389 382/382/382
f 382/382/382 389/389/389 390/390/390
f 382/382/382 390/390/390 383/383/383
f 383/383/383 390/390/390 391/391/391
f 383/383/383 391/391/391 384/384/384
f 384/384/384 391/391/391 392/392/392
f 384/384/384 392/392/392 385/385/385
