# Generated outdoor terrain edge; cosmetic only.
s 1
v -511.601647 -2.822357 -125.294323
v -511.607243 -3.726959 -125.358758
v -511.749418 -5.174321 -126.995964
v -511.858865 -6.694052 -128.256287
v -511.876445 -7.671022 -128.45873
v -496.087375 -3.197948 -121.003787
v -496.091138 -4.222932 -121.052873
v -496.232246 -5.862905 -122.893315
v -496.342205 -7.584878 -124.327487
v -496.361566 -8.69186 -124.58001
v -480.591107 -3.44843 -116.854978
v -480.591414 -4.553697 -116.859601
v -480.721302 -6.322123 -118.814327
v -480.824706 -8.17897 -120.370476
v -480.846688 -9.372657 -120.701291
v -465.145068 -2.98832 -113.498142
v -465.147861 -3.946115 -113.547863
v -465.243622 -5.478586 -115.252625
v -465.317978 -7.087682 -116.57633
v -465.331809 -8.1221 -116.822571
v -449.618143 -3.908073 -108.607578
v -449.619071 -5.16066 -108.627802
v -449.720627 -7.1648 -110.843114
v -449.801093 -9.269147 -112.598366
v -449.816931 -10.621942 -112.943852
v -434.167685 -3.424156 -105.275748
v -434.169086 -4.521642 -105.315275
v -434.238053 -6.27762 -107.260246
v -434.292122 -8.121396 -108.785073
v -434.302053 -9.306681 -109.065132
v -418.711716 -2.732367 -102.170546
v -418.713393 -3.608126 -102.237568
v -418.752492 -5.00934 -103.800247
v -418.782487 -6.480615 -104.999085
v -418.787174 -7.426434 -105.186412
v -403.216518 -3.487897 -97.468042
v -403.217052 -4.605812 -97.504826
v -403.245662 -6.394477 -99.474243
v -403.268126 -8.272575 -101.02065
v -403.272296 -9.479924 -101.307693
v -387.743574 -3.169881 -93.948622
v -387.74377 -4.185869 -93.997929
v -387.750897 -5.811449 -95.789668
v -387.756446 -7.518308 -97.184756
v -387.757417 -8.615575 -97.428973
v -372.266596 -3.314833 -89.920387
v -372.266308 -4.37728 -89.963826
v -372.253945 -6.077194 -91.829231
v -372.24428 -7.862104 -93.287559
v -372.242539 -9.009547 -93.550254
v -356.80705 -4.204493 -85.079676
v -356.807301 -5.552087 -85.065176
v -356.767264 -7.708237 -87.380884
v -356.734907 -9.972195 -89.252428
v -356.727661 -11.427596 -89.671534
v -341.303985 -2.989581 -82.536488
v -341.302748 -3.94778 -82.580648
v -341.256133 -5.480898 -84.244998
v -341.219587 -7.090672 -85.549865
v -341.212782 -8.125527 -85.792814
v -325.819809 -2.893458 -78.770877
v -325.817496 -3.820848 -78.830515
v -325.754495 -5.304672 -80.454951
v -325.705872 -6.862688 -81.708643
v -325.697904 -7.864269 -81.914095
v -310.377949 -3.626066 -74.106849
v -310.376421 -4.788266 -74.137639
v -310.276582 -6.647787 -76.149807
v -310.197937 -8.600284 -77.734844
v -310.183025 -9.855461 -78.035375
v -294.865171 -3.013489 -70.90056
v -294.861866 -3.979351 -70.955192
v -294.760221 -5.524731 -72.635003
v -294.681458 -7.147379 -73.936677
v -294.668147 -8.19051 -74.156656
v -279.441618 -3.744533 -66.242826
v -279.439759 -4.944703 -66.268837
v -279.292235 -6.864976 -68.33327
v -279.175729 -8.881263 -69.963636
v -279.153269 -10.177448 -70.277936
v -263.951281 -3.530301 -62.605222
v -263.948456 -4.661808 -62.639484
v -263.78804 -6.472219 -64.58462
v -263.661953 -8.373151 -66.113503
v -263.63839 -9.595178 -66.399216
v -248.385288 -2.611112 -59.721938
v -248.378761 -3.448007 -59.791716
v -248.242827 -4.787039 -61.244939
v -248.139062 -6.193023 -62.354252
v -248.123512 -7.096869 -62.520497
v -232.992238 -3.428735 -54.976864
v -232.988261 -4.527688 -55.014865
v -232.791378 -6.286014 -56.895854
v -232.637008 -8.132256 -58.370689
v -232.608633 -9.319126 -58.641777
v -217.527496 -3.511959 -51.019394
v -217.523477 -4.637587 -51.054086
v -217.301061 -6.438592 -52.973783
v -217.126316 -8.329646 -54.482018
v -217.093755 -9.545325 -54.763058
v -202.022621 -3.283862 -47.393364
v -202.017109 -4.336381 -47.436725
v -201.788984 -6.020413 -49.231408
v -201.610789 -7.788646 -50.63328
v -201.578877 -8.925368 -50.884338
v -186.63992 -3.924416 -42.845096
v -186.637332 -5.182242 -42.863793
v -186.343146 -7.194763 -44.989025
v -186.109982 -9.307911 -46.673428
v -186.063998 -10.666362 -47.005618
v -171.034206 -3.062837 -39.888691
v -171.026481 -4.044516 -39.940262
v -170.776398 -5.615202 -41.6097
v -170.582305 -7.264422 -42.905367
v -170.54912 -8.324635 -43.126899
v -155.506841 -2.779952 -36.317133
v -155.49681 -3.670963 -36.379342
v -155.252127 -5.096579 -37.896859
v -155.064069 -6.593476 -39.063192
v -155.034241 -7.555768 -39.248179
v -140.194859 -3.719131 -31.458998
v -140.190308 -4.91116 -31.485343
v -139.844631 -6.818406 -33.486475
v -139.571782 -8.821015 -35.066007
v -139.519363 -10.108407 -35.36946
v -124.610281 -3.134744 -28.203839
v -124.601357 -4.13947 -28.252259
v -124.289342 -5.747032 -29.945175
v -124.046652 -7.434971 -31.261951
v -124.004485 -8.520075 -31.49074
v -109.221343 -3.571596 -23.877443
v -109.219376 -4.716338 -23.887481
v -108.849016 -6.547925 -25.777693
v -108.551382 -8.471092 -27.296735
v -108.489606 -9.707414 -27.61202
v -93.788471 -3.758604 -19.814105
v -93.783566 -4.963284 -19.837727
v -93.370416 -6.890774 -21.827567
v -93.040886 -8.914637 -23.414666
v -92.974728 -10.215692 -23.733301
v -78.019767 -2.454423 -17.302422
v -78.003623 -3.241097 -17.376009
v -77.711967 -4.499775 -18.705404
v -77.490927 -5.821388 -19.712925
v -77.459849 -6.670996 -19.854581
v -62.820415 -3.651474 -12.189596
v -62.813821 -4.821819 -12.218113
v -62.365535 -6.69437 -14.156935
v -62.01221 -8.660548 -15.685055
v -61.944971 -9.92452 -15.975862
v -47.461498 -4.103049 -7.854556
v -47.458688 -5.418129 -7.866116
v -46.932593 -7.522257 -10.030157
v -46.514268 -9.731592 -11.750893
v -46.430093 -11.151878 -12.097142
v -31.826007 -3.463089 -4.647625
v -31.816983 -4.573054 -4.683002
v -31.3497 -6.348997 -6.515005
v -30.983004 -8.213737 -7.952648
v -30.915214 -9.412499 -8.218422
v -16.483487 -3.944112 -0.284384
v -16.478839 -5.20825 -0.301786
v -15.925647 -7.230872 -2.372938
v -15.487038 -9.354624 -4.015089
v -15.400336 -10.719894 -4.339703
v -0.828889 -3.295838 2.918205
v -0.820453 -4.352197 2.887986
v -0.340659 -6.04237 1.169459
v 0.040577 -7.817052 -0.196053
v 0.114543 -8.957919 -0.460983
v 14.824566 -2.701997 6.180213
v 14.831087 -3.568022 6.157831
v 15.243133 -4.953661 4.74358
v 15.56665 -6.408583 3.633182
v 15.629421 -7.34389 3.417736
v 29.910209 -3.987385 11.361503
v 29.908529 -5.265392 11.367038
v 30.533305 -7.310205 9.309047
v 31.035473 -9.457258 7.654926
v 31.144299 -10.837507 7.296456
v 45.598512 -3.302983 14.532892
v 45.611389 -4.361632 14.49213
v 46.156545 -6.055469 12.766345
v 46.5826 -7.833998 11.417595
v 46.659178 -8.977339 11.175176
v 61.055666 -3.361072 18.460895
v 61.06831 -4.438338 18.422378
v 61.642749 -6.161965 16.67244
v 62.092378 -7.971773 15.302716
v 62.174056 -9.135221 15.053895
v 76.429212 -3.658021 22.629992
v 76.438601 -4.830464 22.602433
v 77.083623 -6.706373 20.709248
v 77.592082 -8.676076 19.216884
v 77.688935 -9.942315 18.932615
v 92.285567 -2.579362 25.41095
v 92.309153 -3.40608 25.344178
v 92.786261 -4.72883 23.993452
v 93.149956 -6.117717 22.963806
v 93.203813 -7.010573 22.811334
v 107.501711 -3.310412 30.01684
v 107.516353 -4.371441 29.976814
v 108.141797 -6.069088 28.267075
v 108.630697 -7.851617 26.9306
v 108.718692 -8.997529 26.690054
v 122.731299 -3.961197 34.538052
v 122.737483 -5.230811 34.521712
v 123.504622 -7.262194 32.49479
v 124.113057 -9.395146 30.887192
v 124.23357 -10.76633 30.568774
v 138.4735 -3.261808 37.706477
v 138.489755 -4.30726 37.664927
v 139.14537 -5.979982 35.989065
v 139.657177 -7.736341 34.680798
v 139.748448 -8.865428 34.447493
v 153.724642 -3.822857 42.134649
v 153.733218 -5.048131 42.113422
v 154.51988 -7.008571 40.166336
v 155.142134 -9.067032 38.62618
v 155.263327 -10.390329 38.326213
v 169.382993 -3.369095 45.551527
v 169.398608 -4.448933 45.514071
v 170.115166 -6.176674 43.795315
v 170.676152 -7.990802 42.449719
v 170.778205 -9.157027 42.204932
v 185.131903 -2.727406 48.784917
v 185.157831 -3.601574 48.724599
v 185.759551 -5.000244 47.324813
v 186.221081 -6.468847 46.251152
v 186.293084 -7.412949 46.083652
v 200.167961 -3.749685 53.665221
v 200.178437 -4.951508 53.641568
v 201.01745 -6.874423 51.747216
v 201.680124 -8.893485 50.251008
v 201.807962 -10.191453 49.962372
v 215.755842 -3.490015 57.277371
v 215.77081 -4.60861 57.244547
v 216.57453 -6.398361 55.482065
v 217.205652 -8.2776 54.098074
v 217.32284 -9.485682 53.841091
v 231.330247 -3.272705 60.932616
v 231.349221 -4.321649 60.892178
v 232.124304 -5.99996 59.240279
v 232.729556 -7.762185 57.950332
v 232.837719 -8.895045 57.719811
v 246.566116 -3.78296 65.301257
v 246.576859 -4.995447 65.27899
v 247.490534 -6.935427 63.385274
v 248.212673 -8.972405 61.888542
v 248.352597 -10.281891 61.59853
v 262.549654 -2.72351 68.135082
v 262.564497 -3.596431 68.105146
v 263.241122 -4.993103 66.740504
v 263.766224 -6.459608 65.681458
v 263.867476 -7.402362 65.47725
v 277.752757 -3.288837 72.555937
v 277.767486 -4.342951 72.527014
v 278.596025 -6.029534 70.90005
v 279.253101 -7.800446 69.609777
v 279.382354 -8.93889 69.35597
v 292.936547 -3.866328 76.985307
v 292.946556 -5.105535 76.966162
v 293.948587 -7.088267 75.049364
v 294.741882 -9.170136 73.531861
v 294.897232 -10.50848 73.234689
v 308.79662 -3.114243 80.125399
v 308.820959 -4.112397 80.08002
v 309.653241 -5.709445 78.528279
v 310.300204 -7.386345 77.322053
v 310.412111 -8.464352 77.113409
v 324.063454 -3.513668 84.380217
v 324.080682 -4.639843 84.348896
v 325.036259 -6.441724 82.611563
v 325.787051 -8.333699 81.246549
v 325.926989 -9.549968 80.992129
v 339.634709 -3.33429 88.07628
v 339.655828 -4.402972 88.03882
v 340.584325 -6.112864 86.391907
v 341.310576 -7.908251 85.103726
v 341.441868 -9.062428 84.870848
v 355.541987 -2.555484 91.198865
v 355.579144 -3.374549 91.134538
v 356.314572 -4.685053 89.86133
v 356.874585 -6.061083 88.891808
v 356.956746 -6.945674 88.749568
v 370.39621 -3.67173 96.136778
v 370.411341 -4.848567 96.111199
v 371.473886 -6.731506 94.314966
v 372.311721 -8.708591 92.898605
v 372.471624 -9.979575 92.628287
v 385.87618 -3.658254 99.991989
v 385.880369 -4.830771 99.985071
v 386.94923 -6.706799 98.219956
v 387.805631 -8.676628 96.805699
v 387.986503 -9.942946 96.507007
v 401.732495 -3.005801 103.240423
v 401.762413 -3.969199 103.19214
v 402.675076 -5.510636 101.71925
v 403.382116 -7.129144 100.578201
v 403.501381 -8.169613 100.385727
v 416.805341 -3.684155 107.752688
v 416.821137 -4.864973 107.727768
v 417.95292 -6.754283 105.942113
v 418.845592 -8.738059 104.533715
v 419.01626 -10.013343 104.264446
v 432.736271 -2.934034 110.91265
v 432.768959 -3.87443 110.862214
v 433.695991 -5.379063 109.4318
v 434.412451 -6.958927 108.3263
v 434.531138 -7.974555 108.143166
v 447.98589 -3.304849 115.131783
v 448.010843 -4.364095 115.094114
v 449.069675 -6.058889 113.495737
v 449.897224 -7.838423 112.246497
v 450.046016 -8.98241 112.021885
v 462.80805 -4.335261 119.967532
v 462.809819 -5.724767 119.964919
v 464.211605 -7.947978 117.893983
v 465.330496 -10.282349 116.240985
v 465.560895 -11.783017 115.900605
v 478.975197 -3.248578 122.817389
v 479.002396 -4.289789 122.778051
v 480.082745 -5.955726 121.215541
v 480.925815 -7.70496 119.996209
v 481.075773 -8.829468 119.779325
v 494.357634 -3.392412 126.820763
v 494.3819 -4.479724 126.786394
v 495.52844 -6.219423 125.1625
v 496.426591 -8.046106 123.89041
v 496.590652 -9.220403 123.658044
v 509.882737 -3.318278 130.620724
v 509.889139 -4.381828 130.611842
v 511.022288 -6.083509 129.039681
v 511.917357 -7.870274 127.79784
v 512.10553 -9.018908 127.536764
vt 0.05337377 0.90349379
vt 0.05337377 0.90261039
vt 0.05337377 0.90119695
vt 0.05337377 0.89971284
vt 0.05337377 0.89875877
vt 0.0689916 0.903127
vt 0.0689916 0.90212604
vt 0.0689916 0.90052451
vt 0.0689916 0.89884289
vt 0.0689916 0.89776186
vt 0.08460942 0.90288239
vt 0.08460942 0.90180303
vt 0.08460942 0.90007605
vt 0.08460942 0.89826272
vt 0.08460942 0.89709701
vt 0.10022725 0.90333172
vt 0.10022725 0.90239637
vt 0.10022725 0.90089982
vt 0.10022725 0.89932844
vt 0.10022725 0.89831826
vt 0.11584507 0.90243352
vt 0.11584507 0.90121029
vt 0.11584507 0.89925312
vt 0.11584507 0.8971981
vt 0.11584507 0.89587701
vt 0.13146289 0.9029061
vt 0.13146289 0.90183433
vt 0.13146289 0.90011951
vt 0.13146289 0.89831895
vt 0.13146289 0.89716144
vt 0.14708072 0.90358167
vt 0.14708072 0.90272644
vt 0.14708072 0.90135807
vt 0.14708072 0.89992127
vt 0.14708072 0.89899762
vt 0.16269854 0.90284385
vt 0.16269854 0.90175214
vt 0.16269854 0.90000539
vt 0.16269854 0.89817131
vt 0.16269854 0.89699226
vt 0.17831637 0.90315441
vt 0.17831637 0.90216224
vt 0.17831637 0.90057476
vt 0.17831637 0.8989079
vt 0.17831637 0.89783635
vt 0.19393419 0.90301286
vt 0.19393419 0.90197531
vt 0.19393419 0.90031524
vt 0.19393419 0.89857216
vt 0.19393419 0.89745161
vt 0.20955202 0.90214405
vt 0.20955202 0.90082804
vt 0.20955202 0.89872242
vt 0.20955202 0.89651153
vt 0.20955202 0.89509024
vt 0.22516984 0.90333049
vt 0.22516984 0.90239475
vt 0.22516984 0.90089756
vt 0.22516984 0.89932552
vt 0.22516984 0.89831491
vt 0.24078766 0.90342436
vt 0.24078766 0.9025187
vt 0.24078766 0.90106966
vt 0.24078766 0.89954816
vt 0.24078766 0.89857005
vt 0.25640549 0.90270892
vt 0.25640549 0.90157396
vt 0.25640549 0.89975802
vt 0.25640549 0.89785128
vt 0.25640549 0.89662553
vt 0.27202331 0.90330714
vt 0.27202331 0.90236391
vt 0.27202331 0.90085476
vt 0.27202331 0.89927014
vt 0.27202331 0.89825146
vt 0.28764114 0.90259323
vt 0.28764114 0.90142119
vt 0.28764114 0.89954592
vt 0.28764114 0.89757689
vt 0.28764114 0.89631109
vt 0.30325896 0.90280244
vt 0.30325896 0.90169745
vt 0.30325896 0.89992947
vt 0.30325896 0.89807309
vt 0.30325896 0.89687971
vt 0.31887679 0.90370009
vt 0.31887679 0.90288281
vt 0.31887679 0.90157516
vt 0.31887679 0.90020213
vt 0.31887679 0.89931946
vt 0.33449461 0.90290163
vt 0.33449461 0.90182843
vt 0.33449461 0.90011131
vt 0.33449461 0.89830834
vt 0.33449461 0.89714929
vt 0.35011243 0.90282035
vt 0.35011243 0.90172111
vt 0.35011243 0.89996231
vt 0.35011243 0.89811558
vt 0.35011243 0.89692839
vt 0.36573026 0.9030431
vt 0.36573026 0.90201525
vt 0.36573026 0.90037069
vt 0.36573026 0.8986439
vt 0.36573026 0.89753382
vt 0.38134808 0.90241756
vt 0.38134808 0.90118922
vt 0.38134808 0.89922386
vt 0.38134808 0.89716024
vt 0.38134808 0.89583363
vt 0.39696591 0.90325895
vt 0.39696591 0.90230028
vt 0.39696591 0.9007664
vt 0.39696591 0.89915584
vt 0.39696591 0.89812047
vt 0.41258373 0.9035352
vt 0.41258373 0.90266508
vt 0.41258373 0.90127287
vt 0.41258373 0.89981106
vt 0.41258373 0.89887132
vt 0.42820156 0.90261804
vt 0.42820156 0.90145395
vt 0.42820156 0.8995914
vt 0.42820156 0.89763573
vt 0.42820156 0.89637851
vt 0.44381938 0.90318873
vt 0.44381938 0.90220755
vt 0.44381938 0.90063766
vt 0.44381938 0.89898929
vt 0.44381938 0.89792961
vt 0.45943721 0.90276211
vt 0.45943721 0.9016442
vt 0.45943721 0.89985554
vt 0.45943721 0.89797745
vt 0.45943721 0.8967701
vt 0.47505503 0.90257949
vt 0.47505503 0.90140304
vt 0.47505503 0.89952073
vt 0.47505503 0.8975443
vt 0.47505503 0.89627374
vt 0.49067285 0.9038531
vt 0.49067285 0.90308487
vt 0.49067285 0.90185569
vt 0.49067285 0.90056505
vt 0.49067285 0.89973536
vt 0.50629068 0.90268411
vt 0.50629068 0.90154119
vt 0.50629068 0.89971253
vt 0.50629068 0.89779243
vt 0.50629068 0.89655809
vt 0.5219085 0.90224312
vt 0.5219085 0.90095886
vt 0.5219085 0.89890405
vt 0.5219085 0.89674649
vt 0.5219085 0.89535949
vt 0.53752633 0.90286808
vt 0.53752633 0.90178413
vt 0.53752633 0.90004981
vt 0.53752633 0.89822877
vt 0.53752633 0.89705811
vt 0.55314415 0.90239833
vt 0.55314415 0.90116382
vt 0.55314415 0.8991886
vt 0.55314415 0.89711462
vt 0.55314415 0.89578135
vt 0.56876198 0.90303141
vt 0.56876198 0.90199981
vt 0.56876198 0.90034925
vt 0.56876198 0.89861616
vt 0.56876198 0.89750203
vt 0.5843798 0.90361133
vt 0.5843798 0.9027656
vt 0.5843798 0.90141244
vt 0.5843798 0.89999162
vt 0.5843798 0.89907823
vt 0.59999762 0.90235607
vt 0.59999762 0.90110802
vt 0.59999762 0.89911113
vt 0.59999762 0.8970144
vt 0.59999762 0.8956665
vt 0.61561545 0.90302443
vt 0.61561545 0.90199059
vt 0.61561545 0.90033646
vt 0.61561545 0.89859961
vt 0.61561545 0.89748307
vt 0.63123327 0.9029677
vt 0.63123327 0.90191569
vt 0.63123327 0.90023246
vt 0.63123327 0.89846507
vt 0.63123327 0.89732889
vt 0.6468511 0.90267771
vt 0.6468511 0.90153275
vt 0.6468511 0.89970081
vt 0.6468511 0.89777727
vt 0.6468511 0.89654071
vt 0.66246892 0.90373109
vt 0.66246892 0.90292375
vt 0.66246892 0.901632
vt 0.66246892 0.90027567
vt 0.66246892 0.89940374
vt 0.67808675 0.90301718
vt 0.67808675 0.90198101
vt 0.67808675 0.90032316
vt 0.67808675 0.8985824
vt 0.67808675 0.89746335
vt 0.69370457 0.90238164
vt 0.69370457 0.90114179
vt 0.69370457 0.89915801
vt 0.69370457 0.89707505
vt 0.69370457 0.89573601
vt 0.70932239 0.90306464
vt 0.70932239 0.90204369
vt 0.70932239 0.90041017
vt 0.70932239 0.89869498
vt 0.70932239 0.89759236
vt 0.72494022 0.90251674
vt 0.72494022 0.90132018
vt 0.72494022 0.89940569
vt 0.72494022 0.89739548
vt 0.72494022 0.89610319
vt 0.74055804 0.90295987
vt 0.74055804 0.90190534
vt 0.74055804 0.90021809
vt 0.74055804 0.89844648
vt 0.74055804 0.89730759
vt 0.75617587 0.90358652
vt 0.75617587 0.90273284
vt 0.75617587 0.90136695
vt 0.75617587 0.89993277
vt 0.75617587 0.89901079
vt 0.77179369 0.9025882
vt 0.77179369 0.90141454
vt 0.77179369 0.8995367
vt 0.77179369 0.89756496
vt 0.77179369 0.89629741
vt 0.78741152 0.90284178
vt 0.78741152 0.9017494
vt 0.78741152 0.9000016
vt 0.78741152 0.89816641
vt 0.78741152 0.89698664
vt 0.80302934 0.903054
vt 0.80302934 0.90202964
vt 0.80302934 0.90039066
vt 0.80302934 0.89866974
vt 0.80302934 0.89756343
vt 0.81864716 0.9025557
vt 0.81864716 0.90137163
vt 0.81864716 0.89947712
vt 0.81864716 0.89748789
vt 0.81864716 0.89620909
vt 0.83426499 0.90359032
vt 0.83426499 0.90273786
vt 0.83426499 0.90137392
vt 0.83426499 0.89994179
vt 0.83426499 0.89902113
vt 0.84988281 0.90303825
vt 0.84988281 0.90200884
vt 0.84988281 0.90036178
vt 0.84988281 0.89863238
vt 0.84988281 0.89752062
vt 0.86550064 0.90247429
vt 0.86550064 0.90126413
vt 0.86550064 0.89932786
vt 0.86550064 0.89729479
vt 0.86550064 0.89598781
vt 0.88111846 0.90320875
vt 0.88111846 0.90223399
vt 0.88111846 0.90067437
vt 0.88111846 0.89903677
vt 0.88111846 0.89798403
vt 0.89673629 0.90281868
vt 0.89673629 0.9017189
vt 0.89673629 0.89995925
vt 0.89673629 0.89811162
vt 0.89673629 0.89692386
vt 0.91235411 0.90299386
vt 0.91235411 0.90195022
vt 0.91235411 0.90028041
vt 0.91235411 0.8985271
vt 0.91235411 0.89739997
vt 0.92797194 0.90375441
vt 0.92797194 0.90295454
vt 0.92797194 0.90167475
vt 0.92797194 0.90033097
vt 0.92797194 0.89946712
vt 0.94358976 0.90266433
vt 0.94358976 0.90151507
vt 0.94358976 0.89967626
vt 0.94358976 0.89774552
vt 0.94358976 0.89650432
vt 0.95920758 0.90267749
vt 0.95920758 0.90153245
vt 0.95920758 0.89970039
vt 0.95920758 0.89777673
vt 0.95920758 0.89654009
vt 0.97482541 0.90331465
vt 0.97482541 0.90237383
vt 0.97482541 0.90086852
vt 0.97482541 0.89928795
vt 0.97482541 0.89827186
vt 0.99044323 0.90265219
vt 0.99044323 0.90149905
vt 0.99044323 0.89965402
vt 0.99044323 0.89771674
vt 0.99044323 0.89647134
vt 1.00606106 0.90338473
vt 1.00606106 0.90246638
vt 1.00606106 0.90099701
vt 1.00606106 0.89945417
vt 1.00606106 0.89846235
vt 1.02167888 0.90302261
vt 1.02167888 0.90198819
vt 1.02167888 0.90033312
vt 1.02167888 0.89859529
vt 1.02167888 0.89747812
vt 1.03729671 0.90201635
vt 1.03729671 0.90065941
vt 1.03729671 0.8984883
vt 1.03729671 0.89620864
vt 1.03729671 0.89474315
vt 1.05291453 0.90307756
vt 1.05291453 0.90206075
vt 1.05291453 0.90043386
vt 1.05291453 0.89872562
vt 1.05291453 0.89762747
vt 1.06853235 0.9029371
vt 1.06853235 0.90187527
vt 1.06853235 0.90017634
vt 1.06853235 0.89839247
vt 1.06853235 0.8972457
vt 1.08415018 0.90300949
vt 1.08415018 0.90197087
vt 1.08415018 0.90030907
vt 1.08415018 0.89856419
vt 1.08415018 0.89744247
vn -0.267292 -0.045115 0.962559
vn -0.268789 -0.066781 0.960881
vn -0.206186 -0.722651 0.659745
vn -0.206132 -0.724167 0.658096
vn -0.227004 -0.614666 0.755417
vn -0.226963 -0.611958 0.757625
vn -0.251294 -0.211089 0.944613
vn -0.249897 -0.192154 0.949014
vn -0.258679 -0.003968 0.965955
vn -0.261782 -0.045208 0.964068
vn -0.195309 -0.720789 0.66507
vn -0.195224 -0.72475 0.660776
vn -0.216673 -0.619945 0.754136
vn -0.21662 -0.616573 0.756911
vn -0.248098 -0.254475 0.934714
vn -0.245774 -0.211495 0.945973
vn -0.210679 -0.050066 0.976272
vn -0.209521 -0.004031 0.977796
vn -0.11424 -0.73562 0.667692
vn -0.114386 -0.732901 0.670651
vn -0.142583 -0.624869 0.767599
vn -0.142159 -0.631134 0.762536
vn -0.216807 -0.223324 0.950327
vn -0.214819 -0.257159 0.94219
vn -0.301206 -0.015171 0.953438
vn -0.305126 -0.048483 0.951077
vn -0.262675 -0.709505 0.653914
vn -0.262687 -0.710188 0.653169
vn -0.277234 -0.609154 0.743016
vn -0.276608 -0.602855 0.748368
vn -0.272255 -0.235104 0.933061
vn -0.269768 -0.219576 0.937556
vn -0.209626 -0.034926 0.977158
vn -0.208995 -0.015632 0.977792
vn -0.11281 -0.735518 0.668048
vn -0.112841 -0.734252 0.669433
vn -0.141004 -0.628479 0.764939
vn -0.140887 -0.630964 0.762913
vn -0.217192 -0.222735 0.950377
vn -0.216361 -0.239205 0.946556
vn -0.193217 -0.074502 0.978323
vn -0.193182 -0.035069 0.980536
vn -0.088892 -0.74047 0.666185
vn -0.089101 -0.737723 0.669198
vn -0.120976 -0.625557 0.770742
vn -0.120455 -0.630565 0.766732
vn -0.213987 -0.188764 0.958425
vn -0.210889 -0.223103 0.951709
vn -0.291658 -0.031317 0.95601
vn -0.295583 -0.072335 0.952575
vn -0.245719 -0.715786 0.653661
vn -0.245675 -0.718643 0.650535
vn -0.262836 -0.611419 0.746381
vn -0.262524 -0.606301 0.750653
vn -0.266185 -0.222084 0.937989
vn -0.261425 -0.186281 0.947078
vn -0.220621 -0.047237 0.974215
vn -0.220098 -0.031974 0.974954
vn -0.131118 -0.73396 0.666417
vn -0.131163 -0.732916 0.667555
vn -0.158355 -0.624554 0.764758
vn -0.158264 -0.626503 0.763182
vn -0.224925 -0.211496 0.951146
vn -0.224538 -0.224659 0.948215
vn -0.252031 -0.039601 0.966909
vn -0.252483 -0.046855 0.966466
vn -0.18147 -0.727459 0.661719
vn -0.181454 -0.727959 0.661173
vn -0.204229 -0.620032 0.75753
vn -0.204228 -0.619112 0.758282
vn -0.242382 -0.21686 0.945633
vn -0.242126 -0.210584 0.947116
vn -0.298258 0.010325 0.954429
vn -0.304538 -0.038994 0.951702
vn -0.261507 -0.708654 0.655305
vn -0.26168 -0.71424 0.649142
vn -0.276897 -0.614583 0.738658
vn -0.276295 -0.608972 0.743515
vn -0.276523 -0.267202 0.923113
vn -0.268304 -0.215369 0.938951
vn -0.158226 -0.045662 0.986347
vn -0.159292 0.010651 0.987174
vn -0.032321 -0.735575 0.676671
vn -0.032555 -0.731764 0.680781
vn -0.066206 -0.629223 0.774399
vn -0.065245 -0.636344 0.768641
vn -0.186272 -0.225714 0.95622
vn -0.178206 -0.27311 0.945332
vn -0.235466 -0.062956 0.969841
vn -0.234783 -0.045054 0.971003
vn -0.15457 -0.732444 0.663049
vn -0.154792 -0.7288 0.667
vn -0.179662 -0.620108 0.763667
vn -0.179585 -0.621918 0.762212
vn -0.232893 -0.197196 0.9523
vn -0.232841 -0.223722 0.946432
vn -0.29016 -0.025726 0.956632
vn -0.293786 -0.062073 0.953854
vn -0.243105 -0.718365 0.651806
vn -0.243084 -0.72087 0.649043
vn -0.260414 -0.61482 0.744433
vn -0.260119 -0.610246 0.74829
vn -0.265555 -0.227474 0.936876
vn -0.261429 -0.195951 0.945123
vn -0.199969 -0.056014 0.9782
vn -0.199562 -0.026213 0.979535
vn -0.099189 -0.735295 0.670449
vn -0.099307 -0.733236 0.672684
vn -0.129329 -0.624294 0.77041
vn -0.129017 -0.628125 0.767342
vn -0.214678 -0.204156 0.955109
vn -0.212746 -0.229911 0.949674
vn -0.289949 -0.021186 0.956808
vn -0.293455 -0.054987 0.95439
vn -0.242915 -0.718874 0.651316
vn -0.242913 -0.721178 0.648765
vn -0.260138 -0.61616 0.743421
vn -0.259839 -0.611887 0.747047
vn -0.265682 -0.231528 0.935846
vn -0.26183 -0.202344 0.943664
vn -0.228115 -0.030038 0.973171
vn -0.227683 -0.021451 0.973499
vn -0.143149 -0.730324 0.667934
vn -0.14316 -0.729749 0.66856
vn -0.168563 -0.624524 0.762598
vn -0.168541 -0.625639 0.761689
vn -0.227671 -0.225844 0.947185
vn -0.227603 -0.23319 0.94542
vn -0.176751 -0.08315 0.980737
vn -0.177557 -0.030229 0.983646
vn -0.065618 -0.736876 0.672836
vn -0.065949 -0.733115 0.676899
vn -0.099745 -0.62085 0.777558
vn -0.098861 -0.62763 0.772209
vn -0.207502 -0.18041 0.961455
vn -0.201714 -0.226669 0.952855
vn -0.296064 -0.03408 0.95456
vn -0.300654 -0.081574 0.950238
vn -0.25127 -0.720069 0.646811
vn -0.251189 -0.723426 0.643085
vn -0.268379 -0.614839 0.741583
vn -0.268026 -0.608863 0.746624
vn -0.268547 -0.220589 0.937669
vn -0.262665 -0.178913 0.948155
vn -0.247952 -0.030727 0.968285
vn -0.248191 -0.034375 0.968101
vn -0.174927 -0.72808 0.662797
vn -0.174922 -0.728329 0.662524
vn -0.197885 -0.622314 0.757342
vn -0.197883 -0.621843 0.757729
vn -0.239651 -0.224764 0.944483
vn -0.239544 -0.221628 0.945251
vn -0.22695 -0.041275 0.973031
vn -0.226507 -0.030812 0.973522
vn -0.141578 -0.730801 0.667747
vn -0.141605 -0.730078 0.668531
vn -0.167587 -0.622782 0.764236
vn -0.16754 -0.624135 0.763142
vn -0.227968 -0.216084 0.949388
vn -0.227836 -0.225104 0.947322
vn -0.284077 -0.014835 0.958687
vn -0.286832 -0.040932 0.957106
vn -0.233383 -0.721971 0.651375
vn -0.233398 -0.723718 0.649429
vn -0.251271 -0.620118 0.74318
vn -0.251035 -0.616767 0.746042
vn -0.26222 -0.237591 0.935303
vn -0.259514 -0.215217 0.941453
vn -0.183045 -0.053011 0.981674
vn -0.182999 -0.014988 0.982999
vn -0.073547 -0.731822 0.677515
vn -0.073697 -0.729198 0.680323
vn -0.105329 -0.621977 0.775919
vn -0.104832 -0.626927 0.771993
vn -0.205021 -0.206333 0.956762
vn -0.201383 -0.239097 0.949883
vn -0.222389 -0.070396 0.972413
vn -0.221976 -0.052894 0.973616
vn -0.13525 -0.732924 0.666731
vn -0.135343 -0.731657 0.668102
vn -0.163051 -0.619063 0.768229
vn -0.162902 -0.621309 0.766445
vn -0.228154 -0.190616 0.954783
vn -0.227715 -0.205984 0.951691
vn -0.303583 -0.022211 0.952546
vn -0.308924 -0.069703 0.948529
vn -0.263439 -0.720633 0.641317
vn -0.263416 -0.723924 0.63761
vn -0.279436 -0.617801 0.735009
vn -0.278947 -0.611788 0.740205
vn -0.274096 -0.231197 0.933499
vn -0.267414 -0.189892 0.944686
vn -0.202455 -0.048933 0.978068
vn -0.20196 -0.022411 0.979137
vn -0.103768 -0.730716 0.674749
vn -0.103863 -0.728868 0.676731
vn -0.132973 -0.621438 0.772096
vn -0.13272 -0.624894 0.769346
vn -0.215023 -0.209476 0.953879
vn -0.213442 -0.232362 0.948921
vn -0.270868 -0.008906 0.962575
vn -0.274348 -0.04872 0.960395
vn -0.213761 -0.722155 0.657874
vn -0.213648 -0.727767 0.651697
vn -0.233521 -0.624695 0.745133
vn -0.233334 -0.618742 0.750143
vn -0.255692 -0.250872 0.93364
vn -0.252204 -0.209014 0.944832
vn -0.254789 -0.019994 0.96679
vn -0.253896 -0.008917 0.96719
vn -0.185673 -0.724767 0.663505
vn -0.185678 -0.723599 0.664776
vn -0.206105 -0.624392 0.753429
vn -0.206143 -0.625968 0.752109
vn -0.242074 -0.242395 0.939492
vn -0.2425 -0.251094 0.937094
vn -0.148909 -0.095125 0.984265
vn -0.151977 -0.019995 0.988182
vn -0.027179 -0.728859 0.684124
vn -0.027998 -0.720888 0.692486
vn -0.063801 -0.611755 0.78847
vn -0.062035 -0.622127 0.780454
vn -0.196485 -0.168244 0.965965
vn -0.182755 -0.242626 0.95275
vn -0.32049 -0.024878 0.946925
vn -0.328905 -0.094642 0.939609
vn -0.288867 -0.721137 0.629697
vn -0.288791 -0.726045 0.624066
vn -0.303332 -0.618131 0.725192
vn -0.302493 -0.609343 0.732939
vn -0.284301 -0.229302 0.93091
vn -0.272092 -0.167931 0.947505
vn -0.271872 -0.00904 0.962291
vn -0.273495 -0.02497 0.961549
vn -0.213508 -0.725864 0.653862
vn -0.213525 -0.72691 0.652693
vn -0.232828 -0.624637 0.745399
vn -0.232698 -0.622537 0.747194
vn -0.254416 -0.243264 0.936
vn -0.253114 -0.229683 0.939776
vn -0.199525 -0.032836 0.979342
vn -0.198937 -0.009039 0.979971
vn -0.098999 -0.726981 0.679484
vn -0.09905 -0.725364 0.681202
vn -0.127643 -0.621199 0.773188
vn -0.127452 -0.624364 0.770666
vn -0.210963 -0.222936 0.951732
vn -0.209489 -0.243297 0.947059
vn -0.273928 -0.014245 0.961645
vn -0.275766 -0.032861 0.960663
vn -0.21632 -0.726754 0.651947
vn -0.216326 -0.728003 0.650549
vn -0.235677 -0.624461 0.744651
vn -0.235543 -0.622021 0.746733
vn -0.255631 -0.238966 0.936775
vn -0.254074 -0.223021 0.941121
vn -0.199162 -0.029611 0.979519
vn -0.198844 -0.01422 0.979928
vn -0.099683 -0.723185 0.683423
vn -0.0996 -0.725049 0.681457
vn -0.12816 -0.621933 0.772512
vn -0.128078 -0.623078 0.771602
vn -0.210283 -0.234057 0.949209
vn -0.209914 -0.23876 0.948119
vn -0.202958 -0.026825 0.97882
vn -0.202988 -0.029619 0.978733
vn -0.10572 -0.725516 0.680036
vn -0.105883 -0.723575 0.682076
vn -0.134019 -0.619882 0.773166
vn -0.133787 -0.622226 0.771321
vn -0.212909 -0.232869 0.948916
vn -0.212807 -0.234088 0.948639
vn -0.324485 0.004523 0.94588
vn -0.329139 -0.026873 0.943899
vn -0.29743 -0.720892 0.62598
vn -0.297446 -0.723852 0.622546
vn -0.310248 -0.624659 0.716622
vn -0.30964 -0.619431 0.721407
vn -0.290868 -0.261925 0.920212
vn -0.28496 -0.233283 0.929719
vn -0.196301 -0.040111 0.979723
vn -0.195434 0.004504 0.980707
vn -0.094006 -0.725206 0.682085
vn -0.094208 -0.720373 0.687159
vn -0.122192 -0.618141 0.776512
vn -0.121812 -0.623477 0.772294
vn -0.208281 -0.216197 0.953875
vn -0.204537 -0.261137 0.943384
vn -0.246253 -0.037518 0.968479
vn -0.246417 -0.040281 0.968326
vn -0.17196 -0.729466 0.662049
vn -0.171953 -0.729661 0.661836
vn -0.195474 -0.622256 0.758016
vn -0.195478 -0.621894 0.758311
vn -0.238915 -0.219089 0.946002
vn -0.238848 -0.216696 0.94657
vn -0.262098 -0.024775 0.964723
vn -0.263132 -0.037557 0.964028
vn -0.196851 -0.729152 0.655429
vn -0.196836 -0.730038 0.654447
vn -0.218084 -0.624506 0.749954
vn -0.218044 -0.622827 0.751361
vn -0.248089 -0.230225 0.940982
vn -0.247354 -0.219211 0.943802
vn -0.166583 -0.084102 0.982434
vn -0.168048 -0.024509 0.985474
vn -0.054117 -0.722909 0.688821
vn -0.054532 -0.718511 0.693374
vn -0.088435 -0.608049 0.788959
vn -0.087319 -0.615816 0.783037
vn -0.202898 -0.17671 0.963123
vn -0.195139 -0.229022 0.953661
vn -0.291246 -0.040076 0.955808
vn -0.295301 -0.085283 0.95159
vn -0.240808 -0.731344 0.638081
vn -0.240672 -0.734604 0.634377
vn -0.259608 -0.623883 0.737139
vn -0.259382 -0.618072 0.742097
vn -0.26507 -0.217544 0.939368
vn -0.260039 -0.177761 0.949095
vn -0.285106 -0.013723 0.958398
vn -0.287956 -0.040068 0.956805
vn -0.233164 -0.729572 0.64293
vn -0.233167 -0.731361 0.640893
vn -0.251547 -0.627272 0.737057
vn -0.251319 -0.623807 0.74007
vn -0.262756 -0.240107 0.934509
vn -0.259993 -0.217456 0.940806
vn -0.195346 -0.041979 0.979836
vn -0.194899 -0.013571 0.980729
vn -0.094226 -0.72281 0.684593
vn -0.094322 -0.720804 0.686692
vn -0.123401 -0.615678 0.778276
vn -0.123111 -0.619466 0.77531
vn -0.209975 -0.214095 0.953978
vn -0.207923 -0.238562 0.948608
vn -0.279417 -0.018586 0.95999
vn -0.281793 -0.042477 0.958534
vn -0.22378 -0.730551 0.645149
vn -0.223767 -0.732197 0.643285
vn -0.243021 -0.627149 0.740017
vn -0.24286 -0.624005 0.742722
vn -0.258922 -0.236027 0.936617
vn -0.256717 -0.215433 0.94217
vn -0.21203 -0.03694 0.976565
vn -0.211431 -0.018409 0.97722
vn -0.119595 -0.724689 0.678618
vn -0.119647 -0.723382 0.680003
vn -0.146722 -0.618163 0.772235
vn -0.146595 -0.620638 0.770272
vn -0.218902 -0.218749 0.950911
vn -0.21816 -0.234708 0.947269
vn -0.197706 -0.073313 0.977516
vn -0.197586 -0.036836 0.979593
vn -0.099853 -0.724987 0.681486
vn -0.100076 -0.722274 0.684328
vn -0.130102 -0.611483 0.780488
vn -0.129626 -0.616262 0.7768
vn -0.216108 -0.186516 0.958389
vn -0.21348 -0.218543 0.95219
vn -0.309965 -0.021408 0.950507
vn -0.316288 -0.074636 0.945723
vn -0.270238 -0.732946 0.624309
vn -0.270173 -0.736667 0.619942
vn -0.286664 -0.629352 0.722316
vn -0.286113 -0.622478 0.728464
vn -0.277816 -0.23452 0.931568
vn -0.269782 -0.188122 0.944366
vn -0.225134 -0.031588 0.973816
vn -0.224649 -0.021131 0.974211
vn -0.139655 -0.725913 0.673459
vn -0.139678 -0.725177 0.674247
vn -0.165123 -0.620216 0.766855
vn -0.165081 -0.621617 0.765729
vn -0.226059 -0.223608 0.948101
vn -0.225911 -0.23261 0.945969
vn -0.227739 -0.041623 0.972832
vn -0.227315 -0.031602 0.973308
vn -0.143785 -0.727122 0.671282
vn -0.143818 -0.7264 0.672056
vn -0.169415 -0.61935 0.766618
vn -0.169365 -0.620681 0.765553
vn -0.228481 -0.215026 0.949505
vn -0.228365 -0.223709 0.947525
vn -0.276193 -0.020093 0.960892
vn -0.278296 -0.042027 0.959575
vn -0.218215 -0.732377 0.644985
vn -0.218195 -0.733902 0.643257
vn -0.238011 -0.628489 0.740508
vn -0.237885 -0.625583 0.743005
vn -0.256816 -0.235057 0.93744
vn -0.254942 -0.216126 0.942493
vn -0.172098 -0.036686 0.984396
vn -0.172374 -0.019613 0.984836
vn -0.061199 -0.712558 0.698939
vn -0.061263 -0.711836 0.699668
vn -0.093896 -0.604747 0.790863
vn -0.093078 -0.610769 0.786319
vn -0.19583 -0.227643 0.95385
vn -0.195196 -0.231908 0.952952
vn -0.28013 -0.030241 0.959486
vn -0.280788 -0.037664 0.95903
vn -0.22334 -0.731342 0.644405
vn -0.223204 -0.734399 0.640966
vn -0.242619 -0.62847 0.739027
vn -0.242507 -0.623552 0.743218
vn -0.258114 -0.238052 0.936327
vn -0.257442 -0.230893 0.938303
vn -0.280603 -0.017093 0.959672
vn -0.281966 -0.030252 0.958947
vn -0.224454 -0.733575 0.641473
vn -0.22447 -0.731426 0.643916
vn -0.242793 -0.63013 0.737555
vn -0.242705 -0.628477 0.738993
vn -0.258143 -0.237879 0.936363
vn -0.258162 -0.238054 0.936313
vn -0.191734 -0.049238 0.980211
vn -0.191454 -0.016708 0.981359
vn -0.090492 -0.717859 0.690282
vn -0.090634 -0.715489 0.69272
vn -0.120001 -0.609816 0.783406
vn -0.119615 -0.614172 0.780055
vn -0.209143 -0.206701 0.95579
vn -0.206513 -0.234877 0.949834
vn -0.269087 -0.030889 0.96262
vn -0.270676 -0.050306 0.961355
vn -0.206461 -0.733675 0.647375
vn -0.206416 -0.735063 0.645813
vn -0.227524 -0.627514 0.74462
vn -0.227473 -0.624944 0.746794
vn -0.252256 -0.22585 0.940935
vn -0.250918 -0.208984 0.94518
vn -0.230354 -0.038635 0.97234
vn -0.229982 -0.030571 0.972715
vn -0.147911 -0.726578 0.670974
vn -0.147937 -0.725995 0.671599
vn -0.173079 -0.619426 0.765738
vn -0.173044 -0.620505 0.764872
vn -0.229746 -0.217538 0.948627
vn -0.229697 -0.224525 0.94701
vn -0.187894 -0.08537 0.978472
vn -0.188329 -0.038121 0.981366
vn -0.087604 -0.719003 0.689463
vn -0.087948 -0.715392 0.693166
vn -0.119038 -0.603796 0.788201
vn -0.118298 -0.610016 0.783509
vn -0.213273 -0.174385 0.961304
vn -0.208936 -0.216201 0.953731
vn -0.317025 -0.024683 0.948096
vn -0.324759 -0.088685 0.94163
vn -0.278752 -0.740575 0.61143
vn -0.278615 -0.74509 0.605982
vn -0.295321 -0.635935 0.713002
vn -0.294673 -0.627634 0.720585
vn -0.281598 -0.233377 0.930719
vn -0.271186 -0.177312 0.946054
vn -0.241653 -0.006588 0.97034
vn -0.242829 -0.024201 0.969767
vn -0.166691 -0.724374 0.668952
vn -0.166592 -0.728202 0.664807
vn -0.189908 -0.625743 0.756559
vn -0.189921 -0.623686 0.758252
vn -0.235944 -0.25489 0.937743
vn -0.235496 -0.230436 0.944161
vn -0.198212 -0.055201 0.978604
vn -0.197593 -0.006489 0.980263
vn -0.100205 -0.717746 0.689057
vn -0.100607 -0.711577 0.695368
vn -0.128052 -0.608218 0.783373
vn -0.127525 -0.614439 0.77859
vn -0.211649 -0.201186 0.956415
vn -0.207407 -0.252548 0.945094
vn -0.287699 -0.024054 0.957419
vn -0.291033 -0.056901 0.955019
vn -0.234422 -0.738231 0.632504
vn -0.234363 -0.740557 0.629801
vn -0.253654 -0.633258 0.731194
vn -0.253449 -0.628903 0.735013
vn -0.263678 -0.232932 0.936064
vn -0.260207 -0.204394 0.943671
vn -0.191539 -0.059202 0.979698
vn -0.19141 -0.023269 0.981234
vn -0.091754 -0.715213 0.692858
vn -0.091949 -0.712519 0.695601
vn -0.121461 -0.605465 0.786549
vn -0.120992 -0.610271 0.782899
vn -0.210717 -0.197266 0.957436
vn -0.207731 -0.228618 0.951095
vn -0.26735 -0.040535 0.962747
vn -0.268848 -0.0609 0.961255
vn -0.202974 -0.735954 0.645889
vn -0.202903 -0.737445 0.64421
vn -0.224769 -0.627718 0.745284
vn -0.224754 -0.62502 0.747553
vn -0.251137 -0.217838 0.943121
vn -0.249844 -0.200029 0.9474
vn -0.310298 -0.002183 0.950637
vn -0.31578 -0.041149 0.94794
vn -0.270177 -0.741942 0.613617
vn -0.270205 -0.744537 0.610454
vn -0.286727 -0.64136 0.71165
vn -0.286193 -0.636115 0.716555
vn -0.279769 -0.253017 0.926127
vn -0.273724 -0.219463 0.936435
vn -0.170731 -0.041653 0.984437
vn -0.170987 -0.002071 0.985271
vn -0.060676 -0.703493 0.708107
vn -0.060843 -0.700612 0.710944
vn -0.091378 -0.598718 0.79573
vn -0.090792 -0.604129 0.791698
vn -0.195769 -0.210823 0.95772
vn -0.191009 -0.244926 0.95054
vn -0.252018 -0.036192 0.967046
vn -0.252468 -0.043116 0.966644
vn -0.180267 -0.732045 0.656973
vn -0.180245 -0.732551 0.656415
vn -0.203289 -0.624885 0.753785
vn -0.203296 -0.623955 0.754553
vn -0.24221 -0.220787 0.944768
vn -0.241966 -0.214765 0.946218
vn -0.237691 -0.009542 0.971294
vn -0.239138 -0.036008 0.970318
vn -0.160552 -0.725354 0.669392
vn -0.160424 -0.727951 0.666597
vn -0.185008 -0.621671 0.761116
vn -0.185021 -0.621247 0.761459
vn -0.234014 -0.25178 0.939066
vn -0.233899 -0.220073 0.947027
f 1/1/1 6/6/1 7/7/1
f 1/1/2 7/7/2 2/2/2
f 2/2/3 7/7/3 8/8/3
f 2/2/4 8/8/4 3/3/4
f 3/3/5 8/8/5 9/9/5
f 3/3/6 9/9/6 4/4/6
f 4/4/7 9/9/7 10/10/7
f 4/4/8 10/10/8 5/5/8
f 6/6/9 11/11/9 12/12/9
f 6/6/10 12/12/10 7/7/10
f 7/7/11 12/12/11 13/13/11
f 7/7/12 13/13/12 8/8/12
f 8/8/13 13/13/13 14/14/13
f 8/8/14 14/14/14 9/9/14
f 9/9/15 14/14/15 15/15/15
f 9/9/16 15/15/16 10/10/16
f 11/11/17 16/16/17 17/17/17
f 11/11/18 17/17/18 12/12/18
f 12/12/19 17/17/19 18/18/19
f 12/12/20 18/18/20 13/13/20
f 13/13/21 18/18/21 19/19/21
f 13/13/22 19/19/22 14/14/22
f 14/14/23 19/19/23 20/20/23
f 14/14/24 20/20/24 15/15/24
f 16/16/25 21/21/25 22/22/25
f 16/16/26 22/22/26 17/17/26
f 17/17/27 22/22/27 23/23/27
f 17/17/28 23/23/28 18/18/28
f 18/18/29 23/23/29 24/24/29
f 18/18/30 24/24/30 19/19/30
f 19/19/31 24/24/31 25/25/31
f 19/19/32 25/25/32 20/20/32
f 21/21/33 26/26/33 27/27/33
f 21/21/34 27/27/34 22/22/34
f 22/22/35 27/27/35 28/28/35
f 22/22/36 28/28/36 23/23/36
f 23/23/37 28/28/37 29/29/37
f 23/23/38 29/29/38 24/24/38
f 24/24/39 29/29/39 30/30/39
f 24/24/40 30/30/40 25/25/40
f 26/26/41 31/31/41 32/32/41
f 26/26/42 32/32/42 27/27/42
f 27/27/43 32/32/43 33/33/43
f 27/27/44 33/33/44 28/28/44
f 28/28/45 33/33/45 34/34/45
f 28/28/46 34/34/46 29/29/46
f 29/29/47 34/34/47 35/35/47
f 29/29/48 35/35/48 30/30/48
f 31/31/49 36/36/49 37/37/49
f 31/31/50 37/37/50 32/32/50
f 32/32/51 37/37/51 38/38/51
f 32/32/52 38/38/52 33/33/52
f 33/33/53 38/38/53 39/39/53
f 33/33/54 39/39/54 34/34/54
f 34/34/55 39/39/55 40/40/55
f 34/34/56 40/40/56 35/35/56
f 36/36/57 41/41/57 42/42/57
f 36/36/58 42/42/58 37/37/58
f 37/37/59 42/42/59 43/43/59
f 37/37/60 43/43/60 38/38/60
f 38/38/61 43/43/61 44/44/61
f 38/38/62 44/44/62 39/39/62
f 39/39/63 44/44/63 45/45/63
f 39/39/64 45/45/64 40/40/64
f 41/41/65 46/46/65 47/47/65
f 41/41/66 47/47/66 42/42/66
f 42/42/67 47/47/67 48/48/67
f 42/42/68 48/48/68 43/43/68
f 43/43/69 48/48/69 49/49/69
f 43/43/70 49/49/70 44/44/70
f 44/44/71 49/49/71 50/50/71
f 44/44/72 50/50/72 45/45/72
f 46/46/73 51/51/73 52/52/73
f 46/46/74 52/52/74 47/47/74
f 47/47/75 52/52/75 53/53/75
f 47/47/76 53/53/76 48/48/76
f 48/48/77 53/53/77 54/54/77
f 48/48/78 54/54/78 49/49/78
f 49/49/79 54/54/79 55/55/79
f 49/49/80 55/55/80 50/50/80
f 51/51/81 56/56/81 57/57/81
f 51/51/82 57/57/82 52/52/82
f 52/52/83 57/57/83 58/58/83
f 52/52/84 58/58/84 53/53/84
f 53/53/85 58/58/85 59/59/85
f 53/53/86 59/59/86 54/54/86
f 54/54/87 59/59/87 60/60/87
f 54/54/88 60/60/88 55/55/88
f 56/56/89 61/61/89 62/62/89
f 56/56/90 62/62/90 57/57/90
f 57/57/91 62/62/91 63/63/91
f 57/57/92 63/63/92 58/58/92
f 58/58/93 63/63/93 64/64/93
f 58/58/94 64/64/94 59/59/94
f 59/59/95 64/64/95 65/65/95
f 59/59/96 65/65/96 60/60/96
f 61/61/97 66/66/97 67/67/97
f 61/61/98 67/67/98 62/62/98
f 62/62/99 67/67/99 68/68/99
f 62/62/100 68/68/100 63/63/100
f 63/63/101 68/68/101 69/69/101
f 63/63/102 69/69/102 64/64/102
f 64/64/103 69/69/103 70/70/103
f 64/64/104 70/70/104 65/65/104
f 66/66/105 71/71/105 72/72/105
f 66/66/106 72/72/106 67/67/106
f 67/67/107 72/72/107 73/73/107
f 67/67/108 73/73/108 68/68/108
f 68/68/109 73/73/109 74/74/109
f 68/68/110 74/74/110 69/69/110
f 69/69/111 74/74/111 75/75/111
f 69/69/112 75/75/112 70/70/112
f 71/71/113 76/76/113 77/77/113
f 71/71/114 77/77/114 72/72/114
f 72/72/115 77/77/115 78/78/115
f 72/72/116 78/78/116 73/73/116
f 73/73/117 78/78/117 79/79/117
f 73/73/118 79/79/118 74/74/118
f 74/74/119 79/79/119 80/80/119
f 74/74/120 80/80/120 75/75/120
f 76/76/121 81/81/121 82/82/121
f 76/76/122 82/82/122 77/77/122
f 77/77/123 82/82/123 83/83/123
f 77/77/124 83/83/124 78/78/124
f 78/78/125 83/83/125 84/84/125
f 78/78/126 84/84/126 79/79/126
f 79/79/127 84/84/127 85/85/127
f 79/79/128 85/85/128 80/80/128
f 81/81/129 86/86/129 87/87/129
f 81/81/130 87/87/130 82/82/130
f 82/82/131 87/87/131 88/88/131
f 82/82/132 88/88/132 83/83/132
f 83/83/133 88/88/133 89/89/133
f 83/83/134 89/89/134 84/84/134
f 84/84/135 89/89/135 90/90/135
f 84/84/136 90/90/136 85/85/136
f 86/86/137 91/91/137 92/92/137
f 86/86/138 92/92/138 87/87/138
f 87/87/139 92/92/139 93/93/139
f 87/87/140 93/93/140 88/88/140
f 88/88/141 93/93/141 94/94/141
f 88/88/142 94/94/142 89/89/142
f 89/89/143 94/94/143 95/95/143
f 89/89/144 95/95/144 90/90/144
f 91/91/145 96/96/145 97/97/145
f 91/91/146 97/97/146 92/92/146
f 92/92/147 97/97/147 98/98/147
f 92/92/148 98/98/148 93/93/148
f 93/93/149 98/98/149 99/99/149
f 93/93/150 99/99/150 94/94/150
f 94/94/151 99/99/151 100/100/151
f 94/94/152 100/100/152 95/95/152
f 96/96/153 101/101/153 102/102/153
f 96/96/154 102/102/154 97/97/154
f 97/97/155 102/102/155 103/103/155
f 97/97/156 103/103/156 98/98/156
f 98/98/157 103/103/157 104/104/157
f 98/98/158 104/104/158 99/99/158
f 99/99/159 104/104/159 105/105/159
f 99/99/160 105/105/160 100/100/160
f 101/101/161 106/106/161 107/107/161
f 101/101/162 107/107/162 102/102/162
f 102/102/163 107/107/163 108/108/163
f 102/102/164 108/108/164 103/103/164
f 103/103/165 108/108/165 109/109/165
f 103/103/166 109/109/166 104/104/166
f 104/104/167 109/109/167 110/110/167
f 104/104/168 110/110/168 105/105/168
f 106/106/169 111/111/169 112/112/169
f 106/106/170 112/112/170 107/107/170
f 107/107/171 112/112/171 113/113/171
f 107/107/172 113/113/172 108/108/172
f 108/108/173 113/113/173 114/114/173
f 108/108/174 114/114/174 109/109/174
f 109/109/175 114/114/175 115/115/175
f 109/109/176 115/115/176 110/110/176
f 111/111/177 116/116/177 117/117/177
f 111/111/178 117/117/178 112/112/178
f 112/112/179 117/117/179 118/118/179
f 112/112/180 118/118/180 113/113/180
f 113/113/181 118/118/181 119/119/181
f 113/113/182 119/119/182 114/114/182
f 114/114/183 119/119/183 120/120/183
f 114/114/184 120/120/184 115/115/184
f 116/116/185 121/121/185 122/122/185
f 116/116/186 122/122/186 117/117/186
f 117/117/187 122/122/187 123/123/187
f 117/117/188 123/123/188 118/118/188
f 118/118/189 123/123/189 124/124/189
f 118/118/190 124/124/190 119/119/190
f 119/119/191 124/124/191 125/125/191
f 119/119/192 125/125/192 120/120/192
f 121/121/193 126/126/193 127/127/193
f 121/121/194 127/127/194 122/122/194
f 122/122/195 127/127/195 128/128/195
f 122/122/196 128/128/196 123/123/196
f 123/123/197 128/128/197 129/129/197
f 123/123/198 129/129/198 124/124/198
f 124/124/199 129/129/199 130/130/199
f 124/124/200 130/130/200 125/125/200
f 126/126/201 131/131/201 132/132/201
f 126/126/202 132/132/202 127/127/202
f 127/127/203 132/132/203 133/133/203
f 127/127/204 133/133/204 128/128/204
f 128/128/205 133/133/205 134/134/205
f 128/128/206 134/134/206 129/129/206
f 129/129/207 134/134/207 135/135/207
f 129/129/208 135/135/208 130/130/208
f 131/131/209 136/136/209 137/137/209
f 131/131/210 137/137/210 132/132/210
f 132/132/211 137/137/211 138/138/211
f 132/132/212 138/138/212 133/133/212
f 133/133/213 138/138/213 139/139/213
f 133/133/214 139/139/214 134/134/214
f 134/134/215 139/139/215 140/140/215
f 134/134/216 140/140/216 135/135/216
f 136/136/217 141/141/217 142/142/217
f 136/136/218 142/142/218 137/137/218
f 137/137/219 142/142/219 143/143/219
f 137/137/220 143/143/220 138/138/220
f 138/138/221 143/143/221 144/144/221
f 138/138/222 144/144/222 139/139/222
f 139/139/223 144/144/223 145/145/223
f 139/139/224 145/145/224 140/140/224
f 141/141/225 146/146/225 147/147/225
f 141/141/226 147/147/226 142/142/226
f 142/142/227 147/147/227 148/148/227
f 142/142/228 148/148/228 143/143/228
f 143/143/229 148/148/229 149/149/229
f 143/143/230 149/149/230 144/144/230
f 144/144/231 149/149/231 150/150/231
f 144/144/232 150/150/232 145/145/232
f 146/146/233 151/151/233 152/152/233
f 146/146/234 152/152/234 147/147/234
f 147/147/235 152/152/235 153/153/235
f 147/147/236 153/153/236 148/148/236
f 148/148/237 153/153/237 154/154/237
f 148/148/238 154/154/238 149/149/238
f 149/149/239 154/154/239 155/155/239
f 149/149/240 155/155/240 150/150/240
f 151/151/241 156/156/241 157/157/241
f 151/151/242 157/157/242 152/152/242
f 152/152/243 157/157/243 158/158/243
f 152/152/244 158/158/244 153/153/244
f 153/153/245 158/158/245 159/159/245
f 153/153/246 159/159/246 154/154/246
f 154/154/247 159/159/247 160/160/247
f 154/154/248 160/160/248 155/155/248
f 156/156/249 161/161/249 162/162/249
f 156/156/250 162/162/250 157/157/250
f 157/157/251 162/162/251 163/163/251
f 157/157/252 163/163/252 158/158/252
f 158/158/253 163/163/253 164/164/253
f 158/158/254 164/164/254 159/159/254
f 159/159/255 164/164/255 165/165/255
f 159/159/256 165/165/256 160/160/256
f 161/161/257 166/166/257 167/167/257
f 161/161/258 167/167/258 162/162/258
f 162/162/259 167/167/259 168/168/259
f 162/162/260 168/168/260 163/163/260
f 163/163/261 168/168/261 169/169/261
f 163/163/262 169/169/262 164/164/262
f 164/164/263 169/169/263 170/170/263
f 164/164/264 170/170/264 165/165/264
f 166/166/265 171/171/265 172/172/265
f 166/166/266 172/172/266 167/167/266
f 167/167/267 172/172/267 173/173/267
f 167/167/268 173/173/268 168/168/268
f 168/168/269 173/173/269 174/174/269
f 168/168/270 174/174/270 169/169/270
f 169/169/271 174/174/271 175/175/271
f 169/169/272 175/175/272 170/170/272
f 171/171/273 176/176/273 177/177/273
f 171/171/274 177/177/274 172/172/274
f 172/172/275 177/177/275 178/178/275
f 172/172/276 178/178/276 173/173/276
f 173/173/277 178/178/277 179/179/277
f 173/173/278 179/179/278 174/174/278
f 174/174/279 179/179/279 180/180/279
f 174/174/280 180/180/280 175/175/280
f 176/176/281 181/181/281 182/182/281
f 176/176/282 182/182/282 177/177/282
f 177/177/283 182/182/283 183/183/283
f 177/177/284 183/183/284 178/178/284
f 178/178/285 183/183/285 184/184/285
f 178/178/286 184/184/286 179/179/286
f 179/179/287 184/184/287 185/185/287
f 179/179/288 185/185/288 180/180/288
f 181/181/289 186/186/289 187/187/289
f 181/181/290 187/187/290 182/182/290
f 182/182/291 187/187/291 188/188/291
f 182/182/292 188/188/292 183/183/292
f 183/183/293 188/188/293 189/189/293
f 183/183/294 189/189/294 184/184/294
f 184/184/295 189/189/295 190/190/295
f 184/184/296 190/190/296 185/185/296
f 186/186/297 191/191/297 192/192/297
f 186/186/298 192/192/298 187/187/298
f 187/187/299 192/192/299 193/193/299
f 187/187/300 193/193/300 188/188/300
f 188/188/301 193/193/301 194/194/301
f 188/188/302 194/194/302 189/189/302
f 189/189/303 194/194/303 195/195/303
f 189/189/304 195/195/304 190/190/304
f 191/191/305 196/196/305 197/197/305
f 191/191/306 197/197/306 192/192/306
f 192/192/307 197/197/307 198/198/307
f 192/192/308 198/198/308 193/193/308
f 193/193/309 198/198/309 199/199/309
f 193/193/310 199/199/310 194/194/310
f 194/194/311 199/199/311 200/200/311
f 194/194/312 200/200/312 195/195/312
f 196/196/313 201/201/313 202/202/313
f 196/196/314 202/202/314 197/197/314
f 197/197/315 202/202/315 203/203/315
f 197/197/316 203/203/316 198/198/316
f 198/198/317 203/203/317 204/204/317
f 198/198/318 204/204/318 199/199/318
f 199/199/319 204/204/319 205/205/319
f 199/199/320 205/205/320 200/200/320
f 201/201/321 206/206/321 207/207/321
f 201/201/322 207/207/322 202/202/322
f 202/202/323 207/207/323 208/208/323
f 202/202/324 208/208/324 203/203/324
f 203/203/325 208/208/325 209/209/325
f 203/203/326 209/209/326 204/204/326
f 204/204/327 209/209/327 210/210/327
f 204/204/328 210/210/328 205/205/328
f 206/206/329 211/211/329 212/212/329
f 206/206/330 212/212/330 207/207/330
f 207/207/331 212/212/331 213/213/331
f 207/207/332 213/213/332 208/208/332
f 208/208/333 213/213/333 214/214/333
f 208/208/334 214/214/334 209/209/334
f 209/209/335 214/214/335 215/215/335
f 209/209/336 215/215/336 210/210/336
f 211/211/337 216/216/337 217/217/337
f 211/211/338 217/217/338 212/212/338
f 212/212/339 217/217/339 218/218/339
f 212/212/340 218/218/340 213/213/340
f 213/213/341 218/218/341 219/219/341
f 213/213/342 219/219/342 214/214/342
f 214/214/343 219/219/343 220/220/343
f 214/214/344 220/220/344 215/215/344
f 216/216/345 221/221/345 222/222/345
f 216/216/346 222/222/346 217/217/346
f 217/217/347 222/222/347 223/223/347
f 217/217/348 223/223/348 218/218/348
f 218/218/349 223/223/349 224/224/349
f 218/218/350 224/224/350 219/219/350
f 219/219/351 224/224/351 225/225/351
f 219/219/352 225/225/352 220/220/352
f 221/221/353 226/226/353 227/227/353
f 221/221/354 227/227/354 222/222/354
f 222/222/355 227/227/355 228/228/355
f 222/222/356 228/228/356 223/223/356
f 223/223/357 228/228/357 229/229/357
f 223/223/358 229/229/358 224/224/358
f 224/224/359 229/229/359 230/230/359
f 224/224/360 230/230/360 225/225/360
f 226/226/361 231/231/361 232/232/361
f 226/226/362 232/232/362 227/227/362
f 227/227/363 232/232/363 233/233/363
f 227/227/364 233/233/364 228/228/364
f 228/228/365 233/233/365 234/234/365
f 228/228/366 234/234/366 229/229/366
f 229/229/367 234/234/367 235/235/367
f 229/229/368 235/235/368 230/230/368
f 231/231/369 236/236/369 237/237/369
f 231/231/370 237/237/370 232/232/370
f 232/232/371 237/237/371 238/238/371
f 232/232/372 238/238/372 233/233/372
f 233/233/373 238/238/373 239/239/373
f 233/233/374 239/239/374 234/234/374
f 234/234/375 239/239/375 240/240/375
f 234/234/376 240/240/376 235/235/376
f 236/236/377 241/241/377 242/242/377
f 236/236/378 242/242/378 237/237/378
f 237/237/379 242/242/379 243/243/379
f 237/237/380 243/243/380 238/238/380
f 238/238/381 243/243/381 244/244/381
f 238/238/382 244/244/382 239/239/382
f 239/239/383 244/244/383 245/245/383
f 239/239/384 245/245/384 240/240/384
f 241/241/385 246/246/385 247/247/385
f 241/241/386 247/247/386 242/242/386
f 242/242/387 247/247/387 248/248/387
f 242/242/388 248/248/388 243/243/388
f 243/243/389 248/248/389 249/249/389
f 243/243/390 249/249/390 244/244/390
f 244/244/391 249/249/391 250/250/391
f 244/244/392 250/250/392 245/245/392
f 246/246/393 251/251/393 252/252/393
f 246/246/394 252/252/394 247/247/394
f 247/247/395 252/252/395 253/253/395
f 247/247/396 253/253/396 248/248/396
f 248/248/397 253/253/397 254/254/397
f 248/248/398 254/254/398 249/249/398
f 249/249/399 254/254/399 255/255/399
f 249/249/400 255/255/400 250/250/400
f 251/251/401 256/256/401 257/257/401
f 251/251/402 257/257/402 252/252/402
f 252/252/403 257/257/403 258/258/403
f 252/252/404 258/258/404 253/253/404
f 253/253/405 258/258/405 259/259/405
f 253/253/406 259/259/406 254/254/406
f 254/254/407 259/259/407 260/260/407
f 254/254/408 260/260/408 255/255/408
f 256/256/409 261/261/409 262/262/409
f 256/256/410 262/262/410 257/257/410
f 257/257/411 262/262/411 263/263/411
f 257/257/412 263/263/412 258/258/412
f 258/258/413 263/263/413 264/264/413
f 258/258/414 264/264/414 259/259/414
f 259/259/415 264/264/415 265/265/415
f 259/259/416 265/265/416 260/260/416
f 261/261/417 266/266/417 267/267/417
f 261/261/418 267/267/418 262/262/418
f 262/262/419 267/267/419 268/268/419
f 262/262/420 268/268/420 263/263/420
f 263/263/421 268/268/421 269/269/421
f 263/263/422 269/269/422 264/264/422
f 264/264/423 269/269/423 270/270/423
f 264/264/424 270/270/424 265/265/424
f 266/266/425 271/271/425 272/272/425
f 266/266/426 272/272/426 267/267/426
f 267/267/427 272/272/427 273/273/427
f 267/267/428 273/273/428 268/268/428
f 268/268/429 273/273/429 274/274/429
f 268/268/430 274/274/430 269/269/430
f 269/269/431 274/274/431 275/275/431
f 269/269/432 275/275/432 270/270/432
f 271/271/433 276/276/433 277/277/433
f 271/271/434 277/277/434 272/272/434
f 272/272/435 277/277/435 278/278/435
f 272/272/436 278/278/436 273/273/436
f 273/273/437 278/278/437 279/279/437
f 273/273/438 279/279/438 274/274/438
f 274/274/439 279/279/439 280/280/439
f 274/274/440 280/280/440 275/275/440
f 276/276/441 281/281/441 282/282/441
f 276/276/442 282/282/442 277/277/442
f 277/277/443 282/282/443 283/283/443
f 277/277/444 283/283/444 278/278/444
f 278/278/445 283/283/445 284/284/445
f 278/278/446 284/284/446 279/279/446
f 279/279/447 284/284/447 285/285/447
f 279/279/448 285/285/448 280/280/448
f 281/281/449 286/286/449 287/287/449
f 281/281/450 287/287/450 282/282/450
f 282/282/451 287/287/451 288/288/451
f 282/282/452 288/288/452 283/283/452
f 283/283/453 288/288/453 289/289/453
f 283/283/454 289/289/454 284/284/454
f 284/284/455 289/289/455 290/290/455
f 284/284/456 290/290/456 285/285/456
f 286/286/457 291/291/457 292/292/457
f 286/286/458 292/292/458 287/287/458
f 287/287/459 292/292/459 293/293/459
f 287/287/460 293/293/460 288/288/460
f 288/288/461 293/293/461 294/294/461
f 288/288/462 294/294/462 289/289/462
f 289/289/463 294/294/463 295/295/463
f 289/289/464 295/295/464 290/290/464
f 291/291/465 296/296/465 297/297/465
f 291/291/466 297/297/466 292/292/466
f 292/292/467 297/297/467 298/298/467
f 292/292/468 298/298/468 293/293/468
f 293/293/469 298/298/469 299/299/469
f 293/293/470 299/299/470 294/294/470
f 294/294/471 299/299/471 300/300/471
f 294/294/472 300/300/472 295/295/472
f 296/296/473 301/301/473 302/302/473
f 296/296/474 302/302/474 297/297/474
f 297/297/475 302/302/475 303/303/475
f 297/297/476 303/303/476 298/298/476
f 298/298/477 303/303/477 304/304/477
f 298/298/478 304/304/478 299/299/478
f 299/299/479 304/304/479 305/305/479
f 299/299/480 305/305/480 300/300/480
f 301/301/481 306/306/481 307/307/481
f 301/301/482 307/307/482 302/302/482
f 302/302/483 307/307/483 308/308/483
f 302/302/484 308/308/484 303/303/484
f 303/303/485 308/308/485 309/309/485
f 303/303/486 309/309/486 304/304/486
f 304/304/487 309/309/487 310/310/487
f 304/304/488 310/310/488 305/305/488
f 306/306/489 311/311/489 312/312/489
f 306/306/490 312/312/490 307/307/490
f 307/307/491 312/312/491 313/313/491
f 307/307/492 313/313/492 308/308/492
f 308/308/493 313/313/493 314/314/493
f 308/308/494 314/314/494 309/309/494
f 309/309/495 314/314/495 315/315/495
f 309/309/496 315/315/496 310/310/496
f 311/311/497 316/316/497 317/317/497
f 311/311/498 317/317/498 312/312/498
f 312/312/499 317/317/499 318/318/499
f 312/312/500 318/318/500 313/313/500
f 313/313/501 318/318/501 319/319/501
f 313/313/502 319/319/502 314/314/502
f 314/314/503 319/319/503 320/320/503
f 314/314/504 320/320/504 315/315/504
f 316/316/505 321/321/505 322/322/505
f 316/316/506 322/322/506 317/317/506
f 317/317/507 322/322/507 323/323/507
f 317/317/508 323/323/508 318/318/508
f 318/318/509 323/323/509 324/324/509
f 318/318/510 324/324/510 319/319/510
f 319/319/511 324/324/511 325/325/511
f 319/319/512 325/325/512 320/320/512
f 321/321/513 326/326/513 327/327/513
f 321/321/514 327/327/514 322/322/514
f 322/322/515 327/327/515 328/328/515
f 322/322/516 328/328/516 323/323/516
f 323/323/517 328/328/517 329/329/517
f 323/323/518 329/329/518 324/324/518
f 324/324/519 329/329/519 330/330/519
f 324/324/520 330/330/520 325/325/520
f 326/326/521 331/331/521 332/332/521
f 326/326/522 332/332/522 327/327/522
f 327/327/523 332/332/523 333/333/523
f 327/327/524 333/333/524 328/328/524
f 328/328/525 333/333/525 334/334/525
f 328/328/526 334/334/526 329/329/526
f 329/329/527 334/334/527 335/335/527
f 329/329/528 335/335/528 330/330/528
