# Generated sky cornice; visual geometry only.
s 1
v -320.000000 -7.330400 -6.339320
v -320.000000 12.235122 -5.501560
v -320.000000 36.792646 -1.731640
v -320.000000 39.512344 5.389320
v -320.000000 21.739676 18.374600
v -320.000000 3.070799 20.887880
v -320.000000 -14.972871 13.138600
v -320.000000 -23.038400 5.389320
v -320.000000 -31.834880 0.991080
v -320.000000 -43.982400 -0.475000
v -302.273894 -9.107218 -7.760774
v -302.266487 19.905934 -6.719949
v -302.233155 60.443616 -2.036237
v -302.170195 70.460822 6.810774
v -302.055385 45.861896 22.943560
v -302.033163 13.180806 26.066035
v -302.101679 -17.450029 16.438404
v -302.170195 -28.622684 6.810774
v -302.209082 -39.551346 1.346444
v -302.222044 -54.643307 -0.475000
v -284.525249 -7.127804 -6.177244
v -284.513655 13.396155 -5.362637
v -284.461480 40.470047 -1.696909
v -284.362928 45.229715 5.227244
v -284.183215 27.145833 17.853640
v -284.148431 5.970087 20.297459
v -284.255680 -14.191958 12.762351
v -284.362928 -22.401671 5.227244
v -284.423798 -30.955036 0.950561
v -284.444089 -42.766827 -0.475000
v -266.767697 -5.946453 -5.232163
v -266.753188 8.469794 -4.552568
v -266.687897 25.289218 -1.494392
v -266.564569 25.442097 4.282163
v -266.339677 11.803801 14.815880
v -266.296150 -0.405941 16.854664
v -266.430359 -12.502433 10.568413
v -266.564569 -18.688853 4.282163
v -266.640742 -25.824597 0.714291
v -266.666133 -35.678720 -0.475000
v -249.009692 -5.335929 -4.743743
v -248.992333 8.873492 -4.133923
v -248.914216 26.679723 -1.389731
v -248.766662 28.613344 3.793743
v -248.497593 15.693790 13.245960
v -248.445515 2.170257 15.075421
v -248.606088 -10.907020 9.434582
v -248.766662 -16.770062 3.793743
v -248.857798 -23.173177 0.592186
v -248.888177 -32.015573 -0.475000
v -231.263168 -5.372889 -4.773311
v -231.241318 10.883912 -4.159267
v -231.142996 32.967121 -1.396067
v -230.957275 37.663837 3.823311
v -230.618609 23.611651 13.341000
v -230.553061 6.064728 15.183133
v -230.755168 -10.505339 9.503222
v -230.957275 -16.886222 3.823311
v -231.071985 -23.333689 0.599578
v -231.110222 -32.237333 -0.475000
v -213.605535 -7.999787 -6.874829
v -213.566496 15.083960 -5.960568
v -213.390823 45.574336 -1.846392
v -213.058997 50.985384 5.924829
v -212.453902 30.662989 20.095880
v -212.336786 6.797939 22.838664
v -212.697892 -15.916142 14.381747
v -213.058997 -25.142187 5.924829
v -213.263949 -34.741931 1.124957
v -213.332266 -47.998720 -0.475000
v -195.888399 -8.383076 -7.181460
v -195.840672 13.539890 -6.223395
v -195.625901 40.660143 -1.912099
v -195.220221 43.132345 6.231460
v -194.480453 23.049506 21.081480
v -194.337272 2.611574 23.955677
v -194.778747 -17.233775 15.093569
v -195.220221 -26.346809 6.231460
v -195.470788 -36.406500 1.201615
v -195.554310 -50.298453 -0.475000
v -178.143207 -8.054542 -6.918634
v -178.090799 13.345149 -5.998115
v -177.854966 40.118408 -1.855779
v -177.409502 42.967615 5.968634
v -176.597186 23.492046 20.236680
v -176.439964 3.177819 22.998237
v -176.924733 -16.476135 14.483436
v -177.409502 -25.314276 5.968634
v -177.684641 -34.979726 1.135908
v -177.776354 -48.327253 -0.475000
v -160.368322 -7.219520 -6.250616
v -160.315476 13.247151 -5.425528
v -160.077668 39.984488 -1.712632
v -159.628476 44.351983 5.300616
v -158.809360 26.207422 18.089480
v -158.650822 5.407199 20.564744
v -159.139649 -14.453264 12.932680
v -159.628476 -22.689920 5.300616
v -159.905918 -31.353344 0.968904
v -159.998399 -43.317120 -0.475000
v -142.499058 -4.893778 -4.390022
v -142.459256 9.257404 -3.830733
v -142.280146 27.973401 -1.313933
v -141.941828 31.325823 3.440022
v -141.324894 18.877793 12.109000
v -141.205488 4.218205 13.786867
v -141.573658 -9.729180 8.613444
v -141.941828 -15.380444 3.440022
v -142.150789 -21.252978 0.503756
v -142.220443 -29.362667 -0.475000
v -124.820890 -6.042276 -5.308820
v -124.766832 10.912035 -4.618275
v -124.523574 32.916550 -1.510819
v -124.064085 36.324989 4.358820
v -123.226194 21.232809 15.062280
v -123.064022 4.177175 17.133917
v -123.564054 -12.139302 10.746369
v -124.064085 -18.990009 4.358820
v -124.347887 -26.240740 0.733455
v -124.442487 -36.253653 -0.475000
v -107.093233 -6.274987 -5.494989
v -107.031990 10.214976 -4.777848
v -106.756396 30.685715 -1.550712
v -106.235831 32.649041 4.544989
v -105.286564 17.573631 15.660680
v -105.102835 2.113999 17.812104
v -105.669333 -12.880426 11.178547
v -106.235831 -19.721387 4.544989
v -106.557356 -27.251371 0.779997
v -106.664532 -37.649920 -0.475000
v -89.471871 -7.908071 -6.801457
v -89.388257 13.001703 -5.897677
v -89.011996 39.073337 -1.830669
v -88.301281 41.728565 5.851457
v -87.005272 22.661091 19.860040
v -86.754432 2.919453 22.571379
v -87.527857 -16.201192 14.211418
v -88.301281 -24.853938 5.851457
v -88.740252 -34.343623 1.106614
v -88.886576 -47.448427 -0.475000
v -71.840081 -9.177031 -7.816625
v -71.735586 17.569470 -6.767821
v -71.265362 53.113191 -2.048205
v -70.377160 59.695480 6.866625
v -68.757498 36.240207 23.123080
v -68.444015 8.327326 26.269491
v -69.410587 -18.193277 16.568058
v -70.377160 -28.842098 6.866625
v -70.925755 -39.854535 1.360406
v -71.108620 -55.062187 -0.475000
v -53.928616 -7.001867 -6.076493
v -53.843194 13.980977 -5.276280
v -53.458797 42.327330 -1.675320
v -52.732714 48.161937 5.126493
v -51.408679 29.957872 17.529800
v -51.152414 7.499841 19.930440
v -51.942564 -13.740048 12.528467
v -52.732714 -22.005867 5.126493
v -53.181177 -30.408107 0.925373
v -53.330665 -42.011200 -0.475000
v -36.200873 -7.115484 -6.167388
v -36.108278 11.626780 -5.354189
v -35.691601 34.932305 -1.694797
v -34.904545 37.220075 5.217388
v -33.469324 20.102083 17.821960
v -33.191540 2.483878 20.261555
v -34.048042 -14.595015 12.739471
v -34.904545 -22.362951 5.217388
v -35.390668 -30.901532 0.948097
v -35.552709 -42.692907 -0.475000
v -18.228128 -4.684338 -4.222470
v -18.163360 6.807764 -3.687117
v -17.871905 20.346432 -1.278029
v -17.321378 20.658255 3.272470
v -16.317476 9.842036 11.570440
v -16.123173 -0.049755 13.176499
v -16.722275 -9.815615 8.224484
v -17.321378 -14.722204 3.272470
v -17.661409 -20.343410 0.461868
v -17.774753 -28.106027 -0.475000
v -0.606602 -5.950560 -5.235448
v -0.519487 11.355941 -4.555384
v -0.127470 34.325510 -1.495096
v 0.613007 38.542186 4.285448
v 1.963289 23.352846 14.826440
v 2.224634 5.327071 16.866632
v 1.418821 -11.805785 10.576040
v 0.613007 -18.701760 4.285448
v 0.155654 -25.842432 0.715112
v 0.003202 -35.703360 -0.475000
v 16.988512 -7.327662 -6.337130
v 17.101747 15.804097 -5.499683
v 17.611305 47.968437 -1.731171
v 18.573805 55.728884 5.387130
v 20.328951 36.050181 18.367560
v 20.668656 10.182869 20.879901
v 19.621231 -14.092245 13.133516
v 18.573805 -23.029796 5.387130
v 17.979320 -31.822990 0.990532
v 17.781158 -43.965973 -0.475000
v 34.669104 -7.816356 -6.728084
v 34.796248 12.819869 -5.834787
v 35.368397 38.522973 -1.814947
v 36.449124 41.103608 5.778084
v 38.419860 22.273888 19.624200
v 38.801293 2.823802 22.304093
v 37.625208 -16.020897 14.041089
v 36.449124 -24.565689 5.778084
v 35.781616 -33.945316 1.088271
v 35.559114 -46.898133 -0.475000
v 52.234315 -9.223573 -7.853859
v 52.391851 12.780375 -6.799736
v 53.100765 38.107872 -2.056184
v 54.439825 37.841095 6.903859
v 56.881639 16.877832 23.242760
v 57.354248 -1.340602 26.405128
v 55.897036 -19.480043 16.654493
v 54.439825 -28.988373 6.903859
v 53.612758 -40.056661 1.369715
v 53.337070 -55.341440 -0.475000
v 70.283123 -6.641849 -5.788479
v 70.401966 12.634517 -5.029411
v 70.936760 38.185838 -1.613603
v 71.946927 42.834999 4.838479
v 73.788996 25.902848 16.604040
v 74.145526 5.864979 18.881245
v 73.046226 -13.187246 11.859862
v 71.946927 -20.874382 4.838479
v 71.323001 -28.844601 0.853370
v 71.115025 -39.851093 -0.475000
v 88.099087 -6.062809 -5.325247
v 88.212501 13.113219 -4.632355
v 88.722861 39.804674 -1.514339
v 89.686874 46.277937 4.375247
v 91.444781 29.976175 15.115080
v 91.785022 8.499060 17.193757
v 90.735948 -11.650644 10.784502
v 89.686874 -19.054542 4.375247
v 89.091454 -26.329913 0.737562
v 88.892981 -36.376853 -0.475000
v 105.957744 -5.219573 -4.650659
v 106.059629 8.592758 -4.054136
v 106.518110 25.824780 -1.369784
v 107.384129 27.593155 3.700659
v 108.963341 15.002018 12.946760
v 109.268995 1.949281 14.736328
v 108.326562 -10.690542 9.218493
v 107.384129 -16.404373 3.700659
v 106.849235 -22.667861 0.568915
v 106.670937 -31.317440 -0.475000
v 123.614995 -5.858844 -5.162076
v 123.734123 8.421603 -4.492493
v 124.270200 25.156464 -1.479373
v 125.282789 25.415154 4.212076
v 127.129276 11.936795 14.590600
v 127.486661 -0.247499 16.599347
v 126.384725 -12.299480 10.405711
v 125.282789 -18.413511 4.212076
v 124.657367 -25.444124 0.696769
v 124.448892 -35.153067 -0.475000
v 140.986352 -8.380338 -7.179270
v 141.163566 15.890262 -6.221517
v 141.961027 48.020226 -1.911629
v 143.467344 53.813901 6.229270
v 146.214157 32.477261 21.074440
v 146.745798 7.297987 23.947699
v 145.106571 -16.651542 15.088484
v 143.467344 -26.338204 6.229270
v 142.536972 -36.394610 1.201068
v 142.226848 -50.282027 -0.475000
v 158.734061 -8.266720 -7.088376
v 158.915596 16.637901 -6.143608
v 159.732502 50.384774 -1.892152
v 161.275546 57.458660 6.138376
v 164.089333 35.895828 20.782280
v 164.633937 9.116062 23.616584
v 162.954741 -16.189964 14.877480
v 161.275546 -25.981120 6.138376
v 160.322489 -35.901184 1.178344
v 160.004804 -49.600320 -0.475000
v 176.480228 -8.170898 -7.011718
v 176.666304 14.004423 -6.077901
v 177.503645 42.158637 -1.875725
v 179.085291 45.707155 6.061718
v 181.969469 25.700563 20.535880
v 182.527697 4.152284 23.337331
v 180.806494 -16.599922 14.699524
v 179.085291 -25.679964 6.061718
v 178.108392 -35.485042 1.159180
v 177.782759 -49.025387 -0.475000
v 194.448974 -6.733564 -5.861852
v 194.607794 10.963718 -5.092301
v 195.322485 32.935214 -1.629325
v 196.672456 35.045165 4.911852
v 199.134168 18.866846 16.839880
v 199.610628 2.272926 19.148531
v 198.141542 -13.821185 12.030191
v 196.672456 -21.162631 4.911852
v 195.838650 -29.242908 0.871713
v 195.560715 -40.401387 -0.475000
v 212.482952 -5.010133 -4.483107
v 212.605198 8.698163 -3.910520
v 213.155302 26.198201 -1.333880
v 214.194390 28.530783 3.533107
v 216.089195 16.203917 12.408200
v 216.455932 2.767192 14.125960
v 215.325161 -10.151338 8.829533
v 214.194390 -15.746133 3.533107
v 213.552600 -21.758293 0.527027
v 213.338671 -30.060800 -0.475000
v 230.009632 -6.272249 -5.492799
v 230.167774 11.426998 -4.775971
v 230.879413 34.481382 -1.550243
v 232.223621 38.160131 4.542799
v 234.674823 22.440200 15.653640
v 235.149250 4.534503 17.804125
v 233.686435 -12.576934 11.173462
v 232.223621 -19.712782 4.542799
v 231.393375 -27.239481 0.779450
v 231.116626 -37.633493 -0.475000
v 247.772577 -6.158631 -5.401905
v 247.932864 11.730599 -4.698061
v 248.654153 35.455552 -1.530765
v 250.016587 39.788038 4.451905
v 252.501026 24.079578 15.361480
v 252.981885 5.468711 17.473011
v 251.499236 -12.224084 10.962458
v 250.016587 -19.355698 4.451905
v 249.175083 -26.746055 0.756726
v 248.894582 -36.951787 -0.475000
v 265.095490 -8.394027 -7.190221
v 265.320783 15.268911 -6.230904
v 266.334599 46.071810 -1.913976
v 268.249585 50.961691 6.240221
v 271.741620 29.936658 21.109640
v 272.417497 6.021431 23.987592
v 270.333541 -16.837244 15.113907
v 268.249585 -26.381227 6.240221
v 267.066800 -36.454059 1.203805
v 266.672538 -50.364160 -0.475000
v 282.768157 -8.691076 -7.427860
v 283.008490 13.430424 -6.434595
v 284.089993 40.253593 -1.964899
v 286.132830 41.960331 6.477860
v 289.858005 21.464484 21.873480
v 290.579007 1.499415 24.853277
v 288.355919 -18.015572 15.665569
v 286.132830 -27.314809 6.477860
v 284.871078 -37.744100 1.263215
v 284.450494 -52.146453 -0.475000
v 300.810045 -7.118222 -6.169578
v 301.012674 11.610050 -5.356067
v 301.924505 34.879355 -1.695267
v 303.646854 37.138090 5.219578
v 306.787607 20.024860 17.829000
v 307.395494 2.442629 20.269533
v 305.521174 -14.605823 12.744556
v 303.646854 -22.371556 5.219578
v 302.583050 -30.913422 0.948644
v 302.228449 -42.709333 -0.475000
v 318.607515 -6.825280 -5.935224
v 318.807356 14.302670 -5.155192
v 319.706643 43.371191 -1.645048
v 321.405295 50.009982 4.985224
v 324.502836 31.904120 17.075720
v 325.102361 8.652889 19.415816
v 323.253828 -13.228415 12.200520
v 321.405295 -21.450880 4.985224
v 320.356127 -29.641216 0.890056
v 320.006405 -40.951680 -0.475000
vt 0.08886719 1.09942383
vt 0.08886719 1.08029936
vt 0.08886719 1.05603647
vt 0.08886719 1.04859247
vt 0.08886719 1.02709733
vt 0.08886719 1.00870154
vt 0.08886719 0.98952444
vt 0.08886719 0.97860160
vt 0.08886719 0.96899733
vt 0.08886719 0.95704844
vt 0.10622830 1.16121539
vt 0.10622830 1.13286401
vt 0.10622830 1.09301307
vt 0.10622830 1.07996165
vt 0.10622830 1.05123388
vt 0.10622830 1.01917341
vt 0.10622830 0.98781770
vt 0.10622830 0.97341483
vt 0.10622830 0.96148259
vt 0.10622830 0.94663740
vt 0.12358941 1.10839501
vt 0.12358941 1.08833630
vt 0.12358941 1.06165570
vt 0.12358941 1.05345035
vt 0.12358941 1.03191161
vt 0.12358941 1.01109491
vt 0.12358941 0.99007531
vt 0.12358941 0.97919300
vt 0.12358941 0.96985418
vt 0.12358941 0.95823552
vt 0.14095052 1.06991651
vt 0.14095052 1.05582251
vt 0.14095052 1.03912799
vt 0.14095052 1.03348485
vt 0.14095052 1.01665614
vt 0.14095052 1.00456748
vt 0.14095052 0.99125460
vt 0.14095052 0.98264152
vt 0.14095052 0.97485050
vt 0.14095052 0.96515750
vt 0.15831163 1.07212307
vt 0.15831163 1.05823391
vt 0.15831163 1.04063972
vt 0.15831163 1.03523700
vt 0.15831163 1.01960409
vt 0.15831163 1.00627721
vt 0.15831163 0.99236902
vt 0.15831163 0.98442372
vt 0.15831163 0.97743261
vt 0.15831163 0.96873479
vt 0.17567274 1.08804616
vt 0.17567274 1.07215906
vt 0.17567274 1.05042526
vt 0.17567274 1.04356835
vt 0.17567274 1.02699409
vt 0.17567274 1.00976425
vt 0.17567274 0.99265827
vt 0.17567274 0.98431583
vt 0.17567274 0.97727629
vt 0.17567274 0.96851823
vt 0.19303385 1.12204644
vt 0.19303385 1.09948605
vt 0.19303385 1.06944045
vt 0.19303385 1.06019289
vt 0.19303385 1.03599821
vt 0.19303385 1.01253908
vt 0.19303385 0.98886980
vt 0.19303385 0.97664757
vt 0.19303385 0.96616628
vt 0.19303385 0.95312625
vt 0.21039497 1.11027177
vt 0.21039497 1.08884218
vt 0.21039497 1.06202500
vt 0.21039497 1.05371392
vt 0.21039497 1.02932246
vt 0.21039497 1.00916714
vt 0.21039497 0.98794235
vt 0.21039497 0.97552870
vt 0.21039497 0.96454522
vt 0.21039497 0.95088042
vt 0.22775608 1.10849345
vt 0.22775608 1.08757599
vt 0.22775608 1.06111914
vt 0.22775608 1.05298727
vt 0.22775608 1.02941032
vt 0.22775608 1.00938974
vt 0.22775608 0.98847261
vt 0.22775608 0.97648773
vt 0.22775608 0.96593470
vt 0.22775608 0.95280542
vt 0.24511719 1.10723609
vt 0.24511719 1.08723288
vt 0.24511719 1.06087164
vt 0.24511719 1.05280328
vt 0.24511719 1.03112491
vt 0.24511719 1.01066887
vt 0.24511719 0.98989111
vt 0.24511719 0.97892527
vt 0.24511719 0.96946628
vt 0.24511719 0.95769813
vt 0.26247830 1.07489988
vt 0.26247830 1.06106958
vt 0.26247830 1.04262772
vt 0.26247830 1.03694694
vt 0.26247830 1.02213327
vt 0.26247830 1.00772380
vt 0.26247830 0.99319651
vt 0.26247830 0.98571442
vt 0.26247830 0.97930261
vt 0.26247830 0.97132552
vt 0.27983941 1.08836852
vt 0.27983941 1.07179785
vt 0.27983941 1.05009585
vt 0.27983941 1.04346744
vt 0.27983941 1.02539871
vt 0.27983941 1.00862040
vt 0.27983941 0.99150886
vt 0.27983941 0.98236180
vt 0.27983941 0.97444524
vt 0.27983941 0.96459604
vt 0.29720052 1.08314485
vt 0.29720052 1.06702614
vt 0.29720052 1.04678830
vt 0.29720052 1.04053432
vt 0.29720052 1.02224295
vt 0.29720052 1.00700016
vt 0.29720052 0.99098820
vt 0.29720052 0.98168249
vt 0.29720052 0.97346102
vt 0.29720052 0.96323250
vt 0.31456163 1.10575462
vt 0.31456163 1.08531585
vt 0.31456163 1.05954736
vt 0.31456163 1.05160980
vt 0.31456163 1.02850406
vt 0.31456163 1.00904414
vt 0.31456163 0.98866489
vt 0.31456163 0.97691530
vt 0.31456163 0.96655417
vt 0.31456163 0.95366365
vt 0.33192274 1.14213366
vt 0.33192274 1.11599395
vt 0.33192274 1.08097863
vt 0.33192274 1.07015680
vt 0.33192274 1.04228758
vt 0.33192274 1.01485628
vt 0.33192274 0.98727880
vt 0.33192274 0.97321104
vt 0.33192274 0.96118733
vt 0.33192274 0.94622833
vt 0.34928385 1.11309182
vt 0.34928385 1.09258587
vt 0.34928385 1.06468142
vt 0.34928385 1.05593001
vt 0.34928385 1.03441836
vt 0.34928385 1.01236174
vt 0.34928385 0.99039620
vt 0.34928385 0.97956063
vt 0.34928385 0.97038681
vt 0.34928385 0.95897344
vt 0.36664497 1.09461105
vt 0.36664497 1.07629084
vt 0.36664497 1.05325269
vt 0.36664497 1.04614239
vt 0.36664497 1.02538266
vt 0.36664497 1.00801322
vt 0.36664497 0.98978861
vt 0.36664497 0.97922896
vt 0.36664497 0.96990628
vt 0.36664497 0.95830771
vt 0.38400608 1.05604431
vt 0.38400608 1.04480939
vt 0.38400608 1.03138035
vt 0.38400608 1.02692608
vt 0.38400608 1.01361302
vt 0.38400608 1.00382657
vt 0.38400608 0.99313357
vt 0.38400608 0.98632580
vt 0.38400608 0.98018840
vt 0.38400608 0.97255271
vt 0.40136719 1.09187003
vt 0.40136719 1.07495610
vt 0.40136719 1.05232667
vt 0.40136719 1.04533930
vt 0.40136719 1.02728402
vt 0.40136719 1.00956833
vt 0.40136719 0.99174489
vt 0.40136719 0.98262953
vt 0.40136719 0.97483313
vt 0.40136719 0.96513344
vt 0.41872830 1.12795884
vt 0.41872830 1.10535443
vt 0.41872830 1.07372908
vt 0.41872830 1.06344524
vt 0.41872830 1.04042356
vt 0.41872830 1.01504365
vt 0.41872830 0.99015974
vt 0.41872830 0.97860959
vt 0.41872830 0.96900891
vt 0.41872830 0.95706448
vt 0.43608941 1.10429267
vt 0.43608941 1.08412124
vt 0.43608941 1.05871543
vt 0.43608941 1.05088380
vt 0.43608941 1.02805910
vt 0.43608941 1.00888543
vt 0.43608941 0.98879101
vt 0.43608941 0.97718303
vt 0.43608941 0.96694207
vt 0.43608941 0.95420104
vt 0.45345052 1.10593036
vt 0.45345052 1.08441749
vt 0.45345052 1.05925355
vt 0.45345052 1.05049963
vt 0.45345052 1.02454404
vt 0.45345052 1.00648656
vt 0.45345052 0.98637520
vt 0.45345052 0.97307517
vt 0.45345052 0.96099048
vt 0.45345052 0.94595563
vt 0.47081163 1.10221702
vt 0.47081163 1.08337785
vt 0.47081163 1.05820341
vt 0.47081163 1.05043719
vt 0.47081163 1.03030185
vt 0.47081163 1.01060766
vt 0.47081163 0.99077870
vt 0.47081163 0.98061157
vt 0.47081163 0.97190944
vt 0.47081163 0.96108292
vt 0.48817274 1.10617810
vt 0.48817274 1.08743929
vt 0.48817274 1.06119617
vt 0.48817274 1.05264970
vt 0.48817274 1.03358567
vt 0.48817274 1.01251392
vt 0.48817274 0.99186501
vt 0.48817274 0.98230186
vt 0.48817274 0.97435839
vt 0.48817274 0.96447573
vt 0.50553385 1.06988657
vt 0.50553385 1.05638539
vt 0.50553385 1.03935429
vt 0.50553385 1.03411018
vt 0.50553385 1.01885494
vt 0.50553385 1.00598888
vt 0.50553385 0.99252040
vt 0.50553385 0.98476338
vt 0.50553385 0.97792471
vt 0.50553385 0.96941656
vt 0.52289497 1.06943115
vt 0.52289497 1.05547007
vt 0.52289497 1.03886465
vt 0.52289497 1.03330086
vt 0.52289497 1.01668839
vt 0.52289497 1.00462904
vt 0.52289497 0.99139630
vt 0.52289497 0.98289726
vt 0.52289497 0.97522103
vt 0.52289497 0.96567083
vt 0.54025608 1.12856149
vt 0.54025608 1.10484128
vt 0.54025608 1.07318334
vt 0.54025608 1.06342548
vt 0.54025608 1.03804178
vt 0.54025608 1.01329307
vt 0.54025608 0.98835599
vt 0.54025608 0.97553669
vt 0.54025608 0.96455680
vt 0.54025608 0.95089646
vt 0.55761719 1.13458817
vt 0.55761719 1.11024976
vt 0.55761719 1.07703334
vt 0.55761719 1.06658233
vt 0.55761719 1.04112794
vt 0.55761719 1.01482976
vt 0.55761719 0.98868473
vt 0.55761719 0.97586835
vt 0.55761719 0.96503733
vt 0.55761719 0.95156219
vt 0.57497830 1.11363740
vt 0.57497830 1.09196262
vt 0.57497830 1.06416371
vt 0.57497830 1.05567295
vt 0.57497830 1.03155828
vt 0.57497830 1.01033795
vt 0.57497830 0.98838666
vt 0.57497830 0.97614807
vt 0.57497830 0.96544259
vt 0.57497830 0.95212365
vt 0.59233941 1.08923793
vt 0.59233941 1.07193910
vt 0.59233941 1.05021769
vt 0.59233941 1.04350572
vt 0.59233941 1.02387667
vt 0.59233941 1.00751559
vt 0.59233941 0.99033000
vt 0.59233941 0.98034384
vt 0.59233941 0.97152155
vt 0.59233941 0.96054552
vt 0.60970052 1.07053864
vt 0.60970052 1.05713996
vt 0.60970052 1.03986583
vt 0.60970052 1.03459524
vt 0.60970052 1.01976181
vt 0.60970052 1.00653321
vt 0.60970052 0.99289834
vt 0.60970052 0.98537476
vt 0.60970052 0.97881050
vt 0.60970052 0.97064375
vt 0.62706163 1.09251746
vt 0.62706163 1.07521887
vt 0.62706163 1.05248551
vt 0.62706163 1.04553486
vt 0.62706163 1.02673592
vt 0.62706163 1.00912423
vt 0.62706163 0.99120312
vt 0.62706163 0.98169048
vt 0.62706163 0.97347260
vt 0.62706163 0.96324854
vt 0.64442274 1.09490279
vt 0.64442274 1.07741932
vt 0.64442274 1.05404487
vt 0.64442274 1.04683133
vt 0.64442274 1.02815435
vt 0.64442274 1.00986307
vt 0.64442274 0.99145228
vt 0.64442274 0.98202214
vt 0.64442274 0.97395313
vt 0.64442274 0.96391427
vt 0.66178385 1.12362789
vt 0.66178385 1.10050057
vt 0.66178385 1.07012564
vt 0.66178385 1.06084049
vt 0.66178385 1.03569232
vt 0.66178385 1.01216910
vt 0.66178385 0.98822317
vt 0.66178385 0.97549673
vt 0.66178385 0.96449891
vt 0.66178385 0.95081625
vt 0.67914497 1.10979829
vt 0.67914497 1.08817350
vt 0.67914497 1.06161781
vt 0.67914497 1.05320614
vt 0.67914497 1.02817288
vt 0.67914497 1.00845979
vt 0.67914497 0.98739570
vt 0.67914497 0.97462960
vt 0.67914497 0.96324259
vt 0.67914497 0.94907573
vt 0.69650608 1.09448706
vt 0.69650608 1.07618048
vt 0.69650608 1.05317706
vt 0.69650608 1.04607315
vt 0.69650608 1.02531436
vt 0.69650608 1.00797958
vt 0.69650608 0.98978103
vt 0.69650608 0.97922097
vt 0.69650608 0.96989470
vt 0.69650608 0.95829167
vt 0.71386719 1.11574460
vt 0.71386719 1.09509778
vt 0.71386719 1.06650434
vt 0.71386719 1.05734160
vt 0.71386719 1.03608028
vt 0.71386719 1.01325929
vt 0.71386719 0.99075907
vt 0.71386719 0.98007611
vt 0.71386719 0.97113365
vt 0.71386719 0.96000813
vn -0.000000 0.042779 -0.999085
vn -0.000000 0.103863 -0.994592
vn -0.000000 0.370803 -0.928711
vn 0.000000 0.800510 0.599319
vn 0.000000 0.391374 0.920232
vn 0.000000 -0.141193 0.989982
vn 0.000000 -0.510447 0.859909
vn 0.000000 -0.584523 0.811377
vn 0.000000 -0.269630 0.962964
vn 0.000000 0.000000 1.000000
vn -0.007112 0.035851 -0.999332
vn -0.007092 0.082030 -0.996605
vn -0.006874 0.258544 -0.965975
vn 0.003588 0.863626 0.504121
vn 0.006745 0.318638 0.947852
vn 0.007079 -0.102210 0.994738
vn 0.006464 -0.418366 0.908256
vn 0.005877 -0.563920 0.825808
vn 0.006853 -0.269630 0.962940
vn 0.007116 0.000000 0.999975
vn -0.014220 0.039659 -0.999112
vn -0.014169 0.093715 -0.995498
vn -0.013504 0.315656 -0.948778
vn 0.008015 0.826340 0.563115
vn 0.013286 0.358365 0.933487
vn 0.014125 -0.122239 0.992400
vn 0.012569 -0.469100 0.883056
vn 0.011634 -0.576000 0.817367
vn 0.013705 -0.269630 0.962866
vn 0.014232 0.000000 0.999899
vn -0.021321 0.047089 -0.998663
vn -0.021194 0.118816 -0.992690
vn -0.018933 0.461728 -0.886819
vn 0.013601 0.770690 0.637065
vn 0.019195 0.437403 0.899061
vn 0.021026 -0.172139 0.984848
vn 0.017588 -0.566621 0.823791
vn 0.017161 -0.594676 0.803782
vn 0.020554 -0.269630 0.962745
vn 0.021345 0.000000 0.999772
vn -0.028429 0.042877 -0.998676
vn -0.028300 0.104191 -0.994155
vn -0.026405 0.372676 -0.927586
vn 0.017082 0.799760 0.600077
vn 0.026172 0.392418 0.919415
vn 0.028167 -0.141832 0.989490
vn 0.024447 -0.511741 0.858792
vn 0.023082 -0.584773 0.810868
vn 0.027401 -0.269630 0.962574
vn 0.028455 0.000000 0.999595
vn -0.035535 0.037745 -0.998655
vn -0.035423 0.087747 -0.995513
vn -0.034079 0.285660 -0.957725
vn 0.019059 0.844249 0.535612
vn 0.033464 0.338301 0.940443
vn 0.035337 -0.111784 0.993104
vn 0.031870 -0.443597 0.895660
vn 0.029213 -0.570183 0.820998
vn 0.034243 -0.269630 0.962355
vn 0.035560 0.000000 0.999368
vn -0.042627 0.039575 -0.998307
vn -0.042474 0.093449 -0.994718
vn -0.040499 0.314282 -0.948466
vn 0.023978 0.827091 0.561556
vn 0.039842 0.357481 0.933070
vn 0.042343 -0.121763 0.991656
vn 0.037701 -0.467982 0.882934
vn 0.034880 -0.575755 0.816878
vn 0.041081 -0.269630 0.962087
vn 0.042661 0.000000 0.999090
vn -0.049707 0.043660 -0.997809
vn -0.049470 0.106828 -0.993046
vn -0.045858 0.387921 -0.920551
vn 0.030253 0.793903 0.607292
vn 0.045584 0.400750 0.915053
vn 0.049214 -0.147030 0.987907
vn 0.042437 -0.522038 0.851866
vn 0.040290 -0.586739 0.808774
vn 0.047912 -0.269630 0.961771
vn 0.049754 0.000000 0.998761
vn -0.056788 0.042976 -0.997461
vn -0.056529 0.104522 -0.992915
vn -0.052703 0.374566 -0.925701
vn 0.034179 0.799009 0.600347
vn 0.052256 0.393467 0.917852
vn 0.056261 -0.142477 0.988198
vn 0.048790 -0.513041 0.856977
vn 0.046099 -0.585024 0.809704
vn 0.054735 -0.269630 0.961407
vn 0.056840 0.000000 0.998383
vn -0.063866 0.040281 -0.997145
vn -0.063625 0.095694 -0.993375
vn -0.060426 0.326000 -0.943437
vn 0.036504 0.820872 0.569944
vn 0.059510 0.364915 0.929137
vn 0.063410 -0.125817 0.990025
vn 0.056165 -0.477367 0.876907
vn 0.052169 -0.577789 0.814518
vn 0.061551 -0.269630 0.960995
vn 0.063918 0.000000 0.997955
vn -0.070931 0.039492 -0.996699
vn -0.070677 0.093184 -0.993137
vn -0.067421 0.312919 -0.947384
vn 0.039820 0.827843 0.559545
vn 0.066319 0.356601 0.931900
vn 0.070462 -0.121290 0.990113
vn 0.062775 -0.466868 0.882096
vn 0.058052 -0.575510 0.815732
vn 0.068357 -0.269630 0.960535
vn 0.070986 0.000000 0.997477
vn -0.077979 0.040696 -0.996124
vn -0.077675 0.097028 -0.992246
vn -0.073587 0.333078 -0.940023
vn 0.044968 0.817314 0.574435
vn 0.072527 0.369296 0.926477
vn 0.077399 -0.128259 0.988716
vn 0.068342 -0.482880 0.873015
vn 0.063633 -0.578956 0.812872
vn 0.075153 -0.269630 0.960027
vn 0.078043 0.000000 0.996950
vn -0.085009 0.043448 -0.995432
vn -0.084609 0.106113 -0.990748
vn -0.078574 0.383749 -0.920088
vn 0.051564 0.795462 0.603806
vn 0.078041 0.398499 0.913843
vn 0.084182 -0.145608 0.985754
vn 0.072718 -0.519262 0.851516
vn 0.068935 -0.586214 0.807218
vn 0.081938 -0.269630 0.959472
vn 0.085089 0.000000 0.996373
vn -0.092036 0.043183 -0.994819
vn -0.091611 0.105216 -0.990221
vn -0.085266 0.378557 -0.921642
vn 0.055585 0.797448 0.600822
vn 0.084604 0.395667 0.914489
vn 0.091164 -0.143838 0.985393
vn 0.078924 -0.515763 0.853088
vn 0.074678 -0.585547 0.807191
vn 0.088710 -0.269630 0.958869
vn 0.092122 0.000000 0.995748
vn -0.099065 0.039183 -0.994309
vn -0.098719 0.092211 -0.990834
vn -0.094324 0.307932 -0.946721
vn 0.055202 0.830644 0.554060
vn 0.092745 0.353355 0.930881
vn 0.098430 -0.119559 0.987936
vn 0.087887 -0.462756 0.882118
vn 0.081141 -0.574597 0.814404
vn 0.095469 -0.269630 0.958220
vn 0.099141 0.000000 0.995073
vn -0.106068 0.038109 -0.993628
vn -0.105725 0.088867 -0.990416
vn -0.101547 0.291158 -0.951270
vn 0.057476 0.840714 0.538420
vn 0.099741 0.342105 0.934353
vn 0.105457 -0.113710 0.987901
vn 0.094874 -0.448451 0.888758
vn 0.087116 -0.571327 0.816086
vn 0.102214 -0.269630 0.957524
vn 0.106145 0.000000 0.994351
vn -0.113028 0.043348 -0.992646
vn -0.112499 0.105773 -0.988006
vn -0.104565 0.381774 -0.918322
vn 0.068448 0.796212 0.601134
vn 0.103816 0.397425 0.911743
vn 0.111939 -0.144935 0.983089
vn 0.096777 -0.517936 0.849927
vn 0.091677 -0.585962 0.805136
vn 0.108944 -0.269630 0.956782
vn 0.113134 0.000000 0.993580
vn -0.119976 0.046534 -0.991686
vn -0.119283 0.116827 -0.985963
vn -0.107319 0.448985 -0.887071
vn 0.076021 0.774193 0.628368
vn 0.108351 0.431463 0.895600
vn 0.118403 -0.167798 0.978685
vn 0.099549 -0.559478 0.822845
vn 0.096669 -0.593461 0.799036
vn 0.115658 -0.269630 0.955993
vn 0.120106 0.000000 0.992761
vn -0.126962 0.039265 -0.991130
vn -0.126516 0.092470 -0.987645
vn -0.120831 0.309254 -0.943272
vn 0.070890 0.829893 0.553400
vn 0.118822 0.354220 0.927583
vn 0.126142 -0.120018 0.984725
vn 0.112564 -0.463852 0.878732
vn 0.103969 -0.574842 0.811633
vn 0.122354 -0.269630 0.955159
vn 0.127060 0.000000 0.991895
vn -0.133908 0.036180 -0.990333
vn -0.133533 0.083009 -0.987562
vn -0.129275 0.263078 -0.956074
vn 0.068345 0.860143 0.505453
vn 0.126857 0.322036 0.938190
vn 0.133271 -0.103819 0.985627
vn 0.121433 -0.422740 0.898078
vn 0.110554 -0.565046 0.817619
vn 0.129033 -0.269630 0.954280
vn 0.133995 0.000000 0.990982
vn -0.140779 0.043247 -0.989096
vn -0.140126 0.105434 -0.984504
vn -0.130352 0.379816 -0.915832
vn 0.085115 0.796961 0.598003
vn 0.129370 0.396357 0.908936
vn 0.139437 -0.144268 0.979665
vn 0.120651 -0.516616 0.847674
vn 0.114211 -0.585711 0.802433
vn 0.135692 -0.269630 0.953356
vn 0.140911 0.000000 0.990022
vn -0.147637 0.047851 -0.987883
vn -0.146710 0.121582 -0.981679
vn -0.129684 0.479772 -0.867756
vn 0.095013 0.766019 0.635757
vn 0.132323 0.445575 0.885411
vn 0.145438 -0.178302 0.973168
vn 0.120784 -0.576391 0.808198
vn 0.118653 -0.596306 0.793940
vn 0.142332 -0.269630 0.952387
vn 0.147806 0.000000 0.989016
vn -0.154560 0.039348 -0.987199
vn -0.154014 0.092730 -0.983708
vn -0.147030 0.310587 -0.939105
vn 0.086472 0.829142 0.552309
vn 0.144600 0.355089 0.923582
vn 0.153553 -0.120481 0.980768
vn 0.136944 -0.464953 0.874680
vn 0.126543 -0.575086 0.808247
vn 0.148951 -0.269630 0.951374
vn 0.154680 0.000000 0.987965
vn -0.161426 0.036110 -0.986224
vn -0.160977 0.082800 -0.983479
vn -0.155884 0.262106 -0.952366
vn 0.082188 0.860881 0.502125
vn 0.152966 0.321312 0.934537
vn 0.160664 -0.103475 0.981570
vn 0.146458 -0.421809 0.894778
vn 0.133299 -0.564808 0.814385
vn 0.155549 -0.269630 0.950318
vn 0.161532 0.000000 0.986868
vn -0.168203 0.043147 -0.984808
vn -0.167427 0.105098 -0.980267
vn -0.155877 0.377877 -0.912640
vn 0.101527 0.797711 0.594431
vn 0.154647 0.395294 0.905443
vn 0.166615 -0.143607 0.975508
vn 0.144286 -0.515302 0.844776
vn 0.136489 -0.585459 0.799130
vn 0.162124 -0.269630 0.949218
vn 0.168360 0.000000 0.985726
vn -0.174971 0.046837 -0.983459
vn -0.173942 0.117910 -0.977671
vn -0.155901 0.455899 -0.876271
vn 0.111280 0.772270 0.625472
vn 0.157748 0.434704 0.886650
vn 0.172609 -0.170153 0.970183
vn 0.144720 -0.563379 0.813425
vn 0.140896 -0.594127 0.791935
vn 0.168676 -0.269630 0.948076
vn 0.175164 0.000000 0.984539
vn -0.181801 0.039431 -0.982544
vn -0.181154 0.092992 -0.979048
vn -0.172864 0.311931 -0.934247
vn 0.101915 0.828391 0.550801
vn 0.170025 0.355962 0.918903
vn 0.180607 -0.120948 0.976091
vn 0.160974 -0.466059 0.869986
vn 0.148814 -0.575331 0.804269
vn 0.175204 -0.269630 0.946891
vn 0.181942 0.000000 0.983309
vn -0.188560 0.037908 -0.981330
vn -0.187959 0.088249 -0.978204
vn -0.180694 0.288117 -0.940393
vn 0.101604 0.842654 0.528782
vn 0.177453 0.340009 0.923528
vn 0.187495 -0.112645 0.975785
vn 0.168910 -0.445777 0.879063
vn 0.154949 -0.570699 0.806408
vn 0.181707 -0.269630 0.945665
vn 0.188696 0.000000 0.982036
vn -0.195249 0.042073 -0.979851
vn -0.194412 0.101520 -0.975652
vn -0.182500 0.357600 -0.915869
vn 0.115670 0.806012 0.580487
vn 0.180449 0.383878 0.905580
vn 0.193588 -0.136679 0.971516
vn 0.169113 -0.501130 0.848687
vn 0.158818 -0.582690 0.797025
vn 0.188184 -0.269630 0.944397
vn 0.195422 0.000000 0.980719
vn -0.201930 0.043443 -0.978436
vn -0.200980 0.106094 -0.973833
vn -0.186655 0.383642 -0.904422
vn 0.122475 0.795502 0.593444
vn 0.185384 0.398441 0.898264
vn 0.199968 -0.145572 0.968928
vn 0.172744 -0.519190 0.837019
vn 0.163751 -0.586200 0.793445
vn 0.194635 -0.269630 0.943089
vn 0.202121 0.000000 0.979361
vn -0.208610 0.041733 -0.977108
vn -0.207737 0.100400 -0.973019
vn -0.195477 0.351388 -0.915596
vn 0.122806 0.808735 0.575210
vn 0.193106 0.380268 0.904492
vn 0.206893 -0.134551 0.969067
vn 0.181224 -0.496627 0.848834
vn 0.169819 -0.581787 0.795415
vn 0.201059 -0.269630 0.941740
vn 0.208792 0.000000 0.977960
vn -0.215257 0.040467 -0.975719
vn -0.214432 0.096292 -0.971981
vn -0.203428 0.329160 -0.922101
vn 0.123532 0.819266 0.559949
vn 0.200411 0.366881 0.908424
vn 0.213691 -0.126908 0.968623
vn 0.189011 -0.479843 0.856753
vn 0.175753 -0.578315 0.796657
vn 0.207454 -0.269630 0.940352
vn 0.215433 0.000000 0.976519
vn -0.221874 0.039314 -0.974283
vn -0.221091 0.092625 -0.970845
vn -0.211103 0.310045 -0.926988
vn 0.124031 0.829447 0.544641
vn 0.207605 0.354736 0.911626
vn 0.220433 -0.120293 0.967956
vn 0.196636 -0.464506 0.863463
vn 0.181669 -0.574987 0.797738
vn 0.213822 -0.269630 0.938925
vn 0.222045 0.000000 0.975036
vn -0.228439 0.040508 -0.972715
vn -0.227561 0.096421 -0.968978
vn -0.215831 0.329847 -0.919031
vn 0.131210 0.818921 0.558706
vn 0.212646 0.367306 0.905466
vn 0.226771 -0.127145 0.965613
vn 0.200520 -0.480378 0.853832
vn 0.186498 -0.578429 0.794128
vn 0.220159 -0.269630 0.937459
vn 0.228627 0.000000 0.973514
vn -0.234940 0.044855 -0.970974
vn -0.233725 0.110926 -0.965954
vn -0.214254 0.412329 -0.885483
vn 0.145580 0.785374 0.601660
vn 0.214129 0.413506 0.884964
vn 0.232322 -0.155333 0.960155
vn 0.198288 -0.537689 0.819495
vn 0.189947 -0.589626 0.785023
vn 0.226467 -0.269630 0.935955
vn 0.235177 0.000000 0.971953
vn -0.241467 0.043397 -0.969438
vn -0.240335 0.105938 -0.964892
vn -0.223292 0.382732 -0.896469
vn 0.146346 0.795847 0.587546
vn 0.221733 0.397947 0.890209
vn 0.239132 -0.145262 0.960060
vn 0.206656 -0.518580 0.829679
vn 0.195833 -0.586085 0.786228
vn 0.232744 -0.269630 0.934414
vn 0.241695 0.000000 0.970352
vn -0.248012 0.036894 -0.968054
vn -0.247279 0.085157 -0.965195
vn -0.238741 0.273185 -0.931865
vn 0.129633 0.852742 0.505990
vn 0.234326 0.329447 0.914634
vn 0.246746 -0.107395 0.963111
vn 0.223797 -0.432263 0.873535
vn 0.204356 -0.567437 0.797655
vn 0.238989 -0.269630 0.932836
vn 0.248181 0.000000 0.968714
vn -0.075611 0.042657 -0.996225
vn -0.132370 0.150401 -0.979723
vn -0.780793 0.583669 -0.222920
vn -0.736373 0.399142 0.546297
vn -0.396337 0.122494 0.909897
vn -0.042724 -0.394259 0.918006
vn 0.084859 0.035700 -0.995753
vn 0.117191 0.113890 -0.986557
vn 0.602725 0.526087 -0.599962
vn 0.649937 0.418906 0.634113
vn 0.357966 0.089049 0.929479
vn 0.183450 -0.295134 0.937679
vn 0.050479 0.039580 -0.997941
vn 0.082095 0.133565 -0.987634
vn 0.576946 0.669237 -0.468246
vn 0.565075 0.476085 0.673820
vn 0.258919 0.111156 0.959482
vn 0.055417 -0.349799 0.935184
vn 0.025847 0.047047 -0.998558
vn 0.019123 0.178786 -0.983702
vn -0.077827 0.996660 -0.024716
vn -0.086691 0.608070 0.789136
vn 0.050773 0.164663 0.985042
vn 0.153286 -0.457015 0.876151
vn -0.001575 0.042879 -0.999079
vn -0.018668 0.152369 -0.988147
vn -0.315678 0.891932 -0.323736
vn -0.286771 0.561767 0.776003
vn -0.064395 0.133537 0.988950
vn 0.080602 -0.395617 0.914872
vn -0.112571 0.037656 -0.992930
vn -0.129654 0.123679 -0.983816
vn -0.482909 0.659401 -0.576186
vn -0.453609 0.492253 0.742917
vn -0.379224 0.095209 0.920393
vn -0.359511 -0.298654 0.884058
vn -0.016434 0.039598 -0.999081
vn -0.003044 0.133738 -0.991012
vn 0.218240 0.796482 -0.563904
vn 0.233252 0.560868 0.794368
vn -0.006125 0.114146 0.993445
vn -0.137583 -0.343681 0.928953
vn 0.013988 0.043625 -0.998950
vn 0.014255 0.156872 -0.987516
vn 0.030068 0.956029 -0.291727
vn 0.017361 0.594875 0.803631
vn 0.043283 0.139427 0.989286
vn 0.061639 -0.408117 0.910846
vn 0.035510 0.042862 -0.998450
vn 0.032659 0.152537 -0.987758
vn 0.009836 0.939415 -0.342642
vn -0.015659 0.590488 0.806895
vn 0.098441 0.134797 0.985971
vn 0.172937 -0.395131 0.902200
vn 0.098350 0.039832 -0.994354
vn 0.118145 0.135551 -0.983701
vn 0.497748 0.721567 -0.481236
vn 0.461768 0.524843 0.715060
vn 0.363583 0.112813 0.924706
vn 0.319044 -0.346796 0.882011
vn -0.049298 0.039582 -0.997999
vn -0.056536 0.133592 -0.989423
vn -0.229645 0.803017 -0.549933
vn -0.196438 0.553776 0.809162
vn -0.174058 0.110578 0.978507
vn -0.171456 -0.338639 0.925163
vn -0.009958 0.040726 -0.999121
vn -0.003412 0.139868 -0.990164
vn 0.106372 0.856227 -0.505529
vn 0.110950 0.579011 0.807736
vn -0.008535 0.120493 0.992677
vn -0.076604 -0.361432 0.929246
vn -0.069849 0.043601 -0.996604
vn -0.087128 0.156275 -0.983863
vn -0.417380 0.874772 -0.246106
vn -0.332459 0.546050 0.768960
vn -0.256258 0.130245 0.957793
vn -0.215371 -0.388267 0.896027
vn -0.054318 0.043336 -0.997583
vn -0.088551 0.154772 -0.983974
vn -0.608390 0.765788 -0.208399
vn -0.522485 0.481480 0.703694
vn -0.265990 0.127844 0.955461
vn -0.067463 -0.397400 0.915162
vn 0.091973 0.038658 -0.995011
vn 0.108130 0.129450 -0.985673
vn 0.437105 0.702194 -0.562017
vn 0.422370 0.535857 0.731068
vn 0.340583 0.109093 0.933864
vn 0.309875 -0.336574 0.889211
vn -0.004879 0.038128 -0.999261
vn 0.012348 0.125847 -0.991973
vn 0.294626 0.709550 -0.640104
vn 0.332101 0.547491 0.768090
vn 0.042427 0.106672 0.993389
vn -0.107701 -0.323594 0.940047
vn 0.101789 0.042621 -0.993893
vn 0.131685 0.151469 -0.979651
vn 0.606284 0.731810 -0.311246
vn 0.561535 0.520639 0.643129
vn 0.407979 0.131536 0.903466
vn 0.300992 -0.396980 0.867070
vn -0.053978 0.046770 -0.997446
vn -0.093684 0.176373 -0.979855
vn -0.618539 0.785473 0.021007
vn -0.524937 0.486874 0.698137
vn -0.278795 0.148572 0.948789
vn -0.047711 -0.449409 0.892051
vn -0.059363 0.039494 -0.997455
vn -0.086488 0.133021 -0.987332
vn -0.549598 0.706892 -0.445247
vn -0.491571 0.466578 0.735298
vn -0.257768 0.104973 0.960488
vn -0.114398 -0.337659 0.934291
vn -0.021090 0.036275 -0.999119
vn 0.000814 0.116356 -0.993207
vn 0.324869 0.617098 -0.716694
vn 0.414580 0.526549 0.742206
vn 0.004522 0.096727 0.995301
vn -0.191666 -0.290853 0.937373
vn -0.060425 0.043540 -0.997223
vn -0.053744 0.155461 -0.986379
vn 0.017735 0.945890 -0.324003
vn 0.057814 0.595340 0.801391
vn -0.153390 0.131926 0.979320
vn -0.279052 -0.370959 0.885731
vn 0.106954 0.046813 -0.993161
vn 0.097665 0.180566 -0.978702
vn -0.005127 0.999521 0.030526
vn -0.079858 0.606974 0.790699
vn 0.279547 0.171240 0.944738
vn 0.517261 -0.437075 0.735803
vn 0.024700 0.039184 -0.998927
vn 0.018544 0.132101 -0.991063
vn -0.070920 0.814506 -0.575803
vn -0.087593 0.561992 0.822492
vn 0.057405 0.113740 0.991851
vn 0.140804 -0.349496 0.926297
vn 0.036031 0.035873 -0.998707
vn 0.061165 0.114657 -0.991520
vn 0.448674 0.563956 -0.693286
vn 0.552567 0.499268 0.667384
vn 0.203918 0.097511 0.974120
vn 0.019988 -0.304001 0.952462
vn -0.027357 0.043333 -0.998686
vn -0.023001 0.154477 -0.987729
vn 0.033397 0.941908 -0.334206
vn 0.049508 0.595189 0.802059
vn -0.066861 0.133991 0.988724
vn -0.139899 -0.387369 0.911248
vn -0.108416 0.047463 -0.992972
vn -0.173146 0.179894 -0.968328
vn -0.784897 0.609430 0.111944
vn -0.676592 0.388824 0.625332
vn -0.444193 0.133040 0.885998
vn -0.165087 -0.438830 0.883275
vn 0.004865 0.039395 -0.999212
vn -0.001251 0.132979 -0.991118
vn -0.108394 0.819303 -0.563021
vn -0.110022 0.558074 0.822465
vn -0.005422 0.113262 0.993550
vn 0.052849 -0.349631 0.935396
vn 0.004112 0.037878 -0.999274
vn 0.022133 0.124435 -0.991981
vn 0.315863 0.681048 -0.660610
vn 0.369167 0.554619 0.745730
vn 0.074364 0.106454 0.991533
vn -0.074342 -0.321107 0.944121
vn 0.060501 0.041489 -0.997305
vn 0.078735 0.144871 -0.986313
vn 0.417829 0.795485 -0.438888
vn 0.395476 0.575112 0.716132
vn 0.258298 0.131125 0.957125
vn 0.178453 -0.390687 0.903061
vn 0.072105 0.042684 -0.996483
vn 0.083857 0.152480 -0.984743
vn 0.335978 0.873928 -0.351238
vn 0.281035 0.596850 0.751525
vn 0.270947 0.140272 0.952319
vn 0.271644 -0.409917 0.870734
vn -0.054436 0.042156 -0.997627
vn -0.071529 0.147493 -0.986473
vn -0.403811 0.855604 -0.323850
vn -0.322065 0.520059 0.791084
vn -0.209222 0.118381 0.970676
vn -0.146528 -0.364241 0.919705
vn 0.004854 0.040424 -0.999171
vn 0.001976 0.138508 -0.990359
vn -0.046557 0.859652 -0.508754
vn -0.048103 0.571502 0.819189
vn 0.005293 0.119380 0.992834
vn 0.036340 -0.363781 0.930775
vn -0.097498 0.039999 -0.994432
vn -0.114213 0.134871 -0.984259
vn -0.467826 0.763023 -0.446022
vn -0.376131 0.487673 0.787846
vn -0.312421 0.099117 0.944759
vn -0.294448 -0.308200 0.904606
vn -0.012752 0.040626 -0.999093
vn 0.003011 0.138693 -0.990331
vn 0.260529 0.799788 -0.540799
vn 0.284167 0.584624 0.759910
vn 0.014199 0.119861 0.992689
vn -0.130982 -0.348369 0.928161
vn 0.065684 0.044046 -0.996868
vn 0.075225 0.160952 -0.984091
vn 0.282500 0.924675 -0.255282
vn 0.222818 0.611060 0.759577
vn 0.241860 0.151771 0.958368
vn 0.259395 -0.435406 0.862053
vn 0.012442 0.043259 -0.998986
vn -0.012437 0.155875 -0.987698
vn -0.423120 0.887114 -0.184386
vn -0.359307 0.509940 0.781575
vn -0.048896 0.135665 0.989547
vn 0.188085 -0.413828 0.890713
f 1/1/371 11/11/371 12/12/371
f 1/1/371 12/12/371 2/2/371
f 2/2/372 12/12/372 13/13/372
f 2/2/372 13/13/372 3/3/372
f 3/3/373 13/13/373 14/14/373
f 3/3/373 14/14/373 4/4/373
f 4/4/374 14/14/374 15/15/374
f 4/4/374 15/15/374 5/5/374
f 5/5/375 15/15/375 16/16/375
f 5/5/375 16/16/375 6/6/375
f 6/6/376 16/16/376 17/17/376
f 6/6/376 17/17/376 7/7/376
f 7/7/7 17/17/17 18/18/18
f 7/7/7 18/18/18 8/8/8
f 8/8/8 18/18/18 19/19/19
f 8/8/8 19/19/19 9/9/9
f 9/9/9 19/19/19 20/20/20
f 9/9/9 20/20/20 10/10/10
f 11/11/377 21/21/377 22/22/377
f 11/11/377 22/22/377 12/12/377
f 12/12/378 22/22/378 23/23/378
f 12/12/378 23/23/378 13/13/378
f 13/13/379 23/23/379 24/24/379
f 13/13/379 24/24/379 14/14/379
f 14/14/380 24/24/380 25/25/380
f 14/14/380 25/25/380 15/15/380
f 15/15/381 25/25/381 26/26/381
f 15/15/381 26/26/381 16/16/381
f 16/16/382 26/26/382 27/27/382
f 16/16/382 27/27/382 17/17/382
f 17/17/17 27/27/27 28/28/28
f 17/17/17 28/28/28 18/18/18
f 18/18/18 28/28/28 29/29/29
f 18/18/18 29/29/29 19/19/19
f 19/19/19 29/29/29 30/30/30
f 19/19/19 30/30/30 20/20/20
f 21/21/383 31/31/383 32/32/383
f 21/21/383 32/32/383 22/22/383
f 22/22/384 32/32/384 33/33/384
f 22/22/384 33/33/384 23/23/384
f 23/23/385 33/33/385 34/34/385
f 23/23/385 34/34/385 24/24/385
f 24/24/386 34/34/386 35/35/386
f 24/24/386 35/35/386 25/25/386
f 25/25/387 35/35/387 36/36/387
f 25/25/387 36/36/387 26/26/387
f 26/26/388 36/36/388 37/37/388
f 26/26/388 37/37/388 27/27/388
f 27/27/27 37/37/37 38/38/38
f 27/27/27 38/38/38 28/28/28
f 28/28/28 38/38/38 39/39/39
f 28/28/28 39/39/39 29/29/29
f 29/29/29 39/39/39 40/40/40
f 29/29/29 40/40/40 30/30/30
f 31/31/389 41/41/389 42/42/389
f 31/31/389 42/42/389 32/32/389
f 32/32/390 42/42/390 43/43/390
f 32/32/390 43/43/390 33/33/390
f 33/33/391 43/43/391 44/44/391
f 33/33/391 44/44/391 34/34/391
f 34/34/392 44/44/392 45/45/392
f 34/34/392 45/45/392 35/35/392
f 35/35/393 45/45/393 46/46/393
f 35/35/393 46/46/393 36/36/393
f 36/36/394 46/46/394 47/47/394
f 36/36/394 47/47/394 37/37/394
f 37/37/37 47/47/47 48/48/48
f 37/37/37 48/48/48 38/38/38
f 38/38/38 48/48/48 49/49/49
f 38/38/38 49/49/49 39/39/39
f 39/39/39 49/49/49 50/50/50
f 39/39/39 50/50/50 40/40/40
f 41/41/395 51/51/395 52/52/395
f 41/41/395 52/52/395 42/42/395
f 42/42/396 52/52/396 53/53/396
f 42/42/396 53/53/396 43/43/396
f 43/43/397 53/53/397 54/54/397
f 43/43/397 54/54/397 44/44/397
f 44/44/398 54/54/398 55/55/398
f 44/44/398 55/55/398 45/45/398
f 45/45/399 55/55/399 56/56/399
f 45/45/399 56/56/399 46/46/399
f 46/46/400 56/56/400 57/57/400
f 46/46/400 57/57/400 47/47/400
f 47/47/47 57/57/57 58/58/58
f 47/47/47 58/58/58 48/48/48
f 48/48/48 58/58/58 59/59/59
f 48/48/48 59/59/59 49/49/49
f 49/49/49 59/59/59 60/60/60
f 49/49/49 60/60/60 50/50/50
f 51/51/401 61/61/401 62/62/401
f 51/51/401 62/62/401 52/52/401
f 52/52/402 62/62/402 63/63/402
f 52/52/402 63/63/402 53/53/402
f 53/53/403 63/63/403 64/64/403
f 53/53/403 64/64/403 54/54/403
f 54/54/404 64/64/404 65/65/404
f 54/54/404 65/65/404 55/55/404
f 55/55/405 65/65/405 66/66/405
f 55/55/405 66/66/405 56/56/405
f 56/56/406 66/66/406 67/67/406
f 56/56/406 67/67/406 57/57/406
f 57/57/57 67/67/67 68/68/68
f 57/57/57 68/68/68 58/58/58
f 58/58/58 68/68/68 69/69/69
f 58/58/58 69/69/69 59/59/59
f 59/59/59 69/69/69 70/70/70
f 59/59/59 70/70/70 60/60/60
f 61/61/407 71/71/407 72/72/407
f 61/61/407 72/72/407 62/62/407
f 62/62/408 72/72/408 73/73/408
f 62/62/408 73/73/408 63/63/408
f 63/63/409 73/73/409 74/74/409
f 63/63/409 74/74/409 64/64/409
f 64/64/410 74/74/410 75/75/410
f 64/64/410 75/75/410 65/65/410
f 65/65/411 75/75/411 76/76/411
f 65/65/411 76/76/411 66/66/411
f 66/66/412 76/76/412 77/77/412
f 66/66/412 77/77/412 67/67/412
f 67/67/67 77/77/77 78/78/78
f 67/67/67 78/78/78 68/68/68
f 68/68/68 78/78/78 79/79/79
f 68/68/68 79/79/79 69/69/69
f 69/69/69 79/79/79 80/80/80
f 69/69/69 80/80/80 70/70/70
f 71/71/413 81/81/413 82/82/413
f 71/71/413 82/82/413 72/72/413
f 72/72/414 82/82/414 83/83/414
f 72/72/414 83/83/414 73/73/414
f 73/73/415 83/83/415 84/84/415
f 73/73/415 84/84/415 74/74/415
f 74/74/416 84/84/416 85/85/416
f 74/74/416 85/85/416 75/75/416
f 75/75/417 85/85/417 86/86/417
f 75/75/417 86/86/417 76/76/417
f 76/76/418 86/86/418 87/87/418
f 76/76/418 87/87/418 77/77/418
f 77/77/77 87/87/87 88/88/88
f 77/77/77 88/88/88 78/78/78
f 78/78/78 88/88/88 89/89/89
f 78/78/78 89/89/89 79/79/79
f 79/79/79 89/89/89 90/90/90
f 79/79/79 90/90/90 80/80/80
f 81/81/419 91/91/419 92/92/419
f 81/81/419 92/92/419 82/82/419
f 82/82/420 92/92/420 93/93/420
f 82/82/420 93/93/420 83/83/420
f 83/83/421 93/93/421 94/94/421
f 83/83/421 94/94/421 84/84/421
f 84/84/422 94/94/422 95/95/422
f 84/84/422 95/95/422 85/85/422
f 85/85/423 95/95/423 96/96/423
f 85/85/423 96/96/423 86/86/423
f 86/86/424 96/96/424 97/97/424
f 86/86/424 97/97/424 87/87/424
f 87/87/87 97/97/97 98/98/98
f 87/87/87 98/98/98 88/88/88
f 88/88/88 98/98/98 99/99/99
f 88/88/88 99/99/99 89/89/89
f 89/89/89 99/99/99 100/100/100
f 89/89/89 100/100/100 90/90/90
f 91/91/425 101/101/425 102/102/425
f 91/91/425 102/102/425 92/92/425
f 92/92/426 102/102/426 103/103/426
f 92/92/426 103/103/426 93/93/426
f 93/93/427 103/103/427 104/104/427
f 93/93/427 104/104/427 94/94/427
f 94/94/428 104/104/428 105/105/428
f 94/94/428 105/105/428 95/95/428
f 95/95/429 105/105/429 106/106/429
f 95/95/429 106/106/429 96/96/429
f 96/96/430 106/106/430 107/107/430
f 96/96/430 107/107/430 97/97/430
f 97/97/97 107/107/107 108/108/108
f 97/97/97 108/108/108 98/98/98
f 98/98/98 108/108/108 109/109/109
f 98/98/98 109/109/109 99/99/99
f 99/99/99 109/109/109 110/110/110
f 99/99/99 110/110/110 100/100/100
f 101/101/431 111/111/431 112/112/431
f 101/101/431 112/112/431 102/102/431
f 102/102/432 112/112/432 113/113/432
f 102/102/432 113/113/432 103/103/432
f 103/103/433 113/113/433 114/114/433
f 103/103/433 114/114/433 104/104/433
f 104/104/434 114/114/434 115/115/434
f 104/104/434 115/115/434 105/105/434
f 105/105/435 115/115/435 116/116/435
f 105/105/435 116/116/435 106/106/435
f 106/106/436 116/116/436 117/117/436
f 106/106/436 117/117/436 107/107/436
f 107/107/107 117/117/117 118/118/118
f 107/107/107 118/118/118 108/108/108
f 108/108/108 118/118/118 119/119/119
f 108/108/108 119/119/119 109/109/109
f 109/109/109 119/119/119 120/120/120
f 109/109/109 120/120/120 110/110/110
f 111/111/437 121/121/437 122/122/437
f 111/111/437 122/122/437 112/112/437
f 112/112/438 122/122/438 123/123/438
f 112/112/438 123/123/438 113/113/438
f 113/113/439 123/123/439 124/124/439
f 113/113/439 124/124/439 114/114/439
f 114/114/440 124/124/440 125/125/440
f 114/114/440 125/125/440 115/115/440
f 115/115/441 125/125/441 126/126/441
f 115/115/441 126/126/441 116/116/441
f 116/116/442 126/126/442 127/127/442
f 116/116/442 127/127/442 117/117/442
f 117/117/117 127/127/127 128/128/128
f 117/117/117 128/128/128 118/118/118
f 118/118/118 128/128/128 129/129/129
f 118/118/118 129/129/129 119/119/119
f 119/119/119 129/129/129 130/130/130
f 119/119/119 130/130/130 120/120/120
f 121/121/443 131/131/443 132/132/443
f 121/121/443 132/132/443 122/122/443
f 122/122/444 132/132/444 133/133/444
f 122/122/444 133/133/444 123/123/444
f 123/123/445 133/133/445 134/134/445
f 123/123/445 134/134/445 124/124/445
f 124/124/446 134/134/446 135/135/446
f 124/124/446 135/135/446 125/125/446
f 125/125/447 135/135/447 136/136/447
f 125/125/447 136/136/447 126/126/447
f 126/126/448 136/136/448 137/137/448
f 126/126/448 137/137/448 127/127/448
f 127/127/127 137/137/137 138/138/138
f 127/127/127 138/138/138 128/128/128
f 128/128/128 138/138/138 139/139/139
f 128/128/128 139/139/139 129/129/129
f 129/129/129 139/139/139 140/140/140
f 129/129/129 140/140/140 130/130/130
f 131/131/449 141/141/449 142/142/449
f 131/131/449 142/142/449 132/132/449
f 132/132/450 142/142/450 143/143/450
f 132/132/450 143/143/450 133/133/450
f 133/133/451 143/143/451 144/144/451
f 133/133/451 144/144/451 134/134/451
f 134/134/452 144/144/452 145/145/452
f 134/134/452 145/145/452 135/135/452
f 135/135/453 145/145/453 146/146/453
f 135/135/453 146/146/453 136/136/453
f 136/136/454 146/146/454 147/147/454
f 136/136/454 147/147/454 137/137/454
f 137/137/137 147/147/147 148/148/148
f 137/137/137 148/148/148 138/138/138
f 138/138/138 148/148/148 149/149/149
f 138/138/138 149/149/149 139/139/139
f 139/139/139 149/149/149 150/150/150
f 139/139/139 150/150/150 140/140/140
f 141/141/455 151/151/455 152/152/455
f 141/141/455 152/152/455 142/142/455
f 142/142/456 152/152/456 153/153/456
f 142/142/456 153/153/456 143/143/456
f 143/143/457 153/153/457 154/154/457
f 143/143/457 154/154/457 144/144/457
f 144/144/458 154/154/458 155/155/458
f 144/144/458 155/155/458 145/145/458
f 145/145/459 155/155/459 156/156/459
f 145/145/459 156/156/459 146/146/459
f 146/146/460 156/156/460 157/157/460
f 146/146/460 157/157/460 147/147/460
f 147/147/147 157/157/157 158/158/158
f 147/147/147 158/158/158 148/148/148
f 148/148/148 158/158/158 159/159/159
f 148/148/148 159/159/159 149/149/149
f 149/149/149 159/159/159 160/160/160
f 149/149/149 160/160/160 150/150/150
f 151/151/461 161/161/461 162/162/461
f 151/151/461 162/162/461 152/152/461
f 152/152/462 162/162/462 163/163/462
f 152/152/462 163/163/462 153/153/462
f 153/153/463 163/163/463 164/164/463
f 153/153/463 164/164/463 154/154/463
f 154/154/464 164/164/464 165/165/464
f 154/154/464 165/165/464 155/155/464
f 155/155/465 165/165/465 166/166/465
f 155/155/465 166/166/465 156/156/465
f 156/156/466 166/166/466 167/167/466
f 156/156/466 167/167/466 157/157/466
f 157/157/157 167/167/167 168/168/168
f 157/157/157 168/168/168 158/158/158
f 158/158/158 168/168/168 169/169/169
f 158/158/158 169/169/169 159/159/159
f 159/159/159 169/169/169 170/170/170
f 159/159/159 170/170/170 160/160/160
f 161/161/467 171/171/467 172/172/467
f 161/161/467 172/172/467 162/162/467
f 162/162/468 172/172/468 173/173/468
f 162/162/468 173/173/468 163/163/468
f 163/163/469 173/173/469 174/174/469
f 163/163/469 174/174/469 164/164/469
f 164/164/470 174/174/470 175/175/470
f 164/164/470 175/175/470 165/165/470
f 165/165/471 175/175/471 176/176/471
f 165/165/471 176/176/471 166/166/471
f 166/166/472 176/176/472 177/177/472
f 166/166/472 177/177/472 167/167/472
f 167/167/167 177/177/177 178/178/178
f 167/167/167 178/178/178 168/168/168
f 168/168/168 178/178/178 179/179/179
f 168/168/168 179/179/179 169/169/169
f 169/169/169 179/179/179 180/180/180
f 169/169/169 180/180/180 170/170/170
f 171/171/473 181/181/473 182/182/473
f 171/171/473 182/182/473 172/172/473
f 172/172/474 182/182/474 183/183/474
f 172/172/474 183/183/474 173/173/474
f 173/173/475 183/183/475 184/184/475
f 173/173/475 184/184/475 174/174/475
f 174/174/476 184/184/476 185/185/476
f 174/174/476 185/185/476 175/175/476
f 175/175/477 185/185/477 186/186/477
f 175/175/477 186/186/477 176/176/477
f 176/176/478 186/186/478 187/187/478
f 176/176/478 187/187/478 177/177/478
f 177/177/177 187/187/187 188/188/188
f 177/177/177 188/188/188 178/178/178
f 178/178/178 188/188/188 189/189/189
f 178/178/178 189/189/189 179/179/179
f 179/179/179 189/189/189 190/190/190
f 179/179/179 190/190/190 180/180/180
f 181/181/479 191/191/479 192/192/479
f 181/181/479 192/192/479 182/182/479
f 182/182/480 192/192/480 193/193/480
f 182/182/480 193/193/480 183/183/480
f 183/183/481 193/193/481 194/194/481
f 183/183/481 194/194/481 184/184/481
f 184/184/482 194/194/482 195/195/482
f 184/184/482 195/195/482 185/185/482
f 185/185/483 195/195/483 196/196/483
f 185/185/483 196/196/483 186/186/483
f 186/186/484 196/196/484 197/197/484
f 186/186/484 197/197/484 187/187/484
f 187/187/187 197/197/197 198/198/198
f 187/187/187 198/198/198 188/188/188
f 188/188/188 198/198/198 199/199/199
f 188/188/188 199/199/199 189/189/189
f 189/189/189 199/199/199 200/200/200
f 189/189/189 200/200/200 190/190/190
f 191/191/485 201/201/485 202/202/485
f 191/191/485 202/202/485 192/192/485
f 192/192/486 202/202/486 203/203/486
f 192/192/486 203/203/486 193/193/486
f 193/193/487 203/203/487 204/204/487
f 193/193/487 204/204/487 194/194/487
f 194/194/488 204/204/488 205/205/488
f 194/194/488 205/205/488 195/195/488
f 195/195/489 205/205/489 206/206/489
f 195/195/489 206/206/489 196/196/489
f 196/196/490 206/206/490 207/207/490
f 196/196/490 207/207/490 197/197/490
f 197/197/197 207/207/207 208/208/208
f 197/197/197 208/208/208 198/198/198
f 198/198/198 208/208/208 209/209/209
f 198/198/198 209/209/209 199/199/199
f 199/199/199 209/209/209 210/210/210
f 199/199/199 210/210/210 200/200/200
f 201/201/491 211/211/491 212/212/491
f 201/201/491 212/212/491 202/202/491
f 202/202/492 212/212/492 213/213/492
f 202/202/492 213/213/492 203/203/492
f 203/203/493 213/213/493 214/214/493
f 203/203/493 214/214/493 204/204/493
f 204/204/494 214/214/494 215/215/494
f 204/204/494 215/215/494 205/205/494
f 205/205/495 215/215/495 216/216/495
f 205/205/495 216/216/495 206/206/495
f 206/206/496 216/216/496 217/217/496
f 206/206/496 217/217/496 207/207/496
f 207/207/207 217/217/217 218/218/218
f 207/207/207 218/218/218 208/208/208
f 208/208/208 218/218/218 219/219/219
f 208/208/208 219/219/219 209/209/209
f 209/209/209 219/219/219 220/220/220
f 209/209/209 220/220/220 210/210/210
f 211/211/497 221/221/497 222/222/497
f 211/211/497 222/222/497 212/212/497
f 212/212/498 222/222/498 223/223/498
f 212/212/498 223/223/498 213/213/498
f 213/213/499 223/223/499 224/224/499
f 213/213/499 224/224/499 214/214/499
f 214/214/500 224/224/500 225/225/500
f 214/214/500 225/225/500 215/215/500
f 215/215/501 225/225/501 226/226/501
f 215/215/501 226/226/501 216/216/501
f 216/216/502 226/226/502 227/227/502
f 216/216/502 227/227/502 217/217/502
f 217/217/217 227/227/227 228/228/228
f 217/217/217 228/228/228 218/218/218
f 218/218/218 228/228/228 229/229/229
f 218/218/218 229/229/229 219/219/219
f 219/219/219 229/229/229 230/230/230
f 219/219/219 230/230/230 220/220/220
f 221/221/503 231/231/503 232/232/503
f 221/221/503 232/232/503 222/222/503
f 222/222/504 232/232/504 233/233/504
f 222/222/504 233/233/504 223/223/504
f 223/223/505 233/233/505 234/234/505
f 223/223/505 234/234/505 224/224/505
f 224/224/506 234/234/506 235/235/506
f 224/224/506 235/235/506 225/225/506
f 225/225/507 235/235/507 236/236/507
f 225/225/507 236/236/507 226/226/507
f 226/226/508 236/236/508 237/237/508
f 226/226/508 237/237/508 227/227/508
f 227/227/227 237/237/237 238/238/238
f 227/227/227 238/238/238 228/228/228
f 228/228/228 238/238/238 239/239/239
f 228/228/228 239/239/239 229/229/229
f 229/229/229 239/239/239 240/240/240
f 229/229/229 240/240/240 230/230/230
f 231/231/509 241/241/509 242/242/509
f 231/231/509 242/242/509 232/232/509
f 232/232/510 242/242/510 243/243/510
f 232/232/510 243/243/510 233/233/510
f 233/233/511 243/243/511 244/244/511
f 233/233/511 244/244/511 234/234/511
f 234/234/512 244/244/512 245/245/512
f 234/234/512 245/245/512 235/235/512
f 235/235/513 245/245/513 246/246/513
f 235/235/513 246/246/513 236/236/513
f 236/236/514 246/246/514 247/247/514
f 236/236/514 247/247/514 237/237/514
f 237/237/237 247/247/247 248/248/248
f 237/237/237 248/248/248 238/238/238
f 238/238/238 248/248/248 249/249/249
f 238/238/238 249/249/249 239/239/239
f 239/239/239 249/249/249 250/250/250
f 239/239/239 250/250/250 240/240/240
f 241/241/515 251/251/515 252/252/515
f 241/241/515 252/252/515 242/242/515
f 242/242/516 252/252/516 253/253/516
f 242/242/516 253/253/516 243/243/516
f 243/243/517 253/253/517 254/254/517
f 243/243/517 254/254/517 244/244/517
f 244/244/518 254/254/518 255/255/518
f 244/244/518 255/255/518 245/245/518
f 245/245/519 255/255/519 256/256/519
f 245/245/519 256/256/519 246/246/519
f 246/246/520 256/256/520 257/257/520
f 246/246/520 257/257/520 247/247/520
f 247/247/247 257/257/257 258/258/258
f 247/247/247 258/258/258 248/248/248
f 248/248/248 258/258/258 259/259/259
f 248/248/248 259/259/259 249/249/249
f 249/249/249 259/259/259 260/260/260
f 249/249/249 260/260/260 250/250/250
f 251/251/521 261/261/521 262/262/521
f 251/251/521 262/262/521 252/252/521
f 252/252/522 262/262/522 263/263/522
f 252/252/522 263/263/522 253/253/522
f 253/253/523 263/263/523 264/264/523
f 253/253/523 264/264/523 254/254/523
f 254/254/524 264/264/524 265/265/524
f 254/254/524 265/265/524 255/255/524
f 255/255/525 265/265/525 266/266/525
f 255/255/525 266/266/525 256/256/525
f 256/256/526 266/266/526 267/267/526
f 256/256/526 267/267/526 257/257/526
f 257/257/257 267/267/267 268/268/268
f 257/257/257 268/268/268 258/258/258
f 258/258/258 268/268/268 269/269/269
f 258/258/258 269/269/269 259/259/259
f 259/259/259 269/269/269 270/270/270
f 259/259/259 270/270/270 260/260/260
f 261/261/527 271/271/527 272/272/527
f 261/261/527 272/272/527 262/262/527
f 262/262/528 272/272/528 273/273/528
f 262/262/528 273/273/528 263/263/528
f 263/263/529 273/273/529 274/274/529
f 263/263/529 274/274/529 264/264/529
f 264/264/530 274/274/530 275/275/530
f 264/264/530 275/275/530 265/265/530
f 265/265/531 275/275/531 276/276/531
f 265/265/531 276/276/531 266/266/531
f 266/266/532 276/276/532 277/277/532
f 266/266/532 277/277/532 267/267/532
f 267/267/267 277/277/277 278/278/278
f 267/267/267 278/278/278 268/268/268
f 268/268/268 278/278/278 279/279/279
f 268/268/268 279/279/279 269/269/269
f 269/269/269 279/279/279 280/280/280
f 269/269/269 280/280/280 270/270/270
f 271/271/533 281/281/533 282/282/533
f 271/271/533 282/282/533 272/272/533
f 272/272/534 282/282/534 283/283/534
f 272/272/534 283/283/534 273/273/534
f 273/273/535 283/283/535 284/284/535
f 273/273/535 284/284/535 274/274/535
f 274/274/536 284/284/536 285/285/536
f 274/274/536 285/285/536 275/275/536
f 275/275/537 285/285/537 286/286/537
f 275/275/537 286/286/537 276/276/537
f 276/276/538 286/286/538 287/287/538
f 276/276/538 287/287/538 277/277/538
f 277/277/277 287/287/287 288/288/288
f 277/277/277 288/288/288 278/278/278
f 278/278/278 288/288/288 289/289/289
f 278/278/278 289/289/289 279/279/279
f 279/279/279 289/289/289 290/290/290
f 279/279/279 290/290/290 280/280/280
f 281/281/539 291/291/539 292/292/539
f 281/281/539 292/292/539 282/282/539
f 282/282/540 292/292/540 293/293/540
f 282/282/540 293/293/540 283/283/540
f 283/283/541 293/293/541 294/294/541
f 283/283/541 294/294/541 284/284/541
f 284/284/542 294/294/542 295/295/542
f 284/284/542 295/295/542 285/285/542
f 285/285/543 295/295/543 296/296/543
f 285/285/543 296/296/543 286/286/543
f 286/286/544 296/296/544 297/297/544
f 286/286/544 297/297/544 287/287/544
f 287/287/287 297/297/297 298/298/298
f 287/287/287 298/298/298 288/288/288
f 288/288/288 298/298/298 299/299/299
f 288/288/288 299/299/299 289/289/289
f 289/289/289 299/299/299 300/300/300
f 289/289/289 300/300/300 290/290/290
f 291/291/545 301/301/545 302/302/545
f 291/291/545 302/302/545 292/292/545
f 292/292/546 302/302/546 303/303/546
f 292/292/546 303/303/546 293/293/546
f 293/293/547 303/303/547 304/304/547
f 293/293/547 304/304/547 294/294/547
f 294/294/548 304/304/548 305/305/548
f 294/294/548 305/305/548 295/295/548
f 295/295/549 305/305/549 306/306/549
f 295/295/549 306/306/549 296/296/549
f 296/296/550 306/306/550 307/307/550
f 296/296/550 307/307/550 297/297/550
f 297/297/297 307/307/307 308/308/308
f 297/297/297 308/308/308 298/298/298
f 298/298/298 308/308/308 309/309/309
f 298/298/298 309/309/309 299/299/299
f 299/299/299 309/309/309 310/310/310
f 299/299/299 310/310/310 300/300/300
f 301/301/551 311/311/551 312/312/551
f 301/301/551 312/312/551 302/302/551
f 302/302/552 312/312/552 313/313/552
f 302/302/552 313/313/552 303/303/552
f 303/303/553 313/313/553 314/314/553
f 303/303/553 314/314/553 304/304/553
f 304/304/554 314/314/554 315/315/554
f 304/304/554 315/315/554 305/305/554
f 305/305/555 315/315/555 316/316/555
f 305/305/555 316/316/555 306/306/555
f 306/306/556 316/316/556 317/317/556
f 306/306/556 317/317/556 307/307/556
f 307/307/307 317/317/317 318/318/318
f 307/307/307 318/318/318 308/308/308
f 308/308/308 318/318/318 319/319/319
f 308/308/308 319/319/319 309/309/309
f 309/309/309 319/319/319 320/320/320
f 309/309/309 320/320/320 310/310/310
f 311/311/557 321/321/557 322/322/557
f 311/311/557 322/322/557 312/312/557
f 312/312/558 322/322/558 323/323/558
f 312/312/558 323/323/558 313/313/558
f 313/313/559 323/323/559 324/324/559
f 313/313/559 324/324/559 314/314/559
f 314/314/560 324/324/560 325/325/560
f 314/314/560 325/325/560 315/315/560
f 315/315/561 325/325/561 326/326/561
f 315/315/561 326/326/561 316/316/561
f 316/316/562 326/326/562 327/327/562
f 316/316/562 327/327/562 317/317/562
f 317/317/317 327/327/327 328/328/328
f 317/317/317 328/328/328 318/318/318
f 318/318/318 328/328/328 329/329/329
f 318/318/318 329/329/329 319/319/319
f 319/319/319 329/329/329 330/330/330
f 319/319/319 330/330/330 320/320/320
f 321/321/563 331/331/563 332/332/563
f 321/321/563 332/332/563 322/322/563
f 322/322/564 332/332/564 333/333/564
f 322/322/564 333/333/564 323/323/564
f 323/323/565 333/333/565 334/334/565
f 323/323/565 334/334/565 324/324/565
f 324/324/566 334/334/566 335/335/566
f 324/324/566 335/335/566 325/325/566
f 325/325/567 335/335/567 336/336/567
f 325/325/567 336/336/567 326/326/567
f 326/326/568 336/336/568 337/337/568
f 326/326/568 337/337/568 327/327/568
f 327/327/327 337/337/337 338/338/338
f 327/327/327 338/338/338 328/328/328
f 328/328/328 338/338/338 339/339/339
f 328/328/328 339/339/339 329/329/329
f 329/329/329 339/339/339 340/340/340
f 329/329/329 340/340/340 330/330/330
f 331/331/569 341/341/569 342/342/569
f 331/331/569 342/342/569 332/332/569
f 332/332/570 342/342/570 343/343/570
f 332/332/570 343/343/570 333/333/570
f 333/333/571 343/343/571 344/344/571
f 333/333/571 344/344/571 334/334/571
f 334/334/572 344/344/572 345/345/572
f 334/334/572 345/345/572 335/335/572
f 335/335/573 345/345/573 346/346/573
f 335/335/573 346/346/573 336/336/573
f 336/336/574 346/346/574 347/347/574
f 336/336/574 347/347/574 337/337/574
f 337/337/337 347/347/347 348/348/348
f 337/337/337 348/348/348 338/338/338
f 338/338/338 348/348/348 349/349/349
f 338/338/338 349/349/349 339/339/339
f 339/339/339 349/349/349 350/350/350
f 339/339/339 350/350/350 340/340/340
f 341/341/575 351/351/575 352/352/575
f 341/341/575 352/352/575 342/342/575
f 342/342/576 352/352/576 353/353/576
f 342/342/576 353/353/576 343/343/576
f 343/343/577 353/353/577 354/354/577
f 343/343/577 354/354/577 344/344/577
f 344/344/578 354/354/578 355/355/578
f 344/344/578 355/355/578 345/345/578
f 345/345/579 355/355/579 356/356/579
f 345/345/579 356/356/579 346/346/579
f 346/346/580 356/356/580 357/357/580
f 346/346/580 357/357/580 347/347/580
f 347/347/347 357/357/357 358/358/358
f 347/347/347 358/358/358 348/348/348
f 348/348/348 358/358/358 359/359/359
f 348/348/348 359/359/359 349/349/349
f 349/349/349 359/359/359 360/360/360
f 349/349/349 360/360/360 350/350/350
f 351/351/581 361/361/581 362/362/581
f 351/351/581 362/362/581 352/352/581
f 352/352/582 362/362/582 363/363/582
f 352/352/582 363/363/582 353/353/582
f 353/353/583 363/363/583 364/364/583
f 353/353/583 364/364/583 354/354/583
f 354/354/584 364/364/584 365/365/584
f 354/354/584 365/365/584 355/355/584
f 355/355/585 365/365/585 366/366/585
f 355/355/585 366/366/585 356/356/585
f 356/356/586 366/366/586 367/367/586
f 356/356/586 367/367/586 357/357/586
f 357/357/357 367/367/367 368/368/368
f 357/357/357 368/368/368 358/358/358
f 358/358/358 368/368/368 369/369/369
f 358/358/358 369/369/369 359/359/359
f 359/359/359 369/369/369 370/370/370
f 359/359/359 370/370/370 360/360/360
